<svg width="54" height="53" viewBox="0 0 54 53" fill="none" xmlns="http://www.w3.org/2000/svg">
<path d="M34.4548 52.2644C46.9336 50.2468 54 42.5318 54 26.7336C54 10.9228 46.9462 3.20776 34.4548 1.19016C32.1494 0.809487 29.6687 0.631836 27 0.631836C24.3439 0.631836 21.8506 0.809487 19.5452 1.19016C7.06636 3.20776 0 10.9228 0 26.7336C0 42.5445 7.06636 50.2468 19.5452 52.2644C21.8506 52.6451 24.3313 52.8101 27 52.8101C29.6687 52.8101 32.1494 52.6451 34.4548 52.2644ZM34.4548 3.16969C43.2752 5.09845 50.5044 11.202 50.5044 26.7336C50.5044 38.5346 46.3322 44.892 40.4436 48.1023L37.1234 25.5028L34.4548 17.8892L29.0548 2.47178C30.884 2.5606 32.7007 2.78901 34.4548 3.16969ZM25.9852 2.43371C26.3234 2.42102 26.6617 2.42102 27 2.42102C27.3383 2.42102 27.6766 2.43371 28.0148 2.43371L28.3155 21.2646H27H25.6845L25.9852 2.43371ZM3.50812 26.7336C3.50812 11.202 10.7374 5.09845 19.5578 3.16969C21.3118 2.78901 23.1285 2.5606 24.9578 2.47178L19.5578 17.8892L16.8891 25.5028L13.5689 48.1023C7.68028 44.8793 3.50812 38.5346 3.50812 26.7336ZM19.5578 50.2849C17.6659 49.8662 15.8367 49.2571 14.1452 48.4069L19.5578 37.0373L25.4213 24.716H27.0125H28.6037L34.4673 37.0373L39.8798 48.4069C38.1884 49.2571 36.3592 49.8535 34.4673 50.2849C32.0617 50.8052 29.5434 51.0209 27.0125 51.0336C24.4817 51.0209 21.9508 50.8052 19.5578 50.2849Z" fill="#372120"/>
</svg>
