<svg width="92" height="34" viewBox="0 0 92 34" fill="none" xmlns="http://www.w3.org/2000/svg">
<path d="M15.7204 2.83984C11.9991 2.96513 8.47559 4.56146 5.9094 7.28473C3.34322 10.008 1.93991 13.6401 2.00197 17.398C2.06404 21.156 3.58651 24.7389 6.2412 27.3743C8.89588 30.0097 12.4702 31.4866 16.1935 31.4866C19.9169 31.4866 23.4912 30.0097 26.1459 27.3743C28.8006 24.7389 30.3231 21.156 30.3851 17.398C30.4472 13.6401 29.0439 10.008 26.4777 7.28473C23.9115 4.56146 20.388 2.96513 16.6667 2.83984H15.7204ZM35.5914 2.83984C31.8701 2.96513 28.3466 4.56146 25.7804 7.28473C23.2142 10.008 21.8109 13.6401 21.8729 17.398C21.935 21.156 23.4575 24.7389 26.1122 27.3743C28.7668 30.0097 32.3411 31.4866 36.0645 31.4866C39.7879 31.4866 43.3622 30.0097 46.0169 27.3743C48.6716 24.7389 50.194 21.156 50.2561 17.398C50.3182 13.6401 48.9148 10.008 46.3487 7.28473C43.7825 4.56146 40.2589 2.96513 36.5376 2.83984H35.5914ZM55.4624 2.83984C51.741 2.96513 48.2175 4.56146 45.6513 7.28473C43.0852 10.008 41.6818 13.6401 41.7439 17.398C41.806 21.156 43.3284 24.7389 45.9831 27.3743C48.6378 30.0097 52.2121 31.4866 55.9355 31.4866C59.6589 31.4866 63.2331 30.0097 65.8878 27.3743C68.5425 24.7389 70.065 21.156 70.1271 17.398C70.1891 13.6401 68.7858 10.008 66.2196 7.28473C63.6534 4.56146 60.1299 2.96513 56.4086 2.83984H55.4624ZM75.3333 2.83984C71.612 2.96513 68.0885 4.56146 65.5223 7.28473C62.9561 10.008 61.5528 13.6401 61.6149 17.398C61.6769 21.156 63.1994 24.7389 65.8541 27.3743C68.5088 30.0097 72.0831 31.4866 75.8064 31.4866C79.5298 31.4866 83.1041 30.0097 85.7588 27.3743C88.4135 24.7389 89.936 21.156 89.998 17.398C90.0601 13.6401 88.6568 10.008 86.0906 7.28473C83.5244 4.56146 80.0009 2.96513 76.2796 2.83984H75.3333Z" stroke="#372120" stroke-width="4"/>
</svg>
