<svg width="54" height="56" viewBox="0 0 54 56" fill="none" xmlns="http://www.w3.org/2000/svg">
<path fill-rule="evenodd" clip-rule="evenodd" d="M0 0.469971H54V55.7178H0V0.469971Z" fill="white"/>
<path fill-rule="evenodd" clip-rule="evenodd" d="M26.9997 54.9062C33.9992 54.9062 40.5807 52.1175 45.5303 47.0535C50.48 41.9892 53.2058 35.2566 53.2058 28.0948C53.2058 20.9334 50.48 14.2004 45.5303 9.13646C40.5807 4.07249 33.9995 1.28369 26.9997 1.28369C12.5498 1.28369 0.793945 13.3111 0.793945 28.0948C0.793945 35.2563 3.51978 41.9892 8.46941 47.0535C13.4191 52.1172 20 54.9062 26.9997 54.9062Z" fill="#372120"/>
<path fill-rule="evenodd" clip-rule="evenodd" d="M1.70117 28.0942C1.70117 21.1807 4.33259 14.6808 9.11106 9.79197C13.8895 4.90314 20.2427 2.21094 27.0001 2.21094C33.7578 2.21094 40.111 4.90342 44.8892 9.79197C49.6676 14.6808 52.2988 21.1807 52.2988 28.0942C52.2988 42.3666 40.95 53.9778 26.9998 53.9778C20.2421 53.9778 13.8892 51.2853 9.11077 46.3968C4.33231 41.5082 1.70117 35.008 1.70117 28.0942Z" fill="white"/>
<path fill-rule="evenodd" clip-rule="evenodd" d="M26.9997 3.27808C13.6033 3.27808 2.74316 14.3894 2.74316 28.0948C2.74316 41.8006 13.6036 52.9116 26.9997 52.9116C40.396 52.9116 51.2562 41.8006 51.2562 28.0948C51.2562 14.3894 40.396 3.27808 26.9997 3.27808Z" fill="#372120"/>
<path fill-rule="evenodd" clip-rule="evenodd" d="M27.0002 43.946C18.4431 43.946 11.5059 36.8486 11.5059 28.0939C11.5059 19.3392 18.4431 12.2417 27.0002 12.2417C35.5571 12.2417 42.4946 19.3392 42.4946 28.0939C42.4946 36.8486 35.5571 43.946 27.0002 43.946Z" fill="white"/>
<path fill-rule="evenodd" clip-rule="evenodd" d="M12.5029 28.0941H27.0005V13.262C18.9939 13.262 12.5029 19.9026 12.5029 28.0941ZM27.0005 28.0941V42.9265C35.0068 42.9265 41.4978 36.2856 41.4978 28.0941H27.0005Z" fill="#372120"/>
<path fill-rule="evenodd" clip-rule="evenodd" d="M15.6139 12.9689C15.1004 12.4584 14.3065 12.3042 13.561 12.7771C13.7033 12.3997 13.6453 12.0144 13.5697 11.8018C13.2486 11.2028 13.1366 11.1277 12.8718 10.9007C12.0152 10.1652 11.1136 10.7932 10.4687 11.5794L7.35352 15.3779L12.251 19.5823L15.5366 15.5765C16.2871 14.6613 16.4034 13.7539 15.6139 12.9689ZM27.8121 11.1641L29.4941 6.60314V11.1641H30.7724V4.63208H28.8517L27.1047 9.30879H27.1229L25.3759 4.63208H23.4555V11.1641H24.7338V6.60314L26.4158 11.1641H27.8121ZM44.998 13.8815L42.591 17.3676L46.3222 15.5553L47.3103 16.8032L41.4376 19.7158L40.2781 18.2392L42.5879 14.7837L42.5747 14.7665L38.7905 16.3595L37.62 14.8924L41.6253 9.6212L42.6134 10.8691L40.1046 14.2263L43.9382 12.5427L44.998 13.8815Z" fill="white"/>
<path fill-rule="evenodd" clip-rule="evenodd" d="M11.1497 12.5196C11.3665 12.2554 11.8565 12.266 12.1714 12.5365C12.5179 12.834 12.5188 13.2556 12.2863 13.5394L10.4362 15.7953L9.27832 14.8011L11.1497 12.5196ZM14.4414 15.1805L12.491 17.5588L11.2679 16.5087L13.2346 14.1112C13.4564 13.8403 13.9517 13.7615 14.2854 14.0481C14.663 14.3729 14.7006 14.8647 14.4414 15.1805Z" fill="#372120"/>
</svg>
