<svg width="54" height="56" viewBox="0 0 54 56" fill="none" xmlns="http://www.w3.org/2000/svg">
<path fill-rule="evenodd" clip-rule="evenodd" d="M27 0.64624C12.1007 0.64624 0 12.9989 0 28.2698C0 43.5408 12.1007 55.8936 27 55.8936C41.8993 55.8936 54 43.5408 54 28.2698C54 13.0389 41.9387 0.64624 27 0.64624Z" fill="white"/>
<path fill-rule="evenodd" clip-rule="evenodd" d="M26.9993 2.04614C12.849 2.04614 1.37891 13.7992 1.37891 28.2707C1.37891 42.7422 12.849 54.4954 26.9993 54.4954C41.1497 54.4954 52.6198 42.7422 52.6198 28.2707C52.6198 13.7992 41.1497 2.04614 26.9993 2.04614Z" fill="#372120"/>
<path fill-rule="evenodd" clip-rule="evenodd" d="M26.9998 52.0159C14.1896 52.0159 3.82324 41.382 3.82324 28.2697C3.82324 15.1574 14.1896 4.52368 26.9998 4.52368C39.81 4.52368 50.1766 15.1574 50.1766 28.2697C50.216 41.382 39.81 52.0159 26.9998 52.0159Z" fill="white"/>
<path fill-rule="evenodd" clip-rule="evenodd" d="M43.2792 40.5027C43.0427 40.2628 42.7273 40.1428 42.3725 40.1428C42.0572 40.1428 41.742 40.2628 41.5055 40.5027C41.2296 40.7427 41.1113 41.0627 41.1113 41.4226C41.1113 41.7826 41.2295 42.1025 41.466 42.3425C41.7025 42.5824 42.0178 42.7024 42.3725 42.7024C42.7273 42.7024 43.0033 42.5824 43.2398 42.3425C43.4762 42.1025 43.6339 41.7826 43.6339 41.4226C43.6339 41.0227 43.5157 40.7427 43.2792 40.5027Z" fill="#372120"/>
<path fill-rule="evenodd" clip-rule="evenodd" d="M43.1218 40.6625C43.3188 40.8623 43.437 41.1022 43.437 41.422C43.437 41.7018 43.3188 41.9816 43.1218 42.1814C42.9247 42.3813 42.688 42.5012 42.3727 42.5012C42.0968 42.5012 41.8209 42.3813 41.6238 42.1814C41.4268 41.9816 41.3086 41.7418 41.3086 41.422C41.3086 41.1422 41.4268 40.9023 41.6238 40.6625C41.8209 40.4626 42.0574 40.3428 42.3727 40.3428C42.6486 40.3428 42.9247 40.4226 43.1218 40.6625Z" fill="white"/>
<path fill-rule="evenodd" clip-rule="evenodd" d="M31.5332 12.7192C31.5332 12.7192 31.5332 14.2384 31.5332 16.2372H21.4034C21.4034 16.2372 21.4034 17.7563 21.4034 19.7551H11.2734C11.2734 19.7551 11.2734 29.7093 11.2734 32.6276C11.2734 39.1437 13.875 42.7415 17.2648 48.2583C19.8662 44.0208 22.034 40.9027 22.8617 36.7051C23.9654 39.3436 25.542 41.7422 27.3946 44.7404C29.996 40.5029 32.164 37.3847 32.9917 33.1872C34.0954 35.8256 35.672 38.2243 37.5246 41.2225C40.9143 35.7057 43.5159 32.1478 43.5159 25.5916C43.5159 22.6734 43.5159 12.7192 43.5159 12.7192H31.5332Z" fill="#372120"/>
<path fill-rule="evenodd" clip-rule="evenodd" d="M21.4424 33.5069C21.4424 37.1447 19.3928 41.4622 17.3037 44.7402C15.2541 41.4622 13.165 37.1447 13.165 33.5069C13.165 31.7879 13.165 21.6738 13.165 21.6738H21.4029C21.4423 24.4722 21.4424 32.8672 21.4424 33.5069Z" fill="white"/>
<path fill-rule="evenodd" clip-rule="evenodd" d="M31.5332 29.9488C31.5332 33.5867 29.4836 37.9041 27.3945 41.1821C25.3449 37.9041 23.2559 33.5867 23.2559 29.9488C23.2559 28.6696 23.2559 18.1157 23.2559 18.1157H31.4939C31.5334 20.9541 31.5332 29.3092 31.5332 29.9488Z" fill="white"/>
<path fill-rule="evenodd" clip-rule="evenodd" d="M41.6631 26.4311C41.6631 30.069 39.6135 34.3864 37.5244 37.6646C35.4748 34.3864 33.3857 30.069 33.3857 26.4311C33.3857 25.1518 33.3857 14.5979 33.3857 14.5979H41.6236C41.663 14.5979 41.6631 24.7121 41.6631 26.4311Z" fill="white"/>
<path fill-rule="evenodd" clip-rule="evenodd" d="M13.6387 27.9102V33.307C13.6387 36.625 15.5308 41.0624 17.3045 43.8208C18.2111 42.4216 19.1176 40.6227 19.8271 38.7438L13.6387 27.9102Z" fill="#372120"/>
<path fill-rule="evenodd" clip-rule="evenodd" d="M33.8594 20.874V26.2708C33.8594 29.5889 35.7513 34.0263 37.525 36.7847C38.4316 35.3855 39.3381 33.5866 40.0476 31.7077L33.8594 20.874Z" fill="#372120"/>
<path fill-rule="evenodd" clip-rule="evenodd" d="M23.7676 24.3921V29.7889C23.7676 33.107 25.6595 37.5444 27.4332 40.3027C28.3398 38.9036 29.2463 37.1046 29.9558 35.2257L23.7676 24.3921Z" fill="#372120"/>
<path fill-rule="evenodd" clip-rule="evenodd" d="M20.8519 34.9861L13.6387 22.3933V22.0735H20.9701V33.2671C20.9701 33.8267 20.9308 34.3864 20.8519 34.9861Z" fill="#372120"/>
<path fill-rule="evenodd" clip-rule="evenodd" d="M41.0724 27.95L33.8594 15.3574V15.0376H41.1906V26.231C41.1906 26.7906 41.1513 27.3503 41.0724 27.95Z" fill="#372120"/>
<path fill-rule="evenodd" clip-rule="evenodd" d="M30.9416 31.4678L23.7285 18.8752V18.5554H31.06V29.7489C31.0994 30.3085 31.0204 30.8681 30.9416 31.4678Z" fill="#372120"/>
<path fill-rule="evenodd" clip-rule="evenodd" d="M42.1752 41.6223H42.2541H42.333C42.3724 41.6223 42.4118 41.6223 42.4512 41.6622C42.4906 41.6622 42.5299 41.7023 42.5694 41.7822C42.5694 41.8222 42.5694 41.8623 42.6088 41.9423C42.6482 42.0222 42.6089 42.1022 42.6483 42.1422H43.003V42.1022V42.0621V42.0222V41.9022C43.003 41.7423 42.9636 41.6623 42.8848 41.5823C42.8454 41.5423 42.7666 41.5023 42.6877 41.5023C42.7666 41.5023 42.8454 41.4623 42.9243 41.4224C43.0031 41.3824 43.0424 41.3023 43.0424 41.1824C43.0424 41.0224 42.9636 40.9024 42.8453 40.8624C42.7665 40.8224 42.6876 40.7825 42.5694 40.7825C42.5694 40.7825 42.4512 40.7825 42.2936 40.7825C42.1359 40.7825 41.9782 40.7825 41.8994 40.7825V42.2222H42.2541V41.6223H42.1752Z" fill="#372120"/>
<path fill-rule="evenodd" clip-rule="evenodd" d="M42.5307 41.3025C42.4913 41.3425 42.4124 41.3425 42.3336 41.3425H42.1758V40.9424H42.2547C42.3335 40.9424 42.4124 40.9423 42.4518 40.9823C42.5306 41.0224 42.5699 41.0624 42.5699 41.1425C42.5699 41.2225 42.5701 41.2625 42.5307 41.3025Z" fill="white"/>
</svg>
