<svg width="54" height="56" viewBox="0 0 54 56" fill="none" xmlns="http://www.w3.org/2000/svg">
<path d="M27 0.498301C35.934 0.498301 44.8637 0.498296 53.7977 0.493408C53.9604 0.493408 54 0.532519 54 0.718273C53.9956 18.9857 53.9956 37.2482 54 55.5156C54 55.6965 53.9648 55.7405 53.7977 55.7405C35.934 55.7356 18.066 55.7356 0.202251 55.7405C0.0395744 55.7405 0 55.7014 0 55.5156C0.00439668 37.2482 0.00439668 18.9857 0 0.718273C0 0.537407 0.0351777 0.493408 0.202251 0.493408C9.1363 0.498296 18.066 0.498301 27 0.498301ZM53.5164 26.3865C53.5032 24.9494 53.4196 23.4096 53.1822 21.8844C52.914 20.1589 52.4963 18.4773 51.9424 16.8349C51.3664 15.1288 50.6233 13.5206 49.7044 12.0199C48.5129 10.0744 47.0972 8.34884 45.4573 6.85303C44.1207 5.64075 42.6786 4.61422 41.1573 3.71478C40.1417 3.11352 39.0997 2.59048 38.0489 2.07721C37.3806 1.7497 36.7035 1.43684 36 1.21198C35.5691 1.07511 35.1295 0.996899 34.6766 1.05556C34.0962 1.12888 33.5818 1.39773 33.0894 1.72525C32.7509 1.95011 32.4739 2.24829 32.3024 2.65402C32.254 2.77133 32.254 2.82511 32.3815 2.87888C33.4587 3.32371 34.5095 3.83698 35.5515 4.37469C36.4617 4.84396 37.3498 5.35233 38.2115 5.91937C39.3283 6.65261 40.3879 7.46896 41.3947 8.38306C42.5203 9.40959 43.5403 10.5437 44.4504 11.8048C45.4485 13.1833 46.2794 14.684 46.9785 16.2776C48.0733 18.7804 48.658 21.42 48.7636 24.1917C48.8383 26.2008 48.6712 28.1903 48.2448 30.1505C47.616 33.0394 46.5081 35.684 44.9253 38.0743C43.6502 40.0003 42.0938 41.6232 40.3923 43.075C39.0953 44.1846 37.6927 45.0987 36.2154 45.8809C34.0259 47.0345 31.766 47.9388 29.3654 48.3739C28.2399 48.5792 27.1099 48.6378 25.9756 48.5303C24.6918 48.4081 23.4299 48.1197 22.1856 47.7384C20.7303 47.2887 19.3234 46.6972 17.956 45.9884C16.8085 45.392 15.7049 44.7077 14.6497 43.9305C13.9595 43.427 13.3043 42.8648 12.6624 42.2831C11.5237 41.2517 10.4817 40.1127 9.57158 38.832C8.15584 36.8425 7.03469 34.6623 6.27407 32.2622C5.61896 30.1896 5.26284 28.0583 5.1793 25.8684C5.14852 25.1253 5.18369 24.3872 5.21886 23.6491C5.27602 22.5834 5.40353 21.5276 5.62337 20.4913C6.00148 18.7022 6.58622 17.001 7.36443 15.3781C7.99316 14.073 8.72741 12.8558 9.56717 11.712C10.8026 10.0353 12.2535 8.61769 13.832 7.34674C15.7181 5.83627 17.7714 4.67776 19.9214 3.71966C20.4006 3.50457 20.8798 3.27972 21.3503 3.03042C21.68 2.85933 21.702 2.68335 21.4954 2.35584C21.3942 2.19453 21.2623 2.06254 21.126 1.94034C20.9458 1.76925 20.7391 1.64703 20.5325 1.52972C19.7982 1.11421 19.0376 0.933351 18.2198 1.20221C17.1954 1.53949 16.1974 1.96478 15.2213 2.43894C14.0694 2.9962 12.9306 3.58767 11.849 4.30625C11.0137 4.86351 10.2003 5.45499 9.42209 6.10024C8.2262 7.09744 7.10944 8.19241 6.107 9.42914C5.39034 10.3139 4.75721 11.2671 4.16366 12.2546C3.36786 13.5842 2.69078 14.9871 2.14119 16.4633C1.21349 18.9759 0.712275 21.6009 0.540804 24.2992C0.38692 26.7385 0.408891 29.1777 0.791402 31.6023C1.14753 33.8607 1.79825 36.0115 2.69518 38.0694C3.34149 39.5555 4.11529 40.9633 4.99023 42.3027C5.97948 43.8229 7.09185 45.2258 8.31852 46.5163C10.0288 48.3103 11.9062 49.8501 13.9595 51.1309C15.8852 52.3383 17.9121 53.2719 20.0313 53.9612C21.2447 54.3571 22.4758 54.6748 23.7289 54.8802C24.7445 55.0464 25.7601 55.1588 26.7846 55.2126C28.4597 55.3005 30.0821 54.8606 31.7132 54.5282C32.7289 54.3229 33.7225 54.01 34.703 53.6581C36.2023 53.1204 37.6532 52.4654 39.0557 51.6686C40.6517 50.7642 42.1553 49.7084 43.5755 48.4961C44.5603 47.6504 45.4968 46.7461 46.3849 45.7684C47.4094 44.6441 48.3195 43.4172 49.1373 42.1071C50.1441 40.4891 50.9707 38.7685 51.6654 36.9598C52.3073 35.2782 52.8041 33.5478 53.0987 31.7489C53.3845 30.0087 53.5076 28.2587 53.5164 26.3865ZM26.9253 43.5589C27.0396 43.5492 27.2066 43.5394 27.3737 43.515C28.363 43.3732 29.3214 43.075 30.2711 42.7475C31.5066 42.3173 32.7333 41.8578 33.9468 41.369C35.5955 40.7042 37.275 40.1469 38.8534 39.2719C39.8559 38.7147 40.6385 37.9521 40.999 36.7349C41.276 35.8111 41.3991 34.853 41.4959 33.89C41.6322 32.5066 41.7509 31.1232 41.83 29.735C41.9311 28.0485 42.0498 26.3572 42.1729 24.6707C42.2125 24.1379 42.2037 23.5953 42.4279 23.0967C42.8588 22.1533 43.3512 21.2489 43.8217 20.33C44.3009 19.3914 44.7846 18.4529 45.2726 17.5192C45.3605 17.353 45.3517 17.2895 45.1627 17.2699C44.8417 17.2406 44.5252 17.1917 44.2042 17.1428C43.0655 16.9717 41.9311 16.7909 40.7924 16.6247C39.3415 16.4145 37.8906 16.2189 36.4397 16.0136C34.9976 15.8083 33.5555 15.603 32.1089 15.3977C30.9043 15.2266 29.6996 15.0653 28.4993 14.8942C27.5716 14.7622 26.6483 14.6302 25.703 14.7769C24.5115 14.9675 23.3024 15.0604 22.1065 15.2168C20.7699 15.3928 19.4377 15.5883 18.1011 15.779C16.681 15.9843 15.2609 16.1847 13.8408 16.3949C12.8471 16.5416 11.8578 16.6931 10.8642 16.8495C10.0552 16.9766 9.24623 17.1184 8.43724 17.2455C8.31413 17.265 8.28334 17.3041 8.35369 17.4312C8.42843 17.5632 8.48999 17.7001 8.56034 17.8369C9.39571 19.4598 10.2311 21.0779 11.062 22.7008C11.2643 23.0918 11.4094 23.5073 11.4402 23.9619C11.5149 25.1156 11.5853 26.2643 11.6644 27.4179C11.7435 28.6107 11.8447 29.8034 11.9194 30.9961C12.0293 32.7021 12.1085 34.4081 12.4558 36.0799C12.68 37.1553 13.1637 38.045 13.9771 38.7049C14.5222 39.1448 15.1202 39.4577 15.7357 39.7363C17.556 40.5673 19.4333 41.2126 21.2887 41.936C22.5638 42.4347 23.852 42.8893 25.1666 43.251C25.7206 43.4221 26.2878 43.5443 26.9253 43.5589Z" fill="#FDFDFD"/>
<path d="M53.517 26.3873C53.5082 28.2595 53.3851 30.0095 53.1037 31.7449C52.8091 33.5438 52.3167 35.2742 51.6704 36.9558C50.9801 38.7644 50.1491 40.49 49.1423 42.1031C48.3245 43.4181 47.41 44.6401 46.3899 45.7644C45.5062 46.7372 44.5697 47.6464 43.5805 48.4921C42.1647 49.7044 40.6567 50.7602 39.0607 51.6646C37.6582 52.4614 36.2029 53.1213 34.708 53.6541C33.7275 54.0061 32.7339 54.3189 31.7182 54.5242C30.0871 54.8566 28.4647 55.2966 26.7896 55.2086C25.7651 55.1548 24.7495 55.0424 23.7339 54.8762C22.4808 54.6758 21.2497 54.3531 20.0363 53.9572C17.9171 53.2679 15.8902 52.3294 13.9644 51.1269C11.9156 49.8461 10.0338 48.3063 8.3235 46.5123C7.09683 45.2267 5.98886 43.8189 4.99521 42.2987C4.12027 40.9593 3.35086 39.5515 2.70016 38.0654C1.80323 36.0075 1.15251 33.8566 0.796381 31.5982C0.41387 29.1737 0.391899 26.7344 0.545783 24.2952C0.717253 21.5968 1.21847 18.9718 2.14617 16.4593C2.69136 14.983 3.36845 13.5801 4.16864 12.2505C4.76219 11.263 5.3953 10.3049 6.11196 9.42504C7.11001 8.18831 8.22678 7.08845 9.42708 6.09614C10.2053 5.446 11.0187 4.85941 11.854 4.30214C12.9356 3.58357 14.0744 2.99208 15.2263 2.43481C16.2068 1.96065 17.2004 1.53538 18.2248 1.19809C19.0426 0.929237 19.8032 1.1101 20.5375 1.5256C20.7441 1.64292 20.9508 1.76512 21.131 1.93621C21.2673 2.06331 21.3948 2.1904 21.5003 2.35172C21.7114 2.67923 21.685 2.85521 21.3553 3.0263C20.8848 3.27071 20.41 3.50047 19.9263 3.71555C17.7764 4.67365 15.7231 5.83217 13.8369 7.34264C12.2585 8.60871 10.8076 10.0312 9.57216 11.7079C8.73239 12.8468 7.99814 14.0689 7.36942 15.3741C6.5912 16.997 6.00205 18.6981 5.62833 20.4872C5.40849 21.5235 5.27661 22.5794 5.22385 23.645C5.18428 24.3832 5.1535 25.1213 5.18428 25.8643C5.26782 28.0591 5.62394 30.1855 6.27905 32.2582C7.03967 34.6632 8.16083 36.8385 9.57656 38.828C10.4867 40.1087 11.5287 41.2477 12.6674 42.2791C13.3093 42.8608 13.9644 43.423 14.6547 43.9264C15.7099 44.6988 16.8135 45.388 17.961 45.9844C19.3284 46.6932 20.7353 47.2847 22.1906 47.7344C23.4349 48.1206 24.6923 48.4041 25.9806 48.5263C27.1149 48.6339 28.2448 48.5752 29.3704 48.3699C31.771 47.9299 34.0353 47.0305 36.2204 45.8769C37.6977 45.0996 39.1003 44.1806 40.3973 43.071C42.0988 41.6192 43.6508 39.9963 44.9303 38.0703C46.5131 35.6799 47.621 33.0354 48.2498 30.1464C48.6762 28.1862 48.8477 26.2016 48.7686 24.1876C48.663 21.416 48.0783 18.7763 46.9835 16.2735C46.2844 14.6799 45.4535 13.1841 44.4554 11.8007C43.5453 10.5445 42.5209 9.40549 41.3997 8.37895C40.3973 7.46485 39.3333 6.64851 38.2165 5.91527C37.3548 5.34823 36.4666 4.83985 35.5565 4.37057C34.5145 3.83286 33.4637 3.31959 32.3865 2.87476C32.2546 2.82099 32.2546 2.76722 32.3074 2.64991C32.4789 2.24418 32.7558 1.94599 33.0944 1.72113C33.5868 1.39362 34.1012 1.12477 34.6816 1.05144C35.1345 0.992785 35.5741 1.07099 36.005 1.20787C36.7085 1.43273 37.3855 1.74557 38.0538 2.07309C39.1046 2.58636 40.1467 3.11429 41.1623 3.71066C42.6836 4.6101 44.1301 5.63663 45.4622 6.84892C47.1022 8.33985 48.5179 10.0703 49.7094 12.0158C50.6327 13.5165 51.3714 15.1296 51.9473 16.8308C52.5013 18.4732 52.919 20.1499 53.1872 21.8804C53.4246 23.4104 53.5038 24.9502 53.517 26.3873ZM19.7417 47.8615C19.7637 48.0326 19.8472 48.101 19.9307 48.1646C20.8101 48.8734 21.5971 49.6946 22.2961 50.6234C22.5424 50.9509 22.8062 51.2442 23.2238 51.3517C24.323 51.6401 25.4398 51.7575 26.5609 51.8797C26.7412 51.8992 26.7544 51.8406 26.7544 51.6695C26.7412 51.034 26.7368 50.3985 26.7368 49.7631C26.7368 49.6066 26.7016 49.548 26.5521 49.5137C24.8023 49.0933 23.0568 48.6632 21.3069 48.2379C20.7925 48.1157 20.2781 47.9886 19.7417 47.8615ZM34.2199 47.8468C34.0837 47.8713 33.9869 47.8762 33.899 47.9006C32.6811 48.2183 31.4676 48.5361 30.2497 48.8538C29.2957 49.1031 28.3416 49.3427 27.3875 49.5871C27.2996 49.6115 27.2072 49.6164 27.2072 49.7777C27.2072 50.4181 27.2292 51.0633 27.1853 51.7037C27.1765 51.8259 27.2028 51.8797 27.3347 51.8601C28.535 51.6597 29.7353 51.4642 30.9312 51.2637C31.0631 51.2442 31.1818 51.1953 31.2786 51.078C31.5028 50.8091 31.7358 50.5501 31.9601 50.2861C32.5712 49.5773 33.134 48.8098 33.8506 48.2183C33.9693 48.1206 34.1188 48.057 34.2199 47.8468ZM50.1579 34.4921C50.2151 34.4774 50.2326 34.4774 50.2414 34.4676C50.9581 33.8224 51.6308 33.1234 52.3079 32.4292C52.5937 32.1359 52.7256 31.784 52.7651 31.3636C52.8619 30.3126 52.9146 29.2568 53.0025 28.2058C53.1388 26.6073 53.0817 25.0235 52.9454 23.4299C52.941 23.381 52.963 23.298 52.8926 23.2882C52.8311 23.2784 52.8047 23.3468 52.7959 23.4006C52.7476 23.6059 52.708 23.8112 52.6596 24.0165C52.0265 26.6757 51.389 29.3399 50.7515 31.9991C50.558 32.8203 50.3602 33.6415 50.1579 34.4921ZM0.919501 27.2966C0.967864 28.7728 1.047 30.2002 1.33719 31.6031C1.39434 31.8818 1.45588 32.1702 1.64933 32.3706C2.28245 33.0256 2.92437 33.6611 3.56629 34.3063C3.60586 34.3454 3.65422 34.4237 3.71577 34.3748C3.78612 34.3259 3.73776 34.2477 3.72017 34.1792C3.46517 32.9767 3.21016 31.7791 2.95515 30.5766C2.74851 29.6136 2.57265 28.6408 2.32644 27.6925C2.14617 27.0033 1.86917 26.3433 1.63175 25.6688C1.47347 25.2142 1.33278 24.7547 1.26683 24.2658C1.25364 24.1778 1.23165 24.041 1.12613 24.0508C1.02501 24.0605 1.05578 24.1925 1.05578 24.2756C1.00302 25.2973 0.959071 26.3189 0.919501 27.2966ZM12.7686 43.5696C12.707 43.5745 12.685 43.6136 12.707 43.682C12.7334 43.7602 12.7641 43.8336 12.7993 43.902C13.3137 44.9676 13.8325 46.0333 14.347 47.0989C14.5624 47.5438 14.835 47.9153 15.2703 48.1304C16.1892 48.585 17.0993 49.0787 18.0182 49.5382C18.4842 49.7728 18.9327 50.0514 19.4339 50.1834C19.4911 50.1981 19.5702 50.2665 19.6098 50.1883C19.6493 50.115 19.5746 50.0563 19.5306 50.0075C19.2317 49.6702 18.9371 49.3329 18.6337 49.0054C17.9654 48.2868 17.2971 47.5682 16.8706 46.6297C16.7607 46.3901 16.5893 46.2142 16.3914 46.0773C15.2483 45.2756 14.1007 44.4788 12.9576 43.682C12.896 43.638 12.8345 43.6087 12.7686 43.5696ZM41.3162 43.5452C41.2634 43.5158 41.2414 43.5403 41.2194 43.5598C40.1203 44.3273 39.0255 45.1143 37.9132 45.8622C37.4911 46.1457 37.1657 46.483 36.9635 46.9914C36.8316 47.3238 36.6161 47.6073 36.4051 47.8908C35.9302 48.5263 35.3807 49.0689 34.8267 49.6164C34.664 49.7728 34.4794 49.9146 34.4002 50.159C34.5233 50.2079 34.6244 50.1443 34.7256 50.1003C36.1237 49.4991 37.4823 48.8049 38.8101 48.0326C39.2102 47.798 39.5047 47.4704 39.7246 47.0207C40.1642 46.1213 40.5775 45.2072 41.004 44.3028C41.1139 44.0487 41.2722 43.8189 41.3162 43.5452ZM2.40997 35.8266C2.33523 35.8266 2.31763 35.8755 2.3572 36.0172C2.4935 36.5012 2.69574 36.9509 2.90239 37.4006C3.58827 38.9111 4.33572 40.3776 5.22385 41.7561C5.35135 41.9565 5.50523 42.0689 5.70748 42.1422C6.49009 42.4355 7.26829 42.7386 8.0509 43.0368C8.22237 43.1003 8.39825 43.1688 8.56972 43.2323C8.63128 43.2519 8.69723 43.3056 8.74559 43.2225C8.78956 43.1443 8.73679 43.0857 8.69282 43.027C8.67523 43.0026 8.65766 42.9781 8.63567 42.9537C8.05091 42.1422 7.45295 41.3406 6.88138 40.5193C6.38016 39.7959 5.85258 39.1164 5.14031 38.6276C4.70504 38.3343 4.30054 37.9774 3.90484 37.6206C3.41241 37.1757 2.99913 36.6576 2.6298 36.0857C2.56385 35.9879 2.51549 35.8755 2.40997 35.8266ZM38.1374 48.9711C38.2033 49.0689 38.2605 49.0542 38.3089 49.0542C39.3773 49.0738 40.4456 49.0787 41.514 49.1129C41.9493 49.1276 42.3142 48.9907 42.6528 48.6974C43.9234 47.5975 45.1105 46.3901 46.2536 45.129C46.3108 45.0654 46.3812 44.997 46.3592 44.8797C46.2405 44.8894 46.1525 44.9481 46.0646 45.0019C45.1897 45.4809 44.2752 45.828 43.3211 46.0773C42.5956 46.2679 41.879 46.5075 41.2327 46.9376C40.5556 47.3922 39.8741 47.8322 39.197 48.277C38.8452 48.5068 38.4935 48.7365 38.1374 48.9711ZM7.61123 44.8699C7.62442 45.041 7.71237 45.129 7.7959 45.2218C8.91266 46.4439 10.1217 47.5487 11.3308 48.6583C11.6914 48.9858 12.0695 49.1178 12.5179 49.1031C13.1555 49.0836 13.793 49.0689 14.4261 49.0591C14.8438 49.0542 15.2615 49.0591 15.6791 49.0591C15.7407 49.0591 15.833 49.0885 15.855 49.0151C15.8858 48.9223 15.7847 48.9076 15.7363 48.8734C14.5932 48.1352 13.4456 47.3971 12.3069 46.659C11.7617 46.3022 11.1418 46.1995 10.5438 46.0137C9.72605 45.7644 8.88628 45.5982 8.13005 45.1387C7.97177 45.0361 7.81348 44.9285 7.61123 44.8699ZM51.4154 36.1346C51.3934 36.115 51.3714 36.1003 51.3538 36.0808C51.3274 36.1297 51.3054 36.1785 51.2747 36.2225C50.6767 37.1318 49.9205 37.8503 49.0763 38.4663C48.5619 38.8378 48.0783 39.2533 47.6738 39.7812C46.9659 40.7002 46.2932 41.6534 45.6073 42.5919C45.4579 42.7973 45.282 42.9977 45.1633 43.291C46.3196 42.8755 47.4364 42.4746 48.5531 42.0738C48.6279 42.0445 48.6718 41.9907 48.7114 41.9174C49.0983 41.2086 49.5248 40.5291 49.8853 39.8008C50.3953 38.7791 50.8966 37.7477 51.2791 36.6576C51.3318 36.4865 51.4154 36.3203 51.4154 36.1346ZM3.83449 32.8056C3.8257 32.9963 3.85648 33.1771 3.90924 33.358C4.04114 33.8224 4.22141 34.2672 4.39288 34.717C4.77539 35.7093 5.18427 36.6869 5.63273 37.645C5.6723 37.733 5.70308 37.8797 5.8174 37.8454C5.91412 37.8161 5.87455 37.6792 5.87455 37.5864C5.87015 36.902 5.84378 36.2176 5.86136 35.5333C5.87455 35.0005 5.72067 34.4481 5.9537 33.9251C5.97129 33.8859 5.94491 33.8126 5.93172 33.7588C5.53601 32.1604 5.1403 30.5668 4.73581 28.9683C4.71383 28.8852 4.72701 28.7435 4.59951 28.7533C4.49838 28.763 4.51598 28.8901 4.49839 28.9683C4.37089 29.5794 4.25656 30.1904 4.13346 30.8014C4.00156 31.4711 3.89165 32.1359 3.83449 32.8056ZM7.44417 37.0731C7.36063 37.1073 7.39581 37.1855 7.4046 37.2491C7.60685 38.432 7.8047 39.615 8.01574 40.7931C8.10807 41.3112 8.23996 41.8245 8.5785 42.2253C9.35672 43.1541 10.2053 43.9998 11.0538 44.8454C11.1418 44.9334 11.2517 45.1045 11.3616 45.0165C11.4671 44.9285 11.3528 44.7623 11.3044 44.6352C10.9835 43.7602 10.6581 42.895 10.4515 41.976C10.3196 41.3797 10.1393 40.8126 9.75683 40.3433C9.67329 40.2407 9.60734 40.1234 9.53259 40.0158C8.89507 39.0822 8.25755 38.1534 7.62004 37.2246C7.58047 37.166 7.52771 37.1024 7.44417 37.0731ZM46.5658 37.298C46.5658 37.2882 46.5614 37.2344 46.5087 37.1953C46.4383 37.1464 46.4031 37.21 46.3636 37.254C46.3416 37.2784 46.3284 37.3028 46.3064 37.3322C45.6293 38.3098 44.961 39.2973 44.2708 40.2651C43.897 40.7882 43.62 41.3454 43.4881 42.0103C43.3167 42.8999 43.0221 43.7505 42.7143 44.5961C42.6791 44.6939 42.578 44.8308 42.666 44.9041C42.7583 44.9774 42.8594 44.8454 42.943 44.7721C43.7475 44.078 44.4906 43.3056 45.1677 42.46C45.5898 41.932 45.9327 41.3748 46.0206 40.6562C46.0558 40.358 46.1042 40.0598 46.1569 39.7665C46.302 38.9649 46.368 38.1436 46.5658 37.298ZM48.1047 34.5361C48.175 35.6115 48.2278 36.5061 48.2849 37.3957C48.2893 37.4642 48.2893 37.5522 48.3421 37.5668C48.43 37.5913 48.4344 37.4837 48.4608 37.425C49.0455 36.1248 49.5204 34.7707 49.9557 33.3971C50.1051 32.9327 50.1579 32.4488 50.1051 31.9551C49.9908 30.8699 49.705 29.8287 49.4632 28.7728C49.4456 28.6995 49.4325 28.592 49.3401 28.5968C49.2434 28.5968 49.2522 28.7093 49.2346 28.7826C48.9664 29.9362 48.6938 31.0947 48.4256 32.2484C48.241 33.0647 47.9903 33.8615 48.1047 34.5361ZM3.09586 27.4481C3.12663 27.3552 3.1486 27.2917 3.17059 27.2232C3.42999 26.4313 3.6938 25.6394 3.94881 24.8426C3.99278 24.7058 4.05433 24.608 4.19063 24.6129C4.32253 24.6178 4.36649 24.5493 4.38408 24.4125C4.43684 24.0263 4.49399 23.6401 4.55554 23.2588C4.81055 21.6946 5.06995 20.1304 5.32496 18.5612C5.34255 18.4586 5.42609 18.3021 5.31178 18.2484C5.20626 18.1995 5.15349 18.3657 5.10073 18.4488C4.64787 19.1576 4.19501 19.8664 3.75974 20.585C3.43438 21.1178 3.17499 21.6897 3.06947 22.335C2.99913 22.7945 2.96394 23.254 2.94635 23.7183C2.90678 24.7742 2.87162 25.8301 2.95956 26.8859C2.97275 27.0717 2.99034 27.2575 3.09586 27.4481ZM51.0988 25.703C51.0856 25.4341 51.0812 25.1653 51.0592 24.8964C50.9845 24.0214 50.8877 23.1513 50.8306 22.2763C50.791 21.6213 50.6196 21.0396 50.259 20.5214C49.9337 20.0521 49.6259 19.5633 49.3181 19.0843C49.1599 18.8399 49.0148 18.5857 48.8565 18.3461C48.8169 18.2875 48.773 18.1799 48.6894 18.2288C48.6103 18.2728 48.6543 18.3706 48.6674 18.4488C48.7905 19.2505 48.9224 20.0473 49.0324 20.8538C49.2038 22.0905 49.4544 23.3126 49.5468 24.5591C49.5556 24.6618 49.5951 24.7302 49.705 24.7058C49.9776 24.6422 50.0348 24.6618 50.1315 24.9551C50.3733 25.6785 50.602 26.4069 50.8394 27.1304C50.8658 27.2183 50.8614 27.365 50.9669 27.3503C51.0504 27.3357 51.046 27.1939 51.0548 27.0961C51.0856 26.6317 51.1032 26.1674 51.0988 25.703ZM52.2068 19.3042C52.198 18.9669 52.1276 18.6834 52.0397 18.4097C51.7583 17.52 51.4373 16.645 51.0768 15.7945C50.6855 14.8706 50.2678 13.9565 49.7666 13.0961C49.7314 13.0375 49.6963 12.9446 49.6215 12.969C49.5292 12.9984 49.5907 13.0961 49.5995 13.1597C49.6567 13.6778 49.7182 14.1911 49.7842 14.7093C49.8721 15.4034 49.9205 16.1024 50.0744 16.7819C50.4701 18.5074 50.8878 20.2232 51.2966 21.9439C51.3142 22.0221 51.3054 22.1492 51.411 22.1492C51.4945 22.1492 51.5033 22.0319 51.5253 21.9586C51.7319 21.2302 51.9386 20.5019 52.1364 19.7686C52.176 19.6073 52.1848 19.4313 52.2068 19.3042ZM1.8252 19.4411C1.8296 19.5144 1.83401 19.5878 1.8428 19.6611C1.89556 20.0424 2.04503 20.3894 2.13297 20.7561C2.2209 21.1227 2.33962 21.4844 2.44954 21.8461C2.47152 21.9195 2.48471 22.0221 2.58144 22.0172C2.68696 22.0172 2.66059 21.895 2.67817 21.8315C2.7749 21.4746 2.85842 21.1129 2.94635 20.7512C3.2805 19.3971 3.64103 18.0479 3.93561 16.6841C4.18182 15.5452 4.22579 14.3671 4.37527 13.2134C4.37967 13.1695 4.39287 13.1059 4.34011 13.0864C4.27856 13.0668 4.25218 13.1255 4.23019 13.1744C4.10269 13.4383 3.97078 13.7023 3.84767 13.9662C3.29369 15.1541 2.70454 16.3273 2.26927 17.5787C2.05383 18.1799 1.87356 18.7959 1.8252 19.4411ZM39.7685 50.6038C39.4608 50.6576 39.153 50.7163 38.8452 50.77C37.8384 50.9558 36.8272 51.0389 35.8072 50.9264C35.218 50.8629 34.6244 50.7994 34.0353 50.946C33.5253 51.078 33.0153 51.2197 32.5052 51.3664C32.2986 51.425 32.0964 51.4886 31.8941 51.5521C31.8501 51.5668 31.7842 51.5668 31.793 51.6499C31.7974 51.7086 31.8413 51.7232 31.8853 51.7379C31.9557 51.7623 32.0216 51.7917 32.092 51.8112C33.0988 52.1192 34.1056 52.4223 35.1125 52.7351C35.4246 52.8329 35.7192 52.8036 36.0094 52.6716C37.0162 52.2316 37.9835 51.6841 38.9552 51.166C39.2453 51.0242 39.5179 50.8531 39.7685 50.6038ZM14.1667 50.5941C14.2678 50.7554 14.3558 50.7945 14.4393 50.8385C15.3846 51.3322 16.3298 51.8259 17.2795 52.3147C18.4271 52.9013 18.1984 52.9306 19.4427 52.564C20.2825 52.3147 21.1222 52.0703 21.962 51.821C22.0499 51.7966 22.2126 51.8161 22.2038 51.6744C22.195 51.5375 22.0367 51.5717 21.9488 51.5473C21.5179 51.4202 21.0783 51.3322 20.6518 51.1904C19.7725 50.8922 18.8755 50.8385 17.961 50.8971C16.9893 50.9607 16.0177 50.9949 15.0504 50.7749C14.7778 50.7065 14.5008 50.6576 14.1667 50.5941ZM44.495 10.432C44.6928 10.7498 44.8863 11.0724 45.0885 11.3852C45.7656 12.4655 46.4515 13.5361 47.1242 14.6213C47.2341 14.8021 47.344 14.939 47.5595 14.9195C47.6474 14.9097 47.7045 14.9781 47.7705 15.0368C48.2146 15.4474 48.6586 15.858 49.1071 16.2637C49.1511 16.3028 49.1862 16.4055 49.261 16.3322C49.3181 16.2784 49.3006 16.2002 49.2742 16.1318C49.2346 16.0291 49.195 15.9216 49.1467 15.8238C48.7114 14.9683 48.2805 14.1129 47.8364 13.2623C47.5946 12.7979 47.3484 12.3287 46.9615 11.9914C46.2141 11.3412 45.3523 10.9062 44.495 10.432ZM4.73141 16.3957C4.79296 16.3468 4.85893 16.3028 4.92048 16.2442C5.34696 15.8482 5.76903 15.4474 6.19111 15.0465C6.29224 14.9537 6.38457 14.8266 6.52527 14.8364C6.67915 14.8461 6.76267 14.7581 6.84181 14.631C7.61123 13.3748 8.38505 12.1234 9.15007 10.8671C9.18525 10.8133 9.26438 10.7449 9.21162 10.6764C9.15446 10.5982 9.07532 10.6667 9.01377 10.7058C8.52134 11.004 8.03333 11.3168 7.5365 11.6052C7.05727 11.8838 6.67475 12.2749 6.38897 12.7784C5.99326 13.4823 5.61955 14.196 5.27221 14.9292C5.07436 15.3545 4.8809 15.7847 4.68744 16.21C4.67425 16.2735 4.60391 16.3517 4.73141 16.3957ZM26.7148 53.659C26.6972 53.659 26.684 53.659 26.6664 53.659C26.6664 53.3804 26.6752 53.1066 26.6664 52.828C26.6576 52.5347 26.6533 52.5396 26.4114 52.6276C25.7739 52.8671 25.1452 53.1213 24.4989 53.3315C23.5712 53.6394 22.6083 53.6345 21.6542 53.6785C21.5575 53.6834 21.4124 53.6492 21.3992 53.7763C21.3904 53.8839 21.5355 53.8936 21.6235 53.9181C22.261 54.0892 22.9117 54.2016 23.5536 54.3482C24.5385 54.5731 25.5453 54.5633 26.5389 54.6611C26.6796 54.6758 26.7324 54.6269 26.7236 54.4558C26.7016 54.1967 26.7148 53.9278 26.7148 53.659ZM27.2512 54.7051C27.4183 54.6562 27.581 54.5829 27.7612 54.5731C28.2229 54.5535 28.6801 54.5096 29.1418 54.4656C30.2497 54.3482 31.3401 54.1136 32.4305 53.8838C32.5008 53.8692 32.5888 53.8643 32.5844 53.7519C32.58 53.6394 32.4877 53.6492 32.4173 53.6443C31.9161 53.5954 31.4105 53.5417 30.9092 53.5075C29.9947 53.4439 29.0934 53.3021 28.2317 52.9209C27.9239 52.784 27.5985 52.6813 27.2512 52.5542C27.2512 53.2826 27.2512 53.9767 27.2512 54.7051ZM43.431 5.76373C43.3694 5.89083 43.4002 5.96415 43.4442 6.03259C43.9234 6.82937 44.3763 7.6506 44.8951 8.41317C45.5985 9.45437 46.4515 10.3538 47.2253 11.3315C47.2649 11.3803 47.3045 11.483 47.3748 11.4488C47.4583 11.4097 47.4144 11.307 47.3968 11.2337C47.2825 10.7204 47.1902 10.1974 47.1726 9.66945C47.1638 9.36638 47.0539 9.17085 46.8604 8.9851C45.9547 8.13454 45.0578 7.27421 44.1564 6.42365C43.9234 6.20367 43.6816 5.99348 43.431 5.76373ZM10.4471 6.02769C10.4427 5.93481 10.3855 5.94459 10.3416 5.96904C10.2624 6.02281 10.1833 6.08636 10.1129 6.15479C9.74362 6.51164 9.37431 6.86847 9.00499 7.22532C8.29712 7.90479 7.58925 8.58915 6.88138 9.26862C6.79784 9.34683 6.71871 9.43483 6.78027 9.55703C6.8682 9.73301 6.82423 9.90899 6.79785 10.0801C6.73629 10.4467 6.66155 10.8133 6.6 11.1799C6.58241 11.2826 6.47689 11.4195 6.6 11.483C6.70991 11.5417 6.78026 11.3852 6.8594 11.3021C6.86379 11.2973 6.8682 11.2875 6.8726 11.2826C7.45296 10.52 8.02013 9.74278 8.62247 8.99976C9.32154 8.13454 9.87992 7.16666 10.3855 6.15479C10.4075 6.1108 10.4251 6.07169 10.4471 6.02769ZM38.322 4.77141C38.2385 4.76652 38.1638 4.76652 38.1418 4.83007C38.1066 4.91806 38.1989 4.92784 38.2385 4.96206C39.4564 5.89083 40.6743 6.81959 41.8878 7.75325C42.0065 7.84613 42.1208 7.93413 42.2483 7.77281C42.3054 7.70438 42.3714 7.74837 42.4329 7.76792C42.7759 7.88035 43.1188 7.99766 43.4618 8.10521C43.5321 8.12476 43.6288 8.20297 43.6772 8.09543C43.7168 8.00256 43.6332 7.93901 43.5673 7.88523C43.2551 7.61638 42.943 7.34753 42.6396 7.06401C41.6855 6.18901 40.6479 5.47532 39.4476 5.07448C39.0695 4.94738 38.6826 4.86917 38.322 4.77141ZM11.8628 7.8217C11.9596 7.84125 12.0299 7.78259 12.1046 7.72393C12.2937 7.58217 12.4784 7.43552 12.663 7.29376C13.6655 6.52141 14.6679 5.74417 15.6704 4.96694C15.7275 4.92295 15.855 4.90339 15.8023 4.78608C15.7495 4.66876 15.6484 4.74209 15.5648 4.76653C15.3934 4.81052 15.2219 4.85451 15.0548 4.90339C14.2766 5.13314 13.4852 5.32868 12.8213 5.86639C12.0123 6.52142 11.2209 7.20088 10.4207 7.87546C10.3811 7.90968 10.324 7.93901 10.346 8.00744C10.3724 8.08077 10.4383 8.08566 10.4955 8.07588C10.5526 8.06611 10.6098 8.04656 10.6625 8.027C11.0582 7.90968 11.4451 7.76793 11.8628 7.8217ZM34.2815 1.68203C36.3743 2.69879 38.4364 3.70088 40.494 4.70298C40.4544 4.53189 40.3797 4.41457 40.3181 4.28748C40.2302 4.1115 40.0895 3.95995 40.0587 3.75465C40.028 3.55912 39.9268 3.46624 39.7817 3.38803C39.1266 3.04585 38.4495 2.76722 37.7725 2.48859C36.9811 2.16108 36.1853 1.82867 35.3675 1.59403C35.0114 1.49138 34.664 1.43761 34.2815 1.68203ZM19.0734 1.46695C18.9503 1.4865 18.7876 1.50605 18.6293 1.54027C17.8511 1.71136 17.1213 2.04865 16.3914 2.38105C15.6396 2.72323 14.9009 3.08496 14.1579 3.4467C14.0348 3.50535 13.8809 3.54934 13.8501 3.73021C13.8018 4.00884 13.705 4.25326 13.5468 4.47323C13.516 4.51723 13.4852 4.57588 13.5292 4.62965C13.5687 4.67854 13.6215 4.6492 13.6699 4.62476C13.8501 4.53677 14.0304 4.44879 14.2107 4.3608C15.8814 3.52491 17.5521 2.68901 19.2185 1.84334C19.3284 1.78957 19.5394 1.76512 19.5087 1.61848C19.4691 1.42295 19.2537 1.4865 19.0734 1.46695ZM4.57753 37.7575C4.59071 37.5913 4.51159 37.5033 4.45883 37.4202C4.08511 36.8287 3.71139 36.2372 3.33327 35.6506C3.01671 35.152 2.70015 34.6583 2.38359 34.1597C2.34841 34.101 2.31764 34.013 2.2385 34.0521C2.16376 34.0913 2.19013 34.1792 2.20772 34.2477C2.2341 34.3406 2.25608 34.4334 2.29125 34.5214C2.54626 35.1618 2.87602 35.7533 3.24534 36.3203C3.61026 36.8678 4.01915 37.3713 4.57753 37.7575ZM51.7495 34.2379C51.7319 34.2037 51.7275 34.1499 51.7011 34.1401C51.6484 34.1108 51.6308 34.1743 51.6088 34.2086C51.3098 34.6632 51.0152 35.1129 50.7163 35.5675C50.303 36.1981 49.8941 36.8287 49.4852 37.4642C49.4544 37.513 49.3797 37.5668 49.4325 37.6304C49.494 37.7037 49.5556 37.6255 49.5995 37.5815C49.8501 37.3468 50.1271 37.1366 50.347 36.8678C50.9449 36.1394 51.367 35.284 51.7055 34.3797C51.7231 34.3357 51.7319 34.2868 51.7495 34.2379ZM14.2238 49.939C14.325 50.0857 14.4657 50.1443 14.6064 50.203C15.0196 50.3741 15.4461 50.4767 15.8726 50.5843C16.3167 50.6918 16.7651 50.7554 17.218 50.6478C17.3059 50.6283 17.407 50.6234 17.4114 50.4963C17.4158 50.3594 17.3059 50.3643 17.2224 50.3496C16.4398 50.2323 15.6616 50.1101 14.879 49.9977C14.6635 49.9635 14.4481 49.8657 14.2238 49.939ZM31.5512 53.136C32.0128 53.136 32.4701 53.1408 32.9317 53.1311C33.0152 53.1311 33.1604 53.2044 33.1691 53.0626C33.1735 52.9551 33.024 52.96 32.9317 52.9404C32.9185 52.9355 32.9009 52.9355 32.8877 52.9355C31.6787 52.8524 30.4696 52.7644 29.2605 52.6862C29.2121 52.6813 29.1286 52.6373 29.111 52.7302C29.0934 52.8133 29.1726 52.8329 29.2253 52.8524C29.6078 53.004 29.9903 53.1604 30.4124 53.136C30.7905 53.1213 31.1686 53.136 31.5512 53.136ZM9.98104 45.5103C10.0514 45.52 10.113 45.5249 10.1261 45.4565C10.1393 45.388 10.0734 45.3685 10.0294 45.3392C9.48862 45.0165 8.94783 44.6939 8.40704 44.3762C7.98056 44.1269 7.55407 43.8825 7.1232 43.638C7.06165 43.6038 6.97812 43.5696 6.93855 43.6283C6.89019 43.7016 6.97812 43.7505 7.02208 43.7994C7.08364 43.8678 7.15399 43.9313 7.22433 43.9851C7.80909 44.4495 8.44222 44.8161 9.09732 45.1387C9.3919 45.2805 9.68207 45.4418 9.98104 45.5103ZM40.8281 46.3804C41.4261 46.2093 42.9166 43.638 42.7759 43.0075C42.1252 44.1415 41.4877 45.2414 40.8281 46.3804ZM44.0333 45.4223C44.0641 45.4174 44.0993 45.4125 44.1345 45.3978C44.8028 45.173 45.4535 44.909 46.0426 44.4886C46.3284 44.2882 46.6142 44.0927 46.856 43.8336C46.9088 43.7798 47.0187 43.7211 46.9615 43.6283C46.9088 43.5452 46.834 43.6527 46.7637 43.6723C46.7285 43.682 46.6977 43.7065 46.6625 43.7211C45.9415 44.1366 45.2248 44.557 44.5082 44.9725C44.3411 45.0703 44.1696 45.1632 44.0026 45.2658C43.9674 45.2854 43.9234 45.3147 43.9322 45.3783C43.9498 45.4369 43.9981 45.4125 44.0333 45.4223ZM11.1901 43.2176C11.1066 43.2421 11.1286 43.3203 11.155 43.3839C11.2297 43.5843 11.3176 43.7847 11.3968 43.9802C11.7529 44.8797 12.3201 45.608 12.9048 46.3266C12.9488 46.3804 13.006 46.4781 13.0851 46.395C13.1511 46.3217 13.0631 46.263 13.0324 46.2093C12.4696 45.2512 11.9024 44.298 11.3352 43.3447C11.3001 43.2959 11.2649 43.2372 11.1901 43.2176ZM39.8565 49.9195C39.7861 49.9195 39.7114 49.9097 39.641 49.9195C38.6562 50.0661 37.6713 50.2128 36.6865 50.3643C36.6249 50.3741 36.5194 50.3643 36.5238 50.4816C36.5282 50.6038 36.6293 50.5941 36.7085 50.5941C37.3592 50.5941 38.0143 50.594 38.6474 50.3936C39.0563 50.2665 39.496 50.2323 39.8565 49.9195ZM6.29223 36.9656C6.22628 37.0878 6.23507 37.2149 6.24826 37.3419C6.30102 37.7428 6.3494 38.1485 6.41535 38.5445C6.52087 39.1408 6.82862 39.6297 7.07923 40.1527C7.10561 40.2065 7.1276 40.2994 7.19355 40.2749C7.28588 40.2407 7.23752 40.1527 7.21993 40.0892C7.11441 39.6932 7.01329 39.2924 6.89458 38.9013C6.70553 38.2561 6.55603 37.5913 6.29223 36.9656ZM3.21896 29.3447C3.21896 29.6136 3.21896 29.8824 3.21896 30.1513C3.21896 30.2393 3.24093 30.3273 3.32447 30.342C3.4256 30.3566 3.4256 30.254 3.43879 30.1757C3.57069 29.2519 3.62784 28.3182 3.67621 27.3845C3.6806 27.3161 3.69379 27.2232 3.61026 27.1988C3.50913 27.1744 3.50034 27.2721 3.47836 27.3503C3.29809 28.0005 3.22335 28.6653 3.21896 29.3447ZM50.558 30.4202C50.6767 30.298 50.7031 30.166 50.7207 30.0291C50.7778 29.5256 50.7515 29.0221 50.6899 28.5186C50.6328 28.0787 50.5888 27.6338 50.4569 27.2086C50.4393 27.145 50.4217 27.0424 50.3338 27.0668C50.2634 27.0864 50.2986 27.1792 50.303 27.2379C50.3426 27.8147 50.3909 28.3866 50.4349 28.9635C50.4745 29.4474 50.5184 29.9313 50.558 30.4202ZM24.6396 52.8133C24.3362 52.7009 21.153 52.9502 20.9859 53.0968C21.0519 53.1799 21.1442 53.1702 21.2278 53.1702C22.2126 53.1213 23.1975 53.0773 24.1867 53.0235C24.3494 53.0089 24.5033 52.9502 24.6396 52.8133ZM47.7837 37.1611C47.7705 37.1171 47.8409 36.9607 47.7353 36.9411C47.6298 36.9216 47.6298 37.0926 47.599 37.1806C47.366 37.9432 47.2033 38.7253 47.0099 39.4977C46.9967 39.5417 46.9703 39.6003 47.0231 39.6248C47.0978 39.6639 47.1242 39.5905 47.1506 39.5368C47.5199 38.8133 47.7837 38.0605 47.7837 37.1611ZM35.4994 48.189C34.708 48.8685 33.9166 49.5431 33.1296 50.2274C33.0944 50.2568 33.0109 50.291 33.0592 50.3643C33.1076 50.4376 33.1559 50.3594 33.2043 50.335C33.8902 49.9586 34.4749 49.4209 35.0421 48.8587C35.2224 48.673 35.4115 48.4823 35.4994 48.189ZM18.7744 48.5019C18.7612 48.5165 18.748 48.5361 18.7348 48.5508C18.7568 48.6192 18.7964 48.6632 18.8492 48.7121C19.4031 49.1911 19.9527 49.6799 20.5067 50.159C20.7046 50.3301 20.9068 50.4865 21.109 50.6478C21.1442 50.6771 21.1882 50.7065 21.2234 50.6527C21.2541 50.6087 21.2409 50.5549 21.2058 50.5207C21.1662 50.4767 21.1178 50.4376 21.0695 50.3985C20.6606 50.0563 20.2517 49.719 19.8384 49.3769C19.4911 49.0787 19.1305 48.7903 18.7744 48.5019ZM33.9957 2.61569C34.2112 2.60591 34.3914 2.59124 34.5673 2.53747C34.6288 2.51792 34.7036 2.48859 34.7036 2.4006C34.7036 2.30772 34.6244 2.32727 34.5717 2.31261C34.3387 2.23928 34.11 2.16107 33.877 2.09264C33.7583 2.05842 33.6396 2.00954 33.5121 2.04865C33.3978 2.08286 33.301 2.15618 33.2922 2.28817C33.2878 2.4006 33.3802 2.46414 33.4725 2.50814C33.6484 2.59124 33.8374 2.60591 33.9957 2.61569ZM20.155 2.59613C20.2385 2.58146 20.3572 2.54725 20.4627 2.47392C20.5463 2.41526 20.6562 2.36638 20.6298 2.21974C20.6034 2.06331 20.4803 2.04376 20.3748 2.03887C20.0187 2.0291 19.6889 2.18552 19.3504 2.28329C19.3108 2.29306 19.258 2.34194 19.2712 2.41037C19.2844 2.46414 19.3284 2.47881 19.3724 2.48859C19.623 2.51792 19.8692 2.55214 20.155 2.59613ZM47.9376 11.5221C47.9376 11.6199 47.9244 11.6834 47.9376 11.7323C48.1442 12.402 48.4388 13.0277 48.707 13.6681C48.729 13.7169 48.7598 13.7561 48.8081 13.7316C48.8829 13.6925 48.8213 13.629 48.8081 13.585C48.6367 13.0424 48.43 12.5095 48.2146 11.9865C48.153 11.8301 48.1091 11.659 47.9376 11.5221ZM6.0768 11.4341C6.06361 11.439 6.04163 11.439 6.03723 11.4488C5.78662 12.0403 5.53601 12.6366 5.2898 13.233C5.26342 13.2966 5.23703 13.3845 5.30738 13.453C5.5492 13.233 6.13395 11.6834 6.0768 11.4341ZM51.9122 22.858C51.8506 22.9509 51.8067 23.0242 51.7935 23.1318C51.7319 23.6646 51.666 24.1925 51.6 24.7253C51.5868 24.8182 51.5604 24.9551 51.6704 24.9649C51.7847 24.9746 51.7715 24.8329 51.7803 24.74C51.8155 24.3196 51.8506 23.8992 51.8814 23.4788C51.899 23.2735 51.9957 23.0829 51.9122 22.858ZM8.53014 10.3098C8.62247 10.3831 8.68842 10.388 8.73239 10.3489C8.94782 10.1778 9.15446 10.0019 9.36551 9.82589C9.38749 9.80633 9.41387 9.78188 9.39189 9.74278C9.36111 9.68901 9.31714 9.69879 9.27757 9.72812C9.03575 9.91876 8.78954 10.1045 8.53014 10.3098Z" fill="#372120"/>
<path d="M26.9251 43.5591C26.2875 43.5395 25.7204 43.4173 25.162 43.2658C23.8474 42.8992 22.5591 42.4494 21.2841 41.9508C19.4287 41.2274 17.5513 40.5772 15.7311 39.7511C15.1156 39.4725 14.5132 39.1596 13.9724 38.7197C13.1591 38.0647 12.671 37.1701 12.4512 36.0947C12.1038 34.4229 12.0247 32.7169 11.9148 31.0109C11.84 29.8182 11.7433 28.6254 11.6598 27.4327C11.5806 26.2839 11.5147 25.1303 11.4355 23.9767C11.4048 23.5221 11.2597 23.1066 11.0574 22.7155C10.2265 21.0926 9.39109 19.4697 8.55573 17.8517C8.48538 17.7197 8.42384 17.5779 8.34909 17.446C8.27875 17.3237 8.30952 17.2797 8.43263 17.2602C9.24162 17.1331 10.0506 16.9913 10.8596 16.8643C11.8532 16.7078 12.8425 16.5563 13.8361 16.4096C15.2563 16.1994 16.6764 15.999 18.0965 15.7937C19.4287 15.6031 20.7653 15.4027 22.1019 15.2316C23.3022 15.0751 24.5069 14.9823 25.6984 14.7916C26.6437 14.6401 27.567 14.777 28.4947 14.9089C29.6994 15.08 30.904 15.2413 32.1043 15.4124C33.5464 15.6177 34.9886 15.823 36.4351 16.0284C37.886 16.2337 39.3369 16.4292 40.7878 16.6394C41.9265 16.8056 43.0609 16.9865 44.1996 17.1575C44.5162 17.2064 44.8371 17.2553 45.1581 17.2846C45.3471 17.3042 45.3559 17.3677 45.268 17.5339C44.78 18.4676 44.2963 19.4061 43.8171 20.3447C43.3466 21.2637 42.8586 22.168 42.4234 23.1114C42.1947 23.6052 42.2035 24.1527 42.1683 24.6855C42.0496 26.3719 41.9265 28.0584 41.8254 29.7497C41.7419 31.138 41.6275 32.5214 41.4912 33.9048C41.3945 34.8677 41.2714 35.8258 40.9944 36.7497C40.6295 37.962 39.8469 38.7295 38.8488 39.2867C37.2748 40.1617 35.5909 40.719 33.9421 41.3838C32.7243 41.8726 31.502 42.3321 30.2665 42.7623C29.3169 43.0898 28.3628 43.3929 27.3691 43.5298C27.2064 43.5395 27.035 43.5493 26.9251 43.5591ZM33.3046 34.5744C33.2914 34.6478 33.2914 34.7162 33.3266 34.7798C33.331 34.9069 33.331 35.0339 33.3354 35.1562C33.3222 35.2979 33.2826 35.4641 33.5069 35.3957C33.5772 35.4006 33.652 35.4103 33.7223 35.4103C35.3667 35.4103 37.0066 35.4103 38.651 35.4103C38.7081 35.4103 38.7653 35.4006 38.8225 35.3957C38.9324 35.4397 38.9895 35.3957 39.0027 35.2686C39.0247 35.0828 39.0467 34.8971 39.0731 34.7162C39.0775 34.682 39.0819 34.6527 39.0907 34.6184C39.1434 34.4082 39.1786 34.1981 39.1742 33.983C39.1874 33.9732 39.1874 33.9585 39.1786 33.9439C39.183 33.9292 39.1874 33.9096 39.1918 33.895C39.2446 33.7728 39.161 33.7777 39.0995 33.7825C38.9368 33.7825 38.7697 33.7923 38.607 33.7972C38.5499 33.7728 38.4883 33.7728 38.4312 33.7972C38.1234 33.7679 37.8156 33.7679 37.5079 33.7972C37.4639 33.7728 37.4199 33.7728 37.376 33.7972C37.1869 33.7679 36.9934 33.7679 36.8044 33.7972C36.7604 33.7728 36.7164 33.7728 36.6725 33.7972C36.3647 33.7679 36.0569 33.7679 35.7492 33.7972C35.7052 33.7728 35.6612 33.7728 35.6173 33.7972C35.1908 33.7679 34.7687 33.7679 34.3422 33.7972C34.2983 33.7728 34.2543 33.7728 34.2103 33.7972C33.9334 33.7728 33.652 33.7679 33.375 33.8021C33.2695 33.7777 33.2739 33.6897 33.2739 33.5919C33.2739 33.1862 33.2695 32.7805 33.2783 32.3698C33.2827 32.2183 33.2387 32.1743 33.1068 32.1743C31.0711 32.1792 29.0399 32.1792 27.0042 32.1743C26.8767 32.1743 26.8415 32.2183 26.8459 32.3552C26.8635 32.7853 26.8723 33.2155 26.8767 33.6506C26.8767 33.8412 26.9514 33.8901 27.1141 33.8803C27.7736 33.8412 28.4287 33.8657 29.0882 33.851C30.4116 33.8217 31.7394 33.8412 33.0628 33.8265C33.2475 33.8265 33.309 33.895 33.3002 34.0807C33.2958 34.2469 33.3002 34.4082 33.3046 34.5744ZM44.204 17.881C43.8874 17.8468 43.6192 17.8272 43.351 17.793C41.8781 17.6073 40.4053 17.4117 38.928 17.226C37.4111 17.0353 35.8899 16.8496 34.373 16.6589C33.4805 16.5465 32.5836 16.4439 31.6911 16.3314C30.992 16.2483 30.2973 16.1408 29.5938 16.0675C28.8068 15.9844 28.0242 15.8719 27.2416 15.7644C27.1053 15.7448 27.0789 15.8084 27.0789 15.9404C27.0702 16.9082 27.0613 17.8761 27.0482 18.8489C27.0438 19.0004 27.0921 19.0444 27.224 19.0444C27.8088 19.0493 28.3935 19.0493 28.9827 19.0689C30.1082 19.108 31.2382 19.0737 32.3637 19.1129C33.5201 19.1568 34.6764 19.1324 35.8327 19.1568C37.6925 19.196 39.5523 19.2057 41.4165 19.2155C41.6187 19.2155 41.6188 19.2839 41.5396 19.4452C41.1659 20.1883 40.8142 20.946 40.4185 21.6792C40.0359 22.388 39.7897 23.1114 39.7765 23.9669C39.7634 24.9348 39.7809 25.9027 39.715 26.8705C39.6095 28.4543 39.6227 30.043 39.5699 31.6317C39.5303 32.8196 39.5127 34.0074 39.3984 35.1904C39.3237 35.9725 39.0159 36.5982 38.4444 37.0577C37.8948 37.4976 37.2704 37.7567 36.6373 37.9816C35.4722 38.3922 34.2807 38.6904 33.0892 38.9739C31.8186 39.277 30.5435 39.5751 29.2729 39.8733C28.609 40.0298 27.9451 40.1862 27.2812 40.3426C27.1713 40.367 27.0789 40.3866 27.0833 40.5626C27.0921 41.2127 27.0877 41.8677 27.0833 42.5179C27.0833 42.6645 27.1185 42.6987 27.2504 42.6548C28.6354 42.1855 30.0203 41.726 31.4053 41.2567C33.0189 40.7092 34.6368 40.1617 36.2328 39.5507C37.0418 39.2427 37.8552 38.9494 38.5894 38.4411C39.3852 37.8936 40.0447 37.2141 40.3613 36.2022C40.5416 35.6303 40.5855 35.0242 40.6471 34.4278C40.8361 32.5849 40.968 30.7372 41.1131 28.8894C41.2274 27.3838 41.3374 25.8733 41.4517 24.3677C41.5 23.7469 41.5132 23.1212 41.7902 22.5444C42.2695 21.5472 42.8058 20.5891 43.3071 19.6066C43.5972 19.0395 43.8918 18.4774 44.204 17.881ZM26.5865 17.4068C26.5601 17.4068 26.5381 17.4068 26.5118 17.4068C26.5118 16.918 26.503 16.4292 26.5162 15.9404C26.5206 15.7644 26.459 15.7399 26.3227 15.7644C25.9974 15.8182 25.672 15.8621 25.3423 15.9013C24.0408 16.0675 22.7394 16.2288 21.4424 16.395C19.9475 16.5856 18.4526 16.7811 16.9534 16.9767C15.6915 17.1429 14.4297 17.3189 13.1635 17.4851C12.0071 17.6366 10.8552 17.7735 9.69886 17.9103C9.52739 17.9299 9.49221 17.9739 9.58454 18.1401C9.69446 18.3307 9.79119 18.5311 9.89231 18.7316C10.5386 20.027 11.2333 21.2881 11.8401 22.6031C12.0511 23.0577 12.2182 23.5318 12.2445 24.0598C12.3061 25.2623 12.3764 26.4648 12.4556 27.6624C12.5611 29.2462 12.671 30.8251 12.8029 32.4089C12.8909 33.4746 12.9832 34.5451 13.1986 35.5961C13.3437 36.3049 13.5284 36.9892 13.99 37.5465C14.5528 38.226 15.2563 38.6464 16.0125 38.9641C17.1073 39.4236 18.2328 39.7756 19.3496 40.1666C21.6886 40.9927 24.032 41.8091 26.3711 42.6401C26.5338 42.6987 26.5865 42.6841 26.5821 42.4788C26.5733 41.858 26.5689 41.242 26.5821 40.6212C26.5865 40.4355 26.5294 40.3719 26.3711 40.3328C25.3906 40.0689 24.397 39.8684 23.4077 39.6485C21.7941 39.2916 20.1806 38.9494 18.589 38.49C17.5074 38.1771 16.4258 37.8594 15.4453 37.2288C14.7946 36.8133 14.3593 36.2462 14.2318 35.3957C14.1131 34.6038 14.0823 33.8119 14.0472 33.0151C13.99 31.6904 13.968 30.3608 13.9329 29.036C13.8801 27.0905 13.8186 25.145 13.7746 23.1994C13.7658 22.911 13.713 22.6568 13.5899 22.4075C13.0931 21.4054 12.5963 20.3985 12.0995 19.3964C11.9719 19.1422 11.9719 19.1422 12.2314 19.1373C14.012 19.1129 15.7883 19.1275 17.5689 19.0933C19.8244 19.0542 22.0799 19.0982 24.3354 19.0493C25.0257 19.0346 25.7116 19.0346 26.4018 19.0444C26.5645 19.0444 26.5909 18.9858 26.5865 18.8196C26.5777 18.3503 26.5865 17.881 26.5865 17.4068ZM34.0653 19.6212C34.0653 19.6359 34.0653 19.6554 34.0653 19.6701C33.5508 19.6701 33.0408 19.6701 32.5264 19.6701C30.8469 19.675 29.1718 19.6799 27.4922 19.675C27.2768 19.675 27.2196 19.7483 27.2196 19.9732C27.224 20.6478 27.224 21.3272 27.1976 22.0018C27.1888 22.2218 27.2372 22.2511 27.4175 22.2511C29.3168 22.2707 31.2118 22.2462 33.1112 22.2756C35.1776 22.3098 37.2441 22.2951 39.3105 22.3049C39.4688 22.3049 39.5611 22.2609 39.6402 22.0996C39.9964 21.3712 40.3613 20.6527 40.7262 19.9292C40.8801 19.6212 40.8801 19.6212 40.5723 19.6212C38.4048 19.6212 36.2328 19.6212 34.0653 19.6212ZM26.4458 37.7763H26.4414C26.4414 37.1506 26.437 36.52 26.4458 35.8943C26.4458 35.7379 26.4106 35.689 26.2656 35.689C24.8982 35.6841 23.5264 35.6645 22.159 35.6596C19.9475 35.6499 17.736 35.6499 15.5245 35.645C15.3134 35.645 15.1024 35.6303 14.8869 35.6254C14.821 35.6254 14.7287 35.6254 14.7946 35.7379C14.9265 35.9676 15.0364 36.2218 15.2299 36.4027C15.7971 36.9257 16.4653 37.2386 17.1468 37.5025C18.9758 38.2064 20.8708 38.6024 22.7614 39.0228C23.8913 39.277 25.0257 39.5214 26.1556 39.7756C26.4458 39.8391 26.4458 39.8489 26.4458 39.5165C26.4458 38.9299 26.4458 38.3531 26.4458 37.7763ZM33.2607 25.9027C31.3657 25.9027 29.4663 25.9027 27.5714 25.9027C27.2636 25.9027 27.2636 25.9027 27.2636 26.2546C27.2636 26.8803 27.2724 27.5109 27.2592 28.1366C27.2548 28.3615 27.3076 28.4152 27.5098 28.4152C31.3261 28.4006 35.1424 28.3908 38.9544 28.3908C39.1566 28.3908 39.205 28.3175 39.2094 28.1219C39.2226 27.4767 39.227 26.8363 39.2577 26.196C39.2709 25.9564 39.2094 25.8978 38.9983 25.8978C37.0858 25.9027 35.1732 25.9027 33.2607 25.9027ZM20.3828 29.4271C18.457 29.4271 16.5313 29.4271 14.6056 29.4271C14.4912 29.4271 14.3725 29.3929 14.3813 29.6128C14.4121 30.3265 14.4385 31.0451 14.4517 31.7588C14.4561 31.9348 14.5176 31.9494 14.6451 31.9494C18.4878 31.9446 22.3349 31.9446 26.182 31.9446C26.3183 31.9446 26.3667 31.9103 26.3667 31.7441C26.3579 31.0598 26.3535 30.3754 26.3667 29.6911C26.3711 29.476 26.3183 29.4173 26.1205 29.4173C24.2079 29.4271 22.2953 29.4271 20.3828 29.4271ZM31.9549 30.5905C31.9549 30.5709 31.9549 30.5514 31.9549 30.5367C32.3066 30.5367 32.6583 30.5318 33.0101 30.5367C33.1156 30.5367 33.1683 30.5172 33.1771 30.3803C33.2035 29.9599 33.2343 29.5346 33.2739 29.1142C33.2871 28.9578 33.2519 28.8992 33.098 28.8992C31.0843 28.8992 29.0706 28.8992 27.057 28.8894C26.9207 28.8894 26.8811 28.9334 26.8811 29.08C26.8811 29.4467 26.8679 29.8133 26.8591 30.1799C26.8547 30.5856 26.8547 30.5807 27.2064 30.5807C28.7936 30.5905 30.3721 30.5905 31.9549 30.5905ZM23.6231 24.1087C22.6251 24.1087 21.6315 24.1135 20.6334 24.1038C20.4487 24.1038 20.396 24.1624 20.4048 24.3629C20.418 24.7441 20.4136 25.1303 20.4048 25.5116C20.4004 25.6582 20.4224 25.7267 20.5806 25.7267C20.9368 25.7169 21.2973 25.7413 21.6534 25.7462C23.3066 25.7658 24.9641 25.7609 26.6173 25.7756C26.78 25.7756 26.8107 25.7169 26.8107 25.5556C26.8063 25.1499 26.8019 24.7392 26.8195 24.3335C26.8283 24.138 26.7624 24.1087 26.6085 24.1087C25.6192 24.1136 24.6212 24.1087 23.6231 24.1087ZM23.6583 28.9627C23.6583 28.9529 23.6583 28.9432 23.6583 28.9334C24.6256 28.9334 25.5929 28.9236 26.5601 28.9383C26.7668 28.9432 26.8063 28.8649 26.7932 28.6645C26.7668 28.3321 26.7448 27.9997 26.7448 27.6673C26.7492 27.4327 26.692 27.3447 26.4634 27.3545C25.9886 27.3789 25.5093 27.3594 25.0345 27.3594C23.5792 27.3496 22.1195 27.3447 20.6642 27.3251C20.4839 27.3251 20.4399 27.3887 20.4487 27.5744C20.4751 27.9802 20.4839 28.3859 20.4927 28.7965C20.4971 28.9187 20.5279 28.9676 20.6466 28.9676C21.6534 28.9627 22.6559 28.9627 23.6583 28.9627ZM17.3139 22.4613C17.3139 22.4564 17.3139 22.4466 17.3139 22.4418C16.3379 22.4418 15.3662 22.4418 14.3901 22.4418C14.2758 22.4418 14.2143 22.4564 14.2362 22.6128C14.2978 23.0479 14.3462 23.483 14.3945 23.918C14.4077 24.05 14.4561 24.094 14.5748 24.094C16.4478 24.1087 18.3252 24.1233 20.1981 24.1478C20.3476 24.1478 20.3608 24.0842 20.3608 23.9473C20.3564 23.5318 20.3476 23.1163 20.3652 22.7008C20.374 22.5004 20.3124 22.4613 20.1454 22.4613C19.2045 22.4662 18.2592 22.4613 17.3139 22.4613ZM12.7414 19.7288C12.97 20.1052 13.1854 20.4425 13.3877 20.7846C13.4448 20.8824 13.5152 20.8971 13.6119 20.8971C15.7795 20.8922 17.947 20.8922 20.1146 20.8922C20.2641 20.8922 20.3344 20.8335 20.3256 20.6673C20.3125 20.4082 20.2905 20.1492 20.2905 19.8852C20.2905 19.675 20.2245 19.6115 20.0311 19.6115C18.6681 19.6359 17.3095 19.6506 15.9465 19.6652C14.8913 19.6799 13.8361 19.6701 12.7414 19.7288ZM35.2655 37.0235C35.2655 37.0186 35.2655 37.0088 35.2655 37.0039C34.6632 37.0039 34.0653 37.0039 33.4629 37.0039C33.353 37.0039 33.2739 37.0137 33.2958 37.175C33.3442 37.5465 33.3222 37.9229 33.331 38.2944C33.331 38.4166 33.3574 38.4508 33.4717 38.4117C33.7443 38.314 34.0169 38.2309 34.2895 38.1429C35.1996 37.8496 36.1141 37.5514 37.0242 37.2581C37.1078 37.2288 37.2221 37.1946 37.2089 37.087C37.1913 36.9697 37.0726 37.0332 37.0022 37.0332C36.4219 37.0186 35.8415 37.0235 35.2655 37.0235Z" fill="#372120"/>
<path d="M19.7412 47.8608C20.2776 47.9928 20.792 48.115 21.302 48.2421C23.0475 48.6674 24.7974 49.1025 26.5473 49.5181C26.6968 49.5523 26.732 49.6109 26.732 49.7674C26.732 50.4029 26.7364 51.0384 26.7496 51.6739C26.754 51.845 26.7364 51.9036 26.5561 51.8841C25.4349 51.7619 24.3182 51.6397 23.219 51.3561C22.8013 51.2486 22.5419 50.9553 22.2913 50.6277C21.5922 49.6989 20.8052 48.8825 19.9259 48.1688C19.8467 48.0955 19.7632 48.0319 19.7412 47.8608Z" fill="#F6F5F5"/>
<path d="M34.2197 47.8462C34.1186 48.0515 33.9691 48.12 33.8504 48.2177C33.1338 48.8093 32.571 49.5719 31.9598 50.2857C31.7312 50.5497 31.5026 50.8088 31.2784 51.0776C31.1816 51.195 31.0629 51.239 30.931 51.2634C29.7307 51.4639 28.5305 51.6545 27.3346 51.8598C27.2027 51.8794 27.1807 51.8256 27.1851 51.7034C27.229 51.063 27.2071 50.4177 27.2071 49.7772C27.2071 49.6208 27.2994 49.611 27.3873 49.5866C28.3414 49.3421 29.2955 49.0977 30.2495 48.8533C31.4674 48.5404 32.6809 48.2177 33.8988 47.9C33.9867 47.8804 34.0834 47.8706 34.2197 47.8462Z" fill="#F6F5F5"/>
<path d="M50.1577 34.4915C50.36 33.6409 50.5578 32.8197 50.7557 31.9984C51.3932 29.3392 52.0263 26.6751 52.6638 24.0159C52.7121 23.8106 52.7517 23.6053 52.8001 23.4C52.8133 23.3462 52.8396 23.2778 52.8968 23.2876C52.9671 23.2973 52.9452 23.3755 52.9496 23.4293C53.0858 25.018 53.143 26.6067 53.0067 28.2052C52.9188 29.2561 52.866 30.312 52.7693 31.363C52.7297 31.7834 52.5978 32.1402 52.312 32.4286C51.635 33.1227 50.9623 33.8218 50.2456 34.467C50.2325 34.4719 50.2149 34.4719 50.1577 34.4915Z" fill="#F6F5F5"/>
<path d="M0.919434 27.2959C0.963401 26.3182 1.00297 25.2917 1.05133 24.27C1.05573 24.1869 1.02054 24.055 1.12167 24.0452C1.22719 24.0354 1.24918 24.1723 1.26237 24.2603C1.32832 24.7442 1.46901 25.2086 1.62729 25.6632C1.86471 26.3378 2.14171 26.9977 2.32198 27.6869C2.57259 28.6353 2.74845 29.608 2.9507 30.571C3.20571 31.7735 3.46071 32.9712 3.71572 34.1737C3.72891 34.2421 3.78169 34.3203 3.71134 34.3692C3.64979 34.4132 3.60141 34.3399 3.56184 34.3008C2.91992 33.6604 2.27802 33.02 1.64489 32.365C1.45144 32.1646 1.38988 31.8762 1.33272 31.5975C1.04693 30.1995 0.967797 28.7721 0.919434 27.2959Z" fill="#F6F5F5"/>
<path d="M12.7685 43.5693C12.8345 43.6084 12.896 43.6378 12.9488 43.6769C14.0919 44.4736 15.2395 45.2753 16.3826 46.072C16.5804 46.2138 16.7519 46.3849 16.8618 46.6244C17.2883 47.5629 17.9566 48.2814 18.6249 49C18.9327 49.3275 19.2229 49.6697 19.5218 50.002C19.5658 50.0509 19.6406 50.1096 19.601 50.1829C19.557 50.2611 19.4823 50.1927 19.4251 50.178C18.9239 50.0509 18.4754 49.7674 18.0094 49.5328C17.0905 49.0733 16.1847 48.5796 15.2614 48.125C14.8262 47.91 14.5536 47.5385 14.3381 47.0936C13.8237 46.028 13.3049 44.9624 12.7905 43.8968C12.7553 43.8235 12.7245 43.7502 12.6982 43.6769C12.685 43.6182 12.7114 43.5791 12.7685 43.5693Z" fill="#F6F5F5"/>
<path d="M41.3154 43.5445C41.2715 43.8182 41.1132 44.048 40.9989 44.2924C40.5724 45.1967 40.1635 46.1109 39.7194 47.0103C39.4996 47.46 39.2006 47.7876 38.8049 48.0222C37.4771 48.7945 36.1185 49.4936 34.7204 50.09C34.6236 50.1339 34.5225 50.1975 34.395 50.1486C34.4742 49.8993 34.6632 49.7624 34.8215 49.606C35.3755 49.0634 35.9251 48.5159 36.3999 47.8804C36.611 47.5969 36.8264 47.3134 36.9583 46.981C37.1605 46.4775 37.4859 46.1353 37.908 45.8518C39.0203 45.1039 40.1151 44.3217 41.2143 43.5494C41.2451 43.5396 41.2627 43.5152 41.3154 43.5445Z" fill="#F6F5F5"/>
<path d="M2.40955 35.8259C2.51068 35.8699 2.56343 35.9823 2.62499 36.0801C2.99431 36.652 3.40759 37.1702 3.90002 37.615C4.30011 37.9718 4.70461 38.3238 5.13548 38.622C5.85214 39.1108 6.37535 39.7902 6.87657 40.5137C7.44813 41.3349 8.04608 42.1366 8.63083 42.948C8.64842 42.9724 8.67039 42.9969 8.68798 43.0213C8.72755 43.08 8.78032 43.1386 8.74075 43.2169C8.69238 43.3048 8.62204 43.2511 8.56488 43.2266C8.39341 43.1631 8.21753 43.0995 8.04606 43.0311C7.26346 42.7329 6.48526 42.4299 5.70265 42.1366C5.5004 42.0632 5.34652 41.9459 5.21902 41.7504C4.33089 40.3719 3.58347 38.9055 2.89759 37.395C2.69534 36.9453 2.49308 36.4956 2.35238 36.0117C2.31721 35.8797 2.33481 35.8259 2.40955 35.8259Z" fill="#F6F5F5"/>
<path d="M38.1362 48.9704C38.4924 48.7358 38.8441 48.5061 39.1914 48.2763C39.8685 47.8315 40.5544 47.3866 41.2271 46.9369C41.8734 46.5018 42.5901 46.2623 43.3155 46.0766C44.2652 45.8272 45.1841 45.4851 46.0591 45.0011C46.147 44.9522 46.2393 44.8936 46.3537 44.8789C46.3756 44.9962 46.3053 45.0647 46.2481 45.1282C45.105 46.3894 43.9179 47.5968 42.6472 48.6967C42.3087 48.99 41.9438 49.1269 41.5085 49.1122C40.4401 49.078 39.3717 49.0731 38.3033 49.0536C38.2593 49.0536 38.2066 49.0682 38.1362 48.9704Z" fill="#F6F5F5"/>
<path d="M7.61084 44.8691C7.81748 44.9278 7.97138 45.0353 8.12966 45.1331C8.88589 45.5975 9.72565 45.7589 10.5434 46.0082C11.1414 46.194 11.7569 46.2966 12.3065 46.6535C13.4497 47.3965 14.5928 48.1298 15.7359 48.868C15.7843 48.9022 15.8854 48.9169 15.8546 49.0098C15.8282 49.088 15.7403 49.0538 15.6788 49.0538C15.2611 49.0538 14.8434 49.044 14.4257 49.0538C13.7882 49.0636 13.1507 49.0782 12.5175 49.0978C12.0691 49.1124 11.691 48.9805 11.3304 48.6529C10.1214 47.5481 8.91227 46.4433 7.79551 45.2162C7.71197 45.1282 7.62403 45.0402 7.61084 44.8691Z" fill="#F6F5F5"/>
<path d="M51.4152 36.1336C51.4152 36.3243 51.3316 36.4905 51.2745 36.6567C50.8876 37.7467 50.3907 38.7782 49.8807 39.7998C49.5202 40.5233 49.0937 41.2076 48.7068 41.9164C48.6672 41.9898 48.6233 42.0435 48.5485 42.0729C47.4318 42.4737 46.315 42.8745 45.1587 43.29C45.2818 42.9967 45.4533 42.8012 45.6028 42.591C46.2886 41.6525 46.9613 40.6993 47.6692 39.7803C48.0737 39.2523 48.5573 38.8417 49.0717 38.4653C49.9203 37.8494 50.6721 37.1357 51.2701 36.2216C51.3008 36.1776 51.3228 36.1238 51.3492 36.0798C51.3712 36.0945 51.3932 36.1141 51.4152 36.1336Z" fill="#F6F5F5"/>
<path d="M3.83397 32.8048C3.89113 32.1351 4.00103 31.4703 4.13294 30.8153C4.25604 30.2043 4.37477 29.5932 4.49788 28.9822C4.51546 28.904 4.49787 28.7769 4.59899 28.7671C4.7265 28.7525 4.71331 28.8991 4.73529 28.9822C5.13539 30.5758 5.5355 32.1742 5.93121 33.7726C5.9444 33.8264 5.97078 33.8948 5.95319 33.9388C5.72016 34.4619 5.87404 35.0094 5.86085 35.5471C5.84327 36.2314 5.86964 36.9158 5.87404 37.6001C5.87404 37.6881 5.91361 37.8298 5.81689 37.8592C5.70257 37.8934 5.67179 37.7467 5.63222 37.6588C5.18375 36.7007 4.77487 35.723 4.39236 34.7307C4.22089 34.281 4.04062 33.8362 3.90872 33.3718C3.85596 33.1763 3.82957 32.9954 3.83397 32.8048Z" fill="#F6F5F5"/>
<path d="M7.44359 37.0725C7.52712 37.1018 7.57549 37.1605 7.61945 37.2289C8.25697 38.1577 8.89449 39.0914 9.532 40.0202C9.60675 40.1278 9.6727 40.25 9.75624 40.3477C10.1387 40.8121 10.3146 41.3841 10.4509 41.9805C10.6575 42.8995 10.9873 43.7696 11.3039 44.6397C11.3478 44.762 11.4621 44.9331 11.361 45.021C11.2511 45.1139 11.1412 44.9379 11.0533 44.85C10.2047 44.0043 9.35613 43.1586 8.57792 42.2298C8.23937 41.824 8.10748 41.3156 8.01515 40.7975C7.80411 39.6194 7.60627 38.4364 7.40402 37.2534C7.39523 37.1898 7.36005 37.1067 7.44359 37.0725Z" fill="#F6F5F5"/>
<path d="M46.5651 37.2973C46.3672 38.143 46.3013 38.9642 46.1562 39.7708C46.1034 40.0641 46.0551 40.3623 46.0199 40.6604C45.9363 41.379 45.5934 41.9363 45.1669 42.4642C44.4854 43.3099 43.7468 44.0823 42.9422 44.7764C42.8586 44.8497 42.7531 44.9768 42.6652 44.9084C42.5729 44.8351 42.674 44.6982 42.7135 44.6004C43.0257 43.7596 43.3159 42.9042 43.4874 42.0145C43.6149 41.3497 43.8963 40.7924 44.27 40.2694C44.9603 39.3015 45.6286 38.3141 46.3057 37.3364C46.3232 37.312 46.3408 37.2826 46.3628 37.2582C46.4024 37.2142 46.4376 37.1507 46.5079 37.1995C46.5607 37.2289 46.5651 37.2875 46.5651 37.2973Z" fill="#F6F5F5"/>
<path d="M48.1036 34.5353C47.9849 33.8608 48.2399 33.0591 48.4289 32.2526C48.6971 31.0989 48.9654 29.9404 49.238 28.7868C49.2555 28.7135 49.2467 28.6011 49.3435 28.6011C49.4358 28.6011 49.449 28.7037 49.4666 28.7771C49.7084 29.8329 49.9942 30.8741 50.1085 31.9593C50.1613 32.453 50.1085 32.9369 49.959 33.4013C49.5237 34.77 49.0489 36.124 48.4641 37.4292C48.4377 37.4878 48.4289 37.5954 48.3454 37.5709C48.2926 37.5562 48.2927 37.4683 48.2883 37.3998C48.2311 36.5053 48.1739 35.6108 48.1036 34.5353Z" fill="#F6F5F5"/>
<path d="M3.09535 27.4475C2.98983 27.2618 2.96784 27.076 2.95465 26.8951C2.86672 25.8392 2.9019 24.7833 2.94147 23.7274C2.95906 23.263 2.99422 22.8035 3.06457 22.344C3.16569 21.6988 3.4295 21.1268 3.75485 20.594C4.19451 19.8754 4.64297 19.1666 5.09582 18.4577C5.14858 18.3746 5.20133 18.2036 5.30685 18.2573C5.42117 18.3111 5.33762 18.4626 5.32004 18.5702C5.06503 20.1345 4.80563 21.6988 4.55062 23.2679C4.48907 23.6492 4.43192 24.0354 4.37916 24.4216C4.36157 24.5585 4.31761 24.6269 4.18571 24.622C4.04502 24.6171 3.98786 24.71 3.9439 24.8518C3.68889 25.6486 3.42508 26.4405 3.16568 27.2324C3.1481 27.2862 3.12613 27.3546 3.09535 27.4475Z" fill="#F6F5F5"/>
<path d="M51.0981 25.7022C51.1025 26.1666 51.0849 26.631 51.041 27.0905C51.0322 27.1834 51.0366 27.33 50.953 27.3447C50.8519 27.3593 50.8563 27.2127 50.8255 27.1247C50.5925 26.3964 50.3595 25.6729 50.1176 24.9494C50.0209 24.6561 49.9637 24.6366 49.6911 24.7001C49.5856 24.7246 49.5416 24.661 49.5328 24.5535C49.4449 23.3021 49.1943 22.08 49.0184 20.8482C48.9041 20.0465 48.7766 19.2449 48.6535 18.4432C48.6403 18.365 48.5963 18.2672 48.6755 18.2232C48.759 18.1743 48.803 18.2868 48.8426 18.3405C49.0008 18.5849 49.1459 18.8391 49.3042 19.0787C49.6164 19.5626 49.9198 20.0465 50.2451 20.5158C50.6057 21.0388 50.7771 21.6205 50.8167 22.2707C50.8739 23.1457 50.9706 24.0158 51.0453 24.8908C51.0805 25.1645 51.0849 25.4334 51.0981 25.7022Z" fill="#F6F5F5"/>
<path d="M52.2064 19.3037C52.1844 19.4308 52.1756 19.6067 52.1317 19.7681C51.9338 20.5013 51.7272 21.2297 51.5205 21.958C51.4985 22.0314 51.4897 22.1438 51.4062 22.1487C51.3007 22.1487 51.3095 22.0216 51.2919 21.9434C50.883 20.2227 50.4653 18.5069 50.0696 16.7813C49.9157 16.1018 49.8673 15.4028 49.7794 14.7086C49.7134 14.1953 49.6563 13.6772 49.5947 13.159C49.5859 13.0955 49.5288 13.0026 49.6167 12.9684C49.6871 12.9439 49.7266 13.0368 49.7618 13.0955C50.2674 13.9558 50.6807 14.865 51.072 15.7938C51.4326 16.6444 51.7535 17.5194 52.0349 18.4091C52.1273 18.6877 52.1932 18.9664 52.2064 19.3037Z" fill="#F6F5F5"/>
<path d="M1.82422 19.4402C1.87258 18.7949 2.05724 18.1838 2.26388 17.5874C2.69915 16.336 3.28831 15.1628 3.84229 13.9749C3.96539 13.7061 4.09728 13.447 4.22478 13.183C4.25116 13.1341 4.27314 13.0706 4.3347 13.095C4.38746 13.1146 4.37868 13.1732 4.36988 13.2221C4.2204 14.3807 4.18083 15.5588 3.93022 16.6929C3.63125 18.0567 3.27073 19.4059 2.94098 20.76C2.85305 21.1218 2.76951 21.4835 2.67278 21.8404C2.65519 21.9039 2.68157 22.0261 2.57605 22.0261C2.48372 22.0261 2.47053 21.9284 2.44415 21.855C2.33863 21.4933 2.21993 21.1315 2.1276 20.7649C2.03967 20.3983 1.89018 20.0463 1.83742 19.6699C1.83302 19.5868 1.82862 19.5135 1.82422 19.4402Z" fill="#F6F5F5"/>
<path d="M39.7678 50.6028C39.5172 50.8521 39.2446 51.0232 38.9544 51.1748C37.9784 51.693 37.0155 52.2356 36.0087 52.6805C35.7141 52.8076 35.4195 52.8418 35.1117 52.744C34.1049 52.4312 33.0981 52.1281 32.0912 51.8201C32.0209 51.8005 31.9505 51.7712 31.8846 51.7467C31.8406 51.7321 31.7967 51.7174 31.7923 51.6587C31.7835 51.5756 31.8538 51.5756 31.8934 51.561C32.0956 51.4925 32.2979 51.429 32.5045 51.3752C33.0145 51.2334 33.5245 51.0868 34.0346 50.9548C34.6237 50.8032 35.2173 50.8668 35.8064 50.9352C36.8265 51.0477 37.8377 50.9645 38.8445 50.7788C39.1523 50.7152 39.4601 50.6614 39.7678 50.6028Z" fill="#F6F5F5"/>
<path d="M14.166 50.5935C14.5002 50.6571 14.7772 50.706 15.0498 50.7696C16.0126 50.9897 16.9887 50.9554 17.9603 50.8918C18.8749 50.8332 19.7674 50.887 20.6511 51.1853C21.0776 51.3271 21.5173 51.4201 21.9481 51.5423C22.0405 51.5668 22.1988 51.5375 22.2031 51.6695C22.2119 51.8113 22.0493 51.7918 21.9613 51.8162C21.1216 52.0706 20.2818 52.3102 19.442 52.5597C18.2022 52.9265 18.4264 52.8971 17.2789 52.3102C16.3292 51.826 15.3839 51.3271 14.4386 50.8332C14.3551 50.794 14.2671 50.7549 14.166 50.5935Z" fill="#F6F5F5"/>
<path d="M44.4941 10.4312C45.3471 10.9053 46.2088 11.3404 46.9563 11.9857C47.3432 12.323 47.5894 12.7923 47.8312 13.2568C48.2753 14.1025 48.7062 14.9629 49.1414 15.8184C49.1898 15.9161 49.2294 16.0237 49.2689 16.1264C49.2953 16.1948 49.3129 16.2779 49.2558 16.3268C49.181 16.4001 49.1414 16.2975 49.1019 16.2584C48.6534 15.8526 48.2094 15.442 47.7653 15.0313C47.7037 14.9727 47.6422 14.9042 47.5542 14.914C47.3388 14.9335 47.2333 14.7967 47.119 14.6158C46.4463 13.5354 45.7648 12.4599 45.0833 11.3795C44.8899 11.0716 44.692 10.7489 44.4941 10.4312Z" fill="#F6F5F5"/>
<path d="M4.73063 16.3953C4.60312 16.3513 4.66908 16.273 4.69546 16.2193C4.88891 15.7891 5.07796 15.3589 5.28021 14.9385C5.62755 14.2052 6.00126 13.4866 6.39696 12.7876C6.68275 12.284 7.06526 11.893 7.5445 11.6143C8.04133 11.3259 8.52936 11.013 9.02179 10.7148C9.08334 10.6757 9.16248 10.6073 9.21964 10.6855C9.268 10.7539 9.18887 10.8175 9.15809 10.8762C8.38867 12.1325 7.61925 13.384 6.84983 14.6403C6.77069 14.7674 6.68715 14.8554 6.53326 14.8456C6.39257 14.8358 6.29584 14.9629 6.19911 15.0558C5.77703 15.4567 5.35495 15.8526 4.92848 16.2535C4.85813 16.3024 4.79218 16.3464 4.73063 16.3953Z" fill="#F6F5F5"/>
<path d="M26.7148 53.6586C26.7148 53.9274 26.7016 54.1962 26.7192 54.4602C26.7324 54.6313 26.6753 54.6802 26.5346 54.6655C25.5409 54.5678 24.5341 54.5775 23.5492 54.3527C22.9073 54.206 22.2566 54.0936 21.6191 53.9225C21.5312 53.8981 21.3817 53.8883 21.3949 53.7808C21.4081 53.6537 21.5576 53.6879 21.6499 53.683C22.604 53.6341 23.5668 53.639 24.4945 53.3359C25.1364 53.1257 25.7695 52.8667 26.4071 52.632C26.6489 52.544 26.6533 52.5391 26.6621 52.8324C26.6709 53.1062 26.6621 53.3848 26.6621 53.6634C26.6797 53.6585 26.6972 53.6586 26.7148 53.6586Z" fill="#F6F5F5"/>
<path d="M27.2505 54.7053C27.2505 53.9768 27.2505 53.2825 27.2505 52.554C27.5978 52.686 27.9188 52.7838 28.2309 52.9207C29.0927 53.302 29.9896 53.4438 30.9085 53.5074C31.4142 53.5416 31.9154 53.5954 32.4166 53.6443C32.4826 53.6492 32.5793 53.6394 32.5837 53.7519C32.5881 53.8643 32.5002 53.8692 32.4298 53.8839C31.3394 54.1137 30.2491 54.3484 29.1411 54.4657C28.6838 54.5146 28.2222 54.5538 27.7605 54.5733C27.5802 54.5831 27.4176 54.6564 27.2505 54.7053Z" fill="#F6F5F5"/>
<path d="M43.4301 5.76294C43.6807 5.99268 43.9181 6.20286 44.1512 6.42283C45.0525 7.27823 45.9538 8.13364 46.8551 8.98416C47.0485 9.16502 47.1584 9.36543 47.1672 9.66849C47.1848 10.1964 47.2728 10.7194 47.3915 11.2327C47.4091 11.306 47.453 11.4086 47.3695 11.4477C47.3035 11.482 47.2596 11.3793 47.22 11.3304C46.4462 10.3577 45.5932 9.45341 44.8898 8.41226C44.371 7.64484 43.9225 6.82853 43.4389 6.03178C43.4037 5.96335 43.3686 5.89003 43.4301 5.76294Z" fill="#F6F5F5"/>
<path d="M10.4465 6.02694C10.4245 6.07094 10.4025 6.11494 10.3849 6.15404C9.8793 7.16589 9.32092 8.13375 8.62184 8.99895C8.02389 9.74196 7.45233 10.5192 6.87197 11.2817C6.86757 11.2866 6.86316 11.2964 6.85876 11.3013C6.77962 11.3795 6.70928 11.5359 6.59936 11.4821C6.47626 11.4186 6.58178 11.2817 6.59936 11.1791C6.66092 10.8125 6.73566 10.4459 6.79722 10.0792C6.8236 9.90816 6.86757 9.73219 6.77963 9.55621C6.71808 9.43401 6.79721 9.3509 6.88075 9.2678C7.58862 8.58835 8.2965 7.904 9.00436 7.22455C9.37369 6.86771 9.743 6.51088 10.1123 6.15404C10.1827 6.08561 10.2618 6.02206 10.341 5.96829C10.3849 5.93896 10.4421 5.93407 10.4465 6.02694Z" fill="#F6F5F5"/>
<path d="M38.3212 4.77061C38.6817 4.86837 39.073 4.9417 39.4511 5.0688C40.647 5.46964 41.6846 6.18334 42.6431 7.05835C42.9465 7.33698 43.2586 7.60584 43.5708 7.87959C43.6367 7.93825 43.7203 8.0018 43.6807 8.08979C43.6367 8.19733 43.5356 8.124 43.4653 8.09956C43.1223 7.99202 42.7794 7.87469 42.4365 7.76226C42.3749 7.74271 42.3089 7.69872 42.2518 7.76715C42.1199 7.92847 42.01 7.8356 41.8913 7.74761C40.6734 6.81882 39.4555 5.89004 38.2421 4.95637C38.1981 4.92215 38.1101 4.91237 38.1453 4.82438C38.1629 4.76572 38.2376 4.77061 38.3212 4.77061Z" fill="#F6F5F5"/>
<path d="M11.8626 7.82091C11.4493 7.77203 11.0579 7.9089 10.6622 8.02621C10.6051 8.04088 10.5523 8.06532 10.4952 8.07509C10.438 8.08487 10.3677 8.07997 10.3457 8.00665C10.3237 7.93822 10.3809 7.90889 10.4204 7.87468C11.2206 7.205 12.012 6.52067 12.821 5.86566C13.4849 5.32797 14.2807 5.13243 15.0545 4.90269C15.2216 4.85381 15.3931 4.80983 15.5645 4.76583C15.6437 4.74628 15.7492 4.66806 15.802 4.78538C15.8503 4.90269 15.7272 4.92224 15.6701 4.96624C14.6676 5.74345 13.6652 6.51578 12.6627 7.29299C12.4781 7.43475 12.289 7.58139 12.1044 7.72315C12.0296 7.77692 11.9593 7.84047 11.8626 7.82091Z" fill="#F6F5F5"/>
<path d="M34.2803 1.68128C34.6584 1.43687 35.0101 1.49064 35.3619 1.58841C36.184 1.82304 36.9754 2.15542 37.7668 2.48293C38.4439 2.76155 39.121 3.04507 39.7761 3.38236C39.9256 3.46057 40.0223 3.55344 40.0531 3.74897C40.0839 3.94938 40.2246 4.10091 40.3125 4.28177C40.3741 4.40886 40.4488 4.53107 40.4884 4.69727C38.4352 3.70497 36.3775 2.7029 34.2803 1.68128Z" fill="#F6F5F5"/>
<path d="M19.073 1.46606C19.2576 1.49052 19.4687 1.42205 19.5083 1.61765C19.539 1.76925 19.3236 1.78882 19.2181 1.84261C17.5517 2.68862 15.881 3.51996 14.2102 4.36108C14.03 4.44911 13.8497 4.53713 13.6695 4.62515C13.6211 4.6496 13.5683 4.67895 13.5288 4.63005C13.4892 4.58114 13.5156 4.52246 13.5463 4.47356C13.7046 4.2535 13.8057 4.00898 13.8497 3.73024C13.8805 3.5493 14.0388 3.51018 14.1575 3.44661C14.9005 3.08473 15.6436 2.72285 16.391 2.38054C17.1209 2.048 17.8507 1.71058 18.6289 1.53942C18.7872 1.50519 18.9455 1.48563 19.073 1.46606Z" fill="#F6F5F5"/>
<path d="M4.57703 37.7571C4.01866 37.3709 3.60978 36.8674 3.24926 36.315C2.87994 35.7528 2.54578 35.1565 2.29518 34.5161C2.26 34.4281 2.23363 34.3352 2.21164 34.2423C2.19406 34.1739 2.16766 34.0859 2.24241 34.0468C2.32155 34.0077 2.35234 34.0957 2.38751 34.1543C2.70407 34.653 3.02063 35.1467 3.33719 35.6453C3.7109 36.2368 4.089 36.8234 4.46271 37.4149C4.51108 37.5029 4.59022 37.5909 4.57703 37.7571Z" fill="#F6F5F5"/>
<path d="M51.7487 34.2372C51.7355 34.291 51.7267 34.3399 51.7091 34.3839C51.3705 35.2882 50.9485 36.1437 50.3505 36.8721C50.1306 37.141 49.8537 37.3512 49.603 37.5858C49.5547 37.6298 49.4975 37.708 49.436 37.6347C49.3832 37.5711 49.4535 37.5174 49.4887 37.4685C49.8976 36.833 50.3109 36.2024 50.7198 35.5718C51.0144 35.1171 51.3134 34.6674 51.6124 34.2128C51.6344 34.1786 51.6519 34.1101 51.7047 34.1443C51.7223 34.1492 51.7311 34.203 51.7487 34.2372Z" fill="#F6F5F5"/>
<path d="M14.2231 49.9385C14.4474 49.8651 14.6628 49.963 14.8783 49.9972C15.6609 50.1098 16.4391 50.2321 17.2217 50.3495C17.3052 50.3642 17.4152 50.3593 17.4108 50.4963C17.4064 50.6235 17.3052 50.6284 17.2173 50.648C16.7644 50.7556 16.316 50.692 15.8719 50.5844C15.4454 50.4816 15.0146 50.374 14.6057 50.2027C14.465 50.144 14.3243 50.0853 14.2231 49.9385Z" fill="#F6F5F5"/>
<path d="M31.5506 53.1351C31.1725 53.1351 30.79 53.1204 30.4118 53.14C29.9898 53.1644 29.6072 53.0081 29.2247 52.8566C29.172 52.837 29.0928 52.8175 29.1104 52.7344C29.128 52.6465 29.2115 52.6904 29.2599 52.6904C30.469 52.7735 31.6781 52.8566 32.8872 52.9397C32.9004 52.9397 32.918 52.9396 32.9312 52.9445C33.0235 52.9641 33.173 52.9592 33.1686 53.0667C33.1598 53.2035 33.0147 53.1302 32.9312 53.1351C32.4695 53.14 32.0123 53.1351 31.5506 53.1351Z" fill="#F6F5F5"/>
<path d="M9.98044 45.5102C9.67707 45.4417 9.38691 45.2852 9.09672 45.1385C8.44162 44.8158 7.80849 44.449 7.22373 43.9844C7.15338 43.9258 7.08303 43.8671 7.02147 43.7986C6.97751 43.7497 6.88958 43.7008 6.93794 43.6275C6.97751 43.5688 7.06104 43.603 7.12259 43.6373C7.54907 43.8818 7.97995 44.1263 8.40643 44.3757C8.94723 44.6935 9.48802 45.0163 10.0288 45.339C10.0728 45.3635 10.1387 45.3879 10.1255 45.4564C10.1124 45.5199 10.0508 45.5199 9.98044 45.5102Z" fill="#F6F5F5"/>
<path d="M40.8276 46.3794C41.4871 45.2405 42.1202 44.1357 42.7753 43.0066C42.916 43.6372 41.43 46.2083 40.8276 46.3794Z" fill="#F6F5F5"/>
<path d="M44.0324 45.4221C43.9972 45.4123 43.9489 45.4319 43.9401 45.3781C43.9313 45.3194 43.9753 45.2901 44.0104 45.2656C44.1775 45.1678 44.349 45.0701 44.5161 44.9723C45.2371 44.5566 45.9538 44.1361 46.6704 43.7205C46.7012 43.7009 46.7364 43.6813 46.7716 43.6716C46.8375 43.652 46.9167 43.5444 46.9694 43.6276C47.0266 43.7205 46.9167 43.7791 46.8639 43.8329C46.6177 44.0921 46.3319 44.2877 46.0505 44.4882C45.457 44.9038 44.8062 45.1727 44.1423 45.3977C44.0984 45.4123 44.0632 45.4172 44.0324 45.4221Z" fill="#F6F5F5"/>
<path d="M11.1891 43.2168C11.2682 43.2364 11.299 43.295 11.3298 43.3439C11.897 44.2972 12.4598 45.2504 13.0269 46.2085C13.0577 46.2623 13.1456 46.321 13.0797 46.3943C13.0006 46.4774 12.9434 46.3796 12.8994 46.3259C12.3147 45.6073 11.7475 44.8789 11.3913 43.9794C11.3122 43.779 11.2287 43.5834 11.1495 43.383C11.1275 43.3195 11.1011 43.2461 11.1891 43.2168Z" fill="#F6F5F5"/>
<path d="M39.8557 49.9187C39.4952 50.2315 39.0555 50.2658 38.6466 50.3929C38.0135 50.5933 37.3584 50.5933 36.7077 50.5933C36.6286 50.5933 36.5275 50.6031 36.5231 50.4809C36.5187 50.3635 36.6242 50.3733 36.6858 50.3635C37.6706 50.212 38.6554 50.0653 39.6403 49.9187C39.7106 49.9089 39.7854 49.9187 39.8557 49.9187Z" fill="#F6F5F5"/>
<path d="M6.29148 36.9648C6.55968 37.5906 6.70476 38.2555 6.90262 38.8959C7.02133 39.287 7.12247 39.6879 7.22799 40.0839C7.24558 40.1475 7.29394 40.2403 7.2016 40.2697C7.13126 40.2941 7.11367 40.2012 7.08729 40.1474C6.83667 39.6243 6.5245 39.1306 6.42338 38.539C6.35303 38.1382 6.30468 37.7373 6.25631 37.3364C6.22993 37.2142 6.22553 37.0871 6.29148 36.9648Z" fill="#F6F5F5"/>
<path d="M3.21826 29.344C3.22266 28.6645 3.2974 27.9998 3.47767 27.3497C3.49966 27.2715 3.50405 27.1737 3.60958 27.1982C3.69312 27.2177 3.67993 27.3155 3.67553 27.3839C3.62717 28.3175 3.57001 29.2511 3.43811 30.1749C3.42492 30.2531 3.42931 30.3558 3.32378 30.3411C3.24024 30.3265 3.21826 30.2434 3.21826 30.1505C3.21826 29.8816 3.21826 29.6128 3.21826 29.344Z" fill="#F6F5F5"/>
<path d="M50.5573 30.4194C50.5177 29.9355 50.4737 29.4515 50.4341 28.9676C50.3858 28.3907 50.3418 27.8188 50.3022 27.2419C50.2978 27.1833 50.2626 27.0904 50.333 27.0708C50.4165 27.0464 50.4341 27.1491 50.4561 27.2126C50.588 27.6379 50.632 28.0828 50.6892 28.5227C50.7507 29.0213 50.7771 29.5248 50.7199 30.0332C50.7068 30.1652 50.676 30.2972 50.5573 30.4194Z" fill="#F6F5F5"/>
<path d="M24.639 52.8126C24.5027 52.9494 24.3532 53.013 24.1818 53.0178C23.1969 53.0667 22.212 53.1156 21.2228 53.1644C21.1392 53.1693 21.0469 53.1742 20.981 53.0911C21.148 52.9445 24.3357 52.7002 24.639 52.8126Z" fill="#F6F5F5"/>
<path d="M47.7829 37.1604C47.7829 38.0552 47.5191 38.8132 47.1542 39.5369C47.1234 39.5956 47.097 39.6641 47.0267 39.625C46.9739 39.5956 47.0003 39.5418 47.0135 39.4978C47.2069 38.7252 47.3696 37.9428 47.6026 37.1799C47.629 37.087 47.6334 36.9207 47.7389 36.9403C47.8401 36.9599 47.7697 37.1163 47.7829 37.1604Z" fill="#F6F5F5"/>
<path d="M35.4983 48.1885C35.4104 48.477 35.2257 48.6726 35.0366 48.8584C34.4695 49.4208 33.8891 49.9587 33.1988 50.3353C33.1505 50.3597 33.1065 50.438 33.0538 50.3646C33.0054 50.2913 33.0889 50.257 33.1241 50.2277C33.9155 49.5431 34.7069 48.8682 35.4983 48.1885Z" fill="#F6F5F5"/>
<path d="M18.7734 48.501C19.1296 48.7895 19.4857 49.0781 19.8419 49.3715C20.2552 49.709 20.6641 50.0513 21.073 50.3936C21.1213 50.4328 21.1653 50.4719 21.2093 50.5159C21.24 50.5501 21.2576 50.6039 21.2268 50.6479C21.1917 50.7017 21.1433 50.6675 21.1125 50.6431C20.9103 50.4817 20.7036 50.3252 20.5102 50.154C19.9562 49.6747 19.4066 49.1905 18.8526 48.7064C18.7998 48.6624 18.7603 48.6135 18.7383 48.545C18.7471 48.5352 18.7603 48.5156 18.7734 48.501Z" fill="#F6F5F5"/>
<path d="M33.9951 2.61523C33.8369 2.60546 33.6478 2.59569 33.4675 2.50284C33.3752 2.45887 33.2829 2.39534 33.2873 2.28295C33.2961 2.15102 33.3884 2.07772 33.5071 2.04351C33.6346 2.00442 33.7533 2.05329 33.872 2.0875C34.1051 2.15591 34.3337 2.23409 34.5667 2.30739C34.6195 2.32204 34.6986 2.30739 34.6986 2.39534C34.6986 2.4833 34.6239 2.51261 34.5623 2.53216C34.3908 2.59079 34.2106 2.60546 33.9951 2.61523Z" fill="#F6F5F5"/>
<path d="M20.1543 2.5957C19.8685 2.55661 19.6223 2.52241 19.3761 2.48821C19.3321 2.48332 19.2881 2.46866 19.275 2.41003C19.2574 2.33674 19.3101 2.29277 19.3541 2.283C19.6926 2.18527 20.0224 2.0338 20.3785 2.03869C20.484 2.03869 20.6071 2.06312 20.6335 2.21947C20.6555 2.36606 20.55 2.41492 20.4664 2.47355C20.3609 2.54196 20.2378 2.58104 20.1543 2.5957Z" fill="#F6F5F5"/>
<path d="M47.9374 11.5212C48.1088 11.6582 48.1528 11.8293 48.2187 11.9907C48.4386 12.5139 48.6408 13.042 48.8123 13.5897C48.8255 13.6337 48.8826 13.6973 48.8123 13.7364C48.7639 13.7609 48.7331 13.7217 48.7112 13.6728C48.443 13.0322 48.1484 12.4063 47.9418 11.7364C47.9242 11.6826 47.9374 11.619 47.9374 11.5212Z" fill="#F6F5F5"/>
<path d="M6.07627 11.4331C6.13782 11.6826 5.54867 13.233 5.31125 13.4531C5.2409 13.3846 5.26729 13.2966 5.29367 13.233C5.53988 12.6363 5.79049 12.0445 6.04111 11.4478C6.04111 11.438 6.06308 11.438 6.07627 11.4331Z" fill="#F6F5F5"/>
<path d="M51.912 22.8572C51.9956 23.0821 51.8988 23.2777 51.8856 23.4733C51.8549 23.8939 51.8197 24.3145 51.7845 24.735C51.7757 24.8279 51.7889 24.9697 51.6746 24.96C51.5602 24.9502 51.591 24.8133 51.6042 24.7204C51.6702 24.1873 51.7361 23.6592 51.7977 23.1261C51.8065 23.0234 51.8505 22.9452 51.912 22.8572Z" fill="#F6F5F5"/>
<path d="M8.5293 10.3097C8.78871 10.109 9.03494 9.91812 9.28116 9.7321C9.32073 9.70273 9.3647 9.69784 9.39548 9.74679C9.41746 9.78106 9.39108 9.81042 9.36909 9.83001C9.15805 10.0062 8.9514 10.1824 8.73596 10.3538C8.68319 10.388 8.62163 10.3832 8.5293 10.3097Z" fill="#F6F5F5"/>
<path d="M44.2042 17.8808C43.8921 18.4821 43.5975 19.0394 43.3073 19.6064C42.8061 20.589 42.2697 21.5471 41.7904 22.5443C41.5134 23.1211 41.5003 23.7468 41.4519 24.3676C41.3332 25.8732 41.2277 27.3837 41.1133 28.8893C40.9726 30.7371 40.8407 32.5848 40.6473 34.4277C40.5857 35.0241 40.5374 35.6253 40.3615 36.2022C40.0449 37.214 39.381 37.8935 38.5896 38.441C37.8554 38.9494 37.042 39.2427 36.233 39.5506C34.637 40.1568 33.019 40.7043 31.4055 41.2567C30.0205 41.7259 28.6355 42.1854 27.2506 42.6547C27.1187 42.6987 27.0835 42.6694 27.0835 42.5178C27.0879 41.8677 27.0923 41.2127 27.0835 40.5625C27.0791 40.3865 27.1714 40.367 27.2814 40.3425C27.9453 40.1861 28.6092 40.0297 29.2731 39.8733C30.5437 39.5751 31.8187 39.2769 33.0894 38.9738C34.2853 38.6903 35.4768 38.3921 36.6375 37.9815C37.2706 37.7566 37.895 37.4976 38.4446 37.0576C39.0205 36.5981 39.3239 35.9724 39.3986 35.1903C39.5129 34.0073 39.5305 32.8195 39.5701 31.6316C39.6229 30.0429 39.6097 28.4542 39.7152 26.8704C39.7812 25.9025 39.7636 24.9346 39.7768 23.9668C39.7855 23.1113 40.0318 22.3927 40.4187 21.679C40.8144 20.9507 41.1661 20.193 41.5398 19.4451C41.619 19.2838 41.6234 19.2202 41.4167 19.2153C39.5569 19.2056 37.6971 19.1958 35.8329 19.1567C34.6766 19.1322 33.5203 19.1518 32.3639 19.1127C31.234 19.0736 30.1084 19.1029 28.9829 19.0687C28.3981 19.0491 27.8134 19.0491 27.2242 19.0443C27.0923 19.0443 27.0483 19.0003 27.0483 18.8487C27.0659 17.8808 27.0747 16.913 27.0791 15.9402C27.0791 15.8082 27.1055 15.7447 27.2418 15.7642C28.0244 15.8718 28.807 15.9842 29.594 16.0673C30.2931 16.1406 30.9922 16.2433 31.6912 16.3313C32.5838 16.4388 33.4807 16.5463 34.3732 16.6588C35.8945 16.8445 37.4113 17.0303 38.9282 17.2258C40.4011 17.4116 41.874 17.6071 43.3512 17.7929C43.6194 17.8271 43.8877 17.8466 44.2042 17.8808Z" fill="#F6F5F5"/>
<path d="M26.5868 17.4066C26.5868 17.8807 26.578 18.35 26.5912 18.8242C26.5956 18.9904 26.5692 19.0539 26.4066 19.0491C25.7163 19.0442 25.0304 19.0393 24.3401 19.0539C22.0846 19.1028 19.8291 19.0588 17.5737 19.0979C15.793 19.1322 14.0123 19.1175 12.2361 19.1419C11.9767 19.1468 11.9767 19.1468 12.1042 19.401C12.601 20.4031 13.0934 21.4101 13.5947 22.4122C13.7178 22.6615 13.7705 22.9157 13.7793 23.2042C13.8233 25.1497 13.8848 27.0953 13.9376 29.0408C13.9728 30.3656 13.9948 31.6952 14.0519 33.02C14.0871 33.8168 14.1179 34.6087 14.2366 35.4006C14.3641 36.2512 14.7994 36.8182 15.4501 37.2337C16.4305 37.8643 17.5121 38.182 18.5937 38.4949C20.1853 38.9544 21.7988 39.2966 23.4124 39.6534C24.4017 39.8734 25.3953 40.0738 26.3758 40.3378C26.5297 40.3818 26.5912 40.4405 26.5868 40.6262C26.5736 41.247 26.578 41.863 26.5868 42.4838C26.5912 42.6891 26.5385 42.7038 26.3758 42.6451C24.0368 41.819 21.6933 40.9977 19.3543 40.1716C18.2419 39.7805 17.112 39.4286 16.0172 38.9691C15.261 38.6513 14.5575 38.2309 13.9948 37.5515C13.5331 36.9942 13.3485 36.3147 13.2034 35.601C12.9923 34.55 12.8956 33.4795 12.8077 32.4138C12.6758 30.8349 12.5658 29.251 12.4603 27.6672C12.3812 26.4647 12.3108 25.267 12.2493 24.0645C12.2229 23.5366 12.0558 23.0624 11.8448 22.6078C11.2337 21.2928 10.5434 20.0316 9.89705 18.7362C9.79593 18.5358 9.6992 18.3402 9.58928 18.1447C9.49695 17.9785 9.53213 17.9345 9.7036 17.915C10.8599 17.783 12.0162 17.6412 13.1682 17.4897C14.43 17.3284 15.6963 17.1475 16.9581 16.9813C18.453 16.7857 19.9479 16.5902 21.4471 16.3996C22.7485 16.2334 24.0499 16.0721 25.347 15.9058C25.6723 15.8619 26.0021 15.8227 26.3274 15.769C26.4637 15.7445 26.5253 15.769 26.5209 15.945C26.5121 16.4338 26.5165 16.9226 26.5165 17.4115C26.5385 17.4066 26.5605 17.4066 26.5868 17.4066Z" fill="#F6F5F5"/>
<path d="M34.0653 19.6211C36.2329 19.6211 38.4048 19.6211 40.5724 19.6211C40.8758 19.6211 40.8802 19.6211 40.7263 19.9292C40.3614 20.6529 39.9964 21.3717 39.6403 22.1003C39.5612 22.2617 39.4688 22.3057 39.3105 22.3057C37.2441 22.291 35.1777 22.3057 33.1112 22.2763C31.2119 22.247 29.3169 22.2714 27.4175 22.2519C27.2417 22.2519 27.1889 22.2225 27.1977 22.0025C27.2241 21.3277 27.2241 20.648 27.2197 19.9732C27.2197 19.7482 27.2768 19.6749 27.4923 19.6749C29.1718 19.6847 30.847 19.6749 32.5265 19.67C33.0409 19.67 33.5509 19.67 34.0653 19.67C34.0653 19.6504 34.0653 19.6358 34.0653 19.6211Z" fill="#FDFDFD"/>
<path d="M26.4463 37.7762C26.4463 38.353 26.4463 38.9347 26.4463 39.5116C26.4463 39.844 26.4464 39.8391 26.1562 39.7707C25.0262 39.5165 23.8919 39.272 22.7619 39.0178C20.8714 38.5974 18.9764 38.1966 17.1474 37.4975C16.4615 37.2335 15.7932 36.9207 15.2304 36.3976C15.037 36.2167 14.9314 35.9626 14.7951 35.7328C14.7292 35.6204 14.8215 35.6204 14.8875 35.6204C15.0985 35.6252 15.3096 35.6399 15.525 35.6399C17.7365 35.6448 19.9481 35.6448 22.1596 35.6546C23.5269 35.6595 24.8987 35.679 26.2661 35.6839C26.4112 35.6839 26.4507 35.7328 26.4463 35.8892C26.4375 36.5149 26.442 37.1456 26.442 37.7713C26.442 37.7762 26.4419 37.7762 26.4463 37.7762Z" fill="#FDFDFD"/>
<path d="M33.2605 25.9026C35.173 25.9026 37.0856 25.9075 38.9938 25.8977C39.2048 25.8977 39.2664 25.9564 39.2532 26.196C39.2224 26.8367 39.2136 27.4822 39.2048 28.1228C39.2004 28.3185 39.1521 28.3918 38.9498 28.3918C35.1335 28.3918 31.3172 28.3967 27.5052 28.4163C27.3074 28.4163 27.2502 28.3625 27.2546 28.1375C27.2678 27.5115 27.259 26.8856 27.259 26.2547C27.259 25.9026 27.259 25.9026 27.5668 25.9026C29.4705 25.9026 31.3655 25.9026 33.2605 25.9026Z" fill="#FDFDFD"/>
<path d="M20.3828 29.4273C22.2954 29.4273 24.2079 29.4321 26.1161 29.4224C26.3096 29.4224 26.3667 29.4761 26.3623 29.6961C26.3491 30.3804 26.3535 31.0647 26.3623 31.7491C26.3623 31.9152 26.3184 31.9495 26.1777 31.9495C22.3306 31.9495 18.4878 31.9495 14.6407 31.9543C14.5132 31.9543 14.4517 31.9397 14.4473 31.7637C14.4341 31.0501 14.4121 30.3315 14.3769 29.6179C14.3681 29.4028 14.4868 29.4321 14.6012 29.4321C16.5313 29.4272 18.4571 29.4273 20.3828 29.4273Z" fill="#FDFDFD"/>
<path d="M33.2916 34.0818C33.3004 33.8959 33.2388 33.8226 33.0542 33.8275C31.7308 33.8421 30.403 33.8226 29.0796 33.8519C28.4201 33.8666 27.765 33.8421 27.1055 33.8813C26.9384 33.891 26.868 33.8421 26.868 33.6514C26.8636 33.221 26.8549 32.7906 26.8373 32.3553C26.8329 32.2183 26.868 32.1743 26.9955 32.1743C29.0312 32.1792 31.0625 32.1792 33.0982 32.1743C33.2301 32.1743 33.274 32.2134 33.2696 32.37C33.2608 32.7759 33.2696 33.1819 33.2652 33.5927C33.2652 33.6856 33.2608 33.7737 33.3664 33.803C33.3048 33.8764 33.4631 34.0378 33.2916 34.0818Z" fill="#F6F5F5"/>
<path d="M31.955 30.5913C30.3722 30.5913 28.7938 30.5913 27.211 30.5913C26.8593 30.5913 26.8592 30.5962 26.8636 30.1902C26.868 29.8234 26.8856 29.4566 26.8856 29.0898C26.8856 28.943 26.9252 28.8941 27.0615 28.899C29.0752 28.9088 31.0888 28.9088 33.1025 28.9088C33.252 28.9088 33.2916 28.9626 33.2784 29.124C33.2388 29.5446 33.208 29.9653 33.1817 30.3908C33.1729 30.5277 33.1157 30.5473 33.0146 30.5473C32.6629 30.5424 32.3111 30.5473 31.9594 30.5473C31.955 30.5522 31.955 30.5717 31.955 30.5913Z" fill="#F6F5F5"/>
<path d="M23.6236 24.1087C24.6216 24.1087 25.6152 24.1136 26.6133 24.1038C26.7672 24.1038 26.8331 24.1331 26.8243 24.3287C26.8067 24.7346 26.8111 25.1453 26.8155 25.5512C26.8199 25.7125 26.7847 25.7761 26.622 25.7712C24.9689 25.7566 23.3114 25.7614 21.6583 25.7419C21.3021 25.737 20.9416 25.7125 20.5855 25.7223C20.4316 25.7272 20.4096 25.6587 20.4096 25.5072C20.4184 25.1258 20.4228 24.7395 20.4096 24.358C20.4008 24.1576 20.4536 24.094 20.6382 24.0989C21.6319 24.1136 22.6299 24.1087 23.6236 24.1087Z" fill="#F6F5F5"/>
<path d="M23.6585 28.9634C22.6561 28.9634 21.6492 28.9634 20.6468 28.9634C20.5325 28.9634 20.4973 28.9145 20.4929 28.7922C20.4841 28.3864 20.4753 27.9756 20.4489 27.5697C20.4358 27.379 20.4797 27.3154 20.6644 27.3203C22.1197 27.3399 23.5794 27.3448 25.0347 27.3546C25.5095 27.3594 25.9888 27.3741 26.4636 27.3497C26.6922 27.3399 26.7494 27.423 26.745 27.6626C26.7406 27.9952 26.767 28.3277 26.7934 28.6602C26.8066 28.8607 26.767 28.9389 26.5603 28.934C25.5931 28.9194 24.6258 28.9291 23.6585 28.9291C23.6585 28.9438 23.6585 28.9536 23.6585 28.9634Z" fill="#F6F5F5"/>
<path d="M17.3145 22.4612C18.2598 22.4612 19.2051 22.4661 20.1504 22.4563C20.3219 22.4563 20.379 22.5003 20.3702 22.696C20.357 23.1116 20.3614 23.5273 20.3658 23.943C20.3658 24.08 20.3526 24.1436 20.2031 24.1436C18.3301 24.1191 16.4528 24.1044 14.5798 24.0898C14.4611 24.0898 14.4127 24.0457 14.3995 23.9137C14.3511 23.4784 14.3028 23.0432 14.2412 22.6079C14.2192 22.4514 14.2808 22.4368 14.3951 22.4368C15.3712 22.4417 16.3429 22.4368 17.3189 22.4368C17.3145 22.4465 17.3145 22.4563 17.3145 22.4612Z" fill="#F6F5F5"/>
<path d="M33.292 34.081C33.4635 34.037 33.3008 33.8756 33.3711 33.7925C33.6481 33.7583 33.9295 33.7632 34.2065 33.7876C34.2109 33.8268 34.2197 33.8659 34.2637 33.8708C34.3208 33.8805 34.334 33.8365 34.3384 33.7876C34.7649 33.7583 35.187 33.7583 35.6135 33.7876C35.6178 33.8268 35.6267 33.8659 35.6706 33.8708C35.7278 33.8805 35.741 33.8365 35.7454 33.7876C36.0531 33.7583 36.3609 33.7583 36.6687 33.7876C36.6731 33.8268 36.6819 33.8659 36.7258 33.8708C36.783 33.8805 36.7962 33.8365 36.8006 33.7876C36.9896 33.7583 37.1831 33.7583 37.3721 33.7876C37.3765 33.8268 37.3853 33.8659 37.4293 33.8708C37.4865 33.8805 37.4996 33.8365 37.504 33.7876C37.8118 33.7583 38.1196 33.7583 38.4273 33.7876C38.4845 33.9197 38.5461 33.9197 38.6032 33.7876C38.7659 33.7827 38.933 33.773 39.0957 33.773C39.1572 33.773 39.2408 33.7632 39.188 33.8854C39.1836 33.9001 39.1792 33.9197 39.1748 33.9343C39.1836 33.949 39.1836 33.9637 39.1704 33.9735C38.9198 34.218 38.9154 34.2522 39.0869 34.6092C39.0825 34.6434 39.0781 34.6727 39.0693 34.707C38.8846 34.7901 38.8055 34.9466 38.8494 35.1569C38.867 35.2449 38.8187 35.3085 38.8187 35.3867C38.7615 35.3916 38.7043 35.4014 38.6472 35.4014C37.0028 35.4014 35.3629 35.4014 33.7185 35.4014C33.6481 35.4014 33.5734 35.3916 33.503 35.3867C33.5074 35.2547 33.4547 35.1715 33.3316 35.1471C33.3272 35.0199 33.3272 34.8928 33.3228 34.7705C33.3228 34.7021 33.3448 34.6287 33.3008 34.5652C33.3008 34.4087 33.2964 34.2473 33.292 34.081Z" fill="#FDFDFD"/>
<path d="M12.7412 19.7287C13.836 19.67 14.8912 19.6798 15.942 19.67C17.305 19.6554 18.6636 19.6407 20.0265 19.6162C20.22 19.6113 20.286 19.6749 20.286 19.8902C20.286 20.1495 20.3079 20.4087 20.3211 20.6729C20.3299 20.8392 20.264 20.8979 20.1101 20.8979C17.9425 20.8979 15.7749 20.8979 13.6073 20.9028C13.515 20.9028 13.4447 20.8882 13.3831 20.7903C13.1809 20.443 12.9698 20.1054 12.7412 19.7287Z" fill="#F6F5F5"/>
<path d="M35.2657 37.0235C35.8461 37.0235 36.422 37.0235 37.0024 37.0284C37.0728 37.0284 37.1915 36.9697 37.2091 37.0821C37.2267 37.1897 37.1079 37.2288 37.0244 37.2533C36.1143 37.5515 35.1998 37.8449 34.2897 38.1383C34.0171 38.2263 33.7401 38.3143 33.4719 38.4072C33.362 38.4463 33.3356 38.4121 33.3312 38.2899C33.3268 37.9183 33.3444 37.5418 33.296 37.1702C33.274 37.0088 33.3576 36.999 33.4631 36.999C34.0654 36.999 34.6634 36.999 35.2657 36.999C35.2657 37.0088 35.2657 37.0137 35.2657 37.0235Z" fill="#F6F5F5"/>
<path d="M38.8267 35.3967C38.8267 35.3184 38.875 35.2547 38.8574 35.1666C38.8179 34.956 38.8926 34.7993 39.0773 34.7161C39.0553 34.9021 39.0289 35.0882 39.0069 35.2694C38.9937 35.3967 38.9366 35.4408 38.8267 35.3967Z" fill="#F6F5F5"/>
<path d="M39.0953 34.6182C38.9238 34.2614 38.9282 34.2224 39.1788 33.9829C39.1832 34.2028 39.1481 34.4129 39.0953 34.6182Z" fill="#F6F5F5"/>
<path d="M33.3355 35.1562C33.4586 35.1806 33.5113 35.2636 33.5069 35.3953C33.2827 35.4636 33.3267 35.2977 33.3355 35.1562Z" fill="#F6F5F5"/>
<path d="M38.6071 33.792C38.5499 33.9241 38.4883 33.9241 38.4312 33.792C38.4883 33.7676 38.5499 33.7676 38.6071 33.792Z" fill="#F6F5F5"/>
<path d="M37.5079 33.7921C37.5035 33.841 37.4904 33.8851 37.4332 33.8753C37.3892 33.8704 37.3848 33.8312 37.376 33.7921C37.42 33.7676 37.4639 33.7676 37.5079 33.7921Z" fill="#F6F5F5"/>
<path d="M34.3424 33.7921C34.338 33.841 34.3248 33.8851 34.2676 33.8753C34.2237 33.8704 34.2192 33.8312 34.2104 33.7921C34.2544 33.7676 34.2984 33.7676 34.3424 33.7921Z" fill="#F6F5F5"/>
<path d="M36.8043 33.7921C36.7999 33.841 36.7867 33.8851 36.7296 33.8753C36.6856 33.8704 36.6812 33.8312 36.6724 33.7921C36.7163 33.7676 36.7603 33.7676 36.8043 33.7921Z" fill="#F6F5F5"/>
<path d="M35.7496 33.7921C35.7452 33.841 35.7321 33.8851 35.6749 33.8753C35.6309 33.8704 35.6265 33.8312 35.6177 33.7921C35.6617 33.7676 35.7056 33.7676 35.7496 33.7921Z" fill="#F6F5F5"/>
<path d="M33.3045 34.5742C33.3485 34.6375 33.3265 34.7105 33.3265 34.7786C33.2913 34.7153 33.2913 34.6423 33.3045 34.5742Z" fill="#F6F5F5"/>
<path d="M39.1831 33.9436C39.1879 33.929 39.1926 33.9094 39.1974 33.8948C39.1926 33.9094 39.1879 33.9241 39.1831 33.9436Z" fill="#F6F5F5"/>
</svg>
