<svg width="88" height="34" viewBox="0 0 88 34" fill="none" xmlns="http://www.w3.org/2000/svg">
<path fill-rule="evenodd" clip-rule="evenodd" d="M86.1997 7.31823H61.0996C60.4996 7.31823 60 7.11351 60 6.19273V2.40731C60 1.28191 59.3999 0.770508 58.3999 0.770508H29.6997C28.5997 0.770508 28.0996 1.38422 28.0996 2.40731V6.19273C28.0996 7.0112 27.7 7.31823 27 7.31823H10.5996C9.29961 7.31823 8.59971 7.93199 8.19971 8.75047L0.199707 24.7109C0.099707 24.9155 0 25.1201 0 25.427C0 26.0409 0.4 26.8595 1.5 26.8595H26.8999C27.6999 26.8595 28 27.2686 28 27.9848V31.7702C28 32.8956 28.6996 33.4072 29.5996 33.4072H44H58.2998C59.2998 33.4072 59.8999 32.8956 59.8999 31.7702V27.9848C59.8999 27.1663 60.2 26.8595 61 26.8595H77C78.1 26.8595 78.8999 26.5525 79.3999 25.5294L87.2998 9.67141C87.4998 9.36448 87.5996 9.15971 87.5996 8.75047C87.6996 7.72737 86.7997 7.31823 86.1997 7.31823ZM79.7998 13.6614L76 21.3346C75.8 21.7439 75.3 21.8462 75 21.8462H56.0996C55.2996 21.8462 55 22.2555 55 22.9717V27.371C55 28.0872 54.6999 28.4963 53.8999 28.4963H44H34.0996C33.3996 28.4963 33 28.2918 33 27.371V22.9717C33 22.1532 32.5999 21.8462 31.8999 21.8462H8.79981C8.19981 21.8462 7.79981 21.437 7.79981 20.9255C7.79981 20.8232 7.7999 20.6184 7.8999 20.5161L11.6997 12.8429C11.7997 12.5359 12.0997 12.4337 12.6997 12.4337H32C32.7 12.4337 33.0996 12.1267 33.0996 11.3082V6.90909C33.0996 6.09062 33.3997 5.78359 34.1997 5.78359H54.0996C54.7996 5.78359 55.1997 6.09062 55.1997 6.90909V11.3082C55.1997 12.0244 55.4998 12.4337 56.2998 12.4337H79.0996C79.7996 12.4337 80.0996 12.9452 80.0996 13.3544C79.8996 13.4567 79.8998 13.5591 79.7998 13.6614Z" fill="#372120"/>
</svg>
