<svg width="55" height="56" viewBox="0 0 55 56" fill="none" xmlns="http://www.w3.org/2000/svg">
<g clip-path="url(#clip0)">
<path d="M50.3562 1.33874C47.9798 0.817322 37.1547 0.0158676 27.6196 0.00415039C17.9354 0.0158676 7.00731 0.817322 4.64277 1.33874C3.49481 1.59066 -0.00348695 2.36047 6.34234e-05 6.38064C-0.00348695 11.5526 0.132611 37.5401 2.81551 41.1701C7.46295 47.4728 26.2705 55.5682 27.0799 55.9103C27.3344 56.024 27.6362 56.0251 27.9178 55.9103C28.7332 55.5717 48.2662 47.4599 52.2118 41.1103C54.7811 36.9765 54.9882 6.68177 54.9977 6.37946C54.9906 2.36047 51.4923 1.59066 50.3562 1.33874ZM27.919 53.9547C27.919 53.9629 27.919 53.9629 27.919 53.9547C27.919 53.9629 27.919 53.9629 27.919 53.9547C27.919 53.9629 27.919 53.9629 27.919 53.9547Z" fill="#372120"/>
<path d="M50.3872 40.013C47.0971 45.2963 30.3702 52.5633 27.5003 53.7748C24.6908 52.5457 8.49395 45.2729 4.55422 39.924C2.79442 37.5489 2.13997 18.0878 2.12695 6.38005C2.13997 4.68926 2.94472 3.88429 5.12228 3.41443C7.1389 2.96098 17.7841 2.13609 27.6198 2.13843C37.3017 2.13609 47.8486 2.96098 49.8783 3.41443C52.044 3.88429 52.8488 4.68926 52.844 6.38005C52.8488 12.4179 52.2061 37.0779 50.3872 40.013Z" fill="white"/>
<path d="M28.3685 14.7731C28.6608 13.7736 30.8703 12.3312 31.2147 12.6382C31.2017 12.2691 32.8088 10.8115 33.4017 11.0657C33.2585 10.624 35.4621 9.25895 35.9781 9.6421C36.1059 9.08788 39.2989 8.66958 39.9321 9.19685C40.2966 8.79261 43.1286 9.4722 43.1972 10.1764C43.7191 9.72529 46.608 12.7483 46.6127 14.2692C46.6127 14.8633 43.8955 12.4648 42.1795 12.9932C39.351 13.8462 35.7438 16.8318 32.623 21.3276C31.7508 22.5497 29.5176 22.9962 29.0276 21.0019C29.0276 21.0031 28.0643 15.7784 28.3685 14.7731Z" fill="#372120"/>
<path d="M28.1293 42.6529C27.6749 41.9065 27.8157 41.0125 28.1885 40.6656C28.7163 40.163 30.2276 40.5684 30.3459 40.1021C30.6442 39.0346 29.8773 38.6573 30.0169 37.1657C30.0548 36.649 31.0501 32.8761 31.3045 32.5386C31.5152 32.2621 32.7874 31.8227 33.1318 31.6797C33.3413 31.4442 33.4892 31.1595 33.4916 30.6709C31.8395 30.1577 31.3933 31.6891 31.1554 31.6212C30.9164 31.5719 31.2773 29.9538 31.4844 29.7827C31.6927 29.6011 33.6431 29.1723 33.8513 28.8325C34.0939 28.4728 34.9934 25.0302 33.8513 24.9775C33.9531 24.9916 33.804 24.7443 33.8809 24.769C36.2289 25.3056 37.8088 14.2317 43.5569 14.2704C49.2777 14.3207 48.9795 22.5146 48.6493 22.8122C47.9937 23.3875 47.0469 23.1778 47.0019 23.7015C46.7179 28.713 42.1947 34.0759 40.8314 33.6084C40.0077 33.3225 40.7083 30.7764 41.1012 30.7307C40.7379 30.569 41.0953 27.9478 41.5201 27.8834C41.184 27.6526 41.4811 25.2365 41.9095 25.2142C41.6953 25.0244 41.7178 23.3699 41.2811 22.545C40.9604 21.9147 39.5438 21.5749 39.4538 23.1086C40.3213 22.702 40.3805 25.4732 40.0231 25.9559C39.6668 26.4164 37.3757 27.4768 36.668 28.0615C36.72 29.2437 35.5898 33.7806 34.7508 35.0918C33.9235 36.3748 33.0904 37.1411 32.6241 38.3246C32.1377 39.4974 32.443 41.5069 31.3661 42.4174C30.8844 42.8158 28.3246 42.9939 28.1293 42.6529Z" fill="#372120"/>
<path d="M47.7498 24.087C48.0268 23.6359 49.125 23.4566 49.5179 23.6722C49.9866 23.9323 50.331 27.5354 49.8469 27.6467C50.2706 27.8623 49.7428 30.5959 49.2173 30.6123C49.6339 30.7763 48.7712 33.4572 48.2587 33.3705C48.5617 33.7818 47.164 35.9612 46.7912 35.8335C46.6587 38.0832 39.8384 39.1529 39.9911 37.2571C40.0657 36.3478 41.0858 37.6871 45.6835 30.6135C47.7001 27.4733 47.3593 24.7631 47.7498 24.087ZM26.6606 14.8035C26.1896 13.763 24.2345 12.3792 23.9044 12.6979C23.9044 12.3171 22.2972 10.8595 21.7173 11.1255C21.8475 10.6708 19.6427 9.30578 19.1114 9.70182C19.0001 9.13588 15.8071 8.71757 15.187 9.25656C14.8095 8.8406 11.9775 9.5202 11.9219 10.2349C11.3869 9.77212 8.49811 12.7951 8.50639 14.3289C8.49338 14.9113 11.2106 12.5116 12.91 13.0236C15.7551 13.893 19.3622 16.8798 22.496 21.3581C23.3552 22.5989 25.5399 23.0442 26.031 21.0311C26.0322 21.0311 27.1423 15.8252 26.6606 14.8035Z" fill="#372120"/>
<path d="M26.8998 42.6832C27.3412 41.8958 27.2607 41.0299 26.8702 40.6666C26.3601 40.1816 24.8784 40.6163 24.7435 40.1628C24.4618 39.0825 25.2299 38.7052 25.1033 37.2265C25.0524 36.6969 24.0571 32.9251 23.8157 32.5994C23.5908 32.31 22.3198 31.8706 21.9884 31.7394C21.7659 31.4921 21.6192 31.2062 21.5991 30.7012C23.2689 30.2044 23.7151 31.737 23.966 31.6808C24.1908 31.6187 23.8311 30.0005 23.637 29.8119C23.4145 29.6467 21.4937 29.1897 21.2405 28.8921C20.9789 28.5453 20.115 25.0782 21.2405 25.0079C21.1553 25.0395 21.3044 24.7911 21.2109 24.7993C18.8795 25.3535 17.2996 14.2785 11.535 14.33C5.83072 14.3675 6.12896 22.5613 6.47216 22.8718C7.11359 23.4354 8.06154 23.2257 8.08994 23.7611C8.38935 28.7609 12.9137 34.1238 14.2912 33.6375C15.1019 33.3692 14.4013 30.8242 14.0214 30.761C14.3717 30.618 14.0155 27.9957 13.6025 27.9442C13.9256 27.7005 13.6273 25.2844 13.2119 25.2445C13.4119 25.0723 13.3906 23.4167 13.8108 22.6047C14.1469 21.9614 15.5646 21.6216 15.638 23.1683C14.7883 22.75 14.7279 25.5199 15.0995 25.9851C15.4427 26.4619 17.7339 27.5224 18.4534 28.1199C18.3884 29.2905 19.5186 33.8273 20.3411 35.1198C21.1849 36.4204 22.018 37.1878 22.4973 38.3537C22.9742 39.5547 23.1967 41.9063 23.7849 42.4465C24.3127 42.9222 26.7033 43.0476 26.8998 42.6832ZM27.5601 44.9668C25.7684 44.9997 24.2015 43.7401 24.5044 43.3944C25.1305 42.7523 26.1992 43.7037 27.4702 43.1577C28.7294 43.6744 29.7708 42.7546 30.585 43.3651C31.0525 43.6979 29.3389 44.9422 27.5601 44.9668Z" fill="#372120"/>
<path d="M7.33957 24.1456C7.07921 23.6816 5.98215 23.6219 5.57149 23.8492C5.11941 24.0952 4.77502 27.5811 5.24249 27.7041C4.83538 27.908 5.3632 30.6416 5.90167 30.6416C5.47326 30.8221 6.336 33.503 6.83069 33.4292C6.54429 33.8275 7.94195 36.0081 8.32894 35.8909C8.44966 38.1301 15.2687 39.1987 15.1291 37.3157C15.0415 36.3936 14.0214 37.7329 9.43784 30.6428C7.40585 27.5202 7.74787 24.8112 7.33957 24.1456Z" fill="#372120"/>
</g>
<defs>
<clipPath id="clip0">
<rect width="55" height="56" fill="white"/>
</clipPath>
</defs>
</svg>
