<svg width="54" height="56" viewBox="0 0 54 56" fill="none" xmlns="http://www.w3.org/2000/svg">
<path d="M0.0239258 30.2124C0.0239258 28.8534 0.0239258 27.4945 0.0239258 26.1355C0.0958619 25.5919 0.191777 25.0483 0.263713 24.5048C1.77437 13.3119 9.63938 4.26872 20.2859 1.47669C21.8445 1.05665 23.4512 0.858999 25.0338 0.5625C26.3526 0.5625 27.6714 0.5625 28.9903 0.5625C29.4938 0.636625 29.9733 0.735433 30.4769 0.78485C41.5071 2.16851 50.7869 10.767 53.2806 21.9598C53.5924 23.3435 53.7602 24.7272 54 26.1355C54 27.4945 54 28.8534 54 30.2124C53.9281 30.756 53.8321 31.2995 53.7602 31.8431C52.2256 43.0112 44.4325 52.0544 33.8339 54.8711C32.2513 55.2912 30.6208 55.4889 28.9903 55.7854C27.6714 55.7854 26.3526 55.7854 25.0338 55.7854C24.5062 55.7113 23.9787 55.6124 23.4512 55.5383C12.6607 54.1052 3.66876 45.9762 0.935187 35.0799C0.50357 33.4986 0.31167 31.8431 0.0239258 30.2124ZM3.62073 24.0847C3.81256 26.4814 3.90852 28.3593 4.14831 30.2124C4.89165 35.7223 6.59416 40.8616 9.68741 45.5068C11.3419 48.0023 13.5479 49.6824 16.2095 50.819C20.238 52.5486 24.4822 53.0675 28.7984 52.8451C32.6589 52.6474 36.3996 51.8567 39.8526 49.9295C41.9387 48.7682 43.6891 47.2116 44.8641 45.0373C49.492 36.6118 50.9787 27.618 49.4921 18.0559C48.8206 13.7566 46.7345 10.5446 43.0418 8.34559C38.6777 5.75123 34.0498 4.21927 29.0143 3.84865C21.8446 3.30507 15.2744 4.93586 9.42362 9.33392C6.9778 11.1623 5.1075 13.4849 4.55599 16.6229C4.12438 19.2419 3.8845 21.9104 3.62073 24.0847Z" fill="#372120"/>
<path d="M53.9756 26.1355C53.7358 24.7518 53.5679 23.3434 53.2562 21.9598C50.7864 10.767 41.5067 2.1438 30.4525 0.78485C29.949 0.710725 29.4694 0.636625 28.9658 0.5625C37.3104 0.5625 45.631 0.5625 53.9756 0.5625C53.9756 9.08683 53.9756 17.6112 53.9756 26.1355Z" fill="white"/>
<path d="M25.0098 0.5625C23.4272 0.858999 21.8206 1.05665 20.262 1.47669C9.59149 4.26872 1.75045 13.3366 0.239787 24.5047C0.167851 25.0483 0.0719362 25.5919 0 26.1355C0 17.6359 0 9.11154 0 0.5625C8.3446 0.5625 16.6891 0.5625 25.0098 0.5625Z" fill="white"/>
<path d="M28.9658 55.8103C30.5724 55.5138 32.227 55.2914 33.8096 54.8961C44.4082 52.104 52.2251 43.0361 53.7358 31.8678C53.8077 31.3243 53.9036 30.7806 53.9756 30.2371C53.9756 38.7368 53.9756 47.2612 53.9756 55.8103C45.631 55.8103 37.3104 55.8103 28.9658 55.8103Z" fill="white"/>
<path d="M0.0238851 30.2124C0.31163 31.8431 0.503506 33.4985 0.911145 35.1046C3.64472 45.9762 12.6367 54.1299 23.4271 55.563C23.9547 55.6371 24.4822 55.7112 25.0098 55.8101C16.6891 55.8101 8.36858 55.8101 0 55.8101C0.0239787 47.2857 0.0238851 38.7367 0.0238851 30.2124Z" fill="white"/>
<path d="M3.62109 24.0847C3.88486 21.9104 4.12465 19.2419 4.58024 16.5982C5.10777 13.4603 7.00216 11.1377 9.44798 9.30934C15.2988 4.91132 21.8929 3.2806 29.0385 3.82418C34.05 4.1948 38.7019 5.72668 43.066 8.32102C46.7587 10.52 48.845 13.7321 49.5164 18.0313C51.0031 27.5685 49.5163 36.5622 44.8884 45.0124C43.6895 47.1867 41.9631 48.7433 39.8769 49.9045C36.448 51.8318 32.7073 52.6224 28.8227 52.8201C24.5066 53.0425 20.2623 52.5236 16.2339 50.794C13.5723 49.6574 11.3663 48.002 9.71177 45.4818C6.61852 40.8367 4.93999 35.6975 4.17267 30.1876C3.88493 28.3592 3.81292 26.4814 3.62109 24.0847ZM8.12916 20.4527C8.15314 28.7051 9.63981 36.6364 12.6851 44.2711C13.4045 46.0995 14.5554 47.2114 16.2339 47.9279C16.7854 48.1503 17.3609 48.3727 17.9364 48.5456C22.948 50.0281 28.0314 50.2011 33.1629 49.361C35.5368 48.9657 37.8627 48.3232 39.8289 46.8161C40.4044 46.3713 40.932 45.6794 41.2197 44.9876C43.5457 38.86 45.0323 32.5101 45.4639 25.9378C45.6797 22.6022 45.6558 19.2172 45.4879 15.857C45.392 13.6332 44.4088 11.706 42.3467 10.693C41.0758 10.0506 39.781 9.50703 38.4382 9.08699C33.3307 7.5798 28.1034 7.43152 22.852 7.87626C19.1114 8.19747 15.4186 8.83991 11.9177 10.3224C9.99945 11.113 8.7766 12.5461 8.51284 14.6216C8.24907 16.5735 8.24905 18.5254 8.12916 20.4527Z" fill="white"/>
<path d="M8.12891 20.4523C8.2488 18.5251 8.2488 16.5484 8.48859 14.6459C8.75235 12.5704 9.9752 11.1373 11.8935 10.3466C15.3944 8.88882 19.0871 8.22172 22.8278 7.90052C28.0792 7.45577 33.3065 7.60399 38.414 9.1112C39.7568 9.50653 41.0757 10.0748 42.3226 10.7172C44.3848 11.755 45.3678 13.6823 45.4637 15.8813C45.6076 19.2416 45.6556 22.6019 45.4398 25.9622C45.0082 32.5346 43.5455 38.8846 41.1955 45.0123C40.9318 45.7041 40.4043 46.3959 39.8048 46.8406C37.8386 48.3478 35.5126 48.9903 33.1387 49.3856C28.0072 50.2257 22.9237 50.0527 17.9122 48.5702C17.3367 48.3973 16.7852 48.1749 16.2097 47.9525C14.5312 47.2607 13.3802 46.1242 12.6609 44.2957C9.66352 36.6362 8.17686 28.7049 8.12891 20.4523ZM25.8012 17.6109C25.8012 25.0975 25.8012 32.4605 25.8012 39.8483C26.4726 39.8483 27.096 39.8483 27.8393 39.8483C27.8393 36.315 27.8393 32.8311 27.8393 29.3719C28.9184 29.3719 29.8776 29.3719 30.9327 29.3719C30.9327 32.9052 30.9327 36.3644 30.9327 39.8729C31.7 39.8729 32.3713 39.8729 33.1147 39.8729C33.1386 39.6506 33.1627 39.4776 33.1627 39.28C33.1627 33.6959 33.1627 28.0871 33.1627 22.503C33.1627 22.2065 33.0908 21.8854 32.9709 21.6136C32.4434 20.4523 31.8918 19.2663 31.2924 18.1297C31.1725 17.9073 30.8847 17.6355 30.6689 17.6355C29.0623 17.5861 27.4557 17.6109 25.8012 17.6109ZM13.4521 17.7097C13.4521 25.1963 13.4521 32.5593 13.4521 39.9223C14.1955 39.9223 14.8669 39.9223 15.6822 39.9223C15.6822 36.3644 15.6822 32.8558 15.6822 29.2731C16.8332 29.2731 17.8642 29.2731 18.8953 29.2731C18.8953 28.4331 18.8953 27.6671 18.8953 26.8023C17.7923 26.8023 16.7613 26.8023 15.7062 26.8023C15.7062 24.5539 15.7062 22.3795 15.7062 20.1064C17.1209 20.1064 18.4637 20.1064 19.8065 20.1064C19.8065 19.2416 19.8065 18.5003 19.8065 17.7097C17.6484 17.7097 15.5862 17.7097 13.4521 17.7097ZM40.4522 20.1805C40.4522 19.2663 40.4522 18.5003 40.4522 17.6849C38.1742 17.6849 35.9681 17.6849 33.7141 17.6849C33.7141 18.525 33.7141 19.3157 33.7141 20.1064C34.4575 20.1311 35.1289 20.1805 35.9442 20.2052C35.9442 26.8023 35.9442 33.3005 35.9442 39.7988C36.7595 39.7988 37.4309 39.7988 38.1982 39.7988C38.1982 33.2511 38.1982 26.7529 38.1982 20.1558C38.9895 20.1805 39.6609 20.1805 40.4522 20.1805ZM23.0197 39.9223C23.0197 32.4358 23.0197 25.048 23.0197 17.6355C22.2764 17.6355 21.6049 17.6355 20.9335 17.6355C20.9335 25.0974 20.9335 32.4852 20.9335 39.9223C21.6289 39.9223 22.2764 39.9223 23.0197 39.9223Z" fill="#372120"/>
<path d="M25.8008 17.6109C27.4554 17.6109 29.038 17.5862 30.6206 17.6356C30.8364 17.6356 31.1242 17.9074 31.2441 18.1298C31.8435 19.2663 32.3951 20.4277 32.9226 21.6137C33.0425 21.8855 33.1144 22.2066 33.1144 22.5031C33.1144 28.0872 33.1144 33.696 33.1144 39.2801C33.1144 39.453 33.0905 39.6507 33.0665 39.873C32.3471 39.873 31.6757 39.873 30.8844 39.873C30.8844 36.3645 30.8844 32.9053 30.8844 29.372C29.8293 29.372 28.8942 29.372 27.7911 29.372C27.7911 32.8559 27.7911 36.3151 27.7911 39.8484C27.0478 39.8484 26.4243 39.8484 25.7529 39.8484C25.8009 32.4606 25.8008 25.0975 25.8008 17.6109ZM27.935 20.1064C27.935 22.1819 27.935 24.2327 27.935 26.2588C28.9661 26.2588 29.9013 26.2588 30.9084 26.2588C30.9084 24.6281 31.1002 23.0714 30.3808 21.5395C29.6375 20.0076 29.7095 19.9829 27.935 20.1064Z" fill="white"/>
<path d="M13.4521 17.7102C15.5863 17.7102 17.6724 17.7102 19.8065 17.7102C19.8065 18.5009 19.8065 19.2174 19.8065 20.1069C18.4637 20.1069 17.097 20.1069 15.7062 20.1069C15.7062 22.4048 15.7062 24.5544 15.7062 26.8028C16.7613 26.8028 17.7923 26.8028 18.8954 26.8028C18.8954 27.6676 18.8954 28.4336 18.8954 29.2737C17.8643 29.2737 16.8332 29.2737 15.6822 29.2737C15.6822 32.8563 15.6822 36.3649 15.6822 39.9229C14.8909 39.9229 14.2195 39.9229 13.4521 39.9229C13.4521 32.5351 13.4521 25.1721 13.4521 17.7102Z" fill="white"/>
<path d="M40.4523 20.181C39.661 20.181 38.9897 20.181 38.2223 20.181C38.2223 26.7781 38.2223 33.2763 38.2223 39.824C37.455 39.824 36.7836 39.824 35.9684 39.824C35.9684 33.3257 35.9684 26.8275 35.9684 20.2304C35.1531 20.181 34.4816 20.1563 33.7383 20.1316C33.7383 19.3162 33.7383 18.5503 33.7383 17.7102C35.9683 17.7102 38.1983 17.7102 40.4763 17.7102C40.4523 18.5256 40.4523 19.2915 40.4523 20.181Z" fill="white"/>
<path d="M23.0198 39.9226C22.2764 39.9226 21.629 39.9226 20.9336 39.9226C20.9336 32.4854 20.9336 25.0976 20.9336 17.6357C21.605 17.6357 22.3004 17.6357 23.0198 17.6357C23.0198 25.0729 23.0198 32.4607 23.0198 39.9226Z" fill="white"/>
<path d="M27.9351 20.1069C29.7095 19.9834 29.6375 20.0081 30.3808 21.54C31.1242 23.0719 30.9084 24.6285 30.9084 26.2593C29.9013 26.2593 28.9661 26.2593 27.9351 26.2593C27.9351 24.2085 27.9351 22.1824 27.9351 20.1069Z" fill="#372120"/>
</svg>
