<svg width="98" height="37" viewBox="0 0 98 37" fill="none" xmlns="http://www.w3.org/2000/svg">
<g clip-path="url(#clip0)">
<path d="M49 0.35791C21.8046 0.35791 0 8.40659 0 18.4977C0 28.5283 21.9843 36.6419 49 36.6419C76.0201 36.6419 98 28.5023 98 18.4977C98 8.49314 76.0201 0.35791 49 0.35791Z" fill="#372120"/>
<path d="M68.302 22.3405C68.3152 22.427 68.4247 22.5049 68.5299 22.5439C68.5737 22.5569 68.5913 22.5828 68.5475 22.6737C68.2407 23.3141 67.9645 23.6863 67.5832 24.2488C67.2326 24.7681 66.8338 25.1705 66.356 25.56C65.6285 26.1528 64.6248 26.7932 63.7921 26.3648C63.4239 26.1744 63.2661 25.6638 63.2705 25.2527C63.2881 24.0887 63.814 22.8987 64.7782 21.726C65.9572 20.298 67.2589 19.5537 68.1092 19.9562C68.9945 20.3759 68.714 21.3842 68.3195 22.1761C68.2923 22.2266 68.2861 22.2855 68.302 22.3405ZM77.7864 13.2965C77.8478 13.184 77.7864 13.1018 77.6418 13.1018H75.1655C74.9814 13.1018 74.885 13.1278 74.8017 13.2965C74.5169 13.8331 71.0544 18.9523 70.4102 19.9475C70.305 20.099 70.1691 20.0773 70.1559 19.9043C70.0902 19.3157 69.573 18.6364 68.7578 18.3118C68.1705 18.0777 67.5304 18.003 66.9039 18.0955C65.7644 18.2512 64.7519 18.8441 63.8578 19.5105C62.5167 20.5187 61.3596 21.8256 59.8607 22.7949C59.0411 23.3185 57.9235 23.7771 57.174 23.0934C56.4991 22.4746 56.5736 21.0942 57.6123 20.0297C57.7219 19.9172 57.8534 20.0124 57.8314 20.112C57.7755 20.3435 57.7825 20.5855 57.8517 20.8135C57.921 21.0414 58.0501 21.2473 58.2259 21.4101C58.6773 21.8082 59.3216 21.8558 59.8782 21.5832C60.1896 21.423 60.4569 21.1903 60.6569 20.9054C60.857 20.6204 60.9838 20.2917 61.0265 19.9475C61.0633 19.6943 61.0468 19.4362 60.978 19.1896C60.9092 18.9429 60.7896 18.7129 60.6268 18.5139C60.4639 18.3149 60.2612 18.1512 60.0313 18.0331C59.8015 17.9149 59.5494 17.8448 59.2909 17.8272C58.4319 17.7666 57.6035 18.0608 56.7971 18.7186C56.4166 19.0217 56.0855 19.3807 55.8153 19.7831C55.7277 19.9043 55.6006 19.9129 55.605 19.7398C55.6444 18.3464 55.0615 17.5632 53.8957 17.5372C52.9928 17.5156 52.0242 18.0003 51.2703 18.5931C50.4464 19.2465 49.7232 20.1163 48.9475 20.9298C48.8554 21.0337 48.7721 21.0293 48.7415 20.8346C48.7458 19.9697 48.5076 19.1206 48.0534 18.3811C47.9731 18.2661 47.8527 18.1844 47.7152 18.1516C47.5777 18.1189 47.4328 18.1374 47.3083 18.2036C47.1812 18.2685 46.7473 18.4633 46.4317 18.7186C46.2739 18.8484 46.2126 19.0301 46.2827 19.2681C46.6991 20.6442 46.607 22.2107 46.0416 23.5348C45.5201 24.7464 44.512 25.8412 43.3243 26.2091C42.5441 26.4557 41.7289 26.3346 41.2249 25.6465C40.5368 24.7032 40.8129 23.0631 41.8429 21.6957C42.7545 20.4928 44.0694 19.7312 45.3798 19.2379C45.5332 19.1816 45.5683 19.0821 45.5245 18.9523L45.2922 18.3205C45.1695 18.0003 44.832 17.9527 44.4244 17.9959C43.4689 18.1041 42.6099 18.4287 41.7596 18.8744C39.5375 20.0514 38.4199 22.3275 37.9334 23.5478C37.7681 24.0044 37.5331 24.4335 37.2365 24.82C36.8859 25.2527 36.4476 25.6508 35.6412 26.3475C35.5973 26.3871 35.5672 26.4395 35.5554 26.497C35.5436 26.5546 35.5506 26.6144 35.5754 26.6678C35.7404 26.9645 35.9486 27.2356 36.1934 27.4726C36.3249 27.5375 36.4783 27.4467 36.5397 27.4034C37.1007 27.0269 37.7756 26.4298 38.1043 26.023C38.2183 25.8845 38.341 25.9451 38.4024 26.1528C38.5509 26.6932 38.8316 27.1893 39.2199 27.5975C39.6081 28.0057 40.0919 28.3135 40.6288 28.4939C42.6669 29.1732 44.7838 28.1909 46.3791 26.4774C47.3915 25.3955 47.7597 24.6902 48.1498 24.2185C48.8072 23.4093 50.1089 21.6049 51.656 20.4495C52.2258 20.0211 52.8964 19.6965 53.2339 19.9129C53.5056 20.086 53.5932 20.4884 53.1593 21.2717C51.5815 24.119 49.2586 27.4596 48.8291 28.2732C48.7502 28.4116 48.8204 28.5241 48.9694 28.5241H51.3624C51.4895 28.5155 51.5465 28.4592 51.6078 28.3727C52.8175 26.499 53.957 24.7162 55.1798 22.8771C55.25 22.7646 55.3113 22.8511 55.3113 22.8987C55.342 23.3228 55.4428 23.907 55.7058 24.2921C55.8952 24.6065 56.165 24.8663 56.488 25.0455C56.811 25.2247 57.176 25.317 57.5466 25.3133C58.0606 25.3203 58.5697 25.2138 59.0367 25.0018C59.5451 24.8157 59.9571 24.5734 60.2639 24.3527C60.448 24.2272 60.4831 24.4392 60.4743 24.4695C60.1938 25.9538 60.54 27.7149 62.039 28.4506C63.8271 29.316 65.795 28.0957 66.9302 26.988C67.0398 26.8798 67.1581 26.8928 67.1712 27.1221C67.1975 27.5462 67.3904 28.0438 67.741 28.3987C68.6877 29.3377 70.603 28.9612 72.5227 27.4943C73.7586 26.5552 75.0472 25.2268 76.213 23.8204C76.2568 23.7685 76.2919 23.6819 76.2042 23.5911C76.0289 23.4093 75.7703 23.2016 75.595 23.0372C75.5161 22.9679 75.3978 22.9896 75.3321 23.0372C74.1356 24.1623 73.0574 25.4388 71.5059 26.499C70.9799 26.8581 70.1472 27.1481 69.7703 26.6504C69.6212 26.4557 69.6388 26.1874 69.7834 25.8283C70.2348 24.7162 77.4095 13.9283 77.7864 13.2922" fill="white"/>
<path d="M44.0208 14.5989C44.0515 14.759 44.1172 14.7893 44.1917 14.772C44.6006 14.6621 44.9555 14.41 45.191 14.0623C45.4102 13.7507 45.511 13.3007 45.2962 13.119C45.1034 12.9588 44.7922 13.0021 44.5599 13.2055C44.3625 13.3773 44.2104 13.5939 44.1165 13.8366C44.0226 14.0793 43.9898 14.3409 44.0208 14.5989ZM25.7313 28.485C23.0577 28.5023 20.6998 26.871 20.428 24.0409C20.2716 22.5693 20.7007 21.0952 21.6246 19.93C22.4222 18.9045 23.7721 18.0563 24.9117 17.8486C25.2798 17.7794 25.7795 17.8227 25.9855 18.065C26.3098 18.4371 26.2178 18.8439 25.8934 19.0083C25.0212 19.4454 23.9737 20.1983 23.4566 21.2239C23.2177 21.6597 23.1041 22.1518 23.1281 22.6468C23.152 23.1418 23.3126 23.6209 23.5924 24.0323C24.6662 25.6334 27.6641 25.6766 30.4472 23.1236C31.1397 22.4961 31.7533 21.8946 32.38 21.1849C33.6072 19.8002 34.0148 19.2939 35.6452 17.0611C35.6627 17.0351 35.6715 17.0005 35.6627 16.9875C35.6496 16.9572 35.6277 16.9529 35.5795 16.9442C34.4925 16.9789 33.5415 17.2991 32.6211 17.9785C32.3581 18.1689 31.9724 18.1429 31.8059 17.8919C31.6218 17.6063 31.7533 17.2342 32.0601 17.0265C33.5415 16.0052 35.1631 15.8235 36.8198 15.5465C36.8198 15.5465 36.9338 15.5465 37.0302 15.4297C37.7095 14.5643 38.2223 13.7897 38.9455 12.9199C39.6774 12.0371 40.6197 11.2236 41.3385 10.6135C42.3466 9.76101 42.9908 9.47541 43.6439 9.12057C43.8192 9.03403 43.622 8.92585 43.5694 8.92585C39.9097 8.24647 36.1098 7.36804 32.4764 8.6965C29.9607 9.62253 28.8562 11.5958 29.3865 12.9112C29.7635 13.8459 31.0082 13.9931 32.174 13.4305C33.1382 12.9675 34.0367 12.2102 34.6722 11.2409C35.0229 10.7 35.7723 11.0895 35.3691 12.0285C34.3041 14.495 32.2748 16.4509 29.8029 16.5332C27.6948 16.6024 26.3361 15.0705 26.3405 13.1839C26.3492 9.46242 30.548 7.0132 34.9527 6.64539C40.2647 6.21266 45.2962 7.61036 50.5687 8.24214C54.6097 8.72247 58.4841 8.73545 62.547 7.80942C63.0291 7.70989 63.3622 8.0128 63.3359 8.48879C63.2921 9.18115 62.7486 9.84755 61.4118 10.5659C59.891 11.3924 58.3 11.6434 56.6346 11.6563C52.6199 11.691 48.877 10.1418 44.9982 9.31097C45.0025 9.47973 45.0508 9.67879 44.9105 9.78697C42.7629 11.3448 40.8213 12.9329 39.5196 15.1614C39.4758 15.2133 39.5021 15.2653 39.5766 15.2566C40.7074 15.2004 41.7198 15.1701 42.7761 15.0835C42.9558 15.0705 42.9645 15.0273 42.9514 14.8931C42.8944 14.4816 42.9388 14.0627 43.0807 13.6717C43.2226 13.2808 43.4579 12.9294 43.7666 12.6473C44.4678 12.0285 45.3444 11.9549 45.9273 12.405C46.5847 12.9112 46.5278 13.8286 46.1684 14.5123C46.0064 14.8133 45.7848 15.0791 45.5168 15.294C45.2488 15.5088 44.9398 15.6683 44.6081 15.7629C44.6081 15.7629 44.4854 15.7889 44.5029 15.897C44.5248 16.0701 45.3225 16.5072 45.3882 16.624C45.454 16.7365 45.4189 16.9053 45.3006 17.0351C45.2537 17.0915 45.1949 17.1369 45.1282 17.1683C45.0616 17.1997 44.9887 17.2163 44.9149 17.2169C44.779 17.2169 44.6957 17.1693 44.5204 17.0741C44.1026 16.8536 43.7308 16.557 43.4247 16.2C43.3195 16.0745 43.2669 16.0701 43.0171 16.0874C41.8776 16.1524 40.0982 16.3211 38.8973 16.4682C38.6036 16.5029 38.5598 16.5591 38.5028 16.6586C36.5831 19.7829 34.532 23.1538 32.2792 25.4127C29.8686 27.8316 27.8613 28.4677 25.7313 28.485Z" fill="white"/>
<path d="M49.0001 3.32651C23.9785 3.32651 3.6992 10.1506 3.6992 18.5065C3.6992 26.8581 23.9785 33.6865 49.0001 33.6865C74.0217 33.6865 94.301 26.8581 94.301 18.5065C94.301 10.1549 74.0173 3.32651 49.0001 3.32651ZM49.0001 35.0626C23.0669 35.0626 2.04688 27.65 2.04688 18.5065C2.04688 9.35869 23.0669 1.95044 49.0001 1.95044C74.9289 1.95044 95.9489 9.35869 95.9489 18.5065C95.9489 27.65 74.9289 35.0626 49.0001 35.0626Z" fill="white"/>
</g>
<defs>
<clipPath id="clip0">
<rect width="98" height="37" fill="white"/>
</clipPath>
</defs>
</svg>
