<svg width="105" height="23" viewBox="0 0 105 23" fill="none" xmlns="http://www.w3.org/2000/svg">
<path d="M0 6.68954C0 3.20008 2.14776 0.842773 6.20731 0.842773H32.5604V5.7919H6.99922C6.2833 5.7919 5.64737 6.16389 5.64737 7.25561V15.5082C5.64737 16.511 6.06332 17.1579 7.37118 17.1579H25.3732C26.3211 17.1579 27.053 16.8183 27.053 15.5567V13.624H16.5142V8.90937H32.5604V16.4948C32.5604 20.1258 29.9487 22.1111 25.8451 22.1111H6.2513C2.28774 22.1111 0.00399955 19.9398 0.00399955 16.3088L0 6.68954ZM56.0697 22.1111L65.0727 5.98194V22.1111H70.7161V0.842773H62.0371L53.454 16.1188L44.871 0.842773H36.196V22.1111H41.8393V5.98194L50.8423 22.1111H56.0697ZM104.016 22.1111H80.419C76.4475 22.1111 74.1717 19.9398 74.1717 16.3088V6.68954C74.1717 3.20008 76.3115 0.842773 80.371 0.842773H104.02V6.18816H81.1669C80.451 6.18816 79.8111 6.5561 79.8111 7.64782V15.1119C79.8111 16.1188 80.231 16.7617 81.5389 16.7617H104.02V22.1111" fill="#372120"/>
</svg>
