<svg width="54" height="47" viewBox="0 0 54 47" fill="none" xmlns="http://www.w3.org/2000/svg">
<path d="M27.002 30.7621C26.421 30.7621 25.836 30.794 25.375 30.8578C23.1862 31.1609 22.365 31.747 21.5941 33.2424C21.0943 34.2073 20.091 37.1302 19.2891 40.8545C17.7191 40.798 16.15 40.7182 14.5823 40.6152C14.0361 35.3836 12.7771 13.6079 12.7422 6.13533C13.6293 6.07552 14.5707 5.99577 15.6089 5.9519C16.2365 9.40508 18.3284 21.4394 20.0406 25.2235C20.7999 26.9102 22.1248 27.4844 23.748 27.612C25.9172 27.7277 28.0908 27.7277 30.26 27.612C31.8793 27.4844 33.2042 26.9102 33.9635 25.2235C35.6719 21.4394 37.7638 9.40907 38.3952 5.9519C39.4334 5.99975 40.3787 6.07552 41.2619 6.13533C41.227 13.6119 39.9719 35.3836 39.4179 40.6152C38.0156 40.7109 36.3963 40.7907 34.7111 40.8545C33.9092 37.1262 32.9059 34.2073 32.4061 33.2424C31.6391 31.747 30.8178 31.1609 28.6252 30.8578C28.0867 30.7904 27.5445 30.7585 27.002 30.7621Z" fill="#372120"/>
<path d="M27.0022 46.5127C22.6363 46.5127 12.6571 46.2376 9.37199 45.6035C5.8816 44.9297 3.52627 42.8681 2.37184 39.4788C1.38399 36.5878 0.655699 31.2207 0.206325 23.5248C-0.0725965 18.7039 -0.0687216 14.3735 0.217948 10.6652C0.713808 4.35297 3.54564 1.83687 9.46885 1.14703C13.428 0.692456 22.276 0.473145 27.0022 0.473145C31.7283 0.473145 40.5764 0.692456 44.5277 1.15102C50.4509 1.84085 53.2867 4.35696 53.7786 10.6692C54.0692 14.3775 54.0731 18.7079 53.7941 23.5288C53.3486 31.2247 52.6203 36.5918 51.6325 39.4828C50.4742 42.8721 48.1227 44.9297 44.6246 45.6075C41.3511 46.2376 31.3681 46.5127 27.0022 46.5127ZM44.1287 42.8602C45.2447 42.6439 46.2871 42.1335 47.1542 41.3787C48.0212 40.6239 48.6833 39.6505 49.0757 38.5537C49.6955 36.7314 50.5517 32.6203 51.0901 23.3534C51.3652 18.6601 51.3613 14.4652 51.0785 10.8845C50.7454 6.60192 48.6457 4.43272 44.2256 3.91834C40.3749 3.47174 31.6702 3.26439 27.0022 3.26439C22.3341 3.26439 13.6294 3.47174 9.77488 3.92232C5.35862 4.43671 3.25897 6.6059 2.92194 10.8885C2.64302 14.4692 2.64301 18.6641 2.91419 23.3573C3.45266 32.6243 4.3088 36.7314 4.92862 38.5577C5.5252 40.3042 7.19099 42.3418 9.87174 42.8641C12.6338 43.3945 21.7104 43.7254 27.0022 43.7254C32.2939 43.7254 41.3666 43.3945 44.1287 42.8602Z" fill="#372120"/>
</svg>
