<svg width="86" height="46" viewBox="0 0 86 46" fill="none" xmlns="http://www.w3.org/2000/svg">
<path d="M74.2981 7.49002C80.0847 10.7296 86.6336 16.4258 85.9508 24.0195C85.1568 31.0577 78.7445 35.9707 73.015 38.9309C56.284 47.1128 32.7881 47.363 15.5139 40.2144C9.67648 37.7286 3.12444 33.4557 0.66941 27.0349C-1.21077 21.758 1.07911 16.2601 4.9284 12.6013C12.9795 5.11799 23.2411 2.55099 33.8012 1.06928C45.2633 -0.353941 57.3257 0.903563 67.5873 4.50386C69.8803 5.37144 72.1416 6.32025 74.2981 7.49002Z" fill="#372120"/>
<path d="M52.0026 28.0974C52.66 31.558 50.8846 34.4337 49.411 37.2282C47.7722 39.8244 45.0726 42.0567 41.8236 41.7253C34.7044 41.6245 27.6332 40.5157 20.8113 38.4304C20.4974 38.3473 20.2247 38.1482 20.0459 37.8715C19.9093 37.4816 20.1031 37.1177 20.3762 36.8675C26.4074 31.8699 33.5851 29.5531 40.6802 27.1226C43.3258 26.3395 46.1397 25.5012 49.1124 25.8943C50.3384 26.0601 51.5675 26.9244 52.0026 28.0974ZM76.8641 13.2998C80.2465 16.1462 83.305 20.0292 82.2665 24.7181C80.5737 31.6425 73.2054 35.3305 67.3394 37.6733C64.1475 38.7619 60.9271 39.8797 57.4335 40.2143C57.2143 40.1883 56.8586 40.2436 56.8046 39.9089L56.8872 39.519C61.8513 33.7936 65.618 27.3728 68.921 20.8676C70.4486 17.9366 71.8683 14.9212 73.1768 11.961C73.3389 11.7715 73.5455 11.6272 73.7771 11.5419C75.0093 11.6523 75.8827 12.6271 76.8641 13.2998ZM29.2435 5.92694L29.1324 6.34611C21.9546 14.6938 17.2351 24.3834 12.7602 34.0145C11.8868 34.8529 11.0388 33.7351 10.248 33.3744C6.26532 30.6937 2.66376 26.3655 3.7023 21.2282C5.36651 14.528 12.1059 10.9505 17.7306 8.52319C21.1076 7.18938 24.6102 6.2159 28.1827 5.61825C28.5607 5.6215 29.053 5.56626 29.2435 5.92694ZM64.8557 7.26893C65.2654 7.48989 65.7577 7.57437 66.0023 7.99354C66.2214 8.46795 65.7831 8.77664 65.5386 9.08208C59.8885 13.6052 53.4222 16.117 46.8162 18.3233C43.4592 19.1584 40.0736 20.6694 36.3355 19.831C35.8847 19.7132 35.4617 19.5041 35.0913 19.2161C34.7209 18.9281 34.4107 18.5671 34.179 18.1543C33.2516 15.5288 34.5061 12.7929 35.5986 10.5053C37.0469 7.62961 39.6099 4.25026 43.1575 4.19502C50.8021 4.14303 58.0083 5.31281 64.8557 7.26893Z" fill="white"/>
</svg>
