<svg width="50" height="50" viewBox="0 0 50 50" fill="none" xmlns="http://www.w3.org/2000/svg">
<g clip-path="url(#clip0)">
<path d="M49.8764 48.7344L35.8197 27.3079V16.6905H36.6524C38.0322 16.6905 39.1507 15.572 39.1507 14.1922C39.1507 12.8125 38.0322 11.694 36.6524 11.694H35.8197V7.23881L42.8231 4.12435C43.2427 3.93605 43.4302 3.44327 43.2419 3.02368C43.147 2.81195 42.968 2.64957 42.7481 2.57545L35.2534 0.0772208C34.9993 -0.00657398 34.7206 0.0368328 34.5039 0.193805C34.2856 0.349216 34.1554 0.600288 34.1542 0.868327V11.694H32.4887V9.19576C32.4887 7.81601 31.3702 6.69753 29.9905 6.69753H27.8587C28.1614 6.19455 28.3225 5.61913 28.325 5.03204V2.53381C28.325 1.15406 27.2065 0.0355837 25.8268 0.0355837H21.663C21.2032 0.0369369 20.8314 0.410943 20.8328 0.870825C20.8332 1.00011 20.8637 1.12752 20.9219 1.24306L21.663 2.73367V5.03204C21.6655 5.61913 21.8267 6.19455 22.1294 6.69753H19.1648V2.62542C19.1959 1.36974 18.316 0.274997 17.083 0.0355837C15.7226 -0.194462 14.4332 0.721764 14.2031 2.08226C14.1779 2.23142 14.1663 2.38257 14.1683 2.53381V8.36302C14.1683 10.2027 15.6597 11.694 17.4993 11.694H20.8303V26.6834H19.9976C19.7354 26.6834 19.4886 26.8068 19.3314 27.0165L14.5847 33.3453H11.6701C11.4036 33.3446 11.1529 33.4716 10.9956 33.6867L0.169929 48.6761C-0.0163977 48.9314 -0.0422128 49.27 0.103309 49.5505C0.246749 49.8273 0.532693 50.0008 0.844451 50.0002H49.1436C49.4488 50.001 49.7299 49.8349 49.8764 49.5672C50.0251 49.3095 50.0251 48.9921 49.8764 48.7344ZM35.8197 2.02584L40.1833 3.47481L35.8197 5.41511V2.02584ZM35.8197 13.3595H36.6524C37.1123 13.3595 37.4852 13.7323 37.4852 14.1922C37.4852 14.6521 37.1123 15.025 36.6524 15.025H35.8197V13.3595ZM25.8268 1.70107C26.2866 1.70107 26.6595 2.07393 26.6595 2.53381V5.03204C26.6595 5.95191 25.9139 6.69753 24.994 6.69753C24.0741 6.69753 23.3285 5.95191 23.3285 5.03204V2.53381C23.3277 2.40349 23.2964 2.27514 23.2369 2.15908L23.0121 1.70107H25.8268ZM17.4993 10.0285C16.5795 10.0285 15.8338 9.28289 15.8338 8.36302V2.53381C15.8338 2.29034 15.9403 2.05915 16.1253 1.90093C16.3135 1.73313 16.5677 1.65964 16.8165 1.70107C17.235 1.80756 17.5206 2.19405 17.4993 2.62542V7.53027C17.4993 7.99016 17.8722 8.36302 18.3321 8.36302H29.9905C30.4504 8.36302 30.8232 8.73588 30.8232 9.19576V12.5267C30.8232 12.9866 31.1961 13.3595 31.656 13.3595H34.1542V15.025H30.8232C29.9033 15.025 29.1577 14.2793 29.1577 13.3595V10.0285H27.4922V15.025H22.4958V10.8612C22.4958 10.4014 22.1229 10.0285 21.663 10.0285H17.4993ZM34.1542 16.6905V24.7681L34.021 24.5599C33.8662 24.3247 33.6029 24.1838 33.3214 24.1851H31.656C31.2828 24.1657 30.9423 24.3972 30.8232 24.7514L30.207 26.6001L29.1577 25.5092V16.2408C29.6637 16.5343 30.2382 16.6894 30.8232 16.6905H34.1542ZM24.1613 18.3559V25.8506C24.16 26.0719 24.2469 26.2847 24.4028 26.4419L24.6526 26.6834H22.4958V16.6905H27.4922V25.8506C27.491 26.0719 27.5779 26.2847 27.7337 26.4419L27.9836 26.6834H27.0009L25.8268 25.5092V18.3559H24.1613ZM2.50994 48.3347L7.92277 40.84H12.9192L16.0087 45.4617L17.3911 44.5457L14.0601 39.5493C13.9005 39.3065 13.6259 39.1645 13.3356 39.1745H9.08861L12.0948 35.0108H20.3473L23.4368 40.4236C23.5862 40.6823 23.8626 40.8412 24.1613 40.84H28.6664L32.7552 48.3347H2.50994ZM34.6788 48.3347L31.9557 43.3382H35.4033L37.6517 46.3361L38.9841 45.3368L36.4859 42.0059C36.3286 41.7962 36.0818 41.6728 35.8197 41.6728H31.0148L29.8905 39.6076C29.7441 39.3398 29.4629 39.1737 29.1577 39.1745H24.6443L21.5548 33.7617C21.4054 33.503 21.1289 33.3442 20.8303 33.3453H16.6666L20.4139 28.3489H30.8232C31.1964 28.3683 31.5369 28.1368 31.656 27.7826L32.2555 25.8506H32.8718L47.603 48.3347H34.6788Z" fill="#EDC939"/>
<path d="M9.17287 11.6939C8.77493 11.6937 8.37927 11.7526 7.9987 11.8688C7.13973 11.2139 6.08922 10.8599 5.00916 10.8612C2.24965 10.8612 0.0126953 13.0981 0.0126953 15.8576V16.6904H13.3366V15.8576C13.3366 13.5581 11.4725 11.6939 9.17287 11.6939ZM1.78644 15.0249C2.16596 13.5551 3.49117 12.5278 5.00916 12.5267C5.84783 12.5317 6.65372 12.8528 7.26589 13.426L7.66561 13.7924L8.16525 13.5759C9.43415 13.034 10.9021 13.6233 11.444 14.8922C11.4626 14.9359 11.4801 14.9802 11.4962 15.0249H1.78644Z" fill="#EDC939"/>
<path d="M45.8138 18.3558C45.6326 18.3576 45.4517 18.3716 45.2725 18.3975C44.454 17.8273 43.4803 17.5221 42.4828 17.5231C39.7233 17.5231 37.4863 19.7601 37.4863 22.5196V23.3523H49.9775V22.5196C49.9775 20.22 48.1134 18.3558 45.8138 18.3558ZM39.2601 21.6868C39.7317 19.9087 41.5555 18.8495 43.3336 19.3211C43.7759 19.4384 44.1893 19.6456 44.548 19.9297L44.8644 20.1796L45.2558 20.088C45.439 20.0467 45.626 20.0245 45.8138 20.0213C46.8729 20.0208 47.8173 20.6882 48.1704 21.6868H39.2601Z" fill="#EDC939"/>
<path d="M11.6715 20.8542C9.37201 20.8542 7.50781 22.7184 7.50781 25.0179V25.8506H15.8352V25.0179C15.8352 22.7184 13.9712 20.8542 11.6715 20.8542ZM9.31487 24.1851C9.77277 22.8835 11.1991 22.1997 12.5005 22.6575C13.215 22.9087 13.7768 23.4706 14.0282 24.1851H9.31487Z" fill="#EDC939"/>
</g>
<defs>
<clipPath id="clip0">
<rect width="50" height="50" fill="white"/>
</clipPath>
</defs>
</svg>
