<svg width="85" height="44" viewBox="0 0 85 44" fill="none" xmlns="http://www.w3.org/2000/svg">
<path fill-rule="evenodd" clip-rule="evenodd" d="M42.4378 0.519531C19.0004 0.519531 0 10.3674 0 22.5141C0 32.3489 12.4579 40.6763 29.6417 43.4897L42.4378 12.0691L55.2339 43.4891C72.419 40.6756 84.875 32.3482 84.875 22.5134C84.875 10.3674 65.8759 0.519531 42.4378 0.519531ZM61.9255 33.5529L42.4378 10.2881L23.0234 33.4873C13.4629 30.744 7.16124 25.9416 7.16124 20.0378C7.16124 10.6734 22.8351 1.89313 42.4005 1.89313C61.9672 1.89313 78.0159 10.6734 78.0159 20.0378C78.0159 25.987 71.6137 30.82 61.9255 33.5529Z" fill="#372120"/>
</svg>
