<svg width="112" height="44" viewBox="0 0 112 44" fill="none" xmlns="http://www.w3.org/2000/svg">
<path fill-rule="evenodd" clip-rule="evenodd" d="M108.604 34.6172H104.522C102.253 34.6753 101.125 33.4248 100.628 33.0131C86.3756 22.508 59.794 10.5826 35.8368 2.32731C32.7371 1.34852 28.1479 0.676087 25.2878 0.676087C22.4277 0.676087 21.0564 0.431783 18.0765 0.553543C15.218 0.670589 12.2358 1.1647 10.5674 1.65409C8.89891 2.14349 5.14432 3.1215 4.96542 5.44593C3.53499 6.54648 2.07538 8.0453 1.47879 8.65646C0.882203 9.26761 0.674128 10.4601 1.86577 11.8057C3.05741 13.1506 4.48861 14.4962 5.44146 13.8851C6.39431 13.2739 6.15629 12.5394 6.51409 11.8057C6.87189 11.072 8.0643 9.97146 9.25594 11.3163C10.4476 12.6612 9.70281 13.2425 9.01715 13.8851C8.38217 14.4797 7.10991 15.5976 7.94452 16.6981C8.77837 17.7987 9.73275 18.1663 11.0434 17.1875C12.0055 16.4695 14.5784 14.9613 16.0695 14.1121C16.4365 13.8843 16.8841 13.3344 18.5157 14.0092C20.2717 14.6981 22.9852 15.9338 24.1246 16.5756L21.6515 17.7374C20.3401 18.5936 19.2075 21.01 19.0885 21.8654C18.9695 23.2103 19.4463 25.138 21.2338 26.7272H25.1074L27.4315 23.303L27.2526 22.9361C30.2325 22.5685 38.3383 25.0767 42.1528 23.5473C44.7741 24.6478 49.4232 25.2598 58.005 24.4035C59.5544 24.281 61.6697 23.9448 62.9804 25.6879C64.3363 27.4884 70.9956 34.6777 73.1416 35.4114C75.2876 36.1459 84.2272 36.1459 86.5514 36.5732C88.5592 36.9432 89.3524 36.5732 91.0216 38.53L94.5965 41.7712C95.0134 42.2606 96.2657 43.2087 97.6962 43.2087H100.169C101.6 43.0862 102.374 42.0469 102.732 40.8238H108.81C110.717 40.8238 111.315 39.0807 111.315 37.4907C111.315 35.9008 110.272 34.6172 108.604 34.6172ZM108.634 39.358H102.883C102.554 36.7578 100.677 36.3933 99.6042 36.3305C98.5607 36.27 97.7568 35.8419 97.28 35.5355C97.28 35.5355 93.4064 31.988 92.333 30.8262C91.2611 29.6643 90.5456 29.2975 89.532 29.2975H86.017C85.3014 29.2975 84.466 29.3588 83.2744 27.7075C82.0835 26.0555 79.0438 23.4263 78.2683 22.8764C77.4943 22.3258 77.3146 22.9377 77.7915 23.3658C78.2084 23.794 80.1755 25.0783 81.3679 27.0964C82.5603 29.1145 83.5723 30.1545 84.4077 30.5826C85.1217 31.072 87.3277 31.01 88.6383 31.01C89.9505 31.01 90.4273 31.1325 91.4999 32.2331C92.5726 33.3336 95.0165 35.5355 95.6722 36.27C96.3279 37.0037 97.4597 37.6761 99.069 37.6761C100.678 37.6761 101.453 38.7154 101.393 39.6942C101.338 40.6117 100.856 41.651 100.141 41.651H97.5779C97.161 41.651 96.2074 41.0398 95.9686 40.7948C95.1347 40.1836 93.0486 38.3486 91.857 37.0642C90.6653 35.7798 89.4737 35.4122 87.8651 35.1687C86.2558 34.9236 79.5797 34.618 78.0909 34.5575C76.6006 34.4962 74.3355 34.4962 72.727 33.4562C71.1445 32.4334 64.86 25.3839 63.7874 24.0995C62.5351 22.6313 60.6593 22.8152 59.5268 22.7845C48.3812 24.0383 44.4178 22.8764 43.2262 22.1419L44.3886 20.0932C47.8753 20.9188 52.6426 20.1239 53.2991 19.9408C53.9548 19.757 53.8342 19.0846 53.1793 19.2064C51.6905 19.3902 45.1941 18.5952 44.5368 18.4727C44.4785 16.7602 40.7231 11.6227 40.2463 10.6447C39.7695 9.66589 40.1879 9.05473 40.6632 8.62661C41.14 8.19849 41.14 7.6486 40.7231 7.6486C38.9955 7.83163 38.5779 9.23855 38.9356 10.951C39.2927 12.6635 42.9874 17.6164 42.7494 18.779C42.5106 19.9408 41.3788 21.5614 40.7231 22.2339C37.5052 23.0288 30.3538 21.072 26.2414 21.1938C24.6621 21.2409 24.93 22.6313 25.4967 23.1207L24.1852 25.0775H22.308C21.2944 24.7712 20.9374 23.1812 20.7577 22.3862C20.8038 21.8701 21.1747 20.3682 22.4262 19.2676C24.9592 17.0398 35.0613 18.0445 35.955 18.0445C36.8495 18.0445 36.6107 17.6164 36.0748 17.4326C35.1212 17.1883 32.2304 16.3933 30.532 16.332C30.145 15.1702 29.4294 14.3446 29.1906 13.2126C28.9871 12.248 29.2505 11.0414 29.5776 10.3077C30.0244 8.90076 29.0708 9.11522 28.7437 9.5127C28.2961 10.1851 27.1644 11.684 27.1045 12.7845C27.0446 13.8851 28.1471 15.8426 28.4458 16.332C27.9091 16.332 26.9555 16.3933 26.5386 16.3933C23.6478 13.8858 18.4628 12.204 17.45 11.8371C17.6281 11.3477 17.8969 10.8277 18.0758 10.2166C18.2547 9.6054 18.6125 9.72716 19.0294 9.84971C19.6252 10.1553 22.4262 11.1953 23.3207 11.5622C24.2144 11.929 25.049 11.7452 25.466 11.3784C25.8829 11.0115 27.2534 9.78843 27.8492 8.93219C28.4451 8.07594 27.4914 8.01467 27.1336 8.44279C26.0011 9.51271 24.3327 10.094 23.4389 9.91098C22.5444 9.72716 19.6843 8.25976 18.9695 7.77036C17.3602 7.03666 16.7644 8.19848 16.5855 8.87091C15.542 11.9644 13.8444 13.4216 12.622 14.3446C12.2642 14.6502 10.6511 15.6227 10.1781 15.9346C9.76116 16.2095 9.49243 15.7507 9.67133 15.4758C10.0291 15.2001 11.3398 13.8238 11.4296 13.3352C11.7275 11.5622 11.2507 10.9809 10.5359 10.1859C9.82028 9.39095 8.89661 9.116 7.82398 9.116C6.75135 9.116 5.73784 10.1254 5.38004 10.4915C5.02224 10.8583 5.46987 11.592 4.87328 12.021C4.27746 12.4483 3.5918 11.3171 3.23477 10.8277C4.00949 9.91098 3.94961 9.48207 3.77071 8.62582C4.02715 8.42865 4.43179 7.94475 4.9324 7.49463C5.35009 7.73973 6.18393 7.86227 6.72063 7.73973C9.61144 7.49463 10.1174 7.83163 10.7731 8.13721C11.4288 8.44279 11.6369 8.01467 11.3981 7.58654C11.0787 7.01231 10.8323 6.79157 10.2364 6.17963L11.3981 5.81278C12.7096 5.81278 14.021 6.30218 14.6767 6.36345C15.3324 6.42472 15.7493 6.42472 15.9881 5.93532C16.405 4.65095 17.1797 4.40665 17.7164 4.22283C18.2531 4.03901 18.6701 3.5504 18.1933 3.42786H17.0008C15.9881 3.48913 15.9282 3.85598 15.6303 4.22283C15.3316 4.58968 14.9746 5.01781 14.1999 4.89526C13.4252 4.77272 11.7859 4.49777 10.8323 4.55905C10.0867 4.60696 9.01485 5.38466 6.92871 5.32338C7.76332 3.18277 15.5113 2.32731 17.0008 2.26525C26.8941 1.83713 28.9802 2.32652 33.5095 3.30531C38.0388 4.2841 44.8509 6.55905 57.9021 11.8796C70.3068 16.9369 94.3808 29.3509 99.9443 34.4177C100.259 34.739 102.077 36.054 104.133 36.054H108.423C109.497 36.054 109.794 37.0634 109.794 37.5528C109.794 38.0422 109.527 39.358 108.634 39.358Z" fill="#372120" stroke="#372120"/>
</svg>
