<svg width="92" height="39" viewBox="0 0 92 39" fill="none" xmlns="http://www.w3.org/2000/svg">
<path d="M76.7581 20.7773C76.6832 24.9993 77.5754 27.2356 80.981 27.2356C84.3809 27.2356 84.8688 23.4262 84.8688 20.5273C84.8688 17.6266 84.2236 14.8106 80.6516 14.8106C78.4603 14.8106 76.8423 16.5509 76.7581 20.7773ZM69.8684 38.4204V9.84127H76.8423V11.0005C76.8423 12.5468 77.4526 11.9092 77.9443 11.3066C78.0266 11.2059 79.5808 9.2616 83.0812 9.2616C86.571 9.2616 92 11.746 92 20.5274C92 27.3198 88.7611 32.2892 83.1674 32.2892C80.085 32.2892 78.303 31.0489 77.8955 30.5484C77.4875 30.0547 76.9209 29.9686 76.9209 30.5484V38.4203H69.8684V38.4204ZM15.9664 0.565674H23.5049V20.7773C23.5049 24.2539 22.0443 31.5456 11.5899 31.5456C1.1343 31.5456 0 24.7494 0 20.9418V17.2147H7.29526V20.8576C7.29526 23.094 8.75464 25.1639 11.5088 25.1639C14.2642 25.1639 15.9664 23.5907 15.9664 20.9418V0.565674ZM39.2704 17.7114C39.2704 15.6383 38.1379 13.6506 35.5441 13.6506C33.0315 13.6506 32.1392 15.4712 32.1392 17.7114H39.2704ZM34.8172 9.01294C40.7373 9.01294 45.9224 11.3315 45.9224 22.0175H31.9014C31.9014 25.4138 33.2779 26.8224 35.7094 26.8224C38.1416 26.8224 38.9515 24.8329 38.9515 24.8329H45.8431C45.8431 27.8988 41.7088 32.0405 35.4661 31.9583C28.3355 31.9583 24.8496 26.5737 24.8496 21.0235C24.8496 15.4712 27.9275 9.01294 34.8172 9.01294ZM61.6847 17.7114C61.6847 15.6383 60.5509 13.6506 57.9571 13.6506C55.4458 13.6506 54.5516 15.4712 54.5516 17.7114H61.6847ZM57.2315 9.01294C63.151 9.01294 68.3347 11.3315 68.3347 22.0175H54.3144C54.3144 25.4138 55.6921 26.8224 58.1256 26.8224C60.5552 26.8224 61.3664 24.8329 61.3664 24.8329H68.2579C68.2579 27.8988 64.123 32.0405 57.8823 31.9583C50.7479 31.9583 47.2619 26.5737 47.2619 21.0235C47.2619 15.4712 50.3436 9.01294 57.2315 9.01294ZM87.384 34.9942C87.384 33.8623 88.2856 32.9428 89.3968 32.9428C90.5044 32.9428 91.4042 33.8623 91.4042 34.9942C91.4042 36.1241 90.5044 37.0494 89.3968 37.0494C88.2856 37.0494 87.384 36.1241 87.384 34.9942ZM87.1519 34.9942C87.1519 36.2606 88.1552 37.2886 89.3968 37.2886C90.6304 37.2886 91.6393 36.2606 91.6393 34.9942C91.6393 33.7277 90.6304 32.6998 89.3968 32.6998C88.1552 32.6998 87.1519 33.7277 87.1519 34.9942Z" fill="#372120"/>
</svg>
