<svg width="89" height="47" viewBox="0 0 89 47" fill="none" xmlns="http://www.w3.org/2000/svg">
<path fill-rule="evenodd" clip-rule="evenodd" d="M28.88 22.8998L35.2088 13.423C35.4513 13.0507 35.1601 12.629 34.6511 12.629L29.7652 12.5918C29.4013 12.5918 28.6739 13.0632 28.3587 13.4723L26.1525 16.4122L23.0852 20.5179L23.1093 13.4225C23.1093 12.939 22.6121 12.6285 22.3091 12.6285H16.7071C16.3191 12.6285 15.9675 12.7775 15.9557 13.5091C15.9439 14.2286 16.8163 14.3775 16.8163 14.5757V33.5418C16.8163 33.9016 17.3012 34.447 17.641 34.447L22.4419 34.4224C22.7817 34.4098 23.0724 33.9137 23.0724 33.5786L23.0842 25.6772L26.1515 29.5595L29.4008 33.6531C29.6673 33.9756 30.1886 34.4224 30.7345 34.4224L35.948 34.3851C36.4452 34.3851 36.3965 33.7648 36.2755 33.6037C33.7969 30.0455 31.3317 26.4775 28.88 22.8998ZM46.8717 12.6295H41.3311C40.6766 12.6295 40.531 13.0265 40.4218 13.4481C40.5428 14.217 41.3311 14.4278 41.3311 14.4403V33.5796C41.3311 34.0882 41.6346 34.4233 42.059 34.4233L44.0473 34.4108L47.0054 34.3861C47.5508 34.3861 47.6959 34.0515 47.6959 33.5796V13.423C47.6959 12.9395 47.2961 12.6295 46.8717 12.6295Z" fill="#372120"/>
<path fill-rule="evenodd" clip-rule="evenodd" d="M63.7362 2.85458C57.844 1.32901 51.2127 0.473145 44.2047 0.473145C44.156 0.473145 44.1073 0.485234 44.0473 0.485234C37.6943 0.485234 31.632 1.20474 26.152 2.48225C10.7663 6.07978 0 14.1177 0 23.4084C0 32.6996 10.7663 40.737 26.1515 44.334C31.6315 45.612 37.6934 46.3311 44.0468 46.3311H44.2042C51.2122 46.3311 57.8435 45.4878 63.7357 43.9622C78.3453 40.2162 88.4207 32.4017 88.4207 23.4084C88.4216 14.4155 78.3463 6.60056 63.7362 2.85458ZM63.7362 38.9634C57.9291 40.3405 51.2727 41.1219 44.2047 41.1219C44.156 41.1219 44.1073 41.1098 44.0473 41.1098C37.6456 41.1098 31.5715 40.4522 26.152 39.2985C12.5849 36.4083 3.22516 30.3675 3.22516 23.4089C3.22516 16.4503 12.5849 10.4094 26.152 7.51928C31.5715 6.36556 37.6456 5.70794 44.0473 5.69585H44.2047C51.2727 5.69585 57.9291 6.47725 63.7362 7.85389C76.5026 10.8557 85.196 16.7104 85.196 23.4084C85.196 30.1064 76.5026 35.9616 63.7362 38.9634Z" fill="#372120"/>
<path fill-rule="evenodd" clip-rule="evenodd" d="M67.5551 13.4478C67.3741 13.0257 67.0584 12.6292 66.6458 12.6292H59.1533C58.8867 12.6292 58.5228 12.8525 58.5228 13.2244C58.511 14.3157 59.6269 14.279 59.5659 14.44L53.2493 33.5049C53.1406 33.8274 53.419 34.4226 53.807 34.4226L58.2081 34.3854C58.5956 34.3854 59.1415 34.0508 59.2993 33.5668L61.3845 27.1667C62.0878 25.0328 62.7915 22.8995 63.482 20.7661C63.5189 20.6795 63.6281 20.6297 63.7368 20.6297C63.9064 20.6297 64.0884 20.6916 64.1243 20.8159L68.2106 33.6417C68.2957 33.927 68.8652 34.3859 69.1677 34.3859L73.7507 34.4231C74.0172 34.4231 74.3329 33.8772 74.2483 33.6291L67.5551 13.4478Z" fill="#372120"/>
</svg>
