<svg width="55" height="43" viewBox="0 0 55 43" fill="none" xmlns="http://www.w3.org/2000/svg">
<path fill-rule="evenodd" clip-rule="evenodd" d="M28.6034 3.89769C25.7235 7.61057 17.5093 19.5975 16.5732 21.1496C14.7709 24.1235 14.6117 25.5646 14.5586 26.5247C14.5064 27.4672 14.5064 29.1664 15.9724 30.552C18.4285 32.8423 21.8729 32.4724 24.9297 32.4724H50.1056C51.1832 32.4724 51.5017 32.1394 52.0847 31.3272C54.0985 28.1129 55 24.622 55 21.5002C55 14.8135 50.8487 6.39144 40.336 2.58608L39.1514 4.35928C47.4903 8.49591 50.9363 13.908 50.9363 21.4809C50.9894 23.5131 50.4763 25.7108 49.2041 27.743H24.7166C23.2505 27.743 23.0382 26.0068 23.5682 25.0273C25.6676 21.1212 28.0105 17.3638 30.5817 13.7794C33.0555 10.3254 35.4931 7.09265 38.0553 3.71272C38.7445 2.77105 38.2845 1.86553 36.9069 1.57042C34.0447 0.942356 31.0594 0.499268 27.4373 0.499268C7.3505 0.499268 0 12.5602 0 21.5002C0 31.1978 7.40277 42.4465 27.4904 42.4465C38.6383 42.4465 45.9357 38.6958 50.1579 33.8756H45.8996C42.2066 37.4405 35.8638 39.9721 27.4904 39.9721C10.4765 39.9721 4.20522 29.9786 4.20522 21.3707C4.32827 13.6869 11.0595 3.08466 27.915 2.73406C28.5511 2.71556 29.0465 3.32512 28.6034 3.89769Z" fill="#372120"/>
</svg>
