<svg width="21" height="71" viewBox="0 0 21 71" fill="none" xmlns="http://www.w3.org/2000/svg">
<path d="M20.5927 35.6915C19.9088 35.847 19.187 35.9637 18.3891 36.1192C18.1992 38.9179 18.0471 41.7167 17.8951 44.5155C17.4772 52.3676 17.0593 60.2196 16.6794 68.0717C16.6414 69.1212 16.3374 69.6266 15.2735 69.7432C13.9437 69.8987 12.652 70.1708 11.3602 70.4429C10.9423 70.5207 10.6003 70.7539 10.5623 70.7927C8.39663 70.3263 6.38302 69.8987 4.17936 69.4322C3.57145 58.3926 2.96343 47.3143 2.35553 36.1581C1.51965 35.9637 0.797877 35.8082 0 35.6527C0.151977 35.4972 0.265959 35.3028 0.379941 35.3417C2.35564 35.5361 2.46951 34.2922 2.5455 32.7373C3.03942 22.7862 3.60941 12.8739 4.14132 2.92272C4.17932 1.91206 4.48331 1.52334 5.50915 1.36786C7.1049 1.09575 8.66266 0.551549 10.2584 0.201703C10.5244 0.162831 10.8283 0.551549 11.1322 0.59042C12.538 0.901394 13.9058 1.25124 15.3116 1.36786C16.4514 1.48447 16.6414 2.0286 16.7174 3.03926C17.2493 13.107 17.8571 23.2137 18.275 33.2815C18.313 35.1862 19.3009 35.3028 20.5927 35.6915ZM10.4104 68.6548C11.0563 68.577 11.5881 68.5382 12.0821 68.4216C14.8556 67.9163 14.8557 67.9162 15.0077 65.0397C15.3876 58.1983 15.7675 51.3957 16.1095 44.5543C16.2615 41.8722 16.3755 39.1511 16.5275 36.3135C14.7797 36.5467 13.2218 36.78 11.6261 37.0132C11.1701 47.6252 10.7903 58.0817 10.4104 68.6548ZM16.5275 34.7976C15.9575 24.1078 15.3876 13.6513 14.8177 3.19481C13.26 2.92271 11.9301 2.68948 10.4104 2.41737C10.8283 13.0682 11.2083 23.5247 11.5882 34.1367C13.184 34.331 14.7037 34.5254 16.5275 34.7976ZM9.99238 68.616C9.61244 57.9651 9.19447 47.5086 8.81453 36.9743C7.21878 36.7411 5.81295 36.5467 4.2172 36.3135C4.78711 46.9255 5.35703 57.382 5.92694 67.8773C7.29473 68.1494 8.54861 68.3439 9.99238 68.616ZM9.61244 2.53401C8.96654 2.65062 8.24462 2.80607 7.48473 2.88381C6.19293 2.96156 5.85102 3.58349 5.81303 4.90513C5.58506 11.008 5.16709 17.1109 4.82514 23.2138C4.63517 26.9843 4.44517 30.7548 4.2172 34.7197C5.39502 34.5642 6.45893 34.4088 7.52277 34.3699C8.47262 34.3311 8.81457 33.9424 8.85256 32.9317C9.08053 26.3235 9.38444 19.7541 9.57441 13.1459C9.68839 9.64746 9.61244 6.14908 9.61244 2.53401Z" fill="#372120"/>
</svg>
