<svg width="60" height="48" viewBox="0 0 60 48" fill="none" xmlns="http://www.w3.org/2000/svg">
<path d="M29.068 47.4231C25.8436 47.0029 21.9371 46.7028 18.1547 45.9224C3.76911 42.981 -1.19138 32.7161 0.23478 20.4102C1.53692 9.54496 7.55171 3.72218 18.6509 1.50111C26.2158 0.000393987 33.8424 -0.0595762 41.4073 1.5612C55.8549 4.56264 61.2495 14.2873 59.7614 27.0734C58.4592 38.4789 51.2664 45.022 39.2991 46.4627C36.1987 46.8829 32.9744 47.0629 29.068 47.4231ZM7.42763 19.6298C7.42763 22.151 7.30362 24.0119 7.42763 25.8728C7.92369 34.637 12.1401 40.0396 20.387 42.0205C27.2078 43.6413 34.0905 43.5212 40.8493 41.7204C50.0883 39.2592 54.4909 29.4145 51.8246 19.2697C43.3917 22.2711 33.9045 23.4717 29.9981 34.1568C25.9676 23.6518 16.5426 22.6312 7.42763 19.6298ZM49.8403 12.3664C43.8256 4.74272 35.5787 4.32249 27.2698 4.68266C20.5111 4.98281 14.0004 6.30347 9.96998 12.9667C17.4728 16.5084 25.9676 18.0691 29.936 26.7733C33.7804 17.6489 42.3994 16.0882 49.8403 12.3664Z" fill="#372120"/>
<path d="M7.42816 19.6299C16.5432 22.6313 25.9682 23.6519 29.9986 34.1569C33.905 23.4718 43.3922 22.2712 51.8251 19.2698C54.4914 29.4146 50.0888 39.2593 40.8498 41.7204C34.0911 43.5213 27.2083 43.6413 20.3875 42.0206C12.1406 40.0396 7.98623 34.6371 7.42816 25.8729C7.30415 24.012 7.42816 22.1511 7.42816 19.6299Z" fill="white"/>
<path d="M49.8398 12.3665C42.399 16.0883 33.78 17.6491 29.9976 26.7734C25.9671 18.0693 17.4721 16.5085 10.0312 12.9668C14.0617 6.30365 20.5727 4.98298 27.3314 4.68284C35.5783 4.32267 43.8251 4.7429 49.8398 12.3665Z" fill="white"/>
</svg>
