<svg width="54" height="56" viewBox="0 0 54 56" fill="none" xmlns="http://www.w3.org/2000/svg">
<path fill-rule="evenodd" clip-rule="evenodd" d="M27 55.5156C12.0885 55.5156 0 43.1476 0 27.892C0 12.636 12.0885 0.268311 27 0.268311C41.9119 0.268311 54 12.636 54 27.892C54 43.1476 41.9119 55.5156 27 55.5156Z" fill="#372120"/>
<path fill-rule="evenodd" clip-rule="evenodd" d="M26.9255 31.6196L6.58529 40.2315C10.8709 47.5978 18.637 52.0926 27.0121 52.0483C35.3658 52.0261 43.1103 47.4861 47.3523 40.0982L26.9255 31.6196ZM23.4022 25.5374L26.6435 3.57349C18.2898 3.6846 10.589 8.29109 6.41224 15.7014C2.21386 23.1118 2.17024 32.2355 6.28195 39.6905L23.4022 25.5374ZM30.3407 25.8287L47.6565 39.5365C51.6812 32.0818 51.594 23.0246 47.3959 15.6589C45.3434 12.0372 42.4093 9.02089 38.8792 6.90336C35.3491 4.78582 31.3431 3.63925 27.2513 3.57524L30.3407 25.8287Z" fill="white"/>
</svg>
