<svg width="118" height="52" viewBox="0 0 118 52" fill="none" xmlns="http://www.w3.org/2000/svg">
<path d="M80.7971 13.1225C76.3101 5.22017 68.0036 0.314453 59.0643 0.314453C50.1249 0.314453 41.8184 5.22017 37.3314 13.1225H0L0.327728 13.5971C0.442781 13.7643 12.1172 30.5002 30.4996 42.7941L30.5728 42.8409H40.2966C45.0765 48.3236 51.9048 51.4695 59.066 51.4695C66.2272 51.4695 73.0572 48.3236 77.8371 42.8409H87.4284L87.5016 42.7941C105.884 30.5002 117.555 13.7625 117.672 13.5971L118 13.1225H80.7971Z" fill="#372120"/>
<path d="M113.862 17.6006H82.4939C82.982 19.0297 83.3428 20.5182 83.5729 22.0497H84.3992C84.1873 20.9067 83.8978 19.7804 83.5328 18.6792C83.5328 18.6792 110.032 18.0374 113.804 17.6743C111.512 20.4929 109.106 23.2114 106.594 25.823H83.8867L83.8902 25.8913C83.8902 27.3905 83.7368 28.8484 83.491 30.2739H84.6747C84.8193 29.1917 84.9257 28.0952 84.9257 26.9716L84.9239 26.9033C84.9239 26.9033 103.212 26.2921 106.502 25.9182C103.721 28.8105 100.812 31.5686 97.7838 34.1837H82.4939C81.9654 35.7311 81.2911 37.2213 80.4804 38.6328H82.072C82.6246 37.5471 83.1336 36.4343 83.5328 35.2623C83.5328 35.2623 94.8377 34.6942 97.6321 34.3131C94.3253 37.1643 90.8584 39.812 87.2494 42.2425H77.5814L77.4943 42.3413C75.1795 45.0237 72.3404 47.1704 69.1636 48.6404C65.9867 50.1104 62.5442 50.8704 59.0622 50.8704C55.5802 50.8704 52.1376 50.1104 48.9608 48.6404C45.784 47.1704 42.9449 45.0237 40.6301 42.3413L40.5429 42.2425H30.7425C27.1322 39.8102 23.6636 37.1613 20.3545 34.3095C23.2605 34.687 35.5782 35.2623 35.5782 35.2623C36.1186 36.4505 36.8926 37.5615 37.5882 38.6328H37.6439C36.8324 37.2215 36.1574 35.7313 35.6288 34.1837H20.2099C17.1815 31.5691 14.2724 28.811 11.4919 25.9182C14.8529 26.2975 33.9134 26.9501 33.9134 26.9716C33.9134 28.0322 34.2969 29.0713 34.6072 30.0923C34.3669 28.7055 34.242 27.3 34.2342 25.8913L34.2377 25.823H11.403C8.87413 23.1919 6.45243 20.4536 4.14422 17.615L34.9315 18.6792C34.7641 19.747 34.6717 20.8903 34.5427 22.0497H34.5532C34.7833 20.5182 35.1424 19.0297 35.6305 17.6006H4.13376C3.10229 16.3356 2.10421 15.042 1.14062 13.7213H37.6527L37.7363 13.5721C42.0979 5.76504 50.2702 0.915039 59.0613 0.915039C67.8524 0.915039 76.0247 5.76504 80.388 13.5721L80.4717 13.7213H116.855C115.892 15.043 114.894 16.3366 113.862 17.6006Z" fill="white"/>
<path d="M59.0635 3.85059C47.1084 3.85059 37.416 13.7177 37.416 25.8929C37.416 38.0646 47.1084 47.9353 59.0635 47.9353C71.0185 47.9353 80.7126 38.0646 80.7126 25.8929C80.7126 13.7177 71.0185 3.85059 59.0635 3.85059Z" fill="#372120"/>
<path d="M59.0636 46.5852C47.8389 46.5852 38.7393 37.3203 38.7393 25.891C38.7393 14.4617 47.8389 5.19678 59.0636 5.19678C70.2883 5.19678 79.3862 14.4617 79.3862 25.891C79.3862 37.3203 70.2883 46.5852 59.0636 46.5852Z" fill="white"/>
<path d="M78.1971 25.8929C78.1971 36.6517 69.6309 45.3738 59.0634 45.3738C48.4959 45.3738 39.9297 36.6517 39.9297 25.8929C39.9297 15.1342 48.4959 6.41211 59.0634 6.41211C69.6309 6.41211 78.1971 15.1342 78.1971 25.8929Z" fill="#372120"/>
<path d="M72.9014 20.5718H75.4604V31.5464H72.9014V20.5718ZM56.447 20.5718H59.0061V31.5464H56.447V20.5718ZM68.3655 20.5718V27.2284L63.6849 20.5718H61.2723V31.5464H63.6849V24.8897L68.3655 31.5464H70.7799V20.5718H68.3655ZM50.9959 20.5718L48.1858 27.419L45.3758 20.5718H42.4541V31.5464H44.8685V25.3301L47.3665 31.5248L47.3752 31.5464H48.8988L48.9093 31.5266L51.6496 24.7315V31.5464H54.0623V20.5718H50.9959Z" fill="white"/>
</svg>
