<svg width="71" height="62" viewBox="0 0 71 62" fill="none" xmlns="http://www.w3.org/2000/svg">
<path d="M33.8558 0.230957C34.7962 0.230957 35.7367 0.230957 36.6771 0.230957C37.9624 0.391317 39.2477 0.487564 40.5016 0.74414C51.7869 2.86089 60.0314 9.08286 64.5455 19.9873C65.3919 22.0079 66.1129 23.3228 68.464 23.2266C69.6239 23.1624 70.2508 24.0926 70.3135 25.2792C70.3762 25.9848 70.4388 26.6904 70.5329 27.428C70.5329 29.8334 70.5329 32.2388 70.5329 34.6442C70.6269 37.8194 69.1536 39.3268 66.0502 39.2305C65.7994 39.2305 65.4546 39.7437 65.3292 40.0965C61.7556 50.3274 54.7963 56.9342 44.7336 60.1735C42.6646 60.847 40.4703 61.1357 38.3386 61.5847C36.301 61.5847 34.2634 61.5847 32.2258 61.5847C31.881 61.5206 31.536 61.3923 31.1912 61.3602C18.9342 59.4359 10.2194 52.8611 5.64263 40.9303C5.07837 39.455 4.35749 38.9098 2.94683 38.7174C0.846517 38.4287 0.407646 37.8835 0.282254 35.6705C0.18821 34.3556 0.0940439 33.0406 0 31.7257C0 30.2824 0 28.8392 0 27.3959C0.0626959 26.9148 0.188149 26.4659 0.219497 25.9848C0.376237 24.0605 1.0032 23.2908 2.88407 22.8738C3.2916 22.7776 3.73047 22.6493 4.13799 22.6172C4.89034 22.5852 5.1725 22.1682 5.42329 21.4947C9.31043 10.6544 16.9279 4.04753 27.7429 1.19312C29.7179 0.712037 31.8182 0.551677 33.8558 0.230957ZM13.6677 40.0965C16.0188 47.7296 25.9875 54.1119 35.3292 54.0798C44.6709 54.0477 54.6082 47.6655 56.8653 40.1606C42.4766 41.3473 28.1191 40.9303 13.6677 40.0965ZM13.8872 21.2381C21.0973 21.1419 28.2446 20.8854 35.392 20.9495C42.5393 21.0136 49.6865 21.3664 56.7712 21.5909C54.5768 15.7538 47.2414 8.40932 36.7399 7.92824C26.6458 7.44716 16.8966 13.2201 13.8872 21.2381ZM58.2446 31.5012C58.1505 31.5332 58.0564 31.5653 57.9937 31.5974C57.3354 30.2183 56.6771 28.8071 55.9875 27.4601C55.8307 27.1393 55.5173 26.7225 55.2351 26.7225C54.0753 26.6262 52.9154 26.6904 51.7869 26.6904C51.7869 29.2882 51.7869 31.7256 51.7869 34.1952C52.5079 34.1952 53.1348 34.1952 53.9185 34.1952C53.9185 32.5595 53.9185 30.988 53.9185 29.4165C54.9216 30.7314 55.674 32.1106 56.4577 33.4576C56.6458 33.7783 56.9593 34.1952 57.2414 34.1952C58.2759 34.2914 59.3103 34.2273 60.3762 34.2273C60.3762 31.6294 60.3762 29.224 60.3762 26.7545C59.6552 26.7545 58.9656 26.7545 58.2446 26.7545C58.2446 28.3902 58.2446 29.9296 58.2446 31.5012ZM18.4953 34.2273C18.4953 31.6615 18.4953 29.192 18.4953 26.7545C17.8683 26.7545 17.3041 26.7545 16.6458 26.7545C16.6458 28.4543 16.6458 30.0579 16.6458 31.6615C15.7367 30.2504 15.0158 28.7751 14.2321 27.3639C14.0754 27.0753 13.6991 26.6904 13.417 26.6904C12.3512 26.5941 11.2539 26.6583 10.1881 26.6583C10.1881 29.2561 10.1881 31.7257 10.1881 34.1311C10.9404 34.1311 11.5675 34.1311 12.3198 34.1311C12.3198 32.5275 12.3198 31.0521 12.3198 29.5447C13.2603 30.8276 13.9812 32.1747 14.7649 33.4896C14.953 33.8103 15.3605 34.1631 15.674 34.2273C16.5831 34.2914 17.5235 34.2273 18.4953 34.2273ZM24.5769 34.2273C26.5205 34.2273 28.3386 34.2273 30.1568 34.2273C31.5988 34.2273 32.2258 33.5217 32.2258 31.9822C32.2258 30.4749 31.5674 29.8013 30.094 29.8013C28.9969 29.8013 27.9311 29.8013 26.7399 29.8013C26.7712 29.3202 26.8026 28.9675 26.8653 28.5506C28.4953 28.5506 30.0628 28.5506 31.5988 28.5506C31.5988 27.877 31.5988 27.3318 31.5988 26.7225C29.7806 26.7225 28.0252 26.6583 26.2697 26.7545C25.0785 26.8186 24.2948 28.0374 24.3888 29.3844C24.4828 30.6993 25.2038 31.405 26.5204 31.437C27.4295 31.4691 28.3386 31.4049 29.2163 31.4691C29.5612 31.5011 29.8747 31.7898 30.1882 31.9822C29.8747 32.1747 29.5612 32.4954 29.2477 32.4954C27.7117 32.5596 26.1443 32.5275 24.5455 32.5275C24.5769 33.0727 24.5769 33.5538 24.5769 34.2273ZM33.2288 34.2273C35.3291 34.2273 37.3355 34.2594 39.3105 34.2273C40.3449 34.1952 40.9091 33.2972 40.9405 31.9822C40.9405 30.6994 40.3135 29.8655 39.2477 29.8013C38.2759 29.7372 37.3041 29.7693 36.301 29.8013C35.4546 29.8334 35.2664 29.4486 35.5799 28.5506C37.116 28.5506 38.6834 28.5506 40.2821 28.5506C40.2821 27.845 40.2821 27.2997 40.2821 26.6583C38.4953 26.6583 36.7713 26.5941 35.0785 26.6904C33.8246 26.7545 33.0094 27.9091 33.1035 29.3524C33.1662 30.6673 33.8873 31.3729 35.2352 31.4049C36.1757 31.437 37.1161 31.437 38.0565 31.4049C38.8089 31.3729 39.0282 31.6936 38.7147 32.5275C36.8965 32.5275 35.0784 32.5275 33.2602 32.5275C33.2289 33.1047 33.2288 33.5538 33.2288 34.2273ZM41.1913 34.1632C42.3512 34.1632 43.4797 34.7404 43.9499 33.201C43.9812 33.0406 44.326 32.9123 44.5141 32.9123C45.4859 32.8802 46.4578 32.8802 47.4609 32.9123C47.6804 32.9123 48.0564 33.0727 48.1191 33.2651C48.6834 34.7084 49.7805 34.1632 50.9404 34.1632C49.9059 31.9823 48.9655 29.9296 47.9937 27.9091C47.7743 27.4601 47.4923 26.8186 47.1474 26.7545C46.3324 26.5941 45.4232 26.7224 44.5768 26.7545C44.4828 26.7545 44.3574 26.947 44.2947 27.1073C43.2916 29.3844 42.2885 31.6936 41.1913 34.1632ZM22.79 34.1632C22.79 31.6615 22.79 29.192 22.79 26.7545C21.9436 26.7545 21.1912 26.7545 20.4075 26.7545C20.4075 29.2561 20.4075 31.6936 20.4075 34.1632C21.2226 34.1632 21.975 34.1632 22.79 34.1632Z" fill="#372120"/>
<path d="M33.8557 0.230957C31.8181 0.551676 29.7178 0.712067 27.7429 1.22522C16.9279 4.07962 9.31041 10.6864 5.42328 21.5267C5.17249 22.2002 4.92168 22.6492 4.13798 22.6492C3.69911 22.6492 3.29159 22.8096 2.88407 22.9058C1.03454 23.3227 0.407584 24.0604 0.219496 26.0168C0.188149 26.4978 0.0626958 26.9469 0 27.428C0 18.3516 0 9.30732 0 0.230957C11.2852 0.230957 22.5705 0.230957 33.8557 0.230957Z" fill="white"/>
<path d="M70.5325 27.396C70.4698 26.6904 70.3758 25.9848 70.3131 25.2472C70.2191 24.0285 69.6235 23.1305 68.4636 23.1946C66.1125 23.2908 65.3915 21.9759 64.5451 19.9553C60.0311 9.05086 51.7865 2.86098 40.5013 0.712157C39.2473 0.487653 37.962 0.359334 36.6768 0.198975C47.962 0.198975 59.2472 0.198975 70.5325 0.198975C70.5325 9.27533 70.5325 18.3517 70.5325 27.396Z" fill="white"/>
<path d="M0 31.7258C0.094044 33.0408 0.18821 34.3558 0.282254 35.6707C0.438994 37.8837 0.846518 38.4289 2.94683 38.7176C4.35749 38.91 5.07837 39.4552 5.64264 40.9305C10.2194 52.8613 18.9342 59.4361 31.1913 61.3605C31.5361 61.4246 31.881 61.5208 32.2258 61.585C21.5048 61.585 10.7837 61.585 0 61.585C0 51.6105 0 41.6682 0 31.7258Z" fill="white"/>
<path d="M38.3071 61.5527C40.4388 61.1037 42.6331 60.8151 44.7021 60.1416C54.7648 56.9023 61.6927 50.2955 65.2977 40.0645C65.4231 39.7117 65.7993 39.1986 66.0187 39.1986C69.1535 39.2948 70.6269 37.7874 70.5015 34.6123C70.5015 43.5924 70.5015 52.5726 70.5015 61.5527C59.7805 61.5527 49.0595 61.5527 38.3071 61.5527Z" fill="white"/>
<path d="M13.6675 40.0967C28.1189 40.9305 42.4764 41.3795 56.8337 40.1608C54.5767 47.6655 44.6393 54.0476 35.2976 54.0797C25.9872 54.1118 16.0186 47.7296 13.6675 40.0967Z" fill="white"/>
<path d="M13.8872 21.2382C16.8966 13.2203 26.6458 7.4473 36.7399 7.92838C47.2415 8.40946 54.5769 15.754 56.7712 21.5911C49.6552 21.3666 42.5393 21.0138 35.392 20.9496C28.276 20.8855 21.0973 21.142 13.8872 21.2382Z" fill="white"/>
<path d="M58.2443 31.5013C58.2443 29.9619 58.2443 28.3904 58.2443 26.7547C58.9653 26.7547 59.6549 26.7547 60.3759 26.7547C60.3759 29.2242 60.3759 31.6296 60.3759 34.2274C59.31 34.2274 58.2756 34.2915 57.2411 34.1953C56.959 34.1632 56.6455 33.7463 56.4574 33.4577C55.6737 32.1107 54.9213 30.7316 53.9182 29.4167C53.9182 30.9882 53.9182 32.5596 53.9182 34.1953C53.1345 34.1953 52.5076 34.1953 51.7866 34.1953C51.7866 31.7258 51.7866 29.3205 51.7866 26.6906C52.9151 26.6906 54.075 26.6586 55.2349 26.7227C55.517 26.7548 55.8304 27.1717 55.9872 27.4603C56.6768 28.8394 57.3351 30.2185 57.9934 31.5975C58.0561 31.5334 58.1502 31.5334 58.2443 31.5013Z" fill="white"/>
<path d="M18.4957 34.2274C17.5239 34.2274 16.5835 34.2915 15.6744 34.1953C15.3296 34.1632 14.9534 33.7784 14.7653 33.4577C13.9816 32.1428 13.292 30.7957 12.3202 29.5129C12.3202 31.0202 12.3202 32.4955 12.3202 34.0991C11.5679 34.0991 10.9408 34.0991 10.1885 34.0991C10.1885 31.6938 10.1885 29.2242 10.1885 26.6264C11.2543 26.6264 12.3516 26.5623 13.4174 26.6585C13.6996 26.6905 14.0758 27.0434 14.2325 27.332C15.0162 28.7431 15.7371 30.2184 16.6462 31.6295C16.6462 30.026 16.6462 28.4225 16.6462 26.7227C17.3045 26.7227 17.8688 26.7227 18.4957 26.7227C18.4957 29.1922 18.4957 31.6296 18.4957 34.2274Z" fill="white"/>
<path d="M24.577 34.2275C24.577 33.554 24.577 33.073 24.577 32.4636C26.1757 32.4636 27.7118 32.4956 29.2792 32.4315C29.5926 32.4315 29.9061 32.0788 30.2196 31.9184C29.9061 31.758 29.5926 31.4373 29.2478 31.4052C28.3387 31.3411 27.4609 31.4053 26.5518 31.3732C25.2352 31.3411 24.5143 30.6355 24.4202 29.3206C24.3262 27.9736 25.1099 26.7869 26.3011 26.6907C28.0566 26.5945 29.8121 26.6586 31.6302 26.6586C31.6302 27.3001 31.6302 27.8453 31.6302 28.4868C30.0942 28.4868 28.5268 28.4868 26.8967 28.4868C26.8653 28.9358 26.834 29.2564 26.7713 29.7375C27.9625 29.7375 29.0283 29.7375 30.1255 29.7375C31.5988 29.7375 32.2572 30.411 32.2572 31.9184C32.2572 33.4578 31.6302 34.1634 30.1882 34.1634C28.3387 34.2276 26.5205 34.2275 24.577 34.2275Z" fill="white"/>
<path d="M33.229 34.2276C33.229 33.5861 33.229 33.1051 33.229 32.4957C35.0472 32.4957 36.8655 32.4957 38.6837 32.4957C38.9972 31.6618 38.7777 31.3411 38.0254 31.3732C37.0849 31.4053 36.1445 31.4053 35.2041 31.3732C33.8874 31.3411 33.1663 30.6355 33.0723 29.3205C32.9783 27.9093 33.7934 26.7226 35.0473 26.6585C36.7715 26.5623 38.4643 26.6264 40.2511 26.6264C40.2511 27.2679 40.2511 27.8131 40.2511 28.5187C38.6837 28.5187 37.085 28.5187 35.5489 28.5187C35.2668 29.4167 35.4235 29.8016 36.2699 29.7696C37.2416 29.7375 38.2134 29.7375 39.2165 29.7696C40.2824 29.8337 40.9093 30.6675 40.9093 31.9504C40.9093 33.2654 40.3138 34.1634 39.2793 34.1955C37.3357 34.2596 35.3294 34.2276 33.229 34.2276Z" fill="white"/>
<path d="M41.1914 34.1636C42.2572 31.726 43.2917 29.3846 44.3262 27.0753C44.3889 26.947 44.5143 26.7225 44.6083 26.7225C45.4547 26.6904 46.3637 26.5621 47.1788 26.7225C47.5236 26.7867 47.8058 27.4602 48.0252 27.8771C48.997 29.8978 49.9688 31.9505 50.9719 34.1315C49.812 34.1315 48.7149 34.6768 48.1506 33.2334C48.0879 33.041 47.7117 32.9127 47.4923 32.8807C46.5205 32.8486 45.5487 32.8486 44.5456 32.8807C44.3575 32.8807 44.0127 33.0089 43.9814 33.1693C43.4798 34.7409 42.3513 34.1316 41.1914 34.1636ZM46.0504 28.6469C45.6428 29.4809 45.2979 30.1223 44.8904 30.8921C45.7055 30.8921 46.3325 30.8921 47.1475 30.8921C46.7714 30.1544 46.4892 29.545 46.0504 28.6469Z" fill="white"/>
<path d="M22.7897 34.1631C21.9746 34.1631 21.2223 34.1631 20.4072 34.1631C20.4072 31.6615 20.4072 29.2562 20.4072 26.7546C21.1909 26.7546 21.9433 26.7546 22.7897 26.7546C22.7897 29.192 22.7897 31.6295 22.7897 34.1631Z" fill="white"/>
<path d="M46.0505 28.647C46.4581 29.5132 46.7715 30.1549 47.1477 30.8928C46.3327 30.8928 45.7057 30.8928 44.8906 30.8928C45.2981 30.1228 45.643 29.4811 46.0505 28.647Z" fill="#372120"/>
</svg>
