<svg width="51" height="64" viewBox="0 0 51 64" fill="none" xmlns="http://www.w3.org/2000/svg">
<path fill-rule="evenodd" clip-rule="evenodd" d="M39.5032 54.9952C35.7905 58.4608 32.5943 60.3286 25.8612 63.947C19.5938 61.0266 15.503 58.1478 11.9555 55.3126C7.05312 51.4023 3.5316 45.0528 3.22608 41.1588L0.780273 4.09529C17.3493 -0.317323 34.973 -0.216927 50.2181 4.39164L47.7366 41.0798C47.4206 44.4025 44.5192 50.8627 39.5032 54.9952ZM44.8979 39.8643L47.1374 7.10235C34.017 2.82187 18.3016 2.75839 3.8216 6.65246L6.10724 39.8433C6.34531 43.2926 8.77055 48.5681 13.4197 52.6105C16.2176 55.0445 21.6993 59.1294 25.7479 60.6954C30.4129 58.2776 34.653 55.2722 38.0147 52.3042C42.1827 48.4146 44.6443 43.5786 44.8979 39.8643ZM37.4765 51.4389C34.2545 54.2859 29.9162 57.4765 25.7479 59.5134C22.0247 58.3335 16.5224 53.984 13.8746 51.6455C9.25647 47.5607 7.37921 43.2861 7.09493 39.243L4.85044 7.56051C18.6374 3.85171 33.6862 3.85171 46.1901 7.9307L43.9719 39.1902C43.6512 43.3489 41.7635 47.3223 37.4765 51.4389ZM5.88097 8.17634L6.32575 13.6367C19.4869 10.2664 33.2742 10.6052 44.7182 14.1501L45.2095 8.59449C33.3511 4.86948 18.9544 4.66834 5.88097 8.17634ZM38.6096 10.2029L35.6411 9.70023L35.5271 11.1289L34.5603 10.9805L34.7876 7.19239L35.7756 7.34074L35.6721 8.79563L38.6821 9.29278L38.7802 7.83789L39.7885 8.03351L39.4836 11.8324L38.501 11.6474L38.6096 10.2029ZM24.2837 8.91741C23.9216 8.91741 23.6319 8.81702 23.4407 8.48892C23.2755 8.21912 23.2755 7.34074 23.4407 7.0499C23.6218 6.71146 23.9475 6.61623 24.2166 6.61623L28.4261 6.62141L28.4358 7.55258L24.4544 7.54706C24.2578 7.54706 24.2527 7.99694 24.4699 7.99694H27.6086C27.9762 7.99694 28.3016 8.2243 28.4048 8.52066C28.5188 8.83806 28.4982 9.55774 28.4048 9.8541C28.3171 10.1505 27.986 10.3143 27.5722 10.3143H23.4201L23.4147 9.36178H27.1119C27.1666 9.35737 27.2176 9.33205 27.2548 9.29087C27.292 9.24969 27.3126 9.19567 27.3126 9.1396C27.3126 9.08352 27.292 9.02951 27.2548 8.98832C27.2176 8.94714 27.1666 8.92182 27.1119 8.91741H24.2837ZM21.8484 9.29588C21.8475 9.2485 21.8374 9.20176 21.8187 9.15842C21.7999 9.11508 21.7729 9.076 21.7392 9.04348C21.7055 9.01097 21.6658 8.98566 21.6224 8.96904C21.579 8.95243 21.5328 8.94485 21.4865 8.94674L18.6937 9.15305L18.7504 10.571L17.8453 10.6662L17.6538 6.9257L21.8119 6.60795C22.3498 6.56586 22.6651 6.97849 22.6907 7.32246C22.7217 7.72991 22.7373 8.25363 22.4267 8.47063C22.6857 8.66625 22.7528 8.95743 22.7578 9.36489L22.7683 10.3226L21.8632 10.3595L21.8484 9.29588ZM21.2552 8.08181C21.612 8.06077 21.581 7.49427 21.2552 7.52636L18.597 7.73267L18.628 8.25121L21.2552 8.08181ZM12.547 7.58501C13.4002 7.37869 15.1479 7.09303 16.0635 7.02403C16.4823 6.99263 16.808 7.21482 16.865 7.54809C16.9996 8.31538 17.0825 9.10889 16.9895 10.1725C16.9635 10.4792 16.7048 10.7228 16.3636 10.797C15.1901 11.0616 13.8709 11.2044 12.8933 11.2997C12.6451 11.3262 12.2523 11.1251 12.1848 10.8077C12.0142 10.0349 11.9522 8.95571 12.0038 8.21499C12.0247 7.93933 12.2728 7.64849 12.547 7.58501ZM15.8686 9.86342C15.9873 9.8372 16.0392 9.70471 16.0496 9.60949C16.0911 9.31831 16.0547 8.55654 15.9873 8.30227C15.9667 8.20187 15.8841 8.13839 15.6979 8.15426C15.1911 8.186 13.8513 8.38197 13.1897 8.52997C13.014 8.57241 12.9466 8.67798 12.9365 8.7732C12.9055 9.02195 12.9776 9.70437 13.04 10.0856C13.0555 10.1756 13.1695 10.2388 13.2572 10.234C14.1515 10.1598 15.2066 10.0118 15.8686 9.86342ZM30.5336 7.74267C30.3367 7.73715 30.2025 7.85894 30.1873 7.96486C30.1404 8.27709 30.1246 8.67902 30.1246 9.20308C30.1246 9.27173 30.2386 9.46218 30.3367 9.47805C31.2266 9.60501 32.9535 9.76406 33.8946 9.82754L33.838 10.8063C32.6018 10.7484 31.3089 10.5472 29.9698 10.4516C29.5304 10.4199 29.2097 10.1767 29.1939 9.74301C29.1683 9.02851 29.2097 7.94899 29.3335 7.3197C29.4164 6.93329 29.7779 6.7325 30.187 6.74285C31.4225 6.79046 32.4052 6.90155 34.0241 7.12374L33.9621 8.09768C33.176 8.02834 31.6869 7.79028 30.5336 7.74267ZM10.2968 8.02661C11.5482 7.72508 11.7394 10 10.6947 10.2647L7.77813 11.0109L7.91774 12.4817L7.00254 12.7307L6.67679 8.89947L10.2968 8.02661ZM10.2816 9.51669C10.5814 9.44803 10.5402 8.89809 10.2192 8.96675L7.58693 9.61743L7.64931 10.1839L10.2816 9.51669ZM41.2294 10.7701L41.1673 11.3839L44.0579 12.1298L43.9804 12.9871L40.1017 12.0507L40.4383 8.19325L44.3425 9.16168L44.2549 10.0611L41.3484 9.34142L41.2918 9.99245L44.1773 10.7118L44.1048 11.4736L41.2294 10.7701ZM13.2548 21.7485C12.8515 22.2988 12.4792 23.1454 12.3035 23.8647C12.2411 24.1083 12.2411 24.198 12.283 24.3567C12.6654 24.1821 13.1621 24.0127 13.4514 23.9175C13.5654 23.6588 13.6271 23.3621 13.7256 23.124C13.8803 22.7538 13.9788 22.5948 14.1393 22.3357C14.5996 21.6056 15.5718 20.886 16.2904 20.9018C16.0523 21.1133 15.556 21.6426 15.3597 21.96C15.1995 22.2246 15.0495 22.5102 14.9355 22.8066C14.8374 23.0716 14.8063 23.2668 14.7804 23.4839C15.1527 23.3728 15.5199 23.2934 15.7576 23.2775C15.9181 23.1875 15.9697 23.0126 16.0577 22.8487C16.3316 22.325 16.8694 21.7374 17.211 21.5473C17.4848 21.3938 17.8885 21.2458 18.1778 21.341C17.8676 21.5791 17.5418 21.96 17.3971 22.1877C17.2471 22.4309 17.004 22.9022 17.0144 23.124C17.268 23.1454 17.6298 23.124 17.7748 23.0871L17.759 22.3567L25.1902 22.3512L25.1851 11.949C19.4032 11.949 13.0683 12.5099 6.3507 14.4306L7.73665 33.9699H17.7536V30.1507C17.3503 29.844 15.4781 29.6215 14.3251 30.0817C14.0459 30.1928 13.1358 30.5951 12.722 30.928L11.5586 31.8702C11.4447 31.9654 11.4345 32.1718 11.4345 32.3301C11.4345 32.6793 11.0363 32.9439 10.8141 32.8697C10.633 32.8062 10.3848 32.7693 10.1572 32.8224C9.91404 32.8749 9.69721 32.5623 9.6763 32.3832C9.64528 32.1607 9.81625 31.8702 9.82636 31.7747C9.83682 31.6846 9.77983 31.3299 10.1002 31.1133C10.2448 31.0184 10.4465 31.0232 10.5915 31.1029C10.6337 31.1281 10.6836 31.1357 10.7311 31.1243C10.783 31.1029 10.9226 30.9763 10.9587 30.9446C10.9742 30.7331 10.9432 30.3995 10.9641 30.2145C11.0107 29.8547 11.0312 29.6484 11.1398 29.2989C11.2329 28.9974 11.4345 28.5585 11.5843 28.3094C11.8534 27.8599 12.3858 27.4259 12.7844 27.4628C12.6289 27.6746 12.5774 27.7857 12.4637 28.0027C12.2516 28.3995 12.055 29.0557 11.9623 29.5C11.8999 29.7857 11.8692 30.0082 11.8847 30.3094C12.1899 30.0769 12.5102 29.8861 12.7224 29.7647C12.8205 29.2406 13.0225 28.6748 13.2393 28.257C13.4979 27.754 14.196 27.2089 14.6516 27.2513C14.2223 27.7274 13.9168 28.3888 13.8031 28.8121C13.7566 28.9812 13.6996 29.1775 13.7259 29.283C13.8962 29.1878 14.2482 29.0926 14.4185 29.0767C14.5325 28.7859 14.6876 28.4364 14.8171 28.2301C15.2204 27.5949 15.8564 27.2089 16.2186 27.2247C15.934 27.6163 15.6908 27.9706 15.5152 28.4947C15.4632 28.6479 15.4376 28.8121 15.4376 28.8915C15.6598 28.8545 16.0065 28.8545 16.1461 28.8545C16.4047 28.6165 16.5905 28.3305 16.9011 28.0872C17.1597 27.8806 17.6406 27.6004 17.7543 27.5791V24.3674C17.7543 24.2984 16.9321 24.2353 16.5234 24.2881C15.4376 24.4205 12.7227 25.2934 11.5745 26.1031C11.5485 26.1721 11.5539 26.5582 11.476 26.7379C11.4089 26.9018 11.2383 27.0712 11.073 27.1454C10.7783 27.2779 10.4367 26.8756 10.2867 26.9339C10.1315 26.9922 9.80074 27.1295 9.44363 26.8704C9.28345 26.7541 9.20083 26.4257 9.25749 26.1828C9.30942 26.0079 9.45408 25.8706 9.56772 25.7595C9.67125 25.6536 9.59874 25.2461 9.97069 25.0029C10.2297 24.8335 10.5861 24.9712 10.8606 25.1192C10.9164 25.101 10.9675 25.0704 11.0103 25.0295C11.0464 24.918 11.1034 24.5796 11.1553 24.315C11.2174 24.029 11.2383 23.844 11.3209 23.5798C11.5279 22.9398 12.024 22.019 12.5416 21.5373C12.95 21.1668 13.586 20.8708 14.0567 20.9025C14.0098 20.9757 13.4258 21.5104 13.2548 21.7485ZM14.4502 15.4853C14.8434 14.9246 15.8777 14.078 16.6742 14.1259C16.2395 14.512 15.8568 14.9405 15.588 15.3956C15.2366 15.9831 14.952 16.7183 14.89 17.2848C15.1537 17.1841 15.7741 17.0043 16.1309 16.925C16.4465 16.2212 16.8603 15.4435 17.3725 15.0254C17.7394 14.7238 18.2668 14.4647 18.7585 14.5227C18.6445 14.6869 18.4584 14.8139 18.3188 14.946C18.0655 15.1734 17.8898 15.4804 17.7499 15.7927C17.6463 16.0252 17.4707 16.7238 17.4653 16.7556C17.822 16.7504 18.453 16.7925 18.5875 16.8349C19.0067 16.2739 19.9222 15.459 21.0181 15.6443C20.5423 15.9086 19.6737 16.6807 19.7256 17.1044C20.4391 17.5756 21.5044 18.5648 21.5509 19.4804C21.065 18.9619 20.2635 18.4485 19.8598 18.3057C18.8927 17.9565 17.7394 17.9089 16.7777 18.0887C14.7713 18.4751 12.9975 19.3638 11.2963 20.4064C11.2551 20.6866 11.1047 21.1099 10.9806 21.2531C10.8566 21.3959 10.6704 21.5332 10.4688 21.5649C10.2155 21.6074 9.95653 21.5015 9.7397 21.3852C9.59976 21.3058 9.23287 21.4066 9.00019 21.2793C8.84001 21.1944 8.59149 20.9563 8.65893 20.581C8.71558 20.2477 9.04133 20.0466 9.08787 19.7292C9.15497 19.2634 9.48612 19.0623 9.65675 19.0309C9.84289 18.994 10.0344 19.0574 10.2047 19.1368C10.2772 19.1737 10.3544 19.2372 10.4222 19.2586C10.4893 19.2372 10.5875 19.1527 10.6444 19.1264C10.66 19.0733 10.8309 18.1052 10.9237 17.6819C11.0167 17.2586 11.1769 16.8984 11.3115 16.502C11.7151 15.3276 12.9611 14.1422 13.9596 14.2056C13.9077 14.2798 13.587 14.5179 13.1422 15.0471C12.4236 15.9093 12.2425 16.8249 11.9734 18.3964C12.5268 18.1318 13.0076 17.9414 13.5094 17.7561C13.629 17.269 13.7882 16.793 13.9852 16.3329C14.1144 16.0355 14.2695 15.7447 14.4502 15.4853ZM44.589 16.7863L26.107 16.8025L26.1229 22.3685L44.1756 22.3578L44.589 16.7863ZM28.2291 45.6049C28.017 45.7159 27.7536 45.6473 27.6451 45.5993C27.4586 45.52 27.3348 45.3237 27.319 45.0967C27.3038 44.9169 27.4744 44.6999 27.5105 44.5036C27.5257 44.4242 27.4434 44.0334 27.7688 43.8319C27.8315 43.795 28.017 43.726 28.1462 43.7477C28.276 43.7739 28.3792 43.8588 28.5083 43.8798C28.6841 43.8161 28.8523 43.7327 29.0101 43.6311C29.1136 43.2233 29.1912 42.753 29.2424 42.3346C28.3171 42.8055 27.1065 43.1229 26.0777 43.1653L26.0831 58.388C30.4011 56.1441 35.1379 52.4725 37.1545 50.4563C40.418 47.2022 42.6157 43.9061 42.9515 39.1546L43.2564 34.8266L33.4468 34.8159C33.4468 37.2706 32.6453 39.8319 30.3539 41.6835C30.2248 42.2179 30.163 43.1174 30.1728 43.1391C30.4885 43.0063 30.7835 42.8904 31.0422 42.811C31.0627 42.7793 31.43 41.9592 31.5955 41.737C31.9833 41.1232 32.5057 40.5988 33.1413 40.2497C33.5399 40.0434 34.0258 39.8529 34.4551 40.0172C33.8913 40.2921 33.4512 40.7893 33.1878 41.0749C32.9447 41.3399 32.6604 41.7311 32.5313 42.1334C32.5137 42.2031 32.4998 42.2737 32.4898 42.3449C32.7539 42.26 33.5962 42.1334 33.9479 42.0855C33.9894 42.0799 34.098 41.8422 34.1809 41.7256C34.2838 41.5828 34.3462 41.4931 34.5114 41.3023C34.9356 40.8314 35.6542 40.3287 36.3523 40.4398C35.9702 40.6885 35.5507 41.0853 35.2148 41.7094C35.168 41.805 35.1063 41.9371 35.1319 41.9951C35.2354 42.0165 35.7476 42.0058 36.0579 42.043C36.4143 41.816 36.7923 41.6145 37.2007 41.5248C37.661 41.4189 38.2612 41.5034 38.499 41.7256C38.2197 41.7094 37.9557 41.7625 37.7028 41.8629C37.5578 41.9216 37.2681 42.0589 37.1595 42.249C37.4334 42.3283 37.8839 42.6302 38.1678 42.8738C38.3647 43.0429 38.6025 43.2868 38.7525 43.5086C39.1299 44.033 39.2078 44.9742 39.0055 45.255C38.9488 45.0905 38.8868 44.9269 38.7987 44.7734C38.6177 44.4615 38.333 44.1224 38.0899 43.9371C36.9164 43.0222 35.2256 42.9742 33.8444 43.2599C32.6601 43.5086 30.5242 43.964 29.1281 44.9794C29.1642 45.1591 29.0556 45.461 28.8958 45.5769C28.684 45.7366 28.3846 45.52 28.2291 45.6049ZM30.5336 47.3157C30.6884 47.0725 30.8749 46.7182 30.9676 46.5643C31.2937 46.0299 31.7645 45.6331 32.0845 45.4793C32.5245 45.2623 33.2324 45.1357 33.548 45.294C33.2017 45.3789 32.938 45.5428 32.6952 45.7173C32.447 45.8926 31.9601 46.3473 31.8363 46.5381C31.6967 46.7496 31.604 46.9397 31.5675 47.0408C31.9601 46.9504 32.4311 46.8762 32.6739 46.8762C32.8496 46.6485 33.3153 46.1041 33.662 45.8498C33.9412 45.6483 34.536 45.4475 34.908 45.6114C34.5515 45.728 33.9206 46.2362 33.6876 46.6012C33.6363 46.6854 33.5895 46.7758 33.579 46.8231C33.7705 46.8393 34.1324 46.8762 34.3293 46.9024C34.3499 46.9024 34.8877 46.5643 35.1309 46.4953C35.4465 46.4049 35.9635 46.289 36.2895 46.6437C36.0518 46.6485 35.8292 46.6699 35.6532 46.7496C35.3996 46.8655 35.291 46.9504 35.1777 47.1143C35.6738 47.3844 36.1914 47.6649 36.4962 48.162C36.6048 48.3366 36.7701 48.7496 36.6773 49.019C36.5219 48.8182 36.3098 48.6223 36.1391 48.5219C35.896 48.379 35.7203 48.2417 35.4253 48.1251C34.4999 47.7708 33.29 47.6756 32.3226 47.8077C31.0712 47.9716 29.5351 48.6067 28.7494 49.1567C28.8007 49.4054 28.6823 49.6963 28.5427 49.7653C28.2477 49.9188 27.9637 49.6593 27.9118 49.6756C27.8342 49.7018 27.5962 49.7867 27.4259 49.7125C27.2546 49.6438 27.1467 49.3364 27.2138 49.1412C27.265 48.9928 27.4728 48.7813 27.4728 48.7813C27.4411 48.4584 27.6481 48.2631 27.9324 48.2255C28.0932 48.21 28.2062 48.3366 28.336 48.3635C28.4547 48.3049 28.5377 48.2631 28.5994 48.2307C28.6719 47.9664 28.7805 47.6963 28.853 47.4741C28.9717 47.0987 29.1474 46.7651 29.3699 46.4163C29.6906 45.9136 30.2598 45.4372 30.9366 45.4272C30.7299 45.5911 30.6105 45.6811 30.4814 45.845C30.2595 46.1306 30.0882 46.3901 29.9334 46.6968C29.7938 46.9669 29.664 47.3685 29.6437 47.7232C29.9364 47.5786 30.2332 47.4427 30.5336 47.3157ZM30.4335 50.1775C30.6092 50.1034 30.795 50.0509 30.9815 50.0723C30.5468 50.3573 30.1489 50.7751 30.0403 51.2729C30.0298 51.3254 30.0298 51.4313 30.0764 51.463C30.2001 51.4313 30.5158 51.3626 30.5987 51.3202C30.65 51.2091 30.7791 51.0345 30.8675 50.9179C31.1777 50.4953 31.6228 50.0723 32.2379 50.2307C31.8343 50.4159 31.6016 50.6747 31.4259 51.0028C31.3949 51.0614 31.3746 51.1725 31.4154 51.1725C31.519 51.1725 31.9122 51.1563 31.9688 51.1563C32.1499 50.9924 32.6776 50.6799 33.0398 50.7965C32.8588 50.8831 32.6928 50.9994 32.5485 51.1408C32.5124 51.1825 32.4655 51.2357 32.4558 51.2992C32.7758 51.463 33.0604 51.6483 33.3244 51.8815C33.464 52.003 33.6657 52.2307 33.7894 52.6219C33.4792 52.3469 32.4655 51.8543 31.9125 51.828C31.5503 51.8125 31.1012 51.8812 30.8732 51.934C29.9992 52.1354 29.0995 52.5377 28.3289 52.9873C28.3343 53.1408 28.308 53.3254 28.1381 53.4685C28.0241 53.5641 27.7759 53.6114 27.6822 53.4741C27.6309 53.3999 27.2944 53.4796 27.2225 53.3844C27.2225 53.3844 27.1342 53.2471 27.1237 53.0825C27.114 52.9079 27.2273 52.8023 27.3207 52.7119C27.3463 52.6802 27.3412 52.3845 27.5584 52.2835C27.6926 52.22 27.8272 52.2417 27.9411 52.3159C27.988 52.289 28.0241 52.2628 28.0551 52.2417C28.0807 51.8974 28.1428 51.58 28.2672 51.2364C28.4379 50.7492 28.9963 50.1568 29.4771 50.1779C29.1511 50.5377 28.8877 51.0349 28.7993 51.4482C28.7737 51.5803 28.7639 51.8398 28.7639 51.9609C28.879 51.8888 28.9999 51.827 29.1254 51.7763C29.1774 51.649 29.3271 51.3316 29.4046 51.1888C29.6002 50.8175 30.0403 50.3418 30.4335 50.1775ZM8.23134 39.7146C8.29339 41.5555 9.02784 43.7784 10.0361 45.3175H25.0795L25.0485 43.1698C23.1146 43.1698 20.1616 41.8626 18.9928 39.7253L8.23134 39.7146ZM18.5733 34.9128C18.5733 44.7009 32.5667 44.7009 32.5667 35.0132L32.5721 23.2354L18.5733 23.2303V34.9128ZM23.0816 30.2218C23.2471 30.0365 23.3921 29.7933 23.4228 29.587C23.4488 29.4176 22.9834 29.4283 22.8128 29.5342C22.7197 29.5922 22.6317 29.7088 22.5592 29.8147C22.5076 29.894 22.3215 29.9575 22.2284 29.8678C22.1299 29.7726 22.306 29.6084 22.3006 29.508C22.3006 29.3386 21.9849 29.5925 21.8403 29.5235C21.7421 29.4759 21.7367 29.3227 21.8042 29.2327C21.8403 29.1851 21.9438 29.2061 21.9903 29.1537C22.0369 29.1005 22.0369 29.0212 22.0524 28.9525C22.0733 28.8732 22.1559 28.8359 22.2075 28.7779C22.4041 28.5823 22.7764 28.2487 22.8489 28.2542C23.0192 28.2701 23.2626 28.3601 23.4124 28.2805C23.4434 28.2646 23.5004 28.2118 23.4484 28.1801L23.0451 27.9096C23.0433 27.8669 23.0507 27.8244 23.0668 27.7851C23.0829 27.7457 23.1073 27.7105 23.1382 27.6819C23.3243 27.5125 23.614 27.6291 23.8571 27.5918C24.0278 27.5653 24.188 27.4966 24.312 27.3752C24.3431 27.5021 24.2655 27.6291 24.2655 27.7612C24.4206 27.9096 24.5811 28.0362 24.7312 28.1794C25.176 28.6341 25.3672 29.2958 25.3982 29.8778C25.4242 30.1476 25.4242 30.4226 25.4242 30.8725C25.4967 30.682 25.5432 30.4015 25.5587 30.158C25.6258 29.4383 25.5172 28.7983 25.1193 28.2532C24.9576 28.0234 24.7739 27.8106 24.571 27.618C24.5919 27.4066 24.7676 27.0467 24.9332 27.1792C25.0418 27.2637 24.8816 27.3907 24.9952 27.4649C25.1197 27.5439 25.3004 27.5335 25.378 27.5173C25.5591 27.47 25.7348 27.4224 25.9 27.4066C25.9775 27.4014 26.1067 27.3641 26.133 27.4435C26.1536 27.4963 26.0969 27.5335 26.0396 27.5546C25.9725 27.576 25.869 27.5601 25.8123 27.618C25.7654 27.6656 25.7196 27.7188 25.7348 27.7874C25.7553 27.8668 25.8383 27.9092 25.9212 27.8827C26.2331 27.7944 26.5542 27.7446 26.8776 27.7343C27.0489 27.7343 27.0118 27.8616 26.9295 27.9089C26.8728 27.9406 26.7845 27.9672 26.7278 27.9727C26.423 28.0093 26.195 28.0307 26.2311 28.2104C26.2568 28.3322 26.4486 28.2156 26.4894 28.3056C26.5363 28.4009 26.4072 28.4536 26.4176 28.5175C26.4486 28.7186 26.826 28.6762 27.0017 28.6337C27.1308 28.602 27.3375 28.4964 27.3996 28.5809C27.4569 28.6548 27.41 28.7714 27.3375 28.7928C27.151 28.8456 26.831 28.9408 26.7427 29.0464C26.6597 29.1471 26.7585 29.3534 26.8567 29.3641C27.0792 29.3903 27.3224 29.3903 27.498 29.4431C27.5645 29.4645 27.6218 29.5121 27.6218 29.5859C27.6218 29.6653 27.5442 29.6919 27.4822 29.7129C27.3628 29.7498 27.1615 29.7498 27.0529 29.7978C27.0168 29.8136 26.9443 29.8402 26.9548 29.8823C26.9858 29.9617 27.1413 29.9403 27.2704 29.9561C27.3429 29.9617 27.4825 30.02 27.4825 30.0993C27.4825 30.1842 27.41 30.2104 27.2809 30.2001C27.0792 30.1842 26.8931 30.2104 26.8054 30.2477C26.7791 30.258 26.6243 30.2791 26.629 30.3536C26.6395 30.4433 26.8054 30.3853 26.8465 30.4754C26.8826 30.5602 26.7693 30.6075 26.7589 30.7134C26.7589 30.7559 26.7794 30.7769 26.8209 30.7928C26.9551 30.8507 27.1099 30.8452 27.2451 30.8193C27.3847 30.7928 27.436 30.9836 27.3999 31.0046C27.2195 31.105 26.8159 30.9994 26.7228 31.0574C26.5936 31.1419 26.9396 31.3324 26.9295 31.3748C26.919 31.4224 26.8776 31.47 26.8465 31.4807C26.6709 31.5494 26.4436 31.4169 26.3144 31.4914C26.2058 31.5601 26.2517 31.7346 26.1846 31.8247C26.1016 31.9358 25.9158 31.8882 25.8329 31.9516C25.725 32.0306 25.7196 32.2214 25.8383 32.338C25.9317 32.4277 26.0194 32.4909 26.1381 32.5495C26.6763 32.8245 27.2347 33.0995 27.757 33.0622C28.0258 33.0467 28.4658 33.0312 28.7086 33.0946C29.0243 33.1736 29.345 33.4221 29.5102 33.5287C29.6444 33.6128 29.8619 33.6346 30.0325 33.5704C30.1563 33.5287 30.2393 33.3803 30.2136 33.253C30.1361 32.8297 29.4529 32.6979 29.4431 32.2746C29.4326 31.7878 29.3912 31.5231 29.2364 31.2161C29.1791 31.0998 29.1693 30.83 29.3035 30.7931C29.4121 30.7666 29.4485 30.9201 29.5358 30.8832C29.9344 30.7245 29.9503 30.079 30.3637 29.9568C30.6061 29.8882 31.4235 29.8778 31.3561 29.7719C31.1855 29.5228 31.2634 29.2375 31.3561 29.105C31.4181 29.0205 31.5884 28.9356 31.6566 29.0205C31.7493 29.1316 31.5163 29.2637 31.5321 29.4279C31.5473 29.5815 31.7651 29.8778 31.5992 30.0365C31.5011 30.1317 30.7616 30.1638 30.5441 30.5023C30.4099 30.7082 30.3947 30.8725 30.5545 30.8566C30.6837 30.8407 30.7923 30.682 30.9117 30.592C31.1238 30.4336 31.2944 30.3698 31.4134 30.4861C31.4755 30.544 31.3925 30.6555 31.2785 30.6872C31.1858 30.7189 30.9585 30.9677 31.0202 31.0312C31.113 31.1316 31.6303 30.6717 31.7597 30.7666C31.8269 30.8193 31.5062 31.1581 31.5628 31.2478C31.6299 31.3589 31.8474 31.1844 31.9145 31.2692C32.0127 31.3962 31.7439 31.6449 31.5884 31.756C31.4697 31.835 31.5159 32.1317 31.3453 32.2218C31.1544 32.317 31.0661 32.4857 31.087 32.5126C31.1076 32.5544 31.1541 32.5868 31.2266 32.5388C31.4387 32.4015 31.7021 32.2373 31.8107 32.2797C31.8727 32.3063 31.785 32.6075 31.7071 32.7503C31.6292 32.8932 32.0228 32.8138 31.9654 32.9356C31.9246 33.026 31.8983 33.1633 31.9246 33.2899C31.9557 33.4545 31.5004 33.4907 31.459 33.6018C31.4128 33.7291 31.5058 33.7608 31.5517 33.7664C31.8262 33.8088 31.7901 34.0676 31.6815 34.1786C31.5365 34.327 31.2883 34.385 31.0708 34.3477C30.8843 34.316 30.4662 34.2373 30.218 34.0465C30.1404 33.9885 30.0265 34.0303 30.0113 34.11C29.9954 34.2004 30.0885 34.3639 30.13 34.5016C30.1873 34.7079 30.1556 34.9673 30.0885 35.1688C29.9442 35.5866 29.5564 35.9358 29.4478 36.4384C29.4215 36.5706 29.4583 36.7348 29.5099 36.8617C29.6238 37.1374 29.7891 37.3962 29.9749 37.6294C30.0012 37.7036 30.0376 37.7877 30.0066 37.8564C29.9651 37.9623 29.6444 38.19 29.5513 38.2804C29.2563 38.5606 29.0027 38.9259 28.946 39.3227C28.9251 39.4655 28.6253 39.6083 28.4237 39.6663C28.2743 39.7087 28.1189 39.7512 27.9951 39.8516C27.9792 39.9675 28.0463 40.0686 28.0615 40.1845C28.0878 40.386 27.8396 40.4864 27.6478 40.5498C27.5601 40.5816 27.4667 40.6085 27.3632 40.6085C27.3271 40.6085 27.317 40.5443 27.3224 40.5129C27.379 40.238 27.4303 40.0158 27.5338 39.7884C27.5753 39.7035 27.6424 39.6349 27.7101 39.5762L28.449 38.9414L29.0287 38.0896C29.0799 38.0103 29.1012 37.9413 29.1012 37.8833C29.1012 37.7187 29.034 37.5659 28.9201 37.46C28.7751 37.3272 28.563 37.3065 28.4031 37.2216C28.1964 37.1157 27.896 36.82 27.8545 36.7983C27.7412 36.7403 27.6741 36.9518 27.6582 37.0732C27.6326 37.2585 27.6892 37.4331 27.6838 37.6183C27.6838 37.7032 27.6741 37.7505 27.6326 37.8036C27.1467 38.0893 26.5414 38.1952 26.1843 38.6499C26.1222 38.7293 26.0656 38.8145 25.9826 38.8724C25.7809 39.0153 25.4451 38.8514 25.2947 39.0732C25.2276 39.1743 25.3051 39.3064 25.2795 39.4175C25.264 39.481 25.145 39.5659 25.0519 39.6128C24.9275 39.6715 24.7936 39.7032 24.6587 39.7139C24.5086 39.6397 24.6017 39.4227 24.6533 39.2692C24.7049 39.1101 24.7777 38.9518 24.8964 38.8459C25.0721 38.6868 25.2943 38.486 25.4343 38.4174C25.553 38.3587 25.7337 38.3587 25.8787 38.3008C26.0315 38.2529 26.1762 38.1816 26.308 38.0893C26.5194 37.952 26.7164 37.7826 26.8354 37.5497C26.9696 37.2847 26.9541 36.9311 26.7835 36.7034C26.628 36.4971 26.4476 36.2956 26.3441 36.0634C26.2868 35.9361 26.3282 35.7615 26.4166 35.6449C26.4112 35.6401 26.3488 35.597 26.3131 35.608C25.5732 35.6404 24.8236 35.5556 24.1357 35.2751C23.9546 35.2009 23.7685 34.9625 23.639 34.947C23.5203 34.9308 23.4478 35.0843 23.3287 35.116C23.1375 35.1692 22.889 35.1374 22.6668 35.116C22.4081 35.0898 21.8703 34.9732 21.4825 34.8466C21.4204 34.8566 21.3533 34.8676 21.2963 34.9045C21.2134 34.9625 21.1979 35.0898 21.1928 35.1957C21.1824 35.3386 21.2238 35.4707 21.208 35.619C21.2029 35.6932 21.1615 35.7726 21.1824 35.8416C21.2033 35.9258 21.2859 35.963 21.3425 36.0161C21.4356 36.1058 21.4511 36.2911 21.4511 36.4395C21.4511 36.6033 21.3945 36.8207 21.5287 36.9321C21.6116 37.0001 21.7253 36.9107 21.8288 36.9321C21.9424 36.9532 21.9785 37.096 21.9839 37.2071C21.9893 37.3337 21.8858 37.6032 21.8184 37.6729C21.7718 37.7201 21.6943 37.6829 21.6373 37.6566C21.4875 37.588 21.3476 37.4769 21.265 37.3285C21.2289 37.2651 21.2289 37.1857 21.1925 37.1171C21.1355 37.0004 21.032 36.9325 20.9288 36.8528C20.8047 36.7572 20.7791 36.5826 20.7582 36.4295C20.7426 36.2859 20.7686 36.1486 20.7791 36.0054C20.8059 35.7223 20.7883 35.4366 20.7271 35.1591C20.6806 34.9477 20.5666 34.7358 20.6185 34.5243C20.6445 34.4239 20.7116 34.3284 20.805 34.2859C21.3052 34.2621 21.8004 34.1733 22.2787 34.0217L21.9684 33.7091C21.8909 33.7091 21.8288 33.7884 21.7512 33.7884C21.6683 33.7884 21.5547 33.667 21.5236 33.6246C21.3631 33.3813 21.2599 33.1002 21.1874 32.8145C21.1203 32.7034 21.0377 32.5927 20.9133 32.5395C20.827 32.5012 20.7335 32.4831 20.6395 32.4864C20.3808 32.603 20.1431 32.8307 20.1222 33.1219C20.1171 33.1961 20.1583 33.2592 20.1481 33.3334C20.133 33.46 20.0396 33.5449 19.9515 33.6353C19.8635 33.725 19.7809 33.815 19.7448 33.942C19.7135 34.0479 19.7499 34.159 19.7961 34.2594C19.8271 34.328 19.8635 34.3967 19.8376 34.4709C19.7755 34.6454 19.3671 34.8252 19.2481 34.8252C19.2066 34.8252 19.1706 34.7672 19.155 34.7193C19.1085 34.5602 19.119 34.3912 19.15 34.2328C19.2592 34.1117 19.3404 33.967 19.3877 33.8095C19.4501 33.598 19.4187 33.3703 19.5172 33.174C19.7755 32.7245 20.4375 31.825 20.5666 31.6929C20.6236 31.6349 20.7632 31.6028 20.8202 31.6401C21.0994 31.8254 21.265 32.0527 21.5337 32.1956C21.6787 32.2697 21.8595 32.3812 21.989 32.2753C22.1181 32.1693 22.1387 31.4604 22.2217 31.2803C22.3731 30.968 22.7919 30.5551 23.0816 30.2218ZM28.2291 25.8144L28.1151 26.2587H27.7014L28.2396 24.1742H28.71L29.2276 26.2429H28.8132L28.7097 25.8144H28.2291ZM28.653 25.4359L28.4665 24.5999L28.2908 25.4359H28.653ZM27.1423 24.7735C27.1477 24.6358 27.1062 24.4561 26.998 24.4136C26.884 24.3712 26.7649 24.4085 26.7133 24.4878C26.625 24.6358 26.625 24.837 26.6304 25.1437C26.6304 25.3289 26.6358 25.588 26.6719 25.7102C26.7595 25.9903 26.9926 26.0065 27.1059 25.8316C27.1632 25.7471 27.1632 25.5829 27.1578 25.4349H26.9194V25.1278H27.5351V26.2494H27.2407V26.0962C27.2354 26.1069 27.1059 26.2073 27.0438 26.2394C26.9403 26.2867 26.744 26.2867 26.5842 26.218C26.4493 26.1597 26.3202 25.9748 26.2635 25.7364C26.2062 25.4876 26.2318 25.1647 26.2318 24.8897C26.2372 24.5986 26.3873 24.276 26.594 24.1542C26.739 24.0697 27.0077 24.0697 27.178 24.1332C27.3854 24.2073 27.5456 24.514 27.5146 24.7735H27.1423ZM20.2146 24.2056C20.3801 24.3115 20.4678 24.5075 20.4375 24.7348H20.1114C20.1114 24.5233 20.0237 24.4226 19.8477 24.4174C19.7391 24.4123 19.6045 24.5392 19.6045 24.6344C19.5992 24.9146 19.8423 24.9729 20.0079 25.0257C20.1319 25.0629 20.282 25.1423 20.3545 25.2534C20.4887 25.4545 20.5046 25.666 20.396 25.9413C20.3444 26.0735 20.1478 26.2322 19.9822 26.2694C19.7961 26.3119 19.5685 26.2908 19.3823 26.1476C19.2323 26.0314 19.1648 25.8037 19.1958 25.5973H19.5631C19.5631 25.6981 19.5786 25.7719 19.6201 25.8354C19.6511 25.8778 19.7081 25.9465 19.8062 25.9517C19.8452 25.9546 19.8843 25.9487 19.9208 25.9344C19.9573 25.9201 19.9903 25.8978 20.0174 25.8691C20.0445 25.8403 20.0651 25.8058 20.0778 25.7679C20.0904 25.7301 20.0947 25.6899 20.0905 25.6501C20.0699 25.3272 19.5425 25.3062 19.3614 25.0999C19.1439 24.8459 19.2114 24.4385 19.387 24.2743C19.6305 24.0417 19.9617 24.0417 20.2146 24.2056ZM30.6567 25.5856C30.6621 25.665 30.6672 25.9455 30.6773 26.1252C30.6827 26.178 30.7346 26.247 30.7346 26.2522H30.3468C30.2949 26.2522 30.2895 26.1569 30.2848 26.0779C30.2743 25.8665 30.2946 25.3638 30.0932 25.3638H29.845V26.2473H29.4573V24.1839H30.1553C30.507 24.1839 30.6827 24.3905 30.6827 24.6707C30.6827 24.8559 30.6773 25.0729 30.4706 25.1626C30.5788 25.2682 30.6409 25.4269 30.6567 25.5856ZM30.1253 24.4816H29.8356V25.0374H30.0477C30.3991 25.0374 30.394 24.4816 30.1253 24.4816ZM21.3938 26.256H21.006V24.5151H20.5612V24.1659H21.8436V24.5151H21.3938V26.256ZM23.8905 26.256V24.5151H23.4457V24.1659H24.7332V24.5151H24.278V26.256H23.8905ZM24.9079 24.1663H26.1954V24.5206H25.7401V26.256H25.3527V24.5206H24.9079V24.1663ZM31.6353 24.5209V26.2615H31.2475V24.5209H30.8031V24.1666H32.0855V24.5209H31.6353ZM22.858 25.6563V24.1697H23.2353V25.6194C23.2353 26.4871 22.0045 26.4871 22.0045 25.646V24.1697H22.3818V25.6619C22.3822 25.9848 22.858 25.9848 22.858 25.6563ZM23.7287 27.2175C23.8426 27.1171 24.0025 26.9798 24.1886 26.858C24.3542 26.7469 24.1681 27.0012 24.1576 27.1067C24.1266 27.3924 23.9145 27.4241 23.6818 27.3714C23.641 27.3607 23.6565 27.281 23.7287 27.2175ZM33.4539 33.8882L43.3312 33.8826L43.7706 28.2953L33.4539 28.3008V33.8882ZM25.1237 51.2892L14.9362 51.2681C17.0357 53.1994 21.8969 56.813 25.0927 58.2786L25.1237 51.2892ZM17.7489 28.148C17.5523 28.3277 17.1594 28.7724 17.0815 28.9732C17.2525 29.0367 17.5883 29.1902 17.7489 29.3013V28.148Z" fill="#372120"/>
</svg>
