<svg width="42" height="58" viewBox="0 0 42 58" fill="none" xmlns="http://www.w3.org/2000/svg">
<path d="M0.394525 0.533728C0.657548 0.523378 0.768817 0.513033 0.890212 0.513033C6.52498 0.513033 12.1496 0.471628 17.7844 0.533728C21.1531 0.575128 24.2689 1.58943 26.9497 3.74224C30.1262 6.28835 31.5425 9.70388 31.3806 13.7921C31.1783 18.8223 28.9427 22.8174 25.2401 26.0052C24.4713 26.6676 23.6215 27.2368 22.7616 27.8889C22.8729 28.0545 22.9943 28.2511 23.1157 28.4478C25.8875 32.6499 28.1434 37.1108 29.3574 42.0478C29.8227 43.9625 30.0554 45.9394 30.3488 47.8955C30.6017 49.5515 30.9153 51.1558 32.3923 52.3253C29.0438 52.3253 25.8066 52.3253 22.5694 52.3253C22.5087 52.2529 22.448 52.1908 22.3873 52.1183C22.5492 52.0355 22.7616 51.9941 22.883 51.8699C24.6027 50.1311 25.5132 48.0922 25.3008 45.5564C24.9569 41.4474 24.1172 37.473 22.1546 33.8298C21.406 32.4326 20.4045 31.1802 19.5143 29.8657C19.3727 29.6484 19.2108 29.5552 18.9174 29.6691C14.9417 31.232 10.7839 31.8426 6.5452 31.9772C6.4238 31.9772 6.31254 31.9979 6.11022 32.0082C6.11022 32.2359 6.11022 32.4533 6.11022 32.6706C6.11022 37.6697 6.13044 42.6791 6.10009 47.6782C6.08998 49.2721 6.42381 50.7107 7.41521 51.9734C7.46579 52.0355 7.51636 52.1184 7.55683 52.1908C7.56694 52.2219 7.56696 52.2529 7.57708 52.3357C5.07836 52.3357 2.57965 52.3357 0 52.3357C0.141628 52.1183 0.252887 51.932 0.384399 51.7664C1.16335 50.69 1.53764 49.4998 1.53764 48.1543C1.52753 33.4469 1.52753 18.7291 1.53764 4.02169C1.51741 2.73828 1.33534 1.57908 0.394525 0.533728ZM6.14055 27.8889C6.27206 27.8992 6.37324 27.92 6.46429 27.92C10.1365 27.8268 13.7075 27.2265 17.0661 25.6429C23.7125 22.5172 25.8572 16.3796 25.1591 10.7078C24.7646 7.49931 23.0651 5.23266 20.01 4.1666C18.7353 3.72155 17.4202 3.58699 16.0747 3.58699C12.9387 3.59734 9.80266 3.58699 6.66661 3.58699C6.50475 3.58699 6.3328 3.58699 6.13047 3.58699C6.14059 11.7118 6.14055 19.7952 6.14055 27.8889Z" fill="#372120"/>
<path d="M30.6419 6.08154C33.3531 6.70254 35.5888 7.99628 37.3794 10.0145C41.0212 14.1131 41.527 18.7912 39.6049 23.8213C38.1887 27.5162 35.781 30.4039 32.5539 32.5877C32.4021 32.6912 32.2504 32.7947 32.0481 32.9396C32.2403 33.2708 32.4426 33.5813 32.6146 33.9125C33.9803 36.4482 35.3864 38.9633 36.6914 41.53C38.2898 44.6764 39.0081 48.0919 39.352 51.6005C39.4229 52.3767 39.5341 53.1426 39.6555 53.9085C39.8579 55.0988 40.1614 55.6784 41.3348 57.2412C38.1179 57.2412 34.9413 57.2412 31.7547 57.2412C31.7244 57.1998 31.694 57.1584 31.6535 57.1067C31.7648 57.0342 31.8963 56.9825 31.9874 56.8997C33.6363 55.3368 34.5164 53.4117 34.476 51.1141C34.3546 45.2043 32.5741 39.8844 29.0233 35.1959C28.6996 34.7715 28.4163 34.5231 27.8599 34.9164C27.2428 33.5709 26.646 32.2772 26.0693 31.0145C27 30.4453 27.9207 29.9692 28.7401 29.3482C32.9687 26.0983 34.8401 21.7099 34.4658 16.3383C34.3445 14.6306 33.7476 13.047 32.7562 11.6394C32.6753 11.5256 32.5944 11.4117 32.5741 11.2875C32.2808 9.54875 31.5625 7.97556 30.7835 6.42307C30.7431 6.32992 30.7127 6.24714 30.6419 6.08154Z" fill="#372120"/>
<path d="M15.245 32.1116C15.2551 32.4117 15.2754 32.7118 15.2855 33.1258C16.287 33.0637 17.2784 33.0224 18.2597 32.9499C18.8262 32.9085 19.3927 32.7947 19.9693 32.7429C20.0907 32.7326 20.2931 32.7947 20.3436 32.8775C20.9203 34.0367 21.4766 35.2062 22.0432 36.3757C22.0128 36.4482 21.9723 36.5103 21.942 36.5827C19.7366 36.769 17.5414 36.9553 15.2754 37.1416C15.2754 37.3072 15.2754 37.5039 15.2754 37.7109C15.2754 42.7306 15.2956 47.7503 15.2653 52.7701C15.2552 54.3743 15.5789 55.844 16.5703 57.1274C16.6208 57.1895 16.6512 57.2723 16.722 57.3965C14.1727 57.3965 11.674 57.3965 9.10449 57.3965C9.22589 57.2102 9.3169 57.0446 9.42818 56.8893C10.2678 55.7612 10.6321 54.4985 10.6321 53.0806C10.6118 46.5601 10.632 40.0396 10.6118 33.5192C10.6118 33.0224 10.7029 32.8154 11.239 32.7533C12.5643 32.598 13.8894 32.3393 15.245 32.1116Z" fill="#372120"/>
<path d="M6.14062 27.8889C6.14062 19.7952 6.14062 11.7119 6.14062 3.58716C6.34295 3.58716 6.50484 3.58716 6.67682 3.58716C9.81286 3.58716 12.9489 3.59751 16.0849 3.58716C17.4304 3.58716 18.7455 3.71137 20.0202 4.16677C23.0753 5.24316 24.7748 7.49945 25.1693 10.7079C25.8674 16.3797 23.7328 22.5172 17.0763 25.6429C13.7076 27.2265 10.1467 27.8268 6.47449 27.9199C6.37333 27.9199 6.27214 27.8992 6.14062 27.8889ZM9.46892 5.55365C10.6424 6.75425 10.612 8.16185 10.612 9.56944C10.6019 14.9825 10.612 20.3955 10.612 25.8085C10.612 26.0155 10.612 26.2122 10.612 26.4399C10.7739 26.4295 10.8751 26.4399 10.9661 26.4192C12.2205 26.0983 13.475 25.7671 14.7294 25.4566C15.134 25.3531 15.2756 25.1565 15.2756 24.7114C15.2554 19.5572 15.2655 14.4029 15.2655 9.24858C15.2655 9.05193 15.2655 8.84493 15.2655 8.57583C18.0273 8.57583 20.7283 8.57583 23.4799 8.57583C22.964 7.43734 22.2458 6.57829 21.3555 5.88484C21.1026 5.68819 20.7182 5.54329 20.4046 5.54329C16.9853 5.52259 13.566 5.53296 10.1467 5.53296C9.9747 5.52261 9.81287 5.5433 9.46892 5.55365Z" fill="white"/>
<path d="M9.46875 5.55366C9.80259 5.53296 9.97452 5.5226 10.1364 5.5226C13.5557 5.5226 16.975 5.51226 20.3943 5.53296C20.718 5.53296 21.0923 5.66752 21.3452 5.87451C22.2355 6.56796 22.9639 7.427 23.4697 8.56549C20.718 8.56549 18.017 8.56549 15.2552 8.56549C15.2552 8.83459 15.2552 9.03124 15.2552 9.23824C15.2552 14.3925 15.2451 19.5468 15.2654 24.701C15.2654 25.1461 15.1339 25.3427 14.7191 25.4462C13.4647 25.7567 12.2102 26.0879 10.9558 26.4087C10.8648 26.4294 10.7636 26.4191 10.6017 26.4294C10.6017 26.2017 10.6017 26.0051 10.6017 25.7981C10.6017 20.3851 10.5916 14.9721 10.6017 9.55907C10.6119 8.16183 10.6422 6.75425 9.46875 5.55366Z" fill="#372120"/>
</svg>
