<svg width="83" height="49" viewBox="0 0 83 49" fill="none" xmlns="http://www.w3.org/2000/svg">
<path d="M41.3938 48.2092C39.6614 48.1206 37.7846 48.0911 35.9078 47.9434C31.8655 47.648 27.852 46.9981 23.9252 45.9346C20.3159 44.9597 16.8511 43.6895 13.5306 41.9466C10.3545 40.2627 7.40941 38.2539 4.92627 35.5657C3.04947 33.5569 1.57688 31.2822 0.710662 28.6236C0.16206 26.9397 -0.068902 25.1968 0.0177194 23.3948C0.190962 20.1748 1.34591 17.3389 3.19384 14.7689C5.30162 11.8443 7.98689 9.62875 10.9898 7.76767C13.5884 6.14292 16.3314 4.87264 19.1899 3.83871C22.3083 2.68661 25.4844 1.82994 28.7471 1.26866C30.8261 0.914169 32.905 0.677827 34.9839 0.441499C37.8135 0.116548 40.6719 0.0870363 43.5304 0.175659C45.4072 0.234741 47.3129 0.411929 49.1897 0.559634C51.5574 0.766421 53.8674 1.15051 56.1773 1.65271C60.6238 2.59802 64.8971 4.01598 68.9683 6.08385C72.3465 7.79723 75.4649 9.89464 78.0924 12.7306C80.258 15.0643 81.9038 17.7229 82.6257 20.8838C83.001 22.5086 83.0877 24.1334 82.9144 25.7877C82.5679 28.9485 81.2396 31.6959 79.334 34.1478C77.1395 36.9542 74.3967 39.1106 71.3649 40.9126C66.9472 43.5418 62.2118 45.2551 57.2455 46.3777C55.3398 46.8208 53.4053 47.1753 51.4707 47.4707C49.6228 47.7366 47.7172 47.8843 45.8404 48.0025C44.4833 48.1206 43.0107 48.1501 41.3938 48.2092ZM41.596 3.77964C39.2283 3.83872 36.8896 3.92735 34.5219 4.22276C32.6451 4.45908 30.7971 4.72497 28.9492 5.04992C25.7731 5.6112 22.6548 6.49737 19.6519 7.64947C16.2159 8.97881 12.9531 10.6626 10.0657 12.9668C8.01571 14.5916 6.2544 16.4822 5.01283 18.875C4.03112 20.7657 3.54027 22.7744 3.71351 24.9309C3.85788 26.9102 4.52195 28.7417 5.5614 30.396C6.94735 32.6411 8.79538 34.4136 10.8743 35.9497C13.7328 38.0767 16.88 39.6128 20.1716 40.8536C22.9435 41.8875 25.7731 42.6556 28.6604 43.2168C31.3168 43.7486 34.0022 44.103 36.6874 44.2803C38.4487 44.3984 40.2389 44.428 42.0002 44.4575C44.4545 44.4575 46.8798 44.3394 49.3052 44.0144C51.0088 43.7781 52.7412 43.5713 54.4159 43.2463C57.5343 42.6555 60.595 41.7989 63.569 40.6468C67.4669 39.1107 71.1338 37.1904 74.281 34.325C75.9557 32.8184 77.3706 31.105 78.3523 29.0076C79.4784 26.5852 79.796 24.0743 79.1319 21.4747C78.5256 19.1114 77.2551 17.1321 75.6382 15.3597C73.6459 13.1737 71.2493 11.4898 68.6796 10.0423C65.8499 8.47664 62.8471 7.29503 59.7576 6.37926C55.8019 5.19762 51.7595 4.45904 47.6306 4.10455C45.6672 3.9273 43.6172 3.86827 41.596 3.77964Z" fill="#372120"/>
<path d="M41.5956 3.78003C43.6167 3.89819 45.6379 3.92769 47.6591 4.10494C51.7591 4.45943 55.8303 5.198 59.7861 6.37964C62.8755 7.2954 65.8495 8.47701 68.708 10.0427C71.2778 11.4606 73.6455 13.1445 75.6666 15.36C77.2836 17.1325 78.554 19.1117 79.1604 21.475C79.8245 24.0746 79.5068 26.5855 78.3807 29.0079C77.399 31.0757 75.9842 32.7891 74.3095 34.3252C71.1623 37.1907 67.4953 39.1109 63.5973 40.647C60.6233 41.7991 57.5628 42.6557 54.4444 43.2466C52.7408 43.5715 51.0372 43.8079 49.3337 44.0147C46.9083 44.3396 44.4541 44.4578 42.0287 44.4578C40.2674 44.4578 38.4772 44.3987 36.7159 44.2805C34.0307 44.1032 31.3453 43.7488 28.6889 43.2171C25.8015 42.6558 22.9719 41.8877 20.2001 40.8538C16.9084 39.6131 13.7611 38.0769 10.9026 35.95C8.82372 34.4139 6.97583 32.6119 5.58989 30.3963C4.55043 28.7125 3.88636 26.9105 3.74199 24.9312C3.56875 22.7748 4.08848 20.766 5.04131 18.8754C6.25401 16.5121 8.04419 14.6215 10.0942 12.9672C13.0105 10.6335 16.2444 8.97918 19.6804 7.64984C22.7121 6.49774 25.8015 5.61158 28.9777 5.0503C30.8256 4.72535 32.7025 4.45947 34.5504 4.22314C36.8892 3.92773 39.2279 3.83911 41.5956 3.78003ZM31.0277 31.6371C31.1721 31.4007 31.2876 31.253 31.3454 31.0757C31.4897 30.5145 31.6052 29.9532 31.7785 29.3919C32.3271 27.3832 32.8467 25.4039 33.4242 23.4247C33.9439 21.5932 35.1567 20.441 36.9758 20.057C37.9863 19.8207 39.0546 19.7025 40.0941 19.5844C41.3934 19.4071 42.6927 19.2594 43.992 19.1117C45.2336 18.964 46.4751 18.8163 47.7167 18.6686C48.7273 18.5504 49.7668 18.4323 50.8063 18.3732C52.1345 18.255 53.4338 18.1369 54.762 18.1073C55.5994 18.0778 56.4366 18.196 57.274 18.255C58.4578 18.3732 59.6128 18.5209 60.7966 18.6686C61.7206 18.7868 62.3558 19.2594 62.6156 20.2343C62.8466 21.091 63.0776 21.9476 63.3664 22.8043C63.4241 23.0111 63.5974 23.1884 63.7129 23.3656C63.8284 23.1884 64.0016 23.0407 64.0882 22.8339C64.3192 22.1544 64.4925 21.475 64.7235 20.7955C64.839 20.441 64.9545 20.0866 65.1277 19.7321C65.4453 19.0526 66.1093 18.8458 66.7734 18.7277C68.3037 18.4322 69.8342 18.2255 71.3645 17.9596C71.6243 17.9301 71.8841 17.871 72.144 17.7824C72.2306 17.7528 72.3172 17.6347 72.3172 17.5756C72.3172 17.487 72.2306 17.3983 72.144 17.3392C72.0285 17.2802 71.8841 17.2507 71.7398 17.2211C71.0468 17.103 70.325 17.0143 69.632 16.9257C68.5926 16.7485 67.5531 16.6007 66.5425 16.394C65.8784 16.2463 65.301 15.9508 65.0122 15.2714C64.6946 14.4738 64.4058 13.6762 64.0882 12.9081C64.0305 12.7604 63.8861 12.6422 63.7706 12.5241C63.684 12.6422 63.5685 12.7604 63.4818 12.9081C63.453 12.9672 63.4241 13.0558 63.3953 13.1149C63.2509 13.5285 63.1066 13.9421 62.9911 14.3557C62.5868 15.6555 61.7206 16.394 60.3924 16.5417C59.5551 16.6303 58.7177 16.7189 57.8804 16.8371C56.1191 17.1325 54.3866 17.1915 52.6253 17.0438C50.9217 16.8961 49.2471 16.6598 47.5436 16.4826C45.8689 16.2758 44.1941 16.069 42.5194 15.8622C40.8736 15.6554 39.199 15.4191 37.5532 15.1533C36.7159 15.0056 35.8785 14.7987 35.1566 14.2965C34.2327 13.6762 33.6841 12.7604 33.3087 11.7561C32.8179 10.4563 32.4136 9.15648 31.9805 7.85668C31.7784 7.23632 31.6053 6.61591 31.3743 6.02509C31.3454 5.90693 31.1722 5.75925 31.0855 5.75925C30.9989 5.75925 30.8545 5.90697 30.7968 5.99559C30.739 6.08422 30.7101 6.20238 30.6812 6.291C30.1037 8.06345 29.5263 9.80638 28.92 11.5493C28.6601 12.2287 28.3425 12.9081 27.9094 13.4989C27.2742 14.3852 26.2925 14.7397 25.3108 15.0056C23.4051 15.5373 21.4706 15.6554 19.536 15.9213C18.3522 16.0985 17.1683 16.2463 15.9845 16.4235C14.6563 16.6008 13.357 16.8075 12.0288 16.9848C11.2492 17.1029 10.4696 17.1916 9.69002 17.3098C9.48791 17.3393 9.14134 17.3392 9.17021 17.6347C9.19908 17.9005 9.51681 17.9005 9.71892 17.9301C10.6429 18.0482 11.5956 18.1664 12.5196 18.2845C13.79 18.4618 15.0605 18.6391 16.3021 18.7868C17.3415 18.9345 18.3809 19.0526 19.4204 19.2003C20.7486 19.3776 22.0769 19.5548 23.4051 19.7616C24.3002 19.9093 25.1952 20.1161 26.0903 20.3524C26.9854 20.5887 27.6206 21.1795 28.0825 21.9771C28.5445 22.8043 28.891 23.661 29.122 24.5473C29.584 26.3493 29.9882 28.1217 30.4214 29.9237C30.5368 30.3668 30.6235 30.8099 30.7679 31.2234C30.7679 31.3712 30.8834 31.4598 31.0277 31.6371ZM41.6245 42.6262C41.6533 42.6262 41.7111 42.6262 41.7399 42.6262C41.9709 42.3604 42.0575 42.0059 42.1441 41.681C42.404 40.8538 42.6061 40.0266 42.8949 39.1995C43.097 38.6087 43.53 38.1951 44.1364 38.0769C45.1181 37.8701 46.071 37.6929 47.0527 37.5452C48.0055 37.3975 48.9583 37.2498 49.8823 37.1907C51.9323 37.0725 53.9246 37.3975 55.9458 37.752C56.6676 37.8997 57.1585 38.3133 57.3894 39.0223C57.6204 39.6722 57.8226 40.3221 58.0536 40.9424C58.1114 41.0901 58.2557 41.1787 58.3424 41.2969C58.4579 41.1787 58.5445 41.0606 58.66 40.9424C58.7178 40.8834 58.7177 40.7947 58.7466 40.7061C58.9198 40.2039 59.1219 39.6722 59.2951 39.17C59.555 38.3428 60.1326 37.8406 60.9699 37.6929C62.1826 37.4862 63.4241 37.3089 64.6657 37.1021C65.272 37.0135 65.8783 36.9544 66.4847 36.8658C66.6002 36.8362 66.7157 36.6885 66.8312 36.6294C66.7157 36.5408 66.6291 36.4522 66.5136 36.3931C66.5136 36.3931 66.4848 36.3931 66.4559 36.3931C65.8207 36.3045 65.2144 36.1863 64.5791 36.0977C63.3664 35.9204 62.1248 35.7432 60.9121 35.5659C59.9593 35.4182 59.3817 34.857 59.1219 33.9117C59.0064 33.4686 58.862 33.055 58.7177 32.6119C58.631 32.4051 58.6022 32.0802 58.3135 32.0802C58.0247 32.0802 57.9959 32.4051 57.9093 32.6414C57.7071 33.2027 57.5628 33.764 57.3607 34.3252C57.0719 35.0638 56.5811 35.5365 55.7726 35.6251C55.5128 35.6546 55.2817 35.7432 55.0219 35.7728C53.9824 35.9205 52.9429 36.1272 51.9034 36.1863C49.5935 36.3636 47.3125 35.9796 45.0026 35.6841C43.8477 35.5364 43.0393 34.9456 42.6061 33.8231C42.5195 33.5572 42.404 33.2913 42.3174 33.0255C42.173 32.5824 42.0286 32.1392 41.8554 31.7256C41.7688 31.4893 41.6532 31.4893 41.5089 31.7256C41.3934 31.962 41.278 32.1983 41.1914 32.4347C40.9604 33.0255 40.7871 33.6458 40.5561 34.2662C40.354 34.8274 39.9786 35.3001 39.3722 35.4774C38.8814 35.6251 38.4194 35.7728 37.9285 35.8319C36.6003 36.0091 35.2722 36.1272 33.9729 36.3045C33.5687 36.3635 33.1644 36.4818 32.7602 36.5704C32.6735 36.5999 32.6157 36.6885 32.558 36.7476C32.6157 36.8067 32.6735 36.8953 32.7602 36.9248C32.9045 36.9839 33.0489 37.043 33.2222 37.0726C34.2905 37.2498 35.3587 37.3975 36.4559 37.5452C37.3222 37.6929 38.2173 37.7815 39.0835 37.9588C39.8342 38.1065 40.354 38.5201 40.5561 39.3177C40.7582 40.1448 41.047 40.9719 41.3068 41.7695C41.3646 42.0945 41.509 42.3604 41.6245 42.6262ZM43.3569 27.4422C43.3569 27.4717 43.3569 27.5309 43.3569 27.5604C43.5013 27.6195 43.6744 27.7376 43.8188 27.7672C44.7138 27.9444 45.6378 28.0922 46.5618 28.2399C47.6878 28.4171 48.8429 28.5352 49.969 28.7125C50.7774 28.8602 51.3837 29.2738 51.6147 30.16C51.8168 30.9281 52.0768 31.6666 52.3078 32.4347C52.3944 32.7005 52.481 32.9663 52.5965 33.2027C52.712 33.4095 52.8274 33.4095 52.9429 33.2027C53.0295 33.055 53.0873 32.8778 53.1451 32.7301C53.3761 31.9325 53.6359 31.1349 53.838 30.3077C54.0979 29.392 54.7043 28.8898 55.6283 28.742C56.6677 28.5943 57.7071 28.3876 58.7466 28.2399C59.7283 28.1217 60.7388 28.0035 61.7494 27.9445C62.3558 27.9149 62.991 27.974 63.5973 28.0626C64.5213 28.1808 65.4452 28.2989 66.3403 28.4761C67.0333 28.5943 67.5243 29.0079 67.7552 29.7464C67.9285 30.3077 68.1017 30.8394 68.3038 31.4007C68.3904 31.6666 68.5059 31.9324 68.6502 32.1983C68.7368 32.4051 68.8812 32.3756 68.9679 32.1983C69.0256 32.0506 69.0834 31.9029 69.1411 31.7256C69.3432 31.0757 69.5165 30.3963 69.7764 29.7464C70.0074 29.067 70.5271 28.6238 71.1912 28.4761C72.1152 28.2694 73.0392 28.1217 73.9631 27.9445C74.5406 27.8558 75.1181 27.7672 75.6955 27.6785C75.811 27.649 75.8975 27.5309 76.013 27.4718C75.8975 27.3832 75.811 27.2355 75.6955 27.2059C75.3202 27.1173 74.9447 27.0582 74.5694 26.9991C73.4721 26.7923 72.375 26.5265 71.2778 26.3492C70.4693 26.2015 69.9497 25.7289 69.632 24.9608C69.4877 24.5768 69.3722 24.1928 69.1989 23.8087C69.1123 23.5724 68.939 23.3952 68.7946 23.1293C68.6791 23.3065 68.5925 23.3656 68.5348 23.4838C68.3038 23.986 68.044 24.4586 67.8707 24.9904C67.6108 25.7584 67.091 26.231 66.3403 26.4083C65.9361 26.4969 65.503 26.6151 65.0988 26.6742C64.146 26.8219 63.2221 26.9991 62.2692 27.0287C60.1903 27.1468 58.1402 26.7333 56.0901 26.4674C54.8774 26.3197 54.0979 25.6107 53.6937 24.4586C53.5204 23.9564 53.3761 23.4542 53.174 22.952C53.0874 22.7452 52.9429 22.5385 52.8274 22.3317C52.6831 22.5385 52.5099 22.7157 52.4232 22.9225C52.1922 23.5133 51.9901 24.1337 51.788 24.754C51.4992 25.6107 50.9795 26.2015 50.0844 26.3492C49.1316 26.5265 48.1788 26.6742 47.197 26.8219C46.1576 26.9696 45.147 27.0877 44.1075 27.2354C43.8188 27.2354 43.5879 27.3536 43.3569 27.4422Z" fill="white"/>
<path d="M31.0276 31.6367C30.8833 31.4595 30.7678 31.3708 30.7389 31.2231C30.5945 30.78 30.5078 30.3369 30.3924 29.9234C29.9592 28.1214 29.5261 26.3194 29.093 24.547C28.862 23.6312 28.5157 22.7745 28.0537 21.9769C27.5917 21.1498 26.9275 20.5885 26.0613 20.3522C25.1662 20.1159 24.2712 19.9091 23.3761 19.7614C22.0479 19.5546 20.7197 19.3774 19.3915 19.2001C18.3521 19.0524 17.3125 18.9048 16.2731 18.7866C15.0026 18.6093 13.7322 18.432 12.4906 18.2843C11.5666 18.1662 10.6139 18.048 9.68992 17.9299C9.45893 17.9003 9.14135 17.9299 9.14135 17.6345C9.11247 17.3391 9.4589 17.3391 9.66102 17.3096C10.4406 17.1914 11.2202 17.1028 11.9998 16.9846C13.328 16.8073 14.6273 16.6006 15.9555 16.4233C17.1393 16.2461 18.3232 16.0983 19.507 15.9211C21.4416 15.6257 23.405 15.5076 25.2818 15.0054C26.2635 14.7395 27.2741 14.385 27.8804 13.4988C28.2846 12.908 28.6311 12.2286 28.891 11.5492C29.5262 9.80627 30.0749 8.03383 30.6523 6.29094C30.6812 6.20231 30.71 6.08415 30.7678 5.99553C30.8544 5.87737 30.9699 5.72965 31.0565 5.75919C31.172 5.75919 31.3164 5.90687 31.3453 6.02503C31.5474 6.64538 31.7495 7.26579 31.9517 7.8566C32.3848 9.15638 32.7889 10.4857 33.2797 11.7559C33.6551 12.7603 34.2038 13.676 35.1278 14.2964C35.8496 14.769 36.6869 15.0054 37.5242 15.1531C39.17 15.419 40.8159 15.6553 42.4906 15.862C44.1653 16.0984 45.8399 16.2756 47.5146 16.4824C49.2182 16.6892 50.8929 16.9255 52.5964 17.0437C54.3577 17.1914 56.1189 17.1323 57.8514 16.8369C58.6887 16.6892 59.5261 16.6301 60.3634 16.5415C61.6916 16.3938 62.5579 15.6553 62.9621 14.3555C63.0776 13.9419 63.2219 13.5283 63.3663 13.1148C63.3952 13.0557 63.3951 12.9671 63.4529 12.908C63.5395 12.7603 63.655 12.6421 63.7416 12.5239C63.8571 12.6421 64.0015 12.7603 64.0592 12.908C64.3768 13.7056 64.6656 14.5032 64.9833 15.2712C65.272 15.9507 65.8494 16.2756 66.5135 16.3938C67.553 16.6006 68.5636 16.7483 69.6031 16.9255C70.296 17.0437 71.0178 17.1323 71.7108 17.2209C71.8552 17.2505 71.9995 17.28 72.115 17.3391C72.2016 17.3686 72.2883 17.4868 72.2883 17.5754C72.2883 17.664 72.1727 17.7526 72.115 17.7822C71.8551 17.8708 71.5954 17.9004 71.3355 17.9594C69.8052 18.2253 68.2749 18.4616 66.7446 18.7275C66.0805 18.8456 65.4452 19.0524 65.0987 19.7319C64.9255 20.0568 64.81 20.4408 64.6945 20.7953C64.4635 21.4747 64.2902 22.1542 64.0592 22.8336C64.0015 23.0404 63.8283 23.1881 63.6839 23.3654C63.5684 23.1881 63.3951 23.0108 63.3374 22.8041C63.0775 21.9474 62.8176 21.0907 62.5866 20.234C62.3268 19.2592 61.6627 18.7865 60.7677 18.6684C59.5838 18.5207 58.4288 18.373 57.245 18.2548C56.4076 18.1662 55.5704 18.0776 54.7331 18.1071C53.4049 18.1367 52.0766 18.2548 50.7773 18.373C49.7378 18.4616 48.7273 18.5798 47.6879 18.6684C46.4463 18.8161 45.2046 18.9638 43.963 19.1115C42.6637 19.2592 41.3644 19.4365 40.0651 19.5842C39.0256 19.7319 37.9862 19.85 36.9468 20.0568C35.1277 20.4703 33.9439 21.6225 33.3953 23.4244C32.8179 25.4037 32.2981 27.4124 31.7495 29.3916C31.6051 29.9529 31.4896 30.5141 31.3164 31.0754C31.2875 31.2822 31.172 31.4299 31.0276 31.6367Z" fill="#372120"/>
<path d="M41.6255 42.6258C41.51 42.3599 41.3656 42.0645 41.279 41.7986C41.0191 40.9715 40.7303 40.1738 40.5282 39.3467C40.3261 38.5196 39.8063 38.106 39.0556 37.9879C38.1894 37.8106 37.2944 37.722 36.4282 37.5742C35.3599 37.397 34.2915 37.2493 33.1943 37.1016C33.0499 37.0721 32.8767 37.013 32.7323 36.9539C32.6457 36.9244 32.588 36.8357 32.5303 36.7767C32.588 36.7176 32.6457 36.6289 32.7323 36.5994C33.1365 36.4812 33.5408 36.3631 33.9451 36.3335C35.2733 36.1563 36.6014 36.0381 37.9007 35.8609C38.3915 35.8018 38.8824 35.6541 39.3444 35.5064C39.9507 35.3291 40.2972 34.8565 40.5282 34.2952C40.7592 33.7044 40.9325 33.084 41.1635 32.4637C41.2501 32.2273 41.3656 31.991 41.4811 31.7547C41.5966 31.5479 41.712 31.5479 41.8275 31.7547C42.0008 32.1683 42.1452 32.6114 42.2895 33.0545C42.3762 33.3203 42.4917 33.5863 42.5783 33.8521C43.0114 34.9747 43.8198 35.5655 44.9748 35.7132C47.2558 36.0086 49.5369 36.4222 51.8757 36.2154C52.9151 36.1268 53.9545 35.9495 54.994 35.8018C55.2539 35.7723 55.4849 35.6836 55.7448 35.6541C56.5243 35.5359 57.0441 35.0928 57.3328 34.3543C57.5349 33.793 57.7081 33.2318 57.8814 32.6705C57.968 32.4342 57.9968 32.1092 58.2856 32.1092C58.5743 32.1092 58.6032 32.4341 58.6898 32.6409C58.8342 33.0545 58.9786 33.4976 59.0941 33.9407C59.354 34.886 59.9314 35.4473 60.8842 35.595C62.0969 35.7723 63.3386 35.9495 64.5512 36.1268C65.1865 36.2154 65.7928 36.304 66.428 36.4222C66.4569 36.4222 66.4568 36.4222 66.4857 36.4222C66.6012 36.5108 66.7167 36.5994 66.8033 36.6585C66.6879 36.7471 66.5724 36.8948 66.4569 36.8948C65.8506 36.9834 65.2442 37.0425 64.6378 37.1311C63.3962 37.3084 62.1836 37.4856 60.942 37.722C60.1336 37.8697 59.5271 38.3423 59.2673 39.199C59.094 39.7307 58.8919 40.2329 58.7187 40.7351C58.6898 40.8237 58.6899 40.9124 58.6321 40.9715C58.5455 41.0896 58.43 41.2078 58.3145 41.3259C58.2279 41.2078 58.0835 41.1192 58.0257 40.9715C57.7948 40.3216 57.5638 39.6717 57.3617 39.0513C57.1307 38.3423 56.6399 37.9287 55.918 37.781C53.9257 37.397 51.9046 37.0721 49.8545 37.2198C48.9017 37.2789 47.9488 37.4265 47.0248 37.5742C46.0431 37.722 45.0614 37.8992 44.1085 38.106C43.5022 38.2242 43.0691 38.6082 42.867 39.2286C42.6072 40.0557 42.3761 40.8828 42.1163 41.71C42.0008 42.0349 41.9431 42.3894 41.7121 42.6553C41.7121 42.6257 41.6544 42.6258 41.6255 42.6258Z" fill="#372120"/>
<path d="M43.3576 27.4419C43.5886 27.3533 43.8196 27.2352 44.0506 27.2057C45.09 27.058 46.1005 26.9398 47.14 26.7921C48.0928 26.6444 49.0745 26.4967 50.0273 26.3195C50.9224 26.1718 51.4423 25.5514 51.731 24.7243C51.9331 24.1039 52.1352 23.5131 52.3662 22.8928C52.4528 22.686 52.626 22.5088 52.7704 22.302C52.8859 22.5088 53.0303 22.6861 53.1169 22.9224C53.319 23.4246 53.4633 23.9267 53.6366 24.4289C54.0408 25.5809 54.8205 26.2899 56.0332 26.4376C58.0832 26.7035 60.1332 27.117 62.2122 26.9988C63.165 26.9398 64.1178 26.7625 65.0417 26.6444C65.4748 26.5853 65.8792 26.4967 66.2834 26.3785C67.0341 26.2013 67.5538 25.7287 67.8136 24.9606C67.9869 24.4289 68.2468 23.9562 68.4778 23.454C68.5356 23.3654 68.6222 23.2768 68.7377 23.0996C68.9109 23.3654 69.0552 23.5427 69.1419 23.779C69.3151 24.163 69.4306 24.547 69.575 24.931C69.8637 25.6991 70.4124 26.1718 71.2208 26.3195C72.318 26.5263 73.4152 26.7626 74.5124 26.9693C74.8878 27.058 75.2631 27.0875 75.6385 27.1761C75.754 27.2057 75.8406 27.3533 75.9561 27.4419C75.8406 27.5306 75.754 27.6488 75.6385 27.6488C75.061 27.7669 74.4835 27.826 73.906 27.9146C72.9821 28.0919 72.0581 28.2396 71.1341 28.4464C70.47 28.5941 69.9503 29.0372 69.7193 29.7166C69.4884 30.3665 69.3151 31.0459 69.0841 31.6958C69.0263 31.8435 68.9976 32.0207 68.9109 32.1684C68.8243 32.3751 68.6799 32.3751 68.5933 32.1684C68.4489 31.9025 68.3334 31.6367 68.2468 31.3708C68.0446 30.8391 67.9003 30.2779 67.6982 29.7166C67.4672 29.0076 66.9764 28.5941 66.2834 28.4464C65.3594 28.2691 64.4643 28.1509 63.5404 28.0327C62.934 27.9441 62.2988 27.8851 61.6925 27.9146C60.6819 27.9737 59.7001 28.0623 58.6895 28.21C57.65 28.3577 56.6106 28.5645 55.5712 28.7122C54.6472 28.8599 54.0408 29.3325 53.7809 30.2778C53.55 31.0754 53.319 31.873 53.088 32.7001C53.0303 32.8773 52.9726 33.0251 52.886 33.1728C52.7705 33.3795 52.6549 33.4091 52.5394 33.1728C52.4239 32.9364 52.3084 32.6706 52.2507 32.4047C52.0197 31.6662 51.7599 30.8982 51.5577 30.1301C51.3268 29.2439 50.7203 28.8008 49.9119 28.6827C48.7858 28.5054 47.6598 28.3873 46.5048 28.21C45.5809 28.0623 44.6858 27.9146 43.7618 27.7373C43.5886 27.7078 43.4442 27.5897 43.2998 27.5306C43.3576 27.501 43.3576 27.4715 43.3576 27.4419Z" fill="#372120"/>
</svg>
