<svg width="55" height="56" viewBox="0 0 55 56" fill="none" xmlns="http://www.w3.org/2000/svg">
<path d="M27.4344 55.2078C25.8714 54.0085 24.3476 52.8092 22.7846 51.61C15.5951 46.0533 8.40544 40.5366 1.21588 34.9799C0.825146 34.6601 0.825108 34.6201 1.17677 34.3003C3.40397 32.3015 5.94388 30.9023 8.91348 30.4225C9.53866 30.3026 10.1247 30.1428 10.7889 30.3027C11.375 30.4226 12.0394 30.2627 12.6646 30.3027C14.2275 30.4226 15.7513 30.9023 17.2361 31.462C19.6196 32.3814 21.6125 33.9804 23.6052 35.5395C26.692 37.9381 29.7788 40.3367 32.9047 42.7352C32.9828 42.8152 33.0611 42.8552 33.1783 42.9351C33.569 42.5753 33.9596 42.1756 34.3894 41.7758C23.2143 33.101 12.0784 24.4261 0.864258 15.7513C1.37222 15.5514 1.84118 15.3515 2.31006 15.1516C5.6704 13.7525 8.91336 12.0735 12.1174 10.3146C14.579 8.95537 17.0017 7.55617 19.4243 6.07704C22.1594 4.39804 24.8165 2.67908 27.2781 0.600318C27.8251 0.120603 27.8251 0.120564 28.3721 0.560303C37.0465 6.99648 45.7209 13.4327 54.3952 19.8688C54.4343 19.9088 54.5125 19.9488 54.6297 20.0687C54.239 20.4685 53.8872 20.8682 53.5355 21.228C52.9885 21.7477 52.4415 22.2675 51.8163 22.7072C50.2534 23.7466 48.5341 24.2663 46.6976 24.5861C45.1738 24.8659 43.65 24.9058 42.1261 24.8259C40.3678 24.7459 38.6485 24.5861 37.0074 23.9065C36.265 23.5867 35.5617 23.0669 34.8975 22.5472C30.8338 19.4291 26.7701 16.311 22.7455 13.1928C22.7065 13.1529 22.6283 13.1129 22.5502 13.0729C22.0422 13.4327 21.5734 13.7525 21.0263 14.1522C31.8888 22.5872 42.7121 30.9823 53.5355 39.3773C52.4415 39.857 51.3866 40.2967 50.3316 40.8164C46.4242 42.6952 42.6732 44.854 39.0393 47.2126C36.0697 49.1314 33.1783 51.1303 30.2478 53.1691C29.3491 53.8087 28.5285 54.5683 27.6688 55.2878C27.5907 55.2079 27.5125 55.2078 27.4344 55.2078Z" fill="#372120"/>
</svg>
