<svg width="20" height="18" viewBox="0 0 20 18" fill="none" xmlns="http://www.w3.org/2000/svg">
<path d="M19.7597 0.818965C19.5733 0.66355 19.3165 0.623114 19.0913 0.713597L2.20667 7.52869C2.0359 7.59772 1.95343 7.79217 2.02246 7.96293C2.0915 8.1337 2.28594 8.21618 2.45671 8.14714L18.5866 1.63878L10.5853 11.0756C10.4663 11.2161 10.4837 11.4265 10.6242 11.5455C10.7647 11.6646 10.975 11.6472 11.0941 11.5067L19.2163 1.92648L18.1308 7.37534L17.0373 14.6821C17.0223 14.7844 16.9607 14.8739 16.8706 14.9245C16.7842 14.9728 16.6801 14.9776 16.5895 14.9375L12.0432 13.1499L9.8615 12.2365C9.69175 12.1652 9.49637 12.245 9.4251 12.4148C9.41784 12.4377 9.41311 12.4613 9.41112 12.4852H9.40311L8.31993 16.6678L6.76571 11.2386L14.867 5.20438C14.9705 5.13636 15.0278 5.01658 15.0157 4.89327C15.0037 4.76997 14.9242 4.66355 14.8095 4.6169C14.6948 4.57026 14.5636 4.59108 14.4689 4.67097L6.32599 10.7335L0.456399 8.35749C0.28606 8.28994 0.0931394 8.37249 0.0244177 8.54236C-0.0443039 8.71223 0.0369588 8.9057 0.20636 8.97559L6.10728 11.3633L7.68085 16.8568C7.76277 17.1406 8.02293 17.3356 8.31829 17.3346H8.32595C8.48695 17.3317 8.64123 17.2696 8.75934 17.1602C8.77098 17.1532 8.78211 17.1454 8.79266 17.1369L12.0152 13.8417L16.3358 15.555C16.6135 15.6729 16.9302 15.6552 17.193 15.507C17.4637 15.3568 17.6494 15.0894 17.6954 14.7832L18.7859 7.49005L19.9861 1.46875C20.036 1.227 19.9491 0.977349 19.7597 0.818965ZM9.25445 15.7133L9.95824 13.0005L11.0604 13.4632L11.3444 13.5759L9.25445 15.7133Z" fill="white"/>
</svg>
