<svg width="54" height="56" viewBox="0 0 54 56" fill="none" xmlns="http://www.w3.org/2000/svg">
<path d="M54 55.2876C35.9908 55.2876 17.9815 55.2876 0 55.2876C0 36.8623 0 18.437 0 0.0400391C18.0092 0.0400391 36.0185 0.0400391 54 0.0400391C54 18.4653 54 36.8623 54 55.2876ZM10.8886 16.7079C11.1934 14.2134 12.7727 13.4763 14.6845 13.2212C16.0421 13.0228 17.4551 13.0228 18.8127 12.8527C19.6993 12.7393 20.0318 13.1361 20.198 13.9582C21.7773 23.0858 23.3566 32.2135 24.9636 41.3411C25.6009 45.0545 26.2657 48.7395 26.9307 52.4529C27.2077 52.0277 27.3186 51.6309 27.4017 51.234C29.4243 39.6402 31.4191 28.0465 33.4417 16.4811C33.6356 15.3189 33.5526 13.6748 34.2453 13.1645C35.0211 12.5976 36.5172 12.9944 37.7086 13.0511C40.1745 13.1928 42.5849 13.448 43.2775 16.6511C45.9373 15.4322 48.237 14.0149 49.844 11.5204C44.4135 8.96923 38.8445 7.69364 33.0538 7.21175C32.5828 7.1834 31.9456 7.55187 31.5854 7.94872C30.0616 9.76291 28.5932 11.6338 27.0416 13.5614C25.5177 11.6338 24.0492 9.87633 22.6639 8.06215C22.0821 7.29679 21.4449 7.0133 20.5306 7.18338C18.7573 7.49519 16.9564 7.63694 15.2109 7.9771C11.4705 8.68576 7.81319 9.76293 4.23905 11.5204C5.84602 14.0149 8.14567 15.4039 10.8886 16.7079ZM3.32478 10.0464C19.2283 3.61173 34.938 3.64007 50.7307 10.0464C51.2017 9.08263 51.6173 8.17548 52.116 7.155C35.3259 0.550237 18.7019 0.550265 1.93946 7.18338C2.43817 8.2322 2.85377 9.11098 3.32478 10.0464Z" fill="white"/>
<path d="M10.8887 16.7081C8.14578 15.4041 5.84611 14.0151 4.21143 11.5206C7.78557 9.79148 11.4152 8.68597 15.1832 7.9773C16.9565 7.63714 18.7297 7.46705 20.5029 7.18358C21.4173 7.04185 22.0544 7.29699 22.6363 8.06235C24.0216 9.87654 25.4901 11.634 27.014 13.5616C28.5655 11.6057 30.034 9.73476 31.5578 7.94893C31.8903 7.55207 32.5552 7.15526 33.0262 7.21195C38.7892 7.69385 44.3859 8.96943 49.8164 11.5206C48.2094 14.0151 45.9099 15.4324 43.25 16.6513C42.5574 13.4765 40.1469 13.1931 37.681 13.0513C36.4896 12.9946 34.9935 12.5978 34.2177 13.1647C33.525 13.675 33.6359 15.3191 33.4142 16.4813C31.3916 28.0751 29.369 39.6688 27.3741 51.2342C27.291 51.6594 27.1803 52.0563 26.9032 52.4531C26.2382 48.7397 25.5732 45.0547 24.936 41.3413C23.329 32.2136 21.7497 23.086 20.1704 13.9584C20.0319 13.108 19.6717 12.7395 18.7851 12.8529C17.3998 13.023 16.0145 13.023 14.6568 13.2214C12.7728 13.4765 11.1935 14.2136 10.8887 16.7081Z" fill="#372120"/>
<path d="M3.32478 10.0466C2.88148 9.11119 2.43817 8.23242 1.93945 7.18359C18.7019 0.550467 35.2982 0.578786 52.116 7.15521C51.6173 8.17569 51.2017 9.08284 50.7307 10.0466C34.9103 3.64028 19.2283 3.61194 3.32478 10.0466Z" fill="#372120"/>
</svg>
