<svg width="79" height="52" viewBox="0 0 79 52" fill="none" xmlns="http://www.w3.org/2000/svg">
<path d="M35.2901 0.0864258C38.0965 0.0864258 40.9029 0.0864258 43.7093 0.0864258C45.1476 0.265877 46.5508 0.445363 47.9891 0.660704C55.7418 1.80919 63.0736 4.24969 69.4581 9.05897C73.5625 12.1455 76.7897 15.9499 78.2982 21.0822C78.5437 21.9794 78.7542 22.8767 78.9998 23.774C78.9998 25.1378 78.9998 26.4657 78.9998 27.8296C78.9296 27.9372 78.8243 28.0449 78.7892 28.1525C77.9473 33.9668 74.72 38.2377 70.4052 41.7908C65.1081 46.1335 58.9692 48.6817 52.4092 50.1173C49.5677 50.7275 46.6209 51.0505 43.7444 51.5171C40.938 51.5171 38.1316 51.5171 35.3252 51.5171C34.7288 51.4094 34.1324 51.3017 33.5361 51.2299C25.5729 50.4045 18.0308 48.2511 11.2954 43.7289C6.4193 40.4629 2.49034 36.3355 0.771424 30.4136C0.490784 29.3728 0.280304 28.332 0.0698242 27.2912C0.0698242 26.2863 0.0698242 25.3172 0.0698242 24.3123C0.139984 24.1329 0.245258 23.9893 0.280338 23.8099C0.981938 17.9598 4.13907 13.617 8.4539 10.028C14.1719 5.21871 20.9073 2.59877 28.0987 1.19906C30.414 0.732484 32.8696 0.445328 35.2901 0.0864258ZM42.236 48.8971C42.657 48.8971 42.9375 48.8971 43.2182 48.8971C47.8487 48.61 52.304 47.6409 56.6188 45.9182C61.6002 43.9083 66.0202 41.1448 69.3528 36.7662C72.4749 32.6747 73.7729 28.0808 72.6153 22.9126C71.9839 20.1491 70.7209 17.7085 68.8266 15.5192C67.8092 17.9597 66.7217 19.2518 64.4065 20.7233C61.3896 22.6255 58.0921 23.7739 54.6543 24.5635C52.8301 24.9942 51.0059 25.3172 49.1818 25.6761C49.0064 28.2244 48.9363 30.7008 48.5855 33.1413C47.8488 38.8479 46.6912 44.4826 42.236 48.8971ZM29.8878 25.6402C29.3265 25.5326 28.7653 25.4249 28.204 25.3172C21.3634 23.8099 14.3474 22.7332 10.1027 15.914C9.96241 16.0935 9.82202 16.2729 9.6817 16.4165C4.59511 23.3433 5.22665 31.921 11.3656 38.4172C16.4172 43.7289 22.7666 46.4924 29.7124 47.9639C31.9575 48.4305 34.2378 48.6458 36.7635 49.0406C30.7298 42.1856 30.2386 34.0385 29.8878 25.6402ZM48.7258 19.2159C52.3741 18.6417 55.8821 17.852 59.0393 16.0216C60.5828 15.1244 62.1614 14.1195 62.1614 12.0379C62.1263 9.95625 60.6179 8.77182 59.0042 8.12579C56.0925 6.94142 53.0757 5.9724 50.0588 5.18282C47.9189 4.64446 45.6387 4.53681 43.0428 4.2138C46.7963 8.77185 47.8137 13.9401 48.7258 19.2159ZM30.3088 19.2159C31.1858 13.8683 32.2733 8.73594 35.7813 4.46501C35.5358 4.39323 35.4304 4.35732 35.2901 4.35732C30.0982 4.71623 25.0468 5.57759 20.311 7.94634C18.6272 8.80771 16.9434 9.77678 16.8382 11.9302C16.7329 14.0836 18.4168 15.0885 19.9953 16.0216C23.1876 17.852 26.6254 18.6058 30.3088 19.2159ZM33.8519 26.1427C33.9923 27.5425 34.0273 28.7985 34.2027 30.0188C34.6588 33.1413 35.185 36.2279 37.0091 38.8838C38.5176 41.0731 40.4469 41.1448 41.8852 38.9914C44.4461 35.1511 44.832 30.7007 45.0775 26.1786C41.2889 26.1427 37.6757 26.1427 33.8519 26.1427ZM44.867 19.7183C44.4461 16.2729 43.8847 13.1863 42.1658 10.4587C40.517 7.87456 38.3773 7.87463 36.8337 10.5305C35.9567 12.0379 35.3955 13.7964 34.9043 15.4833C34.4834 16.8112 34.378 18.211 34.0974 19.7543C37.8159 19.7184 41.2538 19.7183 44.867 19.7183Z" fill="#372120"/>
</svg>
