<svg width="21" height="22" viewBox="0 0 21 22" fill="none" xmlns="http://www.w3.org/2000/svg">
<path d="M20.5303 5.22899L20.524 5.20389C20.0174 3.15162 17.7334 0.949427 15.6359 0.491275L15.6122 0.486394C12.2196 -0.162131 8.77969 -0.162131 5.38779 0.486394L5.36343 0.491275C3.26664 0.949427 0.982635 3.15162 0.475312 5.20389L0.469744 5.22899C-0.156581 8.09506 -0.156581 11.0016 0.469744 13.8676L0.475312 13.8927C0.960992 15.8574 3.07491 17.9584 5.09411 18.5362V20.8271C5.09411 21.6563 6.1025 22.0635 6.67593 21.4652L8.99229 19.0525C9.49468 19.0807 9.99734 19.0963 10.5 19.0963C12.2078 19.0963 13.9163 18.9346 15.6122 18.6103L15.6359 18.6054C17.7334 18.1473 20.0174 15.9451 20.524 13.8928L20.5303 13.8677C21.1566 11.0016 21.1566 8.09506 20.5303 5.22899ZM18.6972 13.452C18.359 14.7909 16.6248 16.4555 15.2469 16.763C13.443 17.1067 11.6248 17.2536 9.80847 17.2032C9.77235 17.2022 9.73762 17.2162 9.71243 17.2422C9.45466 17.5073 8.02114 18.9819 8.02114 18.9819L6.2222 20.832C6.09067 20.9693 5.85962 20.8759 5.85962 20.6862V16.8911C5.85962 16.8285 5.81494 16.7752 5.7535 16.7631C5.75315 16.7631 5.7528 16.763 5.75245 16.7629C4.37454 16.4554 2.64101 14.7908 2.30209 13.4519C1.7384 10.8613 1.7384 8.23515 2.30209 5.64454C2.64101 4.30565 4.37454 2.6411 5.75245 2.33357C8.90287 1.73317 12.0971 1.73317 15.2469 2.33357C16.6255 2.6411 18.359 4.30565 18.6972 5.64454C19.2615 8.23522 19.2615 10.8614 18.6972 13.452Z" fill="white"/>
<path d="M13.4973 15.2039C13.2855 15.1395 13.0836 15.0961 12.8961 15.0182C10.9534 14.2105 9.16544 13.1686 7.74918 11.5713C6.94379 10.663 6.31343 9.63759 5.78056 8.55239C5.52788 8.03775 5.31493 7.50296 5.09787 6.97166C4.89995 6.48715 5.19147 5.9866 5.49844 5.62154C5.78648 5.27894 6.15713 5.01674 6.55853 4.8235C6.87183 4.67267 7.18089 4.75963 7.40971 5.02573C7.90437 5.60104 8.35873 6.20577 8.72666 6.87263C8.9529 7.28281 8.89083 7.7842 8.48079 8.06334C8.38114 8.13119 8.29032 8.21083 8.19749 8.28747C8.11606 8.35462 8.03944 8.42247 7.98363 8.5134C7.88161 8.67979 7.87674 8.87602 7.94243 9.05691C8.44809 10.4494 9.30038 11.5321 10.699 12.1153C10.9228 12.2086 11.1476 12.3173 11.4055 12.2871C11.8373 12.2366 11.9771 11.762 12.2797 11.514C12.5754 11.2717 12.9534 11.2685 13.272 11.4705C13.5906 11.6726 13.8996 11.8895 14.2066 12.1087C14.508 12.3239 14.8081 12.5345 15.0861 12.7798C15.3534 13.0157 15.4455 13.3252 15.2949 13.6453C15.0194 14.2317 14.6184 14.7194 14.0399 15.0308C13.8766 15.1186 13.6815 15.1471 13.4973 15.2039C13.2855 15.1394 13.6815 15.1471 13.4973 15.2039Z" fill="white"/>
<path d="M10.505 4.15291C13.0462 4.22425 15.1333 5.91412 15.5806 8.43151C15.6568 8.86044 15.6839 9.299 15.7178 9.73435C15.7321 9.91747 15.6286 10.0915 15.4313 10.0938C15.2277 10.0963 15.136 9.92549 15.1228 9.74244C15.0966 9.3801 15.0785 9.01616 15.0286 8.65682C14.7656 6.75999 13.2561 5.1907 11.3719 4.85395C11.0884 4.80325 10.7982 4.78993 10.511 4.75974C10.3294 4.74063 10.0916 4.72961 10.0514 4.50347C10.0177 4.31386 10.1774 4.16289 10.3575 4.15319C10.4065 4.15047 10.4558 4.15271 10.505 4.15291C13.0462 4.22425 10.4558 4.15271 10.505 4.15291Z" fill="white"/>
<path d="M14.3673 9.16924C14.3632 9.20104 14.3609 9.27579 14.3424 9.34622C14.2749 9.60187 13.8881 9.63387 13.7991 9.37586C13.7727 9.29929 13.7687 9.21219 13.7686 9.12977C13.7677 8.59045 13.6507 8.05168 13.3793 7.58244C13.1003 7.10016 12.674 6.69473 12.1741 6.4494C11.8718 6.30108 11.5448 6.20889 11.2135 6.15394C11.0687 6.12995 10.9223 6.11538 10.7768 6.09508C10.6005 6.07054 10.5063 5.95792 10.5147 5.78379C10.5225 5.62061 10.6415 5.50325 10.8189 5.51329C11.4021 5.54649 11.9654 5.67278 12.4838 5.94788C13.5382 6.50735 14.1404 7.39046 14.3162 8.56967C14.3241 8.62308 14.3369 8.67601 14.341 8.72963C14.3509 8.86206 14.3572 8.99462 14.3673 9.16924C14.3632 9.20104 14.3572 8.99462 14.3673 9.16924Z" fill="white"/>
<path d="M12.7865 9.10764C12.5739 9.11148 12.4601 8.99356 12.4382 8.79823C12.423 8.66204 12.4109 8.52404 12.3785 8.39155C12.3146 8.1306 12.1762 7.88876 11.9571 7.72886C11.8537 7.65334 11.7365 7.59832 11.6137 7.56283C11.4578 7.51771 11.2958 7.53012 11.1402 7.49191C10.9713 7.45042 10.8778 7.31332 10.9044 7.15447C10.9285 7.00991 11.0689 6.89708 11.2265 6.90851C12.2117 6.97978 12.9159 7.49016 13.0164 8.65235C13.0235 8.73436 13.0318 8.82104 13.0137 8.89949C12.9825 9.0338 12.8833 9.10109 12.7865 9.10764C12.5739 9.11148 12.8833 9.10109 12.7865 9.10764Z" fill="white"/>
</svg>
