<svg width="54" height="56" viewBox="0 0 54 56" fill="none" xmlns="http://www.w3.org/2000/svg">
<path fill-rule="evenodd" clip-rule="evenodd" d="M0 0.0400391H54V55.2876H0V0.0400391Z" fill="white"/>
<path fill-rule="evenodd" clip-rule="evenodd" d="M26.9896 0.861328C12.5155 0.861328 0.782227 12.8662 0.782227 27.6741C0.782227 42.4822 12.5158 54.4868 26.9896 54.4868C41.4629 54.4868 53.197 42.4822 53.197 27.6741C53.197 12.8665 41.4629 0.861328 26.9896 0.861328ZM26.9896 52.0828C13.8132 52.0828 3.13196 41.1548 3.13196 27.6741C3.13196 14.1939 13.8132 3.26563 26.9896 3.26563C40.1655 3.26563 50.8473 14.1939 50.8473 27.6741C50.8473 41.1548 40.1655 52.0828 26.9896 52.0828Z" fill="#372120"/>
<path fill-rule="evenodd" clip-rule="evenodd" d="M21.7661 9.43786C23.463 8.93104 25.2218 8.6746 26.9895 8.67628C28.8008 8.67628 30.5518 8.9417 32.207 9.43642L26.9895 21.2686L21.7661 9.43786Z" fill="#372120"/>
<path fill-rule="evenodd" clip-rule="evenodd" d="M36.9571 11.6426C38.9125 12.9188 40.6185 14.5564 41.988 16.4715L33.4245 35.8595L30.12 28.342H23.8589L20.5547 35.8593L12.0035 16.4535C13.3704 14.5459 15.0718 12.9147 17.021 11.6429L23.8589 27.163H30.1413L36.9571 11.6426ZM9.04777 22.7574C8.62976 24.3614 8.41868 26.0144 8.41993 27.6744C8.41993 35.1197 12.6053 41.5642 18.7003 44.6802L9.04777 22.7574Z" fill="#372120"/>
<path fill-rule="evenodd" clip-rule="evenodd" d="M21.8525 45.9362C23.5228 46.4264 25.252 46.6743 26.9896 46.6726C28.7698 46.6726 30.4911 46.4161 32.1205 45.9382L26.9896 34.2798L21.8525 45.9362ZM35.278 44.6799C41.3732 41.5639 45.5586 35.1194 45.5586 27.674C45.5586 25.9886 45.344 24.3545 44.942 22.7986L35.278 44.6799Z" fill="#372120"/>
</svg>
