<svg width="55" height="56" viewBox="0 0 55 56" fill="none" xmlns="http://www.w3.org/2000/svg">
<path d="M43.1886 5.49037C43.5946 5.05691 43.9653 4.67763 44.389 4.22611C43.2592 3.26888 42.0059 2.51035 40.7172 1.76986C40.6289 1.44476 40.6289 1.13771 40.7172 0.758429C44.9186 0.758429 49.1023 0.758429 53.3567 0.758429C53.3567 5.07498 53.3567 9.39154 53.3567 13.7262C53.0389 13.7262 52.7565 13.7262 52.4034 13.7262C51.6444 12.4619 50.9206 11.1073 49.9143 9.87918C49.4907 10.2946 49.1023 10.6919 48.714 11.0892C58.2643 24.1473 54.1865 41.865 42.7473 50.1369C31.6965 58.1379 16.5148 56.693 7.40586 46.6692C-1.98556 36.3564 -2.4975 20.9144 6.17014 10.0779C14.8201 -0.686424 30.8668 -3.68456 43.1886 5.49037ZM7.35293 32.7443C9.31242 41.3051 17.4681 49.27 28.6601 48.4211C38.8283 47.6445 45.3246 39.5532 46.6662 32.7443C33.5676 32.7443 20.4868 32.7443 7.35293 32.7443ZM46.6839 22.6482C44.9009 14.3944 36.8335 6.23087 25.6238 6.93524C17.0268 7.47707 7.70592 15.5142 7.45878 22.6482C20.4867 22.6482 33.55 22.6482 46.6839 22.6482ZM42.659 30.4144C43.3651 30.4325 44.0712 30.3602 44.7244 30.0713C45.6953 29.6378 46.2778 28.8973 46.3131 27.7956C46.3484 26.6758 45.7836 25.8992 44.8126 25.4657C43.4004 24.8336 41.9528 24.8336 40.5582 25.5018C39.6932 25.9172 39.1989 26.6577 39.146 27.633C39.1107 28.5722 39.4991 29.3308 40.2934 29.8365C41.0172 30.2699 41.8117 30.4325 42.659 30.4144ZM20.2397 30.4144C20.9458 30.4325 21.6518 30.3602 22.305 30.0713C23.3112 29.6197 23.8938 28.8612 23.9114 27.7053C23.9114 26.5855 23.3113 25.8269 22.358 25.4115C20.9281 24.7975 19.4806 24.7975 18.1036 25.5199C16.4266 26.4049 16.2853 28.6625 17.8211 29.7462C18.5273 30.2699 19.357 30.4325 20.2397 30.4144ZM36.1626 30.2158C36.9394 28.7528 37.7161 27.3079 38.4575 25.9173C38.8989 25.8811 39.2343 25.8631 39.5697 25.845C39.6227 25.5561 39.7109 25.3212 39.5167 25.1767C38.3516 25.1767 37.2395 25.1767 36.145 25.1767C36.145 25.4296 36.0568 25.6463 36.198 25.7908C36.4628 26.0076 36.8158 25.7186 37.063 26.0617C36.551 27.019 36.0391 27.9943 35.4742 29.0779C34.8916 27.9762 34.3444 26.9648 33.7795 25.9173C34.2385 25.8811 34.5915 25.8631 34.9975 25.845C34.9799 25.5922 35.1212 25.3573 34.8917 25.1767C33.2323 25.1767 31.6082 25.1767 29.9841 25.1767C29.9488 25.4296 29.8958 25.6463 30.0547 25.8811C30.3724 25.8811 30.7079 25.8811 31.0786 25.8811C31.873 27.3441 32.6497 28.7889 33.4264 30.2158C34.362 30.2158 35.2623 30.2158 36.1626 30.2158ZM17.221 25.8992C17.1327 25.5921 17.3092 25.3573 17.0797 25.1767C15.9499 25.1767 14.8378 25.1767 13.7433 25.1767C13.655 25.4296 13.6374 25.6283 13.761 25.8089C14.0081 26.0075 14.3435 25.7547 14.6259 26.0617C14.114 27.037 13.5844 28.0123 13.0195 29.096C12.4193 27.9582 11.8898 26.9829 11.3249 25.9353C11.7838 25.8992 12.1192 25.8811 12.4546 25.8631C12.5782 25.6102 12.6135 25.3935 12.437 25.1767C10.7952 25.1767 9.15354 25.1767 7.52946 25.1767C7.4765 25.4477 7.38819 25.6824 7.65298 25.8992C7.93543 25.8992 8.27084 25.8992 8.6239 25.8992C9.41828 27.3621 10.2127 28.807 10.9718 30.2338C11.9427 30.2338 12.8254 30.2338 13.708 30.2338C14.4848 28.7709 15.2438 27.344 16.0205 25.8992C16.4265 25.8992 16.7443 25.8992 17.221 25.8992ZM24.2468 30.1977C26.5947 30.1977 28.8719 30.1977 31.1315 30.1977C31.1315 29.3849 31.1315 28.6444 31.1315 27.9039C30.8844 27.8678 30.6725 27.8317 30.496 27.9401C30.0723 29.3308 29.4545 29.6559 27.7951 29.3669C27.7951 28.211 27.7951 27.0731 27.7951 25.8992C28.1835 25.8811 28.4836 25.8631 28.8014 25.845C28.8896 25.5561 28.9602 25.3393 28.766 25.1587C27.2479 25.1587 25.765 25.1587 24.2645 25.1587C24.2822 25.4296 24.141 25.6825 24.3704 25.845C24.7059 25.9353 25.0412 25.7728 25.3237 25.9714C25.3237 27.1454 25.3237 28.3013 25.3237 29.4391C24.9353 29.4572 24.6176 29.4753 24.2645 29.4933C24.2469 29.7462 24.2468 29.9448 24.2468 30.1977Z" fill="#372120"/>
<path d="M7.35303 32.7441C20.4869 32.7441 33.5678 32.7441 46.6664 32.7441C45.3247 39.5532 38.8284 47.6264 28.6602 48.4211C17.4682 49.27 9.31252 41.3051 7.35303 32.7441Z" fill="#FEFEFE"/>
<path d="M46.6841 22.6484C33.5502 22.6484 20.5046 22.6484 7.45898 22.6484C7.70613 15.5145 17.027 7.47759 25.624 6.93577C36.8337 6.21335 44.9011 14.3767 46.6841 22.6484Z" fill="#FEFEFE"/>
<path d="M42.6588 30.4149C41.8115 30.433 41.017 30.2704 40.2932 29.8189C39.4988 29.3132 39.1105 28.5546 39.1458 27.6153C39.1811 26.64 39.6754 25.8995 40.558 25.4841C41.9703 24.8158 43.4002 24.8158 44.8124 25.448C45.7833 25.8814 46.3306 26.6581 46.3129 27.7779C46.2776 28.8797 45.6951 29.6202 44.7242 30.0537C44.071 30.3607 43.3649 30.433 42.6588 30.4149ZM41.4937 27.7237C41.529 27.9947 41.5113 28.2656 41.5819 28.5184C41.7408 29.0964 42.0586 29.5841 42.7117 29.6021C43.3296 29.6202 43.665 29.1687 43.8238 28.6268C44.0004 28.085 44.0534 27.525 43.8945 26.9471C43.7003 26.3149 43.4355 25.8092 42.7117 25.8273C41.9879 25.8453 41.7408 26.3872 41.5643 27.0013C41.5113 27.2361 41.529 27.4889 41.4937 27.7237Z" fill="white"/>
<path d="M20.2397 30.4144C19.3747 30.4324 18.5273 30.2699 17.8035 29.7642C16.2677 28.6805 16.3913 26.4229 18.086 25.5379C19.4629 24.8154 20.9281 24.8155 22.3404 25.4295C23.3113 25.8449 23.9114 26.6035 23.8938 27.7233C23.8938 28.8792 23.3112 29.6378 22.2873 30.0893C21.6342 30.3602 20.9458 30.4324 20.2397 30.4144ZM19.0746 27.7414C19.1099 28.0123 19.1099 28.2832 19.1805 28.536C19.3394 29.114 19.6571 29.6016 20.3103 29.6197C20.9105 29.6197 21.2458 29.1862 21.4224 28.6263C21.5989 28.0845 21.6343 27.5246 21.4754 26.9467C21.2988 26.3687 21.0693 25.863 20.3809 25.845C19.6571 25.8088 19.357 26.3326 19.1805 26.9286C19.0922 27.1815 19.1099 27.4705 19.0746 27.7414Z" fill="white"/>
<path d="M36.1626 30.2156C35.2447 30.2156 34.3443 30.2156 33.4087 30.2156C32.632 28.7888 31.8553 27.3439 31.0609 25.8809C30.6902 25.8809 30.3548 25.8809 30.0371 25.8809C29.8605 25.6461 29.9134 25.4294 29.9664 25.1765C31.5905 25.1765 33.2322 25.1765 34.874 25.1765C35.0858 25.3571 34.9446 25.5739 34.9799 25.8448C34.5739 25.8629 34.2384 25.899 33.7618 25.917C34.3267 26.9826 34.8739 27.976 35.4565 29.0777C36.0214 27.9941 36.5333 27.0188 37.0453 26.0615C36.7981 25.7184 36.4451 25.9893 36.1803 25.7906C36.0391 25.6461 36.1274 25.4294 36.1274 25.1765C37.2395 25.1765 38.3339 25.1765 39.499 25.1765C39.6932 25.321 39.5873 25.5558 39.552 25.8448C39.2166 25.8629 38.8812 25.899 38.4398 25.917C37.7161 27.3258 36.9394 28.7526 36.1626 30.2156Z" fill="white"/>
<path d="M17.2213 25.899C16.7447 25.899 16.4269 25.899 16.0562 25.899C15.2971 27.3439 14.5204 28.7707 13.7436 30.2336C12.8433 30.2336 11.9783 30.2336 11.0074 30.2336C10.2483 28.8249 9.45396 27.3619 8.65958 25.899C8.28886 25.899 7.97111 25.899 7.68866 25.899C7.44151 25.6822 7.52975 25.4474 7.56505 25.1765C9.20679 25.1765 10.8309 25.1765 12.4727 25.1765C12.6492 25.3932 12.6138 25.61 12.4902 25.8628C12.1548 25.8809 11.8194 25.899 11.3605 25.9351C11.9254 26.9827 12.4373 27.976 13.0552 29.0958C13.6377 28.0122 14.1497 27.0368 14.6616 26.0615C14.3792 25.7726 14.0438 26.0073 13.7966 25.8087C13.6731 25.628 13.7084 25.4294 13.779 25.1765C14.8735 25.1765 15.9856 25.1765 17.1154 25.1765C17.3272 25.3571 17.133 25.5919 17.2213 25.899Z" fill="white"/>
<path d="M24.2467 30.1975C24.2467 29.9446 24.2467 29.746 24.2467 29.5112C24.5998 29.4931 24.9175 29.4751 25.3059 29.457C25.3059 28.3011 25.3059 27.1632 25.3059 25.9893C25.0235 25.7906 24.6881 25.9531 24.3527 25.8628C24.1232 25.7003 24.2644 25.4474 24.2467 25.1765C25.7472 25.1765 27.2301 25.1765 28.7483 25.1765C28.9425 25.3571 28.8719 25.5739 28.7836 25.8628C28.4835 25.8809 28.1657 25.899 27.7773 25.917C27.7773 27.091 27.7773 28.2288 27.7773 29.3847C29.4367 29.6737 30.0546 29.3486 30.4783 27.9579C30.6725 27.8315 30.8666 27.8676 31.1138 27.9218C31.1138 28.6623 31.1138 29.4028 31.1138 30.2156C28.8895 30.1975 26.6122 30.1975 24.2467 30.1975Z" fill="white"/>
<path d="M41.4937 27.7234C41.5113 27.4886 41.5113 27.2358 41.5642 27.001C41.7231 26.405 41.9879 25.8452 42.7117 25.8271C43.4355 25.8091 43.7003 26.3147 43.8945 26.9468C44.071 27.5247 44.0003 28.0846 43.8238 28.6263C43.6473 29.1681 43.3295 29.6196 42.7117 29.6015C42.0585 29.5835 41.7408 29.0959 41.5819 28.518C41.5113 28.2832 41.529 27.9943 41.4937 27.7234Z" fill="#372120"/>
<path d="M19.0742 27.7416C19.1095 27.4707 19.0919 27.1817 19.1802 26.9469C19.3743 26.351 19.6568 25.8272 20.3806 25.8633C21.0514 25.8995 21.2986 26.3871 21.4751 26.965C21.634 27.543 21.5986 28.1028 21.4221 28.6446C21.2456 29.1864 20.9278 29.6379 20.31 29.6379C19.6568 29.6379 19.339 29.1323 19.1802 28.5543C19.1095 28.2834 19.1095 28.0125 19.0742 27.7416Z" fill="#372120"/>
</svg>
