<svg width="18" height="18" viewBox="0 0 18 18" fill="none" xmlns="http://www.w3.org/2000/svg">
<path d="M9 0C4.03719 0 0 4.03719 0 9C0 10.693 0.470423 12.3366 1.36281 13.7638C1.00731 15.0092 0.365192 17.3652 0.358269 17.3897C0.325038 17.5116 0.360692 17.6417 0.451731 17.7293C0.542769 17.8169 0.674308 17.848 0.794077 17.8113L4.36154 16.714C5.75896 17.5559 7.35923 18 9 18C13.9628 18 18 13.9628 18 9C18 4.03719 13.9628 0 9 0ZM9 17.3077C7.43573 17.3077 5.91196 16.8705 4.59312 16.0439C4.53738 16.0089 4.47335 15.9913 4.40931 15.9913C4.37504 15.9913 4.34077 15.9965 4.30754 16.0065L1.1925 16.9653C1.42131 16.1301 1.83254 14.6361 2.07104 13.805C2.09873 13.7087 2.08315 13.6049 2.02881 13.5208C1.15442 12.1753 0.692308 10.612 0.692308 9C0.692308 4.41935 4.41935 0.692308 9 0.692308C13.5807 0.692308 17.3077 4.41935 17.3077 9C17.3077 13.5807 13.5807 17.3077 9 17.3077Z" fill="white"/>
<path d="M14.8795 11.1205C14.2405 10.7657 13.6963 10.4098 13.2993 10.1502C12.996 9.9522 12.7769 9.80924 12.6163 9.72858C12.1674 9.50462 11.8271 9.66281 11.6976 9.79366C11.6814 9.80993 11.6668 9.82758 11.6544 9.84627C11.1881 10.5459 10.5792 11.215 10.4009 11.251C10.195 11.2188 9.23093 10.6708 8.27278 9.87293C7.29454 9.05773 6.67908 8.27716 6.58874 7.74547C7.21631 7.09954 7.44235 6.69316 7.44235 6.2307C7.44235 5.75404 6.33051 3.764 6.12939 3.56289C5.92758 3.36143 5.47308 3.32993 4.77835 3.46839C4.71154 3.48189 4.64993 3.51477 4.60147 3.56289C4.51735 3.647 2.54912 5.65366 3.48443 8.08573C4.51112 10.7549 7.14639 13.8575 10.5062 14.3615C10.888 14.4186 11.2459 14.447 11.581 14.447C13.5575 14.447 14.724 13.4525 15.0525 11.4798C15.0771 11.3354 15.0075 11.1914 14.8795 11.1205ZM10.609 13.6768C7.05605 13.1441 4.81816 9.62404 4.1307 7.8372C3.44878 6.06489 4.70635 4.4847 5.02205 4.12747C5.27889 4.08385 5.54924 4.0655 5.66208 4.08316C5.89781 4.41097 6.71404 5.95308 6.75004 6.2307C6.75004 6.41243 6.69085 6.66547 5.98608 7.37058C5.92101 7.43531 5.88466 7.52323 5.88466 7.61531C5.88466 9.42777 9.70758 11.9422 10.3847 11.9422C10.9735 11.9422 11.7412 10.9526 12.1784 10.3077C12.2037 10.3087 12.2463 10.3174 12.3069 10.3479C12.4315 10.4105 12.6475 10.5514 12.9206 10.73C13.2813 10.9657 13.7604 11.2787 14.326 11.603C14.0691 12.8388 13.3512 14.0887 10.609 13.6768Z" fill="white"/>
</svg>
