<svg width="50" height="50" viewBox="0 0 50 50" fill="none" xmlns="http://www.w3.org/2000/svg">
<path d="M4.16667 50H41.6667C42.1269 50 42.5 49.6268 42.5 49.1666V27.5H40.8333V48.3333H4.16667C2.78605 48.3333 1.66667 47.2139 1.66667 45.8333C1.66667 44.4527 2.78605 43.3333 4.16667 43.3333H5.83333C6.29354 43.3333 6.66667 42.9602 6.66667 42.5V17.5H20V15.8333H6.66667V9.99996C6.66667 9.53975 6.29354 9.16663 5.83333 9.16663H4.16667C1.86646 9.16947 0.00284831 11.0331 0 13.3333V45.8333C0.00284831 48.1335 1.86646 49.9971 4.16667 50ZM1.66667 16.6666V13.3333C1.66667 11.9527 2.78605 10.8333 4.16667 10.8333H5V41.6666H4.16667C3.26497 41.6654 2.38729 41.958 1.66667 42.5V16.6666Z" fill="#EDC939"/>
<path d="M19.1668 20H9.16683C8.70662 20 8.3335 20.3731 8.3335 20.8333V27.5C8.3335 27.9602 8.70662 28.3333 9.16683 28.3333H19.1668C19.627 28.3333 20.0002 27.9602 20.0002 27.5V25H23.3335V23.3333H20.0002V20.8333C20.0002 20.3731 19.627 20 19.1668 20ZM18.3335 26.6667H10.0002V21.6667H18.3335V26.6667Z" fill="#EDC939"/>
<path d="M27.5002 43.3333H37.5002C37.9604 43.3333 38.3335 42.9602 38.3335 42.5V35.8333C38.3335 35.3731 37.9604 35 37.5002 35H33.3335V30H31.6668V35H27.5002C27.04 35 26.6668 35.3731 26.6668 35.8333V38.3333H20.0002V35.8333C20.0002 35.3731 19.627 35 19.1668 35H9.16683C8.70662 35 8.3335 35.3731 8.3335 35.8333V42.5C8.3335 42.9602 8.70662 43.3333 9.16683 43.3333H19.1668C19.627 43.3333 20.0002 42.9602 20.0002 42.5V40H26.6668V42.5C26.6668 42.9602 27.04 43.3333 27.5002 43.3333ZM28.3335 36.6667H36.6668V41.6667H28.3335V36.6667ZM18.3335 41.6667H10.0002V36.6667H18.3335V41.6667Z" fill="#EDC939"/>
<path d="M35.8335 6.66663C31.6912 6.66663 28.3335 10.0244 28.3335 14.1666C28.3335 18.3089 31.6912 21.6666 35.8335 21.6666C39.9757 21.6666 43.3335 18.3089 43.3335 14.1666C43.329 10.0264 39.9737 6.6711 35.8335 6.66663ZM35.8335 20C32.6117 20 30.0002 17.3885 30.0002 14.1666C30.0002 10.9448 32.6117 8.33329 35.8335 8.33329C39.0553 8.33329 41.6668 10.9448 41.6668 14.1666C41.6632 17.3868 39.0537 19.9963 35.8335 20Z" fill="#EDC939"/>
<path d="M49.1665 17.5C49.6267 17.5 49.9998 17.1269 49.9998 16.6667V11.6667C49.9998 11.2065 49.6267 10.8333 49.1665 10.8333H46.1306C45.9528 10.2865 45.7323 9.75423 45.4714 9.24154L47.6215 7.0992C47.7782 6.94295 47.8665 6.73055 47.8665 6.5092C47.8665 6.28784 47.7782 6.07544 47.6215 5.91919L44.0831 2.37752C43.9268 2.22127 43.7148 2.13338 43.4939 2.13338C43.273 2.13379 43.061 2.22168 42.9047 2.37834L40.7583 4.5284C40.2456 4.26758 39.7134 4.04744 39.1665 3.86922V0.833333C39.1665 0.373128 38.7934 0 38.3332 0H33.3332C32.873 0 32.4998 0.373128 32.4998 0.833333V3.86922C31.953 4.04744 31.4207 4.26758 30.908 4.5284L28.7649 2.37834C28.6086 2.22168 28.3966 2.13379 28.1757 2.13338C27.9548 2.13338 27.7428 2.22127 27.5865 2.37752L24.044 5.91675C23.8874 6.073 23.7991 6.2854 23.7991 6.50675C23.7991 6.72811 23.8874 6.94051 24.044 7.09676L26.1941 9.2391C25.9333 9.7526 25.7131 10.2856 25.5357 10.8333H22.4998C22.0396 10.8333 21.6665 11.2065 21.6665 11.6667V16.6667C21.6665 17.1269 22.0396 17.5 22.4998 17.5H25.5357C25.7135 18.0469 25.9341 18.5791 26.1949 19.0918L24.0448 21.2341C23.8878 21.3904 23.7995 21.6032 23.7995 21.8245C23.7995 22.0463 23.8878 22.2587 24.0448 22.415L27.5833 25.9477C27.9088 26.2728 28.4361 26.2728 28.7616 25.9477L30.9048 23.8049C31.4187 24.0658 31.9521 24.2859 32.4998 24.4641V27.5C32.4998 27.9602 32.873 28.3333 33.3332 28.3333H38.3332C38.7934 28.3333 39.1665 27.9602 39.1665 27.5V24.4641C39.7138 24.2859 40.246 24.0658 40.7591 23.8049L42.9023 25.9477C43.2278 26.2724 43.7543 26.2724 44.0798 25.9477L47.6215 22.4141C47.7786 22.2579 47.8669 22.0455 47.8669 21.8237C47.8669 21.602 47.7786 21.3896 47.6215 21.2333L45.4714 19.091C45.7323 18.5787 45.9528 18.0465 46.1306 17.5H49.1665ZM44.7032 16.4543C44.4839 17.2839 44.1539 18.0802 43.7214 18.8216C43.5305 19.1492 43.5846 19.5642 43.8532 19.8315L45.8531 21.825L43.4923 24.1809L41.4997 22.1859C41.2323 21.9181 40.8177 21.8644 40.4906 22.0549C39.7496 22.4874 38.9529 22.8174 38.1232 23.0359C37.7562 23.1315 37.5002 23.4627 37.4998 23.8416V26.6667H34.1665V23.8416C34.1665 23.4631 33.9114 23.1323 33.5456 23.0359C32.7159 22.8174 31.9192 22.4874 31.1782 22.0549C30.8511 21.8644 30.4364 21.9181 30.1691 22.1859L28.1749 24.1801L25.814 21.825L27.814 19.8315C28.0825 19.5642 28.1366 19.1492 27.9458 18.8216C27.5133 18.0802 27.1833 17.2839 26.9639 16.4543C26.8675 16.0885 26.5367 15.8333 26.1583 15.8333H23.3332V12.5H26.1583C26.5363 12.4996 26.8667 12.2449 26.9631 11.8791C27.1825 11.0494 27.5125 10.2531 27.945 9.51172C28.1358 9.18416 28.0817 8.76912 27.8132 8.50179L25.8132 6.50757L28.1749 4.14592L30.1691 6.14583C30.4364 6.41439 30.8515 6.46851 31.179 6.27767C31.92 5.84513 32.7167 5.51514 33.5464 5.29663C33.9118 5.19979 34.1661 4.86938 34.1665 4.49178V1.66667H37.4998V4.49178C37.4998 4.8702 37.755 5.20101 38.1208 5.29744C38.9504 5.51595 39.7472 5.84595 40.4881 6.27848C40.8161 6.47013 41.2319 6.41602 41.4997 6.14665L43.4939 4.14673L45.8556 6.50838L43.8556 8.5026C43.5871 8.76994 43.533 9.18498 43.7242 9.51253C44.1563 10.2539 44.4863 11.0502 44.7056 11.8799C44.8021 12.2445 45.1313 12.4988 45.5081 12.5H48.3332V15.8333H45.5081C45.13 15.8337 44.7996 16.0885 44.7032 16.4543Z" fill="#EDC939"/>
<path d="M35.8333 10.8334C33.9925 10.8334 32.5 12.3259 32.5 14.1667C32.5 16.0075 33.9925 17.5 35.8333 17.5C37.6742 17.5 39.1667 16.0075 39.1667 14.1667C39.1667 12.3259 37.6742 10.8334 35.8333 10.8334ZM35.8333 15.8334C34.9129 15.8334 34.1667 15.0871 34.1667 14.1667C34.1667 13.2463 34.9129 12.5 35.8333 12.5C36.7537 12.5 37.5 13.2463 37.5 14.1667C37.5 15.0871 36.7537 15.8334 35.8333 15.8334Z" fill="#EDC939"/>
</svg>
