<svg width="50" height="50" viewBox="0 0 50 50" fill="none" xmlns="http://www.w3.org/2000/svg">
<g clip-path="url(#clip0)">
<path d="M45 15.8333C43.6193 15.8333 42.5 16.9526 42.5 18.3333C42.5 19.7141 43.6193 20.8333 45 20.8333C46.3807 20.8333 47.5 19.7141 47.5 18.3333C47.5 16.9526 46.3807 15.8333 45 15.8333ZM45 19.1667C44.5398 19.1667 44.1667 18.7936 44.1667 18.3333C44.1667 17.8731 44.5398 17.5 45 17.5C45.4602 17.5 45.8333 17.8731 45.8333 18.3333C45.8333 18.7936 45.4602 19.1667 45 19.1667Z" fill="#EDC939"/>
<path d="M49.1667 -0.000108781H45.8333C45.6119 -0.00135878 45.399 0.0856204 45.2417 0.241558L32.7417 12.7416C32.4149 13.0656 32.4127 13.5933 32.7369 13.9201C32.7384 13.9218 32.7401 13.9233 32.7417 13.9249L34.6583 15.8332L32.0833 18.4082L25 19.9999L17.9167 18.4249L15.3417 15.8332L17.2583 13.9249C17.5851 13.6008 17.5873 13.0731 17.2631 12.7463C17.2616 12.7447 17.2599 12.7431 17.2583 12.7416L4.75833 0.241558C4.60104 0.0856204 4.38823 -0.00135878 4.16667 -0.000108781H0.833333C0.373125 -0.000108781 0 0.373016 0 0.833225V29.1666C0.00166667 29.503 0.205521 29.8054 0.516667 29.9332C0.615625 29.9799 0.724063 30.0027 0.833333 29.9999C1.05479 30.0011 1.26771 29.9142 1.425 29.7582L3.33333 27.8416L6.075 30.5916L12.3583 36.8666C11.5027 38.466 11.8048 40.4382 13.1 41.7082L20.1667 48.7832C20.9496 49.5642 22.0108 50.0019 23.1167 49.9999C24.1192 49.9965 25.0856 49.6259 25.8333 48.9582C26.3746 49.394 27.0469 49.6347 27.7417 49.6416C28.3931 49.646 29.026 49.4252 29.5333 49.0166C30.1731 48.4933 30.5632 47.7251 30.6083 46.8999V46.7249C31.3864 46.7241 32.1346 46.4259 32.7 45.8916C33.2399 45.3432 33.5397 44.6027 33.5333 43.8332C34.3157 43.8562 35.0728 43.5547 35.625 42.9999C36.1716 42.4423 36.4717 41.6888 36.4583 40.9082H36.6667C37.4908 40.8662 38.2593 40.4791 38.7833 39.8416C39.6754 38.6824 39.6016 37.0487 38.6083 35.9749L43.9083 30.6749L46.6667 27.8416L48.575 29.7582C48.7323 29.9142 48.9452 30.0011 49.1667 29.9999C49.2759 30.0027 49.3845 29.9799 49.4833 29.9332C49.7945 29.8054 49.9983 29.503 50 29.1666V0.833225C50 0.373016 49.6269 -0.000108781 49.1667 -0.000108781ZM1.66667 27.1582V1.66656H3.825L15.4917 13.3332L1.66667 27.1582ZM4.50833 26.6666L14.1667 17.0082L16.325 19.1666L6.66667 28.8249L4.50833 26.6666ZM7.84167 29.9999L17.7667 20.0832L23.3333 21.3166L14.4083 30.2416C14.0816 30.5656 14.0794 31.0933 14.4035 31.4201C14.4051 31.4218 14.4068 31.4233 14.4083 31.4249C15.1332 32.1458 16.0315 32.6681 17.0167 32.9416C16.2835 33.003 15.5957 33.3218 15.075 33.8416L13.4083 35.5082L7.84167 29.9999ZM13.5417 38.7582C13.5423 38.0954 13.806 37.46 14.275 36.9916L16.2583 34.9999C16.5245 34.7297 16.8874 34.5768 17.2667 34.5749C17.535 34.5724 17.7964 34.6604 18.0083 34.8249C18.2828 35.0501 18.4518 35.379 18.475 35.7332C18.4874 36.0817 18.3546 36.4197 18.1083 36.6666C18.0729 36.7057 18.0447 36.7509 18.025 36.7999L14.225 40.4249C13.798 39.9735 13.5545 39.3794 13.5417 38.7582ZM15.3917 41.6666L19.45 37.7832C19.9934 37.3726 20.7669 37.4804 21.1775 38.0238C21.5139 38.4691 21.5094 39.0846 21.1667 39.5249V39.5082L17.125 43.3749L15.3917 41.6666ZM20 46.2999L18.3333 44.5499L22.1667 40.8916L22.2667 40.8249C22.7566 40.342 23.5434 40.342 24.0333 40.8249C24.4092 41.2351 24.4637 41.8461 24.1667 42.3166L20 46.2999ZM24.8833 47.6249C23.8864 48.5576 22.3336 48.5467 21.35 47.5999L21.225 47.4999L24.8833 43.9832C24.9923 43.9431 25.0916 43.8806 25.175 43.7999C25.4222 43.5436 25.7698 43.4096 26.125 43.4332C26.4794 43.4493 26.8099 43.616 27.0333 43.8916C27.4275 44.4377 27.3524 45.1921 26.8583 45.6499L24.8833 47.6249ZM28.5283 47.7188C28.5163 47.7295 28.5041 47.7398 28.4917 47.7499V47.7249C28.0711 48.0368 27.5028 48.0599 27.0583 47.7832L28.0417 46.7999C28.2861 46.557 28.4889 46.2754 28.6417 45.9666C29.0943 46.4818 29.0435 47.2662 28.5283 47.7188ZM37.5 38.6999C37.2747 38.9775 36.9406 39.1446 36.5833 39.1582C36.2316 39.1862 35.8858 39.0547 35.6417 38.7999C35.5992 38.7666 35.5547 38.7359 35.5083 38.7082L31.4167 34.4249L30.2167 35.5749L34.575 40.1416C34.9964 40.6768 34.9042 41.4522 34.3691 41.8735C33.8918 42.2494 33.2119 42.2217 32.7667 41.8082L28.0833 36.9416L26.8833 38.0916L31.4583 42.8582C31.4583 42.8582 31.4583 42.9166 31.5167 42.9416C31.7511 43.1757 31.883 43.4934 31.8833 43.8249C31.8812 44.1559 31.7496 44.473 31.5167 44.7082C31.0198 45.174 30.2469 45.174 29.75 44.7082C29.5304 44.4929 29.2101 44.416 28.9167 44.5082C28.9018 43.901 28.688 43.3156 28.3083 42.8416C27.7851 42.2018 27.0169 41.8117 26.1917 41.7666H26.0167C26.031 40.9857 25.7307 40.232 25.1833 39.6749C24.6207 39.136 23.8706 38.8372 23.0917 38.8416C23.099 38.0719 22.799 37.331 22.2583 36.7832C21.6943 36.2467 20.9451 35.9482 20.1667 35.9499C20.1706 35.8888 20.1706 35.8276 20.1667 35.7666C20.1247 34.9424 19.7375 34.174 19.1 33.6499C18.8824 33.4816 18.6408 33.3468 18.3833 33.2499C19.8475 33.3043 21.2687 32.7491 22.3083 31.7166L25.0833 28.7666C26.6962 30.0758 28.7702 30.677 30.8333 30.4332L35.3667 34.9999L37.3417 36.9749C37.8083 37.4343 37.8752 38.1633 37.5 38.6999ZM37.5 34.6916L32.675 29.7999L32.9167 29.7082L33.05 29.6249L33.8833 28.9999L32.8833 27.6666L32.1167 28.2499C29.8889 29.1873 27.3136 28.6537 25.6417 26.9082C25.3223 26.5769 24.7947 26.5672 24.4633 26.8866C24.4559 26.8936 24.4487 26.9009 24.4417 26.9082L21.1083 30.4332C20.3848 31.1774 19.3682 31.562 18.3333 31.4832C17.5707 31.447 16.8328 31.202 16.2 30.7749L25.3667 21.6082L32.1833 20.0999L42.1583 29.9999L37.5 34.6916ZM43.3333 28.8582L33.675 19.1666L35.8333 17.0082L45.4917 26.6666L43.3333 28.8582ZM48.3333 27.1916L47.2583 26.1082L36.425 15.2749L34.5083 13.3332L46.175 1.66656H48.3333V27.1916Z" fill="#EDC939"/>
<path d="M5 15.8333C3.61927 15.8333 2.5 16.9526 2.5 18.3333C2.5 19.7141 3.61927 20.8333 5 20.8333C6.38073 20.8333 7.5 19.7141 7.5 18.3333C7.5 16.9526 6.38073 15.8333 5 15.8333ZM5 19.1667C4.53979 19.1667 4.16667 18.7936 4.16667 18.3333C4.16667 17.8731 4.53979 17.5 5 17.5C5.46021 17.5 5.83333 17.8731 5.83333 18.3333C5.83333 18.7936 5.46021 19.1667 5 19.1667Z" fill="#EDC939"/>
<path d="M7.50016 38.3333H5.8335C5.8335 41.555 8.44516 44.1666 11.6668 44.1666V42.5C9.36568 42.5 7.50016 40.6345 7.50016 38.3333Z" fill="#EDC939"/>
<path d="M3.33317 38.3333H1.6665C1.6665 43.8561 6.14369 48.3333 11.6665 48.3333V46.6666C7.06411 46.6666 3.33317 42.9357 3.33317 38.3333Z" fill="#EDC939"/>
<path d="M41.6667 38.3333C41.6667 40.6345 39.8011 42.5 37.5 42.5V44.1666C40.7217 44.1666 43.3333 41.555 43.3333 38.3333H41.6667Z" fill="#EDC939"/>
<path d="M45.8333 38.3333C45.8333 42.9357 42.1024 46.6666 37.5 46.6666V48.3333C43.0228 48.3333 47.5 43.8561 47.5 38.3333H45.8333Z" fill="#EDC939"/>
</g>
<defs>
<clipPath id="clip0">
<rect width="50" height="50" fill="white"/>
</clipPath>
</defs>
</svg>
