<svg width="50" height="50" viewBox="0 0 50 50" fill="none" xmlns="http://www.w3.org/2000/svg">
<g clip-path="url(#clip0)">
<path d="M3.33333 41.6667V38.6583L10.95 30.275C11.8907 31.0563 13.2634 31.0243 14.1667 30.2L20.0583 34.6167C20.3516 35.9658 21.683 36.822 23.0322 36.5287C24.152 36.2854 24.9629 35.312 25 34.1667C25.0003 34.0125 24.9835 33.8587 24.95 33.7083L31.4833 26.45C31.8043 26.5895 32.15 26.6631 32.5 26.6667C33.0901 26.6628 33.6599 26.4502 34.1083 26.0667L40.2167 31.4917C40.0762 31.8095 40.0026 32.1526 40 32.5C40 33.8807 41.1193 35 42.5 35C43.8807 35 45 33.8807 45 32.5C45 31.1193 43.8807 30 42.5 30C42.1051 30.0036 41.7168 30.1007 41.3667 30.2833L35 24.5917C35.0123 24.4503 35.0123 24.308 35 24.1667C35 22.7859 33.8807 21.6667 32.5 21.6667C31.1193 21.6667 30 22.7859 30 24.1667C30.003 24.559 30.1002 24.9448 30.2833 25.2917L24.05 32.2167C23.6101 31.8638 23.064 31.6699 22.5 31.6667C21.6546 31.6691 20.8677 32.0985 20.4083 32.8083L15 28.7167C15.0127 28.5892 15.0127 28.4608 15 28.3333C15 26.9526 13.8807 25.8333 12.5 25.8333C11.1193 25.8333 10 26.9526 10 28.3333C9.99969 28.4875 10.0165 28.6412 10.05 28.7917L3.33333 36.175V27.0083L11.375 19.7C11.7219 19.8854 12.1069 19.9881 12.5 20C13.8807 20 15 18.8807 15 17.5C15.0003 17.3431 14.9835 17.1867 14.95 17.0333L21.2417 10C21.383 10.0123 21.5253 10.0123 21.6667 10C22.3377 9.99948 22.9803 9.72917 23.45 9.25L30.1167 11.4667C30.505 12.7917 31.8939 13.5509 33.2189 13.1626C34.3847 12.8209 35.1361 11.6905 35 10.4833L40.8333 6.83333C41.8625 7.75375 43.443 7.66552 44.3633 6.63625C45.2836 5.60698 45.1955 4.02656 44.1662 3.10625C43.137 2.18594 41.5566 2.27406 40.6362 3.30333C40.2195 3.76937 39.9924 4.37479 40 5C39.9919 5.11656 39.9919 5.23344 40 5.35L34.1667 9C33.1489 8.06708 31.5674 8.13594 30.6345 9.15375C30.4692 9.33417 30.3311 9.53781 30.225 9.75833L24.1667 7.725C24.1707 7.6501 24.1707 7.575 24.1667 7.5C24.1757 6.11927 23.0639 4.99271 21.6831 4.98365C20.3024 4.97458 19.1758 6.08646 19.1668 7.46719C19.1628 8.06854 19.3758 8.65125 19.7667 9.10833L14.0417 15.55C13.606 15.1953 13.0618 15.0011 12.5 15C11.1193 15 10 16.1193 10 17.5C10.0005 17.8511 10.0773 18.198 10.225 18.5167L3.33333 24.7833V0H1.66667V1.66667H0V3.33333H1.66667V11.6667H0V13.3333H1.66667V21.6667H0V23.3333H1.66667V31.6667H0V33.3333H1.66667V42.5C1.66667 42.9602 2.03979 43.3333 2.5 43.3333H11.6667V45H13.3333V43.3333H21.6667V45H23.3333V43.3333H31.6667V45H33.3333V43.3333H41.6667V45H43.3333V43.3333H50V41.6667H3.33333ZM42.5 31.6667C42.9602 31.6667 43.3333 32.0398 43.3333 32.5C43.3333 32.9602 42.9602 33.3333 42.5 33.3333C42.0398 33.3333 41.6667 32.9602 41.6667 32.5C41.6667 32.0398 42.0398 31.6667 42.5 31.6667ZM32.5 23.3333C32.9602 23.3333 33.3333 23.7065 33.3333 24.1667C33.3333 24.6269 32.9602 25 32.5 25C32.0398 25 31.6667 24.6269 31.6667 24.1667C31.6667 23.7065 32.0398 23.3333 32.5 23.3333ZM22.5 33.3333C22.9602 33.3333 23.3333 33.7065 23.3333 34.1667C23.3333 34.6269 22.9602 35 22.5 35C22.0398 35 21.6667 34.6269 21.6667 34.1667C21.6667 33.7065 22.0398 33.3333 22.5 33.3333ZM12.5 27.5C12.9602 27.5 13.3333 27.8731 13.3333 28.3333C13.3333 28.7935 12.9602 29.1667 12.5 29.1667C12.0398 29.1667 11.6667 28.7935 11.6667 28.3333C11.6667 27.8731 12.0398 27.5 12.5 27.5ZM42.5 4.16667C42.9602 4.16667 43.3333 4.53979 43.3333 5C43.3333 5.46021 42.9602 5.83333 42.5 5.83333C42.0398 5.83333 41.6667 5.46021 41.6667 5C41.6667 4.53979 42.0398 4.16667 42.5 4.16667ZM32.5 10C32.9602 10 33.3333 10.3731 33.3333 10.8333C33.3333 11.2935 32.9602 11.6667 32.5 11.6667C32.0398 11.6667 31.6667 11.2935 31.6667 10.8333C31.6667 10.3731 32.0398 10 32.5 10ZM21.6667 6.66667C22.1269 6.66667 22.5 7.03979 22.5 7.5C22.5 7.96021 22.1269 8.33333 21.6667 8.33333C21.2065 8.33333 20.8333 7.96021 20.8333 7.5C20.8333 7.03979 21.2065 6.66667 21.6667 6.66667ZM12.5 16.6667C12.9602 16.6667 13.3333 17.0398 13.3333 17.5C13.3333 17.9602 12.9602 18.3333 12.5 18.3333C12.0398 18.3333 11.6667 17.9602 11.6667 17.5C11.6667 17.0398 12.0398 16.6667 12.5 16.6667Z" fill="#EDC939"/>
<path d="M17.4997 48.3334H15.833V50H17.4997V48.3334Z" fill="#EDC939"/>
<path d="M20.8337 48.3334H19.167V50H20.8337V48.3334Z" fill="#EDC939"/>
<path d="M24.1667 48.3334H22.5V50H24.1667V48.3334Z" fill="#EDC939"/>
<path d="M27.4997 48.3334H25.833V50H27.4997V48.3334Z" fill="#EDC939"/>
<path d="M30.8337 48.3334H29.167V50H30.8337V48.3334Z" fill="#EDC939"/>
<path d="M34.1667 48.3334H32.5V50H34.1667V48.3334Z" fill="#EDC939"/>
</g>
<defs>
<clipPath id="clip0">
<rect width="50" height="50" fill="white"/>
</clipPath>
</defs>
</svg>
