<svg width="50" height="50" viewBox="0 0 50 50" fill="none" xmlns="http://www.w3.org/2000/svg">
<path d="M49.5814 29.4829C48.6905 27.8798 46.6688 27.3024 45.0658 28.1933L40.5376 30.1422L39.3766 27.8201C39.2031 27.4753 39.1122 27.0948 39.1112 26.7088V17.5364C39.104 11.7226 34.7978 6.81025 29.0349 6.04198L32.3522 1.43092C32.6181 1.05804 32.5314 0.540121 32.1585 0.274219C32.0097 0.168065 31.8299 0.114055 31.6473 0.120586H18.378C17.92 0.122659 17.5505 0.495753 17.5525 0.953748C17.5534 1.1249 17.6071 1.2916 17.7063 1.43092L21.0236 6.04198C15.2475 6.79501 10.9234 11.7115 10.9141 17.5364V26.883C10.4542 27.2557 10.0346 27.6754 9.66181 28.1352L5.99619 32.7214L4.96783 31.1789C4.84519 30.9839 4.64688 30.8486 4.42047 30.8057C4.1952 30.7735 3.96631 30.83 3.78189 30.9632L0.464583 33.4512C0.253416 33.6096 0.130261 33.859 0.132853 34.123V49.0509C0.132853 49.5089 0.504183 49.8802 0.962179 49.8802H11.7434C11.9638 49.8814 12.1757 49.7949 12.3322 49.6397L14.8202 47.1517C15.0976 46.8714 15.1393 46.4344 14.9197 46.1067L14.5051 45.4848L33.6874 41.0727C34.7265 40.8323 35.7321 40.4646 36.6813 39.978L48.2918 33.9986C49.8949 33.1077 50.4723 31.086 49.5814 29.4829ZM19.9869 1.77924H30.0384L27.0777 5.92587H22.931L19.9869 1.77924ZM12.5727 17.5364C12.5727 12.0402 17.0284 7.58453 22.5247 7.58453H27.5006C32.9969 7.58453 37.4525 12.0402 37.4525 17.5364V26.7088C37.4539 27.351 37.6043 27.9841 37.8921 28.5582L39.0034 30.8057L33.3059 33.2273C33.2036 33.2708 33.0936 33.2934 32.9825 33.2936H18.378C17.92 33.2936 17.5487 32.9223 17.5487 32.4643C17.5487 32.0063 17.92 31.635 18.378 31.635H25.0126C28.2188 31.635 30.8179 29.0359 30.8179 25.8297C30.8179 25.3717 30.4466 25.0004 29.9886 25.0004H28.9188C29.0747 24.6446 29.1565 24.2609 29.1593 23.8725C29.1559 22.7113 28.4369 21.6724 27.3513 21.2601L25.842 20.6962V17.5364H26.3727C26.9957 17.5364 27.5006 18.0414 27.5006 18.6643V19.1951H29.1593V18.6643C29.1547 17.1273 27.9098 15.8824 26.3727 15.8778H25.842V14.2191H24.1833V15.8778H23.6525C22.1136 15.8728 20.862 17.1164 20.8571 18.6553C20.8534 19.8235 21.5787 20.8701 22.6739 21.2767L24.1833 21.8407V25.0004H23.6525C23.0296 25.0004 22.5247 24.4954 22.5247 23.8725V23.3417H20.866V23.8725C20.8688 24.2609 20.9506 24.6446 21.1065 25.0004H16.1886C14.9361 25.0003 13.6999 25.2838 12.5727 25.8297V17.5364ZM27.5006 23.8725C27.5006 24.4954 26.9957 25.0004 26.3727 25.0004H25.842V22.4626L26.7708 22.811C27.209 22.9813 27.4984 23.4024 27.5006 23.8725ZM24.1833 17.5364V20.0742L23.2545 19.7259C22.8163 19.5555 22.5268 19.1345 22.5247 18.6643C22.5247 18.0414 23.0296 17.5364 23.6525 17.5364H24.1833ZM11.4034 48.2215H1.79151V34.5376L4.07215 32.8209L13.1947 46.4551L11.4034 48.2215ZM47.4874 32.5555L35.9266 38.5018C35.0956 38.9263 34.2154 39.2467 33.3059 39.4555L13.5265 44.0086L6.9665 34.1644L10.9556 29.147C12.2303 27.5645 14.1566 26.6487 16.1886 26.659H29.0763C28.6822 28.59 26.9834 29.9768 25.0126 29.9763H18.378C17.0039 29.9763 15.8901 31.0902 15.8901 32.4643C15.8901 33.8384 17.0039 34.9523 18.378 34.9523H32.9659C33.3022 34.9528 33.6351 34.885 33.9445 34.7533L45.7873 29.6944C46.5774 29.2249 47.5984 29.4849 48.0679 30.2749C48.5374 31.0649 48.2775 32.086 47.4874 32.5555Z" fill="#EDC939"/>
<path d="M8.42597 42.416C7.05188 42.416 5.93799 43.5299 5.93799 44.904C5.93799 46.2781 7.05188 47.392 8.42597 47.392C9.80006 47.392 10.9139 46.2781 10.9139 44.904C10.9139 43.5299 9.80006 42.416 8.42597 42.416ZM8.42597 45.7333C7.96797 45.7333 7.59664 45.362 7.59664 44.904C7.59664 44.446 7.96797 44.0747 8.42597 44.0747C8.88396 44.0747 9.25529 44.446 9.25529 44.904C9.25529 45.362 8.88396 45.7333 8.42597 45.7333Z" fill="#EDC939"/>
<path d="M45.0491 5.09654C43.7085 4.86661 42.6584 3.81648 42.4285 2.47587C42.4285 2.01788 42.0571 1.64655 41.5991 1.64655C41.1412 1.64655 40.7698 2.01788 40.7698 2.47587C40.5399 3.81648 39.4898 4.86661 38.1492 5.09654C37.6912 5.09654 37.3198 5.46788 37.3198 5.92587C37.3198 6.38387 37.6912 6.7552 38.1492 6.7552C39.4898 6.98513 40.5399 8.03526 40.7698 9.37587C40.7698 9.83387 41.1412 10.2052 41.5991 10.2052C42.0571 10.2052 42.4285 9.83387 42.4285 9.37587C42.6584 8.03526 43.7085 6.98513 45.0491 6.7552C45.5071 6.7552 45.8785 6.38387 45.8785 5.92587C45.8785 5.46788 45.5071 5.09654 45.0491 5.09654ZM41.5991 7.11181C41.2774 6.64915 40.8759 6.24765 40.4132 5.92587C40.8759 5.60409 41.2774 5.20259 41.5991 4.73993C41.9209 5.20259 42.3224 5.60409 42.7851 5.92587C42.3224 6.24765 41.9209 6.64915 41.5991 7.11181Z" fill="#EDC939"/>
<path d="M7.72932 21.6831C6.38872 21.4532 5.33858 20.403 5.10865 19.0624C5.10865 18.6044 4.73732 18.2331 4.27933 18.2331C3.82133 18.2331 3.45 18.6044 3.45 19.0624C3.22007 20.403 2.16993 21.4532 0.829327 21.6831C0.371331 21.6831 0 22.0544 0 22.5124C0 22.9704 0.371331 23.3418 0.829327 23.3418C2.16993 23.5717 3.22007 24.6218 3.45 25.9624C3.45 26.4204 3.82133 26.7918 4.27933 26.7918C4.73732 26.7918 5.10865 26.4204 5.10865 25.9624C5.33858 24.6218 6.38872 23.5717 7.72932 23.3418C8.18732 23.3418 8.55865 22.9704 8.55865 22.5124C8.55865 22.0544 8.18732 21.6831 7.72932 21.6831ZM4.27933 23.6984C3.95755 23.2357 3.55605 22.8342 3.09339 22.5124C3.55605 22.1906 3.95755 21.7891 4.27933 21.3265C4.6011 21.7891 5.0026 22.1906 5.46526 22.5124C5.0026 22.8342 4.6011 23.2357 4.27933 23.6984Z" fill="#EDC939"/>
</svg>
