<svg width="50" height="50" viewBox="0 0 50 50" fill="none" xmlns="http://www.w3.org/2000/svg">
<g clip-path="url(#clip0)">
<path d="M48.1359 1.79332C47.0338 0.701358 45.5363 0.102403 43.9852 0.133015H30.8107C30.5901 0.13177 30.378 0.218417 30.2213 0.373759C30.0659 0.53045 29.9793 0.742554 29.9805 0.963166V5.79465C29.9751 6.39308 30.2924 6.94814 30.8107 7.24741C31.3243 7.54398 31.9573 7.54398 32.471 7.24741C33.1551 6.83327 33.9678 6.6855 34.7539 6.83233C36.5578 7.16253 37.7526 8.89256 37.4224 10.6965C37.3225 11.2426 37.0871 11.755 36.738 12.1868C36.1123 12.9581 35.1743 13.4089 34.1811 13.4154C33.5979 13.4144 33.0252 13.2598 32.5208 12.9672C32.0071 12.6706 31.3742 12.6706 30.8605 12.9672C30.3396 13.2679 30.0219 13.8268 30.0303 14.4282L29.9805 19.2265C29.9793 19.4471 30.0659 19.6592 30.2213 19.8159C30.3745 19.9723 30.5834 20.0618 30.8024 20.0649H35.5675C34.192 22.4473 35.0082 25.4935 37.3906 26.869C38.1512 27.3081 39.0143 27.5383 39.8925 27.5363C40.2528 27.5388 40.6121 27.4998 40.9634 27.4201C42.9111 26.9889 44.4136 25.4374 44.7821 23.4769C45.0071 22.3011 44.7914 21.0835 44.1761 20.0566H49.0076C49.466 20.0566 49.8377 19.6849 49.8377 19.2265V5.94407C49.849 4.38847 49.2359 2.89337 48.1359 1.79332ZM48.194 18.3963H44.1844C43.5889 18.394 43.0377 18.7108 42.74 19.2265C42.4308 19.7367 42.4308 20.3766 42.74 20.8868C43.1513 21.572 43.2961 22.3846 43.1467 23.1697C42.8133 24.9731 41.0812 26.1647 39.2778 25.8313C38.7369 25.7312 38.2292 25.4985 37.8006 25.1538V25.1372C36.5198 24.1224 36.1678 22.3267 36.9704 20.9034C37.2795 20.3932 37.2795 19.7533 36.9704 19.2431C36.662 18.7259 36.1032 18.4102 35.501 18.4129L31.6408 18.3963L31.6823 14.3701C32.4216 14.8184 33.2668 15.0619 34.1313 15.0757C36.8813 15.1471 39.1684 12.9758 39.2398 10.2259C39.3045 7.73575 37.5197 5.58067 35.0611 5.18033C33.8905 4.95962 32.6798 5.17515 31.6574 5.78634L31.6408 1.79332H44.0433C46.3357 1.79332 48.194 3.65171 48.194 5.94407V18.3963Z" fill="#EDC939"/>
<path d="M26.7927 3.45343C25.4507 3.22327 24.3995 2.17209 24.1694 0.830151C24.1694 0.3717 23.7977 0 23.3392 0C22.8808 0 22.5091 0.3717 22.5091 0.830151C22.2789 2.17209 21.2278 3.22327 19.8858 3.45343C19.4274 3.45343 19.0557 3.82513 19.0557 4.28358C19.0557 4.74203 19.4274 5.11373 19.8858 5.11373C21.2278 5.34389 22.2789 6.39507 22.5091 7.73701C22.5091 8.19546 22.8808 8.56716 23.3392 8.56716C23.7977 8.56716 24.1694 8.19546 24.1694 7.73701C24.3995 6.39507 25.4507 5.34389 26.7927 5.11373C27.2511 5.11373 27.6228 4.74203 27.6228 4.28358C27.6228 3.82513 27.2511 3.45343 26.7927 3.45343ZM23.3392 5.4707C23.0171 5.00758 22.6152 4.60568 22.1521 4.28358C22.6152 3.96148 23.0171 3.55958 23.3392 3.09646C23.6613 3.55958 24.0632 3.96148 24.5264 4.28358C24.0632 4.60568 23.6613 5.00758 23.3392 5.4707Z" fill="#EDC939"/>
<path d="M38.0668 30.2592C37.9041 30.0975 37.6817 30.0104 37.4525 30.0185H32.621C32.0226 30.0131 31.4675 30.3303 31.1683 30.8486C30.8717 31.3623 30.8717 31.9952 31.1683 32.5089C31.5824 33.1931 31.7302 34.0057 31.5833 34.7918C31.2531 36.5957 29.5231 37.7905 27.7192 37.4603C27.1731 37.3604 26.6606 37.1251 26.2289 36.7759C25.4575 36.1503 25.0068 35.2122 25.0002 34.219C25.0013 33.6358 25.1559 33.0631 25.4485 32.5587C25.7576 32.0485 25.7576 31.4086 25.4485 30.8984C25.1478 30.3775 24.5889 30.0599 23.9875 30.0683L20.0193 30.0185V26.0254C20.7745 26.4681 21.6345 26.7002 22.5098 26.6978C25.2606 26.7113 27.5016 24.4923 27.5152 21.7415C27.527 19.3306 25.8105 17.2573 23.4396 16.819C22.269 16.5983 21.0583 16.8139 20.0359 17.4251L20.0193 12.5853C20.0193 12.1268 19.6476 11.7551 19.1892 11.7551H5.90676C2.6974 11.7551 0.0957031 14.3568 0.0957031 17.5662V30.7988C0.0957031 30.911 0.12123 31.0217 0.170417 31.1226V44.1891C0.170417 47.3985 2.77211 50.0002 5.98147 50.0002H19.1892C19.3237 49.9977 19.4551 49.9605 19.571 49.8923H32.4965C35.7059 49.8923 38.3076 47.2906 38.3076 44.0812V30.8486C38.3088 30.628 38.2222 30.4159 38.0668 30.2592ZM1.75601 17.5662C1.75601 15.2738 3.6144 13.4154 5.90676 13.4154H18.359V17.4168C18.3536 18.0152 18.6709 18.5703 19.1892 18.8695C19.7028 19.1661 20.3358 19.1661 20.8495 18.8695C21.5336 18.4554 22.3462 18.3076 23.1324 18.4544C24.9363 18.7846 26.1311 20.5147 25.8009 22.3186C25.701 22.8647 25.4656 23.3771 25.1165 23.8089C24.4908 24.5802 23.5528 25.031 22.5596 25.0375C21.9764 25.0365 21.4037 24.8819 20.8993 24.5893C20.3856 24.2927 19.7526 24.2927 19.239 24.5893C18.7218 24.8977 18.4061 25.4565 18.4088 26.0586V29.9437H14.4988C15.4727 28.1722 15.2792 25.9878 14.009 24.4149C13.7653 24.107 13.4868 23.8285 13.1789 23.5848C11.0387 21.8565 7.90265 22.1905 6.17438 24.3308C5.65336 24.976 5.30168 25.7411 5.15132 26.5567C4.93061 27.7272 5.14613 28.938 5.75733 29.9603H1.75601V17.5662ZM5.97317 48.2818C3.68081 48.2818 1.82242 46.4234 1.82242 44.131V31.6788H5.83205C6.42758 31.6811 6.9788 31.3643 7.27651 30.8486C7.58948 30.3394 7.58948 29.6975 7.27651 29.1883C6.37248 27.5926 6.93314 25.5664 8.52879 24.6623C9.91587 23.8765 11.6657 24.1873 12.6974 25.4028C13.1413 25.9845 13.3806 26.6966 13.3781 27.4284C13.3771 28.0116 13.2225 28.5843 12.9298 29.0887C12.6333 29.6023 12.6333 30.2353 12.9298 30.749C13.007 30.8828 13.102 31.0057 13.2121 31.1143C13.5272 31.4778 13.9845 31.6867 14.4656 31.6871L18.359 31.6788V35.5971C17.5962 35.174 16.7408 34.9458 15.8686 34.9329C13.1177 34.9329 10.8877 37.1629 10.8877 39.9139C10.8856 40.3042 10.9246 40.6938 11.0039 41.0761C11.4102 43.0472 12.9627 44.58 14.9388 44.9612C16.1093 45.1812 17.3198 44.9656 18.3424 44.3552L18.359 48.2818H5.97317ZM36.6224 44.0646C36.6224 46.357 34.764 48.2154 32.4716 48.2154H20.0193V44.2057C20.0217 43.6102 19.7049 43.059 19.1892 42.7613C18.68 42.4484 18.0381 42.4484 17.5289 42.7613C16.8437 43.1726 16.0311 43.3174 15.246 43.168C13.9501 42.9348 12.9144 41.9577 12.6061 40.6776C12.5668 40.4472 12.5473 40.214 12.548 39.9803C12.593 38.1788 14.0666 36.7422 15.8686 36.7427C16.4513 36.7388 17.0246 36.8908 17.5289 37.1827C18.0381 37.4955 18.68 37.4955 19.1892 37.1827C19.7101 36.8819 20.0277 36.323 20.0193 35.7216V31.6788L24.029 31.7203C22.6514 34.1014 23.4651 37.1484 25.8463 38.5258C28.2274 39.9033 31.2744 39.0897 32.6518 36.7085C32.9416 36.2077 33.1418 35.6603 33.2436 35.0907C33.4643 33.9202 33.2488 32.7094 32.6376 31.6871L36.6224 31.6788V44.0646Z" fill="#EDC939"/>
<path d="M44.0931 30.0184C44.0931 32.3108 42.2347 34.1692 39.9424 34.1692V35.8295C43.1517 35.8295 45.7534 33.2278 45.7534 30.0184H44.0931Z" fill="#EDC939"/>
<path d="M48.2439 30.0184C48.2439 34.6033 44.5272 38.3199 39.9424 38.3199V39.9802C45.4441 39.9802 49.9042 35.5202 49.9042 30.0184H48.2439Z" fill="#EDC939"/>
</g>
<defs>
<clipPath id="clip0">
<rect width="50" height="50" fill="white"/>
</clipPath>
</defs>
</svg>
