<svg width="50" height="50" viewBox="0 0 50 50" fill="none" xmlns="http://www.w3.org/2000/svg">
<path d="M47.5 22.4994C47.9602 22.4994 48.3333 22.1262 48.3333 21.666V19.166H49.1667C49.6269 19.166 50 18.7929 50 18.3327V14.9994C49.9993 14.672 49.807 14.3753 49.5083 14.241L25.3417 3.40769C25.1244 3.30998 24.8756 3.30998 24.6583 3.40769L0.491667 14.241C0.193021 14.3752 0.000729167 14.6719 0 14.9994V18.3327C0 18.7929 0.373125 19.166 0.833333 19.166H1.66667V21.666C1.66667 22.1262 2.03979 22.4994 2.5 22.4994H3.33333V38.3327H2.5C2.03979 38.3327 1.66667 38.7058 1.66667 39.166V41.666H0.833333C0.373125 41.666 0 42.0392 0 42.4994V45.8327C0 46.2929 0.373125 46.666 0.833333 46.666H49.1667C49.6269 46.666 50 46.2929 50 45.8327V42.4994C50 42.0392 49.6269 41.666 49.1667 41.666H48.3333V39.166C48.3333 38.7058 47.9602 38.3327 47.5 38.3327H46.6667V22.4994H47.5ZM1.66667 17.4994V15.541L25 5.08269L48.3333 15.541V17.4994H1.66667ZM3.33333 39.9994H46.6667V41.666H3.33333V39.9994ZM5 38.3327V22.4994H10V38.3327H5ZM11.6667 38.3327V22.4994H15V38.3327H11.6667ZM16.6667 38.3327V22.4994H21.6667V38.3327H16.6667ZM23.3333 38.3327V22.4994H26.6667V38.3327H23.3333ZM28.3333 38.3327V22.4994H33.3333V38.3327H28.3333ZM35 38.3327V22.4994H38.3333V38.3327H35ZM40 38.3327V22.4994H45V38.3327H40ZM48.3333 43.3327V44.9994H1.66667V43.3327H48.3333ZM3.33333 20.8327V19.166H46.6667V20.8327H3.33333Z" fill="#EDC939"/>
<path d="M25.0002 7.49902C22.699 7.49902 20.8335 9.36454 20.8335 11.6657C20.8335 13.9668 22.699 15.8324 25.0002 15.8324C27.3013 15.8324 29.1668 13.9668 29.1668 11.6657C29.1668 9.36454 27.3013 7.49902 25.0002 7.49902ZM25.0002 14.1657C23.6194 14.1657 22.5002 13.0464 22.5002 11.6657C22.5002 10.285 23.6194 9.16569 25.0002 9.16569C26.3809 9.16569 27.5002 10.285 27.5002 11.6657C27.5002 13.0464 26.3809 14.1657 25.0002 14.1657Z" fill="#EDC939"/>
<path d="M8.33317 24.1656H6.6665V36.6657H8.33317V24.1656Z" fill="#EDC939"/>
<path d="M43.3332 24.1656H41.6665V36.6657H43.3332V24.1656Z" fill="#EDC939"/>
<path d="M20.0002 24.1656H18.3335V36.6657H20.0002V24.1656Z" fill="#EDC939"/>
<path d="M31.6667 24.1656H30V36.6657H31.6667V24.1656Z" fill="#EDC939"/>
</svg>
