<svg width="50" height="50" viewBox="0 0 50 50" fill="none" xmlns="http://www.w3.org/2000/svg">
<path d="M36.6667 0H5.83333C5.37313 0 5 0.373125 5 0.833333V5H0.833333C0.373125 5 0 5.37313 0 5.83333V49.1667C0 49.6269 0.373125 50 0.833333 50H31.6667C32.1269 50 32.5 49.6269 32.5 49.1667V45.8333H36.6667C37.1269 45.8333 37.5 45.4602 37.5 45V0.833333C37.5 0.373125 37.1269 0 36.6667 0ZM30.8333 48.3333H1.66667V6.66667H22.5V14.1667C22.5 14.6269 22.8731 15 23.3333 15H30.8333V48.3333ZM24.1667 13.3333V7.84167L29.6583 13.3333H24.1667ZM35.8333 44.1667H32.5V14.1667C32.5012 13.9452 32.4143 13.7323 32.2583 13.575L30.3417 11.6667H32.5V10H28.675L26.175 7.5H27.5V5.83333H24.5083L23.925 5.24167C23.7677 5.08573 23.5548 4.99875 23.3333 5H6.66667V1.66667H35.8333V44.1667Z" fill="#EDC939"/>
<path d="M49.1663 12.5H47.4997C47.4997 10.6591 46.0073 9.16669 44.1663 9.16669C42.3254 9.16669 40.833 10.6591 40.833 12.5V45C40.833 45.1496 40.8733 45.2964 40.9497 45.425L43.4497 49.5917C43.6846 49.9875 44.1958 50.1179 44.5916 49.8831C44.7115 49.8119 44.8118 49.7117 44.883 49.5917L47.383 45.425C47.4594 45.2964 47.4997 45.1496 47.4997 45V14.1667H48.333V29.1667H49.9997V13.3334C49.9997 12.8731 49.6266 12.5 49.1663 12.5ZM44.1663 47.55L43.1413 45.8334H45.1913L44.1663 47.55ZM45.833 44.1667H42.4997V29.1667H45.833V44.1667ZM45.833 27.5H42.4997V14.1667H45.833V27.5ZM42.4997 12.5C42.4997 11.5795 43.2458 10.8334 44.1663 10.8334C45.0869 10.8334 45.833 11.5795 45.833 12.5H42.4997Z" fill="#EDC939"/>
<path d="M26.6663 36.6667H5.83301V38.3334H26.6663V36.6667Z" fill="#EDC939"/>
<path d="M18.333 40.8333H5.83301V42.5H18.333V40.8333Z" fill="#EDC939"/>
<path d="M26.6663 32.5H10.833V34.1667H26.6663V32.5Z" fill="#EDC939"/>
<path d="M9.16634 32.5H5.83301V34.1667H9.16634V32.5Z" fill="#EDC939"/>
<path d="M24.1663 28.3333V20.8333H22.4997V28.3333H20.833V22.5H19.1663V28.3333H17.4997V20H15.833V28.3333H14.1663V22.5H12.4997V28.3333H10.833V25.8333H9.16634V28.3333H7.49967V20H5.83301V29.1667C5.83301 29.6269 6.20613 30 6.66634 30H26.6663V28.3333H24.1663Z" fill="#EDC939"/>
<path d="M16.6663 10.8333H5.83301V12.5H16.6663V10.8333Z" fill="#EDC939"/>
<path d="M13.333 15H5.83301V16.6667H13.333V15Z" fill="#EDC939"/>
<path d="M32.5003 5.83331H29.167V7.49998H32.5003V5.83331Z" fill="#EDC939"/>
<path d="M23.3333 40.8333H20V42.5H23.3333V40.8333Z" fill="#EDC939"/>
</svg>
