<svg width="50" height="50" viewBox="0 0 50 50" fill="none" xmlns="http://www.w3.org/2000/svg">
<path d="M31.625 9.68324C31.4937 9.36356 31.1788 9.15793 30.8333 9.16658H27.95L26.525 7.04158C26.2683 6.6596 25.7505 6.55803 25.3685 6.8147C25.2789 6.87491 25.2019 6.95199 25.1417 7.04158L23.7167 9.16658H20.8333C20.4969 9.16824 20.1945 9.3721 20.0667 9.68324C19.9361 9.99356 20.0052 10.3519 20.2417 10.5916L22.4083 12.7582L21.6667 15.6332C21.5948 15.9423 21.7046 16.2654 21.95 16.4666C22.2058 16.6715 22.5581 16.7073 22.85 16.5582L25.8333 15.0999L28.7916 16.5749C28.9078 16.6344 29.0362 16.6657 29.1666 16.6666C29.6266 16.6801 30.0106 16.318 30.024 15.858C30.0262 15.7823 30.0181 15.7067 30 15.6332L29.2833 12.7582L31.45 10.5916C31.6864 10.352 31.7555 9.99356 31.625 9.68324ZM27.7416 11.9082C27.5355 12.1158 27.4532 12.4163 27.525 12.6999L27.9166 14.2749L26.25 13.4416C26.0142 13.3227 25.7358 13.3227 25.5 13.4416L23.7917 14.2749L24.1667 12.6999C24.2384 12.4163 24.1561 12.1158 23.95 11.9082L22.8417 10.8332H24.1667C24.4454 10.8318 24.705 10.6911 24.8583 10.4582L25.8333 8.99991L26.8083 10.4582C26.9616 10.6911 27.2212 10.8318 27.5 10.8332H28.825L27.7416 11.9082Z" fill="#EDC939"/>
<path d="M40.8335 3.33333H35.8335V0.833333C35.8335 0.373125 35.4604 0 35.0002 0H16.6668C16.2066 0 15.8335 0.373125 15.8335 0.833333V3.33333H10.8335C9.45277 3.33333 8.3335 4.4526 8.3335 5.83333V11.5583C8.33485 12.4364 8.79662 13.2493 9.55016 13.7L17.0502 18.2167V18.175C18.3954 20.5777 20.6662 22.3244 23.3335 23.0083V25H22.5002C22.04 25 21.6668 25.3731 21.6668 25.8333C21.6668 26.2935 22.04 26.6667 22.5002 26.6667H23.3335C23.2537 28.2678 22.5329 29.7695 21.3335 30.8333H20.0002C18.0198 30.8329 16.3129 32.2264 15.9168 34.1667H15.0002C14.54 34.1667 14.1668 34.5398 14.1668 35V49.1667C14.1668 49.6269 14.54 50 15.0002 50H36.6668C37.127 50 37.5002 49.6269 37.5002 49.1667V35C37.5002 34.5398 37.127 34.1667 36.6668 34.1667H35.7502C35.3541 32.2264 33.6471 30.8329 31.6668 30.8333H30.3418C29.1393 29.7709 28.4155 28.2691 28.3335 26.6667H29.1668C29.627 26.6667 30.0002 26.2935 30.0002 25.8333C30.0002 25.3731 29.627 25 29.1668 25H28.3335V23.0083C30.9854 22.3143 33.2394 20.5687 34.5752 18.175V18.2167L42.0752 13.7C42.8446 13.2597 43.3235 12.4448 43.3335 11.5583V5.83333C43.3335 4.4526 42.2142 3.33333 40.8335 3.33333ZM10.4085 12.275C10.1554 12.125 10.0003 11.8526 10.0002 11.5583V5.83333C10.0002 5.37313 10.3733 5 10.8335 5H15.8335V6.66667H12.5002C12.04 6.66667 11.6668 7.03979 11.6668 7.5V10.8333C11.6668 11.1276 11.822 11.3999 12.0752 11.55L15.8335 13.8167C15.8649 14.4545 15.9569 15.0879 16.1085 15.7083L10.4085 12.275ZM15.8335 8.33333V11.8583L13.3335 10.3583V8.33333H15.8335ZM35.8335 35.8333V48.3333H15.8335V35.8333H35.8335ZM29.4752 32.3C29.6217 32.4254 29.8072 32.4961 30.0002 32.5H31.6668C32.7267 32.4995 33.6718 33.1673 34.0252 34.1667H17.6418C17.9952 33.1673 18.9403 32.4995 20.0002 32.5H25.8335V30.8333H23.5418C24.441 29.6254 24.9499 28.1717 25.0002 26.6667H26.6668C26.7566 28.8591 27.7784 30.9087 29.4752 32.3ZM25.0002 25V23.3333H26.6668V25H25.0002ZM34.1668 13.3333C34.1668 17.9357 30.4359 21.6667 25.8335 21.6667C21.2311 21.6667 17.5002 17.9357 17.5002 13.3333V5H32.5002V3.33333H17.5002V1.66667H34.1668V13.3333ZM35.8335 8.33333H38.3335V10.3583L35.8335 11.8583V8.33333ZM41.6668 11.5583C41.6668 11.8526 41.5116 12.1249 41.2585 12.275L35.5335 15.7083C35.6935 15.0887 35.7939 14.4553 35.8335 13.8167L39.6168 11.55C39.8604 11.3939 40.0055 11.1226 40.0002 10.8333V7.5C40.0002 7.03979 39.627 6.66667 39.1668 6.66667H35.8335V5H40.8335C41.2937 5 41.6668 5.37313 41.6668 5.83333V11.5583Z" fill="#EDC939"/>
<path d="M31.6665 37.5H19.9998C19.5396 37.5 19.1665 37.8731 19.1665 38.3333V45.8333C19.1665 46.2935 19.5396 46.6667 19.9998 46.6667H31.6665C32.1267 46.6667 32.4998 46.2935 32.4998 45.8333V38.3333C32.4998 37.8731 32.1267 37.5 31.6665 37.5ZM30.8332 45H20.8332V39.1667H30.8332V45Z" fill="#EDC939"/>
<path d="M24.1667 41.6667H22.5V43.3334H24.1667V41.6667Z" fill="#EDC939"/>
<path d="M29.1668 41.6667H25.8335V43.3334H29.1668V41.6667Z" fill="#EDC939"/>
<path d="M10.8332 20V17.5H9.1665V20H6.6665V21.6667H9.1665V24.1667H10.8332V21.6667H13.3332V20H10.8332Z" fill="#EDC939"/>
<path d="M41.7999 27.4998C40.4528 27.2688 39.3976 26.2136 39.1665 24.8665C39.1665 24.4063 38.7934 24.0331 38.3332 24.0331C37.873 24.0331 37.4999 24.4063 37.4999 24.8665C37.2688 26.2136 36.2136 27.2688 34.8665 27.4998C34.4063 27.4998 34.0332 27.8729 34.0332 28.3331C34.0332 28.7933 34.4063 29.1665 34.8665 29.1665C36.2136 29.3975 37.2688 30.4527 37.4999 31.7998C37.4999 32.26 37.873 32.6331 38.3332 32.6331C38.7934 32.6331 39.1665 32.26 39.1665 31.7998C39.3976 30.4527 40.4528 29.3975 41.7999 29.1665C42.2601 29.1665 42.6332 28.7933 42.6332 28.3331C42.6332 27.8729 42.2601 27.4998 41.7999 27.4998ZM38.3332 29.5248C38.0099 29.0599 37.6064 28.6565 37.1415 28.3331C37.6064 28.0098 38.0099 27.6064 38.3332 27.1415C38.6565 27.6064 39.06 28.0098 39.5249 28.3331C39.06 28.6565 38.6565 29.0599 38.3332 29.5248Z" fill="#EDC939"/>
</svg>
