<svg width="50" height="50" viewBox="0 0 50 50" fill="none" xmlns="http://www.w3.org/2000/svg">
<g clip-path="url(#clip0)">
<path d="M45.792 11.1906L49.7338 7.25721C49.9703 7.01762 50.0393 6.65917 49.9088 6.34885C49.7787 6.03197 49.468 5.82707 49.1255 5.83217H45.3004L47.2171 3.9238C47.5439 3.59702 47.5439 3.06721 47.2171 2.74044C46.8903 2.41366 46.3605 2.41366 46.0337 2.74044L44.1253 4.65715V0.832058C44.1237 0.495592 43.9198 0.19319 43.6087 0.0653741C43.2983 -0.0651497 42.9399 0.00391437 42.7003 0.240378L38.7669 4.16547C27.2319 -3.42335 11.7291 -0.224424 4.14025 11.3105C-2.03051 20.69 -1.19174 33.0329 6.19113 41.4913L2.54938 48.7915C2.3423 49.2025 2.50761 49.7036 2.91856 49.9107C3.03408 49.9689 3.16169 49.9994 3.29107 49.9999H7.45783C7.77159 49.9989 8.05826 49.8217 8.19951 49.5415L10.3412 45.2664C19.0638 51.5782 30.8526 51.5782 39.5752 45.2664L41.7169 49.5415C41.8582 49.8217 42.1449 49.9989 42.4586 49.9999H46.6254C47.0856 49.9985 47.4576 49.6242 47.4562 49.164C47.4558 49.0346 47.4253 48.9071 47.3671 48.7915L43.7253 41.4913C51.2042 33.0277 52.0525 20.5913 45.792 11.1906ZM43.6337 7.49888H47.1171L44.1253 10.4906L43.792 10.8323H40.3003L43.6337 7.49888ZM39.1252 6.17385L39.4669 5.84051L42.4586 2.84044V6.33218L39.1252 9.66559V6.17385ZM37.3168 38.5252C29.8399 45.3532 18.2436 44.8271 11.4156 37.3502C4.58766 29.8732 5.11371 18.2769 12.5907 11.449C19.5926 5.05476 30.3149 5.05476 37.3168 11.449L34.9585 13.8324C28.7676 8.28587 19.2526 8.80818 13.7061 14.999C8.15962 21.1899 8.68192 30.7049 14.8728 36.2514C21.0637 41.7979 30.5787 41.2756 36.1252 35.0847C41.2462 29.3688 41.2462 20.715 36.1252 14.999L38.4919 12.624C45.3198 20.1008 44.7938 31.6972 37.3168 38.5252ZM24.3451 25.5861C24.3467 25.5877 24.3483 25.5893 24.3499 25.5909C24.674 25.9176 25.2017 25.9198 25.5285 25.5956C25.5301 25.5941 25.5317 25.5924 25.5332 25.5909L27.8166 23.3325C28.1191 23.8364 28.283 24.4115 28.2916 24.9992C28.3207 26.863 26.8334 28.3974 24.9696 28.4264C23.1058 28.4555 21.5714 26.9682 21.5423 25.1044C21.5133 23.2406 23.0006 21.7062 24.8644 21.6771C25.4826 21.6674 26.0917 21.8279 26.6249 22.1408L24.3499 24.4075C24.0231 24.7317 24.0209 25.2593 24.3451 25.5861ZM27.85 20.9242C25.598 19.3258 22.4768 19.8556 20.8785 22.1075C19.2801 24.3595 19.8099 27.4807 22.0618 29.0791C24.3137 30.6774 27.435 30.1476 29.0333 27.8957C30.2636 26.1624 30.2636 23.8408 29.0333 22.1075L31.4084 19.7325C34.3196 23.2973 33.7898 28.5471 30.225 31.4583C26.6602 34.3695 21.4104 33.8397 18.4992 30.2749C15.588 26.7102 16.1178 21.4603 19.6826 18.5491C22.7503 16.0439 27.1574 16.0439 30.225 18.5491L27.85 20.9242ZM17.3148 18.5491C13.7475 22.7655 14.2735 29.0753 18.4899 32.6427C22.7062 36.2101 29.016 35.684 32.5834 31.4677C35.738 27.7392 35.738 22.2775 32.5834 18.5491L34.9585 16.1907C39.8457 21.7361 39.3121 30.1934 33.7668 35.0806C28.2214 39.9677 19.7642 39.4342 14.877 33.8889C9.98976 28.3435 10.5233 19.8862 16.0687 14.999C21.1261 10.5419 28.7093 10.5419 33.7668 14.999L31.4084 17.3741C27.192 13.8067 20.8822 14.3328 17.3148 18.5491ZM6.94115 48.3331H4.6411L7.45783 42.7914C7.95784 43.2914 8.49119 43.7664 9.0412 44.2247L6.94115 48.3331ZM45.2754 48.3331H42.9753L40.9169 44.2247C41.4669 43.7664 42.0003 43.2914 42.5003 42.7914L45.2754 48.3331ZM41.7336 41.233C32.8196 50.4886 18.0903 50.7655 8.83463 41.8514C8.62463 41.6491 8.41848 41.443 8.21618 41.233L8.19951 41.208C-0.754026 31.9393 -0.498603 17.1673 8.77005 8.21389C16.5591 0.689554 28.5014 -0.486513 37.6085 5.37383V5.4655C37.6054 5.49039 37.6054 5.5156 37.6085 5.5405C37.5397 5.62686 37.4887 5.72592 37.4585 5.83217V9.40726C28.8409 2.4971 16.2531 3.88129 9.34308 12.499C2.43303 21.1167 3.81723 33.7044 12.4348 40.6144C21.0524 47.5245 33.6402 46.1403 40.5503 37.5227C46.4128 30.2116 46.4128 19.8101 40.5503 12.499H44.1253C44.2224 12.4962 44.3184 12.4765 44.4087 12.4407H44.4837L44.5753 12.399C50.4328 21.5054 49.2561 33.4451 41.7336 41.233Z" fill="#EDC939"/>
</g>
<defs>
<clipPath id="clip0">
<rect width="50" height="50" fill="white"/>
</clipPath>
</defs>
</svg>
