<svg width="22" height="18" viewBox="0 0 22 18" fill="none" xmlns="http://www.w3.org/2000/svg">
<path d="M21.7796 4.33569C21.7796 4.26222 21.5593 2.64622 20.8615 1.87494C20.0167 0.956755 19.0985 0.846572 18.6211 0.809815H18.4742C15.4992 0.589448 11.0552 0.552734 10.9817 0.552734C10.945 0.552734 6.46416 0.589448 3.52592 0.883285H3.41573C2.90149 0.919999 1.9833 1.03018 1.17531 1.94836C0.440734 2.71965 0.220367 4.3724 0.220367 4.44587C0.220367 4.44587 0 6.31899 0 8.19211V9.91834C0 11.7547 0.220367 13.6279 0.220367 13.6646C0.220367 13.738 0.440734 15.354 1.13855 16.1253C1.90983 17.0068 2.82802 17.117 3.41569 17.1905C3.52587 17.1905 3.59934 17.1905 3.70953 17.2272C5.39899 17.3741 10.7613 17.4475 10.9816 17.4475C11.0184 17.4475 15.4992 17.4475 18.4741 17.117H18.5843C19.0985 17.0803 20.0167 16.9701 20.8247 16.0519C21.5593 15.2806 21.7796 13.6278 21.7796 13.5544C21.7796 13.5544 22 11.6812 22 9.80811V8.08193C22 6.24552 21.7796 4.3724 21.7796 4.33569ZM21.2654 9.88158C21.2654 11.718 21.0451 13.5544 21.0451 13.5544C20.9716 13.9584 20.7512 15.1336 20.2738 15.6478C19.6494 16.3824 18.9149 16.4558 18.5108 16.4926H18.4007C15.4624 16.713 11.0184 16.713 10.9816 16.713C10.9449 16.713 5.43575 16.6395 3.81971 16.4559C3.70953 16.4559 3.59934 16.4192 3.48916 16.4192C2.97496 16.3825 2.24043 16.2723 1.65275 15.6112C1.21202 15.1337 0.954939 13.9584 0.918182 13.5544C0.918182 13.5177 0.697815 11.6813 0.697815 9.88162V8.1554C0.697815 6.31899 0.918182 4.48263 0.918182 4.48263C0.954896 4.07861 1.21202 2.90335 1.65275 2.38914C2.31385 1.65457 3.01167 1.5811 3.4524 1.54439H3.56259C6.50083 1.32402 10.9449 1.28731 10.9816 1.28731C11.0183 1.28731 15.4624 1.32402 18.4006 1.54439H18.5475C18.9515 1.5811 19.6861 1.65457 20.3104 2.38914C20.7512 2.90335 20.9715 4.07861 21.045 4.48263C21.0817 4.5561 21.2654 6.39246 21.2654 8.1554V9.88158H21.2654Z" fill="#F7D504"/>
<path d="M15.5727 9.03668L8.59437 4.95989C8.48419 4.88642 8.33729 4.88642 8.22711 4.95989C8.11693 5.03336 8.04346 5.14354 8.04346 5.29044V13.2604C8.04346 13.4073 8.11693 13.5174 8.22711 13.5909C8.30058 13.6276 8.33729 13.6276 8.41076 13.6276C8.48423 13.6276 8.52095 13.6276 8.59442 13.5909L15.5727 9.69778C15.6829 9.62431 15.7563 9.51413 15.7563 9.36723C15.7563 9.22033 15.6828 9.11011 15.5727 9.03668ZM8.77803 12.636V5.91478L14.6545 9.36719L8.77803 12.636Z" fill="#F7D504"/>
</svg>
