<svg width="64" height="102" viewBox="0 0 64 102" fill="none" xmlns="http://www.w3.org/2000/svg">
<path d="M32 102C38.6015 102 43.9531 96.6484 43.9531 90.0469C43.9531 83.4453 38.6015 78.0938 32 78.0938C25.3985 78.0938 20.0469 83.4453 20.0469 90.0469C20.0469 96.6484 25.3985 102 32 102Z" fill="#EDC939"/>
<path d="M32 0C14.8634 0 0.921875 13.9415 0.921875 31.0781V34.0664H24.8281V31.0781C24.8281 27.1234 28.0453 23.9062 32 23.9062C35.9547 23.9062 39.1719 27.1234 39.1719 31.0781C39.1719 33.1855 38.2469 35.18 36.6338 36.5509L20.0469 50.653V72.1172H43.9531V61.7064L52.1163 54.7662C59.0826 48.8466 63.0781 40.2129 63.0781 31.0781C63.0781 13.9415 49.1366 0 32 0V0Z" fill="#EDC939"/>
</svg>
