<svg width="33" height="33" viewBox="0 0 33 33" fill="none" xmlns="http://www.w3.org/2000/svg">
<g clip-path="url(#clip0)">
<path d="M32.7665 14.3941L31.7017 13.3294C31.6019 13.2296 31.4665 13.1734 31.3253 13.1734H29.7281C29.4341 13.1734 29.1958 13.4118 29.1958 13.7058V16.3677H28.131V12.641C28.131 12.347 27.8926 12.1086 27.5986 12.1086H24.1568L22.1869 9.15124C22.0879 9.00271 21.921 8.9138 21.7424 8.91433H18.5481V7.84957H22.2748C22.5688 7.84957 22.8072 7.61119 22.8072 7.31719V5.18766C22.8072 4.89365 22.5688 4.65527 22.2748 4.65527H11.6271C11.3331 4.65527 11.0948 4.89365 11.0948 5.18766V7.31719C11.0948 7.61119 11.3331 7.84957 11.6271 7.84957H15.3538V8.91433H12.1595C11.9816 8.91433 11.8153 9.00317 11.7166 9.15124L9.74517 12.1086H6.8357C6.54169 12.1086 6.30332 12.347 6.30332 12.641V15.8353H5.23855V12.641C5.23855 12.347 5.00018 12.1086 4.70617 12.1086H2.57664C2.39869 12.1086 2.23245 12.1975 2.1337 12.3455L1.06893 13.9427C1.01077 14.0303 0.979692 14.133 0.979492 14.2382V15.8353C0.979692 15.9405 1.01077 16.0432 1.06893 16.1308L2.04426 17.5922V22.2239C2.04426 22.5179 2.28263 22.7563 2.57664 22.7563H4.70617C5.00018 22.7563 5.23855 22.5179 5.23855 22.2239V19.0296H6.30332V22.2239C6.30332 22.5179 6.54169 22.7563 6.8357 22.7563H9.74517L11.715 25.7137C11.8141 25.8622 11.981 25.9511 12.1595 25.9506H27.5986C27.8926 25.9506 28.131 25.7122 28.131 25.4182V20.6267H29.1958V24.3534C29.1958 24.6474 29.4341 24.8858 29.7281 24.8858H31.3253C31.4665 24.8858 31.6019 24.8296 31.7017 24.7298L32.7665 23.6651C32.8663 23.5652 32.9224 23.4299 32.9224 23.2887V14.7705C32.9224 14.6293 32.8663 14.494 32.7665 14.3941ZM4.17379 16.3677V21.6915H3.10902V17.4325C3.10882 17.3273 3.07774 17.2246 3.01958 17.137L2.04426 15.6756V14.3979L2.86146 13.1734H4.17379V16.3677ZM6.30332 17.9648H5.23855V16.9001H6.30332V17.9648ZM12.1595 6.7848V5.72004H21.7424V6.7848H12.1595ZM17.4833 7.84957V8.91433H16.4186V7.84957H17.4833ZM24.9367 24.8858H12.4443L10.4745 21.9284C10.3754 21.7799 10.2085 21.691 10.03 21.6915H7.36808V13.1734H10.03C10.2079 13.1734 10.3742 13.0846 10.4729 12.9365L12.4443 9.9791H21.4576L23.4274 12.9365C23.5265 13.085 23.6934 13.1739 23.8719 13.1734H24.9367V24.8858ZM27.0662 16.9001V24.8858H26.0015V13.1734H27.0662V16.9001ZM29.1958 19.562H28.131V17.4325H29.1958V19.562ZM31.8577 23.0683L31.1049 23.821H30.2605V14.2382H31.1049L31.8577 14.9909V23.0683Z" fill="#B5A9A3"/>
<path d="M21.6022 16.5402C21.5013 16.4302 21.3589 16.3676 21.2097 16.3676H18.6793L19.5998 12.2241C19.6636 11.937 19.4826 11.6527 19.1956 11.5889C19.0259 11.5511 18.8485 11.5987 18.7203 11.7162L12.3317 17.5724C12.115 17.7711 12.1005 18.1079 12.2992 18.3246C12.4001 18.4346 12.5424 18.4971 12.6916 18.4971H15.222L14.3015 22.6407C14.2378 22.9277 14.4187 23.212 14.7058 23.2759C14.8754 23.3136 15.0529 23.2661 15.181 23.1486L21.5696 17.2924C21.7863 17.0936 21.8009 16.7568 21.6022 16.5402ZM15.7076 21.2213L16.4055 18.0803C16.4693 17.7933 16.2884 17.5088 16.0014 17.4451C15.9634 17.4366 15.9248 17.4324 15.8859 17.4324H14.0604L18.1938 13.6434L17.4958 16.7845C17.432 17.0715 17.613 17.3559 17.9 17.4197C17.9379 17.4281 17.9766 17.4323 18.0154 17.4324H19.841L15.7076 21.2213Z" fill="#B5A9A3"/>
<path d="M9.49738 17.5083H8.43262V21.7674H9.49738V17.5083Z" fill="#B5A9A3"/>
<path d="M9.49738 15.3789H8.43262V16.4437H9.49738V15.3789Z" fill="#B5A9A3"/>
</g>
<defs>
<clipPath id="clip0">
<rect x="0.979492" y="0.472168" width="31.9429" height="31.9429" fill="white"/>
</clipPath>
</defs>
</svg>
