<svg width="25" height="25" viewBox="0 0 25 25" fill="none" xmlns="http://www.w3.org/2000/svg">
<g clip-path="url(#clip0)">
<path d="M21.5316 0.49585H18.6674C17.8557 0.49585 17.1952 1.1563 17.1952 1.96809V4.94598H13.7744C13.7557 4.37458 13.2853 3.91542 12.7095 3.91542H11.8432C11.2673 3.91542 10.797 4.37458 10.7783 4.94598H7.35747V1.96809C7.35742 1.1563 6.69702 0.49585 5.88518 0.49585H3.02103C2.20923 0.49585 1.54883 1.1563 1.54883 1.96809V8.48604C1.54883 9.29783 2.20927 9.95828 3.02103 9.95828H5.88518C6.69697 9.95828 7.35742 9.29783 7.35742 8.48604V5.88285H10.7782C10.7966 6.44254 11.2482 6.89415 11.8079 6.91252V10.4501C11.8079 10.7088 12.0176 10.9185 12.2763 10.9185C12.535 10.9185 12.7447 10.7088 12.7447 10.4501V6.91252C13.3044 6.89415 13.7561 6.44254 13.7744 5.88285H17.1952V8.48599C17.1952 9.29779 17.8557 9.95823 18.6674 9.95823H21.5316C22.3434 9.95823 23.0038 9.29779 23.0038 8.48599V1.96809C23.0038 1.1563 22.3434 0.49585 21.5316 0.49585ZM6.42055 3.83017L4.93496 5.31572C4.75203 5.49864 4.75199 5.79525 4.93496 5.97822C5.02644 6.06966 5.14631 6.11543 5.26619 6.11543C5.38606 6.11543 5.50598 6.06966 5.59742 5.97822L6.42055 5.15509V6.06362L4.93496 7.54917C4.75203 7.73209 4.75199 8.0287 4.93496 8.21167C5.02644 8.30311 5.14631 8.34888 5.26619 8.34888C5.38606 8.34888 5.50598 8.30311 5.59742 8.21167L6.42055 7.38854V8.48604C6.42055 8.7812 6.18038 9.02136 5.88518 9.02136H3.02103C2.72582 9.02136 2.4857 8.7812 2.4857 8.48599V7.38849L3.30878 8.21158C3.40027 8.30302 3.52014 8.34878 3.64001 8.34878C3.75989 8.34878 3.87981 8.30302 3.97125 8.21158C4.15417 8.02866 4.15417 7.73204 3.97125 7.54907L2.48565 6.06348V5.15509L3.30874 5.97818C3.40022 6.06962 3.5201 6.11538 3.63997 6.11538C3.75984 6.11538 3.87976 6.06962 3.9712 5.97818C4.15412 5.79525 4.15412 5.49864 3.9712 5.31567L2.4857 3.83012V2.92169L3.30878 3.74482C3.40027 3.83626 3.52014 3.88202 3.64001 3.88202C3.75989 3.88202 3.87981 3.83626 3.97125 3.74482C4.15417 3.5619 4.15422 3.26528 3.97125 3.08231L2.56997 1.68094C2.66511 1.53198 2.83154 1.43272 3.02107 1.43272H5.88522C6.07471 1.43272 6.24114 1.53198 6.33633 1.68094L4.93496 3.08231C4.75203 3.26524 4.75203 3.56185 4.93496 3.74482C5.02644 3.83626 5.14631 3.88202 5.26619 3.88202C5.38606 3.88202 5.50598 3.83626 5.59742 3.74482L6.42055 2.92169V3.83017ZM12.8384 5.84753C12.8384 5.91869 12.7806 5.97654 12.7095 5.97654H11.8432C11.7721 5.97654 11.7142 5.91869 11.7142 5.84753V4.9813C11.7142 4.91015 11.7721 4.85229 11.8432 4.85229H12.7095C12.7806 4.85229 12.8384 4.91015 12.8384 4.9813V5.84753ZM22.0669 3.83008L20.5813 5.31567C20.3984 5.49859 20.3984 5.79521 20.5813 5.97818C20.6728 6.06962 20.7927 6.11538 20.9126 6.11538C21.0324 6.11538 21.1524 6.06962 21.2438 5.97818L22.0669 5.15509V6.06357L20.5813 7.54917C20.3984 7.73209 20.3984 8.0287 20.5813 8.21167C20.6728 8.30311 20.7926 8.34888 20.9125 8.34888C21.0324 8.34888 21.1523 8.30311 21.2437 8.21167L22.0668 7.38859V8.48608C22.067 8.7812 21.8268 9.02136 21.5316 9.02136H18.6675C18.3723 9.02136 18.1321 8.7812 18.1321 8.48599V7.38849L18.9553 8.21163C19.0467 8.30307 19.1666 8.34883 19.2865 8.34883C19.4064 8.34883 19.5263 8.30307 19.6177 8.21163C19.8006 8.0287 19.8006 7.73209 19.6177 7.54912L18.1321 6.06357V5.15504L18.9553 5.97818C19.0467 6.06962 19.1666 6.11538 19.2865 6.11538C19.4064 6.11538 19.5263 6.06962 19.6177 5.97818C19.8006 5.79525 19.8006 5.49864 19.6177 5.31567L18.1321 3.83012V2.92164L18.9553 3.74477C19.0467 3.83621 19.1666 3.88198 19.2865 3.88198C19.4064 3.88198 19.5263 3.83621 19.6177 3.74477C19.8006 3.56185 19.8007 3.26524 19.6177 3.08227L18.2164 1.6809C18.3116 1.53193 18.478 1.43267 18.6675 1.43267H21.5316C21.7211 1.43267 21.8876 1.53193 21.9827 1.6809L20.5814 3.08227C20.3985 3.26519 20.3985 3.5618 20.5814 3.74477C20.6729 3.83621 20.7927 3.88198 20.9126 3.88198C21.0325 3.88198 21.1524 3.83621 21.2438 3.74477L22.0669 2.92164V3.83008Z" fill="#B5A9A3"/>
<path d="M21.5316 15.0172H18.6674C17.8557 15.0172 17.1952 15.6776 17.1952 16.4894V19.28H13.7753V18.9699C13.7753 18.3643 13.32 17.8634 12.7339 17.7905C12.7409 17.7583 12.7447 17.725 12.7447 17.6907V14.5488C12.7447 14.2901 12.535 14.0803 12.2763 14.0803C12.0176 14.0803 11.8079 14.2901 11.8079 14.5488V17.6907C11.8079 17.7249 11.8118 17.7582 11.8187 17.7904C11.2326 17.8634 10.7773 18.3643 10.7773 18.9699V19.28H7.35742V16.4894C7.35742 15.6776 6.69697 15.0172 5.88518 15.0172H3.02103C2.20923 15.0172 1.54883 15.6776 1.54883 16.4894V23.0074C1.54883 23.8192 2.20927 24.4796 3.02103 24.4796H5.88518C6.69697 24.4796 7.35742 23.8192 7.35742 23.0074V20.2168H10.7773V20.5269C10.7773 21.1825 11.3107 21.7158 11.9663 21.7158H12.5863C13.2419 21.7158 13.7753 21.1825 13.7753 20.5269V20.2168H17.1952V23.0073C17.1952 23.8191 17.8557 24.4796 18.6674 24.4796H21.5316C22.3434 24.4796 23.0038 23.8191 23.0038 23.0073V16.4894C23.0038 15.6776 22.3434 15.0172 21.5316 15.0172ZM6.42046 18.3514L4.93486 19.8369C4.75194 20.0198 4.75189 20.3165 4.93486 20.4994C5.02635 20.5909 5.14622 20.6366 5.26609 20.6366C5.38596 20.6366 5.50588 20.5909 5.59732 20.4994L6.42046 19.6763V20.5848L4.93486 22.0704C4.75194 22.2533 4.75189 22.5499 4.93486 22.7329C5.02635 22.8243 5.14622 22.8701 5.26609 22.8701C5.38596 22.8701 5.50588 22.8243 5.59732 22.7329L6.42046 21.9097V23.0072C6.42055 23.3025 6.18038 23.5427 5.88518 23.5427H3.02103C2.72582 23.5427 2.4857 23.3025 2.4857 23.0073V21.9098L3.30878 22.7329C3.40027 22.8244 3.52014 22.8701 3.64001 22.8701C3.75989 22.8701 3.87981 22.8244 3.97125 22.7329C4.15417 22.55 4.15417 22.2534 3.97125 22.0704L2.48565 20.5848V19.6763L3.30874 20.4994C3.40022 20.5909 3.5201 20.6366 3.63997 20.6366C3.75984 20.6366 3.87976 20.5909 3.9712 20.4994C4.15412 20.3165 4.15412 20.0199 3.9712 19.8369L2.4856 18.3513V17.4429L3.30869 18.266C3.40018 18.3575 3.52005 18.4032 3.63992 18.4032C3.75979 18.4032 3.87971 18.3575 3.97115 18.266C4.15408 18.0831 4.15412 17.7865 3.97115 17.6035L2.56983 16.2021C2.66497 16.0532 2.8314 15.9539 3.02093 15.9539H5.88508C6.07456 15.9539 6.241 16.0532 6.33618 16.2021L4.93486 17.6035C4.75194 17.7864 4.75194 18.0831 4.93486 18.266C5.02635 18.3575 5.14622 18.4032 5.26609 18.4032C5.38596 18.4032 5.50588 18.3575 5.59732 18.266L6.42046 17.4429V18.3514ZM12.8384 20.5269C12.8384 20.6659 12.7254 20.7789 12.5864 20.7789H11.9663C11.8273 20.7789 11.7142 20.6659 11.7142 20.5269V18.9699C11.7142 18.8309 11.8273 18.7178 11.9663 18.7178H12.5864C12.7254 18.7178 12.8384 18.8309 12.8384 18.9699V20.5269ZM22.0669 18.3514L20.5813 19.837C20.3984 20.0199 20.3984 20.3166 20.5813 20.4995C20.6728 20.591 20.7927 20.6367 20.9126 20.6367C21.0324 20.6367 21.1524 20.591 21.2438 20.4995L22.0669 19.6764V20.5849L20.5813 22.0705C20.3984 22.2534 20.3984 22.55 20.5813 22.733C20.6728 22.8245 20.7926 22.8702 20.9125 22.8702C21.0324 22.8702 21.1523 22.8245 21.2437 22.733L22.0668 21.9099V23.0074C22.067 23.3025 21.8268 23.5427 21.5316 23.5427H18.6675C18.3723 23.5427 18.1321 23.3025 18.1321 23.0073V21.9098L18.9553 22.733C19.0467 22.8244 19.1666 22.8702 19.2865 22.8702C19.4064 22.8702 19.5263 22.8244 19.6177 22.733C19.8006 22.55 19.8006 22.2534 19.6177 22.0705L18.1321 20.5849V19.6764L18.9553 20.4995C19.0467 20.591 19.1666 20.6367 19.2865 20.6367C19.4064 20.6367 19.5263 20.591 19.6177 20.4995C19.8006 20.3166 19.8006 20.02 19.6177 19.837L18.1321 18.3515V17.443L18.9553 18.2661C19.0467 18.3576 19.1666 18.4033 19.2865 18.4033C19.4064 18.4033 19.5263 18.3576 19.6177 18.2661C19.8006 18.0832 19.8007 17.7866 19.6177 17.6036L18.2164 16.2022C18.3116 16.0533 18.478 15.954 18.6675 15.954H21.5316C21.7211 15.954 21.8876 16.0533 21.9827 16.2022L20.5814 17.6036C20.3985 17.7865 20.3985 18.0831 20.5814 18.2661C20.6729 18.3576 20.7927 18.4033 20.9126 18.4033C21.0325 18.4033 21.1524 18.3576 21.2438 18.2661L22.0669 17.443V18.3514Z" fill="#B5A9A3"/>
<path d="M12.6072 12.1565C12.5201 12.0694 12.3993 12.0193 12.2761 12.0193C12.1529 12.0193 12.032 12.0694 11.9449 12.1565C11.8577 12.2437 11.8076 12.3645 11.8076 12.4877C11.8076 12.6109 11.8577 12.7318 11.9449 12.8189C12.032 12.906 12.1529 12.9562 12.2761 12.9562C12.3993 12.9562 12.5201 12.906 12.6072 12.8189C12.6944 12.7318 12.7445 12.6109 12.7445 12.4877C12.7445 12.3645 12.6944 12.2437 12.6072 12.1565Z" fill="#B5A9A3"/>
</g>
<defs>
<clipPath id="clip0">
<rect x="0.28418" y="0.49585" width="23.9839" height="23.9839" fill="white"/>
</clipPath>
</defs>
</svg>
