<svg width="29" height="22" viewBox="0 0 29 22" fill="none" xmlns="http://www.w3.org/2000/svg">
<path d="M27.2153 0.283691H2.15725C1.38843 0.283691 0.765137 0.906934 0.765137 1.6758V20.2373C0.765137 21.0061 1.38838 21.6294 2.15725 21.6294H27.2153C27.9841 21.6294 28.6074 21.0062 28.6074 20.2373V1.6758C28.6074 0.906988 27.9842 0.283691 27.2153 0.283691ZM27.6793 20.2373C27.6793 20.4936 27.4716 20.7014 27.2153 20.7014H2.15725C1.90096 20.7014 1.69323 20.4936 1.69323 20.2373V1.6758C1.69323 1.41951 1.90096 1.21178 2.15725 1.21178H27.2153C27.4716 1.21178 27.6793 1.41951 27.6793 1.6758V20.2373Z" fill="#372120"/>
<path d="M26.3274 2.14193C26.2048 2.13122 26.0829 2.16966 25.9887 2.24884L15.2833 11.2419C14.938 11.5321 14.4341 11.5321 14.0889 11.2419L3.38355 2.24878C3.25658 2.1422 3.08235 2.11142 2.92655 2.16808C2.77075 2.22475 2.65699 2.36026 2.62817 2.52356C2.59935 2.68687 2.65982 2.8531 2.78679 2.95969L13.4921 11.9523C14.1821 12.5332 15.1901 12.5332 15.8801 11.9523L26.5854 2.95974C26.6797 2.88062 26.7386 2.76729 26.7494 2.64467C26.7601 2.52204 26.7216 2.40018 26.6424 2.30594C26.5634 2.21159 26.4501 2.15264 26.3274 2.14193Z" fill="#372120"/>
<path d="M9.69032 11.8876C9.52604 11.851 9.35486 11.9061 9.24284 12.0317L2.74629 18.9923C2.62872 19.1127 2.58554 19.2874 2.6335 19.4486C2.68147 19.61 2.81301 19.7327 2.97724 19.7693C3.14152 19.806 3.3127 19.7508 3.42473 19.6252L9.92127 12.6646C10.0388 12.5442 10.082 12.3696 10.0341 12.2083C9.98609 12.047 9.8546 11.9243 9.69032 11.8876Z" fill="#372120"/>
<path d="M20.1298 12.0317C20.0178 11.9061 19.8466 11.851 19.6823 11.8876C19.518 11.9243 19.3865 12.047 19.3386 12.2083C19.2906 12.3696 19.3338 12.5442 19.4514 12.6646L25.9479 19.6252C26.1241 19.8056 26.4121 19.8124 26.5965 19.6403C26.7809 19.4683 26.7942 19.1805 26.6263 18.9922L20.1298 12.0317Z" fill="#372120"/>
</svg>
