<svg width="26" height="26" viewBox="0 0 26 26" fill="none" xmlns="http://www.w3.org/2000/svg">
<path d="M23.8333 0H2.16668C0.953316 0 0 0.953316 0 2.16668V23.8334C0 25.0467 0.953316 26 2.16668 26H12.1334H17.3334H23.8334C25.0467 26 26 25.0467 26 23.8333V2.16668C26 0.953316 25.0467 0 23.8333 0ZM13 25.1333V16.4667H9.53332V13H13V9.96668C13 7.49668 14.9067 5.41668 17.3333 5.2H21.2333V8.66668H17.7666C17.0299 8.66668 16.4666 9.23 16.4666 9.96668V13H20.8V16.4667H16.4667V25.1334H13V25.1333ZM25.1333 23.8333C25.1333 24.57 24.57 25.1333 23.8333 25.1333H17.3333V17.3333H21.6666V12.1333H17.3333V9.96663C17.3333 9.70663 17.5066 9.53332 17.7666 9.53332H22.1V4.33332H17.29C14.3867 4.59332 12.1333 7.06332 12.1333 9.96663V12.1333H8.66663V17.3333H12.1333V25.1333H2.16668C1.43 25.1333 0.866684 24.57 0.866684 23.8333V2.16668C0.866684 1.43 1.43 0.866684 2.16668 0.866684H23.8334C24.5701 0.866684 25.1334 1.43 25.1334 2.16668V23.8333H25.1333Z" fill="black"/>
</svg>
