<svg width="21" height="25" viewBox="0 0 21 25" fill="none" xmlns="http://www.w3.org/2000/svg">
<path d="M20.6156 3.80209L18.6169 1.80341C18.4217 1.60822 18.1055 1.60822 17.9104 1.80341C17.7152 1.99861 17.7152 2.31481 17.9104 2.50996L19.5558 4.15534L17.9104 5.80072C17.8167 5.8944 17.764 6.02126 17.764 6.15401V7.65301C17.764 8.75533 18.6604 9.65168 19.7627 9.65168V18.146C19.7627 18.4216 19.5387 18.6456 19.263 18.6456C18.9873 18.6456 18.7633 18.4217 18.7633 18.146V17.1467C18.7633 16.3201 18.0909 15.6477 17.2643 15.6477H16.7647V2.65639C16.7647 1.55407 15.8683 0.657715 14.766 0.657715H4.77274C3.67046 0.657715 2.77407 1.55407 2.77407 2.65639V20.6443C1.67179 20.6443 0.775391 21.5407 0.775391 22.643V24.142C0.775391 24.4182 0.998881 24.6417 1.27507 24.6417H18.2637C18.5399 24.6417 18.7634 24.4182 18.7634 24.142V22.643C18.7634 21.5407 17.867 20.6443 16.7647 20.6443V16.647H17.2644C17.54 16.647 17.7641 16.871 17.7641 17.1467V18.146C17.7641 18.9726 18.4364 19.645 19.2631 19.645C20.0897 19.645 20.762 18.9726 20.762 18.146V4.15538C20.762 4.02263 20.7093 3.89578 20.6156 3.80209ZM3.77343 2.65639C3.77343 2.10551 4.22186 1.65708 4.77274 1.65708H14.766C15.3169 1.65708 15.7653 2.10551 15.7653 2.65639V20.6443H3.77338V2.65639H3.77343ZM17.764 22.643V23.6423H1.77475V22.643C1.77475 22.0921 2.22318 21.6436 2.77407 21.6436H16.7647C17.3156 21.6436 17.764 22.0921 17.764 22.643ZM19.7627 8.65237C19.2118 8.65237 18.7634 8.20393 18.7634 7.65305V6.36092L19.7627 5.36161V8.65237Z" fill="#B5A9A3"/>
<path d="M14.2661 2.65649H5.27214C4.99595 2.65649 4.77246 2.87998 4.77246 3.15617V9.16143C4.77246 9.43762 4.99595 9.66111 5.27214 9.66111H14.2661C14.5423 9.66111 14.7658 9.43762 14.7658 9.16143V3.15613C14.7657 2.87998 14.5423 2.65649 14.2661 2.65649ZM13.7664 8.66175H5.77177V3.65581H13.7664V8.66175Z" fill="#B5A9A3"/>
</svg>
