<svg width="58" height="58" viewBox="0 0 58 58" fill="none" xmlns="http://www.w3.org/2000/svg">
<path d="M13.3418 19.7501C12.9 19.3083 12.1818 19.3083 11.7402 19.7501C11.2972 20.1931 11.2972 20.9101 11.7402 21.3519C12.182 21.7949 12.9002 21.7949 13.3418 21.3519C13.7847 20.9101 13.7847 20.1931 13.3418 19.7501Z" fill="white"/>
<path d="M28.6828 50.7183C29.1822 50.0418 29.4522 49.2267 29.4522 48.3697C29.4522 46.1836 27.6736 44.405 25.4874 44.405H6.23025C5.17073 44.405 4.1751 44.8173 3.42665 45.566C2.67786 46.3146 2.26552 47.3102 2.26552 48.3697C2.26552 49.2476 2.5528 50.0593 3.03753 50.7169C1.23375 51.6653 0 53.5571 0 55.7327V56.8655C0 57.4912 0.507274 57.9983 1.13281 57.9983H30.5849C31.2104 57.9983 31.7177 57.4912 31.7177 56.8655V55.7327C31.7177 53.5581 30.4852 51.6671 28.6828 50.7183ZM5.02856 47.1678C5.34926 46.847 5.77611 46.6704 6.23025 46.6704H25.4874C26.4244 46.6704 27.1865 47.4327 27.1865 48.3695C27.1865 48.8238 27.0098 49.2505 26.689 49.5713C26.3683 49.8921 25.9415 50.0687 25.4873 50.0687H6.23025C5.2933 50.0687 4.53115 49.3065 4.53115 48.3696C4.53115 47.9155 4.70775 47.4886 5.02856 47.1678ZM2.26552 55.7327C2.26552 53.8589 3.79006 52.3344 5.66385 52.3344H26.0538C27.9276 52.3344 29.4522 53.8589 29.4522 55.7327H2.26552Z" fill="white"/>
<path d="M56.9454 47.5922C56.5607 46.996 56.1016 46.4687 55.5809 46.0251L50.2878 41.4086C50.2466 41.3465 50.1988 41.2876 50.1441 41.2329C50.0521 41.141 49.9479 41.0693 49.8371 41.0156L31.82 25.2994C32.4265 24.6653 32.7605 23.8362 32.7605 22.9546C32.7605 22.0463 32.4069 21.1927 31.7643 20.5502C31.484 20.2702 31.1655 20.0501 30.825 19.8889L32.1957 18.5182C32.5789 18.6201 32.9725 18.6722 33.3665 18.6722C34.5266 18.6721 35.6869 18.2305 36.57 17.3474C37.4262 16.4913 37.8977 15.3534 37.8977 14.1432C37.8977 12.933 37.4262 11.7951 36.5701 10.939L26.9584 1.32755C26.1023 0.471478 24.9643 0 23.7538 0C22.5438 0 21.4061 0.471478 20.5502 1.32755C19.3671 2.51066 18.9776 4.19051 19.3793 5.70191L5.70341 19.3777C5.3255 19.2772 4.9323 19.2242 4.53061 19.2242C3.31985 19.2242 2.18239 19.6953 1.32701 20.5506C-0.439731 22.3174 -0.439731 25.1921 1.32701 26.959L10.9386 36.5707C11.8221 37.454 12.9824 37.8957 14.1428 37.8957C15.3032 37.8957 16.4636 37.454 17.347 36.5707C18.5302 35.3874 18.9196 33.7077 18.5179 32.1963L19.8858 30.8283C20.0502 31.1716 20.2732 31.4883 20.5503 31.7653C21.1922 32.4071 22.0455 32.7607 22.9536 32.7607C23.8343 32.7607 24.6631 32.4273 25.298 31.8214L41.0788 49.9526C41.1223 50.0206 41.1731 50.0853 41.2324 50.1446C41.2527 50.1649 41.2742 50.1834 41.2956 50.2017L45.9981 55.6046C46.115 55.7425 46.2399 55.8782 46.3696 56.0079C47.6612 57.299 49.3671 57.9997 51.158 57.9997C51.4738 57.9997 51.7924 57.9779 52.1115 57.9337C54.2445 57.6385 56.0879 56.3625 57.1689 54.4324C58.353 52.3171 58.2649 49.6316 56.9454 47.5922ZM22.1523 2.92957C22.5804 2.50148 23.1493 2.26563 23.7539 2.26563C24.3593 2.26563 24.9285 2.50148 25.3565 2.92957L34.9682 12.5412C35.3963 12.9693 35.632 13.5383 35.632 14.1433C35.632 14.7483 35.3963 15.3174 34.9681 15.7454C34.0851 16.6287 32.648 16.6287 31.7649 15.7454L22.1529 6.1334C22.1531 6.13363 22.1527 6.13317 22.1529 6.1334C21.2696 5.25026 21.2691 3.81271 22.1523 2.92957ZM15.745 34.9686C14.8616 35.852 13.424 35.8521 12.5406 34.9686L2.92903 25.357C2.04555 24.4736 2.04555 23.0362 2.92903 22.1526C3.35633 21.7252 3.92523 21.4898 4.53061 21.4898C5.13587 21.4898 5.70443 21.7251 6.13161 22.1522L15.7449 31.7655C16.6283 32.6485 16.6283 34.0856 15.745 34.9686ZM20.5144 26.9959L17.3469 30.1635L7.73432 20.5508L20.5502 7.73475L30.1627 17.3474L26.9894 20.5207C26.9791 20.5305 26.9691 20.54 26.9582 20.5507L20.5535 26.9556C20.5402 26.9686 20.5274 26.9822 20.5144 26.9959ZM24.5592 29.359C24.557 29.3613 24.5548 29.3635 24.5525 29.3657L23.7548 30.1635C23.5408 30.3773 23.2564 30.4951 22.9535 30.4951C22.6507 30.4951 22.3661 30.3773 22.1522 30.1633C21.938 29.9492 21.8201 29.6645 21.8201 29.3614C21.8201 29.0649 21.9332 28.7858 22.1386 28.5754L28.5731 22.1409C29.0141 21.712 29.7271 21.7173 30.1629 22.1526C30.377 22.3667 30.4949 22.6515 30.4949 22.9546C30.4949 23.2574 30.3774 23.5414 30.1628 23.7554L29.3697 24.5484C29.3643 24.5538 29.3588 24.5592 29.3535 24.5646L24.5592 29.359ZM26.9051 30.2172L30.2158 26.9064L44.2335 39.1334L39.1184 44.2487L26.9051 30.2172ZM40.6093 45.9617L45.9447 40.6261L47.6561 42.1188L42.1002 47.6749L40.6093 45.9617ZM55.1922 53.3257C54.4611 54.631 53.2251 55.4925 51.801 55.6896C50.3803 55.8863 48.9843 55.4183 47.9713 54.4058C47.8842 54.3188 47.8008 54.2281 47.7231 54.1361C47.7195 54.1318 47.7159 54.1275 47.7121 54.1233L43.591 49.3879L49.3673 43.6114L54.0968 47.7368C54.1003 47.74 54.1039 47.743 54.1077 47.7462C54.4617 48.0472 54.7758 48.4087 55.0424 48.8217C55.899 50.1454 55.959 51.9556 55.1922 53.3257Z" fill="white"/>
<path d="M21.3517 11.7398C20.9093 11.2975 20.1922 11.2975 19.7497 11.7398L14.9434 16.5461C14.501 16.9885 14.501 17.7058 14.9434 18.148C15.1646 18.3693 15.4545 18.4798 15.7444 18.4798C16.0343 18.4798 16.3242 18.3692 16.5454 18.148L21.3517 13.3417C21.7941 12.8995 21.7941 12.1823 21.3517 11.7398Z" fill="white"/>
</svg>
