<svg width="23" height="28" viewBox="0 0 23 28" fill="none" xmlns="http://www.w3.org/2000/svg">
<path d="M22.4275 4.25968L20.175 2.00716C19.955 1.78717 19.5986 1.78717 19.3787 2.00716C19.1587 2.22715 19.1587 2.5835 19.3787 2.80344L21.2331 4.6578L19.3787 6.51216C19.2731 6.61774 19.2137 6.7607 19.2137 6.91032V8.5997C19.2137 9.84203 20.224 10.8522 21.4662 10.8522V20.4254C21.4662 20.7361 21.2138 20.9885 20.9031 20.9885C20.5924 20.9885 20.34 20.7361 20.34 20.4254V19.2991C20.34 18.3675 19.5822 17.6098 18.6506 17.6098H18.0875V2.96847C18.0875 1.72614 17.0773 0.715942 15.835 0.715942H4.57243C3.33016 0.715942 2.31991 1.72614 2.31991 2.96847V23.241C1.07763 23.241 0.0673828 24.2512 0.0673828 25.4936V27.1829C0.0673828 27.4942 0.319259 27.7461 0.630527 27.7461H19.7769C20.0881 27.7461 20.34 27.4942 20.34 27.1829V25.4936C20.34 24.2513 19.3298 23.241 18.0875 23.241V18.736H18.6506C18.9613 18.736 19.2138 18.9884 19.2138 19.2992V20.4254C19.2138 21.357 19.9716 22.1148 20.9032 22.1148C21.8347 22.1148 22.5925 21.357 22.5925 20.4254V4.65785C22.5925 4.50823 22.5331 4.36527 22.4275 4.25968ZM3.4462 2.96847C3.4462 2.34762 3.95159 1.84223 4.57243 1.84223H15.835C16.4558 1.84223 16.9612 2.34762 16.9612 2.96847V23.241H3.44614V2.96847H3.4462ZM19.2137 25.4935V26.6197H1.19367V25.4935C1.19367 24.8727 1.69906 24.3673 2.31991 24.3673H18.0875C18.7083 24.3673 19.2137 24.8727 19.2137 25.4935ZM21.4662 9.72599C20.8454 9.72599 20.34 9.2206 20.34 8.59975V7.14351L21.4662 6.01727V9.72599Z" fill="#B5A9A3"/>
<path d="M15.2722 2.96851H5.1359C4.82463 2.96851 4.57275 3.22038 4.57275 3.53165V10.2996C4.57275 10.6109 4.82463 10.8628 5.1359 10.8628H15.2722C15.5835 10.8628 15.8353 10.6109 15.8353 10.2996V3.5316C15.8353 3.22038 15.5835 2.96851 15.2722 2.96851ZM14.709 9.73648H5.69899V4.09474H14.709V9.73648Z" fill="#B5A9A3"/>
</svg>
