<svg width="18" height="18" viewBox="0 0 18 18" fill="none" xmlns="http://www.w3.org/2000/svg">
<path d="M12.7169 9.2075C13.5119 8.32188 14 7.15562 14 5.875C14 3.11813 11.7569 0.875 9 0.875C6.24312 0.875 4 3.11813 4 5.875C4 8.63188 6.24312 10.875 9 10.875C9.97188 10.875 10.8769 10.5919 11.6456 10.11C14.3644 11.1344 16.2362 13.6225 16.4744 16.5H1.52625C1.68812 14.5631 2.59687 12.7569 4.075 11.4681C4.33562 11.2413 4.3625 10.8469 4.13562 10.5863C3.90937 10.3263 3.51438 10.2987 3.25375 10.5256C1.34438 12.1894 0.25 14.5944 0.25 17.125C0.25 17.4706 0.53 17.75 0.875 17.75H17.125C17.4706 17.75 17.75 17.4706 17.75 17.125C17.75 13.6962 15.7625 10.6344 12.7169 9.2075ZM5.25 5.875C5.25 3.80687 6.93188 2.125 9 2.125C11.0681 2.125 12.75 3.80687 12.75 5.875C12.75 7.94312 11.0681 9.625 9 9.625C6.93188 9.625 5.25 7.94312 5.25 5.875Z" fill="black"/>
</svg>
