<svg width="30" height="31" viewBox="0 0 30 31" fill="none" xmlns="http://www.w3.org/2000/svg">
<path d="M18.1641 11.5039C17.8406 11.5039 17.5781 11.7752 17.5781 12.1094C17.5781 12.4436 17.8406 12.7148 18.1641 12.7148C18.4875 12.7148 18.75 12.4436 18.75 12.1094C18.75 11.7752 18.4875 11.5039 18.1641 11.5039Z" fill="white"/>
<path d="M29.3133 26.8658L21.4922 18.784C22.7664 16.8008 23.4375 14.5043 23.4375 12.1094C23.4375 5.43227 18.1805 0 11.7188 0C5.25703 0 0 5.43227 0 12.1094C0 18.7865 5.25703 24.2188 11.7188 24.2188C14.0365 24.2188 16.2589 23.5252 18.1781 22.2087L20.3399 24.4426C20.3402 24.4429 20.3405 24.4432 20.3408 24.4436L25.9991 30.2905C26.442 30.748 27.0304 31 27.6562 31C28.2821 31 28.8705 30.748 29.3132 30.2906C29.7561 29.8333 30 29.2252 30 28.5781C30 27.9311 29.7561 27.3229 29.3133 26.8658ZM17.9025 20.9327C17.9025 20.9327 17.9024 20.9328 17.9024 20.9328C16.0938 22.2903 13.9556 23.0078 11.7188 23.0078C5.9032 23.0078 1.17188 18.1188 1.17188 12.1094C1.17188 6.09998 5.9032 1.21094 11.7188 1.21094C17.5343 1.21094 22.2656 6.09998 22.2656 12.1094C22.2656 14.4208 21.5712 16.6302 20.2575 18.4992C19.6003 19.4348 18.8079 20.2536 17.9025 20.9327ZM19.1318 21.4816C19.7382 20.969 20.2926 20.3961 20.7887 19.7695L22.451 21.4873C21.9455 22.1038 21.3908 22.677 20.7942 23.1994L19.1318 21.4816ZM28.4847 29.4342C28.2632 29.6631 27.969 29.7891 27.6562 29.7891C27.3435 29.7891 27.0493 29.6631 26.8278 29.4342L21.625 24.0579C22.2183 23.5317 22.7726 22.959 23.2818 22.3459L28.4848 27.7223C28.7062 27.9508 28.8281 28.2547 28.8281 28.5781C28.8281 28.9016 28.7062 29.2055 28.4847 29.4342Z" fill="white"/>
<path d="M11.7188 2.42188C6.54932 2.42188 2.34375 6.76763 2.34375 12.1094C2.34375 17.4511 6.54932 21.7969 11.7188 21.7969C16.8882 21.7969 21.0938 17.4511 21.0938 12.1094C21.0938 6.76763 16.8882 2.42188 11.7188 2.42188ZM11.7188 20.5859C7.19555 20.5859 3.51562 16.7834 3.51562 12.1094C3.51562 7.4354 7.19555 3.63281 11.7188 3.63281C16.242 3.63281 19.9219 7.4354 19.9219 12.1094C19.9219 16.7834 16.242 20.5859 11.7188 20.5859Z" fill="white"/>
<path d="M18.2851 9.51028C17.7805 8.1533 16.902 6.9931 15.7444 6.1552C14.5593 5.29725 13.1673 4.84375 11.7188 4.84375C11.3952 4.84375 11.1328 5.11488 11.1328 5.44922C11.1328 5.78356 11.3952 6.05469 11.7188 6.05469C14.1269 6.05469 16.3261 7.61789 17.1912 9.94464C17.2807 10.1854 17.5027 10.3331 17.7383 10.3331C17.8081 10.3331 17.8792 10.3201 17.9483 10.2927C18.2503 10.1727 18.4012 9.82246 18.2851 9.51028Z" fill="white"/>
</svg>
