<svg width="50" height="51" viewBox="0 0 50 51" fill="none" xmlns="http://www.w3.org/2000/svg">
<path d="M49.2423 36.5221L44.5234 34.7712C44.0886 34.6108 43.6088 34.8399 43.4515 35.2832L43.165 36.0843L37.6982 34.0521C37.5609 33.9996 37.4121 33.9867 37.2679 34.0138L25.8937 36.0614C24.8626 36.2484 23.977 36.9158 23.4981 37.8649L18.2806 35.9247C17.4473 35.6123 16.5253 35.6539 15.7223 36.0401C14.7018 36.5255 13.9887 37.4995 13.8224 38.6347C13.614 40.2778 14.5686 41.8439 16.1065 42.3809L33.2931 48.7578C33.3847 48.7924 33.4819 48.8103 33.5796 48.8099C33.6707 48.8099 33.761 48.7945 33.8473 48.7649L38.6471 47.1131L39.158 47.3022L38.8715 48.1042C38.7141 48.5474 38.9389 49.037 39.3737 49.1973L44.0935 50.9479C44.1846 50.9825 44.2815 51.0004 44.3787 51C44.7306 51.0004 45.0453 50.7759 45.1654 50.4388L49.7454 37.6099C49.8995 37.1679 49.6747 36.6821 49.2423 36.5221ZM38.3892 45.4029L33.5894 47.0547L16.6786 40.7794C15.8964 40.5141 15.3974 39.7325 15.4767 38.8955C15.5474 38.3856 15.84 37.9357 16.2732 37.6703C16.7064 37.4053 17.2336 37.3541 17.708 37.5307L23.1385 39.545C23.1413 39.7025 23.1536 39.8596 23.1761 40.015C23.5042 41.8655 25.2337 43.1012 27.0519 42.7837L36.4746 41.0902L36.1832 39.4092L26.765 41.1031C25.8582 41.2602 24.995 40.6469 24.8259 39.725C24.7911 39.5304 24.7923 39.3305 24.8299 39.1363C24.8361 39.108 24.841 39.0797 24.8442 39.0509C24.8553 38.978 24.8745 38.9068 24.9019 38.8385C25.1074 38.2656 25.5962 37.8478 26.1851 37.7403L37.3365 35.7356L42.5928 37.6849L39.7301 45.7049L38.9434 45.4142C38.7652 45.3467 38.5699 45.3425 38.3892 45.4029ZM43.8748 49.0557L40.7289 47.8884L44.7359 36.6638L47.8823 37.8307L43.8748 49.0557Z" fill="black"/>
<path d="M20.3865 13.7094C20.6579 14.7137 21.1586 15.6399 21.8482 16.413C21.8354 16.4811 21.8264 16.5495 21.8223 16.6188V21.2472C21.8223 22.6552 22.9518 23.7968 24.3457 23.7968V32.2957C24.3436 32.6194 24.5244 32.9161 24.8106 33.0605L26.4929 33.9104C26.7299 34.0299 27.0083 34.0299 27.2449 33.9104L28.9272 33.0605C29.2138 32.9161 29.3941 32.6194 29.3925 32.2957V23.7968C30.786 23.7968 31.9159 22.6552 31.9159 21.2472V16.6188C31.9114 16.5446 31.9019 16.4707 31.888 16.3977C32.4498 15.7731 32.8876 15.0452 33.1776 14.2534C34.4196 14.4643 35.6628 13.8878 36.315 12.7993C37.1147 11.4627 36.8958 9.74507 35.7868 8.65698L28.9415 1.74212C27.84 0.623325 26.3409 -0.00412938 24.7786 2.04542e-05H15.9344C15.8202 -0.000394529 15.7076 0.0232595 15.6029 0.0689077L9.87803 2.54968H9.20529V0.849906C9.20529 0.38056 8.82867 2.04542e-05 8.36415 2.04542e-05H1.63508C1.17057 2.04542e-05 0.793945 0.38056 0.793945 0.849906V14.4481C0.793945 14.9174 1.17057 15.298 1.63508 15.298H8.36415C8.82867 15.298 9.20529 14.9174 9.20529 14.4481V12.7483H9.32809C9.93019 14.7879 12.6351 16.1478 15.0932 16.1478C17.1324 16.1902 19.0804 15.293 20.3865 13.7094ZM7.52302 13.5982H2.47621V1.69979H7.52302V13.5982ZM27.7102 31.7703L26.8691 32.1952L26.028 31.7703V23.7968H27.7102V31.7703ZM30.2336 21.2472C30.2336 21.7165 29.857 22.097 29.3925 22.097H24.3457C23.8812 22.097 23.5046 21.7165 23.5046 21.2472V17.7779C24.0701 18.1107 24.6817 18.3572 25.3187 18.5087C25.6095 19.2237 26.3385 19.6528 27.097 19.5557C27.856 19.459 28.4565 18.8602 28.562 18.0945C28.6676 17.3293 28.252 16.5873 27.5484 16.2844C26.8445 15.9819 26.0271 16.1931 25.5544 16.8006C25.08 16.6749 24.6262 16.4794 24.2085 16.2201C25.0193 15.7233 25.9269 15.4088 26.8691 15.298C28.0766 15.4693 29.2282 15.9217 30.2336 16.6188V21.2472ZM30.86 15.0199C29.6574 14.2385 28.291 13.7517 26.8691 13.5982C25.4497 13.7509 24.0853 14.2368 22.8844 15.0166C22.3714 14.3568 22.0318 13.5766 21.897 12.7483H26.028C27.2601 12.7608 28.3953 12.0744 28.9666 10.9713L31.322 13.3509C31.4161 13.4397 31.5155 13.5222 31.6198 13.5982C31.4465 14.1115 31.1898 14.5921 30.86 15.0199ZM29.3527 8.95702C29.2742 8.2615 28.9826 7.60791 28.5193 7.0871C30.4217 7.75481 31.7496 9.50106 31.8974 11.5303L29.3527 8.95702ZM19.2989 11.8984C19.2989 13.1853 17.2154 14.4481 15.0932 14.4481C12.9711 14.4481 10.8876 13.1853 10.8876 11.8984C10.8876 11.4291 10.5109 11.0485 10.0464 11.0485H9.20529V4.24945H10.0464C10.1602 4.24986 10.2731 4.22621 10.3779 4.18056L16.1023 1.69979H24.7745C25.8916 1.69564 26.9644 2.14382 27.7521 2.94391L34.5958 9.85877C35.149 10.3808 35.2735 11.2191 34.896 11.8822C34.6151 12.3317 34.1239 12.6014 33.5982 12.5952C33.5846 12.5952 33.5719 12.5952 33.5583 12.5952C33.5838 12.364 33.5969 12.1312 33.5982 11.8984C33.5941 8.14531 30.5836 5.10348 26.8691 5.09933C25.7388 5.10099 24.6274 5.39356 23.6397 5.94922H16.7755V7.64899H26.028C26.957 7.64899 27.7102 8.41007 27.7102 9.34876C27.7102 10.2875 26.957 11.0485 26.028 11.0485H20.14C19.6755 11.0485 19.2989 11.4291 19.2989 11.8984Z" fill="black"/>
</svg>
