<svg width="36" height="16" viewBox="0 0 36 16" fill="none" xmlns="http://www.w3.org/2000/svg">
<path d="M15.0728 6.27588H16.926V7.04716H15.0728V6.27588Z" fill="white" stroke="#B5A9A3" stroke-width="0.5"/>
<path d="M34.9094 4.12597L30.913 3.50958C30.1842 3.02609 29.428 2.59327 28.6483 2.21345C26.0734 0.953783 23.2787 0.303781 20.4517 0.307142H19.7575C16.4213 0.309727 13.1385 1.21389 10.2083 2.93714L8.19139 4.12546C5.8305 4.15415 3.51508 4.83234 1.46396 6.09511C0.63039 6.61144 0.115694 7.56938 0.114258 8.60696V12.38C0.114258 12.7311 0.377591 13.0155 0.702687 13.0155H2.67816C3.32069 14.9953 5.32753 16.0378 7.16057 15.3438C8.16961 14.9619 8.96272 14.1051 9.3163 13.0155H25.0349C25.6774 14.9953 27.6842 16.0378 29.5173 15.3438C30.5261 14.9619 31.3194 14.1051 31.673 13.0155H31.8842C31.9591 13.0155 32.0333 13.0003 32.103 12.9703L34.0085 12.1445C34.8598 11.7804 35.4174 10.8905 35.4143 9.90205V4.75503C35.4143 4.43908 35.1991 4.17096 34.9094 4.12597ZM8.30319 12.2531C8.04297 13.6283 6.7998 14.5154 5.52647 14.2344C4.25289 13.9533 3.43153 12.6107 3.69175 11.2352C3.95221 9.85991 5.19538 8.97281 6.46872 9.25386C7.56442 9.49561 8.35107 10.5368 8.35083 11.7448C8.35083 11.9154 8.33479 12.0858 8.30319 12.2531ZM18.9409 11.7448H9.52745C9.52745 9.6391 7.94721 7.93213 5.99759 7.93213C4.04797 7.93213 2.4675 9.6391 2.4675 11.7448H1.29088V8.60696C1.2916 8.02495 1.5803 7.48742 2.04808 7.19836C3.96801 6.01445 6.14027 5.39133 8.35083 5.39056H18.9409V11.7448ZM18.9409 4.11977H10.6583L10.7718 4.0528C13.2871 2.57646 16.0811 1.73953 18.9409 1.60585V4.11977ZM20.1175 1.57793H20.4505C22.8214 1.57509 25.1709 2.06117 27.373 3.01032L26.3458 4.11977H20.1175V1.57793ZM30.6599 12.2531C30.3997 13.6283 29.1565 14.5154 27.8829 14.2344C26.6096 13.9533 25.7883 12.6107 26.0485 11.2352C26.3087 9.85991 27.5521 8.97281 28.8254 9.25386C29.9211 9.49561 30.7078 10.5368 30.7076 11.7448C30.7076 11.9154 30.6915 12.0858 30.6599 12.2531ZM34.2376 6.02582H32.4726V7.29687H34.2376V9.90205C34.2391 10.3703 33.9748 10.7917 33.5717 10.9637L31.8842 11.6956C31.8842 11.6372 31.8772 11.5793 31.8736 11.5209C31.87 11.4624 31.8688 11.3939 31.8631 11.3303C31.8571 11.2667 31.8454 11.2031 31.8361 11.1397C31.8265 11.0761 31.8195 11.0125 31.8078 10.9549C31.7961 10.897 31.7788 10.8328 31.7635 10.7723C31.7482 10.7121 31.7365 10.6511 31.7187 10.5919C31.7013 10.5329 31.68 10.4763 31.6601 10.4184C31.64 10.3607 31.6218 10.301 31.6012 10.2436C31.5806 10.1865 31.5528 10.1345 31.5282 10.0805C31.5035 10.0264 31.4794 9.96721 31.4518 9.91265C31.4241 9.8581 31.3929 9.81156 31.3664 9.76088C31.34 9.70995 31.3077 9.65203 31.2742 9.60006C31.2404 9.54783 31.2093 9.50672 31.177 9.45967C31.1447 9.41261 31.1081 9.35728 31.0705 9.30841C31.0329 9.25955 30.9977 9.22128 30.9611 9.1812C30.9247 9.14139 30.884 9.08735 30.8435 9.04288C30.8028 8.99841 30.7628 8.96324 30.7224 8.92394C30.6817 8.88464 30.6381 8.8381 30.5934 8.79674C30.5488 8.75563 30.5033 8.72382 30.4588 8.68763C30.4141 8.65143 30.3693 8.61265 30.3224 8.57878C30.2752 8.54516 30.2223 8.51543 30.1718 8.47975C30.121 8.44407 30.0799 8.41615 30.0322 8.389C29.9846 8.36159 29.9252 8.33289 29.8711 8.30497C29.817 8.27704 29.7746 8.25222 29.7246 8.22947C29.6746 8.20646 29.6068 8.18241 29.5482 8.15966C29.4893 8.13665 29.451 8.11881 29.4009 8.10175C29.3339 8.07951 29.2652 8.06348 29.1967 8.04512C29.152 8.03375 29.1091 8.01849 29.0639 8.00841C28.9916 7.99238 28.9174 7.98359 28.8439 7.97195C28.8003 7.96575 28.7586 7.9554 28.7151 7.95101C28.5973 7.93834 28.4798 7.93136 28.3562 7.93136C26.4073 7.93343 24.828 9.6391 24.8261 11.744H20.1177V5.3903H26.5893C26.7453 5.3903 26.895 5.32333 27.0051 5.20414L28.5307 3.55638C29.1711 3.88552 29.7938 4.25344 30.3959 4.65833C30.4653 4.70513 30.5428 4.7359 30.624 4.74857L34.2376 5.30575V6.02582Z" fill="#B5A9A3"/>
</svg>
