<svg width="25" height="39" viewBox="0 0 25 39" fill="none" xmlns="http://www.w3.org/2000/svg">
<path d="M12.5 39C15.0241 39 17.0703 36.9538 17.0703 34.4297C17.0703 31.9056 15.0241 29.8594 12.5 29.8594C9.97589 29.8594 7.92969 31.9056 7.92969 34.4297C7.92969 36.9538 9.97589 39 12.5 39Z" fill="white"/>
<path d="M12.5 0C5.94777 0 0.617188 5.33058 0.617188 11.8828V13.0254H9.75781V11.8828C9.75781 10.3707 10.9879 9.14062 12.5 9.14062C14.0121 9.14062 15.2422 10.3707 15.2422 11.8828C15.2422 12.6886 14.8885 13.4512 14.2718 13.9753L7.92969 19.3673V27.5742H17.0703V23.5936L20.1915 20.94C22.8551 18.6767 24.3828 15.3755 24.3828 11.8828C24.3828 5.33058 19.0522 0 12.5 0V0Z" fill="white"/>
</svg>
