<svg width="49" height="51" viewBox="0 0 49 51" fill="none" xmlns="http://www.w3.org/2000/svg">
<path d="M48.4484 36.5221L43.7295 34.7712C43.2946 34.6108 42.8148 34.8399 42.6575 35.2832L42.371 36.0843L36.9042 34.0521C36.7669 33.9996 36.6182 33.9867 36.4739 34.0138L25.0998 36.0614C24.0687 36.2484 23.1831 36.9158 22.7041 37.8649L17.4866 35.9247C16.6534 35.6123 15.7314 35.6539 14.9284 36.0401C13.9079 36.5255 13.1948 37.4995 13.0284 38.6347C12.82 40.2778 13.7747 41.8439 15.3125 42.3809L32.4992 48.7578C32.5907 48.7924 32.688 48.8103 32.7857 48.8099C32.8768 48.8099 32.9671 48.7945 33.0533 48.7649L37.8532 47.1131L38.364 47.3022L38.0775 48.1042C37.9202 48.5474 38.145 49.037 38.5798 49.1973L43.2995 50.9479C43.3907 50.9825 43.4875 51.0004 43.5848 51C43.9367 51.0004 44.2513 50.7759 44.3715 50.4388L48.9515 37.6099C49.1055 37.1679 48.8808 36.6821 48.4484 36.5221ZM37.5953 45.4029L32.7955 47.0547L15.8846 40.7794C15.1024 40.5141 14.6035 39.7325 14.6827 38.8955C14.7534 38.3856 15.0461 37.9357 15.4792 37.6703C15.9124 37.4053 16.4396 37.3541 16.9141 37.5307L22.3445 39.545C22.3474 39.7025 22.3596 39.8596 22.3821 40.015C22.7103 41.8655 24.4398 43.1012 26.2579 42.7837L35.6807 41.0902L35.3893 39.4092L25.9711 41.1031C25.0642 41.2602 24.2011 40.6469 24.0319 39.725C23.9972 39.5304 23.9984 39.3305 24.036 39.1363C24.0421 39.108 24.047 39.0797 24.0503 39.0509C24.0613 38.978 24.0805 38.9068 24.1079 38.8385C24.3135 38.2656 24.8023 37.8478 25.3912 37.7403L36.5426 35.7356L41.7989 37.6849L38.9362 45.7049L38.1495 45.4142C37.9713 45.3467 37.7759 45.3425 37.5953 45.4029ZM43.0809 49.0557L39.9349 47.8884L43.942 36.6638L47.0883 37.8307L43.0809 49.0557Z" fill="white"/>
<path d="M19.5925 13.7094C19.864 14.7137 20.3646 15.6399 21.0542 16.413C21.0415 16.4811 21.0325 16.5495 21.0284 16.6188V21.2472C21.0284 22.6552 22.1578 23.7968 23.5518 23.7968V32.2957C23.5497 32.6194 23.7304 32.9161 24.0167 33.0605L25.6989 33.9104C25.9359 34.0299 26.2144 34.0299 26.451 33.9104L28.1332 33.0605C28.4199 32.9161 28.6002 32.6194 28.5986 32.2957V23.7968C29.9921 23.7968 31.122 22.6552 31.122 21.2472V16.6188C31.1174 16.5446 31.108 16.4707 31.094 16.3977C31.6559 15.7731 32.0937 15.0452 32.3837 14.2534C33.6257 14.4643 34.8689 13.8878 35.5211 12.7993C36.3207 11.4627 36.1018 9.74507 34.9929 8.65698L28.1476 1.74212C27.0461 0.623325 25.547 -0.00412938 23.9846 2.04542e-05H15.1404C15.0262 -0.000394529 14.9137 0.0232595 14.809 0.0689077L9.08408 2.54968H8.41134V0.849906C8.41134 0.38056 8.03472 2.04542e-05 7.57021 2.04542e-05H0.841134C0.376621 2.04542e-05 0 0.38056 0 0.849906V14.4481C0 14.9174 0.376621 15.298 0.841134 15.298H7.57021C8.03472 15.298 8.41134 14.9174 8.41134 14.4481V12.7483H8.53414C9.13624 14.7879 11.8412 16.1478 14.2993 16.1478C16.3385 16.1902 18.2865 15.293 19.5925 13.7094ZM6.72907 13.5982H1.68227V1.69979H6.72907V13.5982ZM26.9163 31.7703L26.0752 32.1952L25.234 31.7703V23.7968H26.9163V31.7703ZM29.4397 21.2472C29.4397 21.7165 29.0631 22.097 28.5986 22.097H23.5518C23.0872 22.097 22.7106 21.7165 22.7106 21.2472V17.7779C23.2762 18.1107 23.8877 18.3572 24.5247 18.5087C24.8155 19.2237 25.5445 19.6528 26.3031 19.5557C27.0621 19.459 27.6626 18.8602 27.7681 18.0945C27.8737 17.3293 27.458 16.5873 26.7545 16.2844C26.0505 15.9819 25.2332 16.1931 24.7605 16.8006C24.2861 16.6749 23.8323 16.4794 23.4146 16.2201C24.2253 15.7233 25.133 15.4088 26.0752 15.298C27.2826 15.4693 28.4343 15.9217 29.4397 16.6188V21.2472ZM30.066 15.0199C28.8635 14.2385 27.497 13.7517 26.0752 13.5982C24.6557 13.7509 23.2914 14.2368 22.0905 15.0166C21.5775 14.3568 21.2378 13.5766 21.1031 12.7483H25.234C26.4662 12.7608 27.6014 12.0744 28.1727 10.9713L30.5281 13.3509C30.6221 13.4397 30.7215 13.5222 30.8258 13.5982C30.6525 14.1115 30.3958 14.5921 30.066 15.0199ZM28.5587 8.95702C28.4803 8.2615 28.1887 7.60791 27.7254 7.0871C29.6278 7.75481 30.9556 9.50106 31.1035 11.5303L28.5587 8.95702ZM18.505 11.8984C18.505 13.1853 16.4214 14.4481 14.2993 14.4481C12.1771 14.4481 10.0936 13.1853 10.0936 11.8984C10.0936 11.4291 9.71699 11.0485 9.25248 11.0485H8.41134V4.24945H9.25248C9.36624 4.24986 9.47919 4.22621 9.58392 4.18056L15.3084 1.69979H23.9805C25.0977 1.69564 26.1704 2.14382 26.9582 2.94391L33.8018 9.85877C34.3551 10.3808 34.4795 11.2191 34.1021 11.8822C33.8211 12.3317 33.3299 12.6014 32.8042 12.5952C32.7907 12.5952 32.7779 12.5952 32.7644 12.5952C32.7899 12.364 32.803 12.1312 32.8042 11.8984C32.8001 8.14531 29.7896 5.10348 26.0752 5.09933C24.9449 5.10099 23.8335 5.39356 22.8457 5.94922H15.9815V7.64899H25.234C26.163 7.64899 26.9163 8.41007 26.9163 9.34876C26.9163 10.2875 26.163 11.0485 25.234 11.0485H19.3461C18.8816 11.0485 18.505 11.4291 18.505 11.8984Z" fill="white"/>
</svg>
