<svg width="36" height="36" viewBox="0 0 36 36" fill="none" xmlns="http://www.w3.org/2000/svg">
<path d="M18 4.21875C15.2743 4.21875 12.6099 5.02701 10.3436 6.54131C8.07724 8.05561 6.31086 10.208 5.26779 12.7261C4.22472 15.2443 3.95181 18.0153 4.48356 20.6886C5.01531 23.3619 6.32785 25.8175 8.25519 27.7448C10.1825 29.6722 12.6381 30.9847 15.3114 31.5165C17.9847 32.0482 20.7557 31.7753 23.2739 30.7322C25.7921 29.6891 27.9444 27.9228 29.4587 25.6565C30.973 23.3901 31.7813 20.7257 31.7813 18C31.7771 14.3463 30.3238 10.8434 27.7402 8.25979C25.1566 5.67621 21.6537 4.22292 18 4.21875ZM23.1789 29.6972C22.8143 28.6126 22.1184 27.6698 21.1892 27.0019C20.2601 26.334 19.1447 25.9747 18.0004 25.9747C16.8562 25.9747 15.7408 26.334 14.8116 27.0019C13.8825 27.6698 13.1865 28.6126 12.8219 29.6972C12.16 29.4037 11.5243 29.0544 10.9215 28.6532C11.5387 27.677 11.8661 26.5456 11.8657 25.3907C11.864 23.7565 11.2141 22.1898 10.0586 21.0342C8.90318 19.8786 7.33651 19.2285 5.70235 19.2265H5.26332C5.22451 18.8224 5.20313 18.4134 5.20313 18C5.20423 17.4345 5.24266 16.8696 5.31816 16.3091H30.6816C30.7573 16.8696 30.7958 17.4344 30.7969 18C30.7969 18.4143 30.7752 18.8232 30.7367 19.2274H30.2977C28.6637 19.2292 27.0972 19.8791 25.9417 21.0344C24.7862 22.1897 24.1362 23.7562 24.1341 25.3901C24.1338 26.5451 24.4612 27.6764 25.0782 28.6526C24.4758 29.0539 23.8405 29.4034 23.1789 29.6972ZM18 5.20313C20.9282 5.20709 23.7667 6.21354 26.0434 8.05504C28.32 9.89655 29.8975 12.4621 30.5134 15.3248H5.48663C6.10249 12.4621 7.67997 9.89655 9.95662 8.05504C12.2333 6.21354 15.0718 5.20709 18 5.20313ZM5.39832 20.2109H5.70235C7.07546 20.2125 8.39188 20.7586 9.36279 21.7296C10.3337 22.7006 10.8798 24.017 10.8813 25.3901C10.8823 26.3378 10.6205 27.2672 10.125 28.0749C7.63209 26.1275 5.94834 23.3261 5.39832 20.2109ZM13.7368 30.0631C14.0275 29.1613 14.5968 28.3749 15.3627 27.8171C16.1286 27.2593 17.0517 26.9588 17.9992 26.9588C18.9467 26.9588 19.8698 27.2593 20.6357 27.8171C21.4016 28.3749 21.9708 29.1613 22.2615 30.0631C19.5039 31.04 16.4944 31.04 13.7368 30.0631ZM25.875 28.0749C25.3794 27.2672 25.1175 26.3378 25.1184 25.3901C25.12 24.017 25.6662 22.7005 26.6371 21.7296C27.6081 20.7586 28.9245 20.2125 30.2977 20.2109H30.6017C30.0517 23.3261 28.3679 26.1275 25.875 28.0749Z" fill="#B5A9A3"/>
<path d="M18 0C14.4399 0 10.9598 1.05568 7.99974 3.03355C5.03966 5.01141 2.73255 7.82263 1.37018 11.1117C0.00779906 14.4008 -0.348661 18.02 0.345873 21.5116C1.04041 25.0033 2.75474 28.2106 5.27209 30.7279C7.78943 33.2453 10.9967 34.9596 14.4884 35.6541C17.98 36.3487 21.5992 35.9922 24.8883 34.6298C28.1774 33.2675 30.9886 30.9604 32.9665 28.0003C34.9443 25.0402 36 21.5601 36 18C35.9946 13.2278 34.0964 8.65256 30.7219 5.27808C27.3475 1.9036 22.7722 0.00543403 18 0V0ZM18 35.0156C14.6346 35.0156 11.3448 34.0177 8.54663 32.148C5.74843 30.2783 3.56749 27.6208 2.27962 24.5116C0.991748 21.4024 0.654782 17.9811 1.31133 14.6804C1.96789 11.3797 3.58847 8.34781 5.96814 5.96814C8.34782 3.58846 11.3797 1.96788 14.6804 1.31133C17.9811 0.654774 21.4024 0.99174 24.5116 2.27961C27.6208 3.56748 30.2783 5.74842 32.148 8.54663C34.0177 11.3448 35.0156 14.6346 35.0156 18C35.0105 22.5112 33.2161 26.8363 30.0262 30.0262C26.8363 33.2161 22.5113 35.0105 18 35.0156Z" fill="#B5A9A3"/>
<path d="M19.8281 18.3867H16.1719C15.5565 18.3867 14.9663 18.6312 14.5312 19.0663C14.096 19.5015 13.8516 20.0916 13.8516 20.707C13.8516 21.3224 14.096 21.9126 14.5312 22.3477C14.9663 22.7829 15.5565 23.0273 16.1719 23.0273H19.8281C20.4435 23.0273 21.0337 22.7829 21.4688 22.3477C21.904 21.9126 22.1484 21.3224 22.1484 20.707C22.1484 20.0916 21.904 19.5015 21.4688 19.0663C21.0337 18.6312 20.4435 18.3867 19.8281 18.3867ZM19.8281 22.043H16.1719C15.8176 22.043 15.4778 21.9022 15.2272 21.6517C14.9767 21.4011 14.8359 21.0613 14.8359 20.707C14.8359 20.3527 14.9767 20.0129 15.2272 19.7624C15.4778 19.5118 15.8176 19.3711 16.1719 19.3711H19.8281C20.1824 19.3711 20.5222 19.5118 20.7728 19.7624C21.0233 20.0129 21.1641 20.3527 21.1641 20.707C21.1641 21.0613 21.0233 21.4011 20.7728 21.6517C20.5222 21.9022 20.1824 22.043 19.8281 22.043Z" fill="#B5A9A3"/>
</svg>
