<svg width="31" height="31" viewBox="0 0 31 31" fill="none" xmlns="http://www.w3.org/2000/svg">
<g clip-path="url(#clip0)">
<path d="M27.3488 6.1145V7.12808H26.3352V6.1145H25.3216V7.12808H24.308V6.1145H23.2944V9.15524H24.308V8.14166H25.3216V9.15524H26.3352V8.14166H27.3488V9.15524H28.3623V6.1145H27.3488Z" fill="#B5A9A3"/>
<path d="M27.1119 2.72217C26.6925 2.61542 26.261 2.56329 25.8283 2.56709C23.227 2.57038 21.0494 4.54022 20.7863 7.12821H3.02272C1.62398 7.12985 0.490417 8.26342 0.48877 9.66216V25.8795C0.490417 27.2782 1.62398 28.4118 3.02272 28.4134H28.3623C29.761 28.4118 30.8946 27.2782 30.8962 25.8795V9.66216C30.8923 9.37798 30.8398 9.09652 30.7411 8.83001C31.4256 6.14123 29.8007 3.40665 27.1119 2.72217ZM25.3021 3.59657C27.5223 3.30561 29.5579 4.86957 29.8489 7.08975C29.9203 7.63506 29.8801 8.18924 29.7306 8.71852C29.6752 8.91312 29.605 9.10317 29.5208 9.28714C29.4985 9.33781 29.4737 9.38495 29.4498 9.4336C29.379 9.57677 29.2996 9.7155 29.2122 9.84917C29.1899 9.88363 29.1691 9.9191 29.1453 9.95306C28.9107 10.2884 28.6269 10.5864 28.3035 10.8369C28.2817 10.8536 28.2594 10.8693 28.2376 10.8876C28.0885 10.9988 27.9319 11.0994 27.7688 11.1886C27.7496 11.1993 27.7308 11.2114 27.7115 11.2216C27.1365 11.5259 26.4962 11.6865 25.8455 11.6893C25.7624 11.6893 25.6783 11.6848 25.5947 11.6792C25.5683 11.6792 25.5415 11.6792 25.5151 11.6751C24.8877 11.6156 24.2808 11.4203 23.7363 11.103L23.7079 11.0857C23.1671 10.7516 22.7117 10.296 22.3781 9.7549L22.3639 9.73159C22.1769 9.4234 22.0317 9.09177 21.9321 8.74538C21.927 8.72713 21.923 8.70889 21.9179 8.69064C21.8793 8.54684 21.8487 8.40101 21.8262 8.25379C21.8206 8.21679 21.814 8.1803 21.809 8.14331C21.518 5.92318 23.082 3.88753 25.3021 3.59657ZM24.309 18.7844C24.3086 18.7844 24.3083 18.7844 24.3079 18.7844H17.2129C16.933 18.7844 16.7061 19.0113 16.7061 19.2912V23.3455C16.7061 23.9053 16.2523 24.3591 15.6925 24.3591C15.1327 24.3591 14.6789 23.9053 14.6789 23.3455V21.0214L18.9431 16.7572H24.3079C24.5878 16.7572 24.8147 16.5303 24.8147 16.2504V12.5985C25.0081 12.6382 25.2038 12.6664 25.4006 12.6826C25.5435 12.6958 25.6864 12.7029 25.8283 12.7029H25.8369H25.8592C26.0067 12.7029 26.1542 12.6943 26.3001 12.6811L26.4015 12.67C26.4339 12.6664 26.4664 12.6603 26.4988 12.6563C26.589 12.6441 26.6792 12.6309 26.7684 12.6142C26.7932 12.6097 26.8191 12.6076 26.8429 12.6026V23.3455C26.8429 23.9053 26.3891 24.3591 25.8293 24.3591C25.2695 24.3591 24.8157 23.9053 24.8157 23.3455V19.2912C24.8157 19.0113 24.5888 18.7844 24.309 18.7844ZM7.07705 16.7572H14.1721C14.452 16.7572 14.6789 16.5303 14.6789 16.2504V12.1961C14.6789 11.6363 15.1327 11.1825 15.6925 11.1825C16.2523 11.1825 16.7061 11.6363 16.7061 12.1961V14.5203L12.4419 18.7844H7.07705C6.79718 18.7844 6.57026 19.0113 6.57026 19.2912V23.3455C6.57026 23.9053 6.11649 24.3591 5.55668 24.3591C4.99686 24.3591 4.5431 23.9053 4.5431 23.3455V12.1961C4.5431 11.6363 4.99686 11.1825 5.55668 11.1825C6.11649 11.1825 6.57026 11.6363 6.57026 12.1961V16.2504C6.57026 16.5304 6.79718 16.7572 7.07705 16.7572ZM21.8693 10.7903L21.8753 10.7969C21.9865 10.9351 22.105 11.0674 22.2301 11.1932C22.2357 11.1993 22.2407 11.2064 22.2468 11.2119L22.257 11.2216L22.2717 11.2347C22.3958 11.3576 22.5261 11.4741 22.6619 11.5839L22.673 11.594L18.3749 15.8921L14.6789 19.5882V19.2912C14.6789 19.0113 14.452 18.7844 14.1721 18.7844H13.8751L21.8693 10.7903ZM23.5427 12.1576C23.6268 12.2002 23.7145 12.2362 23.8011 12.2742V15.7437H19.9566L23.5427 12.1576ZM29.8826 25.8795C29.8826 26.7192 29.202 27.3998 28.3623 27.3998H3.02272C2.18303 27.3998 1.50235 26.7192 1.50235 25.8795V9.66216C1.50235 8.82247 2.18303 8.14179 3.02272 8.14179H20.7857C20.7898 8.18436 20.7989 8.22541 20.804 8.26747C20.8091 8.30954 20.8167 8.35464 20.8232 8.39772C20.8531 8.59727 20.8945 8.79491 20.9474 8.98965L20.9515 9.00435C21.013 9.22081 21.0889 9.43296 21.1785 9.63935C21.1831 9.64949 21.1881 9.65963 21.1927 9.67027C21.2297 9.75389 21.2647 9.83852 21.3062 9.92012L17.7197 13.5067V12.1961C17.7197 11.0766 16.8121 10.169 15.6925 10.169C14.5729 10.169 13.6653 11.0766 13.6653 12.1961V15.7437H7.58384V12.1961C7.58384 11.0766 6.67624 10.169 5.55668 10.169C4.43711 10.169 3.52951 11.0766 3.52951 12.1961V23.3455C3.52951 24.4651 4.43711 25.3727 5.55668 25.3727C6.67624 25.3727 7.58384 24.4651 7.58384 23.3455V19.798H13.6653V23.3455C13.6653 24.4651 14.5729 25.3727 15.6925 25.3727C16.8121 25.3727 17.7197 24.4651 17.7197 23.3455V19.798H23.8011V23.3455C23.8011 24.4651 24.7087 25.3727 25.8283 25.3727C26.9479 25.3727 27.8555 24.4651 27.8555 23.3455V12.2706C28.6586 11.9211 29.3572 11.3689 29.8826 10.6681V25.8795Z" fill="#B5A9A3"/>
<path d="M3.52969 9.15527H2.51611V10.1689H3.52969V9.15527Z" fill="#B5A9A3"/>
<path d="M3.52969 25.3726H2.51611V26.3861H3.52969V25.3726Z" fill="#B5A9A3"/>
<path d="M28.8691 25.3726H27.8555V26.3861H28.8691V25.3726Z" fill="#B5A9A3"/>
</g>
<defs>
<clipPath id="clip0">
<rect width="30.4088" height="30.4088" fill="white" transform="translate(0.48877 0.285645)"/>
</clipPath>
</defs>
</svg>
