<svg width="17" height="22" viewBox="0 0 17 22" fill="none" xmlns="http://www.w3.org/2000/svg">
<path d="M8.48571 0C3.79149 0 0 3.78689 0 8.47541C0 11.8115 2.05122 15.1083 4.71429 18.1739C6.7003 20.4731 7.98921 21.8197 8.07948 21.8648C8.21489 21.9549 8.3503 22 8.48571 22C8.62112 22 8.75654 21.9549 8.89195 21.8648C8.98222 21.8197 10.2711 20.428 12.2571 18.1739C14.9202 15.1083 16.9714 11.8115 16.9714 8.47541C16.9714 3.78689 13.1799 0 8.48571 0ZM8.48571 11.6311C6.68024 11.6311 5.23587 10.1885 5.23587 8.38525C5.23587 6.58197 6.68024 5.13935 8.48571 5.13935C10.2912 5.13935 11.7356 6.58197 11.7356 8.38525C11.7356 10.1434 10.2912 11.6311 8.48571 11.6311Z" fill="#B5A9A3"/>
</svg>
