<svg width="18" height="18" viewBox="0 0 18 18" fill="none" xmlns="http://www.w3.org/2000/svg">
<rect x="1.10526" y="1.84912" width="1.05263" height="21.0526" transform="rotate(-45 1.10526 1.84912)" fill="white"/>
<rect x="1.10526" y="1.84912" width="1.05263" height="21.0526" transform="rotate(-45 1.10526 1.84912)" fill="white"/>
<rect x="1.10526" y="1.84912" width="1.05263" height="21.0526" transform="rotate(-45 1.10526 1.84912)" fill="white"/>
<rect x="1.10526" y="1.84912" width="1.05263" height="21.0526" transform="rotate(-45 1.10526 1.84912)" stroke="white"/>
<rect width="1.05263" height="21.0526" transform="matrix(-0.707107 -0.707107 -0.707107 0.707107 16.736 1.84912)" fill="white"/>
<rect width="1.05263" height="21.0526" transform="matrix(-0.707107 -0.707107 -0.707107 0.707107 16.736 1.84912)" fill="white"/>
<rect width="1.05263" height="21.0526" transform="matrix(-0.707107 -0.707107 -0.707107 0.707107 16.736 1.84912)" fill="white"/>
<rect width="1.05263" height="21.0526" transform="matrix(-0.707107 -0.707107 -0.707107 0.707107 16.736 1.84912)" stroke="white"/>
</svg>
