<svg width="20" height="21" viewBox="0 0 20 21" fill="none" xmlns="http://www.w3.org/2000/svg">
<path d="M17.9376 12.399C17.2182 12.3032 16.5468 12.1595 15.8753 11.968C15.0599 11.7285 14.1487 11.9201 13.5252 12.5426L12.2302 13.8356C9.78417 12.4947 7.76978 10.4834 6.42686 8.04112L7.72182 6.74814C8.34532 6.12559 8.53717 5.21571 8.29736 4.40161C8.10552 3.73117 7.96163 3.06073 7.86571 2.34241C7.72182 1.1452 6.71463 0.283203 5.51559 0.283203H2.35012C1.67866 0.283203 1.05516 0.570536 0.623503 1.04942C0.23981 1.48042 0 2.05507 0 2.62974C0 2.67762 0 2.7734 0 2.82129C0.191847 5.07204 0.81535 7.27491 1.77458 9.28622C2.73381 11.2496 3.98081 13.0694 5.56355 14.6497C7.14628 16.23 8.92086 17.4751 10.9353 18.4329C12.9976 19.3907 15.1559 20.0132 17.4101 20.2048C18.0815 20.2527 18.705 20.0611 19.2326 19.5822C19.7122 19.1512 20 18.5287 20 17.8582V14.6976C20 13.5483 19.1367 12.5426 17.9376 12.399Z" fill="#372120"/>
</svg>
