<svg width="19" height="26" viewBox="0 0 19 26" fill="none" xmlns="http://www.w3.org/2000/svg">
<path d="M5.66474 21.1616L5.66386 21.1605C2.69685 17.5551 0.5 13.7754 0.5 10.0164C0.5 4.72629 4.54543 0.5 9.5 0.5C14.4546 0.5 18.5 4.72629 18.5 10.0164C18.5 13.775 16.3037 17.5541 13.3372 21.1592C12.2275 22.4888 11.3134 23.563 10.6649 24.3106C10.3403 24.6848 10.0837 24.9755 9.90291 25.175C9.81216 25.2752 9.74302 25.3495 9.69513 25.3991C9.67712 25.4177 9.66402 25.4308 9.65516 25.4394C9.57586 25.4926 9.52635 25.5 9.5 25.5C9.4733 25.5 9.42282 25.4924 9.34167 25.4373C9.3328 25.4289 9.31933 25.4158 9.30054 25.3968C9.25292 25.3488 9.184 25.2764 9.09361 25.1787C8.91355 24.9841 8.65747 24.6989 8.33362 24.3289C7.68636 23.5893 6.77334 22.5164 5.66474 21.1616ZM9.35717 25.4512C9.35717 25.4513 9.35467 25.4492 9.34924 25.4443C9.35437 25.4485 9.35716 25.451 9.35717 25.4512ZM5.3617 9.90984C5.3617 12.2919 7.17797 14.2459 9.5 14.2459C11.8264 14.2459 13.6383 12.234 13.6383 9.90984C13.6383 7.52782 11.822 5.57377 9.5 5.57377C7.17797 5.57377 5.3617 7.52782 5.3617 9.90984Z" fill="white" stroke="#B5A9A3"/>
</svg>
