<svg width="36" height="36" viewBox="0 0 36 36" fill="none" xmlns="http://www.w3.org/2000/svg">
<path d="M35.8242 15.6902L34.6242 14.4902C34.5117 14.3777 34.3591 14.3144 34.2 14.3144H32.4C32.0687 14.3144 31.8 14.583 31.8 14.9144V17.9144H30.6V13.7144C30.6 13.383 30.3314 13.1144 30 13.1144H26.121L23.901 9.78136C23.7893 9.61396 23.6012 9.51376 23.4 9.51436H19.8V8.31436H24C24.3314 8.31436 24.6 8.04571 24.6 7.71436V5.31436C24.6 4.98301 24.3314 4.71436 24 4.71436H12C11.6687 4.71436 11.4 4.98301 11.4 5.31436V7.71436C11.4 8.04571 11.6687 8.31436 12 8.31436H16.2V9.51436H12.6C12.3995 9.51436 12.2121 9.61448 12.1008 9.78136L9.879 13.1144H6.6C6.26865 13.1144 6 13.383 6 13.7144V17.3144H4.8V13.7144C4.8 13.383 4.53135 13.1144 4.2 13.1144H1.8C1.59945 13.1144 1.4121 13.2145 1.3008 13.3814L0.1008 15.1814C0.03525 15.2801 0.000225 15.3959 0 15.5144V17.3144C0.000225 17.4329 0.03525 17.5487 0.1008 17.6474L1.2 19.2944V24.5144C1.2 24.8457 1.46865 25.1144 1.8 25.1144H4.2C4.53135 25.1144 4.8 24.8457 4.8 24.5144V20.9144H6V24.5144C6 24.8457 6.26865 25.1144 6.6 25.1144H9.879L12.099 28.4474C12.2107 28.6148 12.3988 28.715 12.6 28.7144H30C30.3314 28.7144 30.6 28.4457 30.6 28.1144V22.7144H31.8V26.9144C31.8 27.2457 32.0687 27.5144 32.4 27.5144H34.2C34.3591 27.5144 34.5117 27.4511 34.6242 27.3386L35.8242 26.1386C35.9367 26.0261 36 25.8735 36 25.7144V16.1144C36 15.9552 35.9367 15.8027 35.8242 15.6902ZM3.6 17.9144V23.9144H2.4V19.1144C2.39978 18.9959 2.36475 18.8801 2.2992 18.7814L1.2 17.1344V15.6944L2.121 14.3144H3.6V17.9144ZM6 19.7144H4.8V18.5144H6V19.7144ZM12.6 7.11436V5.91436H23.4V7.11436H12.6ZM18.6 8.31436V9.51436H17.4V8.31436H18.6ZM27 27.5144H12.921L10.701 24.1814C10.5893 24.014 10.4012 23.9138 10.2 23.9144H7.2V14.3144H10.2C10.4006 14.3144 10.5879 14.2142 10.6992 14.0474L12.921 10.7144H23.079L25.299 14.0474C25.4107 14.2148 25.5988 14.315 25.8 14.3144H27V27.5144ZM29.4 18.5144V27.5144H28.2V14.3144H29.4V18.5144ZM31.8 21.5144H30.6V19.1144H31.8V21.5144ZM34.8 25.466L33.9516 26.3144H33V15.5144H33.9516L34.8 16.3628V25.466Z" fill="#B5A9A3"/>
<path d="M23.2424 18.1089C23.1287 17.9849 22.9683 17.9144 22.8002 17.9144H19.9484L20.9858 13.2446C21.0576 12.9211 20.8537 12.6006 20.5302 12.5287C20.339 12.4862 20.139 12.5397 19.9946 12.6722L12.7946 19.2722C12.5504 19.4961 12.5339 19.8757 12.7579 20.1199C12.8716 20.2439 13.032 20.3144 13.2002 20.3144H16.052L15.0146 24.9842C14.9427 25.3077 15.1466 25.6281 15.4701 25.7001C15.6614 25.7426 15.8613 25.689 16.0058 25.5566L23.2058 18.9566C23.45 18.7326 23.4664 18.3531 23.2424 18.1089ZM16.5992 23.3846L17.3858 19.8446C17.4577 19.5211 17.2538 19.2006 16.9303 19.1287C16.8875 19.1192 16.844 19.1144 16.8002 19.1144H14.7428L19.4012 14.8442L18.6146 18.3842C18.5426 18.7077 18.7466 19.0282 19.07 19.1001C19.1128 19.1096 19.1564 19.1143 19.2002 19.1144H21.2576L16.5992 23.3846Z" fill="#B5A9A3"/>
<path d="M9.59991 19.2H8.3999V24H9.59991V19.2Z" fill="#B5A9A3"/>
<path d="M9.59991 16.8H8.3999V18.0001H9.59991V16.8Z" fill="#B5A9A3"/>
</svg>
