<svg width="18" height="18" viewBox="0 0 18 18" fill="none" xmlns="http://www.w3.org/2000/svg">
<path d="M8.14131 10.4999C7.98131 10.4999 7.82131 10.4387 7.69944 10.3168L5.09256 7.71057C4.97506 7.59307 4.90944 7.43432 4.90944 7.2687C4.90944 7.10307 4.97506 6.9437 5.09256 6.82682L6.61381 5.3062C7.08881 4.8312 7.08881 4.05807 6.61381 3.58307L4.87631 1.84557C4.41569 1.38557 3.61319 1.38495 3.15256 1.84557C3.12506 1.87307 3.09444 1.89807 3.06194 1.92057C2.99006 1.97057 1.24569 3.21807 1.53194 5.79432C1.57006 6.13745 1.32319 6.4462 0.980064 6.48432C0.640064 6.5237 0.328189 6.27557 0.290064 5.93245C-0.0561861 2.8212 1.94569 1.19057 2.30694 0.923697C3.24256 0.0261969 4.83881 0.0411968 5.75944 0.961197L7.49694 2.6987C8.45944 3.6612 8.45944 5.22682 7.49694 6.18932L6.41881 7.2687L8.58319 9.43307C8.82756 9.67745 8.82756 10.0724 8.58319 10.3168C8.46132 10.4393 8.30131 10.4999 8.14131 10.4999Z" fill="black"/>
<path d="M5.10017 13.5411C4.94017 13.5411 4.78017 13.4799 4.6583 13.358C3.12267 11.8224 1.9733 10.3236 1.24142 8.90301C1.0833 8.59613 1.20392 8.21926 1.5108 8.06113C1.81892 7.90301 2.19455 8.02426 2.35267 8.33051C3.02517 9.63613 4.09767 11.0305 5.54205 12.4743C5.78642 12.7186 5.78642 13.1136 5.54205 13.358C5.41955 13.4805 5.26017 13.5411 5.10017 13.5411Z" fill="black"/>
<path d="M12.7451 17.7386C10.2844 17.7386 7.55818 16.2579 4.63006 13.3292C4.38568 13.0848 4.38568 12.6898 4.63006 12.4454C4.87443 12.2011 5.26943 12.2011 5.51381 12.4454C8.35068 15.2829 11.0001 16.6717 13.1913 16.4679C15.1226 16.2854 16.0588 14.9398 16.0682 14.9254C16.0901 14.8929 16.1151 14.8623 16.1432 14.8348C16.3732 14.6054 16.5001 14.2986 16.5001 13.9736C16.5001 13.6486 16.3732 13.3423 16.1432 13.1123L14.4057 11.3742C14.1757 11.1442 13.8694 11.0179 13.5432 11.0179C13.2176 11.0179 12.9119 11.1442 12.6826 11.3742L11.1607 12.8948C10.9163 13.1392 10.5213 13.1392 10.2769 12.8948L7.67131 10.2892C7.42693 10.0448 7.42693 9.64982 7.67131 9.40545C7.91568 9.16107 8.31068 9.16107 8.55506 9.40545L10.7188 11.5692L11.7982 10.4904C12.2638 10.0242 12.8832 9.76732 13.5432 9.76732C14.2032 9.76732 14.8232 10.0242 15.2894 10.4898L17.0269 12.2286C17.4932 12.6942 17.7501 13.3142 17.7501 13.9736C17.7501 14.6148 17.5069 15.2192 17.0644 15.6804C16.8369 15.9879 15.6101 17.4948 13.3088 17.7123C13.1232 17.7304 12.9344 17.7386 12.7451 17.7386Z" fill="black"/>
</svg>
