<svg width="25" height="39" viewBox="0 0 25 39" fill="none" xmlns="http://www.w3.org/2000/svg">
<path d="M16.5703 34.4297C16.5703 36.6777 14.748 38.5 12.5 38.5C10.252 38.5 8.42969 36.6777 8.42969 34.4297C8.42969 32.1817 10.252 30.3594 12.5 30.3594C14.748 30.3594 16.5703 32.1817 16.5703 34.4297Z" stroke="#B5A9A3"/>
<path d="M16.7464 23.2127L16.5703 23.3624V23.5936V27.0742H8.42969V19.5985L14.5955 14.3563C14.5956 14.3563 14.5956 14.3563 14.5956 14.3563C15.3235 13.7376 15.7422 12.836 15.7422 11.8828C15.7422 10.0946 14.2882 8.64062 12.5 8.64062C10.7118 8.64062 9.25781 10.0946 9.25781 11.8828V12.5254H1.11719V11.8828C1.11719 5.60673 6.22391 0.5 12.5 0.5C18.7761 0.5 23.8828 5.60673 23.8828 11.8828C23.8828 15.2287 22.4197 18.3906 19.8678 20.559L19.8677 20.5591L16.7464 23.2127Z" stroke="#B5A9A3"/>
</svg>
