<svg width="22" height="20" viewBox="0 0 22 20" fill="none" xmlns="http://www.w3.org/2000/svg">
<g clip-path="url(#clip0)">
<path d="M19.9375 16.875H2.0625C1.683 16.875 1.375 16.5956 1.375 16.25V6.25C1.375 5.905 1.683 5.625 2.0625 5.625C2.442 5.625 2.75 5.905 2.75 6.25V15.625H19.25V4.375H2.0625C1.683 4.375 1.375 4.095 1.375 3.75C1.375 3.405 1.683 3.125 2.0625 3.125H19.9375C20.3177 3.125 20.625 3.405 20.625 3.75V16.25C20.625 16.5956 20.3177 16.875 19.9375 16.875Z" fill="black"/>
<path d="M10.9999 11.8747C10.8239 11.8747 10.6479 11.8134 10.5139 11.6915L5.01387 6.69154C4.74505 6.44717 4.74505 6.05217 5.01387 5.80779C5.28268 5.56342 5.71718 5.56342 5.98599 5.80779L10.9999 10.3659L16.0139 5.80779C16.2827 5.56342 16.7172 5.56342 16.986 5.80779C17.2548 6.05217 17.2548 6.44717 16.986 6.69154L11.486 11.6915C11.3519 11.8134 11.1759 11.8747 10.9999 11.8747Z" fill="black"/>
<path d="M16.5006 14.3749C16.3246 14.3749 16.1486 14.3137 16.0145 14.1918L13.9506 12.3156C13.6818 12.0712 13.6818 11.6762 13.9506 11.4318C14.2194 11.1874 14.6539 11.1874 14.9228 11.4318L16.9866 13.3081C17.2554 13.5524 17.2554 13.9474 16.9866 14.1918C16.8526 14.3137 16.6766 14.3749 16.5006 14.3749Z" fill="black"/>
<path d="M5.50066 14.375C5.32466 14.375 5.14866 14.3138 5.0146 14.1919C4.74579 13.9475 4.74579 13.5525 5.0146 13.3081L7.07641 11.4338C7.34522 11.1894 7.77972 11.1894 8.04853 11.4338C8.31735 11.6781 8.31735 12.0731 8.04853 12.3175L5.98672 14.1919C5.85266 14.3138 5.67666 14.375 5.50066 14.375Z" fill="black"/>
</g>
<defs>
<clipPath id="clip0">
<rect width="22" height="20" fill="white"/>
</clipPath>
</defs>
</svg>
