<svg width="34" height="34" viewBox="0 0 34 34" fill="none" xmlns="http://www.w3.org/2000/svg">
<path d="M33.2262 2.96233H26.9181V0.773926C26.9181 0.64339 26.8662 0.5182 26.7739 0.425897C26.6816 0.333594 26.5564 0.281738 26.4259 0.281738H24.3272C24.2626 0.281701 24.1985 0.294407 24.1388 0.319129C24.0791 0.34385 24.0248 0.380103 23.9791 0.425814C23.9334 0.471526 23.8971 0.525798 23.8724 0.58553C23.8477 0.645262 23.835 0.709281 23.835 0.773926V2.96233H18.5416V0.773926C18.5416 0.64339 18.4898 0.5182 18.3975 0.425897C18.3052 0.333594 18.18 0.281738 18.0494 0.281738H15.9507C15.8202 0.281738 15.695 0.333594 15.6027 0.425897C15.5104 0.5182 15.4586 0.64339 15.4586 0.773926V2.96233H10.1657V0.773926C10.1657 0.709281 10.153 0.645262 10.1283 0.58553C10.1036 0.525798 10.0673 0.471526 10.0216 0.425814C9.97592 0.380103 9.92165 0.34385 9.86192 0.319129C9.80218 0.294407 9.73816 0.281701 9.67352 0.281738H7.57427C7.44373 0.281738 7.31854 0.333594 7.22624 0.425897C7.13394 0.5182 7.08208 0.64339 7.08208 0.773926V2.96233H0.773926C0.70928 2.9623 0.645262 2.975 0.58553 2.99972C0.525798 3.02444 0.471525 3.0607 0.425814 3.10641C0.380103 3.15212 0.34385 3.20639 0.319129 3.26612C0.294407 3.32586 0.281701 3.38987 0.281738 3.45452V33.2262C0.281701 33.2909 0.294407 33.3549 0.319129 33.4146C0.34385 33.4744 0.380103 33.5286 0.425814 33.5744C0.471525 33.6201 0.525798 33.6563 0.58553 33.681C0.645262 33.7058 0.70928 33.7185 0.773926 33.7184H33.2262C33.2909 33.7185 33.3549 33.7058 33.4146 33.681C33.4744 33.6563 33.5286 33.6201 33.5744 33.5744C33.6201 33.5286 33.6563 33.4744 33.681 33.4146C33.7058 33.3549 33.7185 33.2909 33.7184 33.2262V3.45452C33.7185 3.38987 33.7058 3.32586 33.681 3.26612C33.6563 3.20639 33.6201 3.15212 33.5744 3.10641C33.5286 3.0607 33.4744 3.02444 33.4146 2.99972C33.3549 2.975 33.2909 2.9623 33.2262 2.96233ZM24.8188 1.26611H25.9331V5.64293H24.8188V1.26611ZM16.4424 1.26611H17.5567V5.64293H16.4429L16.4424 1.26611ZM8.0659 1.26611H9.18133V5.64293H8.06646L8.0659 1.26611ZM1.26611 3.94671H7.08208V6.13511C7.08208 6.26565 7.13394 6.39084 7.22624 6.48314C7.31854 6.57545 7.44373 6.6273 7.57427 6.6273H9.67296C9.7376 6.62734 9.80162 6.61463 9.86135 6.58991C9.92108 6.56519 9.97536 6.52894 10.0211 6.48323C10.0668 6.43752 10.103 6.38324 10.1278 6.32351C10.1525 6.26378 10.1652 6.19976 10.1651 6.13511V3.94671H15.4586V6.13511C15.4586 6.26565 15.5104 6.39084 15.6027 6.48314C15.695 6.57545 15.8202 6.6273 15.9507 6.6273H18.0494C18.18 6.6273 18.3052 6.57545 18.3975 6.48314C18.4898 6.39084 18.5416 6.26565 18.5416 6.13511V3.94671H23.8345V6.13511C23.8344 6.19976 23.8471 6.26378 23.8718 6.32351C23.8966 6.38324 23.9328 6.43752 23.9785 6.48323C24.0242 6.52894 24.0785 6.56519 24.1382 6.58991C24.198 6.61463 24.262 6.62734 24.3266 6.6273H26.4253C26.5559 6.6273 26.6811 6.57545 26.7734 6.48314C26.8657 6.39084 26.9175 6.26565 26.9175 6.13511V3.94671H32.7335V9.57874H1.26611V3.94671ZM1.26611 32.7341V10.5631H32.7341V32.7341H1.26611Z" fill="#B5A9A3"/>
<path d="M17 12.7812C15.2459 12.7813 13.5312 13.3014 12.0727 14.276C10.6142 15.2505 9.47751 16.6357 8.8063 18.2563C8.1351 19.877 7.95955 21.6602 8.30186 23.3806C8.64418 25.101 9.48897 26.6812 10.7294 27.9215C11.9699 29.1617 13.5502 30.0063 15.2707 30.3483C16.9911 30.6904 18.7744 30.5145 20.3949 29.8431C22.0154 29.1716 23.4004 28.0347 24.3747 26.576C25.349 25.1174 25.8689 23.4026 25.8687 21.6485C25.8656 19.2975 24.9302 17.0436 23.2676 15.3813C21.6051 13.719 19.351 12.7839 17 12.7812ZM17 29.5339C15.4407 29.5339 13.9164 29.0715 12.6199 28.2052C11.3233 27.339 10.3128 26.1077 9.71599 24.6671C9.11921 23.2265 8.96301 21.6413 9.26714 20.1119C9.57126 18.5825 10.3221 17.1777 11.4246 16.075C12.5271 14.9723 13.9318 14.2213 15.4612 13.917C16.9905 13.6126 18.5757 13.7686 20.0164 14.3652C21.4571 14.9617 22.6885 15.9721 23.555 17.2685C24.4215 18.5649 24.8841 20.0892 24.8843 21.6485C24.8819 23.7388 24.0505 25.7428 22.5724 27.2209C21.0943 28.699 19.0903 29.5304 17 29.5328V29.5339Z" fill="#B5A9A3"/>
<path d="M17.4923 19.815V16.0676C17.4923 15.9371 17.4405 15.8119 17.3482 15.7196C17.2559 15.6273 17.1307 15.5754 17.0002 15.5754C16.8696 15.5754 16.7444 15.6273 16.6521 15.7196C16.5598 15.8119 16.508 15.9371 16.508 16.0676V19.815C16.1858 19.9012 15.8921 20.0708 15.6562 20.3065C15.4203 20.5423 15.2507 20.836 15.1644 21.1582C15.078 21.4803 15.078 21.8194 15.1643 22.1416C15.2506 22.4637 15.4202 22.7574 15.6561 22.9932C15.8919 23.229 16.1856 23.3986 16.5078 23.4849C16.8299 23.5711 17.1691 23.5711 17.4912 23.4847C17.8133 23.3983 18.107 23.2287 18.3427 22.9928C18.5785 22.7569 18.748 22.4631 18.8342 22.1409H22.5816C22.7121 22.1409 22.8373 22.0891 22.9296 21.9968C23.0219 21.9045 23.0737 21.7793 23.0737 21.6488C23.0737 21.5182 23.0219 21.393 22.9296 21.3007C22.8373 21.2084 22.7121 21.1566 22.5816 21.1566H18.8342C18.7473 20.8352 18.5777 20.5422 18.3422 20.3068C18.1068 20.0714 17.8137 19.9018 17.4923 19.815ZM17.0002 22.5654C16.8189 22.5654 16.6417 22.5116 16.4909 22.4109C16.3402 22.3102 16.2227 22.167 16.1533 21.9995C16.084 21.832 16.0658 21.6477 16.1012 21.4699C16.1365 21.2921 16.2238 21.1288 16.352 21.0006C16.4802 20.8724 16.6435 20.7851 16.8213 20.7498C16.9991 20.7144 17.1834 20.7326 17.3509 20.8019C17.5184 20.8713 17.6616 20.9888 17.7623 21.1395C17.863 21.2903 17.9167 21.4675 17.9167 21.6488C17.9165 21.8918 17.8198 22.1247 17.648 22.2966C17.4761 22.4684 17.2432 22.5651 17.0002 22.5654Z" fill="#B5A9A3"/>
<path d="M30.8115 24.7393C30.681 24.7393 30.5558 24.7911 30.4635 24.8834C30.3712 24.9757 30.3193 25.1009 30.3193 25.2314V30.8441C30.3193 30.9746 30.3712 31.0998 30.4635 31.1921C30.5558 31.2844 30.681 31.3363 30.8115 31.3363C30.9421 31.3363 31.0672 31.2844 31.1595 31.1921C31.2519 31.0998 31.3037 30.9746 31.3037 30.8441V25.2314C31.3037 25.1668 31.291 25.1028 31.2663 25.043C31.2416 24.9833 31.2053 24.929 31.1596 24.8833C31.1139 24.8376 31.0596 24.8014 30.9999 24.7766C30.9402 24.7519 30.8762 24.7392 30.8115 24.7393Z" fill="#B5A9A3"/>
<path d="M30.8115 21.1565C30.681 21.1566 30.5559 21.2084 30.4636 21.3007C30.3713 21.393 30.3194 21.5182 30.3193 21.6487V23.0898C30.3193 23.2203 30.3712 23.3455 30.4635 23.4378C30.5558 23.5301 30.681 23.582 30.8115 23.582C30.9421 23.582 31.0672 23.5301 31.1595 23.4378C31.2519 23.3455 31.3037 23.2203 31.3037 23.0898V21.6487C31.3037 21.5181 31.2519 21.393 31.1595 21.3007C31.0672 21.2084 30.9421 21.1565 30.8115 21.1565Z" fill="#B5A9A3"/>
</svg>
