<svg width="28" height="28" viewBox="0 0 28 28" fill="none" xmlns="http://www.w3.org/2000/svg">
<g clip-path="url(#clip0)">
<path d="M24.2234 0.630615H20.9955C20.0806 0.630615 19.3362 1.37494 19.3362 2.28985V5.64595H15.481C15.4599 5.00198 14.9298 4.48451 14.2808 4.48451H13.3045C12.6554 4.48451 12.1254 5.00198 12.1043 5.64595H8.24903V2.28985C8.24897 1.37494 7.5047 0.630615 6.58974 0.630615H3.36182C2.44691 0.630615 1.70264 1.37494 1.70264 2.28985V9.63563C1.70264 10.5505 2.44697 11.2949 3.36182 11.2949H6.58974C7.50464 11.2949 8.24897 10.5505 8.24897 9.63563V6.70182H12.1042C12.1249 7.33259 12.6339 7.84156 13.2647 7.86226V11.8491C13.2647 12.1407 13.501 12.3771 13.7926 12.3771C14.0842 12.3771 14.3205 12.1407 14.3205 11.8491V7.86226C14.9513 7.84156 15.4603 7.33259 15.481 6.70182H19.3362V9.63558C19.3362 10.5505 20.0806 11.2948 20.9955 11.2948H24.2234C25.1383 11.2948 25.8826 10.5505 25.8826 9.63558V2.28985C25.8826 1.37494 25.1383 0.630615 24.2234 0.630615ZM7.19311 4.38842L5.51883 6.06265C5.31268 6.26881 5.31262 6.60309 5.51883 6.8093C5.62194 6.91235 5.75704 6.96393 5.89213 6.96393C6.02723 6.96393 6.16238 6.91235 6.26543 6.8093L7.19311 5.88162V6.90554L5.51883 8.57977C5.31268 8.78593 5.31262 9.12021 5.51883 9.32642C5.62194 9.42947 5.75704 9.48105 5.89213 9.48105C6.02723 9.48105 6.16238 9.42947 6.26543 9.32642L7.19311 8.39874V9.63563C7.19311 9.96828 6.92244 10.2389 6.58974 10.2389H3.36182C3.02911 10.2389 2.7585 9.96828 2.7585 9.63558V8.39869L3.68612 9.32631C3.78923 9.42937 3.92433 9.48095 4.05942 9.48095C4.19452 9.48095 4.32967 9.42937 4.43272 9.32631C4.63888 9.12016 4.63888 8.78587 4.43272 8.57966L2.75844 6.90539V5.88162L3.68607 6.80925C3.78918 6.9123 3.92427 6.96388 4.05937 6.96388C4.19447 6.96388 4.32962 6.9123 4.43267 6.80925C4.63883 6.60309 4.63883 6.26881 4.43267 6.0626L2.7585 4.38837V3.36456L3.68612 4.29224C3.78923 4.39529 3.92433 4.44687 4.05942 4.44687C4.19452 4.44687 4.32967 4.39529 4.43272 4.29224C4.63888 4.08608 4.63893 3.75179 4.43272 3.54558L2.85347 1.96623C2.96069 1.79834 3.14827 1.68648 3.36187 1.68648H6.58979C6.80334 1.68648 6.99092 1.79834 7.09819 1.96623L5.51883 3.54558C5.31268 3.75174 5.31268 4.08603 5.51883 4.29224C5.62194 4.39529 5.75704 4.44687 5.89213 4.44687C6.02723 4.44687 6.16238 4.39529 6.26543 4.29224L7.19311 3.36456V4.38842ZM14.4261 6.66201C14.4261 6.7422 14.3609 6.8074 14.2808 6.8074H13.3045C13.2243 6.8074 13.1591 6.7422 13.1591 6.66201V5.68576C13.1591 5.60557 13.2243 5.54037 13.3045 5.54037H14.2808C14.3609 5.54037 14.4261 5.60557 14.4261 5.68576V6.66201ZM24.8267 4.38832L23.1524 6.0626C22.9463 6.26875 22.9463 6.60304 23.1524 6.80925C23.2556 6.9123 23.3906 6.96388 23.5257 6.96388C23.6608 6.96388 23.796 6.9123 23.899 6.80925L24.8267 5.88162V6.90549L23.1524 8.57977C22.9462 8.78593 22.9462 9.12021 23.1524 9.32642C23.2555 9.42947 23.3906 9.48105 23.5257 9.48105C23.6608 9.48105 23.7959 9.42947 23.899 9.32642L24.8266 8.39879V9.63568C24.8268 9.96828 24.5561 10.2389 24.2235 10.2389H20.9955C20.6628 10.2389 20.3922 9.96828 20.3922 9.63558V8.39869L21.3198 9.32637C21.4229 9.42942 21.558 9.481 21.6931 9.481C21.8282 9.481 21.9634 9.42942 22.0664 9.32637C22.2726 9.12021 22.2726 8.78593 22.0664 8.57972L20.3922 6.90549V5.88157L21.3198 6.80925C21.4229 6.9123 21.558 6.96388 21.6931 6.96388C21.8282 6.96388 21.9634 6.9123 22.0664 6.80925C22.2726 6.60309 22.2726 6.26881 22.0664 6.0626L20.3922 4.38837V3.3645L21.3198 4.29218C21.4229 4.39523 21.558 4.44681 21.6931 4.44681C21.8282 4.44681 21.9634 4.39523 22.0664 4.29218C22.2726 4.08603 22.2726 3.75174 22.0664 3.54553L20.4871 1.96617C20.5944 1.79829 20.7819 1.68642 20.9955 1.68642H24.2235C24.437 1.68642 24.6246 1.79829 24.7318 1.96617L23.1525 3.54553C22.9463 3.75169 22.9463 4.08597 23.1525 4.29218C23.2556 4.39523 23.3907 4.44681 23.5258 4.44681C23.6609 4.44681 23.796 4.39523 23.8991 4.29218L24.8267 3.3645V4.38832Z" fill="#B5A9A3"/>
<path d="M24.2234 16.9964H20.9955C20.0806 16.9964 19.3362 17.7407 19.3362 18.6556V21.8006H15.482V21.4511C15.482 20.7686 14.9689 20.2041 14.3083 20.1219C14.3162 20.0857 14.3205 20.0481 14.3205 20.0095V16.4685C14.3205 16.177 14.0842 15.9406 13.7926 15.9406C13.501 15.9406 13.2647 16.177 13.2647 16.4685V20.0095C13.2647 20.0481 13.2691 20.0856 13.2769 20.1219C12.6163 20.2041 12.1032 20.7686 12.1032 21.4511V21.8006H8.24897V18.6556C8.24897 17.7407 7.50464 16.9964 6.58974 16.9964H3.36182C2.44691 16.9964 1.70264 17.7407 1.70264 18.6556V26.0014C1.70264 26.9163 2.44697 27.6607 3.36182 27.6607H6.58974C7.50464 27.6607 8.24897 26.9163 8.24897 26.0014V22.8564H12.1032V23.2059C12.1032 23.9447 12.7043 24.5458 13.4432 24.5458H14.142C14.8809 24.5458 15.482 23.9447 15.482 23.2059V22.8564H19.3362V26.0014C19.3362 26.9163 20.0806 27.6606 20.9955 27.6606H24.2234C25.1383 27.6606 25.8826 26.9163 25.8826 26.0014V18.6556C25.8826 17.7407 25.1383 16.9964 24.2234 16.9964ZM7.19301 20.7541L5.51873 22.4283C5.31257 22.6344 5.31252 22.9687 5.51873 23.1749C5.62183 23.278 5.75693 23.3296 5.89203 23.3296C6.02713 23.3296 6.16228 23.278 6.26533 23.1749L7.19301 22.2473V23.2712L5.51873 24.9454C5.31257 25.1516 5.31252 25.4859 5.51873 25.6921C5.62183 25.7951 5.75693 25.8467 5.89203 25.8467C6.02713 25.8467 6.16228 25.7951 6.26533 25.6921L7.19301 24.7644V26.0013C7.19311 26.3341 6.92244 26.6047 6.58974 26.6047H3.36182C3.02911 26.6047 2.7585 26.3341 2.7585 26.0014V24.7645L3.68612 25.6921C3.78923 25.7952 3.92433 25.8467 4.05942 25.8467C4.19452 25.8467 4.32967 25.7952 4.43272 25.6921C4.63888 25.486 4.63888 25.1517 4.43272 24.9455L2.75844 23.2712V22.2473L3.68607 23.1749C3.78918 23.278 3.92427 23.3296 4.05937 23.3296C4.19447 23.3296 4.32962 23.278 4.43267 23.1749C4.63883 22.9688 4.63883 22.6345 4.43267 22.4283L2.75839 20.754V19.7302L3.68602 20.6579C3.78912 20.7609 3.92422 20.8125 4.05932 20.8125C4.19442 20.8125 4.32957 20.7609 4.43262 20.6579C4.63877 20.4517 4.63883 20.1174 4.43262 19.9112L2.85331 18.3319C2.96054 18.164 3.14811 18.0521 3.36171 18.0521H6.58964C6.80318 18.0521 6.99076 18.164 7.09803 18.3319L5.51873 19.9112C5.31257 20.1174 5.31257 20.4517 5.51873 20.6579C5.62183 20.7609 5.75693 20.8125 5.89203 20.8125C6.02713 20.8125 6.16228 20.7609 6.26533 20.6579L7.19301 19.7302V20.7541ZM14.4261 23.2059C14.4261 23.3625 14.2987 23.49 14.142 23.49H13.4432C13.2866 23.49 13.1591 23.3625 13.1591 23.2059V21.4511C13.1591 21.2945 13.2866 21.1671 13.4432 21.1671H14.142C14.2987 21.1671 14.4261 21.2945 14.4261 21.4511V23.2059ZM24.8267 20.7541L23.1524 22.4284C22.9463 22.6346 22.9463 22.9688 23.1524 23.175C23.2556 23.2781 23.3906 23.3297 23.5257 23.3297C23.6608 23.3297 23.796 23.2781 23.899 23.175L24.8267 22.2474V23.2713L23.1524 24.9456C22.9462 25.1517 22.9462 25.486 23.1524 25.6922C23.2555 25.7953 23.3906 25.8469 23.5257 25.8469C23.6608 25.8469 23.7959 25.7953 23.899 25.6922L24.8266 24.7646V26.0015C24.8268 26.3341 24.5561 26.6047 24.2235 26.6047H20.9955C20.6628 26.6047 20.3922 26.3341 20.3922 26.0014V24.7645L21.3198 25.6922C21.4229 25.7952 21.558 25.8468 21.6931 25.8468C21.8282 25.8468 21.9634 25.7952 22.0664 25.6922C22.2726 25.486 22.2726 25.1517 22.0664 24.9455L20.3922 23.2713V22.2474L21.3198 23.175C21.4229 23.2781 21.558 23.3297 21.6931 23.3297C21.8282 23.3297 21.9634 23.2781 22.0664 23.175C22.2726 22.9689 22.2726 22.6346 22.0664 22.4284L20.3922 20.7542V19.7303L21.3198 20.658C21.4229 20.761 21.558 20.8126 21.6931 20.8126C21.8282 20.8126 21.9634 20.761 22.0664 20.658C22.2726 20.4518 22.2726 20.1175 22.0664 19.9113L20.4871 18.332C20.5944 18.1641 20.7819 18.0522 20.9955 18.0522H24.2235C24.437 18.0522 24.6246 18.1641 24.7318 18.332L23.1525 19.9113C22.9463 20.1175 22.9463 20.4518 23.1525 20.658C23.2556 20.761 23.3907 20.8126 23.5258 20.8126C23.6609 20.8126 23.796 20.761 23.8991 20.658L24.8267 19.7303V20.7541Z" fill="#B5A9A3"/>
<path d="M14.1658 13.7724C14.0676 13.6742 13.9314 13.6177 13.7926 13.6177C13.6537 13.6177 13.5175 13.6741 13.4193 13.7724C13.3211 13.8706 13.2646 14.0068 13.2646 14.1456C13.2646 14.2845 13.3211 14.4207 13.4193 14.5188C13.5175 14.617 13.6537 14.6735 13.7926 14.6735C13.9314 14.6735 14.0676 14.617 14.1658 14.5188C14.264 14.4207 14.3205 14.2845 14.3205 14.1456C14.3205 14.0068 14.264 13.8706 14.1658 13.7724Z" fill="#B5A9A3"/>
</g>
<defs>
<clipPath id="clip0">
<rect width="27.0301" height="27.0301" fill="white" transform="translate(0.277344 0.630615)"/>
</clipPath>
</defs>
</svg>
