<svg width="20" height="21" viewBox="0 0 20 21" fill="none" xmlns="http://www.w3.org/2000/svg">
<g clip-path="url(#clip0)">
<path d="M12.4541 7.97583C12.2501 7.97583 12.0845 8.14847 12.0845 8.3612C12.0845 8.57392 12.2501 8.74656 12.4541 8.74656C12.6581 8.74656 12.8237 8.57392 12.8237 8.3612C12.8237 8.14847 12.6581 7.97583 12.4541 7.97583Z" fill="#372120"/>
<path d="M19.4875 17.7533L14.5537 12.6094C15.3574 11.3472 15.7808 9.88546 15.7808 8.36114C15.7808 4.11132 12.4645 0.653809 8.3882 0.653809C4.31193 0.653809 0.995605 4.11132 0.995605 8.36114C0.995605 12.611 4.31193 16.0685 8.3882 16.0685C9.85031 16.0685 11.2523 15.627 12.463 14.7891L13.8267 16.2109C13.8269 16.2111 13.8271 16.2113 13.8273 16.2116L17.3968 19.933C17.6761 20.2242 18.0473 20.3846 18.4421 20.3846C18.8369 20.3846 19.2082 20.2242 19.4874 19.9331C19.7668 19.642 19.9207 19.255 19.9207 18.8431C19.9207 18.4313 19.7668 18.0442 19.4875 17.7533ZM12.2891 13.977C12.2891 13.977 12.2891 13.977 12.2891 13.977C11.1481 14.841 9.79927 15.2977 8.3882 15.2977C4.71955 15.2977 1.73487 12.186 1.73487 8.36114C1.73487 4.5363 4.71955 1.42454 8.3882 1.42454C12.0569 1.42454 15.0415 4.5363 15.0415 8.36114C15.0415 9.83228 14.6035 11.2386 13.7747 12.4281C13.3601 13.0236 12.8603 13.5447 12.2891 13.977ZM13.0646 14.3263C13.4472 14.0001 13.7969 13.6355 14.1098 13.2366L15.1585 14.33C14.8396 14.7224 14.4897 15.0872 14.1133 15.4197L13.0646 14.3263ZM18.9648 19.388C18.825 19.5337 18.6394 19.6138 18.4421 19.6138C18.2448 19.6138 18.0592 19.5337 17.9195 19.388L14.6374 15.9661C15.0117 15.6312 15.3614 15.2667 15.6826 14.8764L18.9648 18.2984C19.1045 18.4438 19.1814 18.6372 19.1814 18.8431C19.1814 19.049 19.1045 19.2424 18.9648 19.388Z" fill="#372120"/>
<path d="M8.3882 2.19531C5.12714 2.19531 2.47412 4.96128 2.47412 8.36118C2.47412 11.7611 5.12714 14.527 8.3882 14.527C11.6493 14.527 14.3023 11.7611 14.3023 8.36118C14.3023 4.96128 11.6493 2.19531 8.3882 2.19531ZM8.3882 13.7563C5.5348 13.7563 3.21338 11.3361 3.21338 8.36118C3.21338 5.3863 5.5348 2.96605 8.3882 2.96605C11.2416 2.96605 13.563 5.3863 13.563 8.36118C13.563 11.3361 11.2416 13.7563 8.3882 13.7563Z" fill="#372120"/>
<path d="M12.5305 6.70683C12.2122 5.84315 11.658 5.10471 10.9277 4.5714C10.1801 4.02533 9.30195 3.73669 8.38819 3.73669C8.18408 3.73669 8.01855 3.90926 8.01855 4.12206C8.01855 4.33486 8.18408 4.50743 8.38819 4.50743C9.90733 4.50743 11.2946 5.50237 11.8404 6.98329C11.8969 7.13651 12.0369 7.23054 12.1855 7.23054C12.2296 7.23054 12.2744 7.22226 12.318 7.2048C12.5085 7.12846 12.6037 6.90552 12.5305 6.70683Z" fill="#372120"/>
</g>
<defs>
<clipPath id="clip0">
<rect width="18.9251" height="19.7308" fill="white" transform="translate(0.995605 0.653809)"/>
</clipPath>
</defs>
</svg>
