<svg width="31" height="23" viewBox="0 0 31 23" fill="none" xmlns="http://www.w3.org/2000/svg">
<path d="M9.79186 0.518921H8.23204C7.82247 0.551432 7.47749 0.837767 7.3701 1.23434L0.610513 21.7873C0.532695 22.016 0.570612 22.2682 0.712231 22.464C0.896381 22.6994 1.18278 22.8315 1.48137 22.8187H1.48259L4.5475 22.8153C5.03949 22.8346 5.48442 22.5247 5.63684 22.0566L10.4591 1.50827C10.5276 1.25576 10.4767 0.985796 10.321 0.775522C10.1934 0.613265 9.99829 0.518655 9.79186 0.518921ZM1.45365 21.8026C1.4637 21.8061 1.47314 21.8111 1.48163 21.8175L1.48213 22.3119L1.45365 21.8026ZM4.66259 21.7717C4.62685 21.7913 4.58677 21.8016 4.54603 21.8017L1.67193 21.8051L8.33299 1.5511C8.33496 1.54469 8.33752 1.53848 8.34065 1.53255H9.41241L4.66259 21.7717Z" fill="#B5A9A3"/>
<path d="M19.6831 0.518311H11.8681C11.4493 0.557016 11.1177 0.88874 11.0792 1.30747L7.67894 21.8491C7.63837 22.0806 7.70225 22.3182 7.85344 22.4982C8.03379 22.7038 8.29586 22.8191 8.56931 22.8132L15.7756 22.8029L22.9825 22.8131C23.2557 22.8189 23.5175 22.7036 23.6977 22.4981C23.8482 22.3195 23.9123 22.0836 23.8729 21.8534L20.4713 1.30301C20.4315 0.885939 20.1004 0.556295 19.6831 0.518311V0.518311ZM15.7756 1.53194H16.3247L16.3851 4.06601H15.1661L15.2265 1.53194H15.7756ZM14.7645 21.781L14.8261 18.7688L15.7729 18.7636L16.7251 18.771L16.787 21.7892L14.7645 21.781ZM17.8009 21.7922L17.7363 18.6515C17.7091 18.1346 17.2718 17.7354 16.7546 17.7554L15.7729 17.75L14.7993 17.7554C14.2809 17.7347 13.8421 18.1344 13.8144 18.6525L13.7505 21.7921L8.71487 21.799L12.0752 1.53194H14.2126L14.149 4.20163C14.1414 4.43897 14.2293 4.66943 14.393 4.84144C14.5384 4.99316 14.7393 5.07916 14.9495 5.07964H16.6017C16.8119 5.07918 17.0128 4.99318 17.1582 4.84144C17.3217 4.6698 17.4096 4.43979 17.4023 4.20285L17.3386 1.53194H19.4817L22.8368 21.7994L17.8009 21.7922Z" fill="#B5A9A3"/>
<path d="M27.004 22.8147L30.0682 22.8181H30.0691C30.368 22.8309 30.6546 22.6986 30.8388 22.463C30.9804 22.2673 31.0182 22.0151 30.9401 21.7865L24.1811 1.23398C24.0737 0.837305 23.7286 0.550878 23.319 0.518311H21.7591C21.5527 0.517998 21.3575 0.612613 21.2298 0.774911C21.0742 0.985295 21.0233 1.25534 21.0919 1.50792L25.9143 22.0557C26.0668 22.524 26.5119 22.8341 27.004 22.8147ZM23.2104 1.53194C23.2134 1.53793 23.2161 1.54413 23.2183 1.55049L29.8791 21.8045L27.0054 21.8013C26.9647 21.8013 26.9246 21.791 26.8889 21.7714L22.1388 1.53194H23.2104Z" fill="#B5A9A3"/>
<path d="M14.8886 10.1477H16.6625C16.906 10.1503 17.1402 10.0549 17.3126 9.88291C17.46 9.73365 17.54 9.53065 17.5341 9.32096L17.4682 6.88709C17.4491 6.43627 17.0731 6.08346 16.6219 6.09321H14.9292C14.4777 6.08347 14.1014 6.43686 14.0828 6.8881L14.0169 9.3202C14.0109 9.53009 14.0909 9.73332 14.2384 9.88276C14.4108 10.0548 14.6451 10.1503 14.8886 10.1477ZM15.0911 7.10684H16.4601L16.515 9.1341H15.0361L15.0911 7.10684Z" fill="#B5A9A3"/>
<path d="M16.6877 11.6683H14.8632C14.3795 11.6613 13.9767 12.0376 13.9509 12.5206L13.885 15.3571C13.8797 15.5766 13.9642 15.7887 14.1188 15.9446C14.3058 16.13 14.5593 16.2327 14.8226 16.2297H16.7282C16.9915 16.2327 17.2449 16.13 17.4318 15.9446C17.5861 15.7892 17.6706 15.5777 17.6656 15.3588L17.5998 12.5188C17.5732 12.0366 17.1707 11.6612 16.6877 11.6683ZM14.9024 15.2153L14.9613 12.6819H16.5896L16.6485 15.216L14.9024 15.2153Z" fill="#B5A9A3"/>
</svg>
