<svg width="18" height="19" viewBox="0 0 18 19" fill="none" xmlns="http://www.w3.org/2000/svg">
<path d="M16.1439 11.1874C15.4964 11.1012 14.8921 10.9719 14.2878 10.7995C13.554 10.584 12.7338 10.7564 12.1727 11.3167L11.0072 12.4804C8.80575 11.2736 6.99281 9.46341 5.78417 7.26533L6.94964 6.10164C7.51079 5.54135 7.68345 4.72246 7.46763 3.98977C7.29496 3.38637 7.16547 2.78298 7.07914 2.13649C6.94964 1.059 6.04316 0.283203 4.96403 0.283203H2.11511C1.51079 0.283203 0.949641 0.541803 0.561152 0.972799C0.215829 1.36069 0 1.87789 0 2.39508C0 2.43818 0 2.52438 0 2.56748C0.172662 4.59316 0.733815 6.57574 1.59712 8.38592C2.46043 10.153 3.58273 11.7908 5.00719 13.2131C6.43165 14.6354 8.02878 15.7559 9.84173 16.6179C11.6978 17.4799 13.6403 18.0402 15.6691 18.2126C16.2734 18.2557 16.8345 18.0833 17.3093 17.6523C17.741 17.2644 18 16.7041 18 16.1007V13.2562C18 12.2218 17.223 11.3167 16.1439 11.1874Z" fill="#EDC939"/>
</svg>
