<svg width="22" height="28" viewBox="0 0 22 28" fill="none" xmlns="http://www.w3.org/2000/svg">
<path d="M13.7961 19.0453C13.7954 18.911 13.7559 18.7712 13.7061 18.6456C13.6397 18.4805 13.4975 18.3983 13.319 18.3809C13.1097 18.3604 12.9422 18.4449 12.7905 18.5792C12.7297 18.6321 12.7021 18.7111 12.7021 18.7111L12.7052 22.9744V23.0795C12.7052 23.0795 12.7416 23.1285 12.7471 23.1348C12.8703 23.2683 13.0141 23.3741 13.1982 23.4121C13.5015 23.4745 13.7156 23.3481 13.7748 23.0669C13.7898 22.9966 13.7985 22.9239 13.7985 22.852C13.8001 21.5826 13.8025 20.3139 13.7961 19.0453ZM13.7961 19.0453C13.7954 18.911 13.7559 18.7712 13.7061 18.6456C13.6397 18.4805 13.4975 18.3983 13.319 18.3809C13.1097 18.3604 12.9422 18.4449 12.7905 18.5792C12.7297 18.6321 12.7021 18.7111 12.7021 18.7111L12.7052 22.9744V23.0795C12.7052 23.0795 12.7416 23.1285 12.7471 23.1348C12.8703 23.2683 13.0141 23.3741 13.1982 23.4121C13.5015 23.4745 13.7156 23.3481 13.7748 23.0669C13.7898 22.9966 13.7985 22.9239 13.7985 22.852C13.8001 21.5826 13.8025 20.3139 13.7961 19.0453ZM18.5697 12.616C13.5244 12.5077 8.47669 12.5077 3.43055 12.616C1.68005 12.6531 0.280273 14.0845 0.280273 15.8358V23.7162C0.280273 25.4683 1.68005 26.8996 3.43055 26.9368C8.47669 27.045 13.5244 27.045 18.5697 26.9368C20.321 26.8996 21.7208 25.4683 21.7208 23.7162V15.8358C21.7208 14.0845 20.321 12.6531 18.5697 12.616ZM4.91248 24.4343H3.45741V16.2087H1.951V14.8326H6.42205V16.2055H4.91248V24.4343ZM10.1198 21.0201V24.435H8.83137V23.6546C8.78476 23.7043 8.7587 23.7312 8.73421 23.7588C8.45694 24.0717 8.14254 24.3323 7.74125 24.4706C7.54535 24.5377 7.34391 24.5606 7.13774 24.5251C6.85652 24.4785 6.66773 24.3165 6.55397 24.0606C6.44812 23.8244 6.42127 23.5716 6.42048 23.3173C6.41732 22.3772 6.4189 17.4022 6.4189 17.354H7.70413C7.7065 17.3975 7.71124 20.9688 7.71203 22.7106C7.71203 22.8054 7.71282 22.9026 7.73177 22.995C7.77917 23.2288 7.95849 23.3291 8.18362 23.247C8.44272 23.1522 8.64021 22.9736 8.80609 22.7596C8.83058 22.7288 8.83058 22.6735 8.83058 22.6292V17.3461L10.1198 17.343C10.1198 17.343 10.1198 19.8368 10.1198 21.0201ZM15.0213 23.7525C14.8491 24.2707 14.47 24.5346 13.9249 24.529C13.4817 24.5251 13.1223 24.3489 12.8261 24.0274C12.7929 23.9919 12.7013 23.8947 12.7013 23.8947V24.4335H11.4105V14.8317H12.7013C12.7013 15.8539 12.7013 17.9923 12.7013 17.9923C12.7013 17.9923 12.774 17.8469 12.8403 17.7719C13.0402 17.5483 13.2835 17.3753 13.5836 17.2995C14.0789 17.1755 14.6501 17.3287 14.9218 17.9078C15.0822 18.2498 15.1272 18.6148 15.1272 18.986C15.1296 20.3281 15.1296 21.6702 15.128 23.0124C15.1272 23.2636 15.1011 23.5117 15.0213 23.7525ZM19.7886 23.4824C19.5651 24.1373 19.103 24.5007 18.4252 24.6002C18.0049 24.6618 17.5886 24.6531 17.1945 24.4746C16.6549 24.2313 16.3492 23.7913 16.2181 23.2312C16.1573 22.9706 16.1273 22.6972 16.1241 22.4295C16.1138 21.378 16.1186 20.3258 16.1209 19.2744C16.1217 18.7246 16.2529 18.2175 16.6297 17.7965C17.0594 17.3154 17.6092 17.1361 18.2372 17.1764C18.426 17.1882 18.6187 17.219 18.798 17.2783C19.4087 17.4789 19.7349 17.9363 19.8629 18.543C19.9119 18.7768 19.93 19.0193 19.934 19.2586C19.9442 19.8195 19.93 21.0557 19.93 21.0557H17.4583V22.8276C17.4583 23.1459 17.7158 23.4035 18.0342 23.4035C18.3517 23.4035 18.6092 23.1459 18.6092 22.8276V21.9168H19.9371C19.9371 21.9167 19.9569 22.9919 19.7886 23.4824ZM18.6092 18.9624C18.6092 18.6449 18.3517 18.3865 18.0342 18.3865C17.7158 18.3865 17.4583 18.6449 17.4583 18.9624V19.9569H18.6092V18.9624ZM13.7061 18.6456C13.6397 18.4805 13.4975 18.3984 13.319 18.381C13.1097 18.3605 12.9422 18.445 12.7905 18.5793C12.7297 18.6322 12.7021 18.7112 12.7021 18.7112L12.7052 22.9745V23.0796C12.7052 23.0796 12.7416 23.1286 12.7471 23.1349C12.8703 23.2684 13.0141 23.3742 13.1982 23.4121C13.5015 23.4745 13.7156 23.3482 13.7748 23.0669C13.7898 22.9966 13.7985 22.924 13.7985 22.8521C13.8001 21.5826 13.8025 20.314 13.7961 19.0454C13.7954 18.911 13.7559 18.7712 13.7061 18.6456Z" fill="white"/>
<path d="M17.005 3.50366L17.0046 10.6324H15.6837L15.6852 9.86655C15.5392 10.0104 15.4145 10.1448 15.2776 10.2655C15.0347 10.4794 14.7597 10.6389 14.4379 10.7018C13.944 10.7984 13.5233 10.6423 13.3657 10.1307C13.3133 9.96031 13.2816 9.77665 13.2803 9.59876V3.50366H14.5913V8.94011C14.5913 9.01215 14.597 9.08498 14.6097 9.1556C14.6495 9.37963 14.815 9.48509 15.0308 9.41028C15.2938 9.31928 15.4944 9.1372 15.6646 8.92265C15.6888 8.892 15.6845 8.83481 15.6845 8.78986V3.50366H17.005Z" fill="white"/>
<path d="M6.08013 4.74245C5.79338 3.53376 5.19263 0.982178 5.19263 0.982178H3.68945C3.68945 0.982178 4.84435 4.81236 5.36081 6.52053C5.37937 6.5823 5.3879 6.64937 5.3879 6.71406L5.38735 10.6309H6.77346L6.7729 6.71406C6.7729 6.64937 6.78144 6.5823 6.8 6.52053C7.31646 4.81236 8.47135 0.982178 8.47135 0.982178H6.96818C6.96818 0.982178 6.36735 3.53376 6.08068 4.74245H6.08013Z" fill="white"/>
<path d="M10.2801 3.3252C9.23549 3.3252 8.38867 4.17201 8.38867 5.21663V8.9182C8.38867 9.96282 9.23549 10.8096 10.2801 10.8096C11.3247 10.8096 12.1715 9.96282 12.1715 8.9182V5.21663C12.1716 4.17201 11.3247 3.3252 10.2801 3.3252ZM10.826 8.99293C10.826 9.2939 10.5811 9.5387 10.2802 9.5387C9.97929 9.5387 9.73441 9.2939 9.73441 8.99293V5.14182C9.73441 4.84085 9.97929 4.59605 10.2802 4.59605C10.5811 4.59605 10.826 4.84093 10.826 5.14182V8.99293Z" fill="white"/>
</svg>
