<svg width="26" height="26" viewBox="0 0 26 26" fill="none" xmlns="http://www.w3.org/2000/svg">
<path d="M22.3889 0H3.61111C1.61759 0.00246856 0.00246856 1.61759 0 3.61111V22.3889C0.00246856 24.3824 1.61759 25.9975 3.61111 26H22.3889C24.3824 25.9975 25.9975 24.3824 26 22.3889V3.61111C25.9975 1.61759 24.3824 0.00246856 22.3889 0ZM24.5556 22.3889C24.5556 23.5854 23.5854 24.5556 22.3889 24.5556H3.61111C2.41458 24.5556 1.44444 23.5854 1.44444 22.3889V3.61111C1.44444 2.41458 2.41458 1.44444 3.61111 1.44444H22.3889C23.5854 1.44444 24.5556 2.41458 24.5556 3.61111V22.3889Z" fill="black"/>
<path d="M12.9996 5.77686C9.01077 5.77686 5.77734 9.01028 5.77734 12.9991C5.77734 16.9879 9.01077 20.2213 12.9996 20.2213C16.9884 20.2213 20.2218 16.9879 20.2218 12.9991C20.2176 9.01204 16.9866 5.78109 12.9996 5.77686ZM12.9996 18.7769C9.80846 18.7769 7.22179 16.1902 7.22179 12.9991C7.22179 9.80797 9.80846 7.2213 12.9996 7.2213C16.1907 7.2213 18.7773 9.80797 18.7773 12.9991C18.7738 16.1884 16.1889 18.7733 12.9996 18.7769Z" fill="black"/>
<path d="M20.944 2.88965C19.7475 2.88965 18.7773 3.85978 18.7773 5.05631C18.7773 6.25285 19.7475 7.22298 20.944 7.22298C22.1405 7.22298 23.1107 6.25285 23.1107 5.05631C23.1107 3.85978 22.1405 2.88965 20.944 2.88965ZM20.944 5.77854C20.5452 5.77854 20.2218 5.45516 20.2218 5.05631C20.2218 4.65747 20.5452 4.33409 20.944 4.33409C21.3429 4.33409 21.6662 4.65747 21.6662 5.05631C21.6662 5.45516 21.3429 5.77854 20.944 5.77854Z" fill="black"/>
</svg>
