<svg width="28" height="21" viewBox="0 0 28 21" fill="none" xmlns="http://www.w3.org/2000/svg">
<path d="M8.46313 0.256836H7.07909C6.71568 0.285684 6.40958 0.53975 6.31429 0.891631L0.316487 19.1283C0.247438 19.3313 0.281082 19.5551 0.406742 19.7288C0.570139 19.9376 0.824259 20.0549 1.0892 20.0436H1.09028L3.80979 20.0405C4.24633 20.0577 4.64112 19.7827 4.77637 19.3673L9.0552 1.13469C9.11594 0.910632 9.0708 0.671096 8.93266 0.484519C8.81942 0.340548 8.6463 0.2566 8.46313 0.256836ZM1.06461 19.142C1.07352 19.145 1.0819 19.1495 1.08943 19.1551L1.08988 19.5939L1.06461 19.142ZM3.91191 19.1145C3.8802 19.1319 3.84464 19.141 3.80848 19.1411L1.25829 19.1442L7.16867 1.17269C7.17042 1.16701 7.17269 1.16149 7.17547 1.15623H8.12644L3.91191 19.1145Z" fill="#B5A9A3"/>
<path d="M17.2401 0.256104H10.3058C9.93422 0.290447 9.63998 0.584787 9.60575 0.956329L6.58873 19.183C6.55273 19.3884 6.60941 19.5992 6.74356 19.7589C6.90359 19.9414 7.13613 20.0437 7.37876 20.0384L13.7729 20.0293L20.1676 20.0383C20.4101 20.0435 20.6424 19.9412 20.8022 19.7588C20.9357 19.6004 20.9926 19.3911 20.9577 19.1868L17.9394 0.952371C17.9041 0.582302 17.6103 0.289808 17.2401 0.256104V0.256104ZM13.7729 1.1555H14.2602L14.3137 3.40399H13.2321L13.2857 1.1555H13.7729ZM12.8757 19.1226L12.9304 16.4499L13.7705 16.4452L14.6154 16.4518L14.6703 19.1298L12.8757 19.1226ZM15.57 19.1326L15.5127 16.3458C15.4886 15.8871 15.1005 15.5329 14.6416 15.5507L13.7705 15.5458L12.9067 15.5507C12.4467 15.5323 12.0573 15.8869 12.0328 16.3466L11.976 19.1324L7.50791 19.1386L10.4895 1.1555H12.3861L12.3296 3.52433C12.3229 3.73492 12.4009 3.93941 12.5462 4.09203C12.6752 4.22666 12.8534 4.30297 13.0399 4.30339H14.5059C14.6924 4.30298 14.8707 4.22667 14.9997 4.09203C15.1448 3.93973 15.2228 3.73565 15.2163 3.52541L15.1598 1.1555H17.0613L20.0384 19.1389L15.57 19.1326Z" fill="#B5A9A3"/>
<path d="M23.7362 20.0398L26.4551 20.0428H26.4559C26.7211 20.0541 26.9754 19.9368 27.1388 19.7277C27.2645 19.5541 27.298 19.3303 27.2288 19.1274L21.2315 0.891123C21.1361 0.539149 20.83 0.285001 20.4665 0.256104H19.0824C18.8992 0.255826 18.726 0.339778 18.6128 0.483787C18.4747 0.670461 18.4296 0.910074 18.4904 1.13419L22.7693 19.3663C22.9046 19.7819 23.2995 20.057 23.7362 20.0398ZM20.3701 1.1555C20.3728 1.16082 20.3752 1.16632 20.3771 1.17196L26.2873 19.1434L23.7375 19.1406C23.7013 19.1406 23.6658 19.1314 23.6341 19.114L19.4193 1.1555H20.3701Z" fill="#B5A9A3"/>
<path d="M12.9857 8.80039H14.5596C14.7757 8.8027 14.9835 8.71802 15.1365 8.56543C15.2672 8.43299 15.3382 8.25286 15.333 8.0668L15.2745 5.90722C15.2576 5.50721 14.9239 5.19416 14.5237 5.20281H13.0217C12.621 5.19417 12.2871 5.50773 12.2707 5.90812L12.2122 8.06613C12.2068 8.25236 12.2778 8.43269 12.4087 8.56529C12.5617 8.71797 12.7696 8.8027 12.9857 8.80039ZM13.1653 6.10221H14.38L14.4288 7.901H13.1165L13.1653 6.10221Z" fill="#B5A9A3"/>
<path d="M14.5818 10.1495H12.9629C12.5337 10.1433 12.1763 10.4772 12.1534 10.9057L12.0949 13.4225C12.0902 13.6173 12.1652 13.8056 12.3024 13.9438C12.4683 14.1084 12.6932 14.1995 12.9269 14.1968H14.6177C14.8513 14.1995 15.0762 14.1084 15.242 13.9438C15.379 13.806 15.4539 13.6183 15.4495 13.4241L15.391 10.9042C15.3674 10.4762 15.0103 10.1432 14.5818 10.1495ZM12.9977 13.2967L13.0499 11.0489H14.4947L14.547 13.2974L12.9977 13.2967Z" fill="#B5A9A3"/>
</svg>
