<svg width="68" height="46" viewBox="0 0 68 46" fill="none" xmlns="http://www.w3.org/2000/svg">
<path d="M64.3555 9.98768V10.2377H64.6055H66.8723C67.3605 10.2377 67.7558 10.6331 67.7554 11.1211V11.1213V13.3881V13.389C67.7565 13.6851 67.6088 13.9622 67.3626 14.1265L64.467 16.0532L64.3555 16.1274V16.2613V32.6568V32.9068H64.6055H66.8723C67.3601 32.9068 67.7554 33.3022 67.7554 33.7899V40.5912C67.7554 42.9569 65.8376 44.8747 63.4719 44.8747H10.1998H10.1996C9.72377 44.8751 9.33301 44.498 9.31647 44.0221C9.21976 41.238 8.30331 38.5445 6.68218 36.2788L0.414397 27.5032C0.414383 27.5031 0.414369 27.5031 0.414354 27.5031C0.307615 27.3532 0.25039 27.1742 0.25 26.9902C0.249721 26.5024 0.644813 26.1064 1.13288 26.106H5.66624H5.91624V25.856V20.1888C5.91624 19.701 6.31169 19.3052 6.79985 19.3052H47.604C48.0917 19.3052 48.4872 19.7005 48.4872 20.1888V32.6568V32.9068H48.7372H51.0044H51.2544V32.6568V16.2613V16.1275L51.1431 16.0533L48.2473 14.1232C48.0015 13.9593 47.854 13.6833 47.854 13.3881V11.1208C47.854 10.6331 48.2494 10.2377 48.7372 10.2377H51.0044H51.2544V9.98768V6.58729C51.2544 6.09939 51.6499 5.70368 52.1376 5.70368H56.6716H56.9216V5.45368V3.18691V2.93691H56.6716H54.6543V1.17014H60.9551V2.93691H58.9384H58.6884V3.18691V5.45368V5.70368H58.9384H63.4719C63.9597 5.70368 64.3555 6.09952 64.3555 6.58729V9.98768ZM68.0054 13.3881V11.1213L67.5014 14.3344C67.8173 14.1237 68.0068 13.7681 68.0054 13.3881ZM53.2712 7.47091H53.0212V7.72091V9.98768V10.2377H53.2712H62.3387H62.5887V9.98768V7.72091V7.47091H62.3387H53.2712ZM35.1361 21.072H34.8861V21.322V25.856V26.106H35.1361H46.4704H46.7204V25.856V21.322V21.072H46.4704H35.1361ZM35.1361 27.8728H34.8861V28.1228V32.6568V32.9068H35.1361H46.4704H46.7204V32.6568V28.1228V27.8728H46.4704H35.1361ZM21.5346 21.072H21.2846V21.322V25.856V26.106H21.5346H32.8689H33.1189V25.856V21.322V21.072H32.8689H21.5346ZM33.1189 28.1228V27.8728H32.8689H25.404H24.8004L25.2272 28.2995L29.7612 32.8335L29.8344 32.9068H29.938H32.8689H33.1189V32.6568V28.1228ZM7.93301 21.072H7.68301V21.322V25.856V26.106H7.93301H19.2678H19.5178V25.856V21.322V21.072H19.2678H7.93301ZM11.0091 42.8837L11.0328 43.1075H11.2578H63.4719C64.862 43.1075 65.9891 41.981 65.9891 40.5907V40.3407H65.7391H10.8542H10.5334L10.6118 40.6518C10.7966 41.3857 10.9297 42.1314 11.0091 42.8837ZM65.9891 34.9235V34.6735H65.7391H29.4685C29.2341 34.6735 29.0095 34.5804 28.8444 34.4149L28.8442 34.4147L22.3755 27.946L22.3022 27.8728H22.1987H3.3349H2.84913L3.13146 28.2681L8.11941 35.2519C8.82059 36.2383 9.40822 37.301 9.8705 38.4194L9.93436 38.5739H10.1015H65.7391H65.9891V38.3239V34.9235ZM53.0212 32.6568V32.9068H53.2712H62.3387H62.5887V32.6568V16.7885V16.5385H62.3387H53.2712H53.0212V16.7885V32.6568ZM65.8779 12.9895L65.9891 12.9153V12.7816V12.2545V12.0045H65.7391H49.8708H49.6208V12.2545V12.7816V12.9153L49.732 12.9895L52.3387 14.7296L52.4017 14.7717H52.4775H63.132H63.2078L63.2708 14.7296L65.8779 12.9895Z" fill="black" stroke="#EDC939" stroke-width="0.5"/>
<path d="M55.7881 19.3052H59.8216V21.0719H55.7881V19.3052Z" fill="black" stroke="#EDC939" stroke-width="0.5"/>
<path d="M55.7881 23.8391H59.8216V25.6059H55.7881V23.8391Z" fill="black" stroke="#EDC939" stroke-width="0.5"/>
<path d="M55.7881 28.3725H59.8216V30.1397H55.7881V28.3725Z" fill="black" stroke="#EDC939" stroke-width="0.5"/>
<path d="M19.5176 30.64H21.2844V32.4068H19.5176V30.64Z" fill="black" stroke="#EDC939" stroke-width="0.5"/>
<path d="M14.9834 30.64H16.7502V32.4068H14.9834V30.64Z" fill="black" stroke="#EDC939" stroke-width="0.5"/>
</svg>
