<svg width="50" height="50" viewBox="0 0 50 50" fill="none" xmlns="http://www.w3.org/2000/svg">
<path d="M11.5016 17.026C11.1208 16.6452 10.5016 16.6452 10.1209 17.026C9.73901 17.4079 9.73901 18.026 10.1209 18.4069C10.5017 18.7887 11.1209 18.7887 11.5016 18.4069C11.8834 18.026 11.8834 17.4079 11.5016 17.026Z" fill="white"/>
<path d="M24.6058 43.6336L24.5021 43.7741L24.6566 43.8554C26.1633 44.6486 27.1928 46.2289 27.1928 48.0454V49.022C27.1928 49.4785 26.8227 49.8486 26.3663 49.8486H0.976564C0.520139 49.8486 0.15 49.4785 0.15 49.022V48.0454C0.15 46.2281 1.18052 44.6471 2.68837 43.8543L2.84289 43.773L2.7393 43.6325C2.33969 43.0904 2.10303 42.4215 2.10303 41.6981C2.10303 40.8244 2.44271 40.0043 3.06006 39.3871L3.06009 39.3871C3.67715 38.7699 4.49729 38.4302 5.37091 38.4302H21.9719C23.7737 38.4302 25.2398 39.8963 25.2398 41.6981C25.2398 42.4049 25.0173 43.0763 24.6058 43.6336ZM1.80303 48.0454V48.1954H1.95303H25.3898H25.5398V48.0454C25.5398 46.3473 24.1584 44.9658 22.4602 44.9658H21.9719H5.37091H4.88263C3.18445 44.9658 1.80303 46.3473 1.80303 48.0454ZM5.37091 40.0831C4.9397 40.0831 4.53356 40.2511 4.2289 40.5559C3.92416 40.8606 3.75616 41.2667 3.75616 41.698C3.75616 42.5884 4.48034 43.3127 5.37091 43.3127H21.9718C22.403 43.3127 22.8092 43.1447 23.1138 42.8399C23.4186 42.5352 23.5867 42.1292 23.5867 41.6979C23.5867 40.8074 22.8625 40.0831 21.9719 40.0831H5.37091Z" fill="white" stroke="#EDC939" stroke-width="0.3"/>
<path d="M20.5846 26.1091L20.5846 26.1091C20.372 26.3216 20.0886 26.4389 19.7877 26.4389C19.487 26.4389 19.2035 26.3216 18.991 26.109C18.9909 26.109 18.9909 26.109 18.9909 26.1089M20.5846 26.1091L18.8107 25.3116C18.8107 25.5728 18.9123 25.8183 19.097 26.0029L18.9909 26.1089M20.5846 26.1091L21.2723 25.4214L21.2723 25.4214L21.2723 25.4214L21.2723 25.4213L21.2724 25.4213L21.2724 25.4213L21.2724 25.4213L21.2724 25.4213L21.2724 25.4213L21.2724 25.4213L21.2724 25.4213L21.2724 25.4213L21.2725 25.4212L21.2725 25.4212L21.2725 25.4212L21.2725 25.4212L21.2725 25.4212L21.2725 25.4212L21.2725 25.4212L21.2725 25.4212L21.2725 25.4212L21.2726 25.4211L21.2726 25.4211L21.2726 25.4211L21.2726 25.4211L21.2726 25.4211L21.2726 25.4211L21.2726 25.4211L21.2726 25.4211L21.2726 25.4211L21.2727 25.421L21.2727 25.421L21.2727 25.421L21.2727 25.421L21.2727 25.421L21.2727 25.421L21.2727 25.421L21.2727 25.421L21.2727 25.4209L21.2728 25.4209L21.2728 25.4209L21.2728 25.4209L21.2728 25.4209L21.2728 25.4209L21.2728 25.4209L21.2728 25.4209L21.2728 25.4209L21.2729 25.4208L21.2729 25.4208L21.2729 25.4208L21.2729 25.4208L21.2729 25.4208L21.2729 25.4208L21.2729 25.4208L21.2729 25.4208L21.2729 25.4208L21.273 25.4207L21.273 25.4207L21.273 25.4207L21.273 25.4207L21.273 25.4207L21.273 25.4207L21.273 25.4207L21.273 25.4207L21.273 25.4207L21.2731 25.4206L21.2731 25.4206L21.2731 25.4206L21.2731 25.4206L21.2731 25.4206L21.2731 25.4206L21.2731 25.4206L21.2731 25.4206L21.2731 25.4206L21.2732 25.4205L21.2732 25.4205L21.2732 25.4205L21.2732 25.4205L21.2732 25.4205L21.2732 25.4205L21.2732 25.4205L21.2732 25.4205L21.2732 25.4205L21.2733 25.4204L21.2733 25.4204L21.2733 25.4204L21.2733 25.4204L21.2733 25.4204L21.2733 25.4204L21.2733 25.4204L21.2733 25.4204L21.2733 25.4203L21.2734 25.4203L21.2734 25.4203L21.2734 25.4203L21.2734 25.4203L21.2734 25.4203L21.2734 25.4203L21.2734 25.4203L21.2734 25.4203L21.2734 25.4202L21.2735 25.4202L21.2735 25.4202L21.2735 25.4202L21.2735 25.4202L21.2735 25.4202L21.2735 25.4202L21.2735 25.4202L21.2735 25.4202L21.2736 25.4201L21.2736 25.4201L21.2736 25.4201L21.2736 25.4201L21.2736 25.4201L21.2736 25.4201L21.2736 25.4201L21.2736 25.4201L21.2736 25.4201L21.2737 25.42L21.2737 25.42L21.2737 25.42L21.2737 25.42L21.2737 25.42L21.2737 25.42L21.2737 25.42L21.2737 25.42L21.2737 25.42L21.2738 25.4199L21.2738 25.4199L21.2738 25.4199L21.2738 25.4199L21.2738 25.4199L21.2738 25.4199L21.2738 25.4199L21.2738 25.4199L21.2738 25.4199L21.2739 25.4198L21.2739 25.4198L21.2739 25.4198L21.2739 25.4198L21.2739 25.4198L21.2739 25.4198L21.2739 25.4198L21.2739 25.4198L21.2739 25.4198L21.274 25.4197L21.274 25.4197L21.274 25.4197L21.274 25.4197L21.274 25.4197L21.274 25.4197L21.274 25.4197L21.274 25.4197L21.274 25.4197L21.2741 25.4196L21.2741 25.4196L21.2741 25.4196L21.2741 25.4196L21.2741 25.4196L21.2741 25.4196L21.2741 25.4196L21.2741 25.4196L21.2741 25.4195L21.2742 25.4195L21.2742 25.4195L21.2742 25.4195L21.2742 25.4195L21.2742 25.4195L21.2742 25.4195L21.2742 25.4195L21.2742 25.4195L21.2742 25.4194L21.2743 25.4194L21.2743 25.4194L21.2743 25.4194L21.2743 25.4194L21.2743 25.4194L21.2743 25.4194L21.2743 25.4194L21.2743 25.4194L21.2743 25.4193L21.2744 25.4193L21.2744 25.4193L21.2744 25.4193L21.2744 25.4193L21.2744 25.4193L21.2744 25.4193L21.2744 25.4193L21.2744 25.4193L21.2744 25.4192L21.2745 25.4192L21.2745 25.4192L21.2745 25.4192L21.2745 25.4192L21.2745 25.4192L21.2745 25.4192L21.2745 25.4192L21.2745 25.4192L21.2745 25.4191L21.2746 25.4191L21.2746 25.4191L21.2746 25.4191L21.2746 25.4191L21.2746 25.4191L21.2746 25.4191L21.2746 25.4191L21.2746 25.4191L21.2746 25.419L21.2747 25.419L21.2747 25.419L21.2747 25.419L21.2747 25.419L21.2747 25.419L21.2747 25.419L21.2747 25.419L21.2747 25.419L21.2747 25.4189L21.2748 25.4189L21.2748 25.4189L21.2748 25.4189L21.2748 25.4189L21.2748 25.4189L21.2748 25.4189L21.2748 25.4189L21.2748 25.4189L21.2748 25.4188L21.2749 25.4188L21.2749 25.4188L21.2749 25.4188L21.2749 25.4188L21.2749 25.4188L21.2749 25.4188L21.2749 25.4188L21.2749 25.4188L21.275 25.4187L21.275 25.4187L21.275 25.4187L21.275 25.4187L21.275 25.4187L21.275 25.4187L21.275 25.4187L21.275 25.4187L21.275 25.4187L21.2751 25.4186L21.2751 25.4186L21.2751 25.4186L21.2751 25.4186L21.2751 25.4186L21.2751 25.4186L21.2751 25.4186L21.2751 25.4186L21.2751 25.4186L21.2752 25.4185L21.2752 25.4185L21.2752 25.4185L21.2752 25.4185L21.2752 25.4185L21.2752 25.4185L21.2752 25.4185L21.2752 25.4185L21.2752 25.4185L21.2753 25.4184L21.2753 25.4184L21.2753 25.4184L21.2753 25.4184L21.2753 25.4184L21.2753 25.4184L21.2753 25.4184L21.2753 25.4184L21.2753 25.4184L21.2754 25.4183L21.2754 25.4183L21.2754 25.4183L21.2754 25.4183L21.2754 25.4183L21.2754 25.4183L21.2754 25.4183L21.2754 25.4183L21.2754 25.4183L21.2755 25.4182L21.2755 25.4182L21.2755 25.4182L21.2755 25.4182L21.2755 25.4182L21.2755 25.4182L21.2755 25.4182L21.2755 25.4182L21.2755 25.4182L21.2756 25.4181L21.2756 25.4181L21.2756 25.4181L21.2756 25.4181L21.2756 25.4181L21.2756 25.4181L21.2756 25.4181L21.2756 25.4181L21.2756 25.4181L21.2757 25.418L21.2757 25.418L21.2757 25.418L21.2757 25.418L21.2757 25.418L21.2757 25.418L21.2757 25.418L21.2757 25.418L21.2757 25.418L21.2758 25.4179L21.2758 25.4179L21.2758 25.4179L21.2758 25.4179L21.2758 25.4179L21.2758 25.4179L21.2758 25.4179L21.2758 25.4179L21.2758 25.4179L21.2759 25.4178L21.2759 25.4178L21.2759 25.4178L21.2759 25.4178L21.2759 25.4178L21.2759 25.4178L21.2759 25.4178L21.2759 25.4178L21.2759 25.4178L21.276 25.4177L21.276 25.4177L21.276 25.4177L21.276 25.4177L21.276 25.4177L21.276 25.4177L21.276 25.4177L21.276 25.4177L21.276 25.4177L21.2761 25.4176L21.2761 25.4176L21.2761 25.4176L21.2761 25.4176L21.2761 25.4176L21.2761 25.4176L21.2761 25.4176L21.2761 25.4176L21.2761 25.4176L21.2762 25.4175L21.2762 25.4175L21.2762 25.4175L21.2762 25.4175L21.2762 25.4175L21.2762 25.4175L21.2762 25.4175L21.2762 25.4175L21.2762 25.4174L21.2763 25.4174L21.2763 25.4174L21.2763 25.4174L21.2763 25.4174L21.2763 25.4174L21.2763 25.4174L21.2763 25.4174L21.2763 25.4174L21.2763 25.4173L21.2764 25.4173L21.2764 25.4173L21.2764 25.4173L21.2764 25.4173L21.2764 25.4173L21.2764 25.4173L21.2764 25.4173L21.2764 25.4173L21.2764 25.4172L21.2765 25.4172L21.2765 25.4172L21.2765 25.4172L21.2765 25.4172L21.2765 25.4172L21.2765 25.4172L21.2765 25.4172L21.2765 25.4172L21.2765 25.4171L21.2766 25.4171L21.2766 25.4171L21.2766 25.4171L21.2766 25.4171L21.2766 25.4171L21.2766 25.4171L21.2766 25.4171L21.2766 25.4171L21.2766 25.417L21.2767 25.417L21.2767 25.417L21.2767 25.417L21.2767 25.417L21.2767 25.417L21.2767 25.417L21.2767 25.417L21.2767 25.417L21.2768 25.4169L21.2768 25.4169L21.2768 25.4169L21.2768 25.4169L21.2768 25.4169L21.2768 25.4169L21.2768 25.4169L21.2768 25.4169L21.2768 25.4169L21.2769 25.4168L21.2769 25.4168L21.2769 25.4168L21.2769 25.4168L21.2769 25.4168L21.2769 25.4168L21.2769 25.4168L21.2769 25.4168L21.2769 25.4168L21.277 25.4167L21.277 25.4167L21.277 25.4167L21.277 25.4167L21.277 25.4167L21.277 25.4167L21.277 25.4167L21.277 25.4167L21.277 25.4167L21.2771 25.4166L21.2771 25.4166L21.2771 25.4166L21.2771 25.4166L21.2771 25.4166L21.2771 25.4166L21.2771 25.4166L21.2771 25.4166L21.2771 25.4166L21.2772 25.4165L21.2772 25.4165L21.2772 25.4165L21.2772 25.4165L21.2772 25.4165L21.2772 25.4165L21.2772 25.4165L21.2772 25.4165L21.2772 25.4164L21.2773 25.4164L21.2773 25.4164L21.2773 25.4164L21.2773 25.4164L21.2773 25.4164L21.2773 25.4164L21.2773 25.4164L21.2773 25.4164L21.2773 25.4163L21.2774 25.4163L21.2774 25.4163L21.2774 25.4163L21.2774 25.4163L21.2774 25.4163L21.2774 25.4163L21.2774 25.4163L21.2774 25.4163L21.2775 25.4162L21.2775 25.4162L21.2775 25.4162L21.2775 25.4162L21.2775 25.4162L21.2775 25.4162L21.2775 25.4162L21.2775 25.4162L21.2775 25.4162L21.2776 25.4161L21.2776 25.4161L21.2776 25.4161L21.2776 25.4161L21.2776 25.4161L21.2776 25.4161L21.2776 25.4161L21.2776 25.4161L21.2776 25.4161L21.2777 25.416L21.2777 25.416L21.2777 25.416L21.2777 25.416L21.2777 25.416L21.2777 25.416L21.2777 25.416L21.2777 25.416L21.2777 25.416L21.2778 25.4159L21.2778 25.4159L21.2778 25.4159L21.2778 25.4159L21.2778 25.4159L21.2778 25.4159L21.2778 25.4159L21.2778 25.4159L21.2778 25.4158L21.2779 25.4158L21.2779 25.4158L21.2779 25.4158L21.2779 25.4158L21.2779 25.4158L21.2779 25.4158L21.2779 25.4158L21.2779 25.4158L21.278 25.4157L21.278 25.4157L21.278 25.4157L21.278 25.4157L21.278 25.4157L21.278 25.4157L21.278 25.4157L21.278 25.4157L21.278 25.4157L21.2781 25.4156L21.2781 25.4156L21.2781 25.4156L25.4111 21.2825L25.4122 21.2814L25.4239 21.2697L25.4251 21.2685L26.1086 20.585C26.3218 20.3723 26.439 20.0893 26.439 19.7884C26.439 19.4875 26.3216 19.2038 26.1088 18.9911L26.1088 18.991C25.6752 18.5579 24.9668 18.5524 24.5277 18.9795L24.5262 18.9809L18.9792 24.5279L18.9779 24.5292C18.7733 24.7389 18.6607 25.0171 18.6607 25.3116C18.6607 25.6126 18.7781 25.8962 18.9909 26.1089M20.5846 26.1091L18.9909 26.1089M47.7107 46.0437L47.7106 46.0437C47.0585 47.2081 45.9532 47.9803 44.6769 48.1569C43.4057 48.3329 42.1554 47.9138 41.2489 47.0077C41.2489 47.0077 41.2488 47.0077 41.2488 47.0077L41.3549 46.9016L47.7107 46.0437ZM47.7107 46.0437C48.399 44.8139 48.345 43.1938 47.5765 42.0062L47.7107 46.0437ZM48.9651 41.1091L48.9652 41.1092C50.0726 42.8208 50.1464 45.0764 49.1529 46.8512C48.2433 48.4754 46.6942 49.5465 44.9034 49.7943C44.6351 49.8315 44.3673 49.8497 44.102 49.8497C42.5979 49.8497 41.1655 49.2616 40.0802 48.1767C39.9712 48.0678 39.8663 47.9538 39.7682 47.838L39.7669 47.8365L35.7131 43.1789L35.7059 43.1706L35.6976 43.1635C35.6785 43.1471 35.6643 43.1348 35.6515 43.1221C35.6087 43.0792 35.5716 43.0321 35.5394 42.9818L35.5334 42.9725L35.5262 42.9641L21.9221 27.3338L21.819 27.2154L21.7054 27.3238C21.1858 27.8195 20.5084 28.092 19.7878 28.092C19.0448 28.092 18.3473 27.803 17.8221 27.2778L17.8221 27.2778C17.5952 27.051 17.4128 26.792 17.2785 26.5114L17.187 26.3202L17.0371 26.4701L15.8579 27.6494L15.7968 27.7105L15.819 27.794C16.1522 29.0476 15.829 30.4399 14.8486 31.4204C14.1163 32.1526 13.1547 32.5187 12.1923 32.5187C11.23 32.5187 10.2684 32.1526 9.53616 31.4204L1.25031 23.1344C-0.214168 21.6699 -0.214163 19.2866 1.2503 17.8222C1.95956 17.113 2.90197 16.7226 3.90596 16.7226C4.239 16.7226 4.56502 16.7666 4.87846 16.8499L4.96197 16.8721L5.02307 16.811L16.8126 5.02154L16.8737 4.96044L16.8515 4.87694C16.5184 3.62332 16.8416 2.23093 17.822 1.25053L17.716 1.14447L17.822 1.25053C18.5318 0.540651 19.4744 0.150031 20.4777 0.150031C21.4814 0.150031 22.4243 0.540666 23.1342 1.25053L23.2403 1.14447L23.1342 1.25053L31.4202 9.53629C32.13 10.2462 32.5207 11.189 32.5207 12.1924C32.5207 13.1959 32.13 14.1387 31.4201 14.8486L31.5261 14.9546L31.4201 14.8486C30.6881 15.5806 29.7266 15.9466 28.7645 15.9467C28.4381 15.9467 28.1117 15.9036 27.7938 15.8191L27.7103 15.7969L27.6492 15.858L26.4675 17.0396L26.317 17.1901L26.5094 17.2812C26.7878 17.4131 27.0481 17.593 27.2773 17.8218C27.8031 18.3476 28.092 19.0453 28.092 19.7884C28.092 20.5098 27.8191 21.1874 27.3229 21.7062L27.2143 21.8196L27.3327 21.9229L40.1052 33.0646L40.2038 32.9516L40.1052 33.0646L42.8647 35.4713L42.8798 35.4845L42.8978 35.4933C42.9793 35.5328 43.0552 35.5851 43.1219 35.6517C43.1618 35.6917 43.1967 35.7347 43.2269 35.7801L43.238 35.7969L43.2532 35.8101L47.8162 39.7899L47.8176 39.791C48.2549 40.1636 48.6411 40.6069 48.9651 41.1091ZM18.9913 5.39325L18.9913 5.39328L18.9915 5.39351L27.2778 13.6797C27.2778 13.6797 27.2778 13.6798 27.2778 13.6798C28.0976 14.4998 29.4314 14.4998 30.2512 13.6798C30.6485 13.2826 30.8675 12.7539 30.8675 12.1925C30.8675 11.6311 30.6485 11.1025 30.2513 10.7053L21.9654 2.41947C21.5683 2.02229 21.0394 1.80316 20.4778 1.80316C19.9167 1.80316 19.3882 2.02233 18.991 2.41946C18.171 3.23936 18.171 4.57312 18.991 5.39303L18.9913 5.39325ZM10.7051 30.2515C11.5252 31.0717 12.8595 31.0716 13.6796 30.2515L13.6796 30.2515C14.4996 29.4317 14.4996 28.0978 13.6795 27.278L5.39221 18.9907L5.39219 18.9907C4.99575 18.5943 4.46745 18.3757 3.90596 18.3757C3.34438 18.3757 2.81577 18.5944 2.41922 18.9911C1.59904 19.8114 1.59903 21.1454 2.41923 21.9656L10.7051 30.2515ZM17.7912 23.3784L17.7912 23.3784L17.7938 23.3757L17.7974 23.3719C17.8077 23.3611 17.8157 23.3526 17.8239 23.3446L17.8248 23.3436L23.3456 17.8228C23.3457 17.8227 23.3458 17.8226 23.3459 17.8225C23.3538 17.8147 23.3611 17.8078 23.3701 17.7993L23.3701 17.7994L23.3731 17.7964L26.1087 15.0607L26.2147 14.9546L26.1087 14.8486L17.822 6.56185L17.716 6.45578L17.6099 6.56185L6.56172 17.6102L6.45565 17.7163L6.56172 17.8223L14.8485 26.1091L14.9545 26.2151L15.0606 26.1091L17.7912 23.3784ZM23.0882 25.9432L22.9892 26.0422L23.0811 26.1478L33.6099 38.2439L33.7154 38.3652L33.8291 38.2515L38.2387 33.8418L38.3522 33.7283L38.2312 33.6227L26.147 23.0822L26.0414 22.9901L25.9423 23.0891L23.0882 25.9432ZM34.9022 39.5161L34.8032 39.6151L34.8951 39.7206L36.1804 41.1975L36.2859 41.3188L36.3996 41.2051L41.1891 36.4154L41.3027 36.3019L41.1817 36.1963L39.7064 34.9095L39.6008 34.8174L39.5017 34.9165L34.9022 39.5161Z" fill="white" stroke="#EDC939" stroke-width="0.3"/>
<path d="M18.4066 10.1206C18.0252 9.73923 17.407 9.73923 17.0256 10.1206L12.8822 14.2639C12.5009 14.6453 12.5009 15.2637 12.8822 15.6449C13.0729 15.8356 13.3228 15.9309 13.5727 15.9309C13.8226 15.9309 14.0725 15.8355 14.2633 15.6449L18.4066 11.5015C18.788 11.1203 18.788 10.502 18.4066 10.1206Z" fill="white"/>
</svg>
