<svg width="43" height="58" viewBox="0 0 43 58" fill="none" xmlns="http://www.w3.org/2000/svg">
<path d="M34.004 23.5907L35.0007 22.414L40.3033 27.6632C41.9145 29.2626 42.8343 31.5188 42.8365 33.8873V57.0922H41.3698V33.8871V33.8871C41.3694 31.9778 40.6277 30.1534 39.3228 28.8569L39.3226 28.8567L34.004 23.5907Z" fill="white" stroke="#EDC939" stroke-width="0.3"/>
<path d="M24.0681 35.6805L24.068 35.6804C23.4681 35.0318 23.152 34.1423 23.1937 33.2317L23.1937 33.2317C23.2357 32.3205 23.6321 31.469 24.2889 30.887L24.2928 30.8835L24.2929 30.8836C25.5597 29.8376 27.353 29.9884 28.4541 31.2273C28.4545 31.2277 28.4548 31.2281 28.4552 31.2285L37.0624 40.5248L38.1071 39.3966L32.2769 33.0979L32.2369 33.0548V32.996V4.77032C32.2339 2.20889 30.3148 0.153268 27.9702 0.15H5.00369C2.65908 0.153268 0.739966 2.20884 0.736914 4.77023L0.736914 52.4714C0.739922 55.0328 2.65911 57.0885 5.00379 57.0917H26.9369V55.5351V55.5349H27.0869C27.0827 51.2373 28.2607 47.0341 30.4719 43.4608L24.0681 35.6805ZM24.0681 35.6805L30.2514 42.3587C30.5022 42.6296 30.5435 43.0595 30.3443 43.3819L24.0681 35.6805ZM30.5102 31.1899L30.7703 31.4708V31.088V7.63223V7.48223H30.6203H2.35358H2.20358V7.63223V47.7014V47.8514H2.35358H24.2869V49.4595H2.35358H2.20358V49.6095V52.4716C2.20358 54.1237 3.44683 55.4836 5.00358 55.4836H25.3265H25.4755L25.4764 55.3346C25.5046 51.0215 26.6339 46.8006 28.739 43.1369L28.794 43.0413L28.719 42.9603L23.0392 36.8257C22.1436 35.858 21.6664 34.5245 21.7283 33.1533C21.7904 31.7825 22.3855 30.5067 23.3621 29.6391C25.2073 28.0804 27.84 28.2676 29.4809 30.0782L29.482 30.0794L30.5102 31.1899ZM30.6203 5.87417H30.7703V5.72417V4.77014C30.7703 3.11803 29.527 1.75806 27.9703 1.75806H5.00358C3.44683 1.75806 2.20358 3.11803 2.20358 4.77014V5.72417V5.87417H2.35358H30.6203Z" fill="white" stroke="#EDC939" stroke-width="0.3"/>
<path d="M5.8868 11.2986H5.7368V11.4486V15.2648V15.4148H5.8868H9.42015H9.57015V15.2648V11.4486V11.2986H9.42015H5.8868ZM9.42015 17.0229H5.8868C5.00444 17.0229 4.27012 16.247 4.27012 15.2648V11.4486C4.27012 10.4664 5.00444 9.69053 5.8868 9.69053H9.42015C10.3025 9.69053 11.0368 10.4664 11.0368 11.4486V15.2648C11.0368 16.247 10.3025 17.0229 9.42015 17.0229Z" fill="white" stroke="#EDC939" stroke-width="0.3"/>
<path d="M14.7198 11.2986H14.5698V11.4486V15.2648V15.4148H14.7198H18.2531H18.4031V15.2648V11.4486V11.2986H18.2531H14.7198ZM18.2531 17.0229H14.7198C13.8374 17.0229 13.1031 16.247 13.1031 15.2648V11.4486C13.1031 10.4664 13.8374 9.69053 14.7198 9.69053H18.2531C19.1355 9.69053 19.8698 10.4664 19.8698 11.4486V15.2648C19.8698 16.247 19.1355 17.0229 18.2531 17.0229Z" fill="white" stroke="#EDC939" stroke-width="0.3"/>
<path d="M23.5538 11.2986H23.4038V11.4486V15.2648V15.4148H23.5538H27.0871H27.2371V15.2648V11.4486V11.2986H27.0871H23.5538ZM27.0871 17.0229H23.5538C22.6714 17.0229 21.9371 16.247 21.9371 15.2648V11.4486C21.9371 10.4664 22.6714 9.69053 23.5538 9.69053H27.0871C27.9694 9.69053 28.7038 10.4664 28.7038 11.4486V15.2648C28.7038 16.247 27.9694 17.0229 27.0871 17.0229Z" fill="white" stroke="#EDC939" stroke-width="0.3"/>
<path d="M5.8868 20.8386H5.7368V20.9886V24.8048V24.9548H5.8868H9.42015H9.57015V24.8048V20.9886V20.8386H9.42015H5.8868ZM9.42015 26.5629H5.8868C5.00444 26.5629 4.27012 25.787 4.27012 24.8048V20.9886C4.27012 20.0064 5.00444 19.2306 5.8868 19.2306H9.42015C10.3025 19.2306 11.0368 20.0064 11.0368 20.9886V24.8048C11.0368 25.787 10.3025 26.5629 9.42015 26.5629Z" fill="white" stroke="#EDC939" stroke-width="0.3"/>
<path d="M5.8868 30.3793H5.7368V30.5293V34.3457V34.4957H5.8868H9.42015H9.57015V34.3457V30.5293V30.3793H9.42015H5.8868ZM9.42015 36.1039H5.8868C5.00444 36.1039 4.27012 35.328 4.27012 34.3457V30.5293C4.27012 29.547 5.00444 28.7711 5.8868 28.7711H9.42015C10.3025 28.7711 11.0368 29.547 11.0368 30.5293V34.3457C11.0368 35.328 10.3025 36.1039 9.42015 36.1039Z" fill="white" stroke="#EDC939" stroke-width="0.3"/>
<path d="M14.7198 20.8386H14.5698V20.9886V24.8048V24.9548H14.7198H18.2531H18.4031V24.8048V20.9886V20.8386H18.2531H14.7198ZM18.2531 26.5629H14.7198C13.8374 26.5629 13.1031 25.787 13.1031 24.8048V20.9886C13.1031 20.0064 13.8374 19.2306 14.7198 19.2306H18.2531C19.1355 19.2306 19.8698 20.0064 19.8698 20.9886V24.8048C19.8698 25.787 19.1355 26.5629 18.2531 26.5629Z" fill="white" stroke="#EDC939" stroke-width="0.3"/>
<path d="M23.5538 20.8386H23.4038V20.9886V24.8048V24.9548H23.5538H27.0871H27.2371V24.8048V20.9886V20.8386H27.0871H23.5538ZM27.0871 26.5629H23.5538C22.6714 26.5629 21.9371 25.787 21.9371 24.8048V20.9886C21.9371 20.0064 22.6714 19.2306 23.5538 19.2306H27.0871C27.9694 19.2306 28.7038 20.0064 28.7038 20.9886V24.8048C28.7038 25.787 27.9694 26.5629 27.0871 26.5629Z" fill="white" stroke="#EDC939" stroke-width="0.3"/>
<path d="M14.7198 30.3793H14.5698V30.5293V34.3457V34.4957H14.7198H18.2531H18.4031V34.3457V30.5293V30.3793H18.2531H14.7198ZM18.2531 36.1039H14.7198C13.8374 36.1039 13.1031 35.328 13.1031 34.3457V30.5293C13.1031 29.547 13.8374 28.7711 14.7198 28.7711H18.2531C19.1355 28.7711 19.8698 29.547 19.8698 30.5293V34.3457C19.8698 35.328 19.1355 36.1039 18.2531 36.1039Z" fill="white" stroke="#EDC939" stroke-width="0.3"/>
<path d="M5.8868 39.9192H5.7368V40.0692V43.8854V44.0354H5.8868H9.42015H9.57015V43.8854V40.0692V39.9192H9.42015H5.8868ZM9.42015 45.6435H5.8868C5.00444 45.6435 4.27012 44.8676 4.27012 43.8854V40.0692C4.27012 39.087 5.00444 38.3111 5.8868 38.3111H9.42015C10.3025 38.3111 11.0368 39.087 11.0368 40.0692V43.8854C11.0368 44.8676 10.3025 45.6435 9.42015 45.6435Z" fill="white" stroke="#EDC939" stroke-width="0.3"/>
<path d="M14.7198 39.9192H14.5698V40.0692V43.8854V44.0354H14.7198H18.2531H18.4031V43.8854V40.0692V39.9192H18.2531H14.7198ZM18.2531 45.6435H14.7198C13.8374 45.6435 13.1031 44.8676 13.1031 43.8854V40.0692C13.1031 39.087 13.8374 38.3111 14.7198 38.3111H18.2531C19.1355 38.3111 19.8698 39.087 19.8698 40.0692V43.8854C19.8698 44.8676 19.1355 45.6435 18.2531 45.6435Z" fill="white" stroke="#EDC939" stroke-width="0.3"/>
<path d="M15.7035 51.6181H17.2702V53.3248H15.7035V51.6181Z" fill="white" stroke="#EDC939" stroke-width="0.2"/>
</svg>
