<svg width="68" height="29" viewBox="0 0 68 29" fill="none" xmlns="http://www.w3.org/2000/svg">
<path d="M15.6529 7.24775L19.4812 4.99216C25.0432 1.72116 31.2744 0.00493228 37.607 2.46184e-05L15.6529 7.24775ZM15.6529 7.24775C11.1716 7.30222 6.77656 8.58952 2.88322 10.9865L15.6529 7.24775ZM16.1108 22.7216L16.1107 22.7217C15.5939 25.4532 13.112 27.2477 10.5406 26.6801C7.97592 26.1141 6.35022 23.4243 6.86627 20.6965L6.86627 20.6965C7.38359 17.965 9.86542 16.1705 12.4369 16.7381C12.4369 16.7381 12.4369 16.7381 12.4369 16.7381L12.383 16.9822C14.4628 17.4411 15.956 19.4174 15.9555 21.7103L16.1108 22.7216ZM16.1108 22.7216C16.1736 22.3888 16.2055 22.0499 16.2055 21.7104L16.1108 22.7216ZM65.3425 11.1049H65.0925H61.9922V13.0176H65.0925H65.3425V13.2676V18.2118V18.2126H65.0925C65.0953 19.1014 64.5936 19.9013 63.8284 20.2277L65.3425 11.1049ZM65.3425 11.1049V10.8549V9.48812V9.27372L65.1306 9.24104L58.2719 8.1835L58.2333 8.43051M65.3425 11.1049L58.2717 8.18347M60.5853 20.9236L60.3363 20.9461C60.3428 21.0179 60.3456 21.085 60.3486 21.1553C60.3506 21.2016 60.3526 21.2493 60.3558 21.3006C60.3587 21.3479 60.362 21.3889 60.3651 21.4269C60.3706 21.4943 60.3753 21.552 60.3753 21.6171V21.998L60.7248 21.8464L63.9265 20.4577C63.9267 20.4575 63.927 20.4574 63.9273 20.4573L61.9922 10.8549H64.8425H65.0925V10.6049V9.48812L58.2333 8.43051M60.5853 20.9236L60.3364 20.947C60.3291 20.8696 60.3175 20.796 60.3045 20.7142C60.2987 20.6777 60.2927 20.6395 60.2867 20.5986C60.2867 20.5985 60.2866 20.5984 60.2866 20.5984L60.534 20.5619M60.5853 20.9236C60.5921 20.9993 60.5956 21.0787 60.5989 21.1547C60.6008 21.1999 60.6028 21.2439 60.6053 21.2853C60.6066 21.3073 60.6082 21.3293 60.61 21.3512L60.534 20.5619M60.5853 20.9236C60.5772 20.8379 60.5637 20.7523 60.5502 20.6668C60.5446 20.6318 60.5391 20.5968 60.534 20.5619M60.534 20.5619C60.5281 20.5233 60.5229 20.4847 60.5176 20.4465C60.5064 20.3652 60.4955 20.2855 60.4803 20.211C60.4625 20.1232 60.4381 20.0278 60.4141 19.9345C60.4081 19.911 60.4021 19.8876 60.3963 19.8645M60.3963 19.8645C60.3855 19.8221 60.3756 19.7795 60.3658 19.737C60.3491 19.6648 60.3325 19.5927 60.3113 19.522C60.2877 19.4424 60.2605 19.3651 60.2331 19.2876C60.222 19.256 60.2109 19.2244 60.2 19.1927C60.1828 19.1433 60.1663 19.0931 60.1498 19.0429C60.1297 18.9818 60.1096 18.9207 60.0882 18.8609C60.0608 18.7848 60.0266 18.7135 59.9925 18.6423C59.978 18.612 59.9635 18.5818 59.9496 18.5512C59.9338 18.5166 59.9181 18.4809 59.9022 18.4447C59.8711 18.3738 59.8393 18.3013 59.8046 18.2327M60.3963 19.8645L60.154 19.9261C60.154 19.9261 60.1539 19.926 60.1539 19.9259C60.14 19.8713 60.1293 19.8246 60.1194 19.7811C60.1044 19.7162 60.0912 19.6587 60.0718 19.5936L60.0716 19.593C60.0499 19.5199 60.0259 19.4517 59.9995 19.377C59.988 19.3444 59.9761 19.3105 59.9637 19.2744C59.942 19.212 59.9256 19.162 59.91 19.1142C59.8923 19.0599 59.8756 19.0086 59.8529 18.9453C59.8298 18.8814 59.804 18.8276 59.7729 18.7628C59.7574 18.7305 59.7406 18.6954 59.7222 18.655C59.703 18.6131 59.6859 18.574 59.6694 18.5365C59.6403 18.4699 59.6133 18.4084 59.5814 18.3453L59.8046 18.2327M60.3963 19.8645L59.2574 17.7749M59.8046 18.2327C59.7764 18.1772 59.7463 18.1261 59.7167 18.0757C59.6911 18.0322 59.6658 17.9893 59.6424 17.9446C59.5924 17.8479 59.5311 17.738 59.4675 17.6394M59.8046 18.2327L59.5818 18.3461C59.5593 18.3018 59.5348 18.2597 59.5072 18.2126C59.4805 18.1673 59.4497 18.1154 59.421 18.0607L59.4203 18.0594C59.3728 17.9674 59.3154 17.8648 59.2574 17.7749M59.4675 17.6394C59.4268 17.5764 59.3881 17.522 59.3496 17.4678C59.3275 17.4366 59.3054 17.4055 59.283 17.3729C59.2708 17.3552 59.2583 17.3368 59.2456 17.3181C59.194 17.2424 59.138 17.1601 59.0808 17.0858C59.0115 16.9957 58.9465 16.9246 58.8792 16.851L58.8731 16.8443C58.8391 16.8071 58.8032 16.7634 58.7663 16.7185C58.7281 16.6722 58.689 16.6246 58.65 16.5817M59.4675 17.6394L59.2574 17.7749M59.4675 17.6394L59.2575 17.7751C59.2575 17.775 59.2574 17.7749 59.2574 17.7749M58.65 16.5817C58.5959 16.5226 58.5424 16.4721 58.4888 16.4216C58.466 16.3999 58.4431 16.3783 58.4201 16.356M58.65 16.5817L58.4651 16.75C58.4652 16.7501 58.4652 16.7502 58.4653 16.7503C58.4654 16.7503 58.4655 16.7504 58.4656 16.7505L58.65 16.5817ZM58.4201 16.356C58.3888 16.3258 58.3566 16.2933 58.3238 16.2602C58.2755 16.2115 58.2257 16.1613 58.1751 16.1145M58.4201 16.356L58.2464 16.5358C58.2462 16.5357 58.246 16.5355 58.2459 16.5353L58.4201 16.356ZM58.1751 16.1145C58.1192 16.0629 58.0625 16.019 58.006 15.9753C57.9772 15.953 57.9484 15.9307 57.9198 15.9074C57.8961 15.8883 57.8724 15.8687 57.8486 15.8491C57.7871 15.7984 57.725 15.7472 57.6608 15.7008C57.6158 15.6688 57.5682 15.6386 57.5197 15.608C57.4716 15.5775 57.4227 15.5466 57.3749 15.5128M58.1751 16.1145L58.0055 16.2981C58.0055 16.2982 58.0055 16.2982 58.0056 16.2982L58.1751 16.1145ZM57.3749 15.5128C57.2786 15.4451 57.2004 15.3921 57.11 15.3406C57.0457 15.3036 56.9702 15.2654 56.895 15.2273C56.8644 15.2119 56.8339 15.1964 56.8042 15.1811C56.7692 15.163 56.7369 15.1457 56.7056 15.1289C56.6451 15.0965 56.5888 15.0663 56.5261 15.0378C56.4572 15.0061 56.3707 14.9734 56.2859 14.9413C56.2537 14.9292 56.2218 14.9171 56.1912 14.9053C56.1498 14.8891 56.1137 14.8742 56.0799 14.8603C56.0225 14.8367 55.9715 14.8157 55.9118 14.7953C55.8182 14.7643 55.7229 14.7396 55.6273 14.7149C55.593 14.706 55.5585 14.6971 55.5241 14.6879M57.3749 15.5128L57.2312 15.7174C57.1363 15.6507 57.066 15.6033 56.9862 15.5578L56.9854 15.5573C56.9272 15.5238 56.8612 15.4904 56.789 15.4539C56.757 15.4377 56.7238 15.4209 56.6895 15.4032C56.6461 15.3808 56.6104 15.3616 56.5782 15.3443C56.5231 15.3147 56.4783 15.2907 56.4226 15.2654L56.4216 15.2649C56.3612 15.2371 56.2876 15.2093 56.2065 15.1786C56.1724 15.1658 56.1371 15.1524 56.1008 15.1383L56.1002 15.1381C56.0482 15.1178 56.0091 15.1016 55.975 15.0876C55.9245 15.0667 55.8853 15.0505 55.832 15.0323C55.7474 15.0042 55.6641 14.9827 55.5719 14.9588C55.5364 14.9496 55.4996 14.9401 55.4609 14.9297M57.3749 15.5128L57.2307 15.717C57.2847 15.7552 57.3391 15.7896 57.3866 15.8196C57.4356 15.8506 57.477 15.8769 57.515 15.9039C57.5721 15.9452 57.6247 15.9885 57.6833 16.0369C57.7082 16.0574 57.7342 16.0789 57.7621 16.1014L58.2717 8.18347M55.5241 14.6879C55.4876 14.6786 55.4517 14.6679 55.4158 14.6572C55.3683 14.6432 55.3209 14.6291 55.272 14.6182C55.1734 14.5963 55.0729 14.5815 54.9725 14.5668C54.9331 14.561 54.8937 14.5552 54.8544 14.549C54.8199 14.5441 54.7862 14.5378 54.7525 14.5316C54.7052 14.5228 54.6582 14.5141 54.6099 14.5092C54.3863 14.4852 54.1632 14.4719 53.9287 14.4719C50.2294 14.4758 47.2317 17.7135 47.2281 21.7088H38.5409H38.2909V21.4588V9.89861V9.64861H38.5409H50.5748C50.871 9.64861 51.1551 9.5215 51.3641 9.29525L54.26 6.16756C55.4755 6.79231 56.6574 7.49068 57.8003 8.25923C57.932 8.34806 58.0793 8.40646 58.2333 8.43051M55.5241 14.6879L55.4594 14.9293C55.4599 14.9295 55.4604 14.9296 55.4609 14.9297M55.5241 14.6879L55.4626 14.9302C55.462 14.93 55.4614 14.9299 55.4609 14.9297M58.2333 8.43051L58.2714 8.18343L58.2717 8.18347M58.2717 8.18347C58.1549 8.16522 58.0421 8.12079 57.94 8.05193L57.9398 8.05178C56.7889 7.27782 55.5986 6.57447 54.3743 5.94521L54.2055 5.85846L54.0766 5.99771L51.1806 9.1254L51.1805 9.1256C51.0166 9.3029 50.7983 9.39861 50.5748 9.39861H38.2909H38.0409V9.64861V21.7088V21.9588H38.2909H47.2281H47.4779L47.4781 21.7091C47.4816 17.8332 50.3853 14.7257 53.929 14.7219C54.1537 14.7219 54.3678 14.7346 54.5831 14.7578L54.5848 14.758C54.6154 14.761 54.6474 14.7664 54.687 14.7737C54.7234 14.7804 54.77 14.7894 54.8171 14.7962C54.8621 14.8033 54.9044 14.8095 54.9451 14.8155C55.0416 14.8297 55.1284 14.8424 55.2176 14.8622C55.2515 14.8697 55.2862 14.8796 55.3275 14.8918C55.3661 14.9032 55.413 14.9175 55.4609 14.9297M58.6436 6.28705L58.6894 6.31743L58.7437 6.32581L66.3292 7.49577C66.7436 7.56013 67.0759 7.952 67.0759 8.44278V18.2126V18.2134C67.0816 19.9981 66.075 21.591 64.5594 22.2392L64.5583 22.2397L60.9418 23.807C60.8406 23.8505 60.7334 23.8725 60.6253 23.8725H60.2245H60.0428L59.9867 24.0453C59.3373 26.0464 57.8831 27.6119 56.0441 28.3081C52.7123 29.5694 49.0424 27.682 47.8621 24.0453L47.806 23.8725H47.6243H17.7881H17.6064L17.5503 24.0453C16.9009 26.0464 15.4472 27.6119 13.6077 28.3081L13.6077 28.3081C10.2759 29.5694 6.60607 27.682 5.42575 24.0453L5.36966 23.8725H5.18796H1.43821C0.976982 23.8725 0.571289 23.463 0.571289 22.9161V15.7545C0.57396 13.8655 1.51107 12.1306 3.0146 11.1992C6.87017 8.82554 11.2209 7.55164 15.6559 7.49773L15.7225 7.49692L15.7798 7.46314L19.608 5.20766C25.1323 1.95877 31.32 0.254897 37.6072 0.250025L38.9248 0.250025L38.9251 0.250024C44.2524 0.24369 49.5195 1.46855 54.3732 3.84306L54.3736 3.84324C55.8436 4.55931 57.2695 5.37536 58.6436 6.28705ZM36.057 21.9603H36.307V21.7103V9.6491V9.3991H36.057H15.9555H15.9554C11.7122 9.40059 7.54364 10.5968 3.86075 12.8678L3.86055 12.8679C2.89387 13.4653 2.30615 14.569 2.30469 15.754V15.7543V21.7103V21.9603H2.55469H4.78808H5.03808V21.7103C5.03808 17.8331 7.94391 14.7234 11.4887 14.7234C15.0335 14.7234 17.9389 17.833 17.9389 21.7103V21.9603H18.1889H36.057ZM36.057 7.48695H36.307V7.23695V2.46517V2.20322L36.0453 2.21545C30.5757 2.4711 25.2331 4.07181 20.4244 6.89424L20.4239 6.89454L20.2085 7.02165L19.42 7.48695H20.3355H36.057ZM38.2904 2.16217H38.0404L38.9225 2.41217V2.16217H38.9224C38.9223 2.16217 38.9222 2.16217 38.9222 2.16217L38.2904 2.16217ZM58.5471 22.7217L58.5471 22.7216C58.61 22.3888 58.6419 22.0499 58.6419 21.7104C58.6424 19.3131 57.0798 17.2249 54.8732 16.7381C52.3018 16.1705 49.8195 17.965 49.3026 20.6965L49.5483 20.743L49.3026 20.6965C48.7866 23.4243 50.4123 26.1141 52.9765 26.6801L53.0304 26.436L52.9765 26.6801C55.5484 27.2476 58.0303 25.4532 58.5471 22.7217Z" fill="black" stroke="#372120" stroke-width="0.5"/>
</svg>
