<svg width="80" height="80" viewBox="0 0 80 80" fill="none" xmlns="http://www.w3.org/2000/svg">
<rect width="80" height="80" fill="#372120"/>
<g clip-path="url(#clip0)">
<path d="M29.5016 31.026C29.1208 30.6452 28.5016 30.6452 28.1209 31.026C27.739 31.4079 27.739 32.026 28.1209 32.4069C28.5017 32.7887 29.1209 32.7887 29.5016 32.4069C29.8834 32.026 29.8834 31.4079 29.5016 31.026Z" fill="white"/>
<path fill-rule="evenodd" clip-rule="evenodd" d="M67.0911 55.0277C66.7595 54.5138 66.3638 54.0593 65.9148 53.6768L61.3518 49.697C61.3163 49.6435 61.2751 49.5927 61.2279 49.5456C61.1486 49.4664 61.0588 49.4046 60.9633 49.3583L58.2038 46.9515L45.4313 35.8098C45.9542 35.2632 46.242 34.5485 46.242 33.7884C46.242 33.0054 45.9373 32.2696 45.3833 31.7157C45.1416 31.4743 44.867 31.2846 44.5736 31.1456L45.7552 29.964C46.0855 30.0518 46.4249 30.0967 46.7645 30.0967C47.7646 30.0966 48.7648 29.7159 49.5261 28.9546C50.2642 28.2166 50.6707 27.2357 50.6707 26.1924C50.6707 25.1491 50.2642 24.1682 49.5262 23.4302L41.2403 15.1444C40.5023 14.4064 39.5212 14 38.4777 14C37.4346 14 36.4538 14.4064 35.716 15.1444C34.696 16.1644 34.3603 17.6125 34.7066 18.9154L22.917 30.7049C22.5912 30.6183 22.2523 30.5726 21.906 30.5726C20.8622 30.5726 19.8816 30.9787 19.1442 31.716C17.6212 33.2391 17.6212 35.7173 19.1442 37.2405L27.4301 45.5264C28.1917 46.288 29.192 46.6687 30.1923 46.6687C31.1927 46.6687 32.193 46.288 32.9546 45.5264C33.9745 44.5064 34.3103 43.0584 33.964 41.7554L35.1432 40.5761C35.2849 40.872 35.4772 41.1451 35.716 41.3838C36.2694 41.9372 37.005 42.2419 37.7878 42.2419C38.5471 42.2419 39.2616 41.9545 39.8089 41.4323L53.4131 57.0626C53.4506 57.1212 53.4943 57.1769 53.5455 57.2281C53.563 57.2456 53.5815 57.2615 53.6 57.2773L57.6538 61.935C57.7546 62.0539 57.8623 62.1709 57.9741 62.2827C59.0875 63.3957 60.5581 63.9997 62.102 63.9997C62.3742 63.9997 62.6489 63.981 62.924 63.9429C64.7628 63.6884 66.3519 62.5884 67.2838 60.9245C68.3046 59.101 68.2286 56.7858 67.0911 55.0277ZM37.0971 16.5255C37.4661 16.1564 37.9566 15.9531 38.4778 15.9531C38.9996 15.9531 39.4904 16.1564 39.8593 16.5255L48.1453 24.8113C48.5143 25.1804 48.7175 25.6709 48.7175 26.1925C48.7175 26.7141 48.5143 27.2046 48.1452 27.5737C47.3839 28.3351 46.1451 28.3351 45.3838 27.5737L37.0976 19.2874L37.0971 19.2869C36.3357 18.5256 36.3357 17.2868 37.0971 16.5255ZM31.5736 44.1454C30.812 44.9069 29.5727 44.907 28.8112 44.1454L20.5253 35.8595C19.7637 35.0979 19.7637 33.8588 20.5253 33.0971C20.8937 32.7286 21.3841 32.5257 21.906 32.5257C22.4277 32.5257 22.9179 32.7286 23.2861 33.0967L31.5735 41.384C32.335 42.1453 32.335 43.3841 31.5736 44.1454ZM35.6851 37.2723L32.9545 40.003L24.6678 31.7162L35.716 20.6679L44.0026 28.9546L41.267 31.6903L41.2666 31.6907C41.2579 31.6989 41.2493 31.707 41.2401 31.7161L35.7188 37.2375C35.7086 37.2476 35.6987 37.258 35.6887 37.2685L35.6851 37.2723ZM39.172 39.3095L39.1662 39.3153L38.4786 40.003C38.2941 40.1874 38.0489 40.2889 37.7877 40.2889C37.5267 40.2889 37.2814 40.1874 37.097 40.0029C36.9123 39.8183 36.8107 39.5728 36.8107 39.3116C36.8107 39.0559 36.9082 38.8154 37.0853 38.6339L42.6323 33.087C43.0124 32.7172 43.6271 32.7218 44.0028 33.0971C44.1874 33.2817 44.289 33.5272 44.289 33.7884C44.289 34.0495 44.1876 34.2943 44.0027 34.4788L43.319 35.1624L43.305 35.1764L39.172 39.3095ZM41.1943 40.0493L44.0484 37.1952L56.1326 47.7357L51.723 52.1454L41.1943 40.0493ZM53.0083 53.6221L57.6078 49.0225L59.0831 50.3093L54.2935 55.099L53.0083 53.6221ZM65.5798 59.9704C64.9495 61.0957 63.884 61.8384 62.6563 62.0083C61.4315 62.1778 60.2281 61.7744 59.3549 60.9016C59.2798 60.8266 59.2079 60.7483 59.1409 60.669L59.1314 60.658L55.5787 56.5758L60.5583 51.5961L64.6354 55.1524L64.6448 55.1605C64.95 55.42 65.2208 55.7316 65.4506 56.0877C66.1891 57.2288 66.2408 58.7893 65.5798 59.9704ZM42.7265 57.7226C43.1571 57.1394 43.3898 56.4368 43.3898 55.698C43.3898 53.8135 41.8566 52.2802 39.9719 52.2802H23.3709C22.4575 52.2802 21.5992 52.6356 20.954 53.281C20.3085 53.9263 19.953 54.7846 19.953 55.698C19.953 56.4548 20.2007 57.1546 20.6186 57.7215C19.0636 58.5391 18 60.1699 18 62.0454V63.022C18 63.5613 18.4373 63.9985 18.9766 63.9985H44.3663C44.9055 63.9985 45.3428 63.5613 45.3428 63.022V62.0454C45.3428 60.1708 44.2803 58.5406 42.7265 57.7226ZM22.335 54.6619C22.6114 54.3853 22.9794 54.2331 23.3709 54.2331H39.9719C40.7796 54.2331 41.4367 54.8902 41.4367 55.6978C41.4367 56.0894 41.2843 56.4573 41.0078 56.7339C40.7313 57.0104 40.3633 57.1627 39.9718 57.1627H23.3709C22.5632 57.1627 21.9062 56.5056 21.9062 55.6979C21.9062 55.3064 22.0584 54.9385 22.335 54.6619ZM19.953 62.0454C19.953 60.4301 21.2673 59.1158 22.8826 59.1158H23.3709H39.9719H40.4602C42.0755 59.1158 43.3898 60.4301 43.3898 62.0454H19.953ZM35.0256 24.1205C35.4071 23.7392 36.0252 23.7392 36.4067 24.1205C36.788 24.502 36.788 25.1203 36.4067 25.5015L32.2633 29.6449C32.0726 29.8355 31.8227 29.9309 31.5728 29.9309C31.3229 29.9309 31.073 29.8356 30.8823 29.6449C30.5009 29.2636 30.5009 28.6453 30.8823 28.2639L35.0256 24.1205Z" fill="white"/>
<path d="M65.9148 53.6768L65.7505 53.8653L65.7527 53.8671L65.9148 53.6768ZM67.0911 55.0277L66.881 55.1633L66.8812 55.1635L67.0911 55.0277ZM61.3518 49.697L61.1436 49.8354L61.1622 49.8634L61.1875 49.8854L61.3518 49.697ZM61.2279 49.5456L61.4047 49.3688L61.4046 49.3687L61.2279 49.5456ZM60.9633 49.3583L60.7989 49.5467L60.8241 49.5687L60.8542 49.5832L60.9633 49.3583ZM58.2038 46.9515L58.0394 47.1399L58.0395 47.1399L58.2038 46.9515ZM45.4313 35.8098L45.2506 35.637L45.0697 35.8261L45.267 35.9982L45.4313 35.8098ZM45.3833 31.7157L45.56 31.5389L45.5599 31.5388L45.3833 31.7157ZM44.5736 31.1456L44.3968 30.9689L44.1459 31.2197L44.4666 31.3716L44.5736 31.1456ZM45.7552 29.964L45.8194 29.7224L45.6803 29.6854L45.5784 29.7872L45.7552 29.964ZM46.7645 30.0967L46.7645 30.3467L46.7645 30.3467L46.7645 30.0967ZM49.5261 28.9546L49.3494 28.7778L49.3494 28.7778L49.5261 28.9546ZM49.5262 23.4302L49.703 23.2534L49.703 23.2534L49.5262 23.4302ZM41.2403 15.1444L41.0635 15.3212L41.0635 15.3212L41.2403 15.1444ZM35.716 15.1444L35.8927 15.3212L35.8927 15.3212L35.716 15.1444ZM34.7066 18.9154L34.8833 19.0922L34.9852 18.9904L34.9482 18.8512L34.7066 18.9154ZM22.917 30.7049L22.8528 30.9465L22.9919 30.9835L23.0938 30.8817L22.917 30.7049ZM19.1442 31.716L18.9675 31.5393L18.9675 31.5393L19.1442 31.716ZM19.1442 37.2405L18.9675 37.4172L18.9675 37.4173L19.1442 37.2405ZM27.4301 45.5264L27.2533 45.7032L27.2533 45.7032L27.4301 45.5264ZM32.9546 45.5264L33.1314 45.7032L33.1314 45.7032L32.9546 45.5264ZM33.964 41.7554L33.7872 41.5787L33.6854 41.6805L33.7224 41.8196L33.964 41.7554ZM35.1432 40.5761L35.3687 40.4682L35.2161 40.1496L34.9664 40.3994L35.1432 40.5761ZM35.716 41.3838L35.8928 41.2071L35.8928 41.207L35.716 41.3838ZM39.8089 41.4323L39.9975 41.2682L39.8257 41.0707L39.6363 41.2514L39.8089 41.4323ZM53.4131 57.0626L53.6236 56.9278L53.6137 56.9123L53.6016 56.8985L53.4131 57.0626ZM53.6 57.2773L53.7885 57.1132L53.7765 57.0994L53.7627 57.0875L53.6 57.2773ZM57.6538 61.935L57.8445 61.7733L57.8424 61.7708L57.6538 61.935ZM57.9741 62.2827L57.7973 62.4595L57.7973 62.4595L57.9741 62.2827ZM62.924 63.9429L62.8897 63.6952L62.8897 63.6952L62.924 63.9429ZM67.2838 60.9245L67.5019 61.0467L67.5019 61.0466L67.2838 60.9245ZM37.0971 16.5255L37.2739 16.7023L37.2739 16.7023L37.0971 16.5255ZM39.8593 16.5255L39.6825 16.7022L39.6825 16.7023L39.8593 16.5255ZM48.1453 24.8113L48.322 24.6346L48.322 24.6346L48.1453 24.8113ZM48.1452 27.5737L47.9684 27.3969L47.9684 27.3969L48.1452 27.5737ZM45.3838 27.5737L45.5606 27.3969L45.5606 27.3969L45.3838 27.5737ZM37.0976 19.2874L36.9207 19.4641L36.9208 19.4642L37.0976 19.2874ZM37.0971 19.2869L37.274 19.1102L37.2739 19.1101L37.0971 19.2869ZM28.8112 44.1454L28.9879 43.9686L28.9879 43.9686L28.8112 44.1454ZM31.5736 44.1454L31.3968 43.9686L31.3968 43.9686L31.5736 44.1454ZM20.5253 35.8595L20.7021 35.6827L20.7021 35.6827L20.5253 35.8595ZM20.5253 33.0971L20.7021 33.2739L20.7021 33.2739L20.5253 33.0971ZM23.2861 33.0967L23.4629 32.9199L23.4629 32.9199L23.2861 33.0967ZM31.5735 41.384L31.3967 41.5608L31.3967 41.5608L31.5735 41.384ZM32.9545 40.003L32.7777 40.1798L32.9545 40.3565L33.1313 40.1798L32.9545 40.003ZM35.6851 37.2723L35.8619 37.4491L35.8664 37.4445L35.6851 37.2723ZM24.6678 31.7162L24.491 31.5395L24.3142 31.7162L24.491 31.893L24.6678 31.7162ZM35.716 20.6679L35.8927 20.4911L35.7159 20.3143L35.5392 20.4911L35.716 20.6679ZM44.0026 28.9546L44.1794 29.1314L44.3561 28.9546L44.1794 28.7778L44.0026 28.9546ZM41.267 31.6903L41.4391 31.8718L41.4438 31.867L41.267 31.6903ZM41.2666 31.6907L41.4383 31.8724L41.4386 31.8721L41.2666 31.6907ZM41.2401 31.7161L41.0642 31.5384L41.0633 31.5394L41.2401 31.7161ZM35.7188 37.2375L35.894 37.4158L35.8956 37.4143L35.7188 37.2375ZM35.6887 37.2685L35.87 37.4406L35.87 37.4406L35.6887 37.2685ZM39.1662 39.3153L39.343 39.4921L39.343 39.4921L39.1662 39.3153ZM39.172 39.3095L39.3488 39.4863L39.3488 39.4863L39.172 39.3095ZM38.4786 40.003L38.6553 40.1798L38.6553 40.1798L38.4786 40.003ZM37.097 40.0029L37.2738 39.8262L37.2737 39.8261L37.097 40.0029ZM37.0853 38.6339L36.9085 38.4571L36.9064 38.4593L37.0853 38.6339ZM42.6323 33.087L42.458 32.9077L42.4555 32.9102L42.6323 33.087ZM44.0028 33.0971L44.1796 32.9203L44.1795 32.9202L44.0028 33.0971ZM44.0027 34.4788L43.8261 34.3017L43.8259 34.302L44.0027 34.4788ZM43.305 35.1764L43.1282 34.9996L43.1282 34.9996L43.305 35.1764ZM44.0484 37.1952L44.2127 37.0068L44.0367 36.8533L43.8716 37.0184L44.0484 37.1952ZM41.1943 40.0493L41.0175 39.8725L40.8525 40.0374L41.0057 40.2134L41.1943 40.0493ZM56.1326 47.7357L56.3094 47.9125L56.4986 47.7232L56.2969 47.5473L56.1326 47.7357ZM51.723 52.1454L51.5344 52.3095L51.7103 52.5116L51.8998 52.3222L51.723 52.1454ZM57.6078 49.0225L57.7721 48.8341L57.5961 48.6806L57.431 48.8458L57.6078 49.0225ZM53.0083 53.6221L52.8315 53.4454L52.6665 53.6103L52.8197 53.7863L53.0083 53.6221ZM59.0831 50.3093L59.2599 50.4861L59.4491 50.2969L59.2474 50.1209L59.0831 50.3093ZM54.2935 55.099L54.1049 55.2631L54.2808 55.4652L54.4703 55.2758L54.2935 55.099ZM62.6563 62.0083L62.6221 61.7607L62.6221 61.7607L62.6563 62.0083ZM65.5798 59.9704L65.7979 60.0926L65.7979 60.0925L65.5798 59.9704ZM59.3549 60.9016L59.5316 60.7247L59.5315 60.7247L59.3549 60.9016ZM59.1409 60.669L59.3319 60.5077L59.3306 60.5062L59.1409 60.669ZM59.1314 60.658L59.3211 60.4951L59.32 60.4939L59.1314 60.658ZM55.5787 56.5758L55.4019 56.399L55.237 56.5639L55.3901 56.7399L55.5787 56.5758ZM60.5583 51.5961L60.7226 51.4077L60.5466 51.2542L60.3815 51.4193L60.5583 51.5961ZM64.6354 55.1524L64.4711 55.3408L64.4719 55.3415L64.6354 55.1524ZM64.6448 55.1605L64.4813 55.3497L64.4829 55.351L64.6448 55.1605ZM65.4506 56.0877L65.2405 56.2232L65.2407 56.2235L65.4506 56.0877ZM42.7265 57.7226L42.5254 57.5742L42.3525 57.8083L42.6101 57.9439L42.7265 57.7226ZM20.954 53.281L21.1308 53.4578L21.1308 53.4578L20.954 53.281ZM20.6186 57.7215L20.7349 57.9427L20.9924 57.8073L20.8198 57.5731L20.6186 57.7215ZM22.335 54.6619L22.5117 54.8387L22.5118 54.8386L22.335 54.6619ZM41.0078 56.7339L40.831 56.5571L40.831 56.5571L41.0078 56.7339ZM19.953 62.0454H19.703V62.2954H19.953V62.0454ZM43.3898 62.0454V62.2954H43.6398V62.0454H43.3898ZM36.4067 24.1205L36.5835 23.9438L36.5834 23.9437L36.4067 24.1205ZM35.0256 24.1205L34.8489 23.9437L34.8489 23.9438L35.0256 24.1205ZM36.4067 25.5015L36.2299 25.3247L36.2299 25.3247L36.4067 25.5015ZM32.2633 29.6449L32.4401 29.8217L32.4401 29.8216L32.2633 29.6449ZM30.8823 29.6449L31.059 29.4681L31.059 29.4681L30.8823 29.6449ZM30.8823 28.2639L30.7055 28.0871L30.7055 28.0871L30.8823 28.2639ZM65.7527 53.8671C66.1824 54.2332 66.5621 54.669 66.881 55.1633L67.3012 54.8922C66.9568 54.3585 66.5451 53.8854 66.077 53.4865L65.7527 53.8671ZM61.1875 49.8854L65.7505 53.8652L66.0792 53.4884L61.5162 49.5086L61.1875 49.8854ZM61.0511 49.7223C61.0863 49.7575 61.117 49.7954 61.1436 49.8354L61.5601 49.5587C61.5156 49.4917 61.4639 49.428 61.4047 49.3688L61.0511 49.7223ZM60.8542 49.5832C60.9264 49.6182 60.9929 49.6642 61.0512 49.7225L61.4046 49.3687C61.3043 49.2685 61.1912 49.1909 61.0723 49.1333L60.8542 49.5832ZM58.0395 47.1399L60.7989 49.5467L61.1276 49.1699L58.3681 46.7631L58.0395 47.1399ZM45.267 35.9982L58.0394 47.1399L58.3681 46.7631L45.5956 35.6214L45.267 35.9982ZM45.992 33.7884C45.992 34.484 45.729 35.1369 45.2506 35.637L45.612 35.9826C46.1793 35.3896 46.492 34.6129 46.492 33.7884H45.992ZM45.2065 31.8925C45.7136 32.3995 45.992 33.0717 45.992 33.7884H46.492C46.492 32.9391 46.1609 32.1397 45.56 31.5389L45.2065 31.8925ZM44.4666 31.3716C44.7349 31.4986 44.9858 31.672 45.2066 31.8925L45.5599 31.5388C45.2975 31.2767 44.9992 31.0706 44.6806 30.9197L44.4666 31.3716ZM45.5784 29.7872L44.3968 30.9689L44.7504 31.3224L45.932 30.1408L45.5784 29.7872ZM46.7645 29.8467C46.4469 29.8467 46.1291 29.8047 45.8194 29.7224L45.691 30.2056C46.0419 30.2989 46.4028 30.3467 46.7645 30.3467V29.8467ZM49.3494 28.7778C48.637 29.4902 47.7012 29.8466 46.7645 29.8467L46.7645 30.3467C47.828 30.3466 48.8926 29.9417 49.7029 29.1314L49.3494 28.7778ZM50.4207 26.1924C50.4207 27.1693 50.0406 28.0867 49.3494 28.7778L49.7029 29.1314C50.4879 28.3466 50.9207 27.302 50.9207 26.1924H50.4207ZM49.3495 23.607C50.0406 24.2981 50.4207 25.2155 50.4207 26.1924H50.9207C50.9207 25.0828 50.4879 24.0383 49.703 23.2534L49.3495 23.607ZM41.0635 15.3212L49.3495 23.607L49.703 23.2534L41.4171 14.9677L41.0635 15.3212ZM38.4777 14.25C39.4549 14.25 40.3724 14.6301 41.0635 15.3212L41.4171 14.9677C40.6322 14.1828 39.5875 13.75 38.4777 13.75V14.25ZM35.8927 15.3212C36.5838 14.6301 37.501 14.25 38.4777 14.25V13.75C37.3682 13.75 36.3239 14.1828 35.5392 14.9677L35.8927 15.3212ZM34.9482 18.8512C34.6237 17.6305 34.9387 16.2753 35.8927 15.3212L35.5392 14.9677C34.4534 16.0535 34.0968 17.5945 34.465 18.9797L34.9482 18.8512ZM23.0938 30.8817L34.8833 19.0922L34.5298 18.7387L22.7402 30.5281L23.0938 30.8817ZM21.906 30.8226C22.2302 30.8226 22.5476 30.8654 22.8528 30.9465L22.9812 30.4633C22.6349 30.3712 22.2743 30.3226 21.906 30.3226V30.8226ZM19.321 31.8928C20.0115 31.2024 20.9285 30.8226 21.906 30.8226V30.3226C20.7959 30.3226 19.7518 30.7551 18.9675 31.5393L19.321 31.8928ZM19.321 37.0637C17.8956 35.6382 17.8956 33.3182 19.321 31.8928L18.9675 31.5393C17.3468 33.16 17.3468 35.7965 18.9675 37.4172L19.321 37.0637ZM27.6069 45.3497L19.321 37.0637L18.9675 37.4173L27.2533 45.7032L27.6069 45.3497ZM30.1923 46.4187C29.2554 46.4187 28.3196 46.0623 27.6069 45.3496L27.2533 45.7032C28.0639 46.5136 29.1286 46.9187 30.1923 46.9187V46.4187ZM32.7779 45.3496C32.0651 46.0623 31.1293 46.4187 30.1923 46.4187V46.9187C31.2561 46.9187 32.3208 46.5136 33.1314 45.7032L32.7779 45.3496ZM33.7224 41.8196C34.0468 43.0404 33.7319 44.3955 32.7778 45.3497L33.1314 45.7032C34.2172 44.6173 34.5737 43.0763 34.2056 41.6912L33.7224 41.8196ZM34.9664 40.3994L33.7872 41.5787L34.1408 41.9322L35.32 40.7529L34.9664 40.3994ZM35.8928 41.207C35.674 40.9883 35.4982 40.7385 35.3687 40.4682L34.9177 40.6841C35.0716 41.0055 35.2804 41.3019 35.5393 41.5607L35.8928 41.207ZM37.7878 41.9919C37.0713 41.9919 36.3993 41.7135 35.8928 41.2071L35.5393 41.5606C36.1395 42.1608 36.9387 42.4919 37.7878 42.4919V41.9919ZM39.6363 41.2514C39.1354 41.7294 38.4827 41.9919 37.7878 41.9919V42.4919C38.6115 42.4919 39.3878 42.1797 39.9815 41.6132L39.6363 41.2514ZM53.6016 56.8985L39.9975 41.2682L39.6203 41.5964L53.2245 57.2267L53.6016 56.8985ZM53.7222 57.0513C53.685 57.0141 53.6523 56.9727 53.6236 56.9278L53.2025 57.1973C53.2488 57.2697 53.3036 57.3398 53.3687 57.4049L53.7222 57.0513ZM53.7627 57.0875C53.7431 57.0708 53.7319 57.0609 53.7222 57.0513L53.3687 57.4049C53.394 57.4302 53.4199 57.4522 53.4373 57.4671L53.7627 57.0875ZM57.8424 61.7708L53.7885 57.1132L53.4114 57.4415L57.4652 62.0991L57.8424 61.7708ZM58.1509 62.1059C58.0439 61.9989 57.9408 61.887 57.8445 61.7733L57.463 62.0966C57.5683 62.2208 57.6807 62.3428 57.7973 62.4595L58.1509 62.1059ZM62.102 63.7497C60.6245 63.7497 59.2174 63.1721 58.1508 62.1059L57.7973 62.4595C58.9575 63.6193 60.4917 64.2497 62.102 64.2497V63.7497ZM62.8897 63.6952C62.626 63.7317 62.3627 63.7497 62.102 63.7497V64.2497C62.3857 64.2497 62.6718 64.2302 62.9583 64.1905L62.8897 63.6952ZM67.0657 60.8023C66.1709 62.4001 64.6485 63.4518 62.8897 63.6952L62.9583 64.1905C64.877 63.925 66.533 62.7767 67.5019 61.0467L67.0657 60.8023ZM66.8812 55.1635C67.9685 56.8441 68.041 59.06 67.0656 60.8024L67.5019 61.0466C68.5681 59.142 68.4887 56.7276 67.301 54.8919L66.8812 55.1635ZM38.4778 15.7031C37.8902 15.7031 37.3362 15.9329 36.9203 16.3487L37.2739 16.7023C37.5961 16.38 38.023 16.2031 38.4778 16.2031V15.7031ZM40.0361 16.3487C39.6203 15.9328 39.066 15.7031 38.4778 15.7031V16.2031C38.9333 16.2031 39.3605 16.3801 39.6825 16.7022L40.0361 16.3487ZM48.322 24.6346L40.0361 16.3487L39.6825 16.7023L47.9685 24.9881L48.322 24.6346ZM48.9675 26.1925C48.9675 25.6046 48.7379 25.0505 48.322 24.6346L47.9685 24.9881C48.2907 25.3103 48.4675 25.7373 48.4675 26.1925H48.9675ZM48.3219 27.7505C48.7379 27.3345 48.9675 26.7804 48.9675 26.1925H48.4675C48.4675 26.6477 48.2907 27.0747 47.9684 27.3969L48.3219 27.7505ZM45.207 27.7504C46.0659 28.6095 47.4631 28.6095 48.322 27.7504L47.9684 27.3969C47.3048 28.0607 46.2242 28.0607 45.5606 27.3969L45.207 27.7504ZM36.9208 19.4642L45.2071 27.7504L45.5606 27.3969L37.2744 19.1106L36.9208 19.4642ZM36.9202 19.4636L36.9207 19.4641L37.2745 19.1107L37.274 19.1102L36.9202 19.4636ZM36.9203 16.3487C36.0613 17.2077 36.0613 18.6047 36.9203 19.4637L37.2739 19.1101C36.6101 18.4464 36.6101 17.366 37.2739 16.7023L36.9203 16.3487ZM28.6344 44.3221C29.4935 45.1814 30.8912 45.1813 31.7503 44.3221L31.3968 43.9686C30.7329 44.6325 29.6518 44.6326 28.9879 43.9686L28.6344 44.3221ZM20.3485 36.0363L28.6344 44.3221L28.9879 43.9686L20.7021 35.6827L20.3485 36.0363ZM20.3485 32.9203C19.4893 33.7797 19.4893 35.177 20.3485 36.0363L20.7021 35.6827C20.0381 35.0188 20.0381 33.938 20.7021 33.2739L20.3485 32.9203ZM21.906 32.2757C21.3179 32.2757 20.7638 32.5049 20.3485 32.9204L20.7021 33.2739C21.0235 32.9524 21.4503 32.7757 21.906 32.7757V32.2757ZM23.4629 32.9199C23.0477 32.5048 22.4939 32.2757 21.906 32.2757V32.7757C22.3616 32.7757 22.7881 32.9523 23.1094 33.2735L23.4629 32.9199ZM31.7502 41.2073L23.4629 32.9199L23.1094 33.2735L31.3967 41.5608L31.7502 41.2073ZM31.7503 44.3222C32.6094 43.4633 32.6094 42.0661 31.7502 41.2072L31.3967 41.5608C32.0606 42.2244 32.0606 43.305 31.3968 43.9686L31.7503 44.3222ZM33.1313 40.1798L35.8619 37.4491L35.5083 37.0955L32.7777 39.8262L33.1313 40.1798ZM24.491 31.893L32.7777 40.1798L33.1313 39.8262L24.8446 31.5395L24.491 31.893ZM35.5392 20.4911L24.491 31.5395L24.8446 31.893L35.8927 20.8447L35.5392 20.4911ZM44.1794 28.7778L35.8927 20.4911L35.5392 20.8447L43.8258 29.1314L44.1794 28.7778ZM41.4438 31.867L44.1794 29.1314L43.8258 28.7778L41.0903 31.5135L41.4438 31.867ZM41.4386 31.8721L41.439 31.8717L41.095 31.5088L41.0946 31.5093L41.4386 31.8721ZM41.4159 31.8939C41.4228 31.8871 41.4293 31.8809 41.4383 31.8724L41.0949 31.509C41.0864 31.517 41.0758 31.527 41.0642 31.5384L41.4159 31.8939ZM35.8956 37.4143L41.4169 31.8929L41.0633 31.5394L35.542 37.0608L35.8956 37.4143ZM35.87 37.4406C35.8805 37.4296 35.8874 37.4223 35.894 37.4158L35.5435 37.0593C35.5297 37.0728 35.5169 37.0864 35.5074 37.0963L35.87 37.4406ZM35.8664 37.4445L35.87 37.4406L35.5075 37.0963L35.5038 37.1001L35.8664 37.4445ZM39.343 39.4921L39.3488 39.4863L38.9952 39.1327L38.9895 39.1385L39.343 39.4921ZM38.6553 40.1798L39.343 39.4921L38.9895 39.1385L38.3018 39.8262L38.6553 40.1798ZM37.7877 40.5389C38.1151 40.5389 38.4239 40.4111 38.6553 40.1798L38.3018 39.8262C38.1642 39.9637 37.9826 40.0389 37.7877 40.0389V40.5389ZM36.9202 40.1796C37.1515 40.4111 37.4605 40.5389 37.7877 40.5389V40.0389C37.5929 40.0389 37.4113 39.9637 37.2738 39.8262L36.9202 40.1796ZM36.5607 39.3116C36.5607 39.6391 36.6887 39.9482 36.9203 40.1797L37.2737 39.8261C37.136 39.6884 37.0607 39.5065 37.0607 39.3116H36.5607ZM36.9064 38.4593C36.6834 38.6879 36.5607 38.9912 36.5607 39.3116H37.0607C37.0607 39.1206 37.1331 38.9429 37.2642 38.8085L36.9064 38.4593ZM42.4555 32.9102L36.9085 38.4572L37.2621 38.8107L42.809 33.2637L42.4555 32.9102ZM44.1795 32.9202C43.7073 32.4486 42.9364 32.4425 42.458 32.9077L42.8066 33.2662C43.0885 32.992 43.5469 32.995 43.8261 33.274L44.1795 32.9202ZM44.539 33.7884C44.539 33.4609 44.411 33.1518 44.1796 32.9203L43.826 33.2739C43.9637 33.4115 44.039 33.5934 44.039 33.7884H44.539ZM44.1792 34.6558C44.4113 34.4243 44.539 34.1157 44.539 33.7884H44.039C44.039 33.9832 43.964 34.1643 43.8261 34.3017L44.1792 34.6558ZM43.4958 35.3392L44.1795 34.6555L43.8259 34.302L43.1422 34.9857L43.4958 35.3392ZM43.4818 35.3532L43.4958 35.3392L43.1422 34.9857L43.1282 34.9996L43.4818 35.3532ZM39.3488 39.4863L43.4818 35.3532L43.1282 34.9996L38.9952 39.1327L39.3488 39.4863ZM43.8716 37.0184L41.0175 39.8725L41.3711 40.226L44.2252 37.3719L43.8716 37.0184ZM56.2969 47.5473L44.2127 37.0068L43.8841 37.3836L55.9683 47.9241L56.2969 47.5473ZM51.8998 52.3222L56.3094 47.9125L55.9558 47.5589L51.5462 51.9686L51.8998 52.3222ZM41.0057 40.2134L51.5344 52.3095L51.9116 51.9813L41.3829 39.8851L41.0057 40.2134ZM57.431 48.8458L52.8315 53.4454L53.185 53.7989L57.7846 49.1993L57.431 48.8458ZM59.2474 50.1209L57.7721 48.8341L57.4435 49.2109L58.9187 50.4978L59.2474 50.1209ZM54.4703 55.2758L59.2599 50.4861L58.9063 50.1326L54.1167 54.9222L54.4703 55.2758ZM52.8197 53.7863L54.1049 55.2631L54.4821 54.9349L53.1968 53.458L52.8197 53.7863ZM62.6906 62.2559C63.9994 62.0748 65.1312 61.2829 65.7979 60.0926L65.3617 59.8482C64.7678 60.9085 63.7685 61.602 62.6221 61.7607L62.6906 62.2559ZM59.1781 61.0784C60.1068 62.0067 61.3884 62.4362 62.6906 62.2559L62.6221 61.7607C61.4747 61.9195 60.3494 61.5422 59.5316 60.7247L59.1781 61.0784ZM58.9499 60.8304C59.0214 60.915 59.0981 60.9984 59.1782 61.0785L59.5315 60.7247C59.4614 60.6547 59.3943 60.5816 59.3319 60.5077L58.9499 60.8304ZM58.9417 60.8209L58.9512 60.8319L59.3306 60.5062L59.3211 60.4952L58.9417 60.8209ZM55.3901 56.7399L58.9428 60.8221L59.32 60.4939L55.7673 56.4116L55.3901 56.7399ZM60.3815 51.4193L55.4019 56.399L55.7555 56.7525L60.7351 51.7728L60.3815 51.4193ZM64.7998 54.964L60.7226 51.4077L60.3939 51.7845L64.4711 55.3408L64.7998 54.964ZM64.8083 54.9714L64.7989 54.9633L64.4719 55.3415L64.4813 55.3497L64.8083 54.9714ZM65.6606 55.9521C65.4184 55.5767 65.1316 55.2463 64.8067 54.9701L64.4829 55.351C64.7684 55.5937 65.0232 55.8865 65.2405 56.2232L65.6606 55.9521ZM65.7979 60.0925C66.5044 58.8302 66.449 57.1704 65.6605 55.9519L65.2407 56.2235C65.9291 57.2872 65.9772 58.7485 65.3616 59.8483L65.7979 60.0925ZM43.1398 55.698C43.1398 56.3835 42.9241 57.0341 42.5254 57.5742L42.9276 57.8711C43.3901 57.2448 43.6398 56.4901 43.6398 55.698H43.1398ZM39.9719 52.5302C41.7185 52.5302 43.1398 53.9515 43.1398 55.698H43.6398C43.6398 53.6754 41.9947 52.0302 39.9719 52.0302V52.5302ZM23.3709 52.5302H39.9719V52.0302H23.3709V52.5302ZM21.1308 53.4578C21.7291 52.8593 22.5238 52.5302 23.3709 52.5302V52.0302C22.3913 52.0302 21.4693 52.4119 20.7772 53.1043L21.1308 53.4578ZM20.203 55.698C20.203 54.8509 20.5322 54.0562 21.1308 53.4578L20.7773 53.1042C20.0848 53.7965 19.703 54.7184 19.703 55.698H20.203ZM20.8198 57.5731C20.4324 57.0475 20.203 56.3993 20.203 55.698H19.703C19.703 56.5102 19.969 57.2616 20.4173 57.8698L20.8198 57.5731ZM18.25 62.0454C18.25 60.2668 19.2585 58.719 20.7349 57.9427L20.5022 57.5002C18.8687 58.3591 17.75 60.073 17.75 62.0454H18.25ZM18.25 63.022V62.0454H17.75V63.022H18.25ZM18.9766 63.7485C18.5754 63.7485 18.25 63.4232 18.25 63.022H17.75C17.75 63.6994 18.2993 64.2485 18.9766 64.2485V63.7485ZM44.3663 63.7485H18.9766V64.2485H44.3663V63.7485ZM45.0928 63.022C45.0928 63.4232 44.7675 63.7485 44.3663 63.7485V64.2485C45.0436 64.2485 45.5928 63.6994 45.5928 63.022H45.0928ZM45.0928 62.0454V63.022H45.5928V62.0454H45.0928ZM42.6101 57.9439C44.0854 58.7205 45.0928 60.2676 45.0928 62.0454H45.5928C45.5928 60.074 44.4753 58.3607 42.843 57.5014L42.6101 57.9439ZM23.3709 53.9831C22.9132 53.9831 22.4816 54.1616 22.1582 54.4851L22.5118 54.8386C22.7413 54.6091 23.0456 54.4831 23.3709 54.4831V53.9831ZM39.9719 53.9831H23.3709V54.4831H39.9719V53.9831ZM41.6867 55.6978C41.6867 54.7522 40.9177 53.9831 39.9719 53.9831V54.4831C40.6416 54.4831 41.1867 55.0283 41.1867 55.6978H41.6867ZM41.1845 56.9106C41.508 56.5872 41.6867 56.1557 41.6867 55.6978H41.1867C41.1867 56.0232 41.0606 56.3275 40.831 56.5571L41.1845 56.9106ZM39.9718 57.4127C40.4295 57.4127 40.8611 57.2342 41.1846 56.9106L40.831 56.5571C40.6015 56.7867 40.2971 56.9127 39.9718 56.9127V57.4127ZM23.3709 57.4127H39.9718V56.9127H23.3709V57.4127ZM21.6562 55.6979C21.6562 56.6436 22.4251 57.4127 23.3709 57.4127V56.9127C22.7013 56.9127 22.1562 56.3675 22.1562 55.6979H21.6562ZM22.1582 54.4851C21.8347 54.8086 21.6562 55.2402 21.6562 55.6979H22.1562C22.1562 55.3726 22.2821 55.0683 22.5117 54.8387L22.1582 54.4851ZM22.8826 58.8658C21.1292 58.8658 19.703 60.292 19.703 62.0454H20.203C20.203 60.5681 21.4054 59.3658 22.8826 59.3658V58.8658ZM23.3709 58.8658H22.8826V59.3658H23.3709V58.8658ZM39.9719 58.8658H23.3709V59.3658H39.9719V58.8658ZM40.4602 58.8658H39.9719V59.3658H40.4602V58.8658ZM43.6398 62.0454C43.6398 60.292 42.2136 58.8658 40.4602 58.8658V59.3658C41.9375 59.3658 43.1398 60.5681 43.1398 62.0454H43.6398ZM19.953 62.2954H43.3898V61.7954H19.953V62.2954ZM36.5834 23.9437C36.1044 23.4648 35.3279 23.4648 34.8489 23.9437L35.2024 24.2973C35.4862 24.0136 35.9461 24.0136 36.2299 24.2973L36.5834 23.9437ZM36.5834 25.6783C37.0625 25.1994 37.0624 24.4228 36.5835 23.9438L36.2299 24.2973C36.5137 24.5811 36.5136 25.0411 36.2299 25.3247L36.5834 25.6783ZM32.4401 29.8216L36.5835 25.6783L36.2299 25.3247L32.0865 29.4681L32.4401 29.8216ZM31.5728 30.1809C31.8863 30.1809 32.2006 30.061 32.4401 29.8217L32.0866 29.468C31.9446 29.61 31.759 29.6809 31.5728 29.6809V30.1809ZM30.7055 29.8216C30.945 30.0611 31.2593 30.1809 31.5728 30.1809V29.6809C31.3865 29.6809 31.201 29.61 31.059 29.4681L30.7055 29.8216ZM30.7055 28.0871C30.2265 28.5661 30.2265 29.3428 30.7055 29.8217L31.059 29.4681C30.7753 29.1845 30.7753 28.7244 31.059 28.4407L30.7055 28.0871ZM34.8489 23.9438L30.7055 28.0871L31.059 28.4407L35.2024 24.2973L34.8489 23.9438Z" fill="#372120"/>
</g>
<defs>
<clipPath id="clip0">
<rect width="50" height="50" fill="white" transform="translate(18 14)"/>
</clipPath>
</defs>
</svg>
