<svg width="55" height="51" viewBox="0 0 55 51" fill="none" xmlns="http://www.w3.org/2000/svg">
<path d="M52.6375 18.3167H52.4875V18.4667V21.3828C52.4875 21.8479 52.141 22.2049 51.7375 22.2049H50.8375H50.6875V22.3549V40.8236V40.9736H50.8375H51.7375C52.141 40.9736 52.4875 41.3306 52.4875 41.7956V44.7117V44.8617H52.6375H53.5375C53.941 44.8617 54.2875 45.2187 54.2875 45.6838V49.5719C54.2875 50.037 53.941 50.3939 53.5375 50.3939H1.3375C0.933984 50.3939 0.5875 50.037 0.5875 49.5719V45.6838C0.5875 45.2187 0.933984 44.8617 1.3375 44.8617H2.2375H2.3875V44.7117V41.7956C2.3875 41.3306 2.73398 40.9736 3.1375 40.9736H4.0375H4.1875V40.8236V22.3549V22.2049H4.0375H3.1375C2.73398 22.2049 2.3875 21.8479 2.3875 21.3828V18.4667V18.3167H2.2375H1.3375C0.933985 18.3167 0.5875 17.9597 0.5875 17.4947V13.6067C0.588232 13.2773 0.767242 12.9863 1.03398 12.8569L27.1339 0.220487L27.134 0.220408C27.3273 0.126531 27.5477 0.126531 27.741 0.220408L27.7411 0.220487L53.841 12.8569C54.1078 12.9865 54.2868 13.2775 54.2875 13.6068V17.4947C54.2875 17.9597 53.941 18.3167 53.5375 18.3167H52.6375ZM2.0875 16.5226V16.6726H2.2375H52.6375H52.7875V16.5226V14.2383V14.1443L52.7029 14.1033L27.5029 1.90426L27.4375 1.87262L27.3721 1.90426L2.17214 14.1033L2.0875 14.1443V14.2383V16.5226ZM4.0375 42.6176H3.8875V42.7676V44.7117V44.8617H4.0375H50.8375H50.9875V44.7117V42.7676V42.6176H50.8375H4.0375ZM5.6875 40.8236V40.9736H5.8375H11.2375H11.3875V40.8236V22.3549V22.2049H11.2375H5.8375H5.6875V22.3549V40.8236ZM12.8875 40.8236V40.9736H13.0375H16.6375H16.7875V40.8236V22.3549V22.2049H16.6375H13.0375H12.8875V22.3549V40.8236ZM18.2875 40.8236V40.9736H18.4375H23.8375H23.9875V40.8236V22.3549V22.2049H23.8375H18.4375H18.2875V22.3549V40.8236ZM25.4875 40.8236V40.9736H25.6375H29.2375H29.3875V40.8236V22.3549V22.2049H29.2375H25.6375H25.4875V22.3549V40.8236ZM30.8875 40.8236V40.9736H31.0375H36.4375H36.5875V40.8236V22.3549V22.2049H36.4375H31.0375H30.8875V22.3549V40.8236ZM38.0875 40.8236V40.9736H38.2375H41.8375H41.9875V40.8236V22.3549V22.2049H41.8375H38.2375H38.0875V22.3549V40.8236ZM43.4875 40.8236V40.9736H43.6375H49.0375H49.1875V40.8236V22.3549V22.2049H49.0375H43.6375H43.4875V22.3549V40.8236ZM52.7875 46.6558V46.5058H52.6375H2.2375H2.0875V46.6558V48.5999V48.7499H2.2375H52.6375H52.7875V48.5999V46.6558ZM3.8875 20.4108V20.5608H4.0375H50.8375H50.9875V20.4108V18.4667V18.3167H50.8375H4.0375H3.8875V18.4667V20.4108Z" fill="black" stroke="#EDC939" stroke-width="0.3"/>
<path d="M23.0875 10.8601C23.0875 8.24775 25.0458 6.15 27.4375 6.15C29.8292 6.15 31.7875 8.24775 31.7875 10.8601C31.7875 13.4725 29.8292 15.5702 27.4375 15.5702C25.0458 15.5702 23.0875 13.4725 23.0875 10.8601ZM24.5875 10.8601C24.5875 12.5424 25.8528 13.9262 27.4375 13.9262C29.0222 13.9262 30.2875 12.5424 30.2875 10.8601C30.2875 9.17783 29.0222 7.79404 27.4375 7.79404C25.8528 7.79404 24.5875 9.17783 24.5875 10.8601Z" fill="black" stroke="#EDC939" stroke-width="0.3"/>
</svg>
