<svg width="80" height="80" viewBox="0 0 80 80" fill="none" xmlns="http://www.w3.org/2000/svg">
<rect width="80" height="80" fill="#372120"/>
<g clip-path="url(#clip0)">
<mask id="path-2-inside-1" fill="white">
<path fill-rule="evenodd" clip-rule="evenodd" d="M30.1061 35.1267L30.1043 35.1591C29.9786 37.36 31.2114 39.4218 33.2459 40.4102L33.2667 40.4204C33.984 40.7635 34.5719 41.3292 34.9428 42.0325L34.9511 42.0478C35.9762 43.9997 38.0964 45.1829 40.3566 45.0642L40.3909 45.0623C41.2106 45.0164 42.0243 45.2278 42.7179 45.6674C44.6318 46.8645 47.0612 46.8645 48.9751 45.6674C49.6687 45.2278 50.4824 45.0164 51.3021 45.0623L51.3364 45.0642C53.5929 45.1838 55.7159 43.9997 56.7433 42.0445L56.7484 42.0339C57.1207 41.3287 57.7099 40.7621 58.4295 40.4186L58.4462 40.4102C60.4806 39.4213 61.7139 37.36 61.5878 35.1587L61.5859 35.1281C61.5442 34.3529 61.7593 33.5855 62.1988 32.9453C63.4641 31.1 63.4641 28.6669 62.1993 26.8211C61.7603 26.1813 61.5442 25.4145 61.5859 24.6393L61.5878 24.6068C61.7139 22.4055 60.4806 20.3442 58.4443 19.3548L58.4258 19.3455C57.7099 19.0033 57.1235 18.4405 56.7521 17.739L56.7414 17.7182C55.7159 15.7663 53.5929 14.5835 51.3364 14.7018L51.3016 14.7036C50.4824 14.7495 49.6687 14.5381 48.9756 14.0986H48.9746C47.0608 12.9015 44.6313 12.9015 42.7174 14.0986C42.0238 14.5376 41.2102 14.749 40.3905 14.7031L40.3561 14.7013C38.0992 14.5817 35.9767 15.7658 34.9516 17.7172L34.9437 17.7316C34.5723 18.4363 33.984 19.0024 33.2658 19.346L33.2463 19.3552C31.2119 20.3437 29.9786 22.4055 30.1047 24.6068L30.1066 24.6374C30.1483 25.4126 29.9332 26.1799 29.4937 26.8197C28.2284 28.6655 28.2284 31.0991 29.4937 32.9443C29.9327 33.5842 30.1483 34.3515 30.1061 35.1267ZM31.0566 27.8982C31.7349 26.9106 32.0673 25.7265 32.0024 24.5303L32.0005 24.4979C31.9338 23.0393 32.7526 21.6845 34.0744 21.0647L34.0906 21.0568C35.175 20.5375 36.0629 19.6826 36.623 18.619L36.6322 18.6014C37.3133 17.3041 38.7399 16.5178 40.2551 16.5985L40.2885 16.5999C41.5009 16.668 42.704 16.3555 43.7295 15.7055C45.0245 14.8956 46.6676 14.8956 47.9625 15.7055C48.9881 16.3546 50.1912 16.6676 51.4031 16.6003L51.4365 16.5985C52.9591 16.5187 54.3787 17.3041 55.058 18.5977L55.0705 18.6213C55.6306 19.6835 56.5175 20.537 57.6005 21.0559L57.6163 21.0637C58.959 21.7165 59.774 23.0643 59.692 24.4983L59.6901 24.5322C59.6252 25.7284 59.9581 26.912 60.6364 27.8995C61.4561 29.0953 61.4556 30.6716 60.6355 31.8669C59.9576 32.8549 59.6252 34.039 59.6901 35.2352L59.692 35.2671C59.774 36.7012 58.959 38.0494 57.6158 38.7027L57.6019 38.7092C56.5166 39.2294 55.6278 40.0852 55.0672 41.1507L55.0603 41.1646C54.3787 42.4618 52.9545 43.2486 51.437 43.1675L51.4041 43.1656C50.1917 43.0979 48.9881 43.4109 47.9621 44.0604C46.6676 44.8699 45.0245 44.8699 43.73 44.0604C42.7972 43.4693 41.7151 43.1559 40.6107 43.1568C40.5036 43.1568 40.396 43.1596 40.2885 43.1656L40.2551 43.167C38.7599 43.262 37.3453 42.4794 36.6309 41.1622L36.6211 41.1442C36.062 40.0824 35.1755 39.2294 34.0929 38.7106L34.0753 38.7017C32.7322 38.0489 31.9171 36.7007 31.9996 35.2671L32.0015 35.2333C32.0659 34.0371 31.733 32.853 31.0552 31.8659C30.236 30.6702 30.2364 29.0939 31.0566 27.8991V27.8982ZM39.7196 39.6989C40.1642 39.9766 40.7498 39.8408 41.0275 39.3962L52.2757 21.3766C52.4593 21.0887 52.4746 20.7243 52.3151 20.4224C52.1556 20.1201 51.8459 19.9273 51.5047 19.9166C51.1635 19.9059 50.8426 20.0793 50.6646 20.371L39.4168 38.3905C39.1391 38.8356 39.2745 39.4212 39.7196 39.6989ZM44.9211 25.1478C44.9211 27.7845 43.0397 29.9297 40.7275 29.9297C38.4154 29.9297 36.5344 27.7845 36.5344 25.1478C36.5344 22.5111 38.4154 20.3663 40.7275 20.3663C43.0397 20.3663 44.9211 22.5111 44.9211 25.1478ZM43.022 25.1478C43.022 23.5584 41.9928 22.2654 40.7275 22.2654C39.4627 22.2654 38.4335 23.5589 38.4335 25.1478C38.4335 26.7367 39.4627 28.0307 40.7275 28.0307C41.9928 28.0307 43.022 26.7371 43.022 25.1478ZM46.7715 34.6189C46.7715 37.2556 48.6524 39.4004 50.9646 39.4004C53.2767 39.4004 55.1581 37.2551 55.1581 34.6189C55.1581 31.9832 53.2772 29.8375 50.965 29.8375C48.6524 29.8375 46.7715 31.9818 46.7715 34.6189ZM53.2591 34.6189C53.2591 36.2083 52.2298 37.5013 50.9646 37.5013C49.6998 37.5013 48.6705 36.2083 48.6705 34.6189C48.6705 33.0296 49.6998 31.7365 50.9646 31.7365C52.2298 31.7365 53.2591 33.0287 53.2591 34.6189ZM59.5431 48.4555C61.8312 47.3047 64.6195 48.1546 65.8768 50.386C66.1244 50.8233 65.9881 51.3782 65.5658 51.6508L48.6301 62.606C48.5926 62.6301 48.5532 62.6515 48.5124 62.67C46.8521 63.4322 45.0467 63.8259 43.22 63.8249C42.3572 63.8254 41.4967 63.7368 40.6524 63.5602C40.6315 63.5556 40.6111 63.5509 40.5907 63.5449L28.9104 60.2665C28.0717 60.0292 27.1736 60.1274 26.4059 60.5405L24.4498 61.5879L24.4285 62.3784C24.4141 62.8921 23.9936 63.3015 23.4794 63.3019H23.453L15.9236 63.0947C15.3992 63.0803 14.9861 62.6436 15.0005 62.1192L15.4553 45.5958C15.4697 45.0714 15.906 44.6583 16.4303 44.6727L23.9597 44.8799C24.4841 44.8943 24.8972 45.3311 24.8828 45.8554L24.8393 47.4383C28.4129 45.5661 32.677 45.5615 36.2544 47.4262L36.9531 47.7883C37.9197 48.2872 38.9866 48.563 40.0738 48.5941L46.9402 48.7833C49.1082 48.8445 51.0781 50.0601 52.1051 51.9698L59.5431 48.4555ZM17.3275 46.5977L16.925 61.2221L22.5559 61.3774L22.9588 46.7526L17.3275 46.5977ZM41.0729 61.7075C43.29 62.1609 45.5938 61.9041 47.6565 60.9731L63.6681 50.6155C62.7784 49.7917 61.4695 49.6085 60.3874 50.1566L60.3652 50.1672L52.7375 53.772C52.8098 54.1781 52.8409 54.5912 52.8293 55.0038C52.8149 55.5175 52.3944 55.9269 51.8807 55.9274H51.8538L40.5666 55.6168C40.0423 55.6024 39.6292 55.1656 39.6435 54.6413C39.6579 54.1169 40.0942 53.7038 40.6186 53.7182L50.8463 53.9996C50.455 52.1098 48.817 50.7366 46.8883 50.6814L40.0219 50.4922C38.6481 50.4528 37.3008 50.1046 36.0796 49.4741L35.3809 49.112C32.0075 47.3544 27.9451 47.5709 24.7781 49.6776L24.5101 59.4014L25.5097 58.8664C26.7091 58.2215 28.113 58.0675 29.4237 58.4384L41.0729 61.7075Z"/>
</mask>
<path fill-rule="evenodd" clip-rule="evenodd" d="M30.1061 35.1267L30.1043 35.1591C29.9786 37.36 31.2114 39.4218 33.2459 40.4102L33.2667 40.4204C33.984 40.7635 34.5719 41.3292 34.9428 42.0325L34.9511 42.0478C35.9762 43.9997 38.0964 45.1829 40.3566 45.0642L40.3909 45.0623C41.2106 45.0164 42.0243 45.2278 42.7179 45.6674C44.6318 46.8645 47.0612 46.8645 48.9751 45.6674C49.6687 45.2278 50.4824 45.0164 51.3021 45.0623L51.3364 45.0642C53.5929 45.1838 55.7159 43.9997 56.7433 42.0445L56.7484 42.0339C57.1207 41.3287 57.7099 40.7621 58.4295 40.4186L58.4462 40.4102C60.4806 39.4213 61.7139 37.36 61.5878 35.1587L61.5859 35.1281C61.5442 34.3529 61.7593 33.5855 62.1988 32.9453C63.4641 31.1 63.4641 28.6669 62.1993 26.8211C61.7603 26.1813 61.5442 25.4145 61.5859 24.6393L61.5878 24.6068C61.7139 22.4055 60.4806 20.3442 58.4443 19.3548L58.4258 19.3455C57.7099 19.0033 57.1235 18.4405 56.7521 17.739L56.7414 17.7182C55.7159 15.7663 53.5929 14.5835 51.3364 14.7018L51.3016 14.7036C50.4824 14.7495 49.6687 14.5381 48.9756 14.0986H48.9746C47.0608 12.9015 44.6313 12.9015 42.7174 14.0986C42.0238 14.5376 41.2102 14.749 40.3905 14.7031L40.3561 14.7013C38.0992 14.5817 35.9767 15.7658 34.9516 17.7172L34.9437 17.7316C34.5723 18.4363 33.984 19.0024 33.2658 19.346L33.2463 19.3552C31.2119 20.3437 29.9786 22.4055 30.1047 24.6068L30.1066 24.6374C30.1483 25.4126 29.9332 26.1799 29.4937 26.8197C28.2284 28.6655 28.2284 31.0991 29.4937 32.9443C29.9327 33.5842 30.1483 34.3515 30.1061 35.1267ZM31.0566 27.8982C31.7349 26.9106 32.0673 25.7265 32.0024 24.5303L32.0005 24.4979C31.9338 23.0393 32.7526 21.6845 34.0744 21.0647L34.0906 21.0568C35.175 20.5375 36.0629 19.6826 36.623 18.619L36.6322 18.6014C37.3133 17.3041 38.7399 16.5178 40.2551 16.5985L40.2885 16.5999C41.5009 16.668 42.704 16.3555 43.7295 15.7055C45.0245 14.8956 46.6676 14.8956 47.9625 15.7055C48.9881 16.3546 50.1912 16.6676 51.4031 16.6003L51.4365 16.5985C52.9591 16.5187 54.3787 17.3041 55.058 18.5977L55.0705 18.6213C55.6306 19.6835 56.5175 20.537 57.6005 21.0559L57.6163 21.0637C58.959 21.7165 59.774 23.0643 59.692 24.4983L59.6901 24.5322C59.6252 25.7284 59.9581 26.912 60.6364 27.8995C61.4561 29.0953 61.4556 30.6716 60.6355 31.8669C59.9576 32.8549 59.6252 34.039 59.6901 35.2352L59.692 35.2671C59.774 36.7012 58.959 38.0494 57.6158 38.7027L57.6019 38.7092C56.5166 39.2294 55.6278 40.0852 55.0672 41.1507L55.0603 41.1646C54.3787 42.4618 52.9545 43.2486 51.437 43.1675L51.4041 43.1656C50.1917 43.0979 48.9881 43.4109 47.9621 44.0604C46.6676 44.8699 45.0245 44.8699 43.73 44.0604C42.7972 43.4693 41.7151 43.1559 40.6107 43.1568C40.5036 43.1568 40.396 43.1596 40.2885 43.1656L40.2551 43.167C38.7599 43.262 37.3453 42.4794 36.6309 41.1622L36.6211 41.1442C36.062 40.0824 35.1755 39.2294 34.0929 38.7106L34.0753 38.7017C32.7322 38.0489 31.9171 36.7007 31.9996 35.2671L32.0015 35.2333C32.0659 34.0371 31.733 32.853 31.0552 31.8659C30.236 30.6702 30.2364 29.0939 31.0566 27.8991V27.8982ZM39.7196 39.6989C40.1642 39.9766 40.7498 39.8408 41.0275 39.3962L52.2757 21.3766C52.4593 21.0887 52.4746 20.7243 52.3151 20.4224C52.1556 20.1201 51.8459 19.9273 51.5047 19.9166C51.1635 19.9059 50.8426 20.0793 50.6646 20.371L39.4168 38.3905C39.1391 38.8356 39.2745 39.4212 39.7196 39.6989ZM44.9211 25.1478C44.9211 27.7845 43.0397 29.9297 40.7275 29.9297C38.4154 29.9297 36.5344 27.7845 36.5344 25.1478C36.5344 22.5111 38.4154 20.3663 40.7275 20.3663C43.0397 20.3663 44.9211 22.5111 44.9211 25.1478ZM43.022 25.1478C43.022 23.5584 41.9928 22.2654 40.7275 22.2654C39.4627 22.2654 38.4335 23.5589 38.4335 25.1478C38.4335 26.7367 39.4627 28.0307 40.7275 28.0307C41.9928 28.0307 43.022 26.7371 43.022 25.1478ZM46.7715 34.6189C46.7715 37.2556 48.6524 39.4004 50.9646 39.4004C53.2767 39.4004 55.1581 37.2551 55.1581 34.6189C55.1581 31.9832 53.2772 29.8375 50.965 29.8375C48.6524 29.8375 46.7715 31.9818 46.7715 34.6189ZM53.2591 34.6189C53.2591 36.2083 52.2298 37.5013 50.9646 37.5013C49.6998 37.5013 48.6705 36.2083 48.6705 34.6189C48.6705 33.0296 49.6998 31.7365 50.9646 31.7365C52.2298 31.7365 53.2591 33.0287 53.2591 34.6189ZM59.5431 48.4555C61.8312 47.3047 64.6195 48.1546 65.8768 50.386C66.1244 50.8233 65.9881 51.3782 65.5658 51.6508L48.6301 62.606C48.5926 62.6301 48.5532 62.6515 48.5124 62.67C46.8521 63.4322 45.0467 63.8259 43.22 63.8249C42.3572 63.8254 41.4967 63.7368 40.6524 63.5602C40.6315 63.5556 40.6111 63.5509 40.5907 63.5449L28.9104 60.2665C28.0717 60.0292 27.1736 60.1274 26.4059 60.5405L24.4498 61.5879L24.4285 62.3784C24.4141 62.8921 23.9936 63.3015 23.4794 63.3019H23.453L15.9236 63.0947C15.3992 63.0803 14.9861 62.6436 15.0005 62.1192L15.4553 45.5958C15.4697 45.0714 15.906 44.6583 16.4303 44.6727L23.9597 44.8799C24.4841 44.8943 24.8972 45.3311 24.8828 45.8554L24.8393 47.4383C28.4129 45.5661 32.677 45.5615 36.2544 47.4262L36.9531 47.7883C37.9197 48.2872 38.9866 48.563 40.0738 48.5941L46.9402 48.7833C49.1082 48.8445 51.0781 50.0601 52.1051 51.9698L59.5431 48.4555ZM17.3275 46.5977L16.925 61.2221L22.5559 61.3774L22.9588 46.7526L17.3275 46.5977ZM41.0729 61.7075C43.29 62.1609 45.5938 61.9041 47.6565 60.9731L63.6681 50.6155C62.7784 49.7917 61.4695 49.6085 60.3874 50.1566L60.3652 50.1672L52.7375 53.772C52.8098 54.1781 52.8409 54.5912 52.8293 55.0038C52.8149 55.5175 52.3944 55.9269 51.8807 55.9274H51.8538L40.5666 55.6168C40.0423 55.6024 39.6292 55.1656 39.6435 54.6413C39.6579 54.1169 40.0942 53.7038 40.6186 53.7182L50.8463 53.9996C50.455 52.1098 48.817 50.7366 46.8883 50.6814L40.0219 50.4922C38.6481 50.4528 37.3008 50.1046 36.0796 49.4741L35.3809 49.112C32.0075 47.3544 27.9451 47.5709 24.7781 49.6776L24.5101 59.4014L25.5097 58.8664C26.7091 58.2215 28.113 58.0675 29.4237 58.4384L41.0729 61.7075Z" fill="white"/>
<path d="M30.1043 35.1591L29.8048 35.142L29.8048 35.142L30.1043 35.1591ZM30.1061 35.1267L30.4057 35.1438L30.4057 35.143L30.1061 35.1267ZM33.2459 40.4102L33.3776 40.1407L33.377 40.1404L33.2459 40.4102ZM33.2667 40.4204L33.135 40.69L33.1373 40.6911L33.2667 40.4204ZM34.9428 42.0325L34.6774 42.1724L34.6794 42.1761L34.9428 42.0325ZM34.9511 42.0478L35.2167 41.9083L35.2145 41.9041L34.9511 42.0478ZM40.3566 45.0642L40.3723 45.3638L40.3728 45.3637L40.3566 45.0642ZM40.3909 45.0623L40.4071 45.3619L40.4077 45.3619L40.3909 45.0623ZM42.7179 45.6674L42.5573 45.9208L42.5588 45.9217L42.7179 45.6674ZM48.9751 45.6674L49.1342 45.9217L49.1357 45.9208L48.9751 45.6674ZM51.3021 45.0623L51.2853 45.3619L51.2859 45.3619L51.3021 45.0623ZM51.3364 45.0642L51.3202 45.3637L51.3205 45.3638L51.3364 45.0642ZM56.7433 42.0445L57.009 42.1842L57.0139 42.174L56.7433 42.0445ZM56.7484 42.0339L56.4829 41.8937L56.4777 41.9044L56.7484 42.0339ZM58.4295 40.4186L58.5588 40.6893L58.5637 40.6869L58.4295 40.4186ZM58.4462 40.4102L58.315 40.1404L58.312 40.1419L58.4462 40.4102ZM61.5878 35.1587L61.8873 35.1415L61.8872 35.1405L61.5878 35.1587ZM61.5859 35.1281L61.2864 35.1442L61.2865 35.1462L61.5859 35.1281ZM62.1988 32.9453L62.4462 33.1151L62.4463 33.1149L62.1988 32.9453ZM62.1993 26.8211L62.4468 26.6516L62.4467 26.6514L62.1993 26.8211ZM61.5859 24.6393L61.2864 24.6222L61.2864 24.6232L61.5859 24.6393ZM61.5878 24.6068L61.2883 24.5897L61.2883 24.5897L61.5878 24.6068ZM58.4443 19.3548L58.3102 19.6231L58.3132 19.6246L58.4443 19.3548ZM58.4258 19.3455L58.56 19.0771L58.5552 19.0748L58.4258 19.3455ZM56.7521 17.739L56.4849 17.8756L56.4869 17.8794L56.7521 17.739ZM56.7414 17.7182L57.0086 17.5816L57.007 17.5786L56.7414 17.7182ZM51.3364 14.7018L51.3207 14.4022L51.3204 14.4022L51.3364 14.7018ZM51.3016 14.7036L51.2856 14.404L51.2848 14.4041L51.3016 14.7036ZM48.9756 14.0986L49.1362 13.8452L49.0627 13.7986H48.9756V14.0986ZM48.9746 14.0986L48.8155 14.3529L48.8885 14.3986H48.9746V14.0986ZM42.7174 14.0986L42.5583 13.8442L42.557 13.8451L42.7174 14.0986ZM40.3905 14.7031L40.4072 14.4036L40.4067 14.4036L40.3905 14.7031ZM40.3561 14.7013L40.3723 14.4017L40.372 14.4017L40.3561 14.7013ZM34.9516 17.7172L35.2146 17.8615L35.2172 17.8567L34.9516 17.7172ZM34.9437 17.7316L34.6806 17.5873L34.6783 17.5917L34.9437 17.7316ZM33.2658 19.346L33.3948 19.6168L33.3953 19.6166L33.2658 19.346ZM33.2463 19.3552L33.1173 19.0844L33.1152 19.0854L33.2463 19.3552ZM30.1047 24.6068L29.8052 24.624L29.8053 24.625L30.1047 24.6068ZM30.1066 24.6374L30.4062 24.6213L30.4061 24.6193L30.1066 24.6374ZM29.4937 26.8197L29.2464 26.6499L29.2462 26.6501L29.4937 26.8197ZM29.4937 32.9443L29.2463 33.114L29.2463 33.1141L29.4937 32.9443ZM32.0024 24.5303L32.302 24.5141L32.3019 24.5132L32.0024 24.5303ZM31.0566 27.8982L30.8093 27.7283L30.7566 27.8051V27.8982H31.0566ZM32.0005 24.4979L31.7008 24.5116L31.701 24.515L32.0005 24.4979ZM34.0744 21.0647L34.2018 21.3363L34.2054 21.3345L34.0744 21.0647ZM34.0906 21.0568L33.961 20.7862L33.9595 20.7869L34.0906 21.0568ZM36.623 18.619L36.8884 18.7588L36.8884 18.7587L36.623 18.619ZM36.6322 18.6014L36.8977 18.7411L36.8979 18.7408L36.6322 18.6014ZM40.2551 16.5985L40.2391 16.8981L40.2426 16.8982L40.2551 16.5985ZM40.2885 16.5999L40.3053 16.3003L40.3009 16.3001L40.2885 16.5999ZM43.7295 15.7055L43.5705 15.4512L43.5689 15.4521L43.7295 15.7055ZM47.9625 15.7055L48.123 15.452L48.1216 15.4512L47.9625 15.7055ZM51.4031 16.6003L51.4198 16.8999L51.4198 16.8999L51.4031 16.6003ZM51.4365 16.5985L51.4208 16.2989L51.4199 16.2989L51.4365 16.5985ZM55.058 18.5977L54.7924 18.7371L54.7928 18.738L55.058 18.5977ZM55.0705 18.6213L55.3359 18.4814L55.3356 18.481L55.0705 18.6213ZM57.6005 21.0559L57.7347 20.7875L57.7301 20.7853L57.6005 21.0559ZM57.6163 21.0637L57.4821 21.3321L57.4851 21.3335L57.6163 21.0637ZM59.692 24.4983L59.3925 24.4812L59.3924 24.4819L59.692 24.4983ZM59.6901 24.5322L59.3906 24.5158L59.3906 24.5159L59.6901 24.5322ZM60.6364 27.8995L60.8838 27.7299L60.8837 27.7297L60.6364 27.8995ZM60.6355 31.8669L60.3881 31.6971L60.3881 31.6971L60.6355 31.8669ZM59.6901 35.2352L59.3906 35.2514L59.3906 35.2525L59.6901 35.2352ZM59.692 35.2671L59.9915 35.25L59.9915 35.2498L59.692 35.2671ZM57.6158 38.7027L57.7427 38.9746L57.747 38.9725L57.6158 38.7027ZM57.6019 38.7092L57.4751 38.4373L57.4723 38.4386L57.6019 38.7092ZM55.0672 41.1507L54.8017 41.0109L54.7989 41.0165L55.0672 41.1507ZM55.0603 41.1646L55.3259 41.3041L55.3286 41.2987L55.0603 41.1646ZM51.437 43.1675L51.4201 43.467L51.421 43.467L51.437 43.1675ZM51.4041 43.1656L51.421 42.8661L51.4208 42.8661L51.4041 43.1656ZM47.9621 44.0604L48.1211 44.3148L48.1225 44.3139L47.9621 44.0604ZM43.73 44.0604L43.5694 44.3138L43.5709 44.3148L43.73 44.0604ZM40.6107 43.1568L40.6107 43.4568L40.6109 43.4568L40.6107 43.1568ZM40.2885 43.1656L40.301 43.4654L40.3052 43.4651L40.2885 43.1656ZM40.2551 43.167L40.2426 42.8672L40.236 42.8676L40.2551 43.167ZM36.6309 41.1622L36.3667 41.3045L36.3671 41.3053L36.6309 41.1622ZM36.6211 41.1442L36.3557 41.284L36.357 41.2864L36.6211 41.1442ZM34.0929 38.7106L33.9588 38.9789L33.9633 38.9811L34.0929 38.7106ZM34.0753 38.7017L34.2095 38.4334L34.2064 38.4319L34.0753 38.7017ZM31.9996 35.2671L32.2991 35.2844L32.2992 35.2836L31.9996 35.2671ZM32.0015 35.2333L32.301 35.2497L32.301 35.2494L32.0015 35.2333ZM31.0552 31.8659L30.8077 32.0355L30.8079 32.0358L31.0552 31.8659ZM31.0566 27.8991L31.3039 28.0689L31.3566 27.9921V27.8991H31.0566ZM41.0275 39.3962L41.2819 39.5551L41.282 39.555L41.0275 39.3962ZM39.7196 39.6989L39.8785 39.4445L39.8784 39.4444L39.7196 39.6989ZM52.2757 21.3766L52.0228 21.2153L52.0212 21.2177L52.2757 21.3766ZM52.3151 20.4224L52.0498 20.5624L52.0499 20.5626L52.3151 20.4224ZM51.5047 19.9166L51.4953 20.2165L51.4953 20.2165L51.5047 19.9166ZM50.6646 20.371L50.9191 20.5298L50.9206 20.5273L50.6646 20.371ZM39.4168 38.3905L39.1623 38.2317L39.1623 38.2317L39.4168 38.3905ZM65.8768 50.386L65.6155 50.5333L65.6158 50.5339L65.8768 50.386ZM59.5431 48.4555L59.6713 48.7268L59.6779 48.7235L59.5431 48.4555ZM65.5658 51.6508L65.4031 51.3988L65.4028 51.3989L65.5658 51.6508ZM48.6301 62.606L48.7922 62.8585L48.7931 62.8579L48.6301 62.606ZM48.5124 62.67L48.3882 62.3969L48.3872 62.3974L48.5124 62.67ZM43.22 63.8249L43.2202 63.5249L43.2198 63.5249L43.22 63.8249ZM40.6524 63.5602L40.5873 63.8531L40.591 63.8538L40.6524 63.5602ZM40.5907 63.5449L40.6757 63.2572L40.6718 63.256L40.5907 63.5449ZM28.9104 60.2665L28.8287 60.5552L28.8294 60.5554L28.9104 60.2665ZM26.4059 60.5405L26.5475 60.805L26.548 60.8047L26.4059 60.5405ZM24.4498 61.5879L24.3082 61.3234L24.1546 61.4056L24.1499 61.5798L24.4498 61.5879ZM24.4285 62.3784L24.7284 62.3868L24.7284 62.3865L24.4285 62.3784ZM23.4794 63.3019L23.4794 63.6019L23.4797 63.6019L23.4794 63.3019ZM23.453 63.3019L23.4447 63.6019H23.453V63.3019ZM15.9236 63.0947L15.9318 62.7948L15.9318 62.7948L15.9236 63.0947ZM15.0005 62.1192L14.7006 62.111L14.7006 62.111L15.0005 62.1192ZM15.4553 45.5958L15.7552 45.604L15.7552 45.604L15.4553 45.5958ZM16.4303 44.6727L16.4386 44.3728L16.4386 44.3728L16.4303 44.6727ZM23.9597 44.8799L23.9515 45.1798L23.9515 45.1798L23.9597 44.8799ZM24.8828 45.8554L25.1827 45.8637L25.1827 45.8636L24.8828 45.8554ZM24.8393 47.4383L24.5394 47.43L24.5253 47.9414L24.9785 47.704L24.8393 47.4383ZM36.2544 47.4262L36.1157 47.6922L36.1163 47.6926L36.2544 47.4262ZM36.9531 47.7883L36.815 48.0547L36.8155 48.0549L36.9531 47.7883ZM40.0738 48.5941L40.0652 48.894L40.0655 48.894L40.0738 48.5941ZM46.9402 48.7833L46.9487 48.4834L46.9485 48.4834L46.9402 48.7833ZM52.1051 51.9698L51.8409 52.1119L51.9757 52.3627L52.2332 52.2411L52.1051 51.9698ZM16.925 61.2221L16.6251 61.2138L16.6169 61.5137L16.9168 61.522L16.925 61.2221ZM17.3275 46.5977L17.3357 46.2978L17.0358 46.2896L17.0276 46.5894L17.3275 46.5977ZM22.5559 61.3774L22.5476 61.6773L22.8475 61.6856L22.8557 61.3857L22.5559 61.3774ZM22.9588 46.7526L23.2586 46.7608L23.2669 46.4609L22.967 46.4527L22.9588 46.7526ZM47.6565 60.9731L47.7799 61.2466L47.8005 61.2373L47.8195 61.225L47.6565 60.9731ZM41.0729 61.7075L40.9919 61.9964L41.0022 61.9993L41.0128 62.0014L41.0729 61.7075ZM63.6681 50.6155L63.831 50.8674L64.1552 50.6577L63.8719 50.3954L63.6681 50.6155ZM60.3874 50.1566L60.5171 50.4272L60.523 50.4242L60.3874 50.1566ZM60.3652 50.1672L60.4934 50.4385L60.4948 50.4378L60.3652 50.1672ZM52.7375 53.772L52.6093 53.5007L52.4019 53.5987L52.4421 53.8246L52.7375 53.772ZM52.8293 55.0038L52.5294 54.9954L52.5294 54.9954L52.8293 55.0038ZM51.8807 55.9274L51.8807 56.2274L51.8809 56.2274L51.8807 55.9274ZM51.8538 55.9274L51.8455 56.2274H51.8538V55.9274ZM40.5666 55.6168L40.5749 55.3169L40.5748 55.3169L40.5666 55.6168ZM39.6435 54.6413L39.3436 54.6331L39.3436 54.6331L39.6435 54.6413ZM40.6186 53.7182L40.6268 53.4183L40.6268 53.4183L40.6186 53.7182ZM50.8463 53.9996L50.8381 54.2995L51.2169 54.3099L51.1401 53.9388L50.8463 53.9996ZM46.8883 50.6814L46.8968 50.3815L46.8965 50.3815L46.8883 50.6814ZM40.0219 50.4922L40.0133 50.7921L40.0136 50.7921L40.0219 50.4922ZM36.0796 49.4741L35.9415 49.7404L35.9419 49.7406L36.0796 49.4741ZM35.3809 49.112L35.2423 49.378L35.2429 49.3783L35.3809 49.112ZM24.7781 49.6776L24.6119 49.4278L24.4825 49.5139L24.4782 49.6694L24.7781 49.6776ZM24.5101 59.4014L24.2102 59.3931L24.1959 59.9098L24.6516 59.6659L24.5101 59.4014ZM25.5097 58.8664L25.6512 59.1309L25.6517 59.1306L25.5097 58.8664ZM29.4237 58.4384L29.342 58.7271L29.3426 58.7273L29.4237 58.4384ZM30.4038 35.1762L30.4057 35.1438L29.8066 35.1096L29.8048 35.142L30.4038 35.1762ZM33.377 40.1404C31.4478 39.2031 30.2853 37.2523 30.4038 35.1762L29.8048 35.142C29.672 37.4677 30.9751 39.6405 33.1148 40.6801L33.377 40.1404ZM33.3985 40.1509L33.3776 40.1407L33.1141 40.6797L33.135 40.6899L33.3985 40.1509ZM35.2081 41.8925C34.8072 41.1322 34.1717 40.5207 33.3962 40.1498L33.1373 40.6911C33.7963 41.0063 34.3365 41.5261 34.6774 42.1724L35.2081 41.8925ZM35.2145 41.9041L35.2061 41.8888L34.6794 42.1761L34.6877 42.1914L35.2145 41.9041ZM40.3409 44.7646C38.1937 44.8774 36.1855 43.753 35.2167 41.9083L34.6855 42.1873C35.7669 44.2464 37.9991 45.4884 40.3723 45.3638L40.3409 44.7646ZM40.3747 44.7628L40.3404 44.7646L40.3728 45.3637L40.4071 45.3619L40.3747 44.7628ZM42.8785 45.414C42.132 44.9409 41.2563 44.7134 40.3742 44.7628L40.4077 45.3619C41.165 45.3195 41.9166 45.5148 42.5573 45.9208L42.8785 45.414ZM48.816 45.413C46.9995 46.5493 44.6935 46.5493 42.877 45.413L42.5588 45.9217C44.57 47.1797 47.123 47.1797 49.1342 45.9217L48.816 45.413ZM51.3188 44.7628C50.4367 44.7134 49.561 44.9409 48.8145 45.414L49.1357 45.9208C49.7764 45.5148 50.528 45.3195 51.2853 45.3619L51.3188 44.7628ZM51.3526 44.7646L51.3183 44.7628L51.2859 45.3619L51.3202 45.3637L51.3526 44.7646ZM56.4777 41.905C55.5065 43.7531 53.4955 44.8782 51.3523 44.7646L51.3205 45.3638C53.6903 45.4894 55.9252 44.2462 57.0088 42.1841L56.4777 41.905ZM56.4777 41.9044L56.4726 41.9151L57.0139 42.174L57.019 42.1633L56.4777 41.9044ZM58.3003 40.1479C57.5224 40.5192 56.8854 41.1317 56.4831 41.8938L57.0137 42.1739C57.3559 41.5257 57.8975 41.005 58.5588 40.6893L58.3003 40.1479ZM58.312 40.1419L58.2953 40.1502L58.5637 40.6869L58.5804 40.6786L58.312 40.1419ZM61.2883 35.1758C61.4072 37.2522 60.2443 39.2026 58.315 40.1404L58.5774 40.68C60.7169 39.64 62.0206 37.4678 61.8873 35.1415L61.2883 35.1758ZM61.2865 35.1462L61.2883 35.1768L61.8872 35.1405L61.8854 35.1099L61.2865 35.1462ZM61.9515 32.7755C61.4745 33.4704 61.2411 34.3031 61.2864 35.1442L61.8855 35.1119C61.8473 34.4027 62.0441 33.7007 62.4462 33.1151L61.9515 32.7755ZM61.9518 26.9907C63.1466 28.7342 63.1466 31.0326 61.9514 32.7756L62.4463 33.1149C63.7816 31.1674 63.7816 28.5995 62.4468 26.6516L61.9518 26.9907ZM61.2864 24.6232C61.2411 25.4645 61.4756 26.2967 61.952 26.9909L62.4467 26.6514C62.0449 26.066 61.8473 25.3644 61.8855 24.6554L61.2864 24.6232ZM61.2883 24.5897L61.2864 24.6222L61.8854 24.6564L61.8873 24.6239L61.2883 24.5897ZM58.3132 19.6246C60.2444 20.5629 61.4072 22.5133 61.2883 24.5897L61.8873 24.624C62.0206 22.2976 60.7169 20.1254 58.5755 19.0849L58.3132 19.6246ZM58.2916 19.6138L58.3102 19.6231L58.5785 19.0865L58.56 19.0772L58.2916 19.6138ZM56.4869 17.8794C56.8884 18.6377 57.5225 19.2463 58.2964 19.6162L58.5552 19.0748C57.8974 18.7604 57.3585 18.2433 57.0172 17.5987L56.4869 17.8794ZM56.4743 17.8547L56.4849 17.8755L57.0192 17.6025L57.0086 17.5816L56.4743 17.8547ZM51.3521 15.0013C53.4957 14.889 55.5066 16.013 56.4758 17.8577L57.007 17.5786C55.9251 15.5195 53.6901 14.278 51.3207 14.4022L51.3521 15.0013ZM51.3176 15.0032L51.3524 15.0013L51.3204 14.4022L51.2856 14.404L51.3176 15.0032ZM48.8149 14.3519C49.561 14.825 50.4367 15.0525 51.3184 15.0031L51.2848 14.4041C50.528 14.4465 49.7764 14.2512 49.1362 13.8452L48.8149 14.3519ZM48.9746 14.3986H48.9756V13.7986H48.9746V14.3986ZM42.8765 14.3529C44.6931 13.2167 46.999 13.2167 48.8155 14.3529L49.1337 13.8442C47.1225 12.5863 44.5695 12.5863 42.5583 13.8442L42.8765 14.3529ZM40.3737 15.0027C41.2558 15.0521 42.1315 14.8246 42.8779 14.3521L42.557 13.8451C41.9162 14.2507 41.1645 14.446 40.4072 14.4036L40.3737 15.0027ZM40.34 15.0009L40.3743 15.0027L40.4067 14.4036L40.3723 14.4017L40.34 15.0009ZM35.2172 17.8567C36.186 16.0125 38.1965 14.8873 40.3403 15.0009L40.372 14.4017C38.0019 14.2761 35.7674 15.5191 34.686 17.5777L35.2172 17.8567ZM35.2067 17.8759L35.2146 17.8615L34.6885 17.573L34.6807 17.5873L35.2067 17.8759ZM33.3953 19.6166C34.1717 19.2452 34.8077 18.6332 35.2091 17.8715L34.6783 17.5917C34.337 18.2394 33.7963 18.7597 33.1363 19.0753L33.3953 19.6166ZM33.3753 19.6261L33.3948 19.6168L33.1368 19.0751L33.1173 19.0844L33.3753 19.6261ZM30.4043 24.5897C30.2853 22.5132 31.4482 20.5624 33.3774 19.6251L33.1152 19.0854C30.9756 20.125 29.672 22.2977 29.8052 24.624L30.4043 24.5897ZM30.4061 24.6193L30.4042 24.5887L29.8053 24.625L29.8072 24.6556L30.4061 24.6193ZM29.741 26.9896C30.218 26.2951 30.4514 25.4624 30.4062 24.6213L29.807 24.6535C29.8452 25.3628 29.6484 26.0647 29.2464 26.6499L29.741 26.9896ZM29.7411 32.7747C28.546 31.0317 28.5459 28.7329 29.7411 26.9894L29.2462 26.6501C27.9109 28.5981 27.9109 31.1665 29.2463 33.114L29.7411 32.7747ZM30.4057 35.143C30.4515 34.3016 30.2175 33.4689 29.741 32.7746L29.2463 33.1141C29.648 33.6994 29.8452 34.4013 29.8066 35.1104L30.4057 35.143ZM31.7028 24.5466C31.7642 25.6767 31.4501 26.7954 30.8093 27.7283L31.3039 28.068C32.0197 27.0259 32.3705 25.7763 32.302 24.5141L31.7028 24.5466ZM31.701 24.515L31.7029 24.5474L32.3019 24.5132L32.3001 24.4808L31.701 24.515ZM33.947 20.793C32.5154 21.4644 31.6285 22.9317 31.7009 24.5116L32.3002 24.4842C32.239 23.1469 32.9897 21.9047 34.2018 21.3363L33.947 20.793ZM33.9595 20.7869L33.9433 20.7948L34.2054 21.3345L34.2217 21.3266L33.9595 20.7869ZM36.3575 18.4792C35.8275 19.4857 34.9873 20.2948 33.961 20.7862L34.2202 21.3274C35.3628 20.7802 36.2983 19.8794 36.8884 18.7588L36.3575 18.4792ZM36.3668 18.4616L36.3575 18.4793L36.8884 18.7587L36.8977 18.7411L36.3668 18.4616ZM40.271 16.2989C38.6447 16.2123 37.1049 17.0557 36.3666 18.4619L36.8979 18.7408C37.5217 17.5526 38.8351 16.8233 40.2391 16.8981L40.271 16.2989ZM40.3009 16.3001L40.2676 16.2987L40.2426 16.8982L40.276 16.8996L40.3009 16.3001ZM43.5689 15.4521C42.5963 16.0686 41.4552 16.365 40.3053 16.3003L40.2716 16.8994C41.5465 16.9711 42.8117 16.6425 43.8901 15.9589L43.5689 15.4521ZM48.1216 15.4512C46.7294 14.5803 44.9627 14.5803 43.5705 15.4512L43.8886 15.9599C45.0862 15.2108 46.6058 15.2108 47.8034 15.9599L48.1216 15.4512ZM51.3865 16.3008C50.237 16.3646 49.0957 16.0677 48.123 15.452L47.8021 15.959C48.8804 16.6415 50.1454 16.9706 51.4198 16.8999L51.3865 16.3008ZM51.4199 16.2989L51.3865 16.3008L51.4198 16.8999L51.4532 16.898L51.4199 16.2989ZM55.3236 18.4582C54.5871 17.0556 53.0543 16.2133 51.4208 16.2989L51.4522 16.8981C52.8639 16.8241 54.1704 17.5527 54.7924 18.7371L55.3236 18.4582ZM55.3356 18.481L55.3231 18.4573L54.7928 18.738L54.8053 18.7617L55.3356 18.481ZM57.7301 20.7853C56.7052 20.2943 55.8659 19.4866 55.3359 18.4814L54.8051 18.7612C55.3952 19.8804 56.3298 20.7798 57.4709 21.3264L57.7301 20.7853ZM57.7505 20.7954L57.7347 20.7875L57.4664 21.3242L57.4821 21.3321L57.7505 20.7954ZM59.9915 24.5155C60.0808 22.9544 59.1933 21.4969 57.7475 20.7939L57.4851 21.3335C58.7247 21.9362 59.4673 23.1743 59.3925 24.4812L59.9915 24.5155ZM59.9897 24.5486L59.9915 24.5147L59.3924 24.4819L59.3906 24.5158L59.9897 24.5486ZM60.8837 27.7297C60.2428 26.7967 59.9284 25.6784 59.9897 24.5484L59.3906 24.5159C59.3221 25.7783 59.6734 27.0274 60.3891 28.0694L60.8837 27.7297ZM60.8828 32.0366C61.7732 30.7391 61.7737 29.0279 60.8838 27.7299L60.389 28.0692C61.1386 29.1626 61.1381 30.6041 60.3881 31.6971L60.8828 32.0366ZM59.9897 35.2189C59.9284 34.0888 60.2424 32.9701 60.8829 32.0366L60.3881 31.6971C59.6729 32.7397 59.3221 33.9891 59.3906 35.2514L59.9897 35.2189ZM59.9915 35.2498L59.9896 35.2178L59.3906 35.2525L59.3925 35.2845L59.9915 35.2498ZM57.747 38.9725C59.1933 38.2691 60.0808 36.8111 59.9915 35.25L59.3925 35.2843C59.4673 36.5912 58.7247 37.8298 57.4846 38.4329L57.747 38.9725ZM57.7288 38.981L57.7427 38.9745L57.489 38.4308L57.4751 38.4373L57.7288 38.981ZM55.3327 41.2903C55.8632 40.282 56.7044 39.472 57.7316 38.9797L57.4723 38.4386C56.3288 38.9867 55.3923 39.8884 54.8017 41.011L55.3327 41.2903ZM55.3286 41.2987L55.3356 41.2848L54.7989 41.0165L54.792 41.0304L55.3286 41.2987ZM51.421 43.467C53.0498 43.5541 54.5872 42.7101 55.3259 41.3041L54.7947 41.025C54.1703 42.2135 52.8591 42.9431 51.453 42.8679L51.421 43.467ZM51.3872 43.4651L51.4201 43.467L51.4539 42.8679L51.421 42.8661L51.3872 43.4651ZM48.1225 44.3139C49.0957 43.6978 50.2374 43.4009 51.3873 43.4651L51.4208 42.8661C50.146 42.7949 48.8804 43.124 47.8016 43.8069L48.1225 44.3139ZM43.5709 44.3148C44.9627 45.1851 46.7293 45.1851 48.1211 44.3148L47.803 43.8061C46.6058 44.5547 45.0862 44.5547 43.8891 43.8061L43.5709 44.3148ZM40.6109 43.4568C41.6584 43.4559 42.6847 43.7532 43.5694 44.3138L43.8906 43.807C42.9096 43.1854 41.7717 42.8558 40.6104 42.8568L40.6109 43.4568ZM40.3052 43.4651C40.4068 43.4594 40.5088 43.4568 40.6107 43.4568V42.8568C40.4984 42.8568 40.3852 42.8597 40.2717 42.8661L40.3052 43.4651ZM40.2676 43.4667L40.301 43.4653L40.276 42.8659L40.2426 42.8673L40.2676 43.4667ZM36.3671 41.3053C37.1373 42.7252 38.6622 43.5689 40.2741 43.4664L40.236 42.8676C38.8575 42.9552 37.5533 42.2337 36.8946 41.0192L36.3671 41.3053ZM36.357 41.2864L36.3667 41.3045L36.895 41.02L36.8853 41.0019L36.357 41.2864ZM33.9633 38.9811C34.9878 39.4721 35.8266 40.2793 36.3557 41.284L36.8866 41.0044C36.2973 39.8855 35.3632 38.9866 34.2226 38.44L33.9633 38.9811ZM33.9412 38.9701L33.9588 38.9789L34.2271 38.4422L34.2095 38.4334L33.9412 38.9701ZM31.7001 35.2499C31.6103 36.8106 32.4979 38.2686 33.9442 38.9716L34.2064 38.4319C32.9664 37.8293 32.2239 36.5908 32.2991 35.2844L31.7001 35.2499ZM31.7019 35.2169L31.7001 35.2507L32.2992 35.2836L32.301 35.2497L31.7019 35.2169ZM30.8079 32.0358C31.4483 32.9683 31.7628 34.087 31.7019 35.2172L32.301 35.2494C32.369 33.9872 32.0178 32.7377 31.3025 31.6961L30.8079 32.0358ZM30.8093 27.7293C29.9189 29.0263 29.9184 30.7375 30.8077 32.0355L31.3027 31.6964C30.5535 30.6029 30.554 29.1614 31.3039 28.0689L30.8093 27.7293ZM30.7566 27.8982V27.8991H31.3566V27.8982H30.7566ZM40.7731 39.2372C40.583 39.5416 40.1824 39.6342 39.8785 39.4445L39.5607 39.9534C40.1461 40.319 40.9166 40.14 41.2819 39.5551L40.7731 39.2372ZM52.0212 21.2177L40.773 39.2373L41.282 39.555L52.5302 21.5354L52.0212 21.2177ZM52.0499 20.5626C52.1588 20.7687 52.1485 21.0181 52.0228 21.2153L52.5287 21.5379C52.7701 21.1593 52.7904 20.6798 52.5804 20.2823L52.0499 20.5626ZM51.4953 20.2165C51.729 20.2238 51.9408 20.3558 52.0498 20.5624L52.5805 20.2824C52.3705 19.8845 51.9629 19.6308 51.5141 19.6167L51.4953 20.2165ZM50.9206 20.5273C51.0424 20.3278 51.2619 20.2092 51.4953 20.2165L51.5141 19.6167C51.065 19.6027 50.6428 19.8309 50.4085 20.2146L50.9206 20.5273ZM39.6713 38.5494L50.9191 20.5298L50.4101 20.2121L39.1623 38.2317L39.6713 38.5494ZM39.8784 39.4444C39.574 39.2544 39.4813 38.854 39.6714 38.5493L39.1623 38.2317C38.797 38.8173 38.975 39.5879 39.5608 39.9534L39.8784 39.4444ZM40.7275 30.2297C43.2411 30.2297 45.2211 27.9119 45.2211 25.1478H44.6211C44.6211 27.657 42.8382 29.6297 40.7275 29.6297V30.2297ZM36.2344 25.1478C36.2344 27.9119 38.2139 30.2297 40.7275 30.2297V29.6297C38.6169 29.6297 36.8344 27.657 36.8344 25.1478H36.2344ZM40.7275 20.0663C38.2139 20.0663 36.2344 22.3836 36.2344 25.1478H36.8344C36.8344 22.6386 38.6169 20.6663 40.7275 20.6663V20.0663ZM45.2211 25.1478C45.2211 22.3836 43.2411 20.0663 40.7275 20.0663V20.6663C42.8382 20.6663 44.6211 22.6386 44.6211 25.1478H45.2211ZM40.7275 22.5654C41.7669 22.5654 42.722 23.6567 42.722 25.1478H43.322C43.322 23.4602 42.2187 21.9654 40.7275 21.9654V22.5654ZM38.7335 25.1478C38.7335 23.6571 39.6887 22.5654 40.7275 22.5654V21.9654C39.2368 21.9654 38.1335 23.4608 38.1335 25.1478H38.7335ZM40.7275 27.7307C39.6888 27.7307 38.7335 26.6386 38.7335 25.1478H38.1335C38.1335 26.8347 39.2367 28.3307 40.7275 28.3307V27.7307ZM42.722 25.1478C42.722 26.6389 41.7668 27.7307 40.7275 27.7307V28.3307C42.2187 28.3307 43.322 26.8353 43.322 25.1478H42.722ZM50.9646 39.1004C48.8539 39.1004 47.0715 37.1281 47.0715 34.6189H46.4715C46.4715 37.3831 48.4509 39.7004 50.9646 39.7004V39.1004ZM54.8581 34.6189C54.8581 37.1276 53.0752 39.1004 50.9646 39.1004V39.7004C53.4781 39.7004 55.4581 37.3826 55.4581 34.6189H54.8581ZM50.965 30.1375C53.0756 30.1375 54.8581 32.1106 54.8581 34.6189H55.4581C55.4581 31.8557 53.4787 29.5375 50.965 29.5375V30.1375ZM47.0715 34.6189C47.0715 32.1093 48.8539 30.1375 50.965 30.1375V29.5375C48.451 29.5375 46.4715 31.8543 46.4715 34.6189H47.0715ZM50.9646 37.8013C52.4557 37.8013 53.5591 36.3065 53.5591 34.6189H52.9591C52.9591 36.11 52.0039 37.2013 50.9646 37.2013V37.8013ZM48.3705 34.6189C48.3705 36.3064 49.4738 37.8013 50.9646 37.8013V37.2013C49.9257 37.2013 48.9705 36.1101 48.9705 34.6189H48.3705ZM50.9646 31.4365C49.4738 31.4365 48.3705 32.9314 48.3705 34.6189H48.9705C48.9705 33.1278 49.9257 32.0365 50.9646 32.0365V31.4365ZM53.5591 34.6189C53.5591 32.9303 52.4557 31.4365 50.9646 31.4365V32.0365C52.004 32.0365 52.9591 33.127 52.9591 34.6189H53.5591ZM66.1382 50.2388C64.8022 47.8678 61.8395 46.9648 59.4084 48.1875L59.6779 48.7235C61.8229 47.6447 64.4367 48.4414 65.6155 50.5333L66.1382 50.2388ZM65.7284 51.9029C66.2844 51.5441 66.4638 50.8137 66.1379 50.2382L65.6158 50.5339C65.7851 50.8328 65.6918 51.2124 65.4031 51.3988L65.7284 51.9029ZM48.7931 62.8579L65.7287 51.9027L65.4028 51.3989L48.4672 62.3541L48.7931 62.8579ZM48.6365 62.9431C48.6899 62.9188 48.7421 62.8907 48.7922 62.8585L48.4681 62.3536C48.4431 62.3696 48.4164 62.3841 48.3882 62.3969L48.6365 62.9431ZM43.2199 64.1249C45.0898 64.1259 46.9379 63.7229 48.6375 62.9427L48.3872 62.3974C46.7663 63.1415 45.0037 63.5258 43.2202 63.5249L43.2199 64.1249ZM40.591 63.8538C41.4556 64.0347 42.3367 64.1254 43.2202 64.1249L43.2198 63.5249C42.3777 63.5254 41.5378 63.4389 40.7138 63.2665L40.591 63.8538ZM40.5057 63.8326C40.5371 63.8419 40.5667 63.8485 40.5873 63.853L40.7175 63.2673C40.6964 63.2626 40.6851 63.26 40.6757 63.2572L40.5057 63.8326ZM28.8294 60.5554L40.5097 63.8337L40.6718 63.256L28.9915 59.9777L28.8294 60.5554ZM26.548 60.8047C27.2472 60.4285 28.065 60.339 28.8287 60.5552L28.9921 59.9779C28.0784 59.7193 27.1001 59.8264 26.2637 60.2764L26.548 60.8047ZM24.5914 61.8524L26.5475 60.805L26.2643 60.2761L24.3082 61.3234L24.5914 61.8524ZM24.7284 62.3865L24.7497 61.596L24.1499 61.5798L24.1286 62.3703L24.7284 62.3865ZM23.4797 63.6019C24.1562 63.6013 24.7094 63.0627 24.7284 62.3868L24.1286 62.37C24.1188 62.7214 23.831 63.0016 23.4791 63.0019L23.4797 63.6019ZM23.453 63.6019H23.4794V63.0019H23.453V63.6019ZM15.9153 63.3946L23.4447 63.6018L23.4612 63.0021L15.9318 62.7948L15.9153 63.3946ZM14.7006 62.111C14.6817 62.8008 15.2252 63.3757 15.9154 63.3946L15.9318 62.7948C15.5732 62.785 15.2905 62.4863 15.3004 62.1274L14.7006 62.111ZM15.1554 45.5875L14.7006 62.111L15.3004 62.1275L15.7552 45.604L15.1554 45.5875ZM16.4386 44.3728C15.7485 44.3539 15.1743 44.8976 15.1554 45.5876L15.7552 45.604C15.765 45.2452 16.0634 44.9628 16.4221 44.9726L16.4386 44.3728ZM23.968 44.5801L16.4386 44.3728L16.4221 44.9726L23.9515 45.1798L23.968 44.5801ZM25.1827 45.8636C25.2016 45.1738 24.6581 44.599 23.968 44.5801L23.9515 45.1798C24.3101 45.1897 24.5928 45.4883 24.5829 45.8472L25.1827 45.8636ZM25.1391 47.4465L25.1827 45.8637L24.5829 45.8472L24.5394 47.43L25.1391 47.4465ZM36.393 47.1602C32.7285 45.25 28.3607 45.2548 24.7 47.1725L24.9785 47.704C28.4652 45.8774 32.6254 45.8729 36.1157 47.6922L36.393 47.1602ZM37.0911 47.522L36.3924 47.1599L36.1163 47.6926L36.815 48.0547L37.0911 47.522ZM40.0824 48.2942C39.0402 48.2645 38.0175 48 37.0906 47.5217L36.8155 48.0549C37.822 48.5743 38.9329 48.8616 40.0652 48.894L40.0824 48.2942ZM46.9485 48.4834L40.082 48.2942L40.0655 48.894L46.9319 49.0832L46.9485 48.4834ZM52.3693 51.8277C51.2915 49.8235 49.224 48.5476 46.9487 48.4834L46.9317 49.0831C48.9923 49.1413 50.8648 50.2968 51.8409 52.1119L52.3693 51.8277ZM59.415 48.1842L51.9769 51.6986L52.2332 52.2411L59.6713 48.7267L59.415 48.1842ZM17.2249 61.2303L17.6273 46.606L17.0276 46.5894L16.6251 61.2138L17.2249 61.2303ZM22.5641 61.0775L16.9333 60.9222L16.9168 61.522L22.5476 61.6773L22.5641 61.0775ZM22.6589 46.7443L22.256 61.3691L22.8557 61.3857L23.2586 46.7608L22.6589 46.7443ZM17.3192 46.8976L22.9505 47.0524L22.967 46.4527L17.3357 46.2978L17.3192 46.8976ZM47.5331 60.6997C45.5279 61.6047 43.2883 61.8544 41.133 61.4136L41.0128 62.0014C43.2917 62.4675 45.6597 62.2035 47.7799 61.2466L47.5331 60.6997ZM63.5052 50.3637L47.4936 60.7212L47.8195 61.225L63.831 50.8674L63.5052 50.3637ZM60.523 50.4242C61.4932 49.9328 62.6666 50.0971 63.4643 50.8357L63.8719 50.3954C62.8901 49.4863 61.4459 49.2842 60.2519 49.8889L60.523 50.4242ZM60.4948 50.4378L60.517 50.4271L60.2578 49.886L60.2356 49.8967L60.4948 50.4378ZM52.8657 54.0432L60.4934 50.4384L60.237 49.896L52.6093 53.5007L52.8657 54.0432ZM53.1292 55.0123C53.1413 54.579 53.1087 54.1455 53.0328 53.7194L52.4421 53.8246C52.5109 54.2108 52.5404 54.6034 52.5294 54.9954L53.1292 55.0123ZM51.8809 56.2274C52.557 56.2268 53.1102 55.6881 53.1292 55.0122L52.5294 54.9954C52.5196 55.347 52.2317 55.6271 51.8804 55.6274L51.8809 56.2274ZM51.8538 56.2274H51.8807V55.6274H51.8538V56.2274ZM40.5584 55.9166L51.8455 56.2273L51.862 55.6275L40.5749 55.3169L40.5584 55.9166ZM39.3436 54.6331C39.3247 55.3229 39.8683 55.8977 40.5584 55.9166L40.5748 55.3169C40.2162 55.307 39.9336 55.0084 39.9434 54.6495L39.3436 54.6331ZM40.6268 53.4183C39.9367 53.3994 39.3626 53.9431 39.3436 54.6331L39.9434 54.6495C39.9533 54.2907 40.2516 54.0082 40.6103 54.0181L40.6268 53.4183ZM50.8546 53.6997L40.6268 53.4183L40.6103 54.0181L50.8381 54.2995L50.8546 53.6997ZM46.8797 50.9813C48.6694 51.0325 50.1894 52.3068 50.5525 54.0604L51.1401 53.9388C50.7206 51.9129 48.9646 50.4407 46.8968 50.3815L46.8797 50.9813ZM40.0136 50.7921L46.88 50.9813L46.8965 50.3815L40.0301 50.1923L40.0136 50.7921ZM35.9419 49.7406C37.2031 50.3918 38.5945 50.7514 40.0133 50.7921L40.0305 50.1923C38.7017 50.1542 37.3985 49.8174 36.2172 49.2075L35.9419 49.7406ZM35.2429 49.3783L35.9415 49.7404L36.2176 49.2077L35.5189 48.8456L35.2429 49.3783ZM24.9442 49.9274C28.0202 47.8812 31.9658 47.6709 35.2423 49.378L35.5195 48.8459C32.0492 47.0378 27.87 47.2605 24.6119 49.4278L24.9442 49.9274ZM24.81 59.4097L25.0779 49.6859L24.4782 49.6694L24.2102 59.3931L24.81 59.4097ZM25.3681 58.6019L24.3685 59.1369L24.6516 59.6659L25.6512 59.1309L25.3681 58.6019ZM29.5053 58.1498C28.1196 57.7576 26.6355 57.9204 25.3676 58.6021L25.6517 59.1306C26.7826 58.5225 28.1063 58.3774 29.342 58.7271L29.5053 58.1498ZM41.154 61.4187L29.5047 58.1496L29.3426 58.7273L40.9919 61.9964L41.154 61.4187Z" fill="#372120" mask="url(#path-2-inside-1)"/>
</g>
<defs>
<clipPath id="clip0">
<rect width="51" height="51" fill="white" transform="translate(15 13)"/>
</clipPath>
</defs>
</svg>
