<svg width="81" height="80" viewBox="0 0 81 80" fill="none" xmlns="http://www.w3.org/2000/svg">
<rect x="0.4375" width="80" height="80" fill="#EDC939"/>
<mask id="path-2-inside-1" fill="white">
<path fill-rule="evenodd" clip-rule="evenodd" d="M65.6375 36.3828C65.6375 36.9196 65.2345 37.3549 64.7375 37.3549H63.8375V55.8236H64.7375C65.2345 55.8236 65.6375 56.2588 65.6375 56.7956V59.7117H66.5375C67.0345 59.7117 67.4375 60.1469 67.4375 60.6838V64.5719C67.4375 65.1087 67.0345 65.5439 66.5375 65.5439H14.3375C13.8405 65.5439 13.4375 65.1087 13.4375 64.5719V60.6838C13.4375 60.1469 13.8405 59.7117 14.3375 59.7117H15.2375V56.7956C15.2375 56.2588 15.6405 55.8236 16.1375 55.8236H17.0375V37.3549H16.1375C15.6405 37.3549 15.2375 36.9196 15.2375 36.3828V33.4667H14.3375C13.8405 33.4667 13.4375 33.0315 13.4375 32.4947V28.6065C13.4383 28.2245 13.646 27.8785 13.9685 27.722L40.0685 15.0855C40.3032 14.9715 40.5718 14.9715 40.8065 15.0855L66.9065 27.722C67.229 27.8786 67.4367 28.2246 67.4375 28.6065V32.4947C67.4375 33.0315 67.0345 33.4667 66.5375 33.4667H65.6375V36.3828ZM15.2375 29.2383V31.5226H65.6375V29.2383L40.4375 17.0393L15.2375 29.2383ZM63.8375 59.7117V57.7676H17.0375V59.7117H63.8375ZM18.8375 37.3549V55.8236H24.2375V37.3549H18.8375ZM26.0375 37.3549V55.8236H29.6375V37.3549H26.0375ZM31.4375 37.3549V55.8236H36.8375V37.3549H31.4375ZM38.6375 37.3549V55.8236H42.2375V37.3549H38.6375ZM44.0375 37.3549V55.8236H49.4375V37.3549H44.0375ZM51.2375 37.3549V55.8236H54.8375V37.3549H51.2375ZM56.6375 37.3549V55.8236H62.0375V37.3549H56.6375ZM65.6375 63.5999V61.6558H15.2375V63.5999H65.6375ZM17.0375 33.4667V35.4108H63.8375V33.4667H17.0375ZM35.9375 25.8601C35.9375 23.176 37.9523 21 40.4375 21C42.9227 21 44.9375 23.176 44.9375 25.8601C44.9375 28.5442 42.9227 30.7202 40.4375 30.7202C37.9523 30.7202 35.9375 28.5442 35.9375 25.8601ZM37.7375 25.8601C37.7375 27.4706 38.9463 28.7762 40.4375 28.7762C41.9287 28.7762 43.1375 27.4706 43.1375 25.8601C43.1375 24.2496 41.9287 22.944 40.4375 22.944C38.9463 22.944 37.7375 24.2496 37.7375 25.8601Z"/>
</mask>
<path fill-rule="evenodd" clip-rule="evenodd" d="M65.6375 36.3828C65.6375 36.9196 65.2345 37.3549 64.7375 37.3549H63.8375V55.8236H64.7375C65.2345 55.8236 65.6375 56.2588 65.6375 56.7956V59.7117H66.5375C67.0345 59.7117 67.4375 60.1469 67.4375 60.6838V64.5719C67.4375 65.1087 67.0345 65.5439 66.5375 65.5439H14.3375C13.8405 65.5439 13.4375 65.1087 13.4375 64.5719V60.6838C13.4375 60.1469 13.8405 59.7117 14.3375 59.7117H15.2375V56.7956C15.2375 56.2588 15.6405 55.8236 16.1375 55.8236H17.0375V37.3549H16.1375C15.6405 37.3549 15.2375 36.9196 15.2375 36.3828V33.4667H14.3375C13.8405 33.4667 13.4375 33.0315 13.4375 32.4947V28.6065C13.4383 28.2245 13.646 27.8785 13.9685 27.722L40.0685 15.0855C40.3032 14.9715 40.5718 14.9715 40.8065 15.0855L66.9065 27.722C67.229 27.8786 67.4367 28.2246 67.4375 28.6065V32.4947C67.4375 33.0315 67.0345 33.4667 66.5375 33.4667H65.6375V36.3828ZM15.2375 29.2383V31.5226H65.6375V29.2383L40.4375 17.0393L15.2375 29.2383ZM63.8375 59.7117V57.7676H17.0375V59.7117H63.8375ZM18.8375 37.3549V55.8236H24.2375V37.3549H18.8375ZM26.0375 37.3549V55.8236H29.6375V37.3549H26.0375ZM31.4375 37.3549V55.8236H36.8375V37.3549H31.4375ZM38.6375 37.3549V55.8236H42.2375V37.3549H38.6375ZM44.0375 37.3549V55.8236H49.4375V37.3549H44.0375ZM51.2375 37.3549V55.8236H54.8375V37.3549H51.2375ZM56.6375 37.3549V55.8236H62.0375V37.3549H56.6375ZM65.6375 63.5999V61.6558H15.2375V63.5999H65.6375ZM17.0375 33.4667V35.4108H63.8375V33.4667H17.0375ZM35.9375 25.8601C35.9375 23.176 37.9523 21 40.4375 21C42.9227 21 44.9375 23.176 44.9375 25.8601C44.9375 28.5442 42.9227 30.7202 40.4375 30.7202C37.9523 30.7202 35.9375 28.5442 35.9375 25.8601ZM37.7375 25.8601C37.7375 27.4706 38.9463 28.7762 40.4375 28.7762C41.9287 28.7762 43.1375 27.4706 43.1375 25.8601C43.1375 24.2496 41.9287 22.944 40.4375 22.944C38.9463 22.944 37.7375 24.2496 37.7375 25.8601Z" fill="black"/>
<path d="M63.8375 37.3549V37.0549H63.5375V37.3549H63.8375ZM63.8375 55.8236H63.5375V56.1236H63.8375V55.8236ZM65.6375 59.7117H65.3375V60.0117H65.6375V59.7117ZM15.2375 59.7117V60.0117H15.5375V59.7117H15.2375ZM17.0375 55.8236V56.1236H17.3375V55.8236H17.0375ZM17.0375 37.3549H17.3375V37.0549H17.0375V37.3549ZM15.2375 33.4667H15.5375V33.1667H15.2375V33.4667ZM13.4375 28.6065L13.1375 28.6059V28.6065H13.4375ZM13.9685 27.722L13.8378 27.452L13.8375 27.4521L13.9685 27.722ZM40.0685 15.0855L40.1992 15.3555L40.1996 15.3553L40.0685 15.0855ZM40.8065 15.0855L40.6754 15.3553L40.6758 15.3555L40.8065 15.0855ZM66.9065 27.722L67.0375 27.4521L67.0372 27.452L66.9065 27.722ZM67.4375 28.6065L67.7375 28.6065L67.7375 28.6059L67.4375 28.6065ZM65.6375 33.4667V33.1667H65.3375V33.4667H65.6375ZM15.2375 31.5226H14.9375V31.8226H15.2375V31.5226ZM15.2375 29.2383L15.1068 28.9683L14.9375 29.0503V29.2383H15.2375ZM65.6375 31.5226V31.8226H65.9375V31.5226H65.6375ZM65.6375 29.2383H65.9375V29.0503L65.7682 28.9683L65.6375 29.2383ZM40.4375 17.0393L40.5682 16.7692L40.4375 16.706L40.3068 16.7692L40.4375 17.0393ZM63.8375 57.7676H64.1375V57.4676H63.8375V57.7676ZM63.8375 59.7117V60.0117H64.1375V59.7117H63.8375ZM17.0375 57.7676V57.4676H16.7375V57.7676H17.0375ZM17.0375 59.7117H16.7375V60.0117H17.0375V59.7117ZM18.8375 55.8236H18.5375V56.1236H18.8375V55.8236ZM18.8375 37.3549V37.0549H18.5375V37.3549H18.8375ZM24.2375 55.8236V56.1236H24.5375V55.8236H24.2375ZM24.2375 37.3549H24.5375V37.0549H24.2375V37.3549ZM26.0375 55.8236H25.7375V56.1236H26.0375V55.8236ZM26.0375 37.3549V37.0549H25.7375V37.3549H26.0375ZM29.6375 55.8236V56.1236H29.9375V55.8236H29.6375ZM29.6375 37.3549H29.9375V37.0549H29.6375V37.3549ZM31.4375 55.8236H31.1375V56.1236H31.4375V55.8236ZM31.4375 37.3549V37.0549H31.1375V37.3549H31.4375ZM36.8375 55.8236V56.1236H37.1375V55.8236H36.8375ZM36.8375 37.3549H37.1375V37.0549H36.8375V37.3549ZM38.6375 55.8236H38.3375V56.1236H38.6375V55.8236ZM38.6375 37.3549V37.0549H38.3375V37.3549H38.6375ZM42.2375 55.8236V56.1236H42.5375V55.8236H42.2375ZM42.2375 37.3549H42.5375V37.0549H42.2375V37.3549ZM44.0375 55.8236H43.7375V56.1236H44.0375V55.8236ZM44.0375 37.3549V37.0549H43.7375V37.3549H44.0375ZM49.4375 55.8236V56.1236H49.7375V55.8236H49.4375ZM49.4375 37.3549H49.7375V37.0549H49.4375V37.3549ZM51.2375 55.8236H50.9375V56.1236H51.2375V55.8236ZM51.2375 37.3549V37.0549H50.9375V37.3549H51.2375ZM54.8375 55.8236V56.1236H55.1375V55.8236H54.8375ZM54.8375 37.3549H55.1375V37.0549H54.8375V37.3549ZM56.6375 55.8236H56.3375V56.1236H56.6375V55.8236ZM56.6375 37.3549V37.0549H56.3375V37.3549H56.6375ZM62.0375 55.8236V56.1236H62.3375V55.8236H62.0375ZM62.0375 37.3549H62.3375V37.0549H62.0375V37.3549ZM65.6375 61.6558H65.9375V61.3558H65.6375V61.6558ZM65.6375 63.5999V63.8999H65.9375V63.5999H65.6375ZM15.2375 61.6558V61.3558H14.9375V61.6558H15.2375ZM15.2375 63.5999H14.9375V63.8999H15.2375V63.5999ZM17.0375 35.4108H16.7375V35.7108H17.0375V35.4108ZM17.0375 33.4667V33.1667H16.7375V33.4667H17.0375ZM63.8375 35.4108V35.7108H64.1375V35.4108H63.8375ZM63.8375 33.4667H64.1375V33.1667H63.8375V33.4667ZM64.7375 37.6549C65.4215 37.6549 65.9375 37.0631 65.9375 36.3828H65.3375C65.3375 36.7761 65.0475 37.0549 64.7375 37.0549V37.6549ZM63.8375 37.6549H64.7375V37.0549H63.8375V37.6549ZM64.1375 55.8236V37.3549H63.5375V55.8236H64.1375ZM64.7375 55.5236H63.8375V56.1236H64.7375V55.5236ZM65.9375 56.7956C65.9375 56.1153 65.4215 55.5236 64.7375 55.5236V56.1236C65.0475 56.1236 65.3375 56.4023 65.3375 56.7956H65.9375ZM65.9375 59.7117V56.7956H65.3375V59.7117H65.9375ZM66.5375 59.4117H65.6375V60.0117H66.5375V59.4117ZM67.7375 60.6838C67.7375 60.0034 67.2215 59.4117 66.5375 59.4117V60.0117C66.8475 60.0117 67.1375 60.2905 67.1375 60.6838H67.7375ZM67.7375 64.5719V60.6838H67.1375V64.5719H67.7375ZM66.5375 65.8439C67.2215 65.8439 67.7375 65.2522 67.7375 64.5719H67.1375C67.1375 64.9652 66.8475 65.2439 66.5375 65.2439V65.8439ZM14.3375 65.8439H66.5375V65.2439H14.3375V65.8439ZM13.1375 64.5719C13.1375 65.2522 13.6535 65.8439 14.3375 65.8439V65.2439C14.0275 65.2439 13.7375 64.9652 13.7375 64.5719H13.1375ZM13.1375 60.6838V64.5719H13.7375V60.6838H13.1375ZM14.3375 59.4117C13.6535 59.4117 13.1375 60.0034 13.1375 60.6838H13.7375C13.7375 60.2905 14.0275 60.0117 14.3375 60.0117V59.4117ZM15.2375 59.4117H14.3375V60.0117H15.2375V59.4117ZM14.9375 56.7956V59.7117H15.5375V56.7956H14.9375ZM16.1375 55.5236C15.4535 55.5236 14.9375 56.1153 14.9375 56.7956H15.5375C15.5375 56.4023 15.8275 56.1236 16.1375 56.1236V55.5236ZM17.0375 55.5236H16.1375V56.1236H17.0375V55.5236ZM16.7375 37.3549V55.8236H17.3375V37.3549H16.7375ZM16.1375 37.6549H17.0375V37.0549H16.1375V37.6549ZM14.9375 36.3828C14.9375 37.0631 15.4535 37.6549 16.1375 37.6549V37.0549C15.8275 37.0549 15.5375 36.7761 15.5375 36.3828H14.9375ZM14.9375 33.4667V36.3828H15.5375V33.4667H14.9375ZM14.3375 33.7667H15.2375V33.1667H14.3375V33.7667ZM13.1375 32.4947C13.1375 33.175 13.6535 33.7667 14.3375 33.7667V33.1667C14.0275 33.1667 13.7375 32.888 13.7375 32.4947H13.1375ZM13.1375 28.6065V32.4947H13.7375V28.6065H13.1375ZM13.8375 27.4521C13.4035 27.6627 13.1385 28.1188 13.1375 28.6059L13.7375 28.6071C13.7381 28.3303 13.8884 28.0943 14.0995 27.9919L13.8375 27.4521ZM39.9378 14.8155L13.8378 27.452L14.0992 27.992L40.1992 15.3555L39.9378 14.8155ZM40.9376 14.8156C40.6201 14.6615 40.2549 14.6615 39.9374 14.8156L40.1996 15.3553C40.3515 15.2816 40.5235 15.2816 40.6754 15.3553L40.9376 14.8156ZM67.0372 27.452L40.9372 14.8155L40.6758 15.3555L66.7758 27.992L67.0372 27.452ZM67.7375 28.6059C67.7365 28.1188 67.4715 27.6628 67.0375 27.4521L66.7755 27.9918C66.9866 28.0944 67.1369 28.3304 67.1375 28.6071L67.7375 28.6059ZM67.7375 32.4947V28.6065H67.1375V32.4947H67.7375ZM66.5375 33.7667C67.2215 33.7667 67.7375 33.175 67.7375 32.4947H67.1375C67.1375 32.888 66.8475 33.1667 66.5375 33.1667V33.7667ZM65.6375 33.7667H66.5375V33.1667H65.6375V33.7667ZM65.9375 36.3828V33.4667H65.3375V36.3828H65.9375ZM15.5375 31.5226V29.2383H14.9375V31.5226H15.5375ZM65.6375 31.2226H15.2375V31.8226H65.6375V31.2226ZM65.3375 29.2383V31.5226H65.9375V29.2383H65.3375ZM40.3068 17.3093L65.5068 29.5084L65.7682 28.9683L40.5682 16.7692L40.3068 17.3093ZM15.3682 29.5084L40.5682 17.3093L40.3068 16.7692L15.1068 28.9683L15.3682 29.5084ZM63.5375 57.7676V59.7117H64.1375V57.7676H63.5375ZM17.0375 58.0676H63.8375V57.4676H17.0375V58.0676ZM17.3375 59.7117V57.7676H16.7375V59.7117H17.3375ZM63.8375 59.4117H17.0375V60.0117H63.8375V59.4117ZM19.1375 55.8236V37.3549H18.5375V55.8236H19.1375ZM24.2375 55.5236H18.8375V56.1236H24.2375V55.5236ZM23.9375 37.3549V55.8236H24.5375V37.3549H23.9375ZM18.8375 37.6549H24.2375V37.0549H18.8375V37.6549ZM26.3375 55.8236V37.3549H25.7375V55.8236H26.3375ZM29.6375 55.5236H26.0375V56.1236H29.6375V55.5236ZM29.3375 37.3549V55.8236H29.9375V37.3549H29.3375ZM26.0375 37.6549H29.6375V37.0549H26.0375V37.6549ZM31.7375 55.8236V37.3549H31.1375V55.8236H31.7375ZM36.8375 55.5236H31.4375V56.1236H36.8375V55.5236ZM36.5375 37.3549V55.8236H37.1375V37.3549H36.5375ZM31.4375 37.6549H36.8375V37.0549H31.4375V37.6549ZM38.9375 55.8236V37.3549H38.3375V55.8236H38.9375ZM42.2375 55.5236H38.6375V56.1236H42.2375V55.5236ZM41.9375 37.3549V55.8236H42.5375V37.3549H41.9375ZM38.6375 37.6549H42.2375V37.0549H38.6375V37.6549ZM44.3375 55.8236V37.3549H43.7375V55.8236H44.3375ZM49.4375 55.5236H44.0375V56.1236H49.4375V55.5236ZM49.1375 37.3549V55.8236H49.7375V37.3549H49.1375ZM44.0375 37.6549H49.4375V37.0549H44.0375V37.6549ZM51.5375 55.8236V37.3549H50.9375V55.8236H51.5375ZM54.8375 55.5236H51.2375V56.1236H54.8375V55.5236ZM54.5375 37.3549V55.8236H55.1375V37.3549H54.5375ZM51.2375 37.6549H54.8375V37.0549H51.2375V37.6549ZM56.9375 55.8236V37.3549H56.3375V55.8236H56.9375ZM62.0375 55.5236H56.6375V56.1236H62.0375V55.5236ZM61.7375 37.3549V55.8236H62.3375V37.3549H61.7375ZM56.6375 37.6549H62.0375V37.0549H56.6375V37.6549ZM65.3375 61.6558V63.5999H65.9375V61.6558H65.3375ZM15.2375 61.9558H65.6375V61.3558H15.2375V61.9558ZM15.5375 63.5999V61.6558H14.9375V63.5999H15.5375ZM65.6375 63.2999H15.2375V63.8999H65.6375V63.2999ZM17.3375 35.4108V33.4667H16.7375V35.4108H17.3375ZM63.8375 35.1108H17.0375V35.7108H63.8375V35.1108ZM63.5375 33.4667V35.4108H64.1375V33.4667H63.5375ZM17.0375 33.7667H63.8375V33.1667H17.0375V33.7667ZM40.4375 20.7C37.7652 20.7 35.6375 23.0325 35.6375 25.8601H36.2375C36.2375 23.3195 38.1393 21.3 40.4375 21.3V20.7ZM45.2375 25.8601C45.2375 23.0325 43.1098 20.7 40.4375 20.7V21.3C42.7357 21.3 44.6375 23.3195 44.6375 25.8601H45.2375ZM40.4375 31.0202C43.1098 31.0202 45.2375 28.6877 45.2375 25.8601H44.6375C44.6375 28.4007 42.7357 30.4202 40.4375 30.4202V31.0202ZM35.6375 25.8601C35.6375 28.6877 37.7652 31.0202 40.4375 31.0202V30.4202C38.1393 30.4202 36.2375 28.4007 36.2375 25.8601H35.6375ZM40.4375 28.4762C39.1333 28.4762 38.0375 27.3271 38.0375 25.8601H37.4375C37.4375 27.6141 38.7593 29.0762 40.4375 29.0762V28.4762ZM42.8375 25.8601C42.8375 27.3271 41.7417 28.4762 40.4375 28.4762V29.0762C42.1157 29.0762 43.4375 27.6141 43.4375 25.8601H42.8375ZM40.4375 23.244C41.7417 23.244 42.8375 24.3931 42.8375 25.8601H43.4375C43.4375 24.1061 42.1157 22.644 40.4375 22.644V23.244ZM38.0375 25.8601C38.0375 24.3931 39.1333 23.244 40.4375 23.244V22.644C38.7593 22.644 37.4375 24.1061 37.4375 25.8601H38.0375Z" fill="#EDC939" mask="url(#path-2-inside-1)"/>
</svg>
