<svg width="50" height="59" viewBox="0 0 50 59" fill="none" xmlns="http://www.w3.org/2000/svg">
<path d="M29.617 27.7334H29.417H28.2656H28.1241L28.077 27.5999C28.0749 27.5941 28.0718 27.5872 28.0637 27.5699L28.0628 27.5679C28.056 27.5535 28.0456 27.5313 28.0363 27.506C28.022 27.4701 28.0063 27.4366 27.9878 27.3969C27.9821 27.3849 27.9762 27.3722 27.97 27.3588L28.1515 27.2748M29.617 27.7334L27.5575 26.4193C27.5686 26.4303 27.5788 26.4425 27.5891 26.4547C27.598 26.4654 27.607 26.4761 27.6166 26.4861L27.4716 26.624C27.4717 26.6241 27.4718 26.6241 27.4719 26.6242C27.5635 26.7206 27.648 26.8231 27.7249 26.9313L27.7248 26.9314L27.7284 26.9361C27.7481 26.9623 27.7648 26.9899 27.7871 27.0268C27.7938 27.0378 27.8009 27.0497 27.8088 27.0626L27.8097 27.064C27.8692 27.1593 27.9229 27.2579 27.9703 27.3594L28.1515 27.2748M29.617 27.7334V27.5334V24.309V24.1649L29.4803 24.1193L27.2036 23.3604C27.2034 23.3603 27.2033 23.3603 27.2032 23.3603C27.0877 23.3213 26.9827 23.2563 26.8965 23.1704C26.8964 23.1704 26.8964 23.1703 26.8963 23.1703L24.2347 20.5086L24.1761 20.45H24.0933H16.0575H15.9746L15.916 20.5086L13.2542 23.1705C13.1539 23.2708 13.0282 23.3421 12.8908 23.3765L12.9393 23.5705L12.8907 23.3765M29.617 27.7334L12.8907 23.3765M28.1515 27.2748C28.1006 27.1659 28.0431 27.0602 27.9794 26.9581M28.1515 27.2748C28.1567 27.2861 28.162 27.2974 28.1673 27.3087C28.1868 27.3503 28.2063 27.3917 28.2233 27.435C28.2296 27.4527 28.2372 27.4688 28.2447 27.4848C28.2522 27.5008 28.2596 27.5166 28.2656 27.5334L27.9794 26.9581M23.931 26.02L24.0377 26.1892C24.1371 26.1265 24.2406 26.0704 24.3476 26.021C24.3962 25.9989 24.4459 25.9789 24.5006 25.9578L24.5007 25.9578C24.6078 25.9164 24.7175 25.8822 24.8289 25.8557L24.8289 25.8557L24.8319 25.8549C24.8522 25.8498 24.8697 25.8451 24.8856 25.8408C24.9207 25.8315 24.9476 25.8243 24.979 25.8187L24.979 25.8187L24.984 25.8177C25.3143 25.75 25.655 25.75 25.9854 25.8177L25.9853 25.8178L25.9904 25.8187C26.0217 25.8243 26.0487 25.8315 26.0837 25.8408C26.0996 25.8451 26.1171 25.8498 26.1374 25.8549L26.1374 25.855L26.1405 25.8557C26.2519 25.8822 26.3615 25.9164 26.4687 25.9578L26.4688 25.9578C26.5243 25.9793 26.5744 25.999 26.6224 26.0208C26.7289 26.0705 26.8322 26.1267 26.9316 26.1892C26.9677 26.212 27.0075 26.2339 27.0403 26.2519C27.0465 26.2553 27.0524 26.2585 27.0581 26.2616C27.1856 26.3512 27.3055 26.4515 27.4165 26.5611L24.4286 25.7712C24.3725 25.7929 24.3184 25.8145 24.2644 25.8391C24.1494 25.8922 24.0381 25.9526 23.931 26.02ZM23.931 26.02L24.0381 26.1889C24.0175 26.202 23.9962 26.2145 23.9786 26.2248C23.9757 26.2264 23.9729 26.228 23.9703 26.2296C23.9503 26.2413 23.9348 26.2506 23.9212 26.2597C23.7909 26.3507 23.6685 26.4527 23.5553 26.5645L23.4148 26.4222M23.931 26.02C23.9137 26.031 23.8959 26.0414 23.8781 26.0518C23.8543 26.0657 23.8306 26.0796 23.8081 26.0948C23.668 26.1925 23.5363 26.3021 23.4148 26.4222M23.4148 26.4222L23.5562 26.5636C23.5528 26.567 23.5484 26.572 23.5385 26.5838L23.5362 26.5865C23.5278 26.5966 23.5149 26.6121 23.5006 26.627M23.4148 26.4222C23.4037 26.4333 23.3935 26.4455 23.3832 26.4577C23.3743 26.4683 23.3654 26.479 23.3558 26.4891M23.5006 26.627C23.5005 26.6271 23.5005 26.6271 23.5004 26.6272L23.3558 26.4891M23.5006 26.627C23.5006 26.627 23.5006 26.627 23.5007 26.6269L23.3558 26.4891M23.5006 26.627C23.409 26.7233 23.3245 26.8258 23.2477 26.9339M23.3558 26.4891C23.2576 26.5923 23.1668 26.7023 23.0844 26.8185M23.2477 26.9339C23.2478 26.9337 23.2479 26.9336 23.248 26.9334L23.0844 26.8185M23.2477 26.9339C23.2351 26.9519 23.2223 26.9721 23.2074 26.9961C23.2054 26.9994 23.2032 27.0028 23.2011 27.0063C23.1889 27.0259 23.175 27.0483 23.1611 27.0693M23.2477 26.9339C23.2476 26.934 23.2475 26.9342 23.2474 26.9343L23.0844 26.8185M23.0844 26.8185C23.0657 26.8451 23.048 26.8736 23.0307 26.9015C23.018 26.9221 23.0054 26.9423 22.9929 26.9611M22.9929 26.9611C22.9292 27.0631 22.8717 27.1688 22.8208 27.2777C22.7953 27.3308 22.7707 27.3829 22.7491 27.438C22.7438 27.4512 22.7378 27.464 22.7317 27.4769C22.7228 27.4957 22.7138 27.5148 22.7068 27.5363H16.4655C16.4596 27.5195 16.4522 27.5038 16.4447 27.4877C16.4372 27.4718 16.4296 27.4556 16.4233 27.438M22.9929 26.9611L23.1593 27.072C23.1599 27.0711 23.1605 27.0702 23.1611 27.0693M22.9929 26.9611L23.1626 27.067C23.1621 27.0678 23.1616 27.0686 23.1611 27.0693M23.1611 27.0693C23.1022 27.1639 23.0491 27.2617 23.002 27.3624L23.001 27.3645C22.9756 27.4172 22.9539 27.4636 22.9352 27.5111L22.9351 27.5113C22.9272 27.5315 22.9175 27.5519 22.9115 27.5645C22.9104 27.5668 22.9094 27.5689 22.9086 27.5707C22.9019 27.585 22.8989 27.5922 22.897 27.598L22.8522 27.7363H22.7068H16.4655H16.324L16.2769 27.6029C16.2749 27.5971 16.2718 27.5902 16.2637 27.5729L16.2627 27.5708C16.256 27.5564 16.2456 27.5342 16.2363 27.509M16.2363 27.509C16.2366 27.5097 16.2368 27.5104 16.2371 27.5111L16.4233 27.438M16.2363 27.509C16.222 27.473 16.2063 27.4395 16.1878 27.3999C16.1821 27.3878 16.1762 27.3752 16.17 27.3617L16.3515 27.2777M16.2363 27.509C16.2359 27.508 16.2355 27.507 16.2352 27.5059L16.4233 27.438M16.4233 27.438C16.4063 27.3947 16.3868 27.3532 16.3673 27.3117C16.362 27.3004 16.3567 27.2891 16.3515 27.2777M27.9794 26.9581C27.9734 26.9483 27.9674 26.9384 27.9614 26.9285C27.9381 26.8897 27.9146 26.8508 27.888 26.8155L27.9794 26.9581ZM24.9438 25.6218C25.3007 25.5486 25.6687 25.5486 26.0255 25.6218C26.0656 25.6289 26.1042 25.6392 26.1431 25.6496C26.1576 25.6535 26.1721 25.6574 26.1868 25.6611L24.9438 25.6218ZM24.9438 25.6218C24.9037 25.6289 24.8652 25.6392 24.8263 25.6496M24.9438 25.6218L24.8263 25.6496M16.3515 27.2777C16.3006 27.1688 16.2431 27.0631 16.1794 26.9611C16.1734 26.9513 16.1674 26.9414 16.1614 26.9314C16.1381 26.8927 16.1146 26.8537 16.0879 26.8185C16.0055 26.7023 15.9148 26.5923 15.8165 26.4891C15.807 26.479 15.798 26.4683 15.7891 26.4577C15.7788 26.4455 15.7686 26.4333 15.7575 26.4222C15.636 26.3021 15.5043 26.1925 15.3642 26.0948M16.3515 27.2777L16.1703 27.3624C16.1229 27.2609 16.0692 27.1623 16.0097 27.067L16.0088 27.0655L16.0088 27.0655C16.0009 27.0526 15.9938 27.0408 15.9871 27.0298C15.9648 26.9928 15.9481 26.9652 15.9284 26.9391L15.9248 26.9343L15.9249 26.9343C15.848 26.826 15.7633 26.7233 15.6716 26.6269L15.8165 26.4891L15.6719 26.6272C15.6575 26.6122 15.6445 26.5966 15.6361 26.5866L15.6338 26.5838C15.6242 26.5724 15.6198 26.5673 15.6165 26.564M15.6165 26.564C15.6166 26.5641 15.6168 26.5643 15.617 26.5645L15.7575 26.4222L15.6161 26.5636C15.6162 26.5637 15.6163 26.5639 15.6165 26.564ZM15.6165 26.564C15.5035 26.4524 15.3812 26.3506 15.2512 26.2598M15.2512 26.2598C15.2515 26.26 15.2519 26.2603 15.2523 26.2605L15.3642 26.0948M15.2512 26.2598C15.2507 26.2594 15.2503 26.2591 15.2498 26.2588L15.3642 26.0948M15.2512 26.2598C15.2375 26.2506 15.222 26.2413 15.202 26.2296C15.1994 26.2281 15.1967 26.2265 15.1938 26.2248C15.1762 26.2145 15.1548 26.202 15.1342 26.1889L15.2413 26.02M15.3642 26.0948C15.3417 26.0796 15.318 26.0657 15.2942 26.0518C15.2764 26.0414 15.2586 26.031 15.2413 26.02M15.2413 26.02L15.1348 26.1893C15.0353 26.1268 14.932 26.0705 14.8253 26.0208M15.2413 26.02L14.8253 26.0208M14.8253 26.0208C14.7773 25.999 14.7273 25.9793 14.6717 25.9578L14.6716 25.9578C14.5645 25.9164 14.4549 25.8822 14.3434 25.8557L14.3404 25.855L14.3404 25.8549C14.3201 25.8498 14.3026 25.8451 14.2867 25.8408C14.2517 25.8315 14.2247 25.8243 14.1933 25.8187L14.1883 25.8178L14.1883 25.8177C13.858 25.75 13.5173 25.75 13.187 25.8177L13.182 25.8187L13.182 25.8187C13.1506 25.8243 13.1236 25.8315 13.0886 25.8408C13.0727 25.8451 13.0552 25.8498 13.0349 25.8549L13.0318 25.8557L13.0318 25.8557C12.9204 25.8822 12.8108 25.9164 12.7036 25.9578L12.7035 25.9578C12.6489 25.9789 12.5992 25.9988 12.5506 26.0209C12.4436 26.0704 12.3401 26.1265 12.2406 26.1892L12.134 26.02M14.8253 26.0208L12.6315 25.7712C12.5755 25.7929 12.5214 25.8145 12.4673 25.8391C12.3524 25.8922 12.241 25.9526 12.134 26.02M12.134 26.02L12.2411 26.1889C12.2205 26.202 12.1991 26.2145 12.1815 26.2248C12.1786 26.2264 12.1759 26.2281 12.1732 26.2296C12.1532 26.2413 12.1377 26.2506 12.1241 26.2598C11.9938 26.3507 11.8714 26.4527 11.7583 26.5645L11.6177 26.4222M12.134 26.02C12.1167 26.031 12.0989 26.0414 12.081 26.0518C12.0573 26.0657 12.0335 26.0796 12.011 26.0948C11.8709 26.1925 11.7393 26.3021 11.6177 26.4222M11.6177 26.4222L11.7591 26.5636C11.7558 26.567 11.7514 26.572 11.7415 26.5838L11.7391 26.5866C11.7308 26.5966 11.7178 26.6121 11.7035 26.627M11.6177 26.4222C11.6067 26.4333 11.5965 26.4455 11.5862 26.4577C11.5773 26.4683 11.5683 26.479 11.5587 26.4891M11.7035 26.627C11.7035 26.6271 11.7034 26.6271 11.7034 26.6272L11.5587 26.4891M11.7035 26.627C11.7035 26.627 11.7036 26.627 11.7036 26.6269L11.5587 26.4891M11.7035 26.627C11.612 26.7233 11.5275 26.8257 11.4507 26.9338M11.5587 26.4891C11.4605 26.5923 11.3698 26.7023 11.2873 26.8185M11.4507 26.9338C11.4508 26.9337 11.4509 26.9336 11.451 26.9334L11.2873 26.8185M11.4507 26.9338C11.4506 26.934 11.4505 26.9341 11.4504 26.9343L11.2873 26.8185M11.4507 26.9338C11.4381 26.9518 11.4253 26.9721 11.4104 26.9961C11.4083 26.9994 11.4062 27.0028 11.404 27.0063C11.3919 27.0259 11.378 27.0483 11.364 27.0694M11.2873 26.8185C11.2686 26.8451 11.2509 26.8736 11.2337 26.9015C11.2209 26.9221 11.2084 26.9423 11.1959 26.9611M11.1959 26.9611L11.3655 27.067C11.365 27.0678 11.3645 27.0686 11.364 27.0694M11.1959 26.9611L11.3623 27.072C11.3629 27.0711 11.3635 27.0702 11.364 27.0694M11.1959 26.9611L12.8907 23.3765M11.364 27.0694C11.3052 27.1639 11.252 27.2617 11.205 27.3624L11.204 27.3645L11.204 27.3645C11.1786 27.4172 11.1568 27.4636 11.1381 27.5111L11.1381 27.5113C11.1301 27.5315 11.1205 27.5519 11.1144 27.5645C11.1133 27.5668 11.1124 27.5689 11.1115 27.5706C11.1048 27.585 11.1018 27.5922 11.1 27.598L11.0551 27.7363H10.9097H9.75036H9.55036V27.5363V24.368V24.2119L9.70184 24.174L12.8907 23.3765M24.8263 25.6496C24.8118 25.6535 24.7973 25.6574 24.7826 25.6611L24.8263 25.6496ZM27.8399 21.8987L27.8733 21.9321L27.9181 21.947L30.6479 22.8566C30.9679 22.9633 31.1838 23.2627 31.1837 23.6V23.6V28.5167C31.1837 28.9493 30.833 29.3 30.4004 29.3H28.2528H28.1106L28.0639 29.4343C27.7895 30.222 27.1702 30.8412 26.3826 31.1156C24.9577 31.612 23.4 30.8593 22.9035 29.4342L22.8567 29.3H22.7146H16.4528H16.3106L16.2639 29.4343C15.9895 30.222 15.3702 30.8412 14.5825 31.1156C13.1576 31.612 11.6 30.8593 11.1035 29.4342L11.0567 29.3H10.9146H8.76703C8.33444 29.3 7.9837 28.9493 7.9837 28.5167L7.9837 23.6L7.98369 23.5995C7.98262 23.238 8.22888 22.9228 8.57981 22.8365L8.58052 22.8363L12.2503 21.9189L12.3041 21.9054L12.3432 21.8663L15.0966 19.1129C15.2435 18.966 15.4427 18.8834 15.6504 18.8834H24.5004C24.7081 18.8834 24.9072 18.966 25.0542 19.1129L27.8399 21.8987ZM12.5004 28.5167C12.5004 29.1702 13.0302 29.7 13.6837 29.7C14.3372 29.7 14.867 29.1702 14.867 28.5167C14.867 27.8632 14.3372 27.3334 13.6837 27.3334C13.0302 27.3334 12.5004 27.8632 12.5004 28.5167ZM24.3004 28.5167C24.3004 29.1702 24.8302 29.7 25.4837 29.7C26.1372 29.7 26.667 29.1702 26.667 28.5167C26.667 27.8632 26.1372 27.3334 25.4837 27.3334C24.8302 27.3334 24.3004 27.8632 24.3004 28.5167Z" fill="black" stroke="#EDC939" stroke-width="0.4"/>
<mask id="path-2-inside-1" fill="white">
<path d="M48.8785 21.9214L45.9285 18.9714C45.5446 18.5876 44.9221 18.5876 44.5381 18.9714L39.3333 24.1762V10.8167C39.3301 8.10267 37.1307 5.9032 34.4167 5.9H23.6V3.93333C23.6 1.76103 21.839 0 19.6667 0C17.4944 0 15.7333 1.76103 15.7333 3.93333V5.9H4.91667C2.20267 5.9032 0.00319583 8.10267 0 10.8167V54.0833C0.00319583 56.7973 2.20267 58.9968 4.91667 59H34.4167C37.1307 58.9968 39.3301 56.7973 39.3333 54.0833V32.8571L48.8785 23.3119C49.2624 22.9279 49.2624 22.3054 48.8785 21.9214ZM34.4167 7.86667C36.0459 7.86667 37.3667 9.18741 37.3667 10.8167V26.1429L35.4 28.1096V10.8167C35.4 10.2736 34.9597 9.83333 34.4167 9.83333H29.6898L28.9523 7.86667H34.4167ZM25.8548 41.9952C25.9381 42.0754 26.035 42.1399 26.1409 42.186C26.1655 42.1978 26.1891 42.2076 26.2147 42.2174C26.3197 42.2576 26.4308 42.2796 26.5431 42.2824H26.55C26.6305 42.2822 26.7108 42.2724 26.7889 42.2529L30.7223 41.2695C30.895 41.2263 31.0527 41.1368 31.1785 41.0109L33.4333 38.7571V45.2333H26.55C26.007 45.2333 25.5667 45.6736 25.5667 46.2167V53.1H5.9V11.8H8.90605L7.92862 14.4049C7.73797 14.9134 7.99573 15.4801 8.50424 15.6708C8.61474 15.7122 8.73188 15.7335 8.85 15.7333H30.4833C31.0264 15.7337 31.4669 15.2937 31.4673 14.7506C31.4674 14.6325 31.4461 14.5154 31.4047 14.4049L30.4273 11.8H33.4333V30.0762L26.8381 36.6715C26.7122 36.7973 26.6228 36.955 26.5795 37.1277L25.5962 41.0611C25.5122 41.3962 25.6104 41.7509 25.8548 41.9952ZM33.4333 48.5904V53.1H28.9238L33.4333 48.5904ZM27.5333 51.7096V47.2H32.0429L27.5333 51.7096ZM11.2464 11.1608L12.4814 7.86667H16.7167C17.2597 7.86667 17.7 7.42638 17.7 6.88333V3.93333C17.7 2.84712 18.5805 1.96667 19.6667 1.96667C20.7529 1.96667 21.6333 2.84712 21.6333 3.93333V6.88333C21.6333 7.42638 22.0736 7.86667 22.6167 7.86667H26.8519L28.0869 11.1608L29.0644 13.7667H10.2689L11.2464 11.1608ZM37.3667 54.0833C37.3667 55.7126 36.0459 57.0333 34.4167 57.0333H4.91667C3.28741 57.0333 1.96667 55.7126 1.96667 54.0833V10.8167C1.96667 9.18741 3.28741 7.86667 4.91667 7.86667H10.3811L9.64355 9.83333H4.91667C4.37362 9.83333 3.93333 10.2736 3.93333 10.8167V54.0833C3.93333 54.6264 4.37362 55.0667 4.91667 55.0667H34.4167C34.9597 55.0667 35.4 54.6264 35.4 54.0833V36.7904L37.3667 34.8238V54.0833ZM37.6548 31.7548L33.7214 35.6881L29.9848 39.4248L27.906 39.944L28.4252 37.8652L35.1119 31.1786L39.0452 27.2452L42.2833 24.0071L43.8429 25.5667L37.6548 31.7548ZM45.2333 24.1762L43.6738 22.6167L45.2333 21.0571L46.7929 22.6167L45.2333 24.1762Z"/>
</mask>
<path d="M48.8785 21.9214L45.9285 18.9714C45.5446 18.5876 44.9221 18.5876 44.5381 18.9714L39.3333 24.1762V10.8167C39.3301 8.10267 37.1307 5.9032 34.4167 5.9H23.6V3.93333C23.6 1.76103 21.839 0 19.6667 0C17.4944 0 15.7333 1.76103 15.7333 3.93333V5.9H4.91667C2.20267 5.9032 0.00319583 8.10267 0 10.8167V54.0833C0.00319583 56.7973 2.20267 58.9968 4.91667 59H34.4167C37.1307 58.9968 39.3301 56.7973 39.3333 54.0833V32.8571L48.8785 23.3119C49.2624 22.9279 49.2624 22.3054 48.8785 21.9214ZM34.4167 7.86667C36.0459 7.86667 37.3667 9.18741 37.3667 10.8167V26.1429L35.4 28.1096V10.8167C35.4 10.2736 34.9597 9.83333 34.4167 9.83333H29.6898L28.9523 7.86667H34.4167ZM25.8548 41.9952C25.9381 42.0754 26.035 42.1399 26.1409 42.186C26.1655 42.1978 26.1891 42.2076 26.2147 42.2174C26.3197 42.2576 26.4308 42.2796 26.5431 42.2824H26.55C26.6305 42.2822 26.7108 42.2724 26.7889 42.2529L30.7223 41.2695C30.895 41.2263 31.0527 41.1368 31.1785 41.0109L33.4333 38.7571V45.2333H26.55C26.007 45.2333 25.5667 45.6736 25.5667 46.2167V53.1H5.9V11.8H8.90605L7.92862 14.4049C7.73797 14.9134 7.99573 15.4801 8.50424 15.6708C8.61474 15.7122 8.73188 15.7335 8.85 15.7333H30.4833C31.0264 15.7337 31.4669 15.2937 31.4673 14.7506C31.4674 14.6325 31.4461 14.5154 31.4047 14.4049L30.4273 11.8H33.4333V30.0762L26.8381 36.6715C26.7122 36.7973 26.6228 36.955 26.5795 37.1277L25.5962 41.0611C25.5122 41.3962 25.6104 41.7509 25.8548 41.9952ZM33.4333 48.5904V53.1H28.9238L33.4333 48.5904ZM27.5333 51.7096V47.2H32.0429L27.5333 51.7096ZM11.2464 11.1608L12.4814 7.86667H16.7167C17.2597 7.86667 17.7 7.42638 17.7 6.88333V3.93333C17.7 2.84712 18.5805 1.96667 19.6667 1.96667C20.7529 1.96667 21.6333 2.84712 21.6333 3.93333V6.88333C21.6333 7.42638 22.0736 7.86667 22.6167 7.86667H26.8519L28.0869 11.1608L29.0644 13.7667H10.2689L11.2464 11.1608ZM37.3667 54.0833C37.3667 55.7126 36.0459 57.0333 34.4167 57.0333H4.91667C3.28741 57.0333 1.96667 55.7126 1.96667 54.0833V10.8167C1.96667 9.18741 3.28741 7.86667 4.91667 7.86667H10.3811L9.64355 9.83333H4.91667C4.37362 9.83333 3.93333 10.2736 3.93333 10.8167V54.0833C3.93333 54.6264 4.37362 55.0667 4.91667 55.0667H34.4167C34.9597 55.0667 35.4 54.6264 35.4 54.0833V36.7904L37.3667 34.8238V54.0833ZM37.6548 31.7548L33.7214 35.6881L29.9848 39.4248L27.906 39.944L28.4252 37.8652L35.1119 31.1786L39.0452 27.2452L42.2833 24.0071L43.8429 25.5667L37.6548 31.7548ZM45.2333 24.1762L43.6738 22.6167L45.2333 21.0571L46.7929 22.6167L45.2333 24.1762Z" fill="black" stroke="#EDC939" stroke-width="0.8" mask="url(#path-2-inside-1)"/>
<path d="M8.9666 35.2V33.6333H25.2833V35.2H8.9666Z" fill="black" stroke="#EDC939" stroke-width="0.4"/>
<path d="M8.9666 39.1334V37.5667H22.3333V39.1334H8.9666Z" fill="black" stroke="#EDC939" stroke-width="0.4"/>
<path d="M8.9666 43.0668V41.5001H22.3333V43.0668H8.9666Z" fill="black" stroke="#EDC939" stroke-width="0.4"/>
<path d="M8.9666 46.9999V45.4332H22.3333V46.9999H8.9666Z" fill="black" stroke="#EDC939" stroke-width="0.4"/>
</svg>
