<svg width="51" height="51" viewBox="0 0 51 51" fill="none" xmlns="http://www.w3.org/2000/svg">
<path d="M15.2556 22.1348L15.2556 22.1352L15.2537 22.1677C15.1317 24.3061 16.3293 26.3124 18.3111 27.2753L18.3114 27.2755L18.3312 27.2851C18.3314 27.2852 18.3316 27.2853 18.3318 27.2854C19.0776 27.6423 19.6888 28.2304 20.0747 28.9616C20.0748 28.9619 20.075 28.9622 20.0751 28.9625L20.0825 28.976L20.0836 28.978L20.0836 28.978C21.0805 30.8763 23.1446 32.03 25.3482 31.9144L15.2556 22.1348ZM15.2556 22.1348C15.2996 21.3265 15.0748 20.5265 14.6171 19.8595C13.3869 18.0653 13.3869 15.6992 14.6171 13.9046L14.4934 13.8197M15.2556 22.1348L46.4377 22.1672L46.4359 22.1371L46.4358 22.1361C46.3923 21.328 46.6166 20.528 47.0749 19.8604C48.305 18.0662 48.305 15.7005 47.0753 13.9059C46.6176 13.2389 46.3923 12.4395 46.4358 11.6312L46.4359 11.6307L46.4377 11.5983L46.5875 11.6068L46.4377 11.5982C46.5602 9.45941 45.3622 7.45355 43.3785 6.4897L43.377 6.48895L43.3608 6.48084C43.3604 6.48065 43.36 6.48045 43.3596 6.48026C42.6153 6.12417 42.0054 5.53872 41.6192 4.8092L41.6182 4.80729L41.6182 4.80728L41.6083 4.78793C41.6082 4.78768 41.6081 4.78743 41.6079 4.78718C40.6104 2.88936 38.5437 1.73631 36.344 1.85155C36.344 1.85155 36.3439 1.85155 36.3439 1.85155L36.3097 1.85338C35.4739 1.90021 34.6436 1.68902 33.9321 1.24857H33.9313L33.8948 1.22574C32.0297 0.0591544 29.6622 0.0590786 27.797 1.22552C27.0771 1.68113 26.2327 1.90053 25.3819 1.85292C25.3819 1.85292 25.3818 1.85292 25.3818 1.85291L25.3479 1.85108C23.1475 1.73447 21.081 2.88913 20.0841 4.78699L20.0828 4.78936L20.0828 4.78935L20.0755 4.80263C19.6891 5.53536 19.0771 6.12398 18.3302 6.48129L18.33 6.4814L18.3116 6.49016C16.3298 7.45303 15.1318 9.45922 15.2542 11.598C15.2542 11.5981 15.2542 11.5982 15.2542 11.5982L15.256 11.6283L15.2561 11.6294C15.2996 12.4375 15.0753 13.2375 14.617 13.9047L14.4934 13.8197M41.6153 28.9638L41.6154 28.9638C42.0025 28.2306 42.6152 27.6414 43.3633 27.2838C43.3637 27.2836 43.3641 27.2834 43.3646 27.2832L43.3788 27.2761L43.3803 27.2753C45.362 26.312 46.5601 24.3064 46.4377 22.1677L41.6153 28.9638ZM41.6153 28.9638L41.6127 28.9692M41.6153 28.9638L41.6127 28.9692M14.4934 13.8197C13.2281 15.6655 13.2281 18.0991 14.4934 19.9443C14.9324 20.5842 15.148 21.3515 15.1058 22.1267L15.1044 11.6068L15.1063 11.6374C15.148 12.4126 14.9329 13.1799 14.4934 13.8197ZM41.6127 28.9692L41.6089 28.9773C40.6091 30.8774 38.543 32.0309 36.3442 31.9144M41.6127 28.9692L36.3442 31.9144M36.3442 31.9144C36.3441 31.9144 36.3441 31.9144 36.344 31.9144L36.3102 31.9126L36.3442 31.9144ZM25.3822 31.9126L25.3484 31.9144L36.3099 31.9125C35.4592 31.865 34.6147 32.0844 33.8948 32.5405C32.0298 33.7068 29.6626 33.7068 27.7975 32.5405C27.0777 32.0844 26.2332 31.865 25.3825 31.9125C25.3824 31.9126 25.3823 31.9126 25.3822 31.9126ZM15.9326 14.8132L15.9063 14.8516V14.8531C15.0774 16.0942 15.0857 17.7168 15.9312 18.9507L15.9312 18.9508C16.5904 19.9107 16.9141 21.0621 16.8514 22.2252L16.8496 22.2585C16.8496 22.2586 16.8496 22.2586 16.8496 22.2587C16.7635 23.7555 17.6145 25.1583 19.0087 25.8363C19.009 25.8364 19.0092 25.8365 19.0094 25.8367L19.0255 25.8447L19.0255 25.8447L19.0278 25.8458C20.0813 26.3507 20.944 27.1809 21.4881 28.2141L21.4887 28.2153L21.4985 28.2334L21.4987 28.2338C22.2407 29.6018 23.7097 30.4149 25.2626 30.3168L25.2944 30.3155L25.2965 30.3154C25.4011 30.3095 25.5059 30.3068 25.6104 30.3068H25.6105C26.6864 30.3059 27.7406 30.6112 28.6494 31.1871L28.6502 31.1876C29.9933 32.0275 31.6982 32.0275 33.0413 31.1876L33.042 31.1872C34.0416 30.5543 35.2142 30.2494 36.3953 30.3154C36.3953 30.3154 36.3954 30.3154 36.3954 30.3154L36.4282 30.3172L36.4287 30.3172C38.0018 30.4014 39.4827 29.586 40.1928 28.2343L40.1941 28.2316L40.2004 28.2192C40.7458 27.1832 41.6102 26.3509 42.6656 25.8448C42.6659 25.8447 42.6662 25.8446 42.6664 25.8444L42.679 25.8386L42.679 25.8386L42.6811 25.8376C44.0758 25.1592 44.9271 23.7561 44.8414 22.2586L44.8414 22.2585L44.8396 22.227C44.8396 22.227 44.8396 22.227 44.8396 22.227C44.7765 21.0639 45.0997 19.9125 45.7589 18.9517C46.6141 17.7054 46.6146 16.0616 45.7598 14.8147L45.7597 14.8146C45.1002 13.8543 44.7765 12.7034 44.8396 11.5403L44.8414 11.5069C44.9271 10.0096 44.0761 8.60721 42.6823 7.92921C42.6821 7.92908 42.6818 7.92896 42.6816 7.92883L42.6673 7.92169L42.6673 7.92167L42.665 7.92057C41.611 7.41569 40.7479 6.58505 40.2029 5.55135L40.2027 5.55113L40.1905 5.52794C40.1904 5.52785 40.1904 5.52777 40.1903 5.52769C39.4824 4.17977 38.0063 3.36604 36.4284 3.44869L36.4279 3.44871L36.3945 3.45057C35.2138 3.51606 34.0416 3.21116 33.0424 2.57878L33.0418 2.57835C31.6982 1.73795 29.9933 1.73795 28.6497 2.57835L28.6489 2.57883C27.6498 3.21207 26.4777 3.51651 25.2966 3.45009L25.2944 3.45L25.2627 3.44869C25.2625 3.44868 25.2622 3.44866 25.2619 3.44865C23.6915 3.36536 22.2087 4.18016 21.4991 5.53165L21.4899 5.54911C20.9449 6.58416 20.0809 7.41616 19.0255 7.92149L19.0248 7.92185L19.0094 7.9293C17.6333 8.57511 16.7809 9.98583 16.8504 11.5047L16.8505 11.5064L16.8523 11.5385C16.8523 11.5385 16.8523 11.5386 16.8523 11.5387C16.9154 12.7018 16.5921 13.8531 15.9326 14.8132Z" fill="black" stroke="#EDC939" stroke-width="0.3"/>
<path d="M24.7989 26.5717L24.7988 26.5717C24.4241 26.3378 24.3101 25.8448 24.5439 25.4699L35.7917 7.45039L35.7925 7.44912C35.9424 7.20355 36.2125 7.05755 36.4999 7.06653C36.7873 7.07551 37.0481 7.23797 37.1823 7.49242L37.1823 7.49251C37.3166 7.7465 37.3038 8.05336 37.1491 8.29593L37.1483 8.29716L25.9001 26.3167C25.6662 26.6912 25.1731 26.8054 24.7989 26.5717Z" fill="black" stroke="#EDC939" stroke-width="0.3"/>
<path d="M29.7708 12.1478C29.7708 14.7207 27.9387 16.7797 25.7273 16.7797C23.5159 16.7797 21.6842 14.7207 21.6842 12.1478C21.6842 9.57484 23.5159 7.51633 25.7273 7.51633C27.9387 7.51633 29.7708 9.57486 29.7708 12.1478ZM28.1718 12.1478C28.1718 10.5093 27.1055 9.11538 25.7273 9.11538C24.3495 9.11538 23.2832 10.5098 23.2832 12.1478C23.2832 13.7857 24.3495 15.1807 25.7273 15.1807C27.1055 15.1807 28.1718 13.7862 28.1718 12.1478Z" fill="black" stroke="#EDC939" stroke-width="0.3"/>
<path d="M35.9646 26.2504C33.7532 26.2504 31.9215 24.1919 31.9215 21.6189C31.9215 19.0455 33.7532 16.9875 35.965 16.9875C38.1764 16.9875 40.0081 19.0469 40.0081 21.6189C40.0081 24.1914 38.176 26.2504 35.9646 26.2504ZM35.9646 24.6513C37.3428 24.6513 38.4091 23.2574 38.4091 21.6189C38.4091 19.9795 37.3428 18.5865 35.9646 18.5865C34.5868 18.5865 33.5205 19.9805 33.5205 21.6189C33.5205 23.2573 34.5868 24.6513 35.9646 24.6513Z" fill="black" stroke="#EDC939" stroke-width="0.3"/>
<path d="M50.7462 37.46L50.746 37.4597C49.528 35.298 46.8269 34.4747 44.6104 35.5895L44.6071 35.5911L44.6071 35.5911L37.169 39.1054L37.0403 39.1663L36.9728 39.0409C35.9713 37.1785 34.0502 35.9929 31.9359 35.9332L50.7462 37.46ZM50.7462 37.46C50.9546 37.828 50.8399 38.2953 50.4843 38.5248L50.4842 38.5249L33.549 49.4798C33.549 49.4798 33.5489 49.4798 33.5489 49.4799C33.5177 49.4999 33.4847 49.5178 33.4502 49.5335L33.4497 49.5337C31.8091 50.2869 30.0251 50.6758 28.22 50.6749H28.2198C27.3676 50.6754 26.5178 50.588 25.6839 50.4136C25.6634 50.409 25.6478 50.4054 25.6331 50.401L25.6312 50.4005L13.9511 47.1222L50.7462 37.46ZM32.7284 48.1052L32.7181 48.1098C30.6266 49.0538 28.2907 49.3142 26.0427 48.8545L26.0322 48.8523L26.0323 48.8519L14.383 45.5829L14.3827 45.5828C13.1095 45.2225 11.7457 45.372 10.5806 45.9985L10.5803 45.9986L9.58074 46.5336L9.35289 46.6556L9.36001 46.3973L9.62799 36.6735L9.63013 36.5958L9.69485 36.5527C12.9075 34.4157 17.0282 34.1961 20.4501 35.979L21.1483 36.3408C22.3495 36.961 23.6747 37.3035 25.0259 37.3423L32.7284 48.1052ZM32.7284 48.1052L32.7379 48.0991L48.7494 37.7415L48.9115 37.6366L48.7699 37.5055C47.8345 36.6393 46.4588 36.4466 45.321 37.022C45.3205 37.0222 45.32 37.0225 45.3195 37.0227L45.301 37.0316L45.3002 37.0319L37.6733 40.6363L37.5696 40.6853L37.5897 40.7983C37.6602 41.1944 37.6905 41.5973 37.6792 41.9996C37.6671 42.4323 37.3129 42.777 36.8804 42.7774H36.8557H36.8537L25.5706 42.4668C25.1291 42.4547 24.7813 42.087 24.7934 41.6454C24.8055 41.2038 25.1728 40.856 25.6143 40.8681L35.8421 41.1496L36.0315 41.1548L35.9931 40.9692C35.5877 39.0114 33.8907 37.5886 31.8924 37.5314L31.8923 37.5314L25.026 37.3423L32.7284 48.1052ZM25.0695 35.7441L31.9358 35.9332L13.9508 47.1221C13.0748 46.8743 12.1368 46.9769 11.3349 47.4083C11.3348 47.4084 11.3347 47.4084 11.3347 47.4085L9.37887 48.4557L9.30208 48.4968L9.29973 48.5838L9.27841 49.3742C9.26631 49.8068 8.91218 50.1516 8.47916 50.1519H8.45492L0.927585 49.9448L0.927568 49.9448C0.486088 49.9327 0.138212 49.565 0.150307 49.1233C0.150307 49.1233 0.150307 49.1233 0.150308 49.1233L0.605132 32.5999L0.605132 32.5999C0.617235 32.1583 0.984553 31.8105 1.42608 31.8226C1.42609 31.8226 1.42609 31.8226 1.4261 31.8226L8.95549 32.0299L8.95551 32.0299C9.39699 32.042 9.74486 32.4097 9.73277 32.8513C9.73277 32.8513 9.73277 32.8513 9.73277 32.8513L9.68919 34.4341L9.68215 34.6898L9.90874 34.5711C13.4389 32.7218 17.6511 32.7172 21.1849 34.5592L21.1852 34.5594L21.8839 34.9215L21.8842 34.9216C22.8708 35.4308 23.9596 35.7123 25.0694 35.744L25.0695 35.7441ZM1.77496 48.218L1.77084 48.3679L1.92077 48.372L7.5516 48.5273L7.70155 48.5315L7.70568 48.3815L8.10858 33.7567L8.11271 33.6067L7.96276 33.6026L2.33146 33.4478L2.18152 33.4436L2.1774 33.5936L1.77496 48.218Z" fill="black" stroke="#EDC939" stroke-width="0.3"/>
</svg>
