<svg width="80" height="80" viewBox="0 0 80 80" fill="none" xmlns="http://www.w3.org/2000/svg">
<rect width="80" height="80" fill="#372120"/>
<mask id="path-2-inside-1" fill="white">
<path fill-rule="evenodd" clip-rule="evenodd" d="M65.9285 27.9714L68.8785 30.9214C69.2624 31.3054 69.2624 31.9279 68.8785 32.3119L59.3333 41.8571V63.0833C59.3301 65.7973 57.1307 67.9968 54.4167 68H24.9167C22.2027 67.9968 20.0032 65.7973 20 63.0833V19.8167C20.0032 17.1027 22.2027 14.9032 24.9167 14.9H35.7333V12.9333C35.7333 10.761 37.4944 9 39.6667 9C41.839 9 43.6 10.761 43.6 12.9333V14.9H54.4167C57.1307 14.9032 59.3301 17.1027 59.3333 19.8167V33.1762L64.5381 27.9714C64.9221 27.5876 65.5446 27.5876 65.9285 27.9714ZM57.3667 19.8167C57.3667 18.1874 56.0459 16.8667 54.4167 16.8667H48.9523L49.6898 18.8333H54.4167C54.9597 18.8333 55.4 19.2736 55.4 19.8167V37.1096L57.3667 35.1429V19.8167ZM46.1409 51.186C46.035 51.1399 45.9381 51.0754 45.8548 50.9952C45.6104 50.7509 45.5122 50.3962 45.5962 50.0611L46.5795 46.1277C46.6228 45.955 46.7122 45.7973 46.8381 45.6715L53.4333 39.0762V20.8H50.4273L51.4047 23.4049C51.4461 23.5154 51.4674 23.6325 51.4673 23.7506C51.4669 24.2937 51.0264 24.7337 50.4833 24.7333H28.85C28.7319 24.7335 28.6147 24.7122 28.5042 24.6708C27.9957 24.4801 27.738 23.9134 27.9286 23.4049L28.906 20.8H25.9V62.1H45.5667V55.2167C45.5667 54.6736 46.007 54.2333 46.55 54.2333H53.4333V47.7571L51.1785 50.0109C51.0527 50.1368 50.895 50.2263 50.7223 50.2695L46.7889 51.2529C46.7108 51.2724 46.6305 51.2822 46.55 51.2824H46.5431C46.4308 51.2796 46.3197 51.2576 46.2147 51.2174C46.1891 51.2076 46.1655 51.1978 46.1409 51.186ZM53.4333 62.1V57.5904L48.9238 62.1H53.4333ZM47.5333 56.2V60.7096L52.0429 56.2H47.5333ZM32.4814 16.8667L31.2464 20.1608L30.2689 22.7667H49.0644L48.0869 20.1608L46.8519 16.8667H42.6167C42.0736 16.8667 41.6333 16.4264 41.6333 15.8833V12.9333C41.6333 11.8471 40.7529 10.9667 39.6667 10.9667C38.5805 10.9667 37.7 11.8471 37.7 12.9333V15.8833C37.7 16.4264 37.2597 16.8667 36.7167 16.8667H32.4814ZM54.4167 66.0333C56.0459 66.0333 57.3667 64.7126 57.3667 63.0833V43.8238L55.4 45.7904V63.0833C55.4 63.6264 54.9597 64.0667 54.4167 64.0667H24.9167C24.3736 64.0667 23.9333 63.6264 23.9333 63.0833V19.8167C23.9333 19.2736 24.3736 18.8333 24.9167 18.8333H29.6435L30.3811 16.8667H24.9167C23.2874 16.8667 21.9667 18.1874 21.9667 19.8167V63.0833C21.9667 64.7126 23.2874 66.0333 24.9167 66.0333H54.4167ZM53.7214 44.6881L57.6548 40.7548L63.8429 34.5667L62.2833 33.0071L59.0452 36.2452L55.1119 40.1786L48.4252 46.8652L47.906 48.944L49.9848 48.4248L53.7214 44.6881ZM63.6738 31.6167L65.2333 33.1762L66.7929 31.6167L65.2333 30.0571L63.6738 31.6167ZM47.9811 30.7573L50.7109 31.6669C51.1125 31.8007 51.3836 32.1766 51.3835 32.6V37.5167C51.3835 38.0598 50.9432 38.5 50.4001 38.5H48.2525C47.958 39.3455 47.2934 40.0099 46.4481 40.3045C44.9189 40.8372 43.2472 40.0294 42.7144 38.5H36.4525C36.158 39.3455 35.4934 40.0099 34.6481 40.3045C33.1189 40.8372 31.4472 40.0294 30.9144 38.5H28.7668C28.2237 38.5 27.7835 38.0598 27.7835 37.5167V32.6C27.7821 32.1464 28.0912 31.7507 28.5318 31.6423L32.2016 30.7248L34.9549 27.9715C35.1393 27.7871 35.3893 27.6834 35.6501 27.6834H44.5001C44.761 27.6834 45.011 27.7871 45.1953 27.9715L47.9811 30.7573ZM32.7001 37.5167C32.7001 38.0598 33.1404 38.5 33.6835 38.5C34.2265 38.5 34.6668 38.0598 34.6668 37.5167C34.6668 36.9737 34.2265 36.5334 33.6835 36.5334C33.1404 36.5334 32.7001 36.9737 32.7001 37.5167ZM44.5001 37.5167C44.5001 38.0598 44.9404 38.5 45.4835 38.5C46.0265 38.5 46.4668 38.0598 46.4668 37.5167C46.4668 36.9737 46.0265 36.5334 45.4835 36.5334C44.9404 36.5334 44.5001 36.9737 44.5001 37.5167ZM48.2653 36.5334H49.4168V33.309L47.1394 32.5499C46.9947 32.5011 46.8631 32.4197 46.7549 32.3119L44.093 29.65H36.0572L33.3953 32.3119C33.2695 32.4378 33.1118 32.5273 32.9391 32.5705L29.7501 33.368V36.5363H30.9095C30.9165 36.5148 30.9255 36.4957 30.9344 36.4769C30.9405 36.464 30.9465 36.4512 30.9518 36.438C30.9734 36.3829 30.998 36.3308 31.0235 36.2777C31.0744 36.1688 31.1319 36.0631 31.1956 35.9611C31.2081 35.9423 31.2207 35.9221 31.2334 35.9015C31.2507 35.8736 31.2684 35.8451 31.2871 35.8185C31.3695 35.7023 31.4603 35.5923 31.5585 35.4891C31.5681 35.479 31.577 35.4683 31.5859 35.4577C31.5962 35.4454 31.6064 35.4333 31.6175 35.4222C31.739 35.3021 31.8707 35.1925 32.0108 35.0948C32.0333 35.0796 32.057 35.0657 32.0808 35.0518C32.0986 35.0414 32.1164 35.031 32.1337 35.02C32.2408 34.9525 32.3521 34.8922 32.4671 34.8391C32.5212 34.8145 32.5752 34.7929 32.6313 34.7712C32.7467 34.7266 32.865 34.6897 32.9853 34.6611C33 34.6574 33.0145 34.6535 33.029 34.6496C33.0679 34.6392 33.1064 34.6289 33.1466 34.6218C33.5034 34.5486 33.8714 34.5486 34.2282 34.6218C34.2683 34.6289 34.3069 34.6392 34.3458 34.6496C34.3603 34.6535 34.3748 34.6574 34.3895 34.6611C34.5098 34.6897 34.6281 34.7266 34.7435 34.7712C34.7995 34.7929 34.8546 34.8145 34.9087 34.8391C35.0231 34.8924 35.1341 34.9528 35.2411 35.02C35.2583 35.031 35.2762 35.0414 35.294 35.0518C35.3177 35.0657 35.3415 35.0796 35.364 35.0948C35.5041 35.1925 35.6357 35.3021 35.7573 35.4222C35.7684 35.4333 35.7786 35.4454 35.7888 35.4577C35.7978 35.4683 35.8067 35.479 35.8163 35.4891C35.9145 35.5923 36.0052 35.7023 36.0877 35.8185C36.1143 35.8537 36.1378 35.8927 36.1612 35.9314C36.1672 35.9413 36.1731 35.9512 36.1792 35.9611C36.2428 36.0631 36.3004 36.1688 36.3512 36.2777C36.3565 36.289 36.3618 36.3003 36.3671 36.3116C36.3866 36.3532 36.406 36.3947 36.423 36.438C36.4294 36.4556 36.437 36.4718 36.4444 36.4877C36.452 36.5038 36.4594 36.5195 36.4653 36.5363H42.7065C42.7135 36.5148 42.7226 36.4957 42.7314 36.4769C42.7376 36.464 42.7436 36.4512 42.7488 36.438C42.7704 36.3829 42.795 36.3308 42.8206 36.2777C42.8715 36.1688 42.929 36.0631 42.9927 35.9611C43.0052 35.9423 43.0177 35.9221 43.0305 35.9015C43.0478 35.8736 43.0655 35.8451 43.0841 35.8185C43.1666 35.7023 43.2573 35.5923 43.3555 35.4891C43.3651 35.479 43.3741 35.4683 43.383 35.4577C43.3933 35.4454 43.4035 35.4333 43.4145 35.4222C43.5361 35.3021 43.6677 35.1925 43.8079 35.0948C43.8303 35.0796 43.8541 35.0657 43.8779 35.0518C43.8957 35.0414 43.9135 35.031 43.9308 35.02C44.0378 34.9525 44.1492 34.8922 44.2641 34.8391C44.3182 34.8145 44.3723 34.7929 44.4283 34.7712C44.5438 34.7266 44.662 34.6897 44.7823 34.6611C44.797 34.6574 44.8116 34.6535 44.826 34.6496C44.8649 34.6392 44.9035 34.6289 44.9436 34.6218C45.3004 34.5486 45.6684 34.5486 46.0253 34.6218C46.0654 34.6289 46.1039 34.6392 46.1428 34.6496C46.1573 34.6535 46.1719 34.6574 46.1865 34.6611C46.3069 34.6897 46.4251 34.7266 46.5405 34.7712C46.5966 34.7929 46.6517 34.8145 46.7057 34.8391C46.8202 34.8924 46.9312 34.9528 47.0381 35.02C47.0683 35.0392 47.1002 35.0567 47.1321 35.0742C47.1427 35.0801 47.1534 35.0859 47.164 35.0918C47.3041 35.1895 47.4357 35.2992 47.5573 35.4193C47.5684 35.4303 47.5786 35.4425 47.5888 35.4547C47.5977 35.4654 47.6067 35.4761 47.6163 35.4861C47.7145 35.5894 47.8052 35.6994 47.8877 35.8155C47.9143 35.8508 47.9378 35.8897 47.9612 35.9285C47.9672 35.9384 47.9731 35.9483 47.9792 35.9581C48.0428 36.0601 48.1003 36.1659 48.1512 36.2748C48.1565 36.2861 48.1618 36.2974 48.1671 36.3087C48.1866 36.3503 48.206 36.3917 48.223 36.435C48.2294 36.4527 48.237 36.4688 48.2444 36.4848C48.252 36.5008 48.2594 36.5166 48.2653 36.5334Z"/>
</mask>
<path fill-rule="evenodd" clip-rule="evenodd" d="M65.9285 27.9714L68.8785 30.9214C69.2624 31.3054 69.2624 31.9279 68.8785 32.3119L59.3333 41.8571V63.0833C59.3301 65.7973 57.1307 67.9968 54.4167 68H24.9167C22.2027 67.9968 20.0032 65.7973 20 63.0833V19.8167C20.0032 17.1027 22.2027 14.9032 24.9167 14.9H35.7333V12.9333C35.7333 10.761 37.4944 9 39.6667 9C41.839 9 43.6 10.761 43.6 12.9333V14.9H54.4167C57.1307 14.9032 59.3301 17.1027 59.3333 19.8167V33.1762L64.5381 27.9714C64.9221 27.5876 65.5446 27.5876 65.9285 27.9714ZM57.3667 19.8167C57.3667 18.1874 56.0459 16.8667 54.4167 16.8667H48.9523L49.6898 18.8333H54.4167C54.9597 18.8333 55.4 19.2736 55.4 19.8167V37.1096L57.3667 35.1429V19.8167ZM46.1409 51.186C46.035 51.1399 45.9381 51.0754 45.8548 50.9952C45.6104 50.7509 45.5122 50.3962 45.5962 50.0611L46.5795 46.1277C46.6228 45.955 46.7122 45.7973 46.8381 45.6715L53.4333 39.0762V20.8H50.4273L51.4047 23.4049C51.4461 23.5154 51.4674 23.6325 51.4673 23.7506C51.4669 24.2937 51.0264 24.7337 50.4833 24.7333H28.85C28.7319 24.7335 28.6147 24.7122 28.5042 24.6708C27.9957 24.4801 27.738 23.9134 27.9286 23.4049L28.906 20.8H25.9V62.1H45.5667V55.2167C45.5667 54.6736 46.007 54.2333 46.55 54.2333H53.4333V47.7571L51.1785 50.0109C51.0527 50.1368 50.895 50.2263 50.7223 50.2695L46.7889 51.2529C46.7108 51.2724 46.6305 51.2822 46.55 51.2824H46.5431C46.4308 51.2796 46.3197 51.2576 46.2147 51.2174C46.1891 51.2076 46.1655 51.1978 46.1409 51.186ZM53.4333 62.1V57.5904L48.9238 62.1H53.4333ZM47.5333 56.2V60.7096L52.0429 56.2H47.5333ZM32.4814 16.8667L31.2464 20.1608L30.2689 22.7667H49.0644L48.0869 20.1608L46.8519 16.8667H42.6167C42.0736 16.8667 41.6333 16.4264 41.6333 15.8833V12.9333C41.6333 11.8471 40.7529 10.9667 39.6667 10.9667C38.5805 10.9667 37.7 11.8471 37.7 12.9333V15.8833C37.7 16.4264 37.2597 16.8667 36.7167 16.8667H32.4814ZM54.4167 66.0333C56.0459 66.0333 57.3667 64.7126 57.3667 63.0833V43.8238L55.4 45.7904V63.0833C55.4 63.6264 54.9597 64.0667 54.4167 64.0667H24.9167C24.3736 64.0667 23.9333 63.6264 23.9333 63.0833V19.8167C23.9333 19.2736 24.3736 18.8333 24.9167 18.8333H29.6435L30.3811 16.8667H24.9167C23.2874 16.8667 21.9667 18.1874 21.9667 19.8167V63.0833C21.9667 64.7126 23.2874 66.0333 24.9167 66.0333H54.4167ZM53.7214 44.6881L57.6548 40.7548L63.8429 34.5667L62.2833 33.0071L59.0452 36.2452L55.1119 40.1786L48.4252 46.8652L47.906 48.944L49.9848 48.4248L53.7214 44.6881ZM63.6738 31.6167L65.2333 33.1762L66.7929 31.6167L65.2333 30.0571L63.6738 31.6167ZM47.9811 30.7573L50.7109 31.6669C51.1125 31.8007 51.3836 32.1766 51.3835 32.6V37.5167C51.3835 38.0598 50.9432 38.5 50.4001 38.5H48.2525C47.958 39.3455 47.2934 40.0099 46.4481 40.3045C44.9189 40.8372 43.2472 40.0294 42.7144 38.5H36.4525C36.158 39.3455 35.4934 40.0099 34.6481 40.3045C33.1189 40.8372 31.4472 40.0294 30.9144 38.5H28.7668C28.2237 38.5 27.7835 38.0598 27.7835 37.5167V32.6C27.7821 32.1464 28.0912 31.7507 28.5318 31.6423L32.2016 30.7248L34.9549 27.9715C35.1393 27.7871 35.3893 27.6834 35.6501 27.6834H44.5001C44.761 27.6834 45.011 27.7871 45.1953 27.9715L47.9811 30.7573ZM32.7001 37.5167C32.7001 38.0598 33.1404 38.5 33.6835 38.5C34.2265 38.5 34.6668 38.0598 34.6668 37.5167C34.6668 36.9737 34.2265 36.5334 33.6835 36.5334C33.1404 36.5334 32.7001 36.9737 32.7001 37.5167ZM44.5001 37.5167C44.5001 38.0598 44.9404 38.5 45.4835 38.5C46.0265 38.5 46.4668 38.0598 46.4668 37.5167C46.4668 36.9737 46.0265 36.5334 45.4835 36.5334C44.9404 36.5334 44.5001 36.9737 44.5001 37.5167ZM48.2653 36.5334H49.4168V33.309L47.1394 32.5499C46.9947 32.5011 46.8631 32.4197 46.7549 32.3119L44.093 29.65H36.0572L33.3953 32.3119C33.2695 32.4378 33.1118 32.5273 32.9391 32.5705L29.7501 33.368V36.5363H30.9095C30.9165 36.5148 30.9255 36.4957 30.9344 36.4769C30.9405 36.464 30.9465 36.4512 30.9518 36.438C30.9734 36.3829 30.998 36.3308 31.0235 36.2777C31.0744 36.1688 31.1319 36.0631 31.1956 35.9611C31.2081 35.9423 31.2207 35.9221 31.2334 35.9015C31.2507 35.8736 31.2684 35.8451 31.2871 35.8185C31.3695 35.7023 31.4603 35.5923 31.5585 35.4891C31.5681 35.479 31.577 35.4683 31.5859 35.4577C31.5962 35.4454 31.6064 35.4333 31.6175 35.4222C31.739 35.3021 31.8707 35.1925 32.0108 35.0948C32.0333 35.0796 32.057 35.0657 32.0808 35.0518C32.0986 35.0414 32.1164 35.031 32.1337 35.02C32.2408 34.9525 32.3521 34.8922 32.4671 34.8391C32.5212 34.8145 32.5752 34.7929 32.6313 34.7712C32.7467 34.7266 32.865 34.6897 32.9853 34.6611C33 34.6574 33.0145 34.6535 33.029 34.6496C33.0679 34.6392 33.1064 34.6289 33.1466 34.6218C33.5034 34.5486 33.8714 34.5486 34.2282 34.6218C34.2683 34.6289 34.3069 34.6392 34.3458 34.6496C34.3603 34.6535 34.3748 34.6574 34.3895 34.6611C34.5098 34.6897 34.6281 34.7266 34.7435 34.7712C34.7995 34.7929 34.8546 34.8145 34.9087 34.8391C35.0231 34.8924 35.1341 34.9528 35.2411 35.02C35.2583 35.031 35.2762 35.0414 35.294 35.0518C35.3177 35.0657 35.3415 35.0796 35.364 35.0948C35.5041 35.1925 35.6357 35.3021 35.7573 35.4222C35.7684 35.4333 35.7786 35.4454 35.7888 35.4577C35.7978 35.4683 35.8067 35.479 35.8163 35.4891C35.9145 35.5923 36.0052 35.7023 36.0877 35.8185C36.1143 35.8537 36.1378 35.8927 36.1612 35.9314C36.1672 35.9413 36.1731 35.9512 36.1792 35.9611C36.2428 36.0631 36.3004 36.1688 36.3512 36.2777C36.3565 36.289 36.3618 36.3003 36.3671 36.3116C36.3866 36.3532 36.406 36.3947 36.423 36.438C36.4294 36.4556 36.437 36.4718 36.4444 36.4877C36.452 36.5038 36.4594 36.5195 36.4653 36.5363H42.7065C42.7135 36.5148 42.7226 36.4957 42.7314 36.4769C42.7376 36.464 42.7436 36.4512 42.7488 36.438C42.7704 36.3829 42.795 36.3308 42.8206 36.2777C42.8715 36.1688 42.929 36.0631 42.9927 35.9611C43.0052 35.9423 43.0177 35.9221 43.0305 35.9015C43.0478 35.8736 43.0655 35.8451 43.0841 35.8185C43.1666 35.7023 43.2573 35.5923 43.3555 35.4891C43.3651 35.479 43.3741 35.4683 43.383 35.4577C43.3933 35.4454 43.4035 35.4333 43.4145 35.4222C43.5361 35.3021 43.6677 35.1925 43.8079 35.0948C43.8303 35.0796 43.8541 35.0657 43.8779 35.0518C43.8957 35.0414 43.9135 35.031 43.9308 35.02C44.0378 34.9525 44.1492 34.8922 44.2641 34.8391C44.3182 34.8145 44.3723 34.7929 44.4283 34.7712C44.5438 34.7266 44.662 34.6897 44.7823 34.6611C44.797 34.6574 44.8116 34.6535 44.826 34.6496C44.8649 34.6392 44.9035 34.6289 44.9436 34.6218C45.3004 34.5486 45.6684 34.5486 46.0253 34.6218C46.0654 34.6289 46.1039 34.6392 46.1428 34.6496C46.1573 34.6535 46.1719 34.6574 46.1865 34.6611C46.3069 34.6897 46.4251 34.7266 46.5405 34.7712C46.5966 34.7929 46.6517 34.8145 46.7057 34.8391C46.8202 34.8924 46.9312 34.9528 47.0381 35.02C47.0683 35.0392 47.1002 35.0567 47.1321 35.0742C47.1427 35.0801 47.1534 35.0859 47.164 35.0918C47.3041 35.1895 47.4357 35.2992 47.5573 35.4193C47.5684 35.4303 47.5786 35.4425 47.5888 35.4547C47.5977 35.4654 47.6067 35.4761 47.6163 35.4861C47.7145 35.5894 47.8052 35.6994 47.8877 35.8155C47.9143 35.8508 47.9378 35.8897 47.9612 35.9285C47.9672 35.9384 47.9731 35.9483 47.9792 35.9581C48.0428 36.0601 48.1003 36.1659 48.1512 36.2748C48.1565 36.2861 48.1618 36.2974 48.1671 36.3087C48.1866 36.3503 48.206 36.3917 48.223 36.435C48.2294 36.4527 48.237 36.4688 48.2444 36.4848C48.252 36.5008 48.2594 36.5166 48.2653 36.5334Z" fill="white"/>
<path d="M68.8785 30.9214L69.1614 30.6387L69.1614 30.6386L68.8785 30.9214ZM65.9285 27.9714L66.2114 27.6886L66.2113 27.6886L65.9285 27.9714ZM68.8785 32.3119L69.1614 32.5947L69.1614 32.5947L68.8785 32.3119ZM59.3333 41.8571L59.0505 41.5743L58.9333 41.6914V41.8571H59.3333ZM59.3333 63.0833L59.7333 63.0838V63.0833H59.3333ZM54.4167 68L54.4167 68.4L54.4171 68.4L54.4167 68ZM24.9167 68L24.9162 68.4H24.9167V68ZM20 63.0833L19.6 63.0833L19.6 63.0838L20 63.0833ZM20 19.8167L19.6 19.8162V19.8167H20ZM24.9167 14.9L24.9167 14.5L24.9162 14.5L24.9167 14.9ZM35.7333 14.9V15.3H36.1333V14.9H35.7333ZM43.6 14.9H43.2V15.3H43.6V14.9ZM54.4167 14.9L54.4171 14.5H54.4167V14.9ZM59.3333 19.8167L59.7333 19.8167L59.7333 19.8162L59.3333 19.8167ZM59.3333 33.1762H58.9333V34.1419L59.6162 33.4591L59.3333 33.1762ZM64.5381 27.9714L64.2553 27.6886L64.2553 27.6886L64.5381 27.9714ZM48.9523 16.8667V16.4667H48.3751L48.5778 17.0071L48.9523 16.8667ZM49.6898 18.8333L49.3153 18.9738L49.4126 19.2333H49.6898V18.8333ZM55.4 37.1096H55V38.0753L55.6828 37.3924L55.4 37.1096ZM57.3667 35.1429L57.6495 35.4257L57.7667 35.3086V35.1429H57.3667ZM45.8548 50.9952L45.5719 51.2781L45.5775 51.2835L45.8548 50.9952ZM46.1409 51.186L46.314 50.8254L46.3073 50.8222L46.3005 50.8192L46.1409 51.186ZM45.5962 50.0611L45.9842 50.1582L45.9842 50.1581L45.5962 50.0611ZM46.5795 46.1277L46.1915 46.0305L46.1914 46.0307L46.5795 46.1277ZM46.8381 45.6715L47.121 45.9543L47.121 45.9543L46.8381 45.6715ZM53.4333 39.0762L53.7162 39.3591L53.8333 39.2419V39.0762H53.4333ZM53.4333 20.8H53.8333V20.4H53.4333V20.8ZM50.4273 20.8V20.4H49.85L50.0528 20.9405L50.4273 20.8ZM51.4047 23.4049L51.7793 23.2644L51.7792 23.2643L51.4047 23.4049ZM51.4673 23.7506L51.0673 23.7502L51.0673 23.7503L51.4673 23.7506ZM50.4833 24.7333L50.4836 24.3333H50.4833V24.7333ZM28.85 24.7333L28.85 24.3333L28.8496 24.3333L28.85 24.7333ZM28.5042 24.6708L28.3638 25.0453L28.3638 25.0453L28.5042 24.6708ZM27.9286 23.4049L27.5541 23.2643L27.5541 23.2644L27.9286 23.4049ZM28.906 20.8L29.2806 20.9405L29.4834 20.4H28.906V20.8ZM25.9 20.8V20.4H25.5V20.8H25.9ZM25.9 62.1H25.5V62.5H25.9V62.1ZM45.5667 62.1V62.5H45.9667V62.1H45.5667ZM53.4333 54.2333V54.6333H53.8333V54.2333H53.4333ZM53.4333 47.7571H53.8333V46.7917L53.1505 47.4742L53.4333 47.7571ZM51.1785 50.0109L50.8958 49.728L50.8957 49.7281L51.1785 50.0109ZM50.7223 50.2695L50.8193 50.6576L50.8195 50.6575L50.7223 50.2695ZM46.7889 51.2529L46.886 51.6409L46.886 51.6409L46.7889 51.2529ZM46.55 51.2824L46.55 51.6824L46.5506 51.6824L46.55 51.2824ZM46.5431 51.2824L46.5335 51.6824H46.5431V51.2824ZM46.2147 51.2174L46.0711 51.5908L46.0716 51.591L46.2147 51.2174ZM53.4333 57.5904H53.8333V56.6247L53.1505 57.3076L53.4333 57.5904ZM53.4333 62.1V62.5H53.8333V62.1H53.4333ZM48.9238 62.1L48.6409 61.8172L47.9581 62.5H48.9238V62.1ZM47.5333 60.7096H47.1333V61.6752L47.8162 60.9924L47.5333 60.7096ZM47.5333 56.2V55.8H47.1333V56.2H47.5333ZM52.0429 56.2L52.3257 56.4828L53.0086 55.8H52.0429V56.2ZM31.2464 20.1608L31.6209 20.3013L31.6209 20.3013L31.2464 20.1608ZM32.4814 16.8667V16.4667H32.2042L32.1069 16.7262L32.4814 16.8667ZM30.2689 22.7667L29.8944 22.6262L29.6917 23.1667H30.2689V22.7667ZM49.0644 22.7667V23.1667H49.6416L49.4389 22.6262L49.0644 22.7667ZM48.0869 20.1608L47.7124 20.3013L47.7124 20.3013L48.0869 20.1608ZM46.8519 16.8667L47.2264 16.7262L47.1291 16.4667H46.8519V16.8667ZM57.3667 43.8238H57.7667V42.8581L57.0838 43.5409L57.3667 43.8238ZM55.4 45.7904L55.1172 45.5076L55 45.6248V45.7904H55.4ZM29.6435 18.8333V19.2333H29.9208L30.0181 18.9738L29.6435 18.8333ZM30.3811 16.8667L30.7556 17.0071L30.9583 16.4667H30.3811V16.8667ZM57.6548 40.7548L57.9376 41.0376L57.9376 41.0376L57.6548 40.7548ZM53.7214 44.6881L54.0043 44.971L54.0043 44.971L53.7214 44.6881ZM63.8429 34.5667L64.1257 34.8495L64.4086 34.5667L64.1257 34.2838L63.8429 34.5667ZM62.2833 33.0071L62.5662 32.7243L62.2833 32.4414L62.0005 32.7243L62.2833 33.0071ZM59.0452 36.2452L59.3281 36.5281L59.3281 36.5281L59.0452 36.2452ZM55.1119 40.1786L54.829 39.8957L54.829 39.8957L55.1119 40.1786ZM48.4252 46.8652L48.1424 46.5824L48.064 46.6608L48.0371 46.7683L48.4252 46.8652ZM47.906 48.944L47.5179 48.8471L47.3565 49.4935L48.0029 49.3321L47.906 48.944ZM49.9848 48.4248L50.0817 48.8129L50.1892 48.786L50.2676 48.7076L49.9848 48.4248ZM65.2333 33.1762L64.9505 33.4591L65.2333 33.7419L65.5162 33.4591L65.2333 33.1762ZM63.6738 31.6167L63.3909 31.3338L63.1081 31.6167L63.3909 31.8995L63.6738 31.6167ZM66.7929 31.6167L67.0757 31.8995L67.3586 31.6167L67.0757 31.3338L66.7929 31.6167ZM65.2333 30.0571L65.5162 29.7743L65.2333 29.4914L64.9505 29.7743L65.2333 30.0571ZM50.7109 31.6669L50.8373 31.2874L50.8373 31.2874L50.7109 31.6669ZM47.9811 30.7573L47.6983 31.0401L47.7651 31.1069L47.8547 31.1368L47.9811 30.7573ZM51.3835 32.6L50.9835 32.5999V32.6H51.3835ZM48.2525 38.5V38.1H47.9683L47.8748 38.3685L48.2525 38.5ZM46.4481 40.3045L46.5797 40.6822L46.5797 40.6822L46.4481 40.3045ZM42.7144 38.5L43.0921 38.3684L42.9986 38.1H42.7144V38.5ZM36.4525 38.5V38.1H36.1683L36.0748 38.3685L36.4525 38.5ZM34.6481 40.3045L34.7797 40.6822L34.7797 40.6822L34.6481 40.3045ZM30.9144 38.5L31.2921 38.3684L31.1986 38.1H30.9144V38.5ZM27.7835 32.6H28.1835L28.1834 32.5988L27.7835 32.6ZM28.5318 31.6423L28.6274 32.0307L28.6288 32.0303L28.5318 31.6423ZM32.2016 30.7248L32.2986 31.1129L32.4061 31.086L32.4844 31.0077L32.2016 30.7248ZM34.9549 27.9715L34.6721 27.6886L34.6721 27.6886L34.9549 27.9715ZM45.1953 27.9715L44.9125 28.2543L44.9125 28.2543L45.1953 27.9715ZM49.4168 36.5334V36.9334H49.8168V36.5334H49.4168ZM48.2653 36.5334L47.8881 36.6665L47.9823 36.9334H48.2653V36.5334ZM49.4168 33.309H49.8168V33.0207L49.5433 32.9295L49.4168 33.309ZM47.1394 32.5499L47.0115 32.9289L47.0129 32.9294L47.1394 32.5499ZM46.7549 32.3119L46.4721 32.5948L46.4725 32.5952L46.7549 32.3119ZM44.093 29.65L44.3759 29.3672L44.2587 29.25H44.093V29.65ZM36.0572 29.65V29.25H35.8915L35.7744 29.3672L36.0572 29.65ZM33.3953 32.3119L33.6782 32.5948L33.6782 32.5948L33.3953 32.3119ZM32.9391 32.5705L33.0361 32.9586L33.0363 32.9585L32.9391 32.5705ZM29.7501 33.368L29.6531 32.98L29.3501 33.0557V33.368H29.7501ZM29.7501 36.5363H29.3501V36.9363H29.7501V36.5363ZM30.9095 36.5363V36.9363H31.2003L31.29 36.6597L30.9095 36.5363ZM30.9344 36.4769L30.5728 36.3058L30.5728 36.3058L30.9344 36.4769ZM30.9518 36.438L31.3239 36.5846L31.3241 36.5843L30.9518 36.438ZM31.0235 36.2777L31.384 36.4512L31.3859 36.447L31.0235 36.2777ZM31.1956 35.9611L30.8626 35.7391L30.8563 35.7493L31.1956 35.9611ZM31.2334 35.9015L30.8935 35.6907L30.8934 35.6908L31.2334 35.9015ZM31.2871 35.8185L30.9609 35.5869L30.9597 35.5886L31.2871 35.8185ZM31.5585 35.4891L31.2691 35.2129L31.2686 35.2134L31.5585 35.4891ZM31.5859 35.4577L31.2794 35.2008L31.2793 35.2008L31.5859 35.4577ZM31.6175 35.4222L31.3364 35.1376L31.3346 35.1394L31.6175 35.4222ZM32.0108 35.0948L31.787 34.7632L31.782 34.7667L32.0108 35.0948ZM32.0808 35.0518L32.2826 35.3972L32.2826 35.3972L32.0808 35.0518ZM32.1337 35.02L31.9204 34.6816L31.9195 34.6822L32.1337 35.02ZM32.4671 34.8391L32.3016 34.4749L32.2993 34.476L32.4671 34.8391ZM32.6313 34.7712L32.7753 35.1444L32.7755 35.1443L32.6313 34.7712ZM32.9853 34.6611L33.0779 35.0503L33.084 35.0487L32.9853 34.6611ZM33.029 34.6496L33.1322 35.0361L33.1322 35.0361L33.029 34.6496ZM33.1466 34.6218L33.2169 35.0157L33.2269 35.0136L33.1466 34.6218ZM34.2282 34.6218L34.1479 35.0138L34.1579 35.0155L34.2282 34.6218ZM34.3458 34.6496L34.449 34.2632L34.449 34.2632L34.3458 34.6496ZM34.3895 34.6611L34.2908 35.0488L34.2969 35.0502L34.3895 34.6611ZM34.7435 34.7712L34.5993 35.1443L34.5995 35.1444L34.7435 34.7712ZM34.9087 34.8391L35.0777 34.4765L35.0742 34.4749L34.9087 34.8391ZM35.2411 35.02L35.4553 34.6822L35.454 34.6814L35.2411 35.02ZM35.294 35.0518L35.0921 35.3972L35.0921 35.3972L35.294 35.0518ZM35.364 35.0948L35.5928 34.7666L35.5877 34.7632L35.364 35.0948ZM35.7573 35.4222L36.0401 35.1393L36.0384 35.1376L35.7573 35.4222ZM35.7888 35.4577L36.0954 35.2008L36.0954 35.2008L35.7888 35.4577ZM35.8163 35.4891L36.1061 35.2134L36.1057 35.2129L35.8163 35.4891ZM36.0877 35.8185L35.7614 36.0502L35.7686 36.0596L36.0877 35.8185ZM36.1612 35.9314L36.5037 35.7249L36.5037 35.7248L36.1612 35.9314ZM36.1792 35.9611L35.838 36.17L35.8398 36.1728L36.1792 35.9611ZM36.3512 36.2777L36.7142 36.1096L36.7136 36.1084L36.3512 36.2777ZM36.3671 36.3116L36.7293 36.1418L36.7292 36.1418L36.3671 36.3116ZM36.423 36.438L36.7994 36.3021L36.7953 36.2917L36.423 36.438ZM36.4444 36.4877L36.0823 36.6576L36.0823 36.6576L36.4444 36.4877ZM36.4653 36.5363L36.0881 36.6694L36.1823 36.9363H36.4653V36.5363ZM42.7065 36.5363V36.9363H42.9973L43.087 36.6597L42.7065 36.5363ZM42.7314 36.4769L42.3699 36.3058L42.3699 36.3058L42.7314 36.4769ZM42.7488 36.438L43.121 36.5846L43.1211 36.5843L42.7488 36.438ZM42.8206 36.2777L43.181 36.4512L43.183 36.447L42.8206 36.2777ZM42.9927 35.9611L42.6597 35.7391L42.6533 35.7493L42.9927 35.9611ZM43.0305 35.9015L43.3705 36.1122L43.3705 36.1122L43.0305 35.9015ZM43.0841 35.8185L42.758 35.5869L42.7568 35.5886L43.0841 35.8185ZM43.3555 35.4891L43.0662 35.2129L43.0657 35.2134L43.3555 35.4891ZM43.383 35.4577L43.0764 35.2008L43.0764 35.2008L43.383 35.4577ZM43.4145 35.4222L43.1334 35.1376L43.1317 35.1394L43.4145 35.4222ZM43.8079 35.0948L43.584 34.7632L43.5791 34.7667L43.8079 35.0948ZM43.8779 35.0518L43.676 34.7065L43.676 34.7065L43.8779 35.0518ZM43.9308 35.02L43.7175 34.6816L43.7165 34.6822L43.9308 35.02ZM44.2641 34.8391L44.0986 34.4749L44.0963 34.476L44.2641 34.8391ZM44.4283 34.7712L44.5724 35.1444L44.5726 35.1443L44.4283 34.7712ZM44.7823 34.6611L44.875 35.0503L44.881 35.0487L44.7823 34.6611ZM44.826 34.6496L44.7228 34.2632L44.7228 34.2632L44.826 34.6496ZM44.9436 34.6218L45.0139 35.0157L45.0239 35.0136L44.9436 34.6218ZM46.0253 34.6218L45.9449 35.0138L45.955 35.0155L46.0253 34.6218ZM46.1428 34.6496L46.0396 35.0361L46.0396 35.0361L46.1428 34.6496ZM46.1865 34.6611L46.0878 35.0488L46.0939 35.0502L46.1865 34.6611ZM46.5405 34.7712L46.3963 35.1443L46.3965 35.1444L46.5405 34.7712ZM46.7057 34.8391L46.8748 34.4765L46.8713 34.4749L46.7057 34.8391ZM47.0381 35.02L47.2523 34.6822L47.251 34.6814L47.0381 35.02ZM47.1321 35.0742L47.3246 34.7236L47.3246 34.7236L47.1321 35.0742ZM47.164 35.0918L47.3928 34.7637L47.3764 34.7523L47.3589 34.7425L47.164 35.0918ZM47.5573 35.4193L47.8402 35.1364L47.8384 35.1347L47.5573 35.4193ZM47.5888 35.4547L47.8954 35.1978L47.8954 35.1978L47.5888 35.4547ZM47.6163 35.4861L47.9061 35.2104L47.9056 35.2099L47.6163 35.4861ZM47.8877 35.8155L47.5614 36.0472L47.5686 36.0567L47.8877 35.8155ZM47.9612 35.9285L48.3037 35.7219L48.3037 35.7219L47.9612 35.9285ZM47.9792 35.9581L47.638 36.167L47.6398 36.1699L47.9792 35.9581ZM48.1512 36.2748L48.5142 36.1067L48.5136 36.1054L48.1512 36.2748ZM48.1671 36.3087L48.5293 36.1389L48.5293 36.1389L48.1671 36.3087ZM48.223 36.435L48.5994 36.2991L48.5953 36.2888L48.223 36.435ZM48.2444 36.4848L47.8823 36.6547L47.8823 36.6547L48.2444 36.4848ZM69.1614 30.6386L66.2114 27.6886L65.6457 28.2543L68.5957 31.2043L69.1614 30.6386ZM69.1614 32.5947C69.7015 32.0545 69.7015 31.1788 69.1614 30.6387L68.5957 31.2042C68.8234 31.432 68.8234 31.8013 68.5957 32.0291L69.1614 32.5947ZM59.6162 42.1399L69.1614 32.5947L68.5957 32.029L59.0505 41.5743L59.6162 42.1399ZM59.7333 63.0833V41.8571H58.9333V63.0833H59.7333ZM54.4171 68.4C57.3517 68.3965 59.7299 66.0184 59.7333 63.0838L58.9333 63.0829C58.9304 65.5763 56.9096 67.5971 54.4162 67.6L54.4171 68.4ZM24.9167 68.4H54.4167V67.6H24.9167V68.4ZM19.6 63.0838C19.6035 66.0184 21.9816 68.3965 24.9162 68.4L24.9171 67.6C22.4237 67.5971 20.4029 65.5763 20.4 63.0829L19.6 63.0838ZM19.6 19.8167V63.0833H20.4V19.8167H19.6ZM24.9162 14.5C21.9816 14.5035 19.6035 16.8816 19.6 19.8162L20.4 19.8171C20.4029 17.3237 22.4237 15.3029 24.9171 15.3L24.9162 14.5ZM35.7333 14.5H24.9167V15.3H35.7333V14.5ZM35.3333 12.9333V14.9H36.1333V12.9333H35.3333ZM39.6667 8.6C37.2734 8.6 35.3333 10.5401 35.3333 12.9333H36.1333C36.1333 10.9819 37.7153 9.4 39.6667 9.4V8.6ZM44 12.9333C44 10.5401 42.0599 8.6 39.6667 8.6V9.4C41.6181 9.4 43.2 10.9819 43.2 12.9333H44ZM44 14.9V12.9333H43.2V14.9H44ZM54.4167 14.5H43.6V15.3H54.4167V14.5ZM59.7333 19.8162C59.7299 16.8816 57.3517 14.5035 54.4171 14.5L54.4162 15.3C56.9096 15.3029 58.9304 17.3237 58.9333 19.8171L59.7333 19.8162ZM59.7333 33.1762V19.8167H58.9333V33.1762H59.7333ZM64.2553 27.6886L59.0505 32.8934L59.6162 33.4591L64.821 28.2543L64.2553 27.6886ZM66.2113 27.6886C65.6712 27.1485 64.7955 27.1485 64.2553 27.6886L64.8209 28.2543C65.0487 28.0266 65.418 28.0266 65.6457 28.2543L66.2113 27.6886ZM54.4167 17.2667C55.825 17.2667 56.9667 18.4083 56.9667 19.8167H57.7667C57.7667 17.9665 56.2668 16.4667 54.4167 16.4667V17.2667ZM48.9523 17.2667H54.4167V16.4667H48.9523V17.2667ZM50.0643 18.6929L49.3268 16.7262L48.5778 17.0071L49.3153 18.9738L50.0643 18.6929ZM54.4167 18.4333H49.6898V19.2333H54.4167V18.4333ZM55.8 19.8167C55.8 19.0527 55.1806 18.4333 54.4167 18.4333V19.2333C54.7388 19.2333 55 19.4945 55 19.8167H55.8ZM55.8 37.1096V19.8167H55V37.1096H55.8ZM57.0838 34.8601L55.1172 36.8267L55.6828 37.3924L57.6495 35.4257L57.0838 34.8601ZM56.9667 19.8167V35.1429H57.7667V19.8167H56.9667ZM45.5775 51.2835C45.6952 51.3967 45.8319 51.4878 45.9814 51.5528L46.3005 50.8192C46.238 50.792 46.1811 50.754 46.132 50.7069L45.5775 51.2835ZM45.2081 49.9639C45.09 50.4355 45.2282 50.9344 45.5719 51.2781L46.1376 50.7124C45.9926 50.5674 45.9344 50.357 45.9842 50.1582L45.2081 49.9639ZM46.1914 46.0307L45.2081 49.964L45.9842 50.1581L46.9676 46.2247L46.1914 46.0307ZM46.5553 45.3886C46.3783 45.5656 46.2524 45.7874 46.1915 46.0305L46.9675 46.2249C46.9931 46.1227 47.0462 46.0291 47.121 45.9543L46.5553 45.3886ZM53.1505 38.7934L46.5553 45.3886L47.121 45.9543L53.7162 39.3591L53.1505 38.7934ZM53.0333 20.8V39.0762H53.8333V20.8H53.0333ZM50.4273 21.2H53.4333V20.4H50.4273V21.2ZM51.7792 23.2643L50.8018 20.6595L50.0528 20.9405L51.0302 23.5454L51.7792 23.2643ZM51.8673 23.751C51.8675 23.5846 51.8375 23.4198 51.7793 23.2644L51.0302 23.5453C51.0548 23.6109 51.0674 23.6803 51.0673 23.7502L51.8673 23.751ZM50.4831 25.1333C51.2471 25.1339 51.8668 24.5148 51.8673 23.7509L51.0673 23.7503C51.0671 24.0725 50.8057 24.3336 50.4836 24.3333L50.4831 25.1333ZM28.85 25.1333H50.4833V24.3333H28.85V25.1333ZM28.3638 25.0453C28.5192 25.1036 28.684 25.1335 28.8504 25.1333L28.8496 24.3333C28.7797 24.3334 28.7103 24.3208 28.6446 24.2962L28.3638 25.0453ZM27.5541 23.2644C27.2859 23.9798 27.6485 24.7771 28.3638 25.0453L28.6447 24.2962C28.343 24.1831 28.1901 23.8469 28.3032 23.5453L27.5541 23.2644ZM28.5315 20.6595L27.5541 23.2643L28.3031 23.5454L29.2806 20.9405L28.5315 20.6595ZM25.9 21.2H28.906V20.4H25.9V21.2ZM26.3 62.1V20.8H25.5V62.1H26.3ZM45.5667 61.7H25.9V62.5H45.5667V61.7ZM45.1667 55.2167V62.1H45.9667V55.2167H45.1667ZM46.55 53.8333C45.786 53.8333 45.1667 54.4527 45.1667 55.2167H45.9667C45.9667 54.8945 46.2279 54.6333 46.55 54.6333V53.8333ZM53.4333 53.8333H46.55V54.6333H53.4333V53.8333ZM53.0333 47.7571V54.2333H53.8333V47.7571H53.0333ZM51.4613 50.2938L53.7161 48.04L53.1505 47.4742L50.8958 49.728L51.4613 50.2938ZM50.8195 50.6575C51.0626 50.5966 51.2844 50.4707 51.4614 50.2937L50.8957 49.7281C50.8209 49.8028 50.7273 49.8559 50.6251 49.8815L50.8195 50.6575ZM46.886 51.6409L50.8193 50.6576L50.6253 49.8815L46.6919 50.8648L46.886 51.6409ZM46.5506 51.6824C46.6633 51.6822 46.7759 51.6684 46.886 51.6409L46.6919 50.8648C46.6456 50.8764 46.5977 50.8823 46.5494 50.8824L46.5506 51.6824ZM46.5431 51.6824H46.55V50.8824H46.5431V51.6824ZM46.0716 51.591C46.2191 51.6475 46.3753 51.6784 46.5335 51.6822L46.5527 50.8825C46.4862 50.8809 46.4202 50.8678 46.3577 50.8439L46.0716 51.591ZM45.9679 51.5466C46.0048 51.5643 46.0388 51.5784 46.0711 51.5908L46.3583 50.8441C46.3394 50.8369 46.3262 50.8312 46.314 50.8254L45.9679 51.5466ZM53.0333 57.5904V62.1H53.8333V57.5904H53.0333ZM49.2066 62.3828L53.7162 57.8733L53.1505 57.3076L48.6409 61.8172L49.2066 62.3828ZM53.4333 61.7H48.9238V62.5H53.4333V61.7ZM47.9333 60.7096V56.2H47.1333V60.7096H47.9333ZM51.7601 55.9172L47.2505 60.4267L47.8162 60.9924L52.3257 56.4828L51.7601 55.9172ZM47.5333 56.6H52.0429V55.8H47.5333V56.6ZM31.6209 20.3013L32.856 17.0071L32.1069 16.7262L30.8718 20.0204L31.6209 20.3013ZM30.6435 22.9071L31.6209 20.3013L30.8719 20.0204L29.8944 22.6262L30.6435 22.9071ZM49.0644 22.3667H30.2689V23.1667H49.0644V22.3667ZM47.7124 20.3013L48.6899 22.9071L49.4389 22.6262L48.4615 20.0204L47.7124 20.3013ZM46.4773 17.0071L47.7124 20.3013L48.4615 20.0204L47.2264 16.7262L46.4773 17.0071ZM42.6167 17.2667H46.8519V16.4667H42.6167V17.2667ZM41.2333 15.8833C41.2333 16.6473 41.8527 17.2667 42.6167 17.2667V16.4667C42.2945 16.4667 42.0333 16.2055 42.0333 15.8833H41.2333ZM41.2333 12.9333V15.8833H42.0333V12.9333H41.2333ZM39.6667 11.3667C40.532 11.3667 41.2333 12.068 41.2333 12.9333H42.0333C42.0333 11.6262 40.9738 10.5667 39.6667 10.5667V11.3667ZM38.1 12.9333C38.1 12.068 38.8014 11.3667 39.6667 11.3667V10.5667C38.3595 10.5667 37.3 11.6262 37.3 12.9333H38.1ZM38.1 15.8833V12.9333H37.3V15.8833H38.1ZM36.7167 17.2667C37.4806 17.2667 38.1 16.6473 38.1 15.8833H37.3C37.3 16.2055 37.0388 16.4667 36.7167 16.4667V17.2667ZM32.4814 17.2667H36.7167V16.4667H32.4814V17.2667ZM56.9667 63.0833C56.9667 64.4917 55.825 65.6333 54.4167 65.6333V66.4333C56.2668 66.4333 57.7667 64.9335 57.7667 63.0833H56.9667ZM56.9667 43.8238V63.0833H57.7667V43.8238H56.9667ZM55.6828 46.0733L57.6495 44.1066L57.0838 43.5409L55.1172 45.5076L55.6828 46.0733ZM55.8 63.0833V45.7904H55V63.0833H55.8ZM54.4167 64.4667C55.1806 64.4667 55.8 63.8473 55.8 63.0833H55C55 63.4055 54.7388 63.6667 54.4167 63.6667V64.4667ZM24.9167 64.4667H54.4167V63.6667H24.9167V64.4667ZM23.5333 63.0833C23.5333 63.8473 24.1527 64.4667 24.9167 64.4667V63.6667C24.5945 63.6667 24.3333 63.4055 24.3333 63.0833H23.5333ZM23.5333 19.8167V63.0833H24.3333V19.8167H23.5333ZM24.9167 18.4333C24.1527 18.4333 23.5333 19.0527 23.5333 19.8167H24.3333C24.3333 19.4945 24.5945 19.2333 24.9167 19.2333V18.4333ZM29.6435 18.4333H24.9167V19.2333H29.6435V18.4333ZM30.0065 16.7262L29.269 18.6929L30.0181 18.9738L30.7556 17.0071L30.0065 16.7262ZM24.9167 17.2667H30.3811V16.4667H24.9167V17.2667ZM22.3667 19.8167C22.3667 18.4083 23.5083 17.2667 24.9167 17.2667V16.4667C23.0665 16.4667 21.5667 17.9665 21.5667 19.8167H22.3667ZM22.3667 63.0833V19.8167H21.5667V63.0833H22.3667ZM24.9167 65.6333C23.5083 65.6333 22.3667 64.4917 22.3667 63.0833H21.5667C21.5667 64.9335 23.0665 66.4333 24.9167 66.4333V65.6333ZM54.4167 65.6333H24.9167V66.4333H54.4167V65.6333ZM57.3719 40.4719L53.4386 44.4053L54.0043 44.971L57.9376 41.0376L57.3719 40.4719ZM63.5601 34.2838L57.3719 40.4719L57.9376 41.0376L64.1257 34.8495L63.5601 34.2838ZM62.0005 33.2899L63.5601 34.8495L64.1257 34.2838L62.5662 32.7243L62.0005 33.2899ZM59.3281 36.5281L62.5662 33.2899L62.0005 32.7243L58.7624 35.9624L59.3281 36.5281ZM55.3947 40.4614L59.3281 36.5281L58.7624 35.9624L54.829 39.8957L55.3947 40.4614ZM48.7081 47.1481L55.3947 40.4614L54.829 39.8957L48.1424 46.5824L48.7081 47.1481ZM48.2941 49.0409L48.8133 46.9621L48.0371 46.7683L47.5179 48.8471L48.2941 49.0409ZM49.8879 48.0367L47.8091 48.5559L48.0029 49.3321L50.0817 48.8129L49.8879 48.0367ZM53.4386 44.4053L49.7019 48.1419L50.2676 48.7076L54.0043 44.971L53.4386 44.4053ZM65.5162 32.8934L63.9566 31.3338L63.3909 31.8995L64.9505 33.4591L65.5162 32.8934ZM66.5101 31.3338L64.9505 32.8934L65.5162 33.4591L67.0757 31.8995L66.5101 31.3338ZM64.9505 30.3399L66.5101 31.8995L67.0757 31.3338L65.5162 29.7743L64.9505 30.3399ZM63.9566 31.8995L65.5162 30.3399L64.9505 29.7743L63.3909 31.3338L63.9566 31.8995ZM50.8373 31.2874L48.1076 30.3778L47.8547 31.1368L50.5844 32.0463L50.8373 31.2874ZM51.7835 32.6002C51.7836 32.0044 51.4023 31.4756 50.8373 31.2874L50.5844 32.0463C50.8228 32.1258 50.9835 32.3488 50.9835 32.5999L51.7835 32.6002ZM51.7835 37.5167V32.6H50.9835V37.5167H51.7835ZM50.4001 38.9C51.1641 38.9 51.7835 38.2807 51.7835 37.5167H50.9835C50.9835 37.8388 50.7223 38.1 50.4001 38.1V38.9ZM48.2525 38.9H50.4001V38.1H48.2525V38.9ZM46.5797 40.6822C47.5403 40.3475 48.2956 39.5924 48.6303 38.6316L47.8748 38.3685C47.6205 39.0985 47.0465 39.6724 46.3165 39.9267L46.5797 40.6822ZM42.3367 38.6316C42.9422 40.3696 44.8419 41.2876 46.5797 40.6822L46.3165 39.9267C44.9959 40.3868 43.5523 39.6892 43.0921 38.3684L42.3367 38.6316ZM36.4525 38.9H42.7144V38.1H36.4525V38.9ZM34.7797 40.6822C35.7403 40.3475 36.4956 39.5924 36.8303 38.6316L36.0748 38.3685C35.8205 39.0985 35.2465 39.6724 34.5165 39.9267L34.7797 40.6822ZM30.5367 38.6316C31.1422 40.3696 33.0419 41.2876 34.7797 40.6822L34.5165 39.9267C33.1959 40.3868 31.7523 39.6892 31.2921 38.3684L30.5367 38.6316ZM28.7668 38.9H30.9144V38.1H28.7668V38.9ZM27.3835 37.5167C27.3835 38.2807 28.0028 38.9 28.7668 38.9V38.1C28.4447 38.1 28.1835 37.8388 28.1835 37.5167H27.3835ZM27.3835 32.6V37.5167H28.1835V32.6H27.3835ZM28.4362 31.2539C27.8164 31.4064 27.3816 31.963 27.3835 32.6012L28.1834 32.5988C28.1826 32.3297 28.366 32.095 28.6274 32.0307L28.4362 31.2539ZM32.1046 30.3368L28.4348 31.2542L28.6288 32.0303L32.2986 31.1129L32.1046 30.3368ZM34.6721 27.6886L31.9187 30.442L32.4844 31.0077L35.2377 28.2543L34.6721 27.6886ZM35.6501 27.2834C35.283 27.2834 34.9313 27.4294 34.6721 27.6886L35.2377 28.2543C35.3472 28.1448 35.4956 28.0834 35.6501 28.0834V27.2834ZM44.5001 27.2834H35.6501V28.0834H44.5001V27.2834ZM45.4782 27.6886C45.2189 27.4294 44.8672 27.2834 44.5001 27.2834V28.0834C44.6547 28.0834 44.803 28.1448 44.9125 28.2543L45.4782 27.6886ZM48.264 30.4744L45.4782 27.6886L44.9125 28.2543L47.6983 31.0401L48.264 30.4744ZM33.6835 38.1C33.3613 38.1 33.1001 37.8388 33.1001 37.5167H32.3001C32.3001 38.2807 32.9195 38.9 33.6835 38.9V38.1ZM34.2668 37.5167C34.2668 37.8388 34.0056 38.1 33.6835 38.1V38.9C34.4474 38.9 35.0668 38.2807 35.0668 37.5167H34.2668ZM33.6835 36.9334C34.0056 36.9334 34.2668 37.1946 34.2668 37.5167H35.0668C35.0668 36.7527 34.4474 36.1334 33.6835 36.1334V36.9334ZM33.1001 37.5167C33.1001 37.1946 33.3613 36.9334 33.6835 36.9334V36.1334C32.9195 36.1334 32.3001 36.7527 32.3001 37.5167H33.1001ZM45.4835 38.1C45.1613 38.1 44.9001 37.8388 44.9001 37.5167H44.1001C44.1001 38.2807 44.7195 38.9 45.4835 38.9V38.1ZM46.0668 37.5167C46.0668 37.8388 45.8056 38.1 45.4835 38.1V38.9C46.2474 38.9 46.8668 38.2807 46.8668 37.5167H46.0668ZM45.4835 36.9334C45.8056 36.9334 46.0668 37.1946 46.0668 37.5167H46.8668C46.8668 36.7527 46.2474 36.1334 45.4835 36.1334V36.9334ZM44.9001 37.5167C44.9001 37.1946 45.1613 36.9334 45.4835 36.9334V36.1334C44.7195 36.1334 44.1001 36.7527 44.1001 37.5167H44.9001ZM49.4168 36.1334H48.2653V36.9334H49.4168V36.1334ZM49.0168 33.309V36.5334H49.8168V33.309H49.0168ZM47.0129 32.9294L49.2903 33.6885L49.5433 32.9295L47.2659 32.1704L47.0129 32.9294ZM46.4725 32.5952C46.6244 32.7465 46.8089 32.8606 47.0115 32.9289L47.2672 32.1709C47.1805 32.1416 47.1018 32.0929 47.0373 32.0286L46.4725 32.5952ZM43.8102 29.9329L46.4721 32.5948L47.0377 32.0291L44.3759 29.3672L43.8102 29.9329ZM36.0572 30.05H44.093V29.25H36.0572V30.05ZM33.6782 32.5948L36.3401 29.9329L35.7744 29.3672L33.1125 32.0291L33.6782 32.5948ZM33.0363 32.9585C33.2794 32.8976 33.5012 32.7717 33.6782 32.5948L33.1125 32.0291C33.0377 32.1039 32.9441 32.1569 32.8419 32.1825L33.0363 32.9585ZM29.8472 33.7561L33.0361 32.9586L32.842 32.1825L29.6531 32.98L29.8472 33.7561ZM30.1501 36.5363V33.368H29.3501V36.5363H30.1501ZM30.9095 36.1363H29.7501V36.9363H30.9095V36.1363ZM30.5728 36.3058C30.5652 36.3219 30.5451 36.3633 30.529 36.4129L31.29 36.6597C31.2885 36.6641 31.2876 36.6661 31.2884 36.6643C31.2888 36.6634 31.2895 36.6618 31.2907 36.6591C31.2921 36.6561 31.2936 36.653 31.2959 36.648L30.5728 36.3058ZM30.5796 36.2914C30.5802 36.2899 30.5802 36.29 30.579 36.2925C30.5777 36.2954 30.5761 36.2988 30.5728 36.3058L31.2959 36.648C31.3011 36.6371 31.313 36.6123 31.3239 36.5846L30.5796 36.2914ZM30.6631 36.1042C30.6372 36.158 30.607 36.2217 30.5795 36.2917L31.3241 36.5843C31.3398 36.5442 31.3587 36.5037 31.3839 36.4512L30.6631 36.1042ZM30.8563 35.7493C30.7842 35.8648 30.719 35.9847 30.6611 36.1084L31.3859 36.447C31.4299 36.3529 31.4797 36.2614 31.535 36.1728L30.8563 35.7493ZM30.8934 35.6908C30.88 35.7125 30.871 35.7269 30.8628 35.7392L31.5284 36.1829C31.5453 36.1577 31.5614 36.1316 31.5734 36.1122L30.8934 35.6908ZM30.9597 35.5886C30.9333 35.6262 30.9096 35.6647 30.8935 35.6907L31.5734 36.1122C31.5918 36.0826 31.6035 36.0639 31.6144 36.0483L30.9597 35.5886ZM31.2686 35.2134C31.1574 35.3303 31.0545 35.4551 30.9609 35.5869L31.6132 36.0501C31.6846 35.9496 31.7631 35.8543 31.8483 35.7648L31.2686 35.2134ZM31.2793 35.2008C31.2745 35.2065 31.2721 35.2094 31.2701 35.2118C31.2682 35.2139 31.2681 35.214 31.2691 35.2129L31.8478 35.7653C31.8678 35.7443 31.885 35.7236 31.8925 35.7146L31.2793 35.2008ZM31.3346 35.1394C31.309 35.165 31.2876 35.191 31.2794 35.2008L31.8925 35.7146C31.8981 35.7079 31.9005 35.7052 31.9023 35.703C31.9039 35.7012 31.903 35.7024 31.9003 35.7051L31.3346 35.1394ZM31.782 34.7667C31.6232 34.8774 31.474 35.0016 31.3364 35.1376L31.8986 35.7068C32.004 35.6026 32.1182 35.5075 32.2396 35.4229L31.782 34.7667ZM31.879 34.7065C31.8572 34.7192 31.8221 34.7395 31.787 34.7632L32.2346 35.4263C32.2445 35.4196 32.2569 35.4122 32.2826 35.3972L31.879 34.7065ZM31.9195 34.6822C31.9094 34.6886 31.8979 34.6954 31.879 34.7065L32.2826 35.3972C32.2994 35.3874 32.3235 35.3733 32.3479 35.3578L31.9195 34.6822ZM32.2993 34.476C32.1689 34.5362 32.0423 34.6048 31.9204 34.6816L32.347 35.3584C32.4392 35.3003 32.5354 35.2482 32.6348 35.2022L32.2993 34.476ZM32.4873 34.3981C32.4288 34.4206 32.3662 34.4455 32.3016 34.4749L32.6326 35.2032C32.6761 35.1835 32.7217 35.1651 32.7753 35.1444L32.4873 34.3981ZM32.8927 34.272C32.7545 34.3049 32.619 34.3471 32.4871 34.3981L32.7755 35.1443C32.8744 35.1061 32.9754 35.0746 33.0779 35.0502L32.8927 34.272ZM32.9258 34.2632C32.911 34.2671 32.8987 34.2704 32.8866 34.2735L33.084 35.0487C33.1013 35.0443 33.1181 35.0399 33.1322 35.0361L32.9258 34.2632ZM33.0762 34.228C33.0168 34.2386 32.9622 34.2534 32.9258 34.2632L33.1322 35.0361C33.1736 35.025 33.196 35.0193 33.2169 35.0155L33.0762 34.228ZM34.3085 34.2299C33.8987 34.1459 33.4761 34.1459 33.0662 34.2299L33.2269 35.0136C33.5307 34.9514 33.8441 34.9514 34.1479 35.0136L34.3085 34.2299ZM34.449 34.2632C34.4126 34.2535 34.358 34.2386 34.2985 34.228L34.1579 35.0155C34.1787 35.0193 34.2012 35.025 34.2426 35.0361L34.449 34.2632ZM34.4881 34.2735C34.4761 34.2704 34.4638 34.2671 34.449 34.2632L34.2426 35.0361C34.2567 35.0398 34.2735 35.0443 34.2908 35.0487L34.4881 34.2735ZM34.8877 34.3981C34.7557 34.3471 34.6202 34.3049 34.4821 34.272L34.2969 35.0502C34.3994 35.0746 34.5004 35.1061 34.5993 35.1443L34.8877 34.3981ZM35.0742 34.4749C35.0085 34.4451 34.9439 34.4198 34.8875 34.3981L34.5995 35.1444C34.6552 35.1659 34.7007 35.1839 34.7432 35.2032L35.0742 34.4749ZM35.454 34.6814C35.3327 34.6052 35.2071 34.5369 35.0777 34.4765L34.7397 35.2016C34.8392 35.248 34.9355 35.3004 35.0281 35.3587L35.454 34.6814ZM35.4958 34.7065C35.4769 34.6954 35.4654 34.6886 35.4553 34.6822L35.0268 35.3578C35.0513 35.3733 35.0754 35.3874 35.0921 35.3972L35.4958 34.7065ZM35.5877 34.7632C35.5527 34.7395 35.5176 34.7192 35.4958 34.7065L35.0921 35.3972C35.1179 35.4122 35.1303 35.4196 35.1402 35.4263L35.5877 34.7632ZM36.0384 35.1376C35.9008 35.0016 35.7516 34.8774 35.5928 34.7667L35.1352 35.4229C35.2566 35.5075 35.3707 35.6026 35.4762 35.7068L36.0384 35.1376ZM36.0954 35.2008C36.0872 35.191 36.0658 35.165 36.0401 35.1394L35.4745 35.7051C35.4718 35.7024 35.4709 35.7012 35.4724 35.703C35.4743 35.7052 35.4767 35.7079 35.4823 35.7146L36.0954 35.2008ZM36.1057 35.2129C36.1067 35.214 36.1066 35.2139 36.1047 35.2118C36.1026 35.2094 36.1002 35.2065 36.0954 35.2008L35.4823 35.7146C35.4898 35.7236 35.5069 35.7443 35.5269 35.7653L36.1057 35.2129ZM36.4139 35.5869C36.3202 35.4551 36.2174 35.3303 36.1061 35.2134L35.5265 35.7648C35.6117 35.8543 35.6902 35.9496 35.7616 36.0501L36.4139 35.5869ZM36.5037 35.7248C36.4824 35.6895 36.4482 35.6321 36.4068 35.5773L35.7686 36.0596C35.7804 36.0753 35.7932 36.0959 35.8186 36.138L36.5037 35.7248ZM36.5203 35.7522C36.5151 35.7437 36.5098 35.735 36.5037 35.7249L35.8186 36.138C35.8245 36.1477 35.8312 36.1588 35.838 36.1699L36.5203 35.7522ZM36.7136 36.1084C36.6558 35.9847 36.5906 35.8648 36.5185 35.7493L35.8398 36.1728C35.8951 36.2614 35.9449 36.3529 35.9888 36.447L36.7136 36.1084ZM36.7292 36.1418C36.7239 36.1304 36.719 36.12 36.7142 36.1096L35.9883 36.4458C35.994 36.4581 35.9997 36.4703 36.0049 36.4814L36.7292 36.1418ZM36.7953 36.2917C36.7729 36.2346 36.7479 36.1816 36.7293 36.1418L36.0049 36.4814C36.0252 36.5248 36.0392 36.5548 36.0507 36.5843L36.7953 36.2917ZM36.8066 36.3178C36.8025 36.3092 36.8008 36.3054 36.7994 36.3023C36.7983 36.2997 36.7985 36.3 36.7992 36.3021L36.0468 36.5738C36.0604 36.6115 36.0759 36.6438 36.0823 36.6576L36.8066 36.3178ZM36.8425 36.4032C36.8289 36.3646 36.8128 36.331 36.8066 36.3178L36.0823 36.6576C36.0843 36.6618 36.0856 36.6647 36.0869 36.6674C36.088 36.6699 36.0888 36.6715 36.0892 36.6725C36.0901 36.6746 36.0894 36.6731 36.0881 36.6694L36.8425 36.4032ZM42.7065 36.1363H36.4653V36.9363H42.7065V36.1363ZM42.3699 36.3058C42.3622 36.3219 42.3421 36.3633 42.326 36.4129L43.087 36.6597C43.0856 36.6641 43.0847 36.6661 43.0854 36.6643C43.0858 36.6634 43.0865 36.6618 43.0878 36.6591C43.0892 36.6561 43.0906 36.653 43.093 36.648L42.3699 36.3058ZM42.3766 36.2914C42.3772 36.2899 42.3772 36.29 42.3761 36.2925C42.3748 36.2954 42.3732 36.2988 42.3699 36.3058L43.093 36.648C43.0982 36.6371 43.11 36.6123 43.121 36.5846L42.3766 36.2914ZM42.4602 36.1042C42.4343 36.158 42.404 36.2217 42.3765 36.2917L43.1211 36.5843C43.1368 36.5442 43.1557 36.5037 43.181 36.4512L42.4602 36.1042ZM42.6533 35.7493C42.5813 35.8648 42.516 35.9847 42.4582 36.1084L43.183 36.447C43.2269 36.3529 43.2768 36.2614 43.332 36.1728L42.6533 35.7493ZM42.6905 35.6908C42.677 35.7125 42.668 35.7269 42.6598 35.7392L43.3255 36.1829C43.3424 36.1577 43.3584 36.1316 43.3705 36.1122L42.6905 35.6908ZM42.7568 35.5886C42.7304 35.6262 42.7067 35.6647 42.6905 35.6908L43.3705 36.1122C43.3889 36.0826 43.4005 36.0639 43.4115 36.0483L42.7568 35.5886ZM43.0657 35.2134C42.9545 35.3303 42.8516 35.4551 42.758 35.5869L43.4103 36.0501C43.4816 35.9496 43.5602 35.8543 43.6453 35.7648L43.0657 35.2134ZM43.0764 35.2008C43.0716 35.2065 43.0692 35.2093 43.0671 35.2118C43.0653 35.2139 43.0652 35.214 43.0662 35.2129L43.6448 35.7653C43.6649 35.7443 43.682 35.7236 43.6896 35.7146L43.0764 35.2008ZM43.1317 35.1394C43.1061 35.165 43.0846 35.191 43.0764 35.2008L43.6896 35.7146C43.6952 35.7079 43.6975 35.7052 43.6994 35.703C43.701 35.7012 43.7 35.7024 43.6974 35.705L43.1317 35.1394ZM43.5791 34.7667C43.4202 34.8774 43.2711 35.0016 43.1334 35.1376L43.6956 35.7068C43.8011 35.6026 43.9153 35.5075 44.0367 35.4229L43.5791 34.7667ZM43.676 34.7065C43.6542 34.7192 43.6191 34.7396 43.5841 34.7632L44.0316 35.4263C44.0415 35.4196 44.0539 35.4122 44.0797 35.3972L43.676 34.7065ZM43.7165 34.6822C43.7064 34.6886 43.6949 34.6954 43.676 34.7065L44.0797 35.3972C44.0964 35.3874 44.1206 35.3733 44.145 35.3578L43.7165 34.6822ZM44.0963 34.476C43.966 34.5362 43.8394 34.6048 43.7175 34.6816L44.1441 35.3584C44.2363 35.3003 44.3324 35.2482 44.4319 35.2022L44.0963 34.476ZM44.2843 34.3981C44.2258 34.4206 44.1633 34.4455 44.0986 34.4749L44.4296 35.2032C44.4731 35.1835 44.5187 35.1651 44.5724 35.1444L44.2843 34.3981ZM44.6897 34.272C44.5516 34.3049 44.4161 34.3471 44.2841 34.3981L44.5726 35.1443C44.6714 35.1061 44.7724 35.0746 44.8749 35.0502L44.6897 34.272ZM44.7228 34.2632C44.708 34.2671 44.6957 34.2704 44.6837 34.2735L44.881 35.0487C44.8983 35.0443 44.9151 35.0398 44.9293 35.0361L44.7228 34.2632ZM44.8733 34.228C44.8139 34.2386 44.7592 34.2535 44.7228 34.2632L44.9292 35.0361C44.9707 35.025 44.9931 35.0193 45.0139 35.0155L44.8733 34.228ZM46.1056 34.2299C45.6958 34.1459 45.2731 34.1459 44.8633 34.2299L45.0239 35.0136C45.3278 34.9514 45.6411 34.9514 45.945 35.0136L46.1056 34.2299ZM46.246 34.2632C46.2096 34.2534 46.155 34.2386 46.0956 34.228L45.955 35.0155C45.9758 35.0193 45.9982 35.025 46.0396 35.0361L46.246 34.2632ZM46.2852 34.2735C46.2732 34.2704 46.2609 34.2671 46.246 34.2632L46.0396 35.0361C46.0537 35.0398 46.0705 35.0443 46.0879 35.0487L46.2852 34.2735ZM46.6848 34.3981C46.5528 34.3471 46.4173 34.3049 46.2791 34.272L46.0939 35.0502C46.1964 35.0746 46.2975 35.1061 46.3963 35.1443L46.6848 34.3981ZM46.8713 34.4749C46.8056 34.4451 46.741 34.4198 46.6846 34.3981L46.3965 35.1444C46.4522 35.1659 46.4977 35.1839 46.5402 35.2032L46.8713 34.4749ZM47.251 34.6814C47.1298 34.6052 47.0041 34.5369 46.8747 34.4765L46.5367 35.2016C46.6362 35.248 46.7325 35.3004 46.8252 35.3587L47.251 34.6814ZM47.3246 34.7236C47.2908 34.705 47.2701 34.6935 47.2523 34.6822L46.8239 35.3578C46.8666 35.3849 46.9097 35.4084 46.9396 35.4248L47.3246 34.7236ZM47.3589 34.7425C47.3469 34.7358 47.3351 34.7293 47.3246 34.7236L46.9396 35.4248C46.9504 35.4308 46.9598 35.436 46.969 35.4411L47.3589 34.7425ZM47.8384 35.1347C47.7008 34.9987 47.5516 34.8745 47.3928 34.7637L46.9352 35.4199C47.0566 35.5046 47.1707 35.5996 47.2762 35.7038L47.8384 35.1347ZM47.8954 35.1978C47.8872 35.188 47.8658 35.162 47.8401 35.1364L47.2745 35.7021C47.2718 35.6994 47.2708 35.6983 47.2724 35.7001C47.2743 35.7022 47.2767 35.705 47.2823 35.7117L47.8954 35.1978ZM47.9056 35.2099C47.9067 35.211 47.9066 35.211 47.9047 35.2088C47.9026 35.2064 47.9002 35.2035 47.8954 35.1978L47.2823 35.7117C47.2898 35.7206 47.307 35.7413 47.327 35.7623L47.9056 35.2099ZM48.2139 35.584C48.1202 35.4521 48.0174 35.3274 47.9061 35.2104L47.3265 35.7618C47.4117 35.8514 47.4902 35.9467 47.5616 36.0471L48.2139 35.584ZM48.3037 35.7219C48.2824 35.6865 48.2483 35.6292 48.2069 35.5744L47.5686 36.0567C47.5804 36.0723 47.5932 36.0929 47.6186 36.135L48.3037 35.7219ZM48.3203 35.7493C48.3151 35.7408 48.3098 35.732 48.3037 35.7219L47.6186 36.135C47.6245 36.1448 47.6312 36.1558 47.638 36.167L48.3203 35.7493ZM48.5136 36.1054C48.4558 35.9817 48.3906 35.8618 48.3185 35.7463L47.6398 36.1699C47.6951 36.2584 47.7449 36.35 47.7888 36.4441L48.5136 36.1054ZM48.5293 36.1389C48.5239 36.1275 48.519 36.117 48.5142 36.1067L47.7883 36.4428C47.794 36.4552 47.7997 36.4673 47.8049 36.4785L48.5293 36.1389ZM48.5953 36.2888C48.5729 36.2316 48.5479 36.1787 48.5293 36.1389L47.8049 36.4785C47.8252 36.5219 47.8392 36.5519 47.8507 36.5813L48.5953 36.2888ZM48.6066 36.3148C48.6025 36.3062 48.6008 36.3025 48.5994 36.2994C48.5983 36.2968 48.5985 36.2971 48.5992 36.2992L47.8468 36.5709C47.8604 36.6085 47.8759 36.6409 47.8823 36.6547L48.6066 36.3148ZM48.6425 36.4002C48.6289 36.3616 48.6128 36.3281 48.6066 36.3148L47.8823 36.6547C47.8843 36.6589 47.8856 36.6617 47.8869 36.6644C47.888 36.6669 47.8888 36.6685 47.8892 36.6696C47.8901 36.6717 47.8894 36.6702 47.8881 36.6665L48.6425 36.4002Z" fill="#372120" mask="url(#path-2-inside-1)"/>
<path d="M28.9668 42.6334H45.2835V44.2H28.9668V42.6334Z" fill="white" stroke="#372120" stroke-width="0.4"/>
<path d="M28.9668 46.5667H42.3335V48.1334H28.9668V46.5667Z" fill="white" stroke="#372120" stroke-width="0.4"/>
<path d="M28.9668 50.5001H42.3335V52.0668H28.9668V50.5001Z" fill="white" stroke="#372120" stroke-width="0.4"/>
<path d="M28.9668 54.4332H42.3335V55.9999H28.9668V54.4332Z" fill="white" stroke="#372120" stroke-width="0.4"/>
</svg>
