<svg width="80" height="80" viewBox="0 0 80 80" fill="none" xmlns="http://www.w3.org/2000/svg">
<rect width="80" height="80" fill="#372120"/>
<mask id="path-2-inside-1" fill="white">
<path fill-rule="evenodd" clip-rule="evenodd" d="M70.6055 22.9877H72.8723C73.4986 22.9877 74.0059 23.495 74.0054 24.1213V26.3881C74.0068 26.7681 73.8173 27.1237 73.5014 27.3344L70.6055 29.2613V45.6568H72.8723C73.4981 45.6568 74.0054 46.1641 74.0054 46.7899V53.5912C74.0054 56.095 71.9757 58.1247 69.4719 58.1247H16.1998C15.5892 58.1252 15.0878 57.6414 15.0666 57.0308C14.9716 54.2959 14.0714 51.65 12.4789 49.4243L6.21077 40.6482C6.07379 40.4559 6.00046 40.2262 6 39.9905C5.99954 39.3647 6.50639 38.8565 7.13269 38.856H11.6662V33.1888C11.6662 32.563 12.1735 32.0552 12.7999 32.0552H53.604C54.2299 32.0552 54.7372 32.5625 54.7372 33.1888V45.6568H57.0044V29.2613L54.1086 27.3312C53.7931 27.1209 53.604 26.7667 53.604 26.3881V24.1208C53.604 23.495 54.1113 22.9877 54.7372 22.9877H57.0044V19.5873C57.0044 18.9615 57.5117 18.4537 58.1376 18.4537H62.6716V16.1869H60.4043V13.9201H67.2051V16.1869H64.9384V18.4537H69.4719C70.0977 18.4537 70.6055 18.9615 70.6055 19.5873V22.9877ZM68.3387 20.7209H59.2712V22.9877H68.3387V20.7209ZM52.4704 34.322H41.1361V38.856H52.4704V34.322ZM52.4704 41.1228H41.1361V45.6568H52.4704V41.1228ZM38.8689 34.322H27.5346V38.856H38.8689V34.322ZM38.8689 45.6568V41.1228H31.404L35.938 45.6568H38.8689ZM25.2678 34.322H13.933V38.856H25.2678V34.322ZM17.2578 55.8575H69.4719C70.724 55.8575 71.7391 54.8428 71.7391 53.5907H16.8542C17.0419 54.336 17.177 55.0933 17.2578 55.8575ZM71.7391 51.3239V47.9235H35.4685C35.1678 47.9235 34.8795 47.8041 34.6674 47.5915L28.1987 41.1228H9.3349L14.3232 48.1071C15.0353 49.1088 15.632 50.188 16.1015 51.3239H71.7391ZM59.2712 29.7885V45.6568H68.3387V29.7885H59.2712ZM69.132 27.5217L71.7391 25.7816V25.2545H55.8708V25.7816L58.4775 27.5217H69.132ZM66.0715 32.0552H61.538V34.3219H66.0715V32.0552ZM61.538 36.5891H66.0715V38.8559H61.538V36.5891ZM66.0715 41.1225H61.538V43.3897H66.0715V41.1225ZM25.2678 43.39H27.5346V45.6568H25.2678V43.39ZM23.0006 43.39H20.7338V45.6568H23.0006V43.39Z"/>
</mask>
<path fill-rule="evenodd" clip-rule="evenodd" d="M70.6055 22.9877H72.8723C73.4986 22.9877 74.0059 23.495 74.0054 24.1213V26.3881C74.0068 26.7681 73.8173 27.1237 73.5014 27.3344L70.6055 29.2613V45.6568H72.8723C73.4981 45.6568 74.0054 46.1641 74.0054 46.7899V53.5912C74.0054 56.095 71.9757 58.1247 69.4719 58.1247H16.1998C15.5892 58.1252 15.0878 57.6414 15.0666 57.0308C14.9716 54.2959 14.0714 51.65 12.4789 49.4243L6.21077 40.6482C6.07379 40.4559 6.00046 40.2262 6 39.9905C5.99954 39.3647 6.50639 38.8565 7.13269 38.856H11.6662V33.1888C11.6662 32.563 12.1735 32.0552 12.7999 32.0552H53.604C54.2299 32.0552 54.7372 32.5625 54.7372 33.1888V45.6568H57.0044V29.2613L54.1086 27.3312C53.7931 27.1209 53.604 26.7667 53.604 26.3881V24.1208C53.604 23.495 54.1113 22.9877 54.7372 22.9877H57.0044V19.5873C57.0044 18.9615 57.5117 18.4537 58.1376 18.4537H62.6716V16.1869H60.4043V13.9201H67.2051V16.1869H64.9384V18.4537H69.4719C70.0977 18.4537 70.6055 18.9615 70.6055 19.5873V22.9877ZM68.3387 20.7209H59.2712V22.9877H68.3387V20.7209ZM52.4704 34.322H41.1361V38.856H52.4704V34.322ZM52.4704 41.1228H41.1361V45.6568H52.4704V41.1228ZM38.8689 34.322H27.5346V38.856H38.8689V34.322ZM38.8689 45.6568V41.1228H31.404L35.938 45.6568H38.8689ZM25.2678 34.322H13.933V38.856H25.2678V34.322ZM17.2578 55.8575H69.4719C70.724 55.8575 71.7391 54.8428 71.7391 53.5907H16.8542C17.0419 54.336 17.177 55.0933 17.2578 55.8575ZM71.7391 51.3239V47.9235H35.4685C35.1678 47.9235 34.8795 47.8041 34.6674 47.5915L28.1987 41.1228H9.3349L14.3232 48.1071C15.0353 49.1088 15.632 50.188 16.1015 51.3239H71.7391ZM59.2712 29.7885V45.6568H68.3387V29.7885H59.2712ZM69.132 27.5217L71.7391 25.7816V25.2545H55.8708V25.7816L58.4775 27.5217H69.132ZM66.0715 32.0552H61.538V34.3219H66.0715V32.0552ZM61.538 36.5891H66.0715V38.8559H61.538V36.5891ZM66.0715 41.1225H61.538V43.3897H66.0715V41.1225ZM25.2678 43.39H27.5346V45.6568H25.2678V43.39ZM23.0006 43.39H20.7338V45.6568H23.0006V43.39Z" fill="white"/>
<path d="M70.6055 22.9877H70.1055V23.4877H70.6055V22.9877ZM74.0054 24.1213L73.5054 24.1209V24.1213H74.0054ZM74.0054 26.3881L73.5054 26.3881L73.5054 26.3899L74.0054 26.3881ZM73.5014 27.3344L73.7783 27.7507L73.7788 27.7504L73.5014 27.3344ZM70.6055 29.2613L70.3285 28.845L70.1055 28.9934V29.2613H70.6055ZM70.6055 45.6568H70.1055V46.1568H70.6055V45.6568ZM16.1998 58.1247L16.1998 57.6247L16.1994 57.6247L16.1998 58.1247ZM15.0666 57.0308L14.5669 57.0481L14.5669 57.0481L15.0666 57.0308ZM12.4789 49.4243L12.072 49.7149L12.0722 49.7152L12.4789 49.4243ZM6.21077 40.6482L5.8035 40.9383L5.80389 40.9388L6.21077 40.6482ZM6 39.9905L5.5 39.9909L5.5 39.9915L6 39.9905ZM7.13269 38.856L7.13269 38.356L7.13233 38.356L7.13269 38.856ZM11.6662 38.856V39.356H12.1662V38.856H11.6662ZM54.7372 45.6568H54.2372V46.1568H54.7372V45.6568ZM57.0044 45.6568V46.1568H57.5044V45.6568H57.0044ZM57.0044 29.2613H57.5044V28.9937L57.2817 28.8453L57.0044 29.2613ZM54.1086 27.3312L53.8312 27.7472L53.8313 27.7473L54.1086 27.3312ZM57.0044 22.9877V23.4877H57.5044V22.9877H57.0044ZM62.6716 18.4537V18.9537H63.1716V18.4537H62.6716ZM62.6716 16.1869H63.1716V15.6869H62.6716V16.1869ZM60.4043 16.1869H59.9043V16.6869H60.4043V16.1869ZM60.4043 13.9201V13.4201H59.9043V13.9201H60.4043ZM67.2051 13.9201H67.7051V13.4201H67.2051V13.9201ZM67.2051 16.1869V16.6869H67.7051V16.1869H67.2051ZM64.9384 16.1869V15.6869H64.4384V16.1869H64.9384ZM64.9384 18.4537H64.4384V18.9537H64.9384V18.4537ZM59.2712 20.7209V20.2209H58.7712V20.7209H59.2712ZM68.3387 20.7209H68.8387V20.2209H68.3387V20.7209ZM59.2712 22.9877H58.7712V23.4877H59.2712V22.9877ZM68.3387 22.9877V23.4877H68.8387V22.9877H68.3387ZM41.1361 34.322V33.822H40.6361V34.322H41.1361ZM52.4704 34.322H52.9704V33.822H52.4704V34.322ZM41.1361 38.856H40.6361V39.356H41.1361V38.856ZM52.4704 38.856V39.356H52.9704V38.856H52.4704ZM41.1361 41.1228V40.6228H40.6361V41.1228H41.1361ZM52.4704 41.1228H52.9704V40.6228H52.4704V41.1228ZM41.1361 45.6568H40.6361V46.1568H41.1361V45.6568ZM52.4704 45.6568V46.1568H52.9704V45.6568H52.4704ZM27.5346 34.322V33.822H27.0346V34.322H27.5346ZM38.8689 34.322H39.3689V33.822H38.8689V34.322ZM27.5346 38.856H27.0346V39.356H27.5346V38.856ZM38.8689 38.856V39.356H39.3689V38.856H38.8689ZM38.8689 41.1228H39.3689V40.6228H38.8689V41.1228ZM38.8689 45.6568V46.1568H39.3689V45.6568H38.8689ZM31.404 41.1228V40.6228H30.1969L31.0504 41.4763L31.404 41.1228ZM35.938 45.6568L35.5844 46.0103L35.7309 46.1568H35.938V45.6568ZM13.933 34.322V33.822H13.433V34.322H13.933ZM25.2678 34.322H25.7678V33.822H25.2678V34.322ZM13.933 38.856H13.433V39.356H13.933V38.856ZM25.2678 38.856V39.356H25.7678V38.856H25.2678ZM17.2578 55.8575L16.7605 55.91L16.8078 56.3575H17.2578V55.8575ZM71.7391 53.5907H72.2391V53.0907H71.7391V53.5907ZM16.8542 53.5907V53.0907H16.2127L16.3694 53.7128L16.8542 53.5907ZM71.7391 47.9235H72.2391V47.4235H71.7391V47.9235ZM71.7391 51.3239V51.8239H72.2391V51.3239H71.7391ZM34.6674 47.5915L35.0213 47.2383L35.0209 47.2379L34.6674 47.5915ZM28.1987 41.1228L28.5522 40.7692L28.4058 40.6228H28.1987V41.1228ZM9.3349 41.1228V40.6228H8.36336L8.92802 41.4134L9.3349 41.1228ZM14.3232 48.1071L14.7307 47.8174L14.7301 47.8165L14.3232 48.1071ZM16.1015 51.3239L15.6395 51.5149L15.7672 51.8239H16.1015V51.3239ZM59.2712 45.6568H58.7712V46.1568H59.2712V45.6568ZM59.2712 29.7885V29.2885H58.7712V29.7885H59.2712ZM68.3387 45.6568V46.1568H68.8387V45.6568H68.3387ZM68.3387 29.7885H68.8387V29.2885H68.3387V29.7885ZM71.7391 25.7816L72.0167 26.1975L72.2391 26.049V25.7816H71.7391ZM69.132 27.5217V28.0217H69.2835L69.4096 27.9376L69.132 27.5217ZM71.7391 25.2545H72.2391V24.7545H71.7391V25.2545ZM55.8708 25.2545V24.7545H55.3708V25.2545H55.8708ZM55.8708 25.7816H55.3708V26.049L55.5932 26.1975L55.8708 25.7816ZM58.4775 27.5217L58.1999 27.9375L58.3259 28.0217H58.4775V27.5217ZM61.538 32.0552V31.5552H61.038V32.0552H61.538ZM66.0715 32.0552H66.5715V31.5552H66.0715V32.0552ZM61.538 34.3219H61.038V34.8219H61.538V34.3219ZM66.0715 34.3219V34.8219H66.5715V34.3219H66.0715ZM66.0715 36.5891H66.5715V36.0891H66.0715V36.5891ZM61.538 36.5891V36.0891H61.038V36.5891H61.538ZM66.0715 38.8559V39.3559H66.5715V38.8559H66.0715ZM61.538 38.8559H61.038V39.3559H61.538V38.8559ZM61.538 41.1225V40.6225H61.038V41.1225H61.538ZM66.0715 41.1225H66.5715V40.6225H66.0715V41.1225ZM61.538 43.3897H61.038V43.8897H61.538V43.3897ZM66.0715 43.3897V43.8897H66.5715V43.3897H66.0715ZM27.5346 43.39H28.0346V42.89H27.5346V43.39ZM25.2678 43.39V42.89H24.7678V43.39H25.2678ZM27.5346 45.6568V46.1568H28.0346V45.6568H27.5346ZM25.2678 45.6568H24.7678V46.1568H25.2678V45.6568ZM20.7338 43.39V42.89H20.2338V43.39H20.7338ZM23.0006 43.39H23.5006V42.89H23.0006V43.39ZM20.7338 45.6568H20.2338V46.1568H20.7338V45.6568ZM23.0006 45.6568V46.1568H23.5006V45.6568H23.0006ZM72.8723 22.4877H70.6055V23.4877H72.8723V22.4877ZM74.5054 24.1217C74.5061 23.2189 73.7746 22.4877 72.8723 22.4877V23.4877C73.2225 23.4877 73.5057 23.7711 73.5054 24.1209L74.5054 24.1217ZM74.5054 26.3881V24.1213H73.5054V26.3881H74.5054ZM73.7788 27.7504C74.2342 27.4465 74.5074 26.9341 74.5054 26.3862L73.5054 26.3899C73.5062 26.6021 73.4003 26.8008 73.2239 26.9185L73.7788 27.7504ZM70.8825 29.6776L73.7783 27.7507L73.2244 26.9182L70.3285 28.845L70.8825 29.6776ZM71.1055 45.6568V29.2613H70.1055V45.6568H71.1055ZM72.8723 45.1568H70.6055V46.1568H72.8723V45.1568ZM74.5054 46.7899C74.5054 45.8879 73.7743 45.1568 72.8723 45.1568V46.1568C73.222 46.1568 73.5054 46.4402 73.5054 46.7899H74.5054ZM74.5054 53.5912V46.7899H73.5054V53.5912H74.5054ZM69.4719 58.6247C72.2519 58.6247 74.5054 56.3711 74.5054 53.5912H73.5054C73.5054 55.8188 71.6996 57.6247 69.4719 57.6247V58.6247ZM16.1998 58.6247H69.4719V57.6247H16.1998V58.6247ZM14.5669 57.0481C14.5975 57.928 15.3199 58.6254 16.2002 58.6247L16.1994 57.6247C15.8584 57.625 15.5782 57.3547 15.5663 57.0134L14.5669 57.0481ZM12.0722 49.7152C13.6075 51.8609 14.4753 54.4116 14.5669 57.0481L15.5663 57.0134C15.4679 54.1801 14.5353 51.4391 12.8855 49.1333L12.0722 49.7152ZM5.80389 40.9388L12.072 49.7149L12.8857 49.1337L6.61764 40.3576L5.80389 40.9388ZM5.5 39.9915C5.50066 40.3304 5.60617 40.6612 5.8035 40.9383L6.61803 40.3581C6.54141 40.2506 6.50026 40.122 6.5 39.9896L5.5 39.9915ZM7.13233 38.356C6.22965 38.3567 5.49934 39.0892 5.5 39.9909L6.5 39.9902C6.49974 39.6402 6.78314 39.3563 7.13306 39.356L7.13233 38.356ZM11.6662 38.356H7.13269V39.356H11.6662V38.356ZM11.1662 33.1888V38.856H12.1662V33.1888H11.1662ZM12.7999 31.5552C11.8973 31.5552 11.1662 32.287 11.1662 33.1888H12.1662C12.1662 32.839 12.4498 32.5552 12.7999 32.5552V31.5552ZM53.604 31.5552H12.7999V32.5552H53.604V31.5552ZM55.2372 33.1888C55.2372 32.2865 54.5061 31.5552 53.604 31.5552V32.5552C53.9536 32.5552 54.2372 32.8386 54.2372 33.1888H55.2372ZM55.2372 45.6568V33.1888H54.2372V45.6568H55.2372ZM57.0044 45.1568H54.7372V46.1568H57.0044V45.1568ZM56.5044 29.2613V45.6568H57.5044V29.2613H56.5044ZM53.8313 27.7473L56.7271 29.6774L57.2817 28.8453L54.3859 26.9152L53.8313 27.7473ZM53.104 26.3881C53.104 26.9336 53.3764 27.444 53.8312 27.7472L54.3859 26.9152C54.2098 26.7978 54.104 26.5998 54.104 26.3881H53.104ZM53.104 24.1208V26.3881H54.104V24.1208H53.104ZM54.7372 22.4877C53.8352 22.4877 53.104 23.2189 53.104 24.1208H54.104C54.104 23.7711 54.3875 23.4877 54.7372 23.4877V22.4877ZM57.0044 22.4877H54.7372V23.4877H57.0044V22.4877ZM56.5044 19.5873V22.9877H57.5044V19.5873H56.5044ZM58.1376 17.9537C57.2353 17.9537 56.5044 18.6856 56.5044 19.5873H57.5044C57.5044 19.2373 57.7881 18.9537 58.1376 18.9537V17.9537ZM62.6716 17.9537H58.1376V18.9537H62.6716V17.9537ZM62.1716 16.1869V18.4537H63.1716V16.1869H62.1716ZM60.4043 16.6869H62.6716V15.6869H60.4043V16.6869ZM59.9043 13.9201V16.1869H60.9043V13.9201H59.9043ZM67.2051 13.4201H60.4043V14.4201H67.2051V13.4201ZM67.7051 16.1869V13.9201H66.7051V16.1869H67.7051ZM64.9384 16.6869H67.2051V15.6869H64.9384V16.6869ZM65.4384 18.4537V16.1869H64.4384V18.4537H65.4384ZM69.4719 17.9537H64.9384V18.9537H69.4719V17.9537ZM71.1055 19.5873C71.1055 18.6853 70.3739 17.9537 69.4719 17.9537V18.9537C69.8216 18.9537 70.1055 19.2376 70.1055 19.5873H71.1055ZM71.1055 22.9877V19.5873H70.1055V22.9877H71.1055ZM59.2712 21.2209H68.3387V20.2209H59.2712V21.2209ZM59.7712 22.9877V20.7209H58.7712V22.9877H59.7712ZM68.3387 22.4877H59.2712V23.4877H68.3387V22.4877ZM67.8387 20.7209V22.9877H68.8387V20.7209H67.8387ZM41.1361 34.822H52.4704V33.822H41.1361V34.822ZM41.6361 38.856V34.322H40.6361V38.856H41.6361ZM52.4704 38.356H41.1361V39.356H52.4704V38.356ZM51.9704 34.322V38.856H52.9704V34.322H51.9704ZM41.1361 41.6228H52.4704V40.6228H41.1361V41.6228ZM41.6361 45.6568V41.1228H40.6361V45.6568H41.6361ZM52.4704 45.1568H41.1361V46.1568H52.4704V45.1568ZM51.9704 41.1228V45.6568H52.9704V41.1228H51.9704ZM27.5346 34.822H38.8689V33.822H27.5346V34.822ZM28.0346 38.856V34.322H27.0346V38.856H28.0346ZM38.8689 38.356H27.5346V39.356H38.8689V38.356ZM38.3689 34.322V38.856H39.3689V34.322H38.3689ZM38.3689 41.1228V45.6568H39.3689V41.1228H38.3689ZM31.404 41.6228H38.8689V40.6228H31.404V41.6228ZM36.2915 45.3032L31.7575 40.7692L31.0504 41.4763L35.5844 46.0103L36.2915 45.3032ZM38.8689 45.1568H35.938V46.1568H38.8689V45.1568ZM13.933 34.822H25.2678V33.822H13.933V34.822ZM14.433 38.856V34.322H13.433V38.856H14.433ZM25.2678 38.356H13.933V39.356H25.2678V38.356ZM24.7678 34.322V38.856H25.7678V34.322H24.7678ZM69.4719 55.3575H17.2578V56.3575H69.4719V55.3575ZM71.2391 53.5907C71.2391 54.5666 70.448 55.3575 69.4719 55.3575V56.3575C71 56.3575 72.2391 55.1191 72.2391 53.5907H71.2391ZM16.8542 54.0907H71.7391V53.0907H16.8542V54.0907ZM17.755 55.805C17.6718 55.0171 17.5325 54.2366 17.3391 53.4686L16.3694 53.7128C16.5513 54.4354 16.6823 55.1695 16.7605 55.91L17.755 55.805ZM71.2391 47.9235V51.3239H72.2391V47.9235H71.2391ZM35.4685 48.4235H71.7391V47.4235H35.4685V48.4235ZM34.3135 47.9447C34.6196 48.2514 35.0352 48.4235 35.4685 48.4235V47.4235C35.3004 47.4235 35.1395 47.3568 35.0213 47.2383L34.3135 47.9447ZM27.8451 41.4763L34.3138 47.945L35.0209 47.2379L28.5522 40.7692L27.8451 41.4763ZM9.3349 41.6228H28.1987V40.6228H9.3349V41.6228ZM14.7301 47.8165L9.74178 40.8322L8.92802 41.4134L13.9163 48.3977L14.7301 47.8165ZM16.5636 51.1329C16.0797 49.9621 15.4646 48.8498 14.7307 47.8174L13.9157 48.3968C14.6059 49.3678 15.1844 50.4139 15.6395 51.5149L16.5636 51.1329ZM71.7391 50.8239H16.1015V51.8239H71.7391V50.8239ZM59.7712 45.6568V29.7885H58.7712V45.6568H59.7712ZM68.3387 45.1568H59.2712V46.1568H68.3387V45.1568ZM67.8387 29.7885V45.6568H68.8387V29.7885H67.8387ZM59.2712 30.2885H68.3387V29.2885H59.2712V30.2885ZM71.4615 25.3657L68.8544 27.1058L69.4096 27.9376L72.0167 26.1975L71.4615 25.3657ZM71.2391 25.2545V25.7816H72.2391V25.2545H71.2391ZM55.8708 25.7545H71.7391V24.7545H55.8708V25.7545ZM56.3708 25.7816V25.2545H55.3708V25.7816H56.3708ZM58.7551 27.1058L56.1484 25.3657L55.5932 26.1975L58.1999 27.9375L58.7551 27.1058ZM69.132 27.0217H58.4775V28.0217H69.132V27.0217ZM61.538 32.5552H66.0715V31.5552H61.538V32.5552ZM62.038 34.3219V32.0552H61.038V34.3219H62.038ZM66.0715 33.8219H61.538V34.8219H66.0715V33.8219ZM65.5715 32.0552V34.3219H66.5715V32.0552H65.5715ZM66.0715 36.0891H61.538V37.0891H66.0715V36.0891ZM66.5715 38.8559V36.5891H65.5715V38.8559H66.5715ZM61.538 39.3559H66.0715V38.3559H61.538V39.3559ZM61.038 36.5891V38.8559H62.038V36.5891H61.038ZM61.538 41.6225H66.0715V40.6225H61.538V41.6225ZM62.038 43.3897V41.1225H61.038V43.3897H62.038ZM66.0715 42.8897H61.538V43.8897H66.0715V42.8897ZM65.5715 41.1225V43.3897H66.5715V41.1225H65.5715ZM27.5346 42.89H25.2678V43.89H27.5346V42.89ZM28.0346 45.6568V43.39H27.0346V45.6568H28.0346ZM25.2678 46.1568H27.5346V45.1568H25.2678V46.1568ZM24.7678 43.39V45.6568H25.7678V43.39H24.7678ZM20.7338 43.89H23.0006V42.89H20.7338V43.89ZM21.2338 45.6568V43.39H20.2338V45.6568H21.2338ZM23.0006 45.1568H20.7338V46.1568H23.0006V45.1568ZM22.5006 43.39V45.6568H23.5006V43.39H22.5006Z" fill="#372120" mask="url(#path-2-inside-1)"/>
</svg>
