<svg width="65" height="65" viewBox="0 0 65 65" fill="none" xmlns="http://www.w3.org/2000/svg">
<path d="M44.1531 26.7674L44.1488 26.7545C44.1352 26.713 44.1187 26.6727 44.0995 26.6336C44.0826 26.6089 44.0645 26.585 44.045 26.5619L44.0373 26.5528L44.0308 26.5429C44.01 26.5113 43.9871 26.4811 43.9624 26.4527C43.9382 26.4318 43.9129 26.4119 43.8868 26.3933L43.8772 26.3864L43.8684 26.3784C43.8417 26.3541 43.8136 26.3312 43.7842 26.3097L32.9584 19.8142L32.9583 19.8142C32.6784 19.646 32.3284 19.646 32.0485 19.8142L32.0484 19.8142L21.2189 26.3119C21.1881 26.3324 21.1592 26.3548 21.1323 26.379L21.1234 26.387L21.1137 26.3939C21.0877 26.4122 21.0625 26.4318 21.0382 26.4526C21.0136 26.4813 20.9908 26.5114 20.9699 26.5428L20.9631 26.553L20.955 26.5624C20.9355 26.5851 20.9174 26.6087 20.9009 26.6333C20.882 26.6713 20.8658 26.7107 20.8522 26.7513L20.8488 26.7614L20.8443 26.7712C20.8324 26.797 20.8218 26.8232 20.8126 26.8496C20.7932 26.9217 20.7834 26.9961 20.7835 27.0708L20.7835 27.0711L20.7835 37.9044C20.7835 37.9044 20.7835 37.9044 20.7835 37.9044C20.7836 38.2145 20.9461 38.5017 21.2118 38.6613L44.1531 26.7674ZM44.1531 26.7674L44.159 26.7795M44.1531 26.7674L44.159 26.7795M44.159 26.7795C44.17 26.8021 44.1795 26.8249 44.1875 26.848C44.207 26.921 44.2169 26.9959 44.2168 27.0708V27.0711M44.159 26.7795L44.2168 27.0711M44.2168 27.0711V37.9044C44.2168 37.9044 44.2168 37.9044 44.2168 37.9044M44.2168 27.0711V37.9044M44.2168 37.9044C44.2166 38.2145 44.0541 38.5017 43.7885 38.6613L44.2168 37.9044ZM32.0354 45.1555L21.2119 38.6614L32.2723 45.2569C32.2704 45.2561 32.2674 45.2548 32.2628 45.2527C32.2619 45.2523 32.2608 45.2518 32.2596 45.2512C32.2496 45.2467 32.2298 45.2377 32.2094 45.2306L32.2095 45.2305L32.202 45.2282C32.1571 45.2145 32.1133 45.197 32.0709 45.1759L32.0554 45.1646L32.0369 45.1562L32.0354 45.1555ZM32.7256 45.2579C32.578 45.2977 32.4224 45.2977 32.2747 45.2579L43.7884 38.6614L32.9649 45.1555L32.9634 45.1562L32.9449 45.1646L32.9294 45.1759C32.887 45.197 32.8432 45.2145 32.7983 45.2282L32.7982 45.228L32.7908 45.2306C32.7704 45.2377 32.7507 45.2467 32.7407 45.2512C32.7395 45.2518 32.7384 45.2523 32.7374 45.2527C32.7299 45.2561 32.7266 45.2575 32.7256 45.2579ZM32.6031 21.6628L32.5001 21.601L32.3972 21.6628L23.6699 26.8996L23.3841 27.0711L23.6699 27.2426L26.9806 29.2294L27.0835 29.2912L27.1864 29.2294L35.9137 23.9926L36.1995 23.8211L35.9137 23.6496L32.6031 21.6628ZM31.3139 42.6617L31.6168 42.8434V42.4902V34.1843V34.071L31.5197 34.0128L22.8531 28.8128L22.5502 28.631V28.9843V37.2902V37.4034L22.6473 37.4617L31.3139 42.6617ZM32.3972 32.4794L32.5001 32.5412L32.603 32.4794L41.3304 27.2426L41.6161 27.0711L41.3304 26.8996L38.0197 24.9128L37.9168 24.851L37.8139 24.9128L29.0866 30.1496L28.8008 30.3211L29.0866 30.4926L32.3972 32.4794ZM42.353 37.4628L42.4501 37.4045V37.2913V28.9843V28.631L42.1472 28.8128L33.4806 34.0128L33.3835 34.071V34.1843V42.4913V42.8445L33.6864 42.6628L42.353 37.4628Z" fill="white" stroke="#EDC939" stroke-width="0.4"/>
<path d="M33.2094 0.54517L36.3366 4.71473L34.9233 5.77472L33.7433 4.20139L33.3833 3.72139V4.32139V12.788H31.6166V4.32139V3.72139L31.2566 4.20139L30.0766 5.77472L28.6633 4.71473L31.7905 0.545102C31.8276 0.50038 31.8689 0.459267 31.9138 0.422399L31.9139 0.422295C32.3063 0.0995453 32.8853 0.154798 33.2094 0.54517Z" fill="white" stroke="#EDC939" stroke-width="0.4"/>
<path d="M31.6166 60.6544V52.1877H33.3833V60.6544V61.2544L33.7433 60.7744L34.9233 59.201L36.3366 60.261L33.2067 64.4343C33.1564 64.5012 33.0969 64.5608 33.03 64.611C32.6396 64.9038 32.086 64.8247 31.7933 64.4344L31.7933 64.4344L28.6633 60.261L30.0766 59.201L31.2566 60.7744L31.6166 61.2544V60.6544Z" fill="white" stroke="#EDC939" stroke-width="0.4"/>
<path d="M31.6165 17.1214V15.3547H33.3832V17.1214H31.6165Z" fill="white" stroke="#EDC939" stroke-width="0.4"/>
<path d="M31.6165 49.6212V47.8546H33.3832V49.6212H31.6165Z" fill="white" stroke="#EDC939" stroke-width="0.4"/>
<path d="M4.21341 33.731L5.78674 34.911L4.72674 36.3244L0.553498 33.1944C0.486565 33.1442 0.427016 33.0847 0.376752 33.0177C0.0840196 32.6274 0.163096 32.0738 0.553406 31.7811L0.553413 31.7811L4.72674 28.6511L5.78673 30.0644L4.21341 31.2444L3.7334 31.6044H4.33341H12.8001V33.371H4.33341H3.7334L4.21341 33.731Z" fill="white" stroke="#EDC939" stroke-width="0.4"/>
<path d="M52.2 33.371V31.6044H60.6666H61.2666L60.7866 31.2444L59.2133 30.0644L60.2733 28.6511L64.4465 31.781C64.4466 31.781 64.4466 31.781 64.4466 31.7811C64.5135 31.8313 64.573 31.8908 64.6233 31.9577C64.916 32.3481 64.8369 32.9017 64.4466 33.1944L64.4466 33.1944L60.2733 36.3244L59.2133 34.911L60.7866 33.731L61.2666 33.371H60.6666H52.2Z" fill="white" stroke="#EDC939" stroke-width="0.4"/>
<path d="M15.3665 33.3713V31.6046H17.1332V33.3713H15.3665Z" fill="white" stroke="#EDC939" stroke-width="0.4"/>
<path d="M47.8665 33.3713V31.6046H49.6332V33.3713H47.8665Z" fill="white" stroke="#EDC939" stroke-width="0.4"/>
<path d="M13.2087 11.9475L19.1944 17.9332L17.9415 19.1826L11.9554 13.1965L11.5314 12.7725L11.616 13.3661L11.8933 15.3121L10.1442 15.5621L9.40655 10.3987L9.40655 10.3987L9.40637 10.3975C9.39358 10.3117 9.39358 10.2243 9.40638 10.1384L9.40639 10.1383C9.47806 9.65562 9.92736 9.32252 10.4098 9.39418L10.4108 9.39431L15.5744 10.1361L15.3243 11.8854L13.3783 11.6081L12.7847 11.5235L13.2087 11.9475Z" fill="white" stroke="#EDC939" stroke-width="0.4"/>
<path d="M55.7897 54.5488L55.0521 49.3854L55.7897 54.5488ZM55.7897 54.5488C55.797 54.5999 55.8008 54.6513 55.8007 54.7028L55.7897 54.5488ZM55.5917 54.5771L55.5917 54.5772C55.5977 54.6192 55.6008 54.661 55.6007 54.7023V54.7027C55.6006 55.1906 55.205 55.5861 54.7172 55.586L54.7167 55.586C54.675 55.5861 54.6332 55.5831 54.5918 55.5772L54.5916 55.5772L49.4282 54.8395L49.6782 53.0907L51.6218 53.3699L52.2165 53.4553L51.7917 53.0305L45.8058 47.0446L47.0548 45.7956L53.0407 51.7815L53.4647 52.2055L53.3801 51.6119L53.1028 49.6657L54.8541 49.4139L55.5917 54.5771ZM54.8258 49.2159L52.8766 49.4962L54.8258 49.2159Z" fill="white" stroke="#EDC939" stroke-width="0.4"/>
<path d="M21.0096 22.2472L19.7604 20.998L21.0096 19.7488L22.2588 20.998L21.0096 22.2472Z" fill="white" stroke="#EDC939" stroke-width="0.4"/>
<path d="M43.991 45.227L42.7418 43.9778L43.991 42.7286L45.2402 43.9778L43.991 45.227Z" fill="white" stroke="#EDC939" stroke-width="0.4"/>
<path d="M13.2042 53.0282L12.7802 53.4522L13.3738 53.3676L15.3198 53.0903L15.5698 54.8394L10.4064 55.577L10.4063 55.577C10.3648 55.583 10.323 55.5859 10.2814 55.5858H10.2809C10.2389 55.5858 10.197 55.5828 10.1553 55.5769C9.67236 55.5075 9.33714 55.0599 9.40634 54.5771C9.40634 54.5771 9.40634 54.5771 9.40635 54.577L10.1482 49.4135L11.8974 49.6635L11.6201 51.6095L11.5355 52.2032L11.9595 51.7792L17.9452 45.7935L19.1903 47.0421L13.2042 53.0282Z" fill="white" stroke="#EDC939" stroke-width="0.4"/>
<path d="M57.3388 9.64776L57.3396 9.64856C57.5365 9.84537 57.6291 10.1231 57.5895 10.3984L57.5895 10.3986L56.8519 15.5618L55.1028 15.31L55.3801 13.366L55.4648 12.7722L55.0407 13.1963L49.0548 19.1822L47.8058 17.9332L53.7917 11.9473L54.2157 11.5233L53.6221 11.6079L51.6761 11.8852L51.4261 10.1361L56.5895 9.39851L56.5905 9.39835C56.8654 9.35759 57.1433 9.45024 57.3388 9.64776Z" fill="white" stroke="#EDC939" stroke-width="0.4"/>
<path d="M21.0106 45.2279L19.7614 43.9787L21.0106 42.7294L22.2598 43.9787L21.0106 45.2279Z" fill="white" stroke="#EDC939" stroke-width="0.4"/>
<path d="M43.9915 22.2436L42.7423 20.9944L43.9915 19.7452L45.2407 20.9944L43.9915 22.2436Z" fill="white" stroke="#EDC939" stroke-width="0.4"/>
</svg>
