<svg width="80" height="80" viewBox="0 0 80 80" fill="none" xmlns="http://www.w3.org/2000/svg">
<rect width="80" height="80" fill="#372120"/>
<mask id="path-2-inside-1" fill="white">
<path fill-rule="evenodd" clip-rule="evenodd" d="M65.2 36.3828C65.2 36.9196 64.797 37.3549 64.3 37.3549H63.4V55.8236H64.3C64.797 55.8236 65.2 56.2588 65.2 56.7956V59.7117H66.1C66.597 59.7117 67 60.1469 67 60.6838V64.5719C67 65.1087 66.597 65.5439 66.1 65.5439H13.9C13.403 65.5439 13 65.1087 13 64.5719V60.6838C13 60.1469 13.403 59.7117 13.9 59.7117H14.8V56.7956C14.8 56.2588 15.203 55.8236 15.7 55.8236H16.6V37.3549H15.7C15.203 37.3549 14.8 36.9196 14.8 36.3828V33.4667H13.9C13.403 33.4667 13 33.0315 13 32.4947V28.6065C13.0008 28.2245 13.2085 27.8785 13.531 27.722L39.631 15.0855C39.8657 14.9715 40.1343 14.9715 40.369 15.0855L66.469 27.722C66.7915 27.8786 66.9992 28.2246 67 28.6065V32.4947C67 33.0315 66.597 33.4667 66.1 33.4667H65.2V36.3828ZM14.8 29.2383V31.5226H65.2V29.2383L40 17.0393L14.8 29.2383ZM63.4 59.7117V57.7676H16.6V59.7117H63.4ZM18.4 37.3549V55.8236H23.8V37.3549H18.4ZM25.6 37.3549V55.8236H29.2V37.3549H25.6ZM31 37.3549V55.8236H36.4V37.3549H31ZM38.2 37.3549V55.8236H41.8V37.3549H38.2ZM43.6 37.3549V55.8236H49V37.3549H43.6ZM50.8 37.3549V55.8236H54.4V37.3549H50.8ZM56.2 37.3549V55.8236H61.6V37.3549H56.2ZM65.2 63.5999V61.6558H14.8V63.5999H65.2ZM16.6 33.4667V35.4108H63.4V33.4667H16.6ZM35.5 25.8601C35.5 23.176 37.5148 21 40 21C42.4852 21 44.5 23.176 44.5 25.8601C44.5 28.5442 42.4852 30.7202 40 30.7202C37.5148 30.7202 35.5 28.5442 35.5 25.8601ZM37.3 25.8601C37.3 27.4706 38.5088 28.7762 40 28.7762C41.4912 28.7762 42.7 27.4706 42.7 25.8601C42.7 24.2496 41.4912 22.944 40 22.944C38.5088 22.944 37.3 24.2496 37.3 25.8601Z"/>
</mask>
<path fill-rule="evenodd" clip-rule="evenodd" d="M65.2 36.3828C65.2 36.9196 64.797 37.3549 64.3 37.3549H63.4V55.8236H64.3C64.797 55.8236 65.2 56.2588 65.2 56.7956V59.7117H66.1C66.597 59.7117 67 60.1469 67 60.6838V64.5719C67 65.1087 66.597 65.5439 66.1 65.5439H13.9C13.403 65.5439 13 65.1087 13 64.5719V60.6838C13 60.1469 13.403 59.7117 13.9 59.7117H14.8V56.7956C14.8 56.2588 15.203 55.8236 15.7 55.8236H16.6V37.3549H15.7C15.203 37.3549 14.8 36.9196 14.8 36.3828V33.4667H13.9C13.403 33.4667 13 33.0315 13 32.4947V28.6065C13.0008 28.2245 13.2085 27.8785 13.531 27.722L39.631 15.0855C39.8657 14.9715 40.1343 14.9715 40.369 15.0855L66.469 27.722C66.7915 27.8786 66.9992 28.2246 67 28.6065V32.4947C67 33.0315 66.597 33.4667 66.1 33.4667H65.2V36.3828ZM14.8 29.2383V31.5226H65.2V29.2383L40 17.0393L14.8 29.2383ZM63.4 59.7117V57.7676H16.6V59.7117H63.4ZM18.4 37.3549V55.8236H23.8V37.3549H18.4ZM25.6 37.3549V55.8236H29.2V37.3549H25.6ZM31 37.3549V55.8236H36.4V37.3549H31ZM38.2 37.3549V55.8236H41.8V37.3549H38.2ZM43.6 37.3549V55.8236H49V37.3549H43.6ZM50.8 37.3549V55.8236H54.4V37.3549H50.8ZM56.2 37.3549V55.8236H61.6V37.3549H56.2ZM65.2 63.5999V61.6558H14.8V63.5999H65.2ZM16.6 33.4667V35.4108H63.4V33.4667H16.6ZM35.5 25.8601C35.5 23.176 37.5148 21 40 21C42.4852 21 44.5 23.176 44.5 25.8601C44.5 28.5442 42.4852 30.7202 40 30.7202C37.5148 30.7202 35.5 28.5442 35.5 25.8601ZM37.3 25.8601C37.3 27.4706 38.5088 28.7762 40 28.7762C41.4912 28.7762 42.7 27.4706 42.7 25.8601C42.7 24.2496 41.4912 22.944 40 22.944C38.5088 22.944 37.3 24.2496 37.3 25.8601Z" fill="white"/>
<path d="M63.4 37.3549V37.0549H63.1V37.3549H63.4ZM63.4 55.8236H63.1V56.1236H63.4V55.8236ZM65.2 59.7117H64.9V60.0117H65.2V59.7117ZM14.8 59.7117V60.0117H15.1V59.7117H14.8ZM16.6 55.8236V56.1236H16.9V55.8236H16.6ZM16.6 37.3549H16.9V37.0549H16.6V37.3549ZM14.8 33.4667H15.1V33.1667H14.8V33.4667ZM13 28.6065L12.7 28.6059V28.6065H13ZM13.531 27.722L13.4003 27.452L13.4 27.4521L13.531 27.722ZM39.631 15.0855L39.7617 15.3555L39.7621 15.3553L39.631 15.0855ZM40.369 15.0855L40.2379 15.3553L40.2383 15.3555L40.369 15.0855ZM66.469 27.722L66.6 27.4521L66.5997 27.452L66.469 27.722ZM67 28.6065L67.3 28.6065L67.3 28.6059L67 28.6065ZM65.2 33.4667V33.1667H64.9V33.4667H65.2ZM14.8 31.5226H14.5V31.8226H14.8V31.5226ZM14.8 29.2383L14.6693 28.9683L14.5 29.0503V29.2383H14.8ZM65.2 31.5226V31.8226H65.5V31.5226H65.2ZM65.2 29.2383H65.5V29.0503L65.3307 28.9683L65.2 29.2383ZM40 17.0393L40.1307 16.7692L40 16.706L39.8693 16.7692L40 17.0393ZM63.4 57.7676H63.7V57.4676H63.4V57.7676ZM63.4 59.7117V60.0117H63.7V59.7117H63.4ZM16.6 57.7676V57.4676H16.3V57.7676H16.6ZM16.6 59.7117H16.3V60.0117H16.6V59.7117ZM18.4 55.8236H18.1V56.1236H18.4V55.8236ZM18.4 37.3549V37.0549H18.1V37.3549H18.4ZM23.8 55.8236V56.1236H24.1V55.8236H23.8ZM23.8 37.3549H24.1V37.0549H23.8V37.3549ZM25.6 55.8236H25.3V56.1236H25.6V55.8236ZM25.6 37.3549V37.0549H25.3V37.3549H25.6ZM29.2 55.8236V56.1236H29.5V55.8236H29.2ZM29.2 37.3549H29.5V37.0549H29.2V37.3549ZM31 55.8236H30.7V56.1236H31V55.8236ZM31 37.3549V37.0549H30.7V37.3549H31ZM36.4 55.8236V56.1236H36.7V55.8236H36.4ZM36.4 37.3549H36.7V37.0549H36.4V37.3549ZM38.2 55.8236H37.9V56.1236H38.2V55.8236ZM38.2 37.3549V37.0549H37.9V37.3549H38.2ZM41.8 55.8236V56.1236H42.1V55.8236H41.8ZM41.8 37.3549H42.1V37.0549H41.8V37.3549ZM43.6 55.8236H43.3V56.1236H43.6V55.8236ZM43.6 37.3549V37.0549H43.3V37.3549H43.6ZM49 55.8236V56.1236H49.3V55.8236H49ZM49 37.3549H49.3V37.0549H49V37.3549ZM50.8 55.8236H50.5V56.1236H50.8V55.8236ZM50.8 37.3549V37.0549H50.5V37.3549H50.8ZM54.4 55.8236V56.1236H54.7V55.8236H54.4ZM54.4 37.3549H54.7V37.0549H54.4V37.3549ZM56.2 55.8236H55.9V56.1236H56.2V55.8236ZM56.2 37.3549V37.0549H55.9V37.3549H56.2ZM61.6 55.8236V56.1236H61.9V55.8236H61.6ZM61.6 37.3549H61.9V37.0549H61.6V37.3549ZM65.2 61.6558H65.5V61.3558H65.2V61.6558ZM65.2 63.5999V63.8999H65.5V63.5999H65.2ZM14.8 61.6558V61.3558H14.5V61.6558H14.8ZM14.8 63.5999H14.5V63.8999H14.8V63.5999ZM16.6 35.4108H16.3V35.7108H16.6V35.4108ZM16.6 33.4667V33.1667H16.3V33.4667H16.6ZM63.4 35.4108V35.7108H63.7V35.4108H63.4ZM63.4 33.4667H63.7V33.1667H63.4V33.4667ZM64.3 37.6549C64.984 37.6549 65.5 37.0631 65.5 36.3828H64.9C64.9 36.7761 64.61 37.0549 64.3 37.0549V37.6549ZM63.4 37.6549H64.3V37.0549H63.4V37.6549ZM63.7 55.8236V37.3549H63.1V55.8236H63.7ZM64.3 55.5236H63.4V56.1236H64.3V55.5236ZM65.5 56.7956C65.5 56.1153 64.984 55.5236 64.3 55.5236V56.1236C64.61 56.1236 64.9 56.4023 64.9 56.7956H65.5ZM65.5 59.7117V56.7956H64.9V59.7117H65.5ZM66.1 59.4117H65.2V60.0117H66.1V59.4117ZM67.3 60.6838C67.3 60.0034 66.784 59.4117 66.1 59.4117V60.0117C66.41 60.0117 66.7 60.2905 66.7 60.6838H67.3ZM67.3 64.5719V60.6838H66.7V64.5719H67.3ZM66.1 65.8439C66.784 65.8439 67.3 65.2522 67.3 64.5719H66.7C66.7 64.9652 66.41 65.2439 66.1 65.2439V65.8439ZM13.9 65.8439H66.1V65.2439H13.9V65.8439ZM12.7 64.5719C12.7 65.2522 13.216 65.8439 13.9 65.8439V65.2439C13.59 65.2439 13.3 64.9652 13.3 64.5719H12.7ZM12.7 60.6838V64.5719H13.3V60.6838H12.7ZM13.9 59.4117C13.216 59.4117 12.7 60.0034 12.7 60.6838H13.3C13.3 60.2905 13.59 60.0117 13.9 60.0117V59.4117ZM14.8 59.4117H13.9V60.0117H14.8V59.4117ZM14.5 56.7956V59.7117H15.1V56.7956H14.5ZM15.7 55.5236C15.016 55.5236 14.5 56.1153 14.5 56.7956H15.1C15.1 56.4023 15.39 56.1236 15.7 56.1236V55.5236ZM16.6 55.5236H15.7V56.1236H16.6V55.5236ZM16.3 37.3549V55.8236H16.9V37.3549H16.3ZM15.7 37.6549H16.6V37.0549H15.7V37.6549ZM14.5 36.3828C14.5 37.0631 15.016 37.6549 15.7 37.6549V37.0549C15.39 37.0549 15.1 36.7761 15.1 36.3828H14.5ZM14.5 33.4667V36.3828H15.1V33.4667H14.5ZM13.9 33.7667H14.8V33.1667H13.9V33.7667ZM12.7 32.4947C12.7 33.175 13.216 33.7667 13.9 33.7667V33.1667C13.59 33.1667 13.3 32.888 13.3 32.4947H12.7ZM12.7 28.6065V32.4947H13.3V28.6065H12.7ZM13.4 27.4521C12.966 27.6627 12.701 28.1188 12.7 28.6059L13.3 28.6071C13.3006 28.3303 13.4509 28.0943 13.662 27.9919L13.4 27.4521ZM39.5003 14.8155L13.4003 27.452L13.6617 27.992L39.7617 15.3555L39.5003 14.8155ZM40.5001 14.8156C40.1826 14.6615 39.8174 14.6615 39.4999 14.8156L39.7621 15.3553C39.914 15.2816 40.086 15.2816 40.2379 15.3553L40.5001 14.8156ZM66.5997 27.452L40.4997 14.8155L40.2383 15.3555L66.3383 27.992L66.5997 27.452ZM67.3 28.6059C67.299 28.1188 67.034 27.6628 66.6 27.4521L66.338 27.9918C66.5491 28.0944 66.6994 28.3304 66.7 28.6071L67.3 28.6059ZM67.3 32.4947V28.6065H66.7V32.4947H67.3ZM66.1 33.7667C66.784 33.7667 67.3 33.175 67.3 32.4947H66.7C66.7 32.888 66.41 33.1667 66.1 33.1667V33.7667ZM65.2 33.7667H66.1V33.1667H65.2V33.7667ZM65.5 36.3828V33.4667H64.9V36.3828H65.5ZM15.1 31.5226V29.2383H14.5V31.5226H15.1ZM65.2 31.2226H14.8V31.8226H65.2V31.2226ZM64.9 29.2383V31.5226H65.5V29.2383H64.9ZM39.8693 17.3093L65.0693 29.5084L65.3307 28.9683L40.1307 16.7692L39.8693 17.3093ZM14.9307 29.5084L40.1307 17.3093L39.8693 16.7692L14.6693 28.9683L14.9307 29.5084ZM63.1 57.7676V59.7117H63.7V57.7676H63.1ZM16.6 58.0676H63.4V57.4676H16.6V58.0676ZM16.9 59.7117V57.7676H16.3V59.7117H16.9ZM63.4 59.4117H16.6V60.0117H63.4V59.4117ZM18.7 55.8236V37.3549H18.1V55.8236H18.7ZM23.8 55.5236H18.4V56.1236H23.8V55.5236ZM23.5 37.3549V55.8236H24.1V37.3549H23.5ZM18.4 37.6549H23.8V37.0549H18.4V37.6549ZM25.9 55.8236V37.3549H25.3V55.8236H25.9ZM29.2 55.5236H25.6V56.1236H29.2V55.5236ZM28.9 37.3549V55.8236H29.5V37.3549H28.9ZM25.6 37.6549H29.2V37.0549H25.6V37.6549ZM31.3 55.8236V37.3549H30.7V55.8236H31.3ZM36.4 55.5236H31V56.1236H36.4V55.5236ZM36.1 37.3549V55.8236H36.7V37.3549H36.1ZM31 37.6549H36.4V37.0549H31V37.6549ZM38.5 55.8236V37.3549H37.9V55.8236H38.5ZM41.8 55.5236H38.2V56.1236H41.8V55.5236ZM41.5 37.3549V55.8236H42.1V37.3549H41.5ZM38.2 37.6549H41.8V37.0549H38.2V37.6549ZM43.9 55.8236V37.3549H43.3V55.8236H43.9ZM49 55.5236H43.6V56.1236H49V55.5236ZM48.7 37.3549V55.8236H49.3V37.3549H48.7ZM43.6 37.6549H49V37.0549H43.6V37.6549ZM51.1 55.8236V37.3549H50.5V55.8236H51.1ZM54.4 55.5236H50.8V56.1236H54.4V55.5236ZM54.1 37.3549V55.8236H54.7V37.3549H54.1ZM50.8 37.6549H54.4V37.0549H50.8V37.6549ZM56.5 55.8236V37.3549H55.9V55.8236H56.5ZM61.6 55.5236H56.2V56.1236H61.6V55.5236ZM61.3 37.3549V55.8236H61.9V37.3549H61.3ZM56.2 37.6549H61.6V37.0549H56.2V37.6549ZM64.9 61.6558V63.5999H65.5V61.6558H64.9ZM14.8 61.9558H65.2V61.3558H14.8V61.9558ZM15.1 63.5999V61.6558H14.5V63.5999H15.1ZM65.2 63.2999H14.8V63.8999H65.2V63.2999ZM16.9 35.4108V33.4667H16.3V35.4108H16.9ZM63.4 35.1108H16.6V35.7108H63.4V35.1108ZM63.1 33.4667V35.4108H63.7V33.4667H63.1ZM16.6 33.7667H63.4V33.1667H16.6V33.7667ZM40 20.7C37.3277 20.7 35.2 23.0325 35.2 25.8601H35.8C35.8 23.3195 37.7018 21.3 40 21.3V20.7ZM44.8 25.8601C44.8 23.0325 42.6723 20.7 40 20.7V21.3C42.2982 21.3 44.2 23.3195 44.2 25.8601H44.8ZM40 31.0202C42.6723 31.0202 44.8 28.6877 44.8 25.8601H44.2C44.2 28.4007 42.2982 30.4202 40 30.4202V31.0202ZM35.2 25.8601C35.2 28.6877 37.3277 31.0202 40 31.0202V30.4202C37.7018 30.4202 35.8 28.4007 35.8 25.8601H35.2ZM40 28.4762C38.6958 28.4762 37.6 27.3271 37.6 25.8601H37C37 27.6141 38.3218 29.0762 40 29.0762V28.4762ZM42.4 25.8601C42.4 27.3271 41.3042 28.4762 40 28.4762V29.0762C41.6782 29.0762 43 27.6141 43 25.8601H42.4ZM40 23.244C41.3042 23.244 42.4 24.3931 42.4 25.8601H43C43 24.1061 41.6782 22.644 40 22.644V23.244ZM37.6 25.8601C37.6 24.3931 38.6958 23.244 40 23.244V22.644C38.3218 22.644 37 24.1061 37 25.8601H37.6Z" fill="#372120" mask="url(#path-2-inside-1)"/>
</svg>
