<svg width="80" height="80" viewBox="0 0 80 80" fill="none" xmlns="http://www.w3.org/2000/svg">
<rect width="80" height="80" fill="#372120"/>
<mask id="path-2-inside-1" fill="white">
<path fill-rule="evenodd" clip-rule="evenodd" d="M50.97 12H28.0033C25.5653 12.0033 23.5898 14.137 23.5867 16.7701V64.4716C23.5898 67.1047 25.5653 69.2384 28.0033 69.2417H50.0867V67.5349C50.0825 63.2373 51.2604 59.0341 53.4716 55.4608C53.7057 55.082 53.6587 54.578 53.3612 54.2568L47.1779 47.5786C46.6064 46.9606 46.3034 46.1108 46.3433 45.2386C46.3835 44.3659 46.7631 43.5531 47.3881 42.9992C48.5919 42.0054 50.2943 42.1473 51.3428 43.3281L60.0622 52.7456L61.3112 51.3966L55.3867 44.996V16.7701C55.3836 14.137 53.408 12.0033 50.97 12ZM53.62 43.088L52.5918 41.9775C50.8972 40.1076 48.1716 39.9127 46.2636 41.5257C45.2544 42.4216 44.642 43.7367 44.5782 45.1465C44.5146 46.5561 45.0049 47.9292 45.9288 48.9276L51.6087 55.0622C49.4904 58.7488 48.3545 62.9952 48.3262 67.3336H28.0033C26.5401 67.3336 25.3533 66.0519 25.3533 64.4716V61.6095H47.4367V59.7014H25.3533V19.6322H53.62V43.088ZM53.62 17.7242H25.3533V16.7701C25.3533 15.1898 26.5401 13.9081 28.0033 13.9081H50.97C52.4333 13.9081 53.62 15.1898 53.62 16.7701V17.7242ZM57.9912 34.1934L56.8 35.5996L62.2173 40.9633C63.4926 42.2305 64.2196 44.016 64.22 45.8871V69.2422H65.9867V45.8871C65.9845 43.4805 65.0499 41.1856 63.4091 39.5568L57.9912 34.1934ZM32.42 29.1729H28.8867C27.9108 29.1729 27.12 28.3187 27.12 27.2648V23.4486C27.12 22.3946 27.9108 21.5405 28.8867 21.5405H32.42C33.3959 21.5405 34.1867 22.3946 34.1867 23.4486V27.2648C34.1867 28.3187 33.3959 29.1729 32.42 29.1729ZM32.42 23.4486H28.8867V27.2648H32.42V23.4486ZM37.72 29.1729H41.2534C42.2292 29.1729 43.02 28.3187 43.02 27.2648V23.4486C43.02 22.3946 42.2292 21.5405 41.2534 21.5405H37.72C36.7442 21.5405 35.9534 22.3946 35.9534 23.4486V27.2648C35.9534 28.3187 36.7442 29.1729 37.72 29.1729ZM37.72 23.4486H41.2534V27.2648H37.72V23.4486ZM50.0867 29.1729H46.5533C45.5775 29.1729 44.7867 28.3187 44.7867 27.2648V23.4486C44.7867 22.3946 45.5775 21.5405 46.5533 21.5405H50.0867C51.0625 21.5405 51.8533 22.3946 51.8533 23.4486V27.2648C51.8533 28.3187 51.0625 29.1729 50.0867 29.1729ZM50.0867 23.4486H46.5533V27.2648H50.0867V23.4486ZM28.8867 38.7129H32.42C33.3959 38.7129 34.1867 37.8588 34.1867 36.8048V32.9886C34.1867 31.9347 33.3959 31.0806 32.42 31.0806H28.8867C27.9108 31.0806 27.12 31.9347 27.12 32.9886V36.8048C27.12 37.8588 27.9108 38.7129 28.8867 38.7129ZM28.8867 32.9886H32.42V36.8048H28.8867V32.9886ZM32.42 48.2539H28.8867C27.9108 48.2539 27.12 47.3997 27.12 46.3457V42.5293C27.12 41.4753 27.9108 40.6211 28.8867 40.6211H32.42C33.3959 40.6211 34.1867 41.4753 34.1867 42.5293V46.3457C34.1867 47.3997 33.3959 48.2539 32.42 48.2539ZM32.42 42.5293H28.8867V46.3457H32.42V42.5293ZM37.72 38.7129H41.2534C42.2292 38.7129 43.02 37.8588 43.02 36.8048V32.9886C43.02 31.9347 42.2292 31.0806 41.2534 31.0806H37.72C36.7442 31.0806 35.9534 31.9347 35.9534 32.9886V36.8048C35.9534 37.8588 36.7442 38.7129 37.72 38.7129ZM37.72 32.9886H41.2534V36.8048H37.72V32.9886ZM50.0867 38.7129H46.5533C45.5775 38.7129 44.7867 37.8588 44.7867 36.8048V32.9886C44.7867 31.9347 45.5775 31.0806 46.5533 31.0806H50.0867C51.0625 31.0806 51.8533 31.9347 51.8533 32.9886V36.8048C51.8533 37.8588 51.0625 38.7129 50.0867 38.7129ZM50.0867 32.9886H46.5533V36.8048H50.0867V32.9886ZM37.72 48.2539H41.2534C42.2292 48.2539 43.02 47.3997 43.02 46.3457V42.5293C43.02 41.4753 42.2292 40.6211 41.2534 40.6211H37.72C36.7442 40.6211 35.9534 41.4753 35.9534 42.5293V46.3457C35.9534 47.3997 36.7442 48.2539 37.72 48.2539ZM37.72 42.5293H41.2534V46.3457H37.72V42.5293ZM32.42 57.7935H28.8867C27.9108 57.7935 27.12 56.9394 27.12 55.8854V52.0692C27.12 51.0152 27.9108 50.1611 28.8867 50.1611H32.42C33.3959 50.1611 34.1867 51.0152 34.1867 52.0692V55.8854C34.1867 56.9394 33.3959 57.7935 32.42 57.7935ZM32.42 52.0692H28.8867V55.8854H32.42V52.0692ZM37.72 57.7935H41.2534C42.2292 57.7935 43.02 56.9394 43.02 55.8854V52.0692C43.02 51.0152 42.2292 50.1611 41.2534 50.1611H37.72C36.7442 50.1611 35.9534 51.0152 35.9534 52.0692V55.8854C35.9534 56.9394 36.7442 57.7935 37.72 57.7935ZM37.72 52.0692H41.2534V55.8854H37.72V52.0692ZM40.37 63.5181H38.6033V65.4248H40.37V63.5181Z"/>
</mask>
<path fill-rule="evenodd" clip-rule="evenodd" d="M50.97 12H28.0033C25.5653 12.0033 23.5898 14.137 23.5867 16.7701V64.4716C23.5898 67.1047 25.5653 69.2384 28.0033 69.2417H50.0867V67.5349C50.0825 63.2373 51.2604 59.0341 53.4716 55.4608C53.7057 55.082 53.6587 54.578 53.3612 54.2568L47.1779 47.5786C46.6064 46.9606 46.3034 46.1108 46.3433 45.2386C46.3835 44.3659 46.7631 43.5531 47.3881 42.9992C48.5919 42.0054 50.2943 42.1473 51.3428 43.3281L60.0622 52.7456L61.3112 51.3966L55.3867 44.996V16.7701C55.3836 14.137 53.408 12.0033 50.97 12ZM53.62 43.088L52.5918 41.9775C50.8972 40.1076 48.1716 39.9127 46.2636 41.5257C45.2544 42.4216 44.642 43.7367 44.5782 45.1465C44.5146 46.5561 45.0049 47.9292 45.9288 48.9276L51.6087 55.0622C49.4904 58.7488 48.3545 62.9952 48.3262 67.3336H28.0033C26.5401 67.3336 25.3533 66.0519 25.3533 64.4716V61.6095H47.4367V59.7014H25.3533V19.6322H53.62V43.088ZM53.62 17.7242H25.3533V16.7701C25.3533 15.1898 26.5401 13.9081 28.0033 13.9081H50.97C52.4333 13.9081 53.62 15.1898 53.62 16.7701V17.7242ZM57.9912 34.1934L56.8 35.5996L62.2173 40.9633C63.4926 42.2305 64.2196 44.016 64.22 45.8871V69.2422H65.9867V45.8871C65.9845 43.4805 65.0499 41.1856 63.4091 39.5568L57.9912 34.1934ZM32.42 29.1729H28.8867C27.9108 29.1729 27.12 28.3187 27.12 27.2648V23.4486C27.12 22.3946 27.9108 21.5405 28.8867 21.5405H32.42C33.3959 21.5405 34.1867 22.3946 34.1867 23.4486V27.2648C34.1867 28.3187 33.3959 29.1729 32.42 29.1729ZM32.42 23.4486H28.8867V27.2648H32.42V23.4486ZM37.72 29.1729H41.2534C42.2292 29.1729 43.02 28.3187 43.02 27.2648V23.4486C43.02 22.3946 42.2292 21.5405 41.2534 21.5405H37.72C36.7442 21.5405 35.9534 22.3946 35.9534 23.4486V27.2648C35.9534 28.3187 36.7442 29.1729 37.72 29.1729ZM37.72 23.4486H41.2534V27.2648H37.72V23.4486ZM50.0867 29.1729H46.5533C45.5775 29.1729 44.7867 28.3187 44.7867 27.2648V23.4486C44.7867 22.3946 45.5775 21.5405 46.5533 21.5405H50.0867C51.0625 21.5405 51.8533 22.3946 51.8533 23.4486V27.2648C51.8533 28.3187 51.0625 29.1729 50.0867 29.1729ZM50.0867 23.4486H46.5533V27.2648H50.0867V23.4486ZM28.8867 38.7129H32.42C33.3959 38.7129 34.1867 37.8588 34.1867 36.8048V32.9886C34.1867 31.9347 33.3959 31.0806 32.42 31.0806H28.8867C27.9108 31.0806 27.12 31.9347 27.12 32.9886V36.8048C27.12 37.8588 27.9108 38.7129 28.8867 38.7129ZM28.8867 32.9886H32.42V36.8048H28.8867V32.9886ZM32.42 48.2539H28.8867C27.9108 48.2539 27.12 47.3997 27.12 46.3457V42.5293C27.12 41.4753 27.9108 40.6211 28.8867 40.6211H32.42C33.3959 40.6211 34.1867 41.4753 34.1867 42.5293V46.3457C34.1867 47.3997 33.3959 48.2539 32.42 48.2539ZM32.42 42.5293H28.8867V46.3457H32.42V42.5293ZM37.72 38.7129H41.2534C42.2292 38.7129 43.02 37.8588 43.02 36.8048V32.9886C43.02 31.9347 42.2292 31.0806 41.2534 31.0806H37.72C36.7442 31.0806 35.9534 31.9347 35.9534 32.9886V36.8048C35.9534 37.8588 36.7442 38.7129 37.72 38.7129ZM37.72 32.9886H41.2534V36.8048H37.72V32.9886ZM50.0867 38.7129H46.5533C45.5775 38.7129 44.7867 37.8588 44.7867 36.8048V32.9886C44.7867 31.9347 45.5775 31.0806 46.5533 31.0806H50.0867C51.0625 31.0806 51.8533 31.9347 51.8533 32.9886V36.8048C51.8533 37.8588 51.0625 38.7129 50.0867 38.7129ZM50.0867 32.9886H46.5533V36.8048H50.0867V32.9886ZM37.72 48.2539H41.2534C42.2292 48.2539 43.02 47.3997 43.02 46.3457V42.5293C43.02 41.4753 42.2292 40.6211 41.2534 40.6211H37.72C36.7442 40.6211 35.9534 41.4753 35.9534 42.5293V46.3457C35.9534 47.3997 36.7442 48.2539 37.72 48.2539ZM37.72 42.5293H41.2534V46.3457H37.72V42.5293ZM32.42 57.7935H28.8867C27.9108 57.7935 27.12 56.9394 27.12 55.8854V52.0692C27.12 51.0152 27.9108 50.1611 28.8867 50.1611H32.42C33.3959 50.1611 34.1867 51.0152 34.1867 52.0692V55.8854C34.1867 56.9394 33.3959 57.7935 32.42 57.7935ZM32.42 52.0692H28.8867V55.8854H32.42V52.0692ZM37.72 57.7935H41.2534C42.2292 57.7935 43.02 56.9394 43.02 55.8854V52.0692C43.02 51.0152 42.2292 50.1611 41.2534 50.1611H37.72C36.7442 50.1611 35.9534 51.0152 35.9534 52.0692V55.8854C35.9534 56.9394 36.7442 57.7935 37.72 57.7935ZM37.72 52.0692H41.2534V55.8854H37.72V52.0692ZM40.37 63.5181H38.6033V65.4248H40.37V63.5181Z" fill="white"/>
<path d="M28.0033 12V11.8L28.0031 11.8L28.0033 12ZM50.97 12L50.9703 11.8H50.97V12ZM23.5867 16.7701L23.3867 16.7699V16.7701H23.5867ZM23.5867 64.4716L23.3867 64.4716L23.3867 64.4718L23.5867 64.4716ZM28.0033 69.2417L28.0031 69.4417H28.0033V69.2417ZM50.0867 69.2417V69.4417H50.2867V69.2417H50.0867ZM50.0867 67.5349L50.2867 67.5349L50.2867 67.5347L50.0867 67.5349ZM53.4716 55.4608L53.6417 55.566L53.6418 55.5659L53.4716 55.4608ZM53.3612 54.2568L53.2145 54.3927L53.2145 54.3927L53.3612 54.2568ZM47.1779 47.5786L47.031 47.7144L47.0311 47.7145L47.1779 47.5786ZM46.3433 45.2386L46.1436 45.2294L46.1436 45.2294L46.3433 45.2386ZM47.3881 42.9992L47.2607 42.8449L47.2555 42.8496L47.3881 42.9992ZM51.3428 43.3281L51.1932 43.461L51.196 43.464L51.3428 43.3281ZM60.0622 52.7456L59.9154 52.8815L60.0622 53.04L60.2089 52.8815L60.0622 52.7456ZM61.3112 51.3966L61.458 51.5325L61.5838 51.3966L61.458 51.2607L61.3112 51.3966ZM55.3867 44.996H55.1867V45.0744L55.2399 45.1319L55.3867 44.996ZM55.3867 16.7701L55.5867 16.7701L55.5867 16.7699L55.3867 16.7701ZM52.5918 41.9775L52.4436 42.1118L52.4451 42.1134L52.5918 41.9775ZM53.62 43.088L53.4733 43.2238L53.82 43.5984V43.088H53.62ZM46.2636 41.5257L46.1345 41.373L46.1309 41.3762L46.2636 41.5257ZM44.5782 45.1465L44.3784 45.1375L44.3784 45.1375L44.5782 45.1465ZM45.9288 48.9276L45.7821 49.0634L45.7821 49.0635L45.9288 48.9276ZM51.6087 55.0622L51.7821 55.1619L51.8554 55.0343L51.7554 54.9263L51.6087 55.0622ZM48.3262 67.3336V67.5336H48.5249L48.5262 67.3349L48.3262 67.3336ZM25.3533 61.6095V61.4095H25.1533V61.6095H25.3533ZM47.4367 61.6095V61.8095H47.6367V61.6095H47.4367ZM47.4367 59.7014H47.6367V59.5014H47.4367V59.7014ZM25.3533 59.7014H25.1533V59.9014H25.3533V59.7014ZM25.3533 19.6322V19.4322H25.1533V19.6322H25.3533ZM53.62 19.6322H53.82V19.4322H53.62V19.6322ZM25.3533 17.7242H25.1533V17.9242H25.3533V17.7242ZM53.62 17.7242V17.9242H53.82V17.7242H53.62ZM56.8 35.5996L56.6474 35.4704L56.5278 35.6116L56.6593 35.7417L56.8 35.5996ZM57.9912 34.1934L58.1319 34.0512L57.9783 33.8992L57.8386 34.0641L57.9912 34.1934ZM62.2173 40.9633L62.3582 40.8214L62.358 40.8212L62.2173 40.9633ZM64.22 45.8871L64.42 45.8871L64.42 45.8871L64.22 45.8871ZM64.22 69.2422H64.02V69.4422H64.22V69.2422ZM65.9867 69.2422V69.4422H66.1867V69.2422H65.9867ZM65.9867 45.8871L66.1867 45.8871L66.1867 45.8869L65.9867 45.8871ZM63.4091 39.5568L63.55 39.4148L63.5498 39.4146L63.4091 39.5568ZM28.8867 23.4486V23.2486H28.6867V23.4486H28.8867ZM32.42 23.4486H32.62V23.2486H32.42V23.4486ZM28.8867 27.2648H28.6867V27.4648H28.8867V27.2648ZM32.42 27.2648V27.4648H32.62V27.2648H32.42ZM41.2534 23.4486H41.4534V23.2486H41.2534V23.4486ZM37.72 23.4486V23.2486H37.52V23.4486H37.72ZM41.2534 27.2648V27.4648H41.4534V27.2648H41.2534ZM37.72 27.2648H37.52V27.4648H37.72V27.2648ZM46.5533 23.4486V23.2486H46.3533V23.4486H46.5533ZM50.0867 23.4486H50.2867V23.2486H50.0867V23.4486ZM46.5533 27.2648H46.3533V27.4648H46.5533V27.2648ZM50.0867 27.2648V27.4648H50.2867V27.2648H50.0867ZM32.42 32.9886H32.62V32.7886H32.42V32.9886ZM28.8867 32.9886V32.7886H28.6867V32.9886H28.8867ZM32.42 36.8048V37.0048H32.62V36.8048H32.42ZM28.8867 36.8048H28.6867V37.0048H28.8867V36.8048ZM28.8867 42.5293V42.3293H28.6867V42.5293H28.8867ZM32.42 42.5293H32.62V42.3293H32.42V42.5293ZM28.8867 46.3457H28.6867V46.5457H28.8867V46.3457ZM32.42 46.3457V46.5457H32.62V46.3457H32.42ZM41.2534 32.9886H41.4534V32.7886H41.2534V32.9886ZM37.72 32.9886V32.7886H37.52V32.9886H37.72ZM41.2534 36.8048V37.0048H41.4534V36.8048H41.2534ZM37.72 36.8048H37.52V37.0048H37.72V36.8048ZM46.5533 32.9886V32.7886H46.3533V32.9886H46.5533ZM50.0867 32.9886H50.2867V32.7886H50.0867V32.9886ZM46.5533 36.8048H46.3533V37.0048H46.5533V36.8048ZM50.0867 36.8048V37.0048H50.2867V36.8048H50.0867ZM41.2534 42.5293H41.4534V42.3293H41.2534V42.5293ZM37.72 42.5293V42.3293H37.52V42.5293H37.72ZM41.2534 46.3457V46.5457H41.4534V46.3457H41.2534ZM37.72 46.3457H37.52V46.5457H37.72V46.3457ZM28.8867 52.0692V51.8692H28.6867V52.0692H28.8867ZM32.42 52.0692H32.62V51.8692H32.42V52.0692ZM28.8867 55.8854H28.6867V56.0854H28.8867V55.8854ZM32.42 55.8854V56.0854H32.62V55.8854H32.42ZM41.2534 52.0692H41.4534V51.8692H41.2534V52.0692ZM37.72 52.0692V51.8692H37.52V52.0692H37.72ZM41.2534 55.8854V56.0854H41.4534V55.8854H41.2534ZM37.72 55.8854H37.52V56.0854H37.72V55.8854ZM38.6033 63.5181V63.3181H38.4033V63.5181H38.6033ZM40.37 63.5181H40.57V63.3181H40.37V63.5181ZM38.6033 65.4248H38.4033V65.6248H38.6033V65.4248ZM40.37 65.4248V65.6248H40.57V65.4248H40.37ZM28.0033 12.2H50.97V11.8H28.0033V12.2ZM23.7867 16.7704C23.7896 14.2328 25.69 12.2032 28.0036 12.2L28.0031 11.8C25.4406 11.8035 23.3899 14.0413 23.3867 16.7699L23.7867 16.7704ZM23.7867 64.4716V16.7701H23.3867V64.4716H23.7867ZM28.0036 69.0417C25.69 69.0385 23.7896 67.0089 23.7867 64.4713L23.3867 64.4718C23.3899 67.2004 25.4406 69.4382 28.0031 69.4417L28.0036 69.0417ZM50.0867 69.0417H28.0033V69.4417H50.0867V69.0417ZM49.8867 67.5349V69.2417H50.2867V67.5349H49.8867ZM53.3016 55.3555C51.0703 58.9613 49.8825 63.2011 49.8867 67.5351L50.2867 67.5347C50.2825 63.2734 51.4506 59.1069 53.6417 55.566L53.3016 55.3555ZM53.2145 54.3927C53.4498 54.6468 53.4892 55.052 53.3015 55.3556L53.6418 55.5659C53.9223 55.1121 53.8676 54.5093 53.508 54.1209L53.2145 54.3927ZM47.0311 47.7145L53.2145 54.3927L53.508 54.1209L47.3246 47.4427L47.0311 47.7145ZM46.1436 45.2294C46.1012 46.1529 46.4217 47.0555 47.031 47.7144L47.3247 47.4428C46.791 46.8657 46.5055 46.0688 46.5431 45.2477L46.1436 45.2294ZM47.2555 42.8496C46.5881 43.441 46.1861 44.3054 46.1436 45.2294L46.5431 45.2478C46.581 44.4264 46.9382 43.6652 47.5208 43.1489L47.2555 42.8496ZM51.4923 43.1954C50.3738 41.9356 48.5492 41.7813 47.2608 42.845L47.5154 43.1535C48.6345 42.2295 50.2148 42.359 51.1932 43.4609L51.4923 43.1954ZM60.2089 52.6097L51.4896 43.1923L51.196 43.464L59.9154 52.8815L60.2089 52.6097ZM61.1645 51.2607L59.9154 52.6097L60.2089 52.8815L61.458 51.5325L61.1645 51.2607ZM55.2399 45.1319L61.1644 51.5325L61.458 51.2607L55.5335 44.8602L55.2399 45.1319ZM55.1867 16.7701V44.996H55.5867V16.7701H55.1867ZM50.9698 12.2C53.2833 12.2032 55.1837 14.2328 55.1867 16.7704L55.5867 16.7699C55.5835 14.0413 53.5327 11.8035 50.9703 11.8L50.9698 12.2ZM52.4451 42.1134L53.4733 43.2238L53.7668 42.9521L52.7386 41.8416L52.4451 42.1134ZM46.3927 41.6785C48.217 40.1362 50.8201 40.3204 52.4436 42.1118L52.74 41.8432C50.9742 39.8948 48.1262 39.6892 46.1345 41.373L46.3927 41.6785ZM44.778 45.1556C44.8395 43.797 45.4296 42.5335 46.3964 41.6753L46.1309 41.3762C45.0792 42.3097 44.4446 43.6764 44.3784 45.1375L44.778 45.1556ZM46.0756 48.7917C45.1895 47.8342 44.7167 46.5139 44.778 45.1555L44.3784 45.1375C44.3125 46.5983 44.8202 48.0241 45.7821 49.0634L46.0756 48.7917ZM51.7554 54.9263L46.0756 48.7917L45.7821 49.0635L51.4619 55.1981L51.7554 54.9263ZM48.5262 67.3349C48.5543 63.0303 49.6814 58.8179 51.7821 55.1619L51.4353 54.9626C49.2995 58.6797 48.1547 62.9601 48.1262 67.3323L48.5262 67.3349ZM28.0033 67.5336H48.3262V67.1336H28.0033V67.5336ZM25.1533 64.4716C25.1533 66.1476 26.4154 67.5336 28.0033 67.5336V67.1336C26.6648 67.1336 25.5533 65.9562 25.5533 64.4716H25.1533ZM25.1533 61.6095V64.4716H25.5533V61.6095H25.1533ZM47.4367 61.4095H25.3533V61.8095H47.4367V61.4095ZM47.2367 59.7014V61.6095H47.6367V59.7014H47.2367ZM25.3533 59.9014H47.4367V59.5014H25.3533V59.9014ZM25.1533 19.6322V59.7014H25.5533V19.6322H25.1533ZM53.62 19.4322H25.3533V19.8322H53.62V19.4322ZM53.82 43.088V19.6322H53.42V43.088H53.82ZM25.3533 17.9242H53.62V17.5242H25.3533V17.9242ZM25.1533 16.7701V17.7242H25.5533V16.7701H25.1533ZM28.0033 13.7081C26.4154 13.7081 25.1533 15.0941 25.1533 16.7701H25.5533C25.5533 15.2855 26.6648 14.1081 28.0033 14.1081V13.7081ZM50.97 13.7081H28.0033V14.1081H50.97V13.7081ZM53.82 16.7701C53.82 15.0941 52.5579 13.7081 50.97 13.7081V14.1081C52.3086 14.1081 53.42 15.2855 53.42 16.7701H53.82ZM53.82 17.7242V16.7701H53.42V17.7242H53.82ZM56.9526 35.7289L58.1438 34.3226L57.8386 34.0641L56.6474 35.4704L56.9526 35.7289ZM62.358 40.8212L56.9407 35.4575L56.6593 35.7417L62.0766 41.1054L62.358 40.8212ZM64.42 45.8871C64.4196 43.965 63.673 42.1278 62.3582 40.8214L62.0763 41.1051C63.3122 42.3332 64.0196 44.067 64.02 45.8872L64.42 45.8871ZM64.42 69.2422V45.8871H64.02V69.2422H64.42ZM65.9867 69.0422H64.22V69.4422H65.9867V69.0422ZM65.7867 45.8871V69.2422H66.1867V45.8871H65.7867ZM63.2682 39.6987C64.8695 41.2883 65.7845 43.5315 65.7867 45.8873L66.1867 45.8869C66.1844 43.4295 65.2303 41.0828 63.55 39.4148L63.2682 39.6987ZM57.8505 34.3355L63.2684 39.6989L63.5498 39.4146L58.1319 34.0512L57.8505 34.3355ZM28.8867 29.3729H32.42V28.9729H28.8867V29.3729ZM26.92 27.2648C26.92 28.4144 27.7861 29.3729 28.8867 29.3729V28.9729C28.0355 28.9729 27.32 28.2231 27.32 27.2648H26.92ZM26.92 23.4486V27.2648H27.32V23.4486H26.92ZM28.8867 21.3405C27.7861 21.3405 26.92 22.299 26.92 23.4486H27.32C27.32 22.4903 28.0355 21.7405 28.8867 21.7405V21.3405ZM32.42 21.3405H28.8867V21.7405H32.42V21.3405ZM34.3867 23.4486C34.3867 22.299 33.5206 21.3405 32.42 21.3405V21.7405C33.2712 21.7405 33.9867 22.4903 33.9867 23.4486H34.3867ZM34.3867 27.2648V23.4486H33.9867V27.2648H34.3867ZM32.42 29.3729C33.5206 29.3729 34.3867 28.4144 34.3867 27.2648H33.9867C33.9867 28.2231 33.2712 28.9729 32.42 28.9729V29.3729ZM28.8867 23.6486H32.42V23.2486H28.8867V23.6486ZM29.0867 27.2648V23.4486H28.6867V27.2648H29.0867ZM32.42 27.0648H28.8867V27.4648H32.42V27.0648ZM32.22 23.4486V27.2648H32.62V23.4486H32.22ZM41.2534 28.9729H37.72V29.3729H41.2534V28.9729ZM42.82 27.2648C42.82 28.2231 42.1045 28.9729 41.2534 28.9729V29.3729C42.3539 29.3729 43.22 28.4144 43.22 27.2648H42.82ZM42.82 23.4486V27.2648H43.22V23.4486H42.82ZM41.2534 21.7405C42.1045 21.7405 42.82 22.4903 42.82 23.4486H43.22C43.22 22.299 42.3539 21.3405 41.2534 21.3405V21.7405ZM37.72 21.7405H41.2534V21.3405H37.72V21.7405ZM36.1534 23.4486C36.1534 22.4903 36.8689 21.7405 37.72 21.7405V21.3405C36.6195 21.3405 35.7534 22.299 35.7534 23.4486H36.1534ZM36.1534 27.2648V23.4486H35.7534V27.2648H36.1534ZM37.72 28.9729C36.8689 28.9729 36.1534 28.2231 36.1534 27.2648H35.7534C35.7534 28.4144 36.6195 29.3729 37.72 29.3729V28.9729ZM41.2534 23.2486H37.72V23.6486H41.2534V23.2486ZM41.4534 27.2648V23.4486H41.0534V27.2648H41.4534ZM37.72 27.4648H41.2534V27.0648H37.72V27.4648ZM37.52 23.4486V27.2648H37.92V23.4486H37.52ZM46.5533 29.3729H50.0867V28.9729H46.5533V29.3729ZM44.5867 27.2648C44.5867 28.4144 45.4528 29.3729 46.5533 29.3729V28.9729C45.7022 28.9729 44.9867 28.2231 44.9867 27.2648H44.5867ZM44.5867 23.4486V27.2648H44.9867V23.4486H44.5867ZM46.5533 21.3405C45.4528 21.3405 44.5867 22.299 44.5867 23.4486H44.9867C44.9867 22.4903 45.7022 21.7405 46.5533 21.7405V21.3405ZM50.0867 21.3405H46.5533V21.7405H50.0867V21.3405ZM52.0533 23.4486C52.0533 22.299 51.1872 21.3405 50.0867 21.3405V21.7405C50.9379 21.7405 51.6533 22.4903 51.6533 23.4486H52.0533ZM52.0533 27.2648V23.4486H51.6533V27.2648H52.0533ZM50.0867 29.3729C51.1872 29.3729 52.0533 28.4144 52.0533 27.2648H51.6533C51.6533 28.2231 50.9379 28.9729 50.0867 28.9729V29.3729ZM46.5533 23.6486H50.0867V23.2486H46.5533V23.6486ZM46.7533 27.2648V23.4486H46.3533V27.2648H46.7533ZM50.0867 27.0648H46.5533V27.4648H50.0867V27.0648ZM49.8867 23.4486V27.2648H50.2867V23.4486H49.8867ZM32.42 38.5129H28.8867V38.9129H32.42V38.5129ZM33.9867 36.8048C33.9867 37.7631 33.2712 38.5129 32.42 38.5129V38.9129C33.5206 38.9129 34.3867 37.9545 34.3867 36.8048H33.9867ZM33.9867 32.9886V36.8048H34.3867V32.9886H33.9867ZM32.42 31.2806C33.2712 31.2806 33.9867 32.0303 33.9867 32.9886H34.3867C34.3867 31.839 33.5206 30.8806 32.42 30.8806V31.2806ZM28.8867 31.2806H32.42V30.8806H28.8867V31.2806ZM27.32 32.9886C27.32 32.0303 28.0355 31.2806 28.8867 31.2806V30.8806C27.7861 30.8806 26.92 31.839 26.92 32.9886H27.32ZM27.32 36.8048V32.9886H26.92V36.8048H27.32ZM28.8867 38.5129C28.0355 38.5129 27.32 37.7631 27.32 36.8048H26.92C26.92 37.9545 27.7861 38.9129 28.8867 38.9129V38.5129ZM32.42 32.7886H28.8867V33.1886H32.42V32.7886ZM32.62 36.8048V32.9886H32.22V36.8048H32.62ZM28.8867 37.0048H32.42V36.6048H28.8867V37.0048ZM28.6867 32.9886V36.8048H29.0867V32.9886H28.6867ZM28.8867 48.4539H32.42V48.0539H28.8867V48.4539ZM26.92 46.3457C26.92 47.4954 27.7861 48.4539 28.8867 48.4539V48.0539C28.0355 48.0539 27.32 47.3041 27.32 46.3457H26.92ZM26.92 42.5293V46.3457H27.32V42.5293H26.92ZM28.8867 40.4211C27.7861 40.4211 26.92 41.3796 26.92 42.5293H27.32C27.32 41.5709 28.0355 40.8211 28.8867 40.8211V40.4211ZM32.42 40.4211H28.8867V40.8211H32.42V40.4211ZM34.3867 42.5293C34.3867 41.3796 33.5206 40.4211 32.42 40.4211V40.8211C33.2712 40.8211 33.9867 41.5709 33.9867 42.5293H34.3867ZM34.3867 46.3457V42.5293H33.9867V46.3457H34.3867ZM32.42 48.4539C33.5206 48.4539 34.3867 47.4954 34.3867 46.3457H33.9867C33.9867 47.3041 33.2712 48.0539 32.42 48.0539V48.4539ZM28.8867 42.7293H32.42V42.3293H28.8867V42.7293ZM29.0867 46.3457V42.5293H28.6867V46.3457H29.0867ZM32.42 46.1457H28.8867V46.5457H32.42V46.1457ZM32.22 42.5293V46.3457H32.62V42.5293H32.22ZM41.2534 38.5129H37.72V38.9129H41.2534V38.5129ZM42.82 36.8048C42.82 37.7631 42.1045 38.5129 41.2534 38.5129V38.9129C42.3539 38.9129 43.22 37.9545 43.22 36.8048H42.82ZM42.82 32.9886V36.8048H43.22V32.9886H42.82ZM41.2534 31.2806C42.1045 31.2806 42.82 32.0303 42.82 32.9886H43.22C43.22 31.839 42.3539 30.8806 41.2534 30.8806V31.2806ZM37.72 31.2806H41.2534V30.8806H37.72V31.2806ZM36.1534 32.9886C36.1534 32.0303 36.8689 31.2806 37.72 31.2806V30.8806C36.6195 30.8806 35.7534 31.839 35.7534 32.9886H36.1534ZM36.1534 36.8048V32.9886H35.7534V36.8048H36.1534ZM37.72 38.5129C36.8689 38.5129 36.1534 37.7631 36.1534 36.8048H35.7534C35.7534 37.9545 36.6195 38.9129 37.72 38.9129V38.5129ZM41.2534 32.7886H37.72V33.1886H41.2534V32.7886ZM41.4534 36.8048V32.9886H41.0534V36.8048H41.4534ZM37.72 37.0048H41.2534V36.6048H37.72V37.0048ZM37.52 32.9886V36.8048H37.92V32.9886H37.52ZM46.5533 38.9129H50.0867V38.5129H46.5533V38.9129ZM44.5867 36.8048C44.5867 37.9545 45.4528 38.9129 46.5533 38.9129V38.5129C45.7022 38.5129 44.9867 37.7631 44.9867 36.8048H44.5867ZM44.5867 32.9886V36.8048H44.9867V32.9886H44.5867ZM46.5533 30.8806C45.4528 30.8806 44.5867 31.839 44.5867 32.9886H44.9867C44.9867 32.0303 45.7022 31.2806 46.5533 31.2806V30.8806ZM50.0867 30.8806H46.5533V31.2806H50.0867V30.8806ZM52.0533 32.9886C52.0533 31.839 51.1872 30.8806 50.0867 30.8806V31.2806C50.9379 31.2806 51.6533 32.0303 51.6533 32.9886H52.0533ZM52.0533 36.8048V32.9886H51.6533V36.8048H52.0533ZM50.0867 38.9129C51.1872 38.9129 52.0533 37.9545 52.0533 36.8048H51.6533C51.6533 37.7631 50.9379 38.5129 50.0867 38.5129V38.9129ZM46.5533 33.1886H50.0867V32.7886H46.5533V33.1886ZM46.7533 36.8048V32.9886H46.3533V36.8048H46.7533ZM50.0867 36.6048H46.5533V37.0048H50.0867V36.6048ZM49.8867 32.9886V36.8048H50.2867V32.9886H49.8867ZM41.2534 48.0539H37.72V48.4539H41.2534V48.0539ZM42.82 46.3457C42.82 47.3041 42.1045 48.0539 41.2534 48.0539V48.4539C42.3539 48.4539 43.22 47.4954 43.22 46.3457H42.82ZM42.82 42.5293V46.3457H43.22V42.5293H42.82ZM41.2534 40.8211C42.1045 40.8211 42.82 41.5709 42.82 42.5293H43.22C43.22 41.3796 42.3539 40.4211 41.2534 40.4211V40.8211ZM37.72 40.8211H41.2534V40.4211H37.72V40.8211ZM36.1534 42.5293C36.1534 41.5709 36.8689 40.8211 37.72 40.8211V40.4211C36.6195 40.4211 35.7534 41.3796 35.7534 42.5293H36.1534ZM36.1534 46.3457V42.5293H35.7534V46.3457H36.1534ZM37.72 48.0539C36.8689 48.0539 36.1534 47.3041 36.1534 46.3457H35.7534C35.7534 47.4954 36.6195 48.4539 37.72 48.4539V48.0539ZM41.2534 42.3293H37.72V42.7293H41.2534V42.3293ZM41.4534 46.3457V42.5293H41.0534V46.3457H41.4534ZM37.72 46.5457H41.2534V46.1457H37.72V46.5457ZM37.52 42.5293V46.3457H37.92V42.5293H37.52ZM28.8867 57.9935H32.42V57.5935H28.8867V57.9935ZM26.92 55.8854C26.92 57.035 27.7861 57.9935 28.8867 57.9935V57.5935C28.0355 57.5935 27.32 56.8437 27.32 55.8854H26.92ZM26.92 52.0692V55.8854H27.32V52.0692H26.92ZM28.8867 49.9611C27.7861 49.9611 26.92 50.9196 26.92 52.0692H27.32C27.32 51.1109 28.0355 50.3611 28.8867 50.3611V49.9611ZM32.42 49.9611H28.8867V50.3611H32.42V49.9611ZM34.3867 52.0692C34.3867 50.9196 33.5206 49.9611 32.42 49.9611V50.3611C33.2712 50.3611 33.9867 51.1109 33.9867 52.0692H34.3867ZM34.3867 55.8854V52.0692H33.9867V55.8854H34.3867ZM32.42 57.9935C33.5206 57.9935 34.3867 57.035 34.3867 55.8854H33.9867C33.9867 56.8437 33.2712 57.5935 32.42 57.5935V57.9935ZM28.8867 52.2692H32.42V51.8692H28.8867V52.2692ZM29.0867 55.8854V52.0692H28.6867V55.8854H29.0867ZM32.42 55.6854H28.8867V56.0854H32.42V55.6854ZM32.22 52.0692V55.8854H32.62V52.0692H32.22ZM41.2534 57.5935H37.72V57.9935H41.2534V57.5935ZM42.82 55.8854C42.82 56.8437 42.1045 57.5935 41.2534 57.5935V57.9935C42.3539 57.9935 43.22 57.035 43.22 55.8854H42.82ZM42.82 52.0692V55.8854H43.22V52.0692H42.82ZM41.2534 50.3611C42.1045 50.3611 42.82 51.1109 42.82 52.0692H43.22C43.22 50.9196 42.3539 49.9611 41.2534 49.9611V50.3611ZM37.72 50.3611H41.2534V49.9611H37.72V50.3611ZM36.1534 52.0692C36.1534 51.1109 36.8689 50.3611 37.72 50.3611V49.9611C36.6195 49.9611 35.7534 50.9196 35.7534 52.0692H36.1534ZM36.1534 55.8854V52.0692H35.7534V55.8854H36.1534ZM37.72 57.5935C36.8689 57.5935 36.1534 56.8437 36.1534 55.8854H35.7534C35.7534 57.035 36.6195 57.9935 37.72 57.9935V57.5935ZM41.2534 51.8692H37.72V52.2692H41.2534V51.8692ZM41.4534 55.8854V52.0692H41.0534V55.8854H41.4534ZM37.72 56.0854H41.2534V55.6854H37.72V56.0854ZM37.52 52.0692V55.8854H37.92V52.0692H37.52ZM38.6033 63.7181H40.37V63.3181H38.6033V63.7181ZM38.8033 65.4248V63.5181H38.4033V65.4248H38.8033ZM40.37 65.2248H38.6033V65.6248H40.37V65.2248ZM40.17 63.5181V65.4248H40.57V63.5181H40.17Z" fill="#372120" mask="url(#path-2-inside-1)"/>
</svg>
