<svg width="80" height="80" viewBox="0 0 80 80" fill="none" xmlns="http://www.w3.org/2000/svg">
<rect width="80" height="80" fill="#372120"/>
<mask id="path-2-inside-1" fill="white">
<path fill-rule="evenodd" clip-rule="evenodd" d="M42.3666 7.4214C41.9728 6.94271 41.2655 6.87405 40.7869 7.26784C40.7308 7.31388 40.6793 7.36534 40.6333 7.4214L37.3833 11.7547L39.1166 13.0547L40.4166 11.3214V19.988H42.5833V11.3214L43.8833 13.0547L45.6166 11.7547L42.3666 7.4214ZM53.3787 33.7895C53.3674 33.7561 53.354 33.7236 53.3386 33.692C53.3206 33.6372 53.2985 33.584 53.2725 33.5327C53.2495 33.498 53.2246 33.4649 53.1978 33.433C53.1694 33.39 53.1379 33.3489 53.1035 33.3106C53.0714 33.2822 53.0377 33.2554 53.0028 33.2305C52.9684 33.1992 52.9322 33.1699 52.8944 33.1427L42.0611 26.6427C41.7178 26.4365 41.2886 26.4365 40.9453 26.6427L30.112 33.1427C30.0719 33.1691 30.0338 33.1984 29.9982 33.2305C29.9629 33.2554 29.9289 33.2822 29.8964 33.3106C29.8627 33.3489 29.8315 33.3894 29.8032 33.432C29.7757 33.4639 29.7504 33.4975 29.7274 33.5327C29.7019 33.5827 29.6803 33.6344 29.6624 33.6876C29.6469 33.7212 29.6331 33.7556 29.6212 33.7905C29.5959 33.8819 29.5832 33.9763 29.5833 34.0711V44.9044C29.5834 45.2847 29.7828 45.637 30.1087 45.8328L40.942 52.3328L40.9539 52.3382L40.9659 52.3469C41.0227 52.3764 41.0822 52.4008 41.1435 52.4195C41.1545 52.4233 41.1653 52.4282 41.1762 52.4331C41.1899 52.4393 41.2037 52.4456 41.2183 52.4498C41.4027 52.5003 41.5973 52.5003 41.7816 52.4498C41.7961 52.4456 41.81 52.4393 41.8237 52.4331C41.8346 52.4282 41.8454 52.4233 41.8564 52.4195C41.9177 52.4008 41.9771 52.3764 42.034 52.3469L42.0459 52.3382L42.0579 52.3328L52.8912 45.8328C53.2171 45.637 53.4164 45.2847 53.4166 44.9044V34.0711C53.4167 33.9761 53.4039 33.8813 53.3787 33.7895ZM41.4999 28.8343L44.8106 30.8211L36.0833 36.0579L32.7726 34.0711L41.4999 28.8343ZM31.75 44.2902V35.9843L40.4166 41.1843V49.4902L31.75 44.2902ZM41.4999 39.3079L38.1893 37.3211L46.9166 32.0843L50.2273 34.0711L41.4999 39.3079ZM42.5833 49.4913V41.1843L51.2499 35.9843V44.2913L42.5833 49.4913ZM42.5833 67.6544L43.8833 65.921L45.6166 67.221L42.3666 71.5544C42.305 71.6364 42.232 71.7094 42.15 71.771C41.6713 72.13 40.9923 72.0331 40.6333 71.5544L37.3833 67.221L39.1166 65.921L40.4166 67.6544V58.9877H42.5833V67.6544ZM42.5833 22.1547H40.4166V24.3214H42.5833V22.1547ZM40.4166 54.6546H42.5833V56.8212H40.4166V54.6546ZM22 38.4044H13.3333L15.0667 37.1044L13.7667 35.3711L9.43335 38.6211C8.95466 38.98 8.8577 39.659 9.21669 40.1377C9.2783 40.2198 9.35129 40.2928 9.43335 40.3544L13.7667 43.6044L15.0667 41.871L13.3333 40.571H22V38.4044ZM73.5665 38.6211C73.6486 38.6827 73.7216 38.7557 73.7832 38.8377C74.1422 39.3164 74.0452 39.9954 73.5665 40.3544L69.2332 43.6044L67.9332 41.871L69.6666 40.571H60.9999V38.4044H69.6666L67.9332 37.1044L69.2332 35.3711L73.5665 38.6211ZM26.3333 38.4046H24.1667V40.5713H26.3333V38.4046ZM56.6666 38.4046H58.8332V40.5713H56.6666V38.4046ZM28.4772 24.9334L22.3499 18.8061L24.4938 19.1116L24.8004 16.9666L19.439 16.1963C18.8472 16.1085 18.2962 16.517 18.2083 17.1089C18.1926 17.2144 18.1926 17.3217 18.2083 17.427L18.9742 22.7884L21.1192 22.4818L20.8137 20.3379L26.9411 26.4652L28.4772 24.9334ZM64.0235 56.1874L64.7894 61.5488C64.7967 61.5999 64.8005 61.6513 64.8004 61.7028C64.8002 62.3011 64.3152 62.7861 63.7169 62.786C63.6654 62.7861 63.614 62.7825 63.5631 62.7751L58.2017 62.0092L58.5082 59.8642L60.65 60.1719L54.5227 54.0446L56.0545 52.5128L62.1818 58.6401L61.8763 56.4962L64.0235 56.1874ZM30.0097 26.466L28.4776 27.998L30.0097 29.53L31.5417 27.998L30.0097 26.466ZM51.459 50.9778L52.991 49.4458L54.5231 50.9778L52.991 52.5099L51.459 50.9778ZM22.3456 60.1696L28.4729 54.0423L26.9454 52.5104L20.8181 58.6377L21.1236 56.4938L18.9786 56.1873L18.2083 61.5487C18.1234 62.1408 18.5345 62.6898 19.1269 62.7749C19.1779 62.7822 19.2294 62.7858 19.2808 62.7858C19.3323 62.786 19.3837 62.7823 19.4347 62.775L24.7961 62.0091L24.4895 59.8641L22.3456 60.1696ZM65.5609 16.2005C65.8988 16.1504 66.2404 16.2643 66.4806 16.5071C66.7221 16.7484 66.8357 17.0891 66.7872 17.4268L66.0213 22.7882L63.8763 22.4795L64.1818 20.3378L58.0545 26.4651L56.5227 24.9332L62.65 18.8059L60.5061 19.1114L60.1995 16.9664L65.5609 16.2005ZM30.0105 49.4466L28.4785 50.9787L30.0105 52.5107L31.5426 50.9787L30.0105 49.4466ZM51.4592 27.9944L52.9913 26.4624L54.5233 27.9944L52.9913 29.5265L51.4592 27.9944Z"/>
</mask>
<path fill-rule="evenodd" clip-rule="evenodd" d="M42.3666 7.4214C41.9728 6.94271 41.2655 6.87405 40.7869 7.26784C40.7308 7.31388 40.6793 7.36534 40.6333 7.4214L37.3833 11.7547L39.1166 13.0547L40.4166 11.3214V19.988H42.5833V11.3214L43.8833 13.0547L45.6166 11.7547L42.3666 7.4214ZM53.3787 33.7895C53.3674 33.7561 53.354 33.7236 53.3386 33.692C53.3206 33.6372 53.2985 33.584 53.2725 33.5327C53.2495 33.498 53.2246 33.4649 53.1978 33.433C53.1694 33.39 53.1379 33.3489 53.1035 33.3106C53.0714 33.2822 53.0377 33.2554 53.0028 33.2305C52.9684 33.1992 52.9322 33.1699 52.8944 33.1427L42.0611 26.6427C41.7178 26.4365 41.2886 26.4365 40.9453 26.6427L30.112 33.1427C30.0719 33.1691 30.0338 33.1984 29.9982 33.2305C29.9629 33.2554 29.9289 33.2822 29.8964 33.3106C29.8627 33.3489 29.8315 33.3894 29.8032 33.432C29.7757 33.4639 29.7504 33.4975 29.7274 33.5327C29.7019 33.5827 29.6803 33.6344 29.6624 33.6876C29.6469 33.7212 29.6331 33.7556 29.6212 33.7905C29.5959 33.8819 29.5832 33.9763 29.5833 34.0711V44.9044C29.5834 45.2847 29.7828 45.637 30.1087 45.8328L40.942 52.3328L40.9539 52.3382L40.9659 52.3469C41.0227 52.3764 41.0822 52.4008 41.1435 52.4195C41.1545 52.4233 41.1653 52.4282 41.1762 52.4331C41.1899 52.4393 41.2037 52.4456 41.2183 52.4498C41.4027 52.5003 41.5973 52.5003 41.7816 52.4498C41.7961 52.4456 41.81 52.4393 41.8237 52.4331C41.8346 52.4282 41.8454 52.4233 41.8564 52.4195C41.9177 52.4008 41.9771 52.3764 42.034 52.3469L42.0459 52.3382L42.0579 52.3328L52.8912 45.8328C53.2171 45.637 53.4164 45.2847 53.4166 44.9044V34.0711C53.4167 33.9761 53.4039 33.8813 53.3787 33.7895ZM41.4999 28.8343L44.8106 30.8211L36.0833 36.0579L32.7726 34.0711L41.4999 28.8343ZM31.75 44.2902V35.9843L40.4166 41.1843V49.4902L31.75 44.2902ZM41.4999 39.3079L38.1893 37.3211L46.9166 32.0843L50.2273 34.0711L41.4999 39.3079ZM42.5833 49.4913V41.1843L51.2499 35.9843V44.2913L42.5833 49.4913ZM42.5833 67.6544L43.8833 65.921L45.6166 67.221L42.3666 71.5544C42.305 71.6364 42.232 71.7094 42.15 71.771C41.6713 72.13 40.9923 72.0331 40.6333 71.5544L37.3833 67.221L39.1166 65.921L40.4166 67.6544V58.9877H42.5833V67.6544ZM42.5833 22.1547H40.4166V24.3214H42.5833V22.1547ZM40.4166 54.6546H42.5833V56.8212H40.4166V54.6546ZM22 38.4044H13.3333L15.0667 37.1044L13.7667 35.3711L9.43335 38.6211C8.95466 38.98 8.8577 39.659 9.21669 40.1377C9.2783 40.2198 9.35129 40.2928 9.43335 40.3544L13.7667 43.6044L15.0667 41.871L13.3333 40.571H22V38.4044ZM73.5665 38.6211C73.6486 38.6827 73.7216 38.7557 73.7832 38.8377C74.1422 39.3164 74.0452 39.9954 73.5665 40.3544L69.2332 43.6044L67.9332 41.871L69.6666 40.571H60.9999V38.4044H69.6666L67.9332 37.1044L69.2332 35.3711L73.5665 38.6211ZM26.3333 38.4046H24.1667V40.5713H26.3333V38.4046ZM56.6666 38.4046H58.8332V40.5713H56.6666V38.4046ZM28.4772 24.9334L22.3499 18.8061L24.4938 19.1116L24.8004 16.9666L19.439 16.1963C18.8472 16.1085 18.2962 16.517 18.2083 17.1089C18.1926 17.2144 18.1926 17.3217 18.2083 17.427L18.9742 22.7884L21.1192 22.4818L20.8137 20.3379L26.9411 26.4652L28.4772 24.9334ZM64.0235 56.1874L64.7894 61.5488C64.7967 61.5999 64.8005 61.6513 64.8004 61.7028C64.8002 62.3011 64.3152 62.7861 63.7169 62.786C63.6654 62.7861 63.614 62.7825 63.5631 62.7751L58.2017 62.0092L58.5082 59.8642L60.65 60.1719L54.5227 54.0446L56.0545 52.5128L62.1818 58.6401L61.8763 56.4962L64.0235 56.1874ZM30.0097 26.466L28.4776 27.998L30.0097 29.53L31.5417 27.998L30.0097 26.466ZM51.459 50.9778L52.991 49.4458L54.5231 50.9778L52.991 52.5099L51.459 50.9778ZM22.3456 60.1696L28.4729 54.0423L26.9454 52.5104L20.8181 58.6377L21.1236 56.4938L18.9786 56.1873L18.2083 61.5487C18.1234 62.1408 18.5345 62.6898 19.1269 62.7749C19.1779 62.7822 19.2294 62.7858 19.2808 62.7858C19.3323 62.786 19.3837 62.7823 19.4347 62.775L24.7961 62.0091L24.4895 59.8641L22.3456 60.1696ZM65.5609 16.2005C65.8988 16.1504 66.2404 16.2643 66.4806 16.5071C66.7221 16.7484 66.8357 17.0891 66.7872 17.4268L66.0213 22.7882L63.8763 22.4795L64.1818 20.3378L58.0545 26.4651L56.5227 24.9332L62.65 18.8059L60.5061 19.1114L60.1995 16.9664L65.5609 16.2005ZM30.0105 49.4466L28.4785 50.9787L30.0105 52.5107L31.5426 50.9787L30.0105 49.4466ZM51.4592 27.9944L52.9913 26.4624L54.5233 27.9944L52.9913 29.5265L51.4592 27.9944Z" fill="white"/>
<path d="M40.7869 7.26784L41.0407 7.57696L41.041 7.57675L40.7869 7.26784ZM42.3666 7.4214L42.6866 7.1814L42.6812 7.17422L42.6755 7.16729L42.3666 7.4214ZM40.6333 7.4214L40.3242 7.16754L40.3186 7.17435L40.3133 7.1814L40.6333 7.4214ZM37.3833 11.7547L37.0633 11.5147L36.8233 11.8347L37.1433 12.0747L37.3833 11.7547ZM39.1166 13.0547L38.8766 13.3747L39.1966 13.6147L39.4366 13.2947L39.1166 13.0547ZM40.4166 11.3214H40.8166V10.1214L40.0966 11.0814L40.4166 11.3214ZM40.4166 19.988H40.0166V20.388H40.4166V19.988ZM42.5833 19.988V20.388H42.9833V19.988H42.5833ZM42.5833 11.3214L42.9033 11.0814L42.1833 10.1214V11.3214H42.5833ZM43.8833 13.0547L43.5633 13.2947L43.8033 13.6147L44.1233 13.3747L43.8833 13.0547ZM45.6166 11.7547L45.8566 12.0747L46.1766 11.8347L45.9366 11.5147L45.6166 11.7547ZM53.3386 33.692L52.9586 33.817L52.9671 33.8428L52.979 33.8671L53.3386 33.692ZM53.3787 33.7895L53.7644 33.6836L53.7614 33.6725L53.7577 33.6616L53.3787 33.7895ZM53.2725 33.5327L53.6293 33.352L53.6187 33.331L53.6057 33.3114L53.2725 33.5327ZM53.1978 33.433L52.8635 33.6527L52.8765 33.6726L52.8919 33.6908L53.1978 33.433ZM53.1035 33.3106L53.4012 33.0435L53.3859 33.0264L53.3688 33.0112L53.1035 33.3106ZM53.0028 33.2305L52.7336 33.5264L52.7512 33.5423L52.7705 33.5561L53.0028 33.2305ZM52.8944 33.1427L53.1282 32.8182L53.1146 32.8083L53.1002 32.7997L52.8944 33.1427ZM42.0611 26.6427L41.8551 26.9856L41.8553 26.9857L42.0611 26.6427ZM40.9453 26.6427L41.1511 26.9857L41.1513 26.9856L40.9453 26.6427ZM30.112 33.1427L29.9062 32.7997L29.8989 32.804L29.8919 32.8087L30.112 33.1427ZM29.9982 33.2305L30.2287 33.5574L30.2482 33.5436L30.266 33.5276L29.9982 33.2305ZM29.8964 33.3106L29.633 33.0096L29.6133 33.0268L29.5961 33.0464L29.8964 33.3106ZM29.8032 33.432L30.1065 33.6928L30.1225 33.6741L30.1362 33.6536L29.8032 33.432ZM29.7274 33.5327L29.3926 33.3138L29.3808 33.3319L29.371 33.3511L29.7274 33.5327ZM29.6624 33.6876L30.0258 33.8547L30.0348 33.8352L30.0416 33.815L29.6624 33.6876ZM29.6212 33.7905L29.2426 33.6614L29.2389 33.6725L29.2357 33.6837L29.6212 33.7905ZM29.5833 34.0711H29.9833L29.9833 34.0705L29.5833 34.0711ZM29.5833 44.9044L29.1833 44.9044L29.1833 44.9046L29.5833 44.9044ZM30.1087 45.8328L29.9027 46.1757L29.9029 46.1758L30.1087 45.8328ZM40.942 52.3328L40.7362 52.6758L40.7557 52.6875L40.7764 52.6969L40.942 52.3328ZM40.9539 52.3382L41.1891 52.0147L41.1564 51.9909L41.1196 51.9742L40.9539 52.3382ZM40.9659 52.3469L40.7307 52.6705L40.7549 52.6881L40.7816 52.7019L40.9659 52.3469ZM41.1435 52.4195L41.275 52.0417L41.2676 52.0391L41.2601 52.0369L41.1435 52.4195ZM41.1762 52.4331L41.0113 52.7976L41.0113 52.7976L41.1762 52.4331ZM41.2183 52.4498L41.1062 52.8339L41.1126 52.8356L41.2183 52.4498ZM41.7816 52.4498L41.8873 52.8357L41.8936 52.8338L41.7816 52.4498ZM41.8237 52.4331L41.9886 52.7976L41.9886 52.7976L41.8237 52.4331ZM41.8564 52.4195L41.7398 52.0369L41.7323 52.0391L41.7249 52.0417L41.8564 52.4195ZM42.034 52.3469L42.2183 52.7019L42.2449 52.6881L42.2692 52.6705L42.034 52.3469ZM42.0459 52.3382L41.8803 51.9742L41.8435 51.9909L41.8107 52.0147L42.0459 52.3382ZM42.0579 52.3328L42.2235 52.6969L42.2442 52.6875L42.2637 52.6758L42.0579 52.3328ZM52.8912 45.8328L53.097 46.1758L53.0972 46.1757L52.8912 45.8328ZM53.4166 44.9044L53.8166 44.9046V44.9044H53.4166ZM53.4166 34.0711L53.0166 34.0706V34.0711H53.4166ZM44.8106 30.8211L45.0164 31.1641L45.588 30.8211L45.0164 30.4781L44.8106 30.8211ZM41.4999 28.8343L41.7058 28.4913L41.5 28.3678L41.2941 28.4913L41.4999 28.8343ZM36.0833 36.0579L35.8775 36.4009L36.0833 36.5244L36.2891 36.4009L36.0833 36.0579ZM32.7726 34.0711L32.5668 33.7281L31.9953 34.0711L32.5668 34.4141L32.7726 34.0711ZM31.75 35.9843L31.9558 35.6413L31.35 35.2778V35.9843H31.75ZM31.75 44.2902H31.35V44.5167L31.5442 44.6332L31.75 44.2902ZM40.4166 41.1843H40.8166V40.9578L40.6224 40.8413L40.4166 41.1843ZM40.4166 49.4902L40.2108 49.8332L40.8166 50.1966V49.4902H40.4166ZM38.1893 37.3211L37.9835 36.9781L37.4119 37.3211L37.9835 37.6641L38.1893 37.3211ZM41.4999 39.3079L41.2941 39.6509L41.4999 39.7744L41.7058 39.6509L41.4999 39.3079ZM46.9166 32.0843L47.1224 31.7413L46.9166 31.6178L46.7108 31.7413L46.9166 32.0843ZM50.2273 34.0711L50.4331 34.4141L51.0046 34.0711L50.4331 33.7281L50.2273 34.0711ZM42.5833 41.1843L42.3775 40.8413L42.1833 40.9578V41.1843H42.5833ZM42.5833 49.4913H42.1833V50.1977L42.7891 49.8343L42.5833 49.4913ZM51.2499 35.9843H51.6499V35.2778L51.0441 35.6413L51.2499 35.9843ZM51.2499 44.2913L51.4557 44.6343L51.6499 44.5177V44.2913H51.2499ZM43.8833 65.921L44.1233 65.601L43.8033 65.361L43.5633 65.681L43.8833 65.921ZM42.5833 67.6544H42.1833V68.8544L42.9033 67.8944L42.5833 67.6544ZM45.6166 67.221L45.9366 67.461L46.1766 67.141L45.8566 66.901L45.6166 67.221ZM42.3666 71.5544L42.6865 71.7945L42.6866 71.7944L42.3666 71.5544ZM42.15 71.771L42.3899 72.091L42.3901 72.0909L42.15 71.771ZM40.6333 71.5544L40.9533 71.3144L40.9533 71.3144L40.6333 71.5544ZM37.3833 67.221L37.1433 66.901L36.8233 67.141L37.0633 67.461L37.3833 67.221ZM39.1166 65.921L39.4366 65.681L39.1966 65.361L38.8766 65.601L39.1166 65.921ZM40.4166 67.6544L40.0966 67.8944L40.8166 68.8544V67.6544H40.4166ZM40.4166 58.9877V58.5877H40.0166V58.9877H40.4166ZM42.5833 58.9877H42.9833V58.5877H42.5833V58.9877ZM40.4166 22.1547V21.7547H40.0166V22.1547H40.4166ZM42.5833 22.1547H42.9833V21.7547H42.5833V22.1547ZM40.4166 24.3214H40.0166V24.7214H40.4166V24.3214ZM42.5833 24.3214V24.7214H42.9833V24.3214H42.5833ZM42.5833 54.6546H42.9833V54.2546H42.5833V54.6546ZM40.4166 54.6546V54.2546H40.0166V54.6546H40.4166ZM42.5833 56.8212V57.2212H42.9833V56.8212H42.5833ZM40.4166 56.8212H40.0166V57.2212H40.4166V56.8212ZM13.3333 38.4044L13.0933 38.0844L12.1333 38.8044H13.3333V38.4044ZM22 38.4044H22.4V38.0044H22V38.4044ZM15.0667 37.1044L15.3067 37.4244L15.6267 37.1844L15.3867 36.8644L15.0667 37.1044ZM13.7667 35.3711L14.0867 35.1311L13.8467 34.8111L13.5267 35.0511L13.7667 35.3711ZM9.43335 38.6211L9.67334 38.9411L9.67335 38.9411L9.43335 38.6211ZM9.21669 40.1377L8.89667 40.3777L8.89681 40.3779L9.21669 40.1377ZM9.43335 40.3544L9.19318 40.6743L9.19335 40.6744L9.43335 40.3544ZM13.7667 43.6044L13.5267 43.9244L13.8467 44.1644L14.0867 43.8444L13.7667 43.6044ZM15.0667 41.871L15.3867 42.111L15.6267 41.791L15.3067 41.551L15.0667 41.871ZM13.3333 40.571V40.171H12.1333L13.0933 40.891L13.3333 40.571ZM22 40.571V40.971H22.4V40.571H22ZM73.7832 38.8377L74.1032 38.5977L74.1031 38.5975L73.7832 38.8377ZM73.5665 38.6211L73.8067 38.3012L73.8065 38.3011L73.5665 38.6211ZM73.5665 40.3544L73.3266 40.0344L73.3265 40.0344L73.5665 40.3544ZM69.2332 43.6044L68.9132 43.8444L69.1532 44.1644L69.4732 43.9244L69.2332 43.6044ZM67.9332 41.871L67.6932 41.551L67.3732 41.791L67.6132 42.111L67.9332 41.871ZM69.6666 40.571L69.9066 40.891L70.8665 40.171H69.6666V40.571ZM60.9999 40.571H60.5999V40.971H60.9999V40.571ZM60.9999 38.4044V38.0044H60.5999V38.4044H60.9999ZM69.6666 38.4044V38.8044H70.8665L69.9066 38.0844L69.6666 38.4044ZM67.9332 37.1044L67.6132 36.8644L67.3732 37.1844L67.6932 37.4244L67.9332 37.1044ZM69.2332 35.3711L69.4732 35.0511L69.1532 34.8111L68.9132 35.1311L69.2332 35.3711ZM24.1667 38.4046V38.0046H23.7667V38.4046H24.1667ZM26.3333 38.4046H26.7333V38.0046H26.3333V38.4046ZM24.1667 40.5713H23.7667V40.9713H24.1667V40.5713ZM26.3333 40.5713V40.9713H26.7333V40.5713H26.3333ZM58.8332 38.4046H59.2332V38.0046H58.8332V38.4046ZM56.6666 38.4046V38.0046H56.2666V38.4046H56.6666ZM58.8332 40.5713V40.9713H59.2332V40.5713H58.8332ZM56.6666 40.5713H56.2666V40.9713H56.6666V40.5713ZM22.3499 18.8061L22.4063 18.4101L21.219 18.2409L22.0671 19.0889L22.3499 18.8061ZM28.4772 24.9334L28.7597 25.2166L29.0433 24.9338L28.7601 24.6506L28.4772 24.9334ZM24.4938 19.1116L24.4374 19.5076L24.8332 19.564L24.8898 19.1682L24.4938 19.1116ZM24.8004 16.9666L25.1964 17.0232L25.2529 16.6275L24.8573 16.5707L24.8004 16.9666ZM19.439 16.1963L19.3802 16.592L19.3821 16.5923L19.439 16.1963ZM18.2083 17.1089L18.604 17.1678L18.604 17.1677L18.2083 17.1089ZM18.2083 17.427L18.6043 17.3704L18.604 17.368L18.2083 17.427ZM18.9742 22.7884L18.5783 22.845L18.6348 23.241L19.0308 23.1844L18.9742 22.7884ZM21.1192 22.4818L21.1758 22.8778L21.5716 22.8212L21.5152 22.4254L21.1192 22.4818ZM20.8137 20.3379L21.0966 20.0551L20.2486 19.207L20.4177 20.3943L20.8137 20.3379ZM26.9411 26.4652L26.6582 26.7481L26.9407 27.0305L27.2235 26.7485L26.9411 26.4652ZM64.7894 61.5488L64.3934 61.6054L64.3934 61.6055L64.7894 61.5488ZM64.0235 56.1874L64.4195 56.1308L64.3628 55.7345L63.9666 55.7915L64.0235 56.1874ZM64.8004 61.7028L64.4004 61.7017L64.4004 61.7027L64.8004 61.7028ZM63.7169 62.786L63.717 62.386L63.7159 62.386L63.7169 62.786ZM63.5631 62.7751L63.6199 62.3792L63.6196 62.3792L63.5631 62.7751ZM58.2017 62.0092L57.8057 61.9526L57.7491 62.3486L58.1451 62.4052L58.2017 62.0092ZM58.5082 59.8642L58.5651 59.4683L58.1689 59.4114L58.1123 59.8076L58.5082 59.8642ZM60.65 60.1719L60.5931 60.5678L61.7825 60.7387L60.9328 59.8891L60.65 60.1719ZM54.5227 54.0446L54.2398 53.7617L53.957 54.0446L54.2398 54.3274L54.5227 54.0446ZM56.0545 52.5128L56.3373 52.2299L56.0545 51.9471L55.7717 52.2299L56.0545 52.5128ZM62.1818 58.6401L61.899 58.9229L62.747 59.7709L62.5778 58.5836L62.1818 58.6401ZM61.8763 56.4962L61.8194 56.1002L61.424 56.1571L61.4803 56.5526L61.8763 56.4962ZM28.4776 27.998L28.1948 27.7152L27.9119 27.998L28.1948 28.2808L28.4776 27.998ZM30.0097 26.466L30.2925 26.1831L30.0097 25.9003L29.7268 26.1831L30.0097 26.466ZM30.0097 29.53L29.7268 29.8129L30.0097 30.0957L30.2925 29.8129L30.0097 29.53ZM31.5417 27.998L31.8246 28.2808L32.1074 27.998L31.8246 27.7152L31.5417 27.998ZM52.991 49.4458L53.2739 49.1629L52.991 48.8801L52.7082 49.1629L52.991 49.4458ZM51.459 50.9778L51.1761 50.695L50.8933 50.9778L51.1761 51.2607L51.459 50.9778ZM54.5231 50.9778L54.8059 51.2607L55.0887 50.9778L54.8059 50.695L54.5231 50.9778ZM52.991 52.5099L52.7082 52.7927L52.991 53.0756L53.2739 52.7927L52.991 52.5099ZM28.4729 54.0423L28.7557 54.3251L29.0382 54.0427L28.7561 53.7598L28.4729 54.0423ZM22.3456 60.1696L22.0627 59.8867L21.2147 60.7348L22.402 60.5656L22.3456 60.1696ZM26.9454 52.5104L27.2286 52.228L26.9458 51.9444L26.6626 52.2276L26.9454 52.5104ZM20.8181 58.6377L20.4221 58.5813L20.2529 59.7686L21.1009 58.9206L20.8181 58.6377ZM21.1236 56.4938L21.5196 56.5503L21.576 56.1544L21.1802 56.0979L21.1236 56.4938ZM18.9786 56.1873L19.0352 55.7913L18.6395 55.7347L18.5826 56.1304L18.9786 56.1873ZM18.2083 61.5487L17.8124 61.4918L17.8124 61.4919L18.2083 61.5487ZM19.1269 62.7749L19.07 63.1708L19.0702 63.1708L19.1269 62.7749ZM19.2808 62.7858L19.2819 62.3858H19.2808V62.7858ZM19.4347 62.775L19.3781 62.379L19.3778 62.379L19.4347 62.775ZM24.7961 62.0091L24.8526 62.4051L25.2486 62.3485L25.192 61.9525L24.7961 62.0091ZM24.4895 59.8641L24.8855 59.8075L24.8289 59.4117L24.4331 59.4681L24.4895 59.8641ZM66.4806 16.5071L66.1963 16.7884L66.1979 16.79L66.4806 16.5071ZM65.5609 16.2005L65.6175 16.5965L65.6196 16.5962L65.5609 16.2005ZM66.7872 17.4268L66.3913 17.37L66.3912 17.3703L66.7872 17.4268ZM66.0213 22.7882L65.9643 23.1842L66.3607 23.2412L66.4173 22.8448L66.0213 22.7882ZM63.8763 22.4795L63.4803 22.423L63.4239 22.8185L63.8193 22.8754L63.8763 22.4795ZM64.1818 20.3378L64.5778 20.3942L64.7472 19.2067L63.899 20.0549L64.1818 20.3378ZM58.0545 26.4651L57.7717 26.7479L58.0545 27.0308L58.3373 26.7479L58.0545 26.4651ZM56.5227 24.9332L56.2398 24.6504L55.957 24.9332L56.2398 25.2161L56.5227 24.9332ZM62.65 18.8059L62.9328 19.0888L63.7809 18.2407L62.5936 18.4099L62.65 18.8059ZM60.5061 19.1114L60.1101 19.168L60.1667 19.5638L60.5625 19.5074L60.5061 19.1114ZM60.1995 16.9664L60.1429 16.5704L59.7469 16.627L59.8035 17.023L60.1995 16.9664ZM28.4785 50.9787L28.1957 50.6958L27.9128 50.9787L28.1957 51.2615L28.4785 50.9787ZM30.0105 49.4466L30.2934 49.1638L30.0105 48.8809L29.7277 49.1638L30.0105 49.4466ZM30.0105 52.5107L29.7277 52.7935L30.0105 53.0764L30.2934 52.7935L30.0105 52.5107ZM31.5426 50.9787L31.8254 51.2615L32.1083 50.9787L31.8254 50.6958L31.5426 50.9787ZM52.9913 26.4624L53.2741 26.1795L52.9913 25.8967L52.7084 26.1795L52.9913 26.4624ZM51.4592 27.9944L51.1764 27.7116L50.8935 27.9944L51.1764 28.2773L51.4592 27.9944ZM54.5233 27.9944L54.8062 28.2773L55.089 27.9944L54.8062 27.7116L54.5233 27.9944ZM52.9913 29.5265L52.7084 29.8093L52.9913 30.0922L53.2741 29.8093L52.9913 29.5265ZM41.041 7.57675C41.3491 7.32323 41.8043 7.36752 42.0577 7.67552L42.6755 7.16729C42.1413 6.51789 41.1819 6.42487 40.5327 6.95893L41.041 7.57675ZM40.9424 7.67527C40.9719 7.63938 41.0048 7.60643 41.0407 7.57696L40.533 6.95872C40.4567 7.02134 40.3868 7.0913 40.3242 7.16754L40.9424 7.67527ZM37.7033 11.9947L40.9533 7.6614L40.3133 7.1814L37.0633 11.5147L37.7033 11.9947ZM39.3566 12.7347L37.6233 11.4347L37.1433 12.0747L38.8766 13.3747L39.3566 12.7347ZM40.0966 11.0814L38.7966 12.8147L39.4366 13.2947L40.7366 11.5614L40.0966 11.0814ZM40.8166 19.988V11.3214H40.0166V19.988H40.8166ZM42.5833 19.588H40.4166V20.388H42.5833V19.588ZM42.1833 11.3214V19.988H42.9833V11.3214H42.1833ZM44.2033 12.8147L42.9033 11.0814L42.2633 11.5614L43.5633 13.2947L44.2033 12.8147ZM45.3766 11.4347L43.6433 12.7347L44.1233 13.3747L45.8566 12.0747L45.3766 11.4347ZM42.0466 7.6614L45.2966 11.9947L45.9366 11.5147L42.6866 7.1814L42.0466 7.6614ZM52.979 33.8671C52.9872 33.8839 52.994 33.9007 52.9997 33.9173L53.7577 33.6616C53.7408 33.6116 53.7209 33.5633 53.6982 33.5168L52.979 33.8671ZM52.9157 33.7135C52.9325 33.7468 52.9469 33.7814 52.9586 33.817L53.7185 33.5669C53.6942 33.4931 53.6645 33.4213 53.6293 33.352L52.9157 33.7135ZM52.8919 33.6908C52.909 33.7112 52.9248 33.7322 52.9393 33.754L53.6057 33.3114C53.5741 33.2639 53.5401 33.2185 53.5036 33.1753L52.8919 33.6908ZM52.8058 33.5778C52.8267 33.601 52.846 33.6262 52.8635 33.6527L53.532 33.2133C53.4929 33.1538 53.4491 33.0968 53.4012 33.0435L52.8058 33.5778ZM52.7705 33.5561C52.7941 33.5729 52.8168 33.591 52.8382 33.61L53.3688 33.0112C53.326 32.9734 53.2813 32.9378 53.235 32.9048L52.7705 33.5561ZM52.6606 33.4673C52.6863 33.4858 52.7106 33.5055 52.7336 33.5264L53.2719 32.9345C53.2261 32.8929 53.1781 32.8541 53.1282 32.8182L52.6606 33.4673ZM41.8553 26.9857L52.6886 33.4857L53.1002 32.7997L42.2669 26.2997L41.8553 26.9857ZM41.1513 26.9856C41.3678 26.8555 41.6386 26.8555 41.8551 26.9856L42.2671 26.2998C41.7971 26.0174 41.2093 26.0174 40.7393 26.2998L41.1513 26.9856ZM30.3178 33.4857L41.1511 26.9857L40.7395 26.2997L29.9062 32.7997L30.3178 33.4857ZM30.266 33.5276C30.2861 33.5095 30.3081 33.4925 30.332 33.4767L29.8919 32.8087C29.8356 32.8458 29.7815 32.8873 29.7304 32.9333L30.266 33.5276ZM30.1598 33.6117C30.1821 33.5922 30.2051 33.574 30.2287 33.5574L29.7677 32.9035C29.7207 32.9367 29.6757 32.9722 29.633 33.0096L30.1598 33.6117ZM30.1362 33.6536C30.1544 33.6263 30.1746 33.6 30.1967 33.5748L29.5961 33.0464C29.5507 33.0979 29.5086 33.1526 29.4702 33.2103L30.1362 33.6536ZM30.0622 33.7516C30.0754 33.7314 30.0902 33.7118 30.1065 33.6928L29.5 33.1711C29.4613 33.2161 29.4254 33.2636 29.3926 33.3138L30.0622 33.7516ZM30.0416 33.815C30.0533 33.7801 30.0674 33.7465 30.0838 33.7143L29.371 33.3511C29.3365 33.4188 29.3072 33.4887 29.2832 33.5603L30.0416 33.815ZM29.9998 33.9197C30.0071 33.8982 30.0158 33.8764 30.0258 33.8547L29.2989 33.5206C29.2781 33.566 29.2591 33.613 29.2426 33.6614L29.9998 33.9197ZM29.9833 34.0705C29.9832 34.012 29.9911 33.9537 30.0067 33.8973L29.2357 33.6837C29.2007 33.8102 29.1831 33.9407 29.1833 34.0717L29.9833 34.0705ZM29.9833 44.9044V34.0711H29.1833V44.9044H29.9833ZM30.3147 45.49C30.1092 45.3665 29.9834 45.1442 29.9833 44.9043L29.1833 44.9046C29.1835 45.4251 29.4564 45.9076 29.9027 46.1757L30.3147 45.49ZM41.1478 51.9898L30.3145 45.4898L29.9029 46.1758L40.7362 52.6758L41.1478 51.9898ZM41.1196 51.9742L41.1077 51.9687L40.7764 52.6969L40.7883 52.7023L41.1196 51.9742ZM41.2011 52.0234L41.1891 52.0147L40.7187 52.6618L40.7307 52.6705L41.2011 52.0234ZM41.2601 52.0369C41.2226 52.0254 41.1858 52.0104 41.1501 51.9919L40.7816 52.7019C40.8597 52.7425 40.9418 52.7762 41.027 52.8021L41.2601 52.0369ZM41.341 52.0687C41.3332 52.0651 41.3059 52.0525 41.275 52.0417L41.0121 52.7973L41.0113 52.7976L41.341 52.0687ZM41.3303 52.0658C41.3408 52.0689 41.3476 52.0717 41.3489 52.0722C41.3496 52.0725 41.3496 52.0725 41.3481 52.0719C41.3465 52.0712 41.3447 52.0703 41.341 52.0687L41.0113 52.7976C41.0206 52.8018 41.0601 52.8204 41.1062 52.8338L41.3303 52.0658ZM41.6759 52.0641C41.5608 52.0956 41.4392 52.0956 41.3239 52.064L41.1126 52.8356C41.3662 52.9051 41.6338 52.9051 41.8873 52.8356L41.6759 52.0641ZM41.6589 52.0687C41.6552 52.0703 41.6533 52.0712 41.6517 52.0719C41.6503 52.0725 41.6503 52.0725 41.651 52.0722C41.6523 52.0717 41.6591 52.0689 41.6696 52.0658L41.8936 52.8338C41.9398 52.8204 41.9793 52.8018 41.9886 52.7976L41.6589 52.0687ZM41.7249 52.0417C41.694 52.0525 41.6667 52.0651 41.6589 52.0687L41.9886 52.7976L41.9878 52.7973L41.7249 52.0417ZM41.8497 51.9919C41.8141 52.0104 41.7773 52.0254 41.7398 52.0369L41.9729 52.8021C42.0581 52.7762 42.1402 52.7425 42.2183 52.7019L41.8497 51.9919ZM41.8107 52.0147L41.7988 52.0234L42.2692 52.6705L42.2811 52.6618L41.8107 52.0147ZM41.8922 51.9687L41.8803 51.9742L42.2116 52.7023L42.2235 52.6969L41.8922 51.9687ZM52.6854 45.4898L41.8521 51.9898L42.2637 52.6758L53.097 46.1758L52.6854 45.4898ZM53.0166 44.9043C53.0165 45.1442 52.8907 45.3665 52.6852 45.49L53.0972 46.1757C53.5435 45.9076 53.8164 45.4251 53.8166 44.9046L53.0166 44.9043ZM53.0166 34.0711V44.9044H53.8166V34.0711H53.0166ZM52.9929 33.8953C53.0087 33.9529 53.0167 34.0119 53.0166 34.0706L53.8166 34.0717C53.8168 33.9402 53.799 33.8096 53.7644 33.6836L52.9929 33.8953ZM45.0164 30.4781L41.7058 28.4913L41.2941 29.1773L44.6048 31.1641L45.0164 30.4781ZM36.2891 36.4009L45.0164 31.1641L44.6048 30.4781L35.8775 35.715L36.2891 36.4009ZM32.5668 34.4141L35.8775 36.4009L36.2891 35.715L32.9785 33.7281L32.5668 34.4141ZM41.2941 28.4913L32.5668 33.7281L32.9784 34.4141L41.7058 29.1773L41.2941 28.4913ZM31.35 35.9843V44.2902H32.15V35.9843H31.35ZM40.6224 40.8413L31.9558 35.6413L31.5442 36.3273L40.2108 41.5273L40.6224 40.8413ZM40.8166 49.4902V41.1843H40.0166V49.4902H40.8166ZM31.5442 44.6332L40.2108 49.8332L40.6224 49.1472L31.9558 43.9472L31.5442 44.6332ZM37.9835 37.6641L41.2941 39.6509L41.7058 38.965L38.3951 36.9781L37.9835 37.6641ZM46.7108 31.7413L37.9835 36.9781L38.3951 37.6641L47.1224 32.4273L46.7108 31.7413ZM50.4331 33.7281L47.1224 31.7413L46.7108 32.4273L50.0214 34.4141L50.4331 33.7281ZM41.7058 39.6509L50.4331 34.4141L50.0214 33.7281L41.2941 38.965L41.7058 39.6509ZM42.1833 41.1843V49.4913H42.9833V41.1843H42.1833ZM51.0441 35.6413L42.3775 40.8413L42.7891 41.5273L51.4557 36.3273L51.0441 35.6413ZM51.6499 44.2913V35.9843H50.8499V44.2913H51.6499ZM42.7891 49.8343L51.4557 44.6343L51.0441 43.9483L42.3775 49.1483L42.7891 49.8343ZM43.5633 65.681L42.2633 67.4144L42.9033 67.8944L44.2033 66.161L43.5633 65.681ZM45.8566 66.901L44.1233 65.601L43.6433 66.241L45.3766 67.541L45.8566 66.901ZM42.6866 71.7944L45.9366 67.461L45.2966 66.981L42.0466 71.3144L42.6866 71.7944ZM42.3901 72.0909C42.5024 72.0066 42.6022 71.9068 42.6865 71.7945L42.0467 71.3142C42.0078 71.3661 41.9617 71.4122 41.9098 71.4512L42.3901 72.0909ZM40.3133 71.7944C40.8048 72.4498 41.7345 72.5825 42.3899 72.091L41.91 71.451C41.608 71.6775 41.1797 71.6163 40.9533 71.3144L40.3133 71.7944ZM37.0633 67.461L40.3133 71.7944L40.9533 71.3144L37.7033 66.981L37.0633 67.461ZM38.8766 65.601L37.1433 66.901L37.6233 67.541L39.3566 66.241L38.8766 65.601ZM40.7366 67.4144L39.4366 65.681L38.7966 66.161L40.0966 67.8944L40.7366 67.4144ZM40.0166 58.9877V67.6544H40.8166V58.9877H40.0166ZM42.5833 58.5877H40.4166V59.3877H42.5833V58.5877ZM42.9833 67.6544V58.9877H42.1833V67.6544H42.9833ZM40.4166 22.5547H42.5833V21.7547H40.4166V22.5547ZM40.8166 24.3214V22.1547H40.0166V24.3214H40.8166ZM42.5833 23.9214H40.4166V24.7214H42.5833V23.9214ZM42.1833 22.1547V24.3214H42.9833V22.1547H42.1833ZM42.5833 54.2546H40.4166V55.0546H42.5833V54.2546ZM42.9833 56.8212V54.6546H42.1833V56.8212H42.9833ZM40.4166 57.2212H42.5833V56.4212H40.4166V57.2212ZM40.0166 54.6546V56.8212H40.8166V54.6546H40.0166ZM13.3333 38.8044H22V38.0044H13.3333V38.8044ZM14.8267 36.7844L13.0933 38.0844L13.5733 38.7244L15.3067 37.4244L14.8267 36.7844ZM13.4467 35.6111L14.7467 37.3444L15.3867 36.8644L14.0867 35.1311L13.4467 35.6111ZM9.67335 38.9411L14.0067 35.6911L13.5267 35.0511L9.19335 38.3011L9.67335 38.9411ZM9.5367 39.8977C9.31022 39.5957 9.37142 39.1675 9.67334 38.9411L9.19337 38.301C8.53789 38.7926 8.40517 39.7223 8.89667 40.3777L9.5367 39.8977ZM9.67352 40.0345C9.62166 39.9956 9.5755 39.9494 9.53656 39.8975L8.89681 40.3779C8.9811 40.4901 9.08092 40.59 9.19318 40.6743L9.67352 40.0345ZM14.0067 43.2844L9.67335 40.0344L9.19335 40.6744L13.5267 43.9244L14.0067 43.2844ZM14.7467 41.631L13.4467 43.3644L14.0867 43.8444L15.3867 42.111L14.7467 41.631ZM13.0933 40.891L14.8267 42.191L15.3067 41.551L13.5733 40.251L13.0933 40.891ZM22 40.171H13.3333V40.971H22V40.171ZM21.6 38.4044V40.571H22.4V38.4044H21.6ZM74.1031 38.5975C74.0188 38.4853 73.919 38.3855 73.8067 38.3012L73.3264 38.9409C73.3782 38.9799 73.4244 39.026 73.4633 39.0779L74.1031 38.5975ZM73.8065 40.6744C74.462 40.1828 74.5947 39.2531 74.1032 38.5977L73.4632 39.0777C73.6897 39.3797 73.6285 39.808 73.3266 40.0344L73.8065 40.6744ZM69.4732 43.9244L73.8065 40.6744L73.3265 40.0344L68.9932 43.2844L69.4732 43.9244ZM67.6132 42.111L68.9132 43.8444L69.5532 43.3644L68.2532 41.631L67.6132 42.111ZM69.4265 40.251L67.6932 41.551L68.1732 42.191L69.9066 40.891L69.4265 40.251ZM60.9999 40.971H69.6666V40.171H60.9999V40.971ZM60.5999 38.4044V40.571H61.3999V38.4044H60.5999ZM69.6666 38.0044H60.9999V38.8044H69.6666V38.0044ZM67.6932 37.4244L69.4265 38.7244L69.9066 38.0844L68.1732 36.7844L67.6932 37.4244ZM68.9132 35.1311L67.6132 36.8644L68.2532 37.3444L69.5532 35.6111L68.9132 35.1311ZM73.8065 38.3011L69.4732 35.0511L68.9932 35.6911L73.3265 38.9411L73.8065 38.3011ZM24.1667 38.8046H26.3333V38.0046H24.1667V38.8046ZM24.5667 40.5713V38.4046H23.7667V40.5713H24.5667ZM26.3333 40.1713H24.1667V40.9713H26.3333V40.1713ZM25.9333 38.4046V40.5713H26.7333V38.4046H25.9333ZM58.8332 38.0046H56.6666V38.8046H58.8332V38.0046ZM59.2332 40.5713V38.4046H58.4332V40.5713H59.2332ZM56.6666 40.9713H58.8332V40.1713H56.6666V40.9713ZM56.2666 38.4046V40.5713H57.0666V38.4046H56.2666ZM22.0671 19.0889L28.1944 25.2162L28.7601 24.6506L22.6327 18.5232L22.0671 19.0889ZM24.5502 18.7156L22.4063 18.4101L22.2935 19.2021L24.4374 19.5076L24.5502 18.7156ZM24.4044 16.91L24.0978 19.055L24.8898 19.1682L25.1964 17.0232L24.4044 16.91ZM19.3821 16.5923L24.7435 17.3625L24.8573 16.5707L19.4959 15.8004L19.3821 16.5923ZM18.604 17.1677C18.6594 16.7942 19.007 16.5366 19.3802 16.592L19.4978 15.8007C18.6874 15.6803 17.933 16.2398 17.8127 17.0502L18.604 17.1677ZM18.604 17.368C18.5941 17.3018 18.5941 17.2343 18.604 17.1678L17.8127 17.05C17.7912 17.1945 17.7912 17.3415 17.8127 17.486L18.604 17.368ZM19.3702 22.7318L18.6043 17.3704L17.8123 17.4836L18.5783 22.845L19.3702 22.7318ZM21.0626 22.0859L18.9176 22.3924L19.0308 23.1844L21.1758 22.8778L21.0626 22.0859ZM20.4177 20.3943L20.7232 22.5383L21.5152 22.4254L21.2097 20.2815L20.4177 20.3943ZM27.2239 26.1824L21.0966 20.0551L20.5309 20.6208L26.6582 26.7481L27.2239 26.1824ZM28.1948 24.6502L26.6586 26.182L27.2235 26.7485L28.7597 25.2166L28.1948 24.6502ZM65.1854 61.4922L64.4195 56.1308L63.6275 56.244L64.3934 61.6054L65.1854 61.4922ZM65.2004 61.7039C65.2006 61.632 65.1953 61.5613 65.1854 61.4921L64.3934 61.6055C64.3982 61.6385 64.4005 61.6706 64.4004 61.7017L65.2004 61.7039ZM63.7168 63.186C64.5361 63.1862 65.2002 62.522 65.2004 61.7029L64.4004 61.7027C64.4003 62.0802 64.0942 62.3861 63.717 62.386L63.7168 63.186ZM63.5062 63.1711C63.5761 63.1811 63.6469 63.1862 63.7179 63.186L63.7159 62.386C63.684 62.3861 63.6519 62.3838 63.6199 62.3792L63.5062 63.1711ZM58.1451 62.4052L63.5065 63.1711L63.6196 62.3792L58.2582 61.6133L58.1451 62.4052ZM58.1123 59.8076L57.8057 61.9526L58.5976 62.0658L58.9042 59.9208L58.1123 59.8076ZM60.7069 59.776L58.5651 59.4683L58.4514 60.2602L60.5931 60.5678L60.7069 59.776ZM54.2398 54.3274L60.3671 60.4547L60.9328 59.8891L54.8055 53.7617L54.2398 54.3274ZM55.7717 52.2299L54.2398 53.7617L54.8055 54.3274L56.3373 52.7956L55.7717 52.2299ZM62.4647 58.3572L56.3373 52.2299L55.7717 52.7956L61.899 58.9229L62.4647 58.3572ZM61.4803 56.5526L61.7858 58.6965L62.5778 58.5836L62.2723 56.4397L61.4803 56.5526ZM63.9666 55.7915L61.8194 56.1002L61.9333 56.8921L64.0804 56.5833L63.9666 55.7915ZM28.7605 28.2808L30.2925 26.7488L29.7268 26.1831L28.1948 27.7152L28.7605 28.2808ZM30.2925 29.2472L28.7605 27.7152L28.1948 28.2808L29.7268 29.8129L30.2925 29.2472ZM31.2589 27.7152L29.7268 29.2472L30.2925 29.8129L31.8246 28.2808L31.2589 27.7152ZM29.7268 26.7488L31.2589 28.2808L31.8246 27.7152L30.2925 26.1831L29.7268 26.7488ZM52.7082 49.1629L51.1761 50.695L51.7418 51.2607L53.2739 49.7286L52.7082 49.1629ZM54.8059 50.695L53.2739 49.1629L52.7082 49.7286L54.2402 51.2607L54.8059 50.695ZM53.2739 52.7927L54.8059 51.2607L54.2402 50.695L52.7082 52.227L53.2739 52.7927ZM51.1761 51.2607L52.7082 52.7927L53.2739 52.227L51.7418 50.695L51.1761 51.2607ZM28.19 53.7594L22.0627 59.8867L22.6284 60.4524L28.7557 54.3251L28.19 53.7594ZM26.6622 52.7929L28.1896 54.3247L28.7561 53.7598L27.2286 52.228L26.6622 52.7929ZM21.1009 58.9206L27.2282 52.7933L26.6626 52.2276L20.5352 58.3549L21.1009 58.9206ZM20.7276 56.4374L20.4221 58.5813L21.2141 58.6942L21.5196 56.5503L20.7276 56.4374ZM18.922 56.5832L21.067 56.8898L21.1802 56.0979L19.0352 55.7913L18.922 56.5832ZM18.6043 61.6055L19.3745 56.2441L18.5826 56.1304L17.8124 61.4918L18.6043 61.6055ZM19.1837 62.3789C18.81 62.3253 18.5507 61.979 18.6043 61.6054L17.8124 61.4919C17.6961 62.3027 18.259 63.0544 19.07 63.1708L19.1837 62.3789ZM19.2808 62.3858C19.2483 62.3858 19.2158 62.3835 19.1835 62.3789L19.0702 63.1708C19.14 63.1808 19.2104 63.1858 19.2808 63.1858V62.3858ZM19.3778 62.379C19.3458 62.3836 19.3137 62.3859 19.2819 62.3858L19.2798 63.1858C19.3509 63.186 19.4217 63.181 19.4915 63.1709L19.3778 62.379ZM24.7395 61.6131L19.3781 62.379L19.4912 63.171L24.8526 62.4051L24.7395 61.6131ZM24.0935 59.9207L24.4001 62.0657L25.192 61.9525L24.8855 59.8075L24.0935 59.9207ZM22.402 60.5656L24.5459 60.2601L24.4331 59.4681L22.2891 59.7736L22.402 60.5656ZM66.765 16.2258C66.4352 15.8924 65.9661 15.736 65.5022 15.8048L65.6196 16.5962C65.8314 16.5648 66.0457 16.6362 66.1963 16.7884L66.765 16.2258ZM67.1832 17.4837C67.2496 17.0211 67.0939 16.5545 66.7634 16.2242L66.1979 16.79C66.3503 16.9423 66.4218 17.1572 66.3913 17.37L67.1832 17.4837ZM66.4173 22.8448L67.1832 17.4834L66.3912 17.3703L65.6253 22.7317L66.4173 22.8448ZM63.8193 22.8754L65.9643 23.1842L66.0783 22.3923L63.9333 22.0836L63.8193 22.8754ZM63.7858 20.2813L63.4803 22.423L64.2723 22.536L64.5778 20.3942L63.7858 20.2813ZM58.3373 26.7479L64.4647 20.6206L63.899 20.0549L57.7717 26.1822L58.3373 26.7479ZM56.2398 25.2161L57.7717 26.7479L58.3373 26.1822L56.8055 24.6504L56.2398 25.2161ZM62.3671 18.5231L56.2398 24.6504L56.8055 25.2161L62.9328 19.0888L62.3671 18.5231ZM60.5625 19.5074L62.7064 19.2019L62.5936 18.4099L60.4496 18.7154L60.5625 19.5074ZM59.8035 17.023L60.1101 19.168L60.902 19.0548L60.5955 16.9098L59.8035 17.023ZM65.5043 15.8045L60.1429 16.5704L60.2561 17.3624L65.6175 16.5965L65.5043 15.8045ZM28.7613 51.2615L30.2934 49.7294L29.7277 49.1638L28.1957 50.6958L28.7613 51.2615ZM30.2934 52.2279L28.7613 50.6958L28.1957 51.2615L29.7277 52.7935L30.2934 52.2279ZM31.2598 50.6958L29.7277 52.2279L30.2934 52.7935L31.8254 51.2615L31.2598 50.6958ZM29.7277 49.7294L31.2598 51.2615L31.8254 50.6958L30.2934 49.1638L29.7277 49.7294ZM52.7084 26.1795L51.1764 27.7116L51.7421 28.2773L53.2741 26.7452L52.7084 26.1795ZM54.8062 27.7116L53.2741 26.1795L52.7084 26.7452L54.2405 28.2773L54.8062 27.7116ZM53.2741 29.8093L54.8062 28.2773L54.2405 27.7116L52.7084 29.2436L53.2741 29.8093ZM51.1764 28.2773L52.7084 29.8093L53.2741 29.2436L51.7421 27.7116L51.1764 28.2773Z" fill="#372120" mask="url(#path-2-inside-1)"/>
</svg>
