<svg width="81" height="80" viewBox="0 0 81 80" fill="none" xmlns="http://www.w3.org/2000/svg">
<rect x="0.4375" width="80" height="80" fill="#EDC939"/>
<mask id="path-2-inside-1" fill="white">
<path fill-rule="evenodd" clip-rule="evenodd" d="M65.7817 32.0787L73.3675 33.2487C73.9173 33.3341 74.3258 33.8431 74.3258 34.4428V44.2126C74.3317 46.0888 73.2734 47.778 71.6576 48.4691L68.0405 50.0366C67.9083 50.0935 67.7674 50.1225 67.6252 50.1225H67.2244C66.5532 52.1906 65.0473 53.817 63.1325 54.5419C59.6531 55.8591 55.8438 53.8803 54.6242 50.1225H24.788C24.1169 52.1906 22.6114 53.817 20.6961 54.5419C17.2167 55.8591 13.4075 53.8803 12.1878 50.1225H8.43809C7.82101 50.1225 7.32117 49.5826 7.32117 48.9161V41.7543C7.32389 39.7848 8.30086 37.9665 9.8831 36.9865C13.7764 34.5895 18.1714 33.3022 22.6528 33.2477L26.4811 30.9922C32.043 27.7212 38.2743 26.0049 44.6069 26H45.9246C51.2907 25.9936 56.5954 27.2274 61.483 29.6185C62.963 30.3394 64.3984 31.161 65.7817 32.0787ZM17.5943 52.436C20.0113 52.9694 22.371 51.2856 22.865 48.6752C22.925 48.3576 22.9554 48.0342 22.9554 47.7103C22.9559 45.4174 21.4627 43.4411 19.3829 42.9822C16.9659 42.4487 14.6062 44.1326 14.1118 46.743C13.6178 49.3539 15.1769 51.9025 17.5943 52.436ZM25.1888 47.7103H43.0569V35.6491H22.9554C18.7594 35.6506 14.6362 36.8333 10.9918 39.0806C10.1039 39.6293 9.55593 40.6496 9.55456 41.7543V47.7103H11.788C11.788 43.7135 14.7879 40.4734 18.4886 40.4734C22.1893 40.4734 25.1888 43.7135 25.1888 47.7103ZM27.3354 33.237H43.0569V28.4652C37.6286 28.7189 32.3252 30.3075 27.5508 33.1098L27.3354 33.237ZM45.9224 28.4122H45.2903V33.237H57.1125L59.0624 31.131C54.8823 29.3294 50.4228 28.4068 45.9224 28.4122ZM60.0303 52.436C62.4477 52.9694 64.8074 51.2856 65.3013 48.6752C65.3613 48.3576 65.3918 48.0342 65.3918 47.7103C65.3922 45.4174 63.8991 43.4411 61.8192 42.9822C59.4023 42.4487 57.0421 44.1326 56.5482 46.743C56.0542 49.3539 57.6133 51.9025 60.0303 52.436ZM68.7421 36.8549H72.0924V35.4881L65.2332 34.4305C65.0791 34.4065 64.9319 34.3481 64.8001 34.2592C63.6573 33.4907 62.4754 32.7923 61.2599 32.1676L58.364 35.2953C58.1549 35.5215 57.8709 35.6486 57.5747 35.6486H45.2907V47.7088H54.228C54.2316 43.7135 57.2293 40.4758 60.9286 40.4719C61.1631 40.4719 61.3862 40.4852 61.6098 40.5092C61.6581 40.5141 61.7051 40.5228 61.7524 40.5316C61.786 40.5378 61.8198 40.5441 61.8542 40.549C61.8935 40.5552 61.9329 40.561 61.9723 40.5668C62.0728 40.5815 62.1733 40.5963 62.2718 40.6182C62.3207 40.6291 62.3682 40.6432 62.4156 40.6572C62.4515 40.6679 62.4874 40.6786 62.524 40.6879C62.5584 40.6971 62.5928 40.706 62.6272 40.7149C62.7228 40.7396 62.8181 40.7643 62.9116 40.7953C62.9714 40.8157 63.0223 40.8367 63.0797 40.8603C63.1136 40.8742 63.1496 40.8891 63.1911 40.9053C63.2217 40.9171 63.2536 40.9292 63.2857 40.9413C63.3706 40.9734 63.4571 41.0061 63.526 41.0378C63.5886 41.0663 63.645 41.0965 63.7055 41.1289C63.7368 41.1457 63.7691 41.163 63.8041 41.1811C63.8338 41.1964 63.8643 41.2119 63.8949 41.2273C63.9701 41.2654 64.0456 41.3036 64.1099 41.3406C64.2003 41.3921 64.2785 41.4451 64.3748 41.5128C64.4226 41.5466 64.4715 41.5775 64.5196 41.608C64.5681 41.6386 64.6157 41.6688 64.6606 41.7008C64.7249 41.7472 64.787 41.7984 64.8485 41.8491C64.8722 41.8687 64.8959 41.8883 64.9196 41.9074C64.9482 41.9307 64.977 41.953 65.0059 41.9753C65.0624 42.019 65.1191 42.0629 65.175 42.1145C65.2256 42.1613 65.2753 42.2115 65.3236 42.2602C65.3565 42.2933 65.3887 42.3258 65.4199 42.356C65.4429 42.3783 65.4658 42.3999 65.4887 42.4216C65.5423 42.4721 65.5957 42.5226 65.6499 42.5817C65.6889 42.6246 65.728 42.6722 65.7661 42.7185C65.8031 42.7634 65.839 42.8071 65.873 42.8443L65.8791 42.851C65.9464 42.9247 66.0114 42.9957 66.0807 43.0858C66.1378 43.1601 66.1939 43.2424 66.2454 43.3181C66.2582 43.3368 66.2707 43.3552 66.2829 43.3729C66.3053 43.4055 66.3274 43.4366 66.3495 43.4678C66.388 43.522 66.4267 43.5764 66.4673 43.6394C66.531 43.738 66.5923 43.8479 66.6423 43.9446C66.6657 43.9892 66.691 44.0322 66.7166 44.0757C66.7462 44.1261 66.7763 44.1772 66.8045 44.2327C66.8391 44.3013 66.871 44.3738 66.9021 44.4447C66.918 44.4809 66.9337 44.5166 66.9495 44.5512C66.9634 44.5818 66.9779 44.612 66.9924 44.6423C67.0265 44.7135 67.0606 44.7848 67.0881 44.8609C67.1095 44.9207 67.1296 44.9819 67.1497 45.043C67.1662 45.0932 67.1826 45.1433 67.1998 45.1927C67.2108 45.2244 67.2219 45.256 67.233 45.2875C67.2603 45.3651 67.2876 45.4424 67.3112 45.522C67.3323 45.5927 67.349 45.6648 67.3657 45.7371C67.3755 45.7796 67.3854 45.8222 67.3961 45.8645C67.402 45.8876 67.408 45.911 67.414 45.9345C67.438 46.0279 67.4624 46.1232 67.4802 46.211C67.4954 46.2855 67.5063 46.3652 67.5175 46.4465C67.5227 46.4847 67.528 46.5233 67.5338 46.5619C67.539 46.5969 67.5445 46.6319 67.5501 46.6669C67.5636 46.7523 67.5771 46.838 67.5852 46.9236C67.592 46.9993 67.5955 47.0787 67.5988 47.1548C67.6007 47.2 67.6026 47.244 67.6052 47.2853C67.6074 47.3216 67.6103 47.3577 67.6132 47.3939C67.6192 47.4682 67.6252 47.5424 67.6252 47.6171L70.8283 46.2277C71.5935 45.9013 72.0951 45.1014 72.0924 44.2126V39.2676H68.7421V36.8549ZM39.7066 36.8545H35.2398V39.2676H39.7066V36.8545Z"/>
</mask>
<path fill-rule="evenodd" clip-rule="evenodd" d="M65.7817 32.0787L73.3675 33.2487C73.9173 33.3341 74.3258 33.8431 74.3258 34.4428V44.2126C74.3317 46.0888 73.2734 47.778 71.6576 48.4691L68.0405 50.0366C67.9083 50.0935 67.7674 50.1225 67.6252 50.1225H67.2244C66.5532 52.1906 65.0473 53.817 63.1325 54.5419C59.6531 55.8591 55.8438 53.8803 54.6242 50.1225H24.788C24.1169 52.1906 22.6114 53.817 20.6961 54.5419C17.2167 55.8591 13.4075 53.8803 12.1878 50.1225H8.43809C7.82101 50.1225 7.32117 49.5826 7.32117 48.9161V41.7543C7.32389 39.7848 8.30086 37.9665 9.8831 36.9865C13.7764 34.5895 18.1714 33.3022 22.6528 33.2477L26.4811 30.9922C32.043 27.7212 38.2743 26.0049 44.6069 26H45.9246C51.2907 25.9936 56.5954 27.2274 61.483 29.6185C62.963 30.3394 64.3984 31.161 65.7817 32.0787ZM17.5943 52.436C20.0113 52.9694 22.371 51.2856 22.865 48.6752C22.925 48.3576 22.9554 48.0342 22.9554 47.7103C22.9559 45.4174 21.4627 43.4411 19.3829 42.9822C16.9659 42.4487 14.6062 44.1326 14.1118 46.743C13.6178 49.3539 15.1769 51.9025 17.5943 52.436ZM25.1888 47.7103H43.0569V35.6491H22.9554C18.7594 35.6506 14.6362 36.8333 10.9918 39.0806C10.1039 39.6293 9.55593 40.6496 9.55456 41.7543V47.7103H11.788C11.788 43.7135 14.7879 40.4734 18.4886 40.4734C22.1893 40.4734 25.1888 43.7135 25.1888 47.7103ZM27.3354 33.237H43.0569V28.4652C37.6286 28.7189 32.3252 30.3075 27.5508 33.1098L27.3354 33.237ZM45.9224 28.4122H45.2903V33.237H57.1125L59.0624 31.131C54.8823 29.3294 50.4228 28.4068 45.9224 28.4122ZM60.0303 52.436C62.4477 52.9694 64.8074 51.2856 65.3013 48.6752C65.3613 48.3576 65.3918 48.0342 65.3918 47.7103C65.3922 45.4174 63.8991 43.4411 61.8192 42.9822C59.4023 42.4487 57.0421 44.1326 56.5482 46.743C56.0542 49.3539 57.6133 51.9025 60.0303 52.436ZM68.7421 36.8549H72.0924V35.4881L65.2332 34.4305C65.0791 34.4065 64.9319 34.3481 64.8001 34.2592C63.6573 33.4907 62.4754 32.7923 61.2599 32.1676L58.364 35.2953C58.1549 35.5215 57.8709 35.6486 57.5747 35.6486H45.2907V47.7088H54.228C54.2316 43.7135 57.2293 40.4758 60.9286 40.4719C61.1631 40.4719 61.3862 40.4852 61.6098 40.5092C61.6581 40.5141 61.7051 40.5228 61.7524 40.5316C61.786 40.5378 61.8198 40.5441 61.8542 40.549C61.8935 40.5552 61.9329 40.561 61.9723 40.5668C62.0728 40.5815 62.1733 40.5963 62.2718 40.6182C62.3207 40.6291 62.3682 40.6432 62.4156 40.6572C62.4515 40.6679 62.4874 40.6786 62.524 40.6879C62.5584 40.6971 62.5928 40.706 62.6272 40.7149C62.7228 40.7396 62.8181 40.7643 62.9116 40.7953C62.9714 40.8157 63.0223 40.8367 63.0797 40.8603C63.1136 40.8742 63.1496 40.8891 63.1911 40.9053C63.2217 40.9171 63.2536 40.9292 63.2857 40.9413C63.3706 40.9734 63.4571 41.0061 63.526 41.0378C63.5886 41.0663 63.645 41.0965 63.7055 41.1289C63.7368 41.1457 63.7691 41.163 63.8041 41.1811C63.8338 41.1964 63.8643 41.2119 63.8949 41.2273C63.9701 41.2654 64.0456 41.3036 64.1099 41.3406C64.2003 41.3921 64.2785 41.4451 64.3748 41.5128C64.4226 41.5466 64.4715 41.5775 64.5196 41.608C64.5681 41.6386 64.6157 41.6688 64.6606 41.7008C64.7249 41.7472 64.787 41.7984 64.8485 41.8491C64.8722 41.8687 64.8959 41.8883 64.9196 41.9074C64.9482 41.9307 64.977 41.953 65.0059 41.9753C65.0624 42.019 65.1191 42.0629 65.175 42.1145C65.2256 42.1613 65.2753 42.2115 65.3236 42.2602C65.3565 42.2933 65.3887 42.3258 65.4199 42.356C65.4429 42.3783 65.4658 42.3999 65.4887 42.4216C65.5423 42.4721 65.5957 42.5226 65.6499 42.5817C65.6889 42.6246 65.728 42.6722 65.7661 42.7185C65.8031 42.7634 65.839 42.8071 65.873 42.8443L65.8791 42.851C65.9464 42.9247 66.0114 42.9957 66.0807 43.0858C66.1378 43.1601 66.1939 43.2424 66.2454 43.3181C66.2582 43.3368 66.2707 43.3552 66.2829 43.3729C66.3053 43.4055 66.3274 43.4366 66.3495 43.4678C66.388 43.522 66.4267 43.5764 66.4673 43.6394C66.531 43.738 66.5923 43.8479 66.6423 43.9446C66.6657 43.9892 66.691 44.0322 66.7166 44.0757C66.7462 44.1261 66.7763 44.1772 66.8045 44.2327C66.8391 44.3013 66.871 44.3738 66.9021 44.4447C66.918 44.4809 66.9337 44.5166 66.9495 44.5512C66.9634 44.5818 66.9779 44.612 66.9924 44.6423C67.0265 44.7135 67.0606 44.7848 67.0881 44.8609C67.1095 44.9207 67.1296 44.9819 67.1497 45.043C67.1662 45.0932 67.1826 45.1433 67.1998 45.1927C67.2108 45.2244 67.2219 45.256 67.233 45.2875C67.2603 45.3651 67.2876 45.4424 67.3112 45.522C67.3323 45.5927 67.349 45.6648 67.3657 45.7371C67.3755 45.7796 67.3854 45.8222 67.3961 45.8645C67.402 45.8876 67.408 45.911 67.414 45.9345C67.438 46.0279 67.4624 46.1232 67.4802 46.211C67.4954 46.2855 67.5063 46.3652 67.5175 46.4465C67.5227 46.4847 67.528 46.5233 67.5338 46.5619C67.539 46.5969 67.5445 46.6319 67.5501 46.6669C67.5636 46.7523 67.5771 46.838 67.5852 46.9236C67.592 46.9993 67.5955 47.0787 67.5988 47.1548C67.6007 47.2 67.6026 47.244 67.6052 47.2853C67.6074 47.3216 67.6103 47.3577 67.6132 47.3939C67.6192 47.4682 67.6252 47.5424 67.6252 47.6171L70.8283 46.2277C71.5935 45.9013 72.0951 45.1014 72.0924 44.2126V39.2676H68.7421V36.8549ZM39.7066 36.8545H35.2398V39.2676H39.7066V36.8545Z" fill="white"/>
<path d="M73.3675 33.2487L73.4442 32.7547L73.4437 32.7546L73.3675 33.2487ZM65.7817 32.0787L65.5052 32.4954L65.5968 32.5561L65.7054 32.5729L65.7817 32.0787ZM74.3258 44.2126L73.8258 44.2126L73.8258 44.2142L74.3258 44.2126ZM71.6576 48.4691L71.461 48.0093L71.4587 48.0103L71.6576 48.4691ZM68.0405 50.0366L68.2382 50.4958L68.2393 50.4953L68.0405 50.0366ZM67.2244 50.1225V49.6225H66.861L66.7488 49.9681L67.2244 50.1225ZM63.1325 54.5419L62.9555 54.0742L62.9554 54.0743L63.1325 54.5419ZM54.6242 50.1225L55.0998 49.9681L54.9876 49.6225H54.6242V50.1225ZM24.788 50.1225V49.6225H24.4246L24.3124 49.9681L24.788 50.1225ZM20.6961 54.5419L20.5191 54.0742L20.5191 54.0743L20.6961 54.5419ZM12.1878 50.1225L12.6634 49.9681L12.5512 49.6225H12.1878V50.1225ZM7.32117 41.7543L6.82117 41.7536V41.7543H7.32117ZM9.8831 36.9865L9.62097 36.5607L9.61981 36.5614L9.8831 36.9865ZM22.6528 33.2477L22.6588 33.7477L22.7919 33.7461L22.9066 33.6785L22.6528 33.2477ZM26.4811 30.9922L26.2277 30.5612L26.2273 30.5614L26.4811 30.9922ZM44.6069 26L44.6069 25.5L44.6065 25.5L44.6069 26ZM45.9246 26L45.9246 26.5L45.9252 26.5L45.9246 26ZM61.483 29.6185L61.2633 30.0676L61.264 30.068L61.483 29.6185ZM22.865 48.6752L23.3563 48.7681L23.3563 48.768L22.865 48.6752ZM17.5943 52.436L17.7021 51.9477L17.7021 51.9477L17.5943 52.436ZM22.9554 47.7103L22.4554 47.7102V47.7103H22.9554ZM19.3829 42.9822L19.2751 43.4705L19.2752 43.4705L19.3829 42.9822ZM14.1118 46.743L13.6205 46.65L13.6205 46.6501L14.1118 46.743ZM43.0569 47.7103V48.2103H43.5569V47.7103H43.0569ZM25.1888 47.7103H24.6888V48.2103H25.1888V47.7103ZM43.0569 35.6491H43.5569V35.1491H43.0569V35.6491ZM22.9554 35.6491L22.9554 35.1491L22.9552 35.1491L22.9554 35.6491ZM10.9918 39.0806L10.7294 38.655L10.729 38.6552L10.9918 39.0806ZM9.55456 41.7543L9.05456 41.7537V41.7543H9.55456ZM9.55456 47.7103H9.05456V48.2103H9.55456V47.7103ZM11.788 47.7103V48.2103H12.288V47.7103H11.788ZM43.0569 33.237V33.737H43.5569V33.237H43.0569ZM27.3354 33.237L27.0813 32.8063L25.5044 33.737H27.3354V33.237ZM43.0569 28.4652H43.5569V27.9413L43.0335 27.9657L43.0569 28.4652ZM27.5508 33.1098L27.2977 32.6786L27.2967 32.6792L27.5508 33.1098ZM45.2903 28.4122V27.9122H44.7903V28.4122H45.2903ZM45.9224 28.4122L45.9224 28.9122L45.923 28.9122L45.9224 28.4122ZM45.2903 33.237H44.7903V33.737H45.2903V33.237ZM57.1125 33.237V33.737H57.331L57.4794 33.5767L57.1125 33.237ZM59.0624 31.131L59.4293 31.4707L59.9097 30.9518L59.2603 30.6719L59.0624 31.131ZM65.3013 48.6752L65.7926 48.7681L65.7927 48.768L65.3013 48.6752ZM60.0303 52.436L59.9225 52.9242L59.9225 52.9242L60.0303 52.436ZM65.3918 47.7103L64.8918 47.7102V47.7103H65.3918ZM61.8192 42.9822L61.7115 43.4705L61.7115 43.4705L61.8192 42.9822ZM56.5482 46.743L56.0569 46.65L56.0569 46.6501L56.5482 46.743ZM72.0924 36.8549V37.3549H72.5924V36.8549H72.0924ZM68.7421 36.8549V36.3549H68.2421V36.8549H68.7421ZM72.0924 35.4881H72.5924V35.0593L72.1686 34.994L72.0924 35.4881ZM65.2332 34.4305L65.1561 34.9245L65.157 34.9247L65.2332 34.4305ZM64.8001 34.2592L65.0796 33.8446L65.0792 33.8443L64.8001 34.2592ZM61.2599 32.1676L61.4884 31.7229L61.1509 31.5494L60.893 31.8279L61.2599 32.1676ZM58.364 35.2953L57.9971 34.9556L57.9967 34.9559L58.364 35.2953ZM45.2907 35.6486V35.1486H44.7907V35.6486H45.2907ZM45.2907 47.7088H44.7907V48.2088H45.2907V47.7088ZM54.228 47.7088V48.2088H54.7275L54.728 47.7093L54.228 47.7088ZM60.9286 40.4719L60.9286 39.9719L60.9281 39.9719L60.9286 40.4719ZM61.6098 40.5092L61.5563 41.0064L61.5596 41.0067L61.6098 40.5092ZM61.7524 40.5316L61.6612 41.0232L61.6612 41.0232L61.7524 40.5316ZM61.8542 40.549L61.9324 40.0551L61.9247 40.054L61.8542 40.549ZM61.9723 40.5668L62.045 40.0721L62.045 40.0721L61.9723 40.5668ZM62.2718 40.6182L62.3806 40.1301L62.3801 40.13L62.2718 40.6182ZM62.4156 40.6572L62.2733 41.1366L62.2733 41.1366L62.4156 40.6572ZM62.524 40.6879L62.6535 40.2049L62.6472 40.2033L62.524 40.6879ZM62.6272 40.7149L62.5019 41.1989L62.5019 41.1989L62.6272 40.7149ZM62.9116 40.7953L63.073 40.3221L63.0691 40.3208L62.9116 40.7953ZM63.0797 40.8603L62.8894 41.3227L62.8895 41.3227L63.0797 40.8603ZM63.1911 40.9053L63.0091 41.371L63.0103 41.3714L63.1911 40.9053ZM63.2857 40.9413L63.109 41.4091L63.109 41.4091L63.2857 40.9413ZM63.526 41.0378L63.3171 41.492L63.319 41.4929L63.526 41.0378ZM63.7055 41.1289L63.4692 41.5696L63.4692 41.5696L63.7055 41.1289ZM63.8041 41.1811L64.0334 40.7368L64.0334 40.7368L63.8041 41.1811ZM63.8949 41.2273L64.1207 40.7812L64.1207 40.7812L63.8949 41.2273ZM64.1099 41.3406L63.8606 41.774L63.8623 41.775L64.1099 41.3406ZM64.3748 41.5128L64.6633 41.1045L64.6624 41.1038L64.3748 41.5128ZM64.5196 41.608L64.2523 42.0305L64.2523 42.0305L64.5196 41.608ZM64.6606 41.7008L64.9533 41.2954L64.9508 41.2936L64.6606 41.7008ZM64.8485 41.8491L64.5303 42.2348L64.5304 42.2349L64.8485 41.8491ZM64.9196 41.9074L65.2351 41.5195L65.234 41.5186L64.9196 41.9074ZM65.0059 41.9753L65.3119 41.5799L65.3119 41.5799L65.0059 41.9753ZM65.175 42.1145L65.5144 41.7473L65.5142 41.7472L65.175 42.1145ZM65.3236 42.2602L64.9685 42.6121L64.9685 42.6121L65.3236 42.2602ZM65.4199 42.356L65.7683 41.9973L65.7673 41.9963L65.4199 42.356ZM65.4887 42.4216L65.832 42.058L65.832 42.058L65.4887 42.4216ZM65.6499 42.5817L66.0197 42.2453L66.0187 42.2442L65.6499 42.5817ZM65.7661 42.7185L65.38 43.0362L65.38 43.0362L65.7661 42.7185ZM65.873 42.8443L66.2421 42.507L66.2421 42.507L65.873 42.8443ZM65.8791 42.851L65.51 43.1883L65.51 43.1883L65.8791 42.851ZM66.0807 43.0858L66.477 42.7809L66.477 42.7809L66.0807 43.0858ZM66.2454 43.3181L65.8322 43.5996L65.8322 43.5996L66.2454 43.3181ZM66.2829 43.3729L66.695 43.0898L66.695 43.0898L66.2829 43.3729ZM66.3495 43.4678L66.7571 43.1782L66.7571 43.1782L66.3495 43.4678ZM66.4673 43.6394L66.8875 43.3684L66.8873 43.368L66.4673 43.6394ZM66.6423 43.9446L66.1981 44.1742L66.1995 44.1768L66.6423 43.9446ZM66.7166 44.0757L67.1475 43.8222L67.1475 43.8222L66.7166 44.0757ZM66.8045 44.2327L67.2509 44.0074L67.2501 44.0059L66.8045 44.2327ZM66.9021 44.4447L67.3599 44.2437L67.3599 44.2437L66.9021 44.4447ZM66.9495 44.5512L67.4044 44.3437L67.4044 44.3437L66.9495 44.5512ZM66.9924 44.6423L67.4433 44.4263L67.4433 44.4263L66.9924 44.6423ZM67.0881 44.8609L67.5587 44.6921L67.5585 44.6914L67.0881 44.8609ZM67.1497 45.043L66.6747 45.199L66.6747 45.199L67.1497 45.043ZM67.1998 45.1927L67.6728 45.0304L67.672 45.028L67.1998 45.1927ZM67.233 45.2875L66.7614 45.4538L66.7614 45.4538L67.233 45.2875ZM67.3112 45.522L66.8318 45.6641L66.8322 45.6653L67.3112 45.522ZM67.3657 45.7371L67.8529 45.6245L67.8529 45.6245L67.3657 45.7371ZM67.3961 45.8645L67.8808 45.7418L67.8807 45.7413L67.3961 45.8645ZM67.414 45.9345L66.9297 46.0588L66.9297 46.0588L67.414 45.9345ZM67.4802 46.211L66.9902 46.3103L66.9902 46.3107L67.4802 46.211ZM67.5175 46.4465L68.0128 46.3785L68.0128 46.3785L67.5175 46.4465ZM67.5338 46.5619L68.0285 46.489L68.0283 46.4875L67.5338 46.5619ZM67.5501 46.6669L67.0562 46.745L67.0562 46.745L67.5501 46.6669ZM67.5852 46.9236L68.0832 46.8786L68.083 46.8768L67.5852 46.9236ZM67.5988 47.1548L67.0992 47.1765L67.0992 47.1765L67.5988 47.1548ZM67.6052 47.2853L68.1042 47.2547L68.1042 47.2546L67.6052 47.2853ZM67.6132 47.3939L68.1116 47.3538L68.1116 47.3538L67.6132 47.3939ZM67.6252 47.6171H67.1252V48.379L67.8241 48.0758L67.6252 47.6171ZM70.8283 46.2277L70.6321 45.7678L70.6293 45.769L70.8283 46.2277ZM72.0924 44.2126L71.5924 44.2126L71.5924 44.2141L72.0924 44.2126ZM72.0924 39.2676H72.5924V38.7676H72.0924V39.2676ZM68.7421 39.2676H68.2421V39.7676H68.7421V39.2676ZM35.2398 36.8545V36.3545H34.7398V36.8545H35.2398ZM39.7066 36.8545H40.2066V36.3545H39.7066V36.8545ZM35.2398 39.2676H34.7398V39.7676H35.2398V39.2676ZM39.7066 39.2676V39.7676H40.2066V39.2676H39.7066ZM73.4437 32.7546L65.8579 31.5846L65.7054 32.5729L73.2913 33.7429L73.4437 32.7546ZM74.8258 34.4428C74.8258 33.6252 74.2649 32.8821 73.4442 32.7547L73.2907 33.7428C73.5697 33.7861 73.8258 34.0609 73.8258 34.4428H74.8258ZM74.8258 44.2126V34.4428H73.8258V44.2126H74.8258ZM71.8542 48.9288C73.6704 48.1521 74.8323 46.2702 74.8258 44.211L73.8258 44.2142C73.8312 45.9075 72.8764 47.404 71.461 48.0093L71.8542 48.9288ZM68.2393 50.4953L71.8564 48.9278L71.4587 48.0103L67.8417 49.5778L68.2393 50.4953ZM67.6252 50.6225C67.8356 50.6225 68.0437 50.5795 68.2382 50.4958L67.8428 49.5773C67.7728 49.6075 67.6992 49.6225 67.6252 49.6225V50.6225ZM67.2244 50.6225H67.6252V49.6225H67.2244V50.6225ZM63.3095 55.0095C65.3761 54.2272 66.9853 52.4789 67.7 50.2768L66.7488 49.9681C66.1211 51.9022 64.7186 53.4068 62.9555 54.0742L63.3095 55.0095ZM54.1486 50.2768C55.4469 54.2769 59.535 56.4385 63.3095 55.0095L62.9554 54.0743C59.7712 55.2797 56.2408 53.4838 55.0998 49.9681L54.1486 50.2768ZM24.788 50.6225H54.6242V49.6225H24.788V50.6225ZM20.8731 55.0095C22.9402 54.2272 24.549 52.4789 25.2636 50.2768L24.3124 49.9681C23.6848 51.9023 22.2826 53.4068 20.5191 54.0742L20.8731 55.0095ZM11.7123 50.2768C13.0105 54.2769 17.0986 56.4385 20.8731 55.0095L20.5191 54.0743C17.3349 55.2797 13.8044 53.4838 12.6634 49.9681L11.7123 50.2768ZM8.43809 50.6225H12.1878V49.6225H8.43809V50.6225ZM6.82117 48.9161C6.82117 49.8218 7.50932 50.6225 8.43809 50.6225V49.6225C8.13271 49.6225 7.82117 49.3434 7.82117 48.9161H6.82117ZM6.82117 41.7543V48.9161H7.82117V41.7543H6.82117ZM9.61981 36.5614C7.88055 37.6387 6.82412 39.6235 6.82117 41.7536L7.82117 41.755C7.82367 39.9462 8.72117 38.2943 10.1464 37.4115L9.61981 36.5614ZM22.6467 32.7478C18.0729 32.8034 13.5897 34.1173 9.62097 36.5607L10.1452 37.4122C13.9632 35.0617 18.27 33.8011 22.6588 33.7477L22.6467 32.7478ZM26.2273 30.5614L22.399 32.817L22.9066 33.6785L26.7349 31.4229L26.2273 30.5614ZM44.6065 25.5C38.1831 25.505 31.8648 27.246 26.2277 30.5612L26.7346 31.4232C32.2213 28.1964 38.3654 26.5049 44.6072 26.5L44.6065 25.5ZM45.9246 25.5H44.6069V26.5H45.9246V25.5ZM61.7027 29.1694C56.7475 26.7452 51.3676 25.4936 45.924 25.5L45.9252 26.5C51.2138 26.4937 56.4433 27.7096 61.2633 30.0676L61.7027 29.1694ZM66.0581 31.6621C64.6566 30.7322 63.202 29.8997 61.702 29.169L61.264 30.068C62.724 30.7792 64.1403 31.5897 65.5052 32.4954L66.0581 31.6621ZM22.3737 48.5822C21.9256 50.9504 19.8102 52.413 17.7021 51.9477L17.4866 52.9242C20.2125 53.5259 22.8165 51.6208 23.3563 48.7681L22.3737 48.5822ZM22.4554 47.7103C22.4554 48.003 22.4279 48.2953 22.3737 48.5824L23.3563 48.768C23.422 48.42 23.4554 48.0655 23.4554 47.7103H22.4554ZM19.2752 43.4705C21.1015 43.8734 22.4558 45.6262 22.4554 47.7102L23.4554 47.7104C23.4559 45.2087 21.8239 43.0088 19.4906 42.494L19.2752 43.4705ZM14.6031 46.836C15.0516 44.4678 17.1671 43.0052 19.2751 43.4705L19.4906 42.494C16.7647 41.8923 14.1608 43.7974 13.6205 46.65L14.6031 46.836ZM17.7021 51.9477C15.5791 51.4792 14.1533 49.2132 14.6031 46.8359L13.6205 46.6501C13.0824 49.4947 14.7747 52.3258 17.4866 52.9242L17.7021 51.9477ZM43.0569 47.2103H25.1888V48.2103H43.0569V47.2103ZM42.5569 35.6491V47.7103H43.5569V35.6491H42.5569ZM22.9554 36.1491H43.0569V35.1491H22.9554V36.1491ZM11.2543 39.5062C14.8215 37.3065 18.8542 36.1505 22.9556 36.1491L22.9552 35.1491C18.6647 35.1506 14.4509 36.3602 10.7294 38.655L11.2543 39.5062ZM10.0546 41.7549C10.0557 40.8108 10.5243 39.9572 11.2547 39.5059L10.729 38.6552C9.68355 39.3013 9.05613 40.4884 9.05456 41.7537L10.0546 41.7549ZM10.0546 47.7103V41.7543H9.05456V47.7103H10.0546ZM11.788 47.2103H9.55456V48.2103H11.788V47.2103ZM18.4886 39.9734C14.4762 39.9734 11.288 43.4743 11.288 47.7103H12.288C12.288 43.9527 15.0996 40.9734 18.4886 40.9734V39.9734ZM25.6888 47.7103C25.6888 43.4743 22.501 39.9734 18.4886 39.9734V40.9734C21.8775 40.9734 24.6888 43.9526 24.6888 47.7103H25.6888ZM43.0569 32.737H27.3354V33.737H43.0569V32.737ZM42.5569 28.4652V33.237H43.5569V28.4652H42.5569ZM27.8039 33.5411C32.5098 30.779 37.7345 29.2145 43.0802 28.9646L43.0335 27.9657C37.5227 28.2233 32.1407 29.8361 27.2977 32.6786L27.8039 33.5411ZM27.5895 33.6676L27.8049 33.5404L27.2967 32.6792L27.0813 32.8063L27.5895 33.6676ZM45.2903 28.9122H45.9224V27.9122H45.2903V28.9122ZM45.7903 33.237V28.4122H44.7903V33.237H45.7903ZM57.1125 32.737H45.2903V33.737H57.1125V32.737ZM58.6955 30.7914L56.7456 32.8973L57.4794 33.5767L59.4293 31.4707L58.6955 30.7914ZM45.923 28.9122C50.3543 28.9069 54.7464 29.8153 58.8645 31.5902L59.2603 30.6719C55.0183 28.8436 50.4912 27.9067 45.9218 27.9122L45.923 28.9122ZM64.8101 48.5822C64.362 50.9504 62.2465 52.413 60.138 51.9477L59.9225 52.9242C62.6488 53.5258 65.2528 51.6208 65.7926 48.7681L64.8101 48.5822ZM64.8918 47.7103C64.8918 48.003 64.8643 48.2953 64.81 48.5824L65.7927 48.768C65.8584 48.42 65.8918 48.0655 65.8918 47.7103H64.8918ZM61.7115 43.4705C63.5379 43.8734 64.8922 45.6262 64.8918 47.7102L65.8918 47.7104C65.8923 45.2087 64.2603 43.0088 61.927 42.494L61.7115 43.4705ZM57.0394 46.836C57.4875 44.4678 59.6034 43.0052 61.7115 43.4705L61.927 42.494C59.2012 41.8923 56.5967 43.7973 56.0569 46.65L57.0394 46.836ZM60.138 51.9477C58.0155 51.4792 56.5897 49.2132 57.0394 46.8359L56.0569 46.6501C55.5187 49.4946 57.211 52.3257 59.9225 52.9242L60.138 51.9477ZM72.0924 36.3549H68.7421V37.3549H72.0924V36.3549ZM71.5924 35.4881V36.8549H72.5924V35.4881H71.5924ZM65.157 34.9247L72.0162 35.9823L72.1686 34.994L65.3094 33.9364L65.157 34.9247ZM64.5207 34.6738C64.7116 34.8025 64.9276 34.8889 65.1561 34.9245L65.3103 33.9365C65.2307 33.9241 65.1522 33.8936 65.0796 33.8446L64.5207 34.6738ZM61.0313 32.6123C62.2293 33.228 63.3944 33.9164 64.5211 34.6741L65.0792 33.8443C63.9203 33.065 62.7215 32.3566 61.4884 31.7229L61.0313 32.6123ZM58.7308 35.6349L61.6268 32.5073L60.893 31.8279L57.9971 34.9556L58.7308 35.6349ZM57.5747 36.1486C58.0165 36.1486 58.4317 35.9587 58.7312 35.6346L57.9967 34.9559C57.8781 35.0843 57.7254 35.1486 57.5747 35.1486V36.1486ZM45.2907 36.1486H57.5747V35.1486H45.2907V36.1486ZM45.7907 47.7088V35.6486H44.7907V47.7088H45.7907ZM54.228 47.2088H45.2907V48.2088H54.228V47.2088ZM60.9281 39.9719C56.9176 39.9762 53.7318 43.4741 53.728 47.7084L54.728 47.7093C54.7314 43.9528 57.541 40.9755 60.9291 40.9719L60.9281 39.9719ZM61.6632 40.0121C61.4234 39.9863 61.1824 39.9719 60.9286 39.9719V40.9719C61.1437 40.9719 61.3489 40.984 61.5563 41.0063L61.6632 40.0121ZM61.8435 40.0399C61.7994 40.0318 61.7322 40.019 61.66 40.0117L61.5596 41.0067C61.5839 41.0091 61.6108 41.0138 61.6612 41.0232L61.8435 40.0399ZM61.9247 40.054C61.9024 40.0508 61.8788 40.0465 61.8435 40.0399L61.6612 41.0232C61.6933 41.0291 61.7373 41.0374 61.7837 41.044L61.9247 40.054ZM62.045 40.0721C62.0052 40.0662 61.9685 40.0608 61.9324 40.0551L61.7761 41.0428C61.8185 41.0495 61.8607 41.0557 61.8996 41.0615L62.045 40.0721ZM62.3801 40.13C62.2609 40.1036 62.1425 40.0864 62.045 40.0721L61.8996 41.0615C62.0031 41.0767 62.0856 41.089 62.1636 41.1063L62.3801 40.13ZM62.558 40.1779C62.5131 40.1646 62.4492 40.1454 62.3806 40.1301L62.1631 41.1062C62.1923 41.1127 62.2232 41.1217 62.2733 41.1366L62.558 40.1779ZM62.6472 40.2033C62.6218 40.1968 62.5954 40.189 62.5579 40.1779L62.2733 41.1366C62.3077 41.1468 62.3531 41.1603 62.4009 41.1725L62.6472 40.2033ZM62.7525 40.2308C62.7178 40.2218 62.6855 40.2135 62.6535 40.2049L62.3946 41.1708C62.4314 41.1807 62.4679 41.1901 62.5019 41.1989L62.7525 40.2308ZM63.0691 40.3208C62.9569 40.2836 62.8454 40.2549 62.7525 40.2308L62.5019 41.1989C62.6002 41.2244 62.6792 41.245 62.7542 41.2699L63.0691 40.3208ZM63.27 40.3979C63.214 40.3749 63.1495 40.3482 63.073 40.3221L62.7502 41.2686C62.7933 41.2833 62.8307 41.2985 62.8894 41.3227L63.27 40.3979ZM63.3731 40.4396C63.3363 40.4252 63.304 40.4119 63.27 40.3979L62.8895 41.3227C62.9231 41.3365 62.963 41.353 63.0091 41.371L63.3731 40.4396ZM63.4625 40.4736C63.4299 40.4613 63.4001 40.4501 63.3719 40.4391L63.0103 41.3714C63.0433 41.3842 63.0773 41.3971 63.109 41.4091L63.4625 40.4736ZM63.7349 40.5835C63.6469 40.543 63.5423 40.5038 63.4625 40.4736L63.109 41.4091C63.1989 41.443 63.2674 41.4692 63.3171 41.492L63.7349 40.5835ZM63.9418 40.6883C63.8831 40.6568 63.8128 40.6189 63.733 40.5826L63.319 41.4929C63.3645 41.5136 63.4068 41.5361 63.4692 41.5696L63.9418 40.6883ZM64.0334 40.7368C64.0024 40.7208 63.9734 40.7052 63.9418 40.6883L63.4692 41.5696C63.5001 41.5861 63.5358 41.6053 63.5748 41.6254L64.0334 40.7368ZM64.1207 40.7812C64.0897 40.7656 64.061 40.751 64.0334 40.7368L63.5748 41.6254C63.6065 41.6418 63.6389 41.6582 63.6692 41.6735L64.1207 40.7812ZM64.3592 40.9072C64.281 40.8622 64.1927 40.8177 64.1207 40.7812L63.6692 41.6735C63.7475 41.7131 63.8102 41.745 63.8606 41.774L64.3592 40.9072ZM64.6624 41.1038C64.5631 41.034 64.4692 40.9698 64.3575 40.9062L63.8623 41.775C63.9315 41.8144 63.9939 41.8562 64.0873 41.9219L64.6624 41.1038ZM64.787 41.1855C64.7372 41.154 64.699 41.1297 64.6633 41.1045L64.0863 41.9212C64.1462 41.9635 64.2058 42.0011 64.2523 42.0305L64.787 41.1855ZM64.9508 41.2936C64.8928 41.2523 64.8332 41.2147 64.787 41.1855L64.2523 42.0305C64.3029 42.0625 64.3387 42.0853 64.3704 42.108L64.9508 41.2936ZM65.1666 41.4634C65.1073 41.4144 65.0328 41.3528 64.9533 41.2954L64.368 42.1062C64.4169 42.1416 64.4666 42.1823 64.5303 42.2348L65.1666 41.4634ZM65.234 41.5186C65.2125 41.5012 65.1907 41.4833 65.1666 41.4633L64.5304 42.2349C64.5538 42.2542 64.5794 42.2753 64.6053 42.2962L65.234 41.5186ZM65.3119 41.5799C65.2823 41.557 65.2582 41.5383 65.2351 41.5195L64.6042 42.2954C64.6382 42.323 64.6718 42.349 64.6999 42.3707L65.3119 41.5799ZM65.5142 41.7472C65.4399 41.6786 65.3663 41.622 65.3119 41.5799L64.6999 42.3707C64.7584 42.416 64.7983 42.4472 64.8359 42.4819L65.5142 41.7472ZM65.6787 41.9082C65.6318 41.8609 65.5744 41.8028 65.5144 41.7473L64.8357 42.4817C64.8768 42.5198 64.9188 42.562 64.9685 42.6121L65.6787 41.9082ZM65.7673 41.9963C65.7406 41.9706 65.7124 41.9421 65.6787 41.9082L64.9685 42.6121C65.0006 42.6445 65.0367 42.681 65.0726 42.7157L65.7673 41.9963ZM65.832 42.058C65.8087 42.036 65.7884 42.0168 65.7683 41.9973L65.0716 42.7146C65.0975 42.7398 65.123 42.7639 65.1455 42.7851L65.832 42.058ZM66.0187 42.2442C65.9505 42.1696 65.8842 42.1073 65.832 42.058L65.1455 42.7851C65.2004 42.837 65.241 42.8756 65.281 42.9193L66.0187 42.2442ZM66.1523 42.4009C66.1158 42.3566 66.0686 42.299 66.0197 42.2453L65.28 42.9182C65.3092 42.9502 65.3402 42.9879 65.38 43.0362L66.1523 42.4009ZM66.2421 42.507C66.2186 42.4813 66.1913 42.4484 66.1523 42.4009L65.38 43.0362C65.4148 43.0784 65.4594 43.1329 65.5039 43.1816L66.2421 42.507ZM66.2482 42.5137L66.2421 42.507L65.5039 43.1816L65.51 43.1883L66.2482 42.5137ZM66.477 42.7809C66.3932 42.672 66.3147 42.5865 66.2481 42.5136L65.51 43.1883C65.5781 43.2628 65.6296 43.3195 65.6843 43.3906L66.477 42.7809ZM66.6587 43.0366C66.6086 42.9632 66.5445 42.8687 66.477 42.7809L65.6843 43.3906C65.7312 43.4515 65.7791 43.5216 65.8322 43.5996L66.6587 43.0366ZM66.695 43.0898C66.6835 43.073 66.6715 43.0555 66.6587 43.0366L65.8322 43.5996C65.8449 43.6181 65.8579 43.6373 65.8707 43.6559L66.695 43.0898ZM66.7571 43.1782C66.7347 43.1466 66.7148 43.1187 66.695 43.0898L65.8707 43.6559C65.8957 43.6923 65.92 43.7266 65.9419 43.7573L66.7571 43.1782ZM66.8873 43.368C66.8399 43.2946 66.7952 43.2318 66.7571 43.1782L65.9419 43.7573C65.9809 43.8122 66.0135 43.8583 66.0474 43.9108L66.8873 43.368ZM67.0864 43.715C67.0316 43.609 66.9623 43.4843 66.8875 43.3684L66.0471 43.9103C66.0996 43.9917 66.153 44.0869 66.1981 44.1742L67.0864 43.715ZM67.1475 43.8222C67.1209 43.777 67.1019 43.7445 67.0851 43.7124L66.1995 44.1768C66.2295 44.234 66.261 44.2874 66.2856 44.3293L67.1475 43.8222ZM67.2501 44.0059C67.2139 43.9347 67.1761 43.8709 67.1475 43.8222L66.2856 44.3293C66.3162 44.3812 66.3386 44.4197 66.3589 44.4595L67.2501 44.0059ZM67.3599 44.2437C67.3298 44.175 67.2926 44.0901 67.2509 44.0074L66.3581 44.458C66.3857 44.5125 66.4122 44.5726 66.4443 44.6458L67.3599 44.2437ZM67.4044 44.3437C67.3903 44.3129 67.3761 44.2804 67.3599 44.2437L66.4443 44.6457C66.4599 44.6813 66.477 44.7203 66.4946 44.7588L67.4044 44.3437ZM67.4433 44.4263C67.4285 44.3954 67.4161 44.3693 67.4044 44.3437L66.4946 44.7588C66.5108 44.7943 66.5273 44.8287 66.5414 44.8583L67.4433 44.4263ZM67.5585 44.6914C67.5211 44.5877 67.4758 44.4941 67.4433 44.4263L66.5414 44.8583C66.5772 44.9329 66.6002 44.9818 66.6177 45.0304L67.5585 44.6914ZM67.6247 44.887C67.605 44.827 67.5828 44.7594 67.5587 44.6921L66.6174 45.0297C66.6362 45.0821 66.6542 45.1368 66.6747 45.199L67.6247 44.887ZM67.672 45.028C67.6565 44.9837 67.6414 44.9379 67.6247 44.8869L66.6747 45.199C66.6909 45.2485 66.7088 45.3029 66.7277 45.3573L67.672 45.028ZM67.7046 45.1213C67.6933 45.0895 67.6829 45.0599 67.6728 45.0304L66.7269 45.3549C66.7386 45.389 66.7504 45.4226 66.7614 45.4538L67.7046 45.1213ZM67.7906 45.3798C67.7628 45.2861 67.7312 45.197 67.7046 45.1213L66.7614 45.4538C66.7895 45.5332 66.8124 45.5987 66.8318 45.6641L67.7906 45.3798ZM67.8529 45.6245C67.8368 45.5549 67.8167 45.4672 67.7902 45.3786L66.8322 45.6653C66.848 45.7183 66.8612 45.7748 66.8786 45.8497L67.8529 45.6245ZM67.8807 45.7413C67.8715 45.7051 67.8629 45.6679 67.8529 45.6245L66.8786 45.8497C66.8882 45.8913 66.8992 45.9392 66.9116 45.9877L67.8807 45.7413ZM67.8983 45.8103C67.8923 45.7867 67.8865 45.764 67.8808 45.7418L66.9115 45.9873C66.9175 46.0112 66.9237 46.0354 66.9297 46.0588L67.8983 45.8103ZM67.9703 46.1118C67.9495 46.009 67.9216 45.9008 67.8983 45.8103L66.9297 46.0588C66.9544 46.155 66.9754 46.2374 66.9902 46.3103L67.9703 46.1118ZM68.0128 46.3785C68.0021 46.3005 67.9891 46.2044 67.9702 46.1113L66.9902 46.3107C67.0016 46.3665 67.0105 46.4298 67.0221 46.5145L68.0128 46.3785ZM68.0283 46.4875C68.023 46.4526 68.0182 46.4172 68.0128 46.3785L67.0221 46.5145C67.0273 46.5522 67.033 46.594 67.0394 46.6363L68.0283 46.4875ZM68.0439 46.5888C68.0383 46.5533 68.0332 46.5209 68.0285 46.489L67.0392 46.6348C67.0448 46.6728 67.0507 46.7104 67.0562 46.745L68.0439 46.5888ZM68.083 46.8768C68.0732 46.7728 68.057 46.6715 68.0439 46.5888L67.0562 46.745C67.0701 46.8331 67.0811 46.9032 67.0874 46.9704L68.083 46.8768ZM68.0983 47.1331C68.0951 47.0593 68.0912 46.968 68.0832 46.8786L67.0872 46.9686C67.0928 47.0307 67.0958 47.0982 67.0992 47.1765L68.0983 47.1331ZM68.1042 47.2546C68.102 47.2186 68.1003 47.1793 68.0983 47.1331L67.0992 47.1765C67.1012 47.2206 67.1032 47.2693 67.1061 47.316L68.1042 47.2546ZM68.1116 47.3538C68.1086 47.3168 68.1061 47.2854 68.1042 47.2547L67.1061 47.316C67.1087 47.3577 67.112 47.3986 67.1148 47.434L68.1116 47.3538ZM68.1252 47.6171C68.1252 47.519 68.1173 47.4248 68.1116 47.3538L67.1148 47.434C67.1211 47.5116 67.1252 47.5658 67.1252 47.6171H68.1252ZM70.6293 45.769L67.4262 47.1584L67.8241 48.0758L71.0272 46.6864L70.6293 45.769ZM71.5924 44.2141C71.5946 44.92 71.1966 45.527 70.6321 45.7678L71.0244 46.6876C71.9904 46.2756 72.5957 45.2828 72.5924 44.2111L71.5924 44.2141ZM71.5924 39.2676V44.2126H72.5924V39.2676H71.5924ZM68.7421 39.7676H72.0924V38.7676H68.7421V39.7676ZM68.2421 36.8549V39.2676H69.2421V36.8549H68.2421ZM35.2398 37.3545H39.7066V36.3545H35.2398V37.3545ZM35.7398 39.2676V36.8545H34.7398V39.2676H35.7398ZM39.7066 38.7676H35.2398V39.7676H39.7066V38.7676ZM39.2066 36.8545V39.2676H40.2066V36.8545H39.2066Z" fill="#EDC939" mask="url(#path-2-inside-1)"/>
</svg>
