<svg width="26" height="22" viewBox="0 0 26 22" fill="none" xmlns="http://www.w3.org/2000/svg">
<path d="M25.6876 0.36485C25.4452 0.162811 25.1115 0.110244 24.8187 0.227872L2.86867 9.08749C2.64667 9.17723 2.53946 9.43001 2.6292 9.65201C2.71895 9.87401 2.97173 9.98122 3.19373 9.89148L24.1625 1.43061L13.7609 13.6985C13.6062 13.8811 13.6288 14.1546 13.8114 14.3094C13.994 14.4641 14.2675 14.4415 14.4223 14.2589L24.9812 1.80462L23.57 8.88814L22.1485 18.387C22.129 18.5199 22.049 18.6363 21.9318 18.7021C21.8194 18.7648 21.6841 18.7711 21.5664 18.719L15.6561 16.3951L12.82 15.2076C12.5993 15.115 12.3453 15.2188 12.2526 15.4394C12.2432 15.4691 12.237 15.4998 12.2345 15.5309H12.224L10.8159 20.9683L8.79542 13.9104L19.3271 6.06589C19.4617 5.97746 19.5362 5.82174 19.5205 5.66145C19.5048 5.50116 19.4015 5.36281 19.2523 5.30217C19.1032 5.24153 18.9326 5.2686 18.8096 5.37246L8.22378 13.2538L0.593319 10.1649C0.371878 10.0771 0.121081 10.1844 0.031743 10.4053C-0.0575951 10.6261 0.0480464 10.8776 0.268268 10.9685L7.93947 14.0725L9.9851 21.2141C10.0916 21.5829 10.4298 21.8364 10.8138 21.8351H10.8237C11.033 21.8314 11.2336 21.7507 11.3871 21.6084C11.4023 21.5994 11.4167 21.5892 11.4305 21.5781L15.6197 17.2944L21.2366 19.5217C21.5975 19.675 22.0093 19.6519 22.3508 19.4592C22.7028 19.264 22.9442 18.9164 23.004 18.5183L24.4217 9.03726L25.9819 1.20958C26.0468 0.895292 25.9338 0.570749 25.6876 0.36485ZM12.0308 19.7275L12.9457 16.2009L14.3785 16.8024L14.7478 16.9489L12.0308 19.7275Z" fill="black"/>
</svg>
