<svg width="28" height="28" viewBox="0 0 28 28" fill="none" xmlns="http://www.w3.org/2000/svg">
<g clip-path="url(#clip0)">
<path d="M24.0535 5.58716V6.48651H23.1541V5.58716H22.2548V6.48651H21.3554V5.58716H20.4561V8.28522H21.3554V7.38587H22.2548V8.28522H23.1541V7.38587H24.0535V8.28522H24.9528V5.58716H24.0535Z" fill="#B5A9A3"/>
<path d="M23.8435 2.57723C23.4714 2.48251 23.0886 2.43625 22.7046 2.43963C20.3964 2.44255 18.4642 4.19039 18.2307 6.48672H2.46909C1.22798 6.48818 0.222165 7.494 0.220703 8.73511V23.1248C0.222165 24.3659 1.22798 25.3717 2.46909 25.3732H24.953C26.1941 25.3717 27.1999 24.3659 27.2014 23.1248V8.73511C27.1979 8.48295 27.1513 8.23322 27.0638 7.99674C27.6711 5.61098 26.2293 3.18457 23.8435 2.57723ZM22.2377 3.35309C24.2077 3.09492 26.0139 4.48262 26.272 6.4526C26.3355 6.93646 26.2998 7.42818 26.1671 7.89781C26.1179 8.07049 26.0557 8.23912 25.9809 8.40235C25.9612 8.44732 25.9391 8.48914 25.918 8.53231C25.8551 8.65934 25.7847 8.78244 25.7071 8.90104C25.6873 8.93162 25.6689 8.9631 25.6477 8.99323C25.4396 9.29074 25.1878 9.55515 24.9008 9.77746C24.8815 9.7923 24.8617 9.80624 24.8424 9.82243C24.7101 9.92108 24.5711 10.0103 24.4264 10.0895C24.4093 10.099 24.3927 10.1098 24.3756 10.1188C23.8653 10.3889 23.2972 10.5313 22.7199 10.5338C22.6461 10.5338 22.5715 10.5298 22.4973 10.5248C22.4739 10.5248 22.4501 10.5248 22.4267 10.5212C21.87 10.4684 21.3314 10.2952 20.8483 10.0135L20.8231 9.99826C20.3433 9.70181 19.9392 9.29749 19.6432 8.8174L19.6306 8.79672C19.4647 8.52326 19.3358 8.229 19.2475 7.92164C19.243 7.90546 19.2394 7.88927 19.2349 7.87308C19.2006 7.74548 19.1734 7.61609 19.1535 7.48546C19.1485 7.45263 19.1427 7.42025 19.1382 7.38743C18.88 5.4175 20.2677 3.61126 22.2377 3.35309ZM21.3565 16.8293C21.3562 16.8293 21.3558 16.8293 21.3556 16.8293H15.0601C14.8117 16.8293 14.6104 17.0307 14.6104 17.279V20.8764C14.6104 21.3731 14.2078 21.7758 13.711 21.7758C13.2143 21.7758 12.8117 21.3731 12.8117 20.8764V18.8142L16.5953 15.0306H21.3556C21.6039 15.0306 21.8052 14.8293 21.8052 14.5809V11.3405C21.9768 11.3758 22.1505 11.4007 22.3251 11.4152C22.4519 11.4269 22.5787 11.4332 22.7046 11.4332H22.7122H22.732C22.8629 11.4332 22.9937 11.4255 23.1232 11.4138L23.2132 11.4039C23.242 11.4008 23.2707 11.3954 23.2995 11.3918C23.3796 11.381 23.4596 11.3693 23.5387 11.3545C23.5608 11.3504 23.5837 11.3486 23.6048 11.3441V20.8764C23.6048 21.3731 23.2022 21.7758 22.7055 21.7758C22.2088 21.7758 21.8061 21.3731 21.8061 20.8764V17.279C21.8061 17.0307 21.6048 16.8293 21.3565 16.8293ZM6.06651 15.0306H12.362C12.6103 15.0306 12.8117 14.8293 12.8117 14.5809V10.9835C12.8117 10.4868 13.2143 10.0841 13.711 10.0841C14.2078 10.0841 14.6104 10.4868 14.6104 10.9835V13.0457L10.8268 16.8293H6.06651C5.81818 16.8293 5.61683 17.0307 5.61683 17.279V20.8764C5.61683 21.3731 5.2142 21.7758 4.71748 21.7758C4.22075 21.7758 3.81812 21.3731 3.81812 20.8764V10.9835C3.81812 10.4868 4.22075 10.0841 4.71748 10.0841C5.2142 10.0841 5.61683 10.4868 5.61683 10.9835V14.5809C5.61683 14.8293 5.81818 15.0306 6.06651 15.0306ZM19.1917 9.73609L19.1971 9.74194C19.2957 9.86459 19.4009 9.98201 19.5119 10.0936C19.5168 10.099 19.5213 10.1053 19.5267 10.1102L19.5357 10.1188L19.5487 10.1305C19.6589 10.2395 19.7745 10.3429 19.895 10.4403L19.9049 10.4493L16.0912 14.263L12.8117 17.5425V17.279C12.8117 17.0307 12.6103 16.8293 12.362 16.8293H12.0985L19.1917 9.73609ZM20.6765 10.9493C20.7512 10.9871 20.829 11.019 20.9059 11.0527V14.1312H17.4946L20.6765 10.9493ZM26.302 23.1248C26.302 23.8699 25.698 24.4738 24.953 24.4738H2.46909C1.72403 24.4738 1.12006 23.8699 1.12006 23.1248V8.73511C1.12006 7.99005 1.72403 7.38608 2.46909 7.38608H18.2303C18.2339 7.42385 18.242 7.46028 18.2465 7.4976C18.251 7.53492 18.2577 7.57494 18.2636 7.61317C18.29 7.79023 18.3268 7.9656 18.3737 8.13839L18.3773 8.15143C18.4319 8.3435 18.4993 8.53174 18.5788 8.71488C18.5828 8.72387 18.5873 8.73286 18.5914 8.74231C18.6242 8.8165 18.6552 8.8916 18.6921 8.964L15.5097 12.1464V10.9835C15.5097 9.9901 14.7044 9.18479 13.711 9.18479C12.7176 9.18479 11.9123 9.9901 11.9123 10.9835V14.1312H6.51619V10.9835C6.51619 9.9901 5.71087 9.18479 4.71748 9.18479C3.72409 9.18479 2.91877 9.9901 2.91877 10.9835V20.8764C2.91877 21.8698 3.72409 22.6751 4.71748 22.6751C5.71087 22.6751 6.51619 21.8698 6.51619 20.8764V17.7287H11.9123V20.8764C11.9123 21.8698 12.7176 22.6751 13.711 22.6751C14.7044 22.6751 15.5097 21.8698 15.5097 20.8764V17.7287H20.9059V20.8764C20.9059 21.8698 21.7112 22.6751 22.7046 22.6751C23.698 22.6751 24.5033 21.8698 24.5033 20.8764V11.0496C25.2159 10.7395 25.8357 10.2495 26.302 9.62772V23.1248Z" fill="#B5A9A3"/>
<path d="M2.91889 8.2854H2.01953V9.18476H2.91889V8.2854Z" fill="#B5A9A3"/>
<path d="M2.91889 22.675H2.01953V23.5744H2.91889V22.675Z" fill="#B5A9A3"/>
<path d="M25.4023 22.675H24.5029V23.5744H25.4023V22.675Z" fill="#B5A9A3"/>
</g>
<defs>
<clipPath id="clip0">
<rect x="0.220703" y="0.415283" width="26.9819" height="26.9819" fill="white"/>
</clipPath>
</defs>
</svg>
