<svg width="25" height="25" viewBox="0 0 25 25" fill="none" xmlns="http://www.w3.org/2000/svg">
<path d="M12.5 0C5.60721 0 0 5.60721 0 12.5C0 14.8514 0.653365 17.1341 1.89279 19.1163C1.39904 20.8462 0.507212 24.1183 0.497596 24.1524C0.451442 24.3216 0.500961 24.5024 0.627404 24.624C0.753846 24.7457 0.936538 24.7889 1.10288 24.738L6.05769 23.2139C7.99856 24.3832 10.2212 25 12.5 25C19.3928 25 25 19.3928 25 12.5C25 5.60721 19.3928 0 12.5 0ZM12.5 24.0385C10.3274 24.0385 8.21106 23.4312 6.37933 22.2832C6.30192 22.2346 6.21298 22.2101 6.12404 22.2101C6.07644 22.2101 6.02885 22.2173 5.98269 22.2313L1.65625 23.563C1.97404 22.4029 2.54519 20.3279 2.87644 19.1736C2.9149 19.0399 2.89327 18.8957 2.81779 18.7788C1.60337 16.9101 0.961538 14.7389 0.961538 12.5C0.961538 6.13798 6.13798 0.961538 12.5 0.961538C18.862 0.961538 24.0385 6.13798 24.0385 12.5C24.0385 18.862 18.862 24.0385 12.5 24.0385Z" fill="white"/>
<path d="M20.666 15.4451C19.7785 14.9523 19.0227 14.4581 18.4713 14.0975C18.0501 13.8225 17.7458 13.6239 17.5227 13.5119C16.8992 13.2009 16.4266 13.4206 16.2468 13.6023C16.2242 13.6249 16.204 13.6494 16.1867 13.6754C15.5391 14.647 14.6934 15.5763 14.4458 15.6263C14.1598 15.5816 12.8208 14.8206 11.49 13.7124C10.1314 12.5802 9.27659 11.4961 9.15111 10.7576C10.0227 9.86048 10.3367 9.29605 10.3367 8.65374C10.3367 7.99173 8.79245 5.22778 8.51312 4.94846C8.23284 4.66865 7.60159 4.6249 6.63668 4.81721C6.54389 4.83596 6.45832 4.88163 6.39101 4.94846C6.27418 5.06528 3.54053 7.8523 4.83957 11.2302C6.26553 14.9374 9.92562 19.2465 14.592 19.9465C15.1223 20.0259 15.6194 20.0653 16.0848 20.0653C18.83 20.0653 20.4501 18.684 20.9064 15.9441C20.9405 15.7436 20.8439 15.5436 20.666 15.4451ZM14.7348 18.9956C9.80014 18.2557 6.69197 13.3667 5.73716 10.885C4.79005 8.42346 6.53668 6.22874 6.97514 5.73259C7.33187 5.67201 7.70736 5.64653 7.86409 5.67105C8.19149 6.12634 9.32514 8.26817 9.37514 8.65374C9.37514 8.90615 9.29293 9.25759 8.31409 10.2369C8.2237 10.3268 8.17322 10.4489 8.17322 10.5768C8.17322 13.0941 13.4828 16.5864 14.4232 16.5864C15.241 16.5864 16.3074 15.2119 16.9146 14.3162C16.9497 14.3177 17.0088 14.3297 17.0929 14.372C17.266 14.459 17.566 14.6547 17.9453 14.9028C18.4463 15.2302 19.1117 15.6648 19.8973 16.1153C19.5405 17.8316 18.5434 19.5677 14.7348 18.9956Z" fill="white"/>
</svg>
