<svg width="23" height="23" viewBox="0 0 23 23" fill="none" xmlns="http://www.w3.org/2000/svg">
<path d="M22.2246 1.85227H18.022V0.394311C18.022 0.307346 17.9875 0.223942 17.926 0.162447C17.8645 0.100953 17.7811 0.0664063 17.6941 0.0664063H16.2959C16.2529 0.0663817 16.2102 0.0748464 16.1704 0.0913164C16.1306 0.107786 16.0945 0.131939 16.064 0.162393C16.0336 0.192846 16.0094 0.229004 15.9929 0.268798C15.9765 0.308593 15.968 0.351243 15.968 0.394311V1.85227H12.4415V0.394311C12.4415 0.307346 12.4069 0.223942 12.3454 0.162447C12.2839 0.100953 12.2005 0.0664063 12.1136 0.0664063H10.7154C10.6284 0.0664063 10.545 0.100953 10.4835 0.162447C10.422 0.223942 10.3875 0.307346 10.3875 0.394311V1.85227H6.86126V0.394311C6.86129 0.351243 6.85282 0.308593 6.83635 0.268798C6.81988 0.229004 6.79573 0.192846 6.76528 0.162393C6.73482 0.131939 6.69866 0.107786 6.65887 0.0913164C6.61908 0.0748464 6.57643 0.0663817 6.53336 0.0664063H5.1348C5.04783 0.0664063 4.96443 0.100953 4.90293 0.162447C4.84144 0.223942 4.80689 0.307346 4.80689 0.394311V1.85227H0.604272C0.561204 1.85225 0.518554 1.86071 0.478759 1.87718C0.438965 1.89365 0.402807 1.9178 0.372353 1.94826C0.3419 1.97871 0.317747 2.01487 0.301277 2.05466C0.284807 2.09446 0.276343 2.13711 0.276367 2.18018V22.0147C0.276343 22.0578 0.284807 22.1004 0.301277 22.1402C0.317747 22.18 0.3419 22.2162 0.372353 22.2466C0.402807 22.2771 0.438965 22.3012 0.478759 22.3177C0.518554 22.3342 0.561204 22.3426 0.604272 22.3426H22.2246C22.2677 22.3426 22.3104 22.3342 22.3502 22.3177C22.39 22.3012 22.4261 22.2771 22.4566 22.2466C22.487 22.2162 22.5112 22.18 22.5276 22.1402C22.5441 22.1004 22.5526 22.0578 22.5525 22.0147V2.18018C22.5526 2.13711 22.5441 2.09446 22.5276 2.05466C22.5112 2.01487 22.487 1.97871 22.4566 1.94826C22.4261 1.9178 22.39 1.89365 22.3502 1.87718C22.3104 1.86071 22.2677 1.85225 22.2246 1.85227ZM16.6235 0.722216H17.3658V3.63814H16.6235V0.722216ZM11.0429 0.722216H11.7853V3.63814H11.0433L11.0429 0.722216ZM5.46233 0.722216H6.20545V3.63814H5.4627L5.46233 0.722216ZM0.932177 2.50808H4.80689V3.96604C4.80689 4.05301 4.84144 4.13641 4.90293 4.19791C4.96443 4.2594 5.04783 4.29395 5.1348 4.29395H6.53298C6.57605 4.29397 6.6187 4.28551 6.6585 4.26904C6.69829 4.25257 6.73445 4.22841 6.7649 4.19796C6.79536 4.16751 6.81951 4.13135 6.83598 4.09155C6.85245 4.05176 6.86091 4.00911 6.86089 3.96604V2.50808H10.3875V3.96604C10.3875 4.05301 10.422 4.13641 10.4835 4.19791C10.545 4.2594 10.6284 4.29395 10.7154 4.29395H12.1136C12.2005 4.29395 12.2839 4.2594 12.3454 4.19791C12.4069 4.13641 12.4415 4.05301 12.4415 3.96604V2.50808H15.9677V3.96604C15.9676 4.00911 15.9761 4.05176 15.9926 4.09155C16.009 4.13135 16.0332 4.16751 16.0636 4.19796C16.0941 4.22841 16.1303 4.25257 16.17 4.26904C16.2098 4.28551 16.2525 4.29397 16.2956 4.29395H17.6937C17.7807 4.29395 17.8641 4.2594 17.9256 4.19791C17.9871 4.13641 18.0217 4.05301 18.0217 3.96604V2.50808H21.8964V6.26025H0.932177V2.50808ZM0.932177 21.6868V6.91606H21.8967V21.6868H0.932177Z" fill="#B5A9A3"/>
<path d="M11.4143 8.3938C10.2457 8.3938 9.10333 8.74035 8.13166 9.38962C7.16 10.0389 6.4027 10.9617 5.95553 12.0414C5.50836 13.1211 5.3914 14.3091 5.61946 15.4553C5.84752 16.6015 6.41034 17.6542 7.23674 18.4805C8.06315 19.3068 9.11603 19.8695 10.2622 20.0973C11.4084 20.3252 12.5964 20.2081 13.6761 19.7607C14.7557 19.3134 15.6784 18.5559 16.3275 17.5842C16.9766 16.6124 17.323 15.47 17.3228 14.3013C17.3208 12.735 16.6976 11.2335 15.5899 10.126C14.4823 9.01853 12.9806 8.39558 11.4143 8.3938ZM11.4143 19.5548C10.3755 19.5548 9.35997 19.2467 8.49619 18.6696C7.63241 18.0924 6.95916 17.2721 6.56158 16.3124C6.16399 15.3526 6.05993 14.2965 6.26255 13.2776C6.46516 12.2587 6.96535 11.3228 7.69987 10.5882C8.4344 9.85353 9.37026 9.3532 10.3891 9.15044C11.408 8.94768 12.4641 9.05159 13.4239 9.44904C14.3837 9.84649 15.2041 10.5196 15.7814 11.3833C16.3587 12.247 16.6668 13.2625 16.667 14.3013C16.6654 15.6939 16.1115 17.0291 15.1268 18.0138C14.142 18.9985 12.8069 19.5524 11.4143 19.554V19.5548Z" fill="#B5A9A3"/>
<path d="M11.7425 13.0799V10.5833C11.7425 10.4963 11.708 10.4129 11.6465 10.3514C11.585 10.2899 11.5016 10.2554 11.4146 10.2554C11.3277 10.2554 11.2442 10.2899 11.1828 10.3514C11.1213 10.4129 11.0867 10.4963 11.0867 10.5833V13.0799C10.8721 13.1373 10.6764 13.2502 10.5192 13.4073C10.3621 13.5644 10.2491 13.7601 10.1916 13.9747C10.1341 14.1893 10.1341 14.4153 10.1916 14.6299C10.2491 14.8445 10.362 15.0402 10.5192 15.1972C10.6763 15.3543 10.872 15.4673 11.0866 15.5248C11.3012 15.5823 11.5272 15.5822 11.7418 15.5247C11.9564 15.4671 12.152 15.3541 12.3091 15.1969C12.4661 15.0398 12.5791 14.8441 12.6365 14.6294H15.1331C15.22 14.6294 15.3034 14.5949 15.3649 14.5334C15.4264 14.4719 15.461 14.3885 15.461 14.3015C15.461 14.2146 15.4264 14.1312 15.3649 14.0697C15.3034 14.0082 15.22 13.9736 15.1331 13.9736H12.6365C12.5786 13.7595 12.4656 13.5643 12.3087 13.4075C12.1519 13.2507 11.9566 13.1377 11.7425 13.0799ZM11.4146 14.9122C11.2938 14.9122 11.1758 14.8764 11.0754 14.8093C10.9749 14.7422 10.8967 14.6468 10.8504 14.5352C10.8042 14.4236 10.7921 14.3009 10.8157 14.1824C10.8393 14.0639 10.8974 13.9551 10.9828 13.8697C11.0682 13.7843 11.177 13.7262 11.2955 13.7026C11.4139 13.6791 11.5367 13.6911 11.6483 13.7374C11.7599 13.7836 11.8553 13.8619 11.9224 13.9623C11.9895 14.0627 12.0253 14.1808 12.0253 14.3015C12.0251 14.4634 11.9607 14.6186 11.8462 14.7331C11.7317 14.8476 11.5765 14.912 11.4146 14.9122Z" fill="#B5A9A3"/>
<path d="M20.616 16.3606C20.529 16.3606 20.4456 16.3951 20.3841 16.4566C20.3226 16.5181 20.2881 16.6015 20.2881 16.6885V20.4277C20.2881 20.5147 20.3226 20.5981 20.3841 20.6596C20.4456 20.7211 20.529 20.7556 20.616 20.7556C20.703 20.7556 20.7864 20.7211 20.8479 20.6596C20.9093 20.5981 20.9439 20.5147 20.9439 20.4277V16.6885C20.9439 16.6454 20.9355 16.6028 20.919 16.563C20.9025 16.5232 20.8784 16.487 20.8479 16.4566C20.8175 16.4261 20.7813 16.402 20.7415 16.3855C20.7017 16.369 20.6591 16.3606 20.616 16.3606Z" fill="#B5A9A3"/>
<path d="M20.616 13.9734C20.529 13.9734 20.4457 14.008 20.3842 14.0695C20.3227 14.131 20.2881 14.2143 20.2881 14.3013V15.2614C20.2881 15.3484 20.3226 15.4318 20.3841 15.4933C20.4456 15.5548 20.529 15.5893 20.616 15.5893C20.703 15.5893 20.7864 15.5548 20.8479 15.4933C20.9093 15.4318 20.9439 15.3484 20.9439 15.2614V14.3013C20.9439 14.2143 20.9093 14.1309 20.8479 14.0694C20.7864 14.0079 20.703 13.9734 20.616 13.9734Z" fill="#B5A9A3"/>
</svg>
