<svg width="26" height="20" viewBox="0 0 26 20" fill="none" xmlns="http://www.w3.org/2000/svg">
<path d="M25.7396 4.48785C25.7396 4.40103 25.4791 2.49121 24.6544 1.57969C23.6561 0.494569 22.571 0.364352 22.0067 0.320912H21.8331C18.3173 0.0604785 13.0652 0.0170898 12.9784 0.0170898C12.935 0.0170898 7.63946 0.0604785 4.16699 0.407741H4.03678C3.42903 0.451129 2.3439 0.581346 1.389 1.66647C0.520868 2.57799 0.260434 4.53124 0.260434 4.61807C0.260434 4.61807 0 6.83176 0 9.04545V11.0855C0 13.2558 0.260434 15.4695 0.260434 15.5129C0.260434 15.5997 0.520868 17.5096 1.34556 18.4211C2.25708 19.4628 3.3422 19.593 4.03673 19.6798C4.16694 19.6798 4.25377 19.6798 4.38399 19.7232C6.38063 19.8968 12.7179 19.9837 12.9783 19.9837C13.0217 19.9837 18.3172 19.9837 21.8331 19.593H21.9633C22.571 19.5496 23.6561 19.4194 24.611 18.3342C25.4791 17.4227 25.7396 15.4695 25.7396 15.3826C25.7396 15.3826 26 13.169 26 10.9553V8.91523C26 6.74493 25.7396 4.53124 25.7396 4.48785ZM25.1319 11.0421C25.1319 13.2124 24.8714 15.3826 24.8714 15.3826C24.7846 15.8601 24.5242 17.2491 23.9599 17.8568C23.222 18.7249 22.3539 18.8117 21.8764 18.8551H21.7462C18.2738 19.1155 13.0217 19.1155 12.9783 19.1155C12.9349 19.1155 6.42407 19.0287 4.5142 18.8117C4.38399 18.8117 4.25377 18.7683 4.12355 18.7683C3.51586 18.7249 2.64778 18.5947 1.95325 17.8134C1.43239 17.2492 1.12856 15.8602 1.08512 15.3827C1.08512 15.3393 0.82469 13.169 0.82469 11.0421V9.00206C0.82469 6.83176 1.08512 4.66151 1.08512 4.66151C1.12851 4.18403 1.43239 2.79509 1.95325 2.18739C2.73456 1.31926 3.55925 1.23243 4.08011 1.18904H4.21033C7.6828 0.928609 12.9349 0.88522 12.9783 0.88522C13.0216 0.88522 18.2738 0.928609 21.7462 1.18904H21.9198C22.3973 1.23243 23.2653 1.31926 24.0033 2.18739C24.5241 2.79509 24.7846 4.18403 24.8714 4.66151C24.9148 4.74834 25.1318 6.91859 25.1318 9.00206V11.0421H25.1319Z" fill="white"/>
<path d="M18.404 10.0433L10.1569 5.22528C10.0267 5.13845 9.85312 5.13845 9.7229 5.22528C9.59269 5.31211 9.50586 5.44232 9.50586 5.61593V15.0349C9.50586 15.2085 9.59269 15.3388 9.7229 15.4256C9.80973 15.469 9.85312 15.469 9.93995 15.469C10.0268 15.469 10.0702 15.469 10.157 15.4256L18.4041 10.8246C18.5343 10.7378 18.6211 10.6076 18.6211 10.434C18.6211 10.2603 18.5342 10.1301 18.404 10.0433ZM10.374 14.297V6.35379L17.3189 10.4339L10.374 14.297Z" fill="white"/>
</svg>
